G04 #@! TF.GenerationSoftware,KiCad,Pcbnew,(5.1.8)-1*
G04 #@! TF.CreationDate,2021-04-14T20:49:20+02:00*
G04 #@! TF.ProjectId,Project_GCM,50726f6a-6563-4745-9f47-434d2e6b6963,V5.1*
G04 #@! TF.SameCoordinates,PX40d9900PY1e84800*
G04 #@! TF.FileFunction,Legend,Bot*
G04 #@! TF.FilePolarity,Positive*
%FSLAX46Y46*%
G04 Gerber Fmt 4.6, Leading zero omitted, Abs format (unit mm)*
G04 Created by KiCad (PCBNEW (5.1.8)-1) date 2021-04-14 20:49:20*
%MOMM*%
%LPD*%
G01*
G04 APERTURE LIST*
%ADD10C,0.750000*%
%ADD11C,0.010000*%
%ADD12C,0.120000*%
%ADD13C,0.150000*%
G04 APERTURE END LIST*
D10*
X16500000Y-110785714D02*
X16071428Y-110928571D01*
X15928571Y-111071428D01*
X15785714Y-111357142D01*
X15785714Y-111785714D01*
X15928571Y-112071428D01*
X16071428Y-112214285D01*
X16357142Y-112357142D01*
X17500000Y-112357142D01*
X17500000Y-109357142D01*
X16500000Y-109357142D01*
X16214285Y-109500000D01*
X16071428Y-109642857D01*
X15928571Y-109928571D01*
X15928571Y-110214285D01*
X16071428Y-110500000D01*
X16214285Y-110642857D01*
X16500000Y-110785714D01*
X17500000Y-110785714D01*
X13928571Y-109357142D02*
X13357142Y-109357142D01*
X13071428Y-109500000D01*
X12785714Y-109785714D01*
X12642857Y-110357142D01*
X12642857Y-111357142D01*
X12785714Y-111928571D01*
X13071428Y-112214285D01*
X13357142Y-112357142D01*
X13928571Y-112357142D01*
X14214285Y-112214285D01*
X14500000Y-111928571D01*
X14642857Y-111357142D01*
X14642857Y-110357142D01*
X14500000Y-109785714D01*
X14214285Y-109500000D01*
X13928571Y-109357142D01*
X11785714Y-109357142D02*
X10071428Y-109357142D01*
X10928571Y-112357142D02*
X10928571Y-109357142D01*
D11*
G36*
X186774070Y-45931094D02*
G01*
X187008564Y-45868019D01*
X187204925Y-45730136D01*
X187342404Y-45563453D01*
X187419883Y-45377181D01*
X187439754Y-45153054D01*
X187403269Y-44926604D01*
X187313275Y-44735593D01*
X187146570Y-44575293D01*
X186932331Y-44474410D01*
X186697087Y-44438015D01*
X186467368Y-44471180D01*
X186314707Y-44544722D01*
X186124146Y-44702844D01*
X186012670Y-44874817D01*
X185966068Y-45086545D01*
X185962408Y-45186833D01*
X185972016Y-45366871D01*
X186009125Y-45496894D01*
X186086163Y-45619747D01*
X186089104Y-45623616D01*
X186284056Y-45810524D01*
X186515653Y-45914842D01*
X186772165Y-45931307D01*
X186774070Y-45931094D01*
G37*
X186774070Y-45931094D02*
X187008564Y-45868019D01*
X187204925Y-45730136D01*
X187342404Y-45563453D01*
X187419883Y-45377181D01*
X187439754Y-45153054D01*
X187403269Y-44926604D01*
X187313275Y-44735593D01*
X187146570Y-44575293D01*
X186932331Y-44474410D01*
X186697087Y-44438015D01*
X186467368Y-44471180D01*
X186314707Y-44544722D01*
X186124146Y-44702844D01*
X186012670Y-44874817D01*
X185966068Y-45086545D01*
X185962408Y-45186833D01*
X185972016Y-45366871D01*
X186009125Y-45496894D01*
X186086163Y-45619747D01*
X186089104Y-45623616D01*
X186284056Y-45810524D01*
X186515653Y-45914842D01*
X186772165Y-45931307D01*
X186774070Y-45931094D01*
G36*
X175391107Y-45931094D02*
G01*
X175625601Y-45868019D01*
X175821962Y-45730136D01*
X175959441Y-45563453D01*
X176036920Y-45377181D01*
X176056791Y-45153054D01*
X176020306Y-44926604D01*
X175930312Y-44735593D01*
X175763607Y-44575293D01*
X175549368Y-44474410D01*
X175314124Y-44438015D01*
X175084405Y-44471180D01*
X174931744Y-44544722D01*
X174741183Y-44702844D01*
X174629707Y-44874817D01*
X174583105Y-45086545D01*
X174579445Y-45186833D01*
X174589053Y-45366871D01*
X174626162Y-45496894D01*
X174703200Y-45619747D01*
X174706141Y-45623616D01*
X174901093Y-45810524D01*
X175132690Y-45914842D01*
X175389202Y-45931307D01*
X175391107Y-45931094D01*
G37*
X175391107Y-45931094D02*
X175625601Y-45868019D01*
X175821962Y-45730136D01*
X175959441Y-45563453D01*
X176036920Y-45377181D01*
X176056791Y-45153054D01*
X176020306Y-44926604D01*
X175930312Y-44735593D01*
X175763607Y-44575293D01*
X175549368Y-44474410D01*
X175314124Y-44438015D01*
X175084405Y-44471180D01*
X174931744Y-44544722D01*
X174741183Y-44702844D01*
X174629707Y-44874817D01*
X174583105Y-45086545D01*
X174579445Y-45186833D01*
X174589053Y-45366871D01*
X174626162Y-45496894D01*
X174703200Y-45619747D01*
X174706141Y-45623616D01*
X174901093Y-45810524D01*
X175132690Y-45914842D01*
X175389202Y-45931307D01*
X175391107Y-45931094D01*
G36*
X178177778Y-37148148D02*
G01*
X177660371Y-37148148D01*
X177660371Y-37665555D01*
X178177778Y-37665555D01*
X178177778Y-37148148D01*
G37*
X178177778Y-37148148D02*
X177660371Y-37148148D01*
X177660371Y-37665555D01*
X178177778Y-37665555D01*
X178177778Y-37148148D01*
G36*
X181282222Y-41804815D02*
G01*
X180764815Y-41804815D01*
X180764815Y-42839629D01*
X181282222Y-42839629D01*
X181282222Y-41804815D01*
G37*
X181282222Y-41804815D02*
X180764815Y-41804815D01*
X180764815Y-42839629D01*
X181282222Y-42839629D01*
X181282222Y-41804815D01*
G36*
X182834445Y-38182963D02*
G01*
X182317037Y-38182963D01*
X182317037Y-38700370D01*
X182834445Y-38700370D01*
X182834445Y-38182963D01*
G37*
X182834445Y-38182963D02*
X182317037Y-38182963D01*
X182317037Y-38700370D01*
X182834445Y-38700370D01*
X182834445Y-38182963D01*
G36*
X185421482Y-35078518D02*
G01*
X184904074Y-35078518D01*
X184904074Y-35595926D01*
X185421482Y-35595926D01*
X185421482Y-35078518D01*
G37*
X185421482Y-35078518D02*
X184904074Y-35078518D01*
X184904074Y-35595926D01*
X185421482Y-35595926D01*
X185421482Y-35078518D01*
G36*
X182317037Y-34561111D02*
G01*
X181799630Y-34561111D01*
X181799630Y-35078518D01*
X182317037Y-35078518D01*
X182317037Y-34561111D01*
G37*
X182317037Y-34561111D02*
X181799630Y-34561111D01*
X181799630Y-35078518D01*
X182317037Y-35078518D01*
X182317037Y-34561111D01*
G36*
X175391107Y-34548131D02*
G01*
X175625601Y-34485057D01*
X175821962Y-34347173D01*
X175959441Y-34180490D01*
X176036920Y-33994218D01*
X176056791Y-33770091D01*
X176020306Y-33543641D01*
X175930312Y-33352630D01*
X175763607Y-33192330D01*
X175549368Y-33091447D01*
X175314124Y-33055052D01*
X175084405Y-33088217D01*
X174931744Y-33161759D01*
X174741183Y-33319882D01*
X174629707Y-33491854D01*
X174583105Y-33703582D01*
X174579445Y-33803870D01*
X174589053Y-33983908D01*
X174626162Y-34113931D01*
X174703200Y-34236784D01*
X174706141Y-34240653D01*
X174901093Y-34427561D01*
X175132690Y-34531879D01*
X175389202Y-34548344D01*
X175391107Y-34548131D01*
G37*
X175391107Y-34548131D02*
X175625601Y-34485057D01*
X175821962Y-34347173D01*
X175959441Y-34180490D01*
X176036920Y-33994218D01*
X176056791Y-33770091D01*
X176020306Y-33543641D01*
X175930312Y-33352630D01*
X175763607Y-33192330D01*
X175549368Y-33091447D01*
X175314124Y-33055052D01*
X175084405Y-33088217D01*
X174931744Y-33161759D01*
X174741183Y-33319882D01*
X174629707Y-33491854D01*
X174583105Y-33703582D01*
X174579445Y-33803870D01*
X174589053Y-33983908D01*
X174626162Y-34113931D01*
X174703200Y-34236784D01*
X174706141Y-34240653D01*
X174901093Y-34427561D01*
X175132690Y-34531879D01*
X175389202Y-34548344D01*
X175391107Y-34548131D01*
G36*
X186985648Y-46979560D02*
G01*
X187263348Y-46966760D01*
X187497241Y-46944741D01*
X187664437Y-46913488D01*
X187685274Y-46907021D01*
X187971838Y-46761633D01*
X188220322Y-46540024D01*
X188373102Y-46328667D01*
X188502408Y-46108703D01*
X188502408Y-44227222D01*
X188373102Y-44007259D01*
X188166543Y-43738008D01*
X187907449Y-43532825D01*
X187685274Y-43428905D01*
X187540832Y-43398450D01*
X187325497Y-43376326D01*
X187061332Y-43362499D01*
X186770404Y-43356937D01*
X186474779Y-43359605D01*
X186196521Y-43370470D01*
X185957696Y-43389499D01*
X185780370Y-43416657D01*
X185725473Y-43431889D01*
X185459343Y-43571753D01*
X185220529Y-43784294D01*
X185056898Y-44007259D01*
X184927593Y-44227222D01*
X184927593Y-45167963D01*
X185468519Y-45167963D01*
X185471104Y-44834688D01*
X185481309Y-44581093D01*
X185502807Y-44392863D01*
X185539272Y-44255686D01*
X185594377Y-44155250D01*
X185671796Y-44077242D01*
X185764784Y-44013651D01*
X185830374Y-43979336D01*
X185907656Y-43954698D01*
X186012601Y-43938177D01*
X186161183Y-43928210D01*
X186369373Y-43923235D01*
X186653145Y-43921690D01*
X186705577Y-43921657D01*
X187019859Y-43923501D01*
X187254471Y-43929937D01*
X187423750Y-43942086D01*
X187542036Y-43961066D01*
X187623668Y-43987995D01*
X187636638Y-43994320D01*
X187746335Y-44060474D01*
X187828490Y-44139140D01*
X187886963Y-44244165D01*
X187925618Y-44389397D01*
X187948314Y-44588684D01*
X187958916Y-44855874D01*
X187961306Y-45158539D01*
X187958868Y-45493361D01*
X187948973Y-45748409D01*
X187928003Y-45937907D01*
X187892339Y-46076076D01*
X187838362Y-46177140D01*
X187762453Y-46255320D01*
X187665217Y-46322274D01*
X187600082Y-46356394D01*
X187523401Y-46380943D01*
X187419329Y-46397453D01*
X187272023Y-46407454D01*
X187065637Y-46412478D01*
X186784327Y-46414056D01*
X186715000Y-46414093D01*
X186416132Y-46413039D01*
X186195480Y-46408857D01*
X186037199Y-46400016D01*
X185925447Y-46384985D01*
X185844378Y-46362232D01*
X185778148Y-46330228D01*
X185764784Y-46322274D01*
X185663856Y-46252238D01*
X185588586Y-46172805D01*
X185535300Y-46069661D01*
X185500326Y-45928495D01*
X185479989Y-45734994D01*
X185470616Y-45474844D01*
X185468519Y-45167963D01*
X184927593Y-45167963D01*
X184928203Y-45491351D01*
X184930946Y-45735551D01*
X184937185Y-45915447D01*
X184948288Y-46045921D01*
X184965620Y-46141857D01*
X184990547Y-46218137D01*
X185024434Y-46289645D01*
X185031804Y-46303557D01*
X185196485Y-46530921D01*
X185420979Y-46732288D01*
X185671073Y-46878610D01*
X185741086Y-46905780D01*
X185894514Y-46938858D01*
X186118572Y-46962789D01*
X186390372Y-46977560D01*
X186687027Y-46983155D01*
X186985648Y-46979560D01*
G37*
X186985648Y-46979560D02*
X187263348Y-46966760D01*
X187497241Y-46944741D01*
X187664437Y-46913488D01*
X187685274Y-46907021D01*
X187971838Y-46761633D01*
X188220322Y-46540024D01*
X188373102Y-46328667D01*
X188502408Y-46108703D01*
X188502408Y-44227222D01*
X188373102Y-44007259D01*
X188166543Y-43738008D01*
X187907449Y-43532825D01*
X187685274Y-43428905D01*
X187540832Y-43398450D01*
X187325497Y-43376326D01*
X187061332Y-43362499D01*
X186770404Y-43356937D01*
X186474779Y-43359605D01*
X186196521Y-43370470D01*
X185957696Y-43389499D01*
X185780370Y-43416657D01*
X185725473Y-43431889D01*
X185459343Y-43571753D01*
X185220529Y-43784294D01*
X185056898Y-44007259D01*
X184927593Y-44227222D01*
X184927593Y-45167963D01*
X185468519Y-45167963D01*
X185471104Y-44834688D01*
X185481309Y-44581093D01*
X185502807Y-44392863D01*
X185539272Y-44255686D01*
X185594377Y-44155250D01*
X185671796Y-44077242D01*
X185764784Y-44013651D01*
X185830374Y-43979336D01*
X185907656Y-43954698D01*
X186012601Y-43938177D01*
X186161183Y-43928210D01*
X186369373Y-43923235D01*
X186653145Y-43921690D01*
X186705577Y-43921657D01*
X187019859Y-43923501D01*
X187254471Y-43929937D01*
X187423750Y-43942086D01*
X187542036Y-43961066D01*
X187623668Y-43987995D01*
X187636638Y-43994320D01*
X187746335Y-44060474D01*
X187828490Y-44139140D01*
X187886963Y-44244165D01*
X187925618Y-44389397D01*
X187948314Y-44588684D01*
X187958916Y-44855874D01*
X187961306Y-45158539D01*
X187958868Y-45493361D01*
X187948973Y-45748409D01*
X187928003Y-45937907D01*
X187892339Y-46076076D01*
X187838362Y-46177140D01*
X187762453Y-46255320D01*
X187665217Y-46322274D01*
X187600082Y-46356394D01*
X187523401Y-46380943D01*
X187419329Y-46397453D01*
X187272023Y-46407454D01*
X187065637Y-46412478D01*
X186784327Y-46414056D01*
X186715000Y-46414093D01*
X186416132Y-46413039D01*
X186195480Y-46408857D01*
X186037199Y-46400016D01*
X185925447Y-46384985D01*
X185844378Y-46362232D01*
X185778148Y-46330228D01*
X185764784Y-46322274D01*
X185663856Y-46252238D01*
X185588586Y-46172805D01*
X185535300Y-46069661D01*
X185500326Y-45928495D01*
X185479989Y-45734994D01*
X185470616Y-45474844D01*
X185468519Y-45167963D01*
X184927593Y-45167963D01*
X184928203Y-45491351D01*
X184930946Y-45735551D01*
X184937185Y-45915447D01*
X184948288Y-46045921D01*
X184965620Y-46141857D01*
X184990547Y-46218137D01*
X185024434Y-46289645D01*
X185031804Y-46303557D01*
X185196485Y-46530921D01*
X185420979Y-46732288D01*
X185671073Y-46878610D01*
X185741086Y-46905780D01*
X185894514Y-46938858D01*
X186118572Y-46962789D01*
X186390372Y-46977560D01*
X186687027Y-46983155D01*
X186985648Y-46979560D01*
G36*
X175602685Y-46979560D02*
G01*
X175880385Y-46966760D01*
X176114278Y-46944741D01*
X176281474Y-46913488D01*
X176302311Y-46907021D01*
X176588875Y-46761633D01*
X176837359Y-46540024D01*
X176990139Y-46328667D01*
X177119445Y-46108703D01*
X177119445Y-44227222D01*
X176990139Y-44007259D01*
X176783580Y-43738008D01*
X176524486Y-43532825D01*
X176302311Y-43428905D01*
X176157869Y-43398450D01*
X175942534Y-43376326D01*
X175678369Y-43362499D01*
X175387441Y-43356937D01*
X175091816Y-43359605D01*
X174813558Y-43370470D01*
X174574733Y-43389499D01*
X174397407Y-43416657D01*
X174342510Y-43431889D01*
X174076380Y-43571753D01*
X173837566Y-43784294D01*
X173673935Y-44007259D01*
X173544630Y-44227222D01*
X173544630Y-45167963D01*
X173544858Y-45289314D01*
X174080069Y-45289314D01*
X174080556Y-45013271D01*
X174089072Y-44749069D01*
X174105616Y-44517822D01*
X174130187Y-44340643D01*
X174158395Y-44246325D01*
X174224549Y-44136628D01*
X174303214Y-44054473D01*
X174408239Y-43996000D01*
X174553471Y-43957345D01*
X174752759Y-43934648D01*
X175019949Y-43924047D01*
X175322614Y-43921657D01*
X175636897Y-43923501D01*
X175871508Y-43929937D01*
X176040787Y-43942086D01*
X176159073Y-43961066D01*
X176240705Y-43987995D01*
X176253675Y-43994320D01*
X176363372Y-44060474D01*
X176445527Y-44139140D01*
X176504000Y-44244165D01*
X176542655Y-44389397D01*
X176565352Y-44588684D01*
X176575953Y-44855874D01*
X176578343Y-45158539D01*
X176575905Y-45493361D01*
X176566010Y-45748409D01*
X176545040Y-45937907D01*
X176509376Y-46076076D01*
X176455399Y-46177140D01*
X176379490Y-46255320D01*
X176282254Y-46322274D01*
X176217119Y-46356394D01*
X176140438Y-46380943D01*
X176036367Y-46397453D01*
X175889060Y-46407454D01*
X175682674Y-46412478D01*
X175401364Y-46414056D01*
X175332037Y-46414093D01*
X174992057Y-46411111D01*
X174732265Y-46399629D01*
X174538892Y-46375839D01*
X174398170Y-46335935D01*
X174296329Y-46276109D01*
X174219602Y-46192555D01*
X174158395Y-46089601D01*
X174126772Y-45977340D01*
X174103176Y-45792462D01*
X174087609Y-45556082D01*
X174080069Y-45289314D01*
X173544858Y-45289314D01*
X173545240Y-45491351D01*
X173547983Y-45735551D01*
X173554222Y-45915447D01*
X173565325Y-46045921D01*
X173582657Y-46141857D01*
X173607584Y-46218137D01*
X173641471Y-46289645D01*
X173648841Y-46303557D01*
X173813522Y-46530921D01*
X174038016Y-46732288D01*
X174288110Y-46878610D01*
X174358123Y-46905780D01*
X174511551Y-46938858D01*
X174735609Y-46962789D01*
X175007409Y-46977560D01*
X175304064Y-46983155D01*
X175602685Y-46979560D01*
G37*
X175602685Y-46979560D02*
X175880385Y-46966760D01*
X176114278Y-46944741D01*
X176281474Y-46913488D01*
X176302311Y-46907021D01*
X176588875Y-46761633D01*
X176837359Y-46540024D01*
X176990139Y-46328667D01*
X177119445Y-46108703D01*
X177119445Y-44227222D01*
X176990139Y-44007259D01*
X176783580Y-43738008D01*
X176524486Y-43532825D01*
X176302311Y-43428905D01*
X176157869Y-43398450D01*
X175942534Y-43376326D01*
X175678369Y-43362499D01*
X175387441Y-43356937D01*
X175091816Y-43359605D01*
X174813558Y-43370470D01*
X174574733Y-43389499D01*
X174397407Y-43416657D01*
X174342510Y-43431889D01*
X174076380Y-43571753D01*
X173837566Y-43784294D01*
X173673935Y-44007259D01*
X173544630Y-44227222D01*
X173544630Y-45167963D01*
X173544858Y-45289314D01*
X174080069Y-45289314D01*
X174080556Y-45013271D01*
X174089072Y-44749069D01*
X174105616Y-44517822D01*
X174130187Y-44340643D01*
X174158395Y-44246325D01*
X174224549Y-44136628D01*
X174303214Y-44054473D01*
X174408239Y-43996000D01*
X174553471Y-43957345D01*
X174752759Y-43934648D01*
X175019949Y-43924047D01*
X175322614Y-43921657D01*
X175636897Y-43923501D01*
X175871508Y-43929937D01*
X176040787Y-43942086D01*
X176159073Y-43961066D01*
X176240705Y-43987995D01*
X176253675Y-43994320D01*
X176363372Y-44060474D01*
X176445527Y-44139140D01*
X176504000Y-44244165D01*
X176542655Y-44389397D01*
X176565352Y-44588684D01*
X176575953Y-44855874D01*
X176578343Y-45158539D01*
X176575905Y-45493361D01*
X176566010Y-45748409D01*
X176545040Y-45937907D01*
X176509376Y-46076076D01*
X176455399Y-46177140D01*
X176379490Y-46255320D01*
X176282254Y-46322274D01*
X176217119Y-46356394D01*
X176140438Y-46380943D01*
X176036367Y-46397453D01*
X175889060Y-46407454D01*
X175682674Y-46412478D01*
X175401364Y-46414056D01*
X175332037Y-46414093D01*
X174992057Y-46411111D01*
X174732265Y-46399629D01*
X174538892Y-46375839D01*
X174398170Y-46335935D01*
X174296329Y-46276109D01*
X174219602Y-46192555D01*
X174158395Y-46089601D01*
X174126772Y-45977340D01*
X174103176Y-45792462D01*
X174087609Y-45556082D01*
X174080069Y-45289314D01*
X173544858Y-45289314D01*
X173545240Y-45491351D01*
X173547983Y-45735551D01*
X173554222Y-45915447D01*
X173565325Y-46045921D01*
X173582657Y-46141857D01*
X173607584Y-46218137D01*
X173641471Y-46289645D01*
X173648841Y-46303557D01*
X173813522Y-46530921D01*
X174038016Y-46732288D01*
X174288110Y-46878610D01*
X174358123Y-46905780D01*
X174511551Y-46938858D01*
X174735609Y-46962789D01*
X175007409Y-46977560D01*
X175304064Y-46983155D01*
X175602685Y-46979560D01*
G36*
X177142963Y-42322222D02*
G01*
X176625556Y-42322222D01*
X176625556Y-42839629D01*
X177142963Y-42839629D01*
X177142963Y-42322222D01*
G37*
X177142963Y-42322222D02*
X176625556Y-42322222D01*
X176625556Y-42839629D01*
X177142963Y-42839629D01*
X177142963Y-42322222D01*
G36*
X188525926Y-38700370D02*
G01*
X188008519Y-38700370D01*
X188008519Y-39217778D01*
X188525926Y-39217778D01*
X188525926Y-38700370D01*
G37*
X188525926Y-38700370D02*
X188008519Y-38700370D01*
X188008519Y-39217778D01*
X188525926Y-39217778D01*
X188525926Y-38700370D01*
G36*
X182834445Y-42839629D02*
G01*
X182834445Y-42322222D01*
X183351852Y-42322222D01*
X183351852Y-42839629D01*
X182834445Y-42839629D01*
X182834445Y-43874444D01*
X183351852Y-43874444D01*
X183351852Y-43357037D01*
X183869259Y-43357037D01*
X183869259Y-44391852D01*
X183351852Y-44391852D01*
X183351852Y-45944074D01*
X184386667Y-45944074D01*
X184386667Y-42839629D01*
X183869259Y-42839629D01*
X183869259Y-41804815D01*
X183351852Y-41804815D01*
X183351852Y-41287407D01*
X183869259Y-41287407D01*
X183869259Y-40770000D01*
X184386667Y-40770000D01*
X184386667Y-39735185D01*
X184904074Y-39735185D01*
X184904074Y-39217778D01*
X183869259Y-39217778D01*
X183869259Y-37148148D01*
X183351852Y-37148148D01*
X183351852Y-36630741D01*
X182834445Y-36630741D01*
X182834445Y-37148148D01*
X182317037Y-37148148D01*
X182317037Y-37665555D01*
X183351852Y-37665555D01*
X183351852Y-39217778D01*
X181799630Y-39217778D01*
X181799630Y-38182963D01*
X180764815Y-38182963D01*
X180764815Y-38700370D01*
X180247408Y-38700370D01*
X180247408Y-39217778D01*
X179730000Y-39217778D01*
X179730000Y-39735185D01*
X180247408Y-39735185D01*
X180247408Y-40252592D01*
X181282222Y-40252592D01*
X181282222Y-39735185D01*
X181799630Y-39735185D01*
X181799630Y-40252592D01*
X182317037Y-40252592D01*
X182317037Y-39735185D01*
X183351852Y-39735185D01*
X183351852Y-39217778D01*
X183869259Y-39217778D01*
X183869259Y-40770000D01*
X182834445Y-40770000D01*
X182834445Y-40252592D01*
X182317037Y-40252592D01*
X181799630Y-40252592D01*
X181282222Y-40252592D01*
X180247408Y-40252592D01*
X180247408Y-40770000D01*
X180764815Y-40770000D01*
X180764815Y-41287407D01*
X181282222Y-41287407D01*
X181799630Y-41287407D01*
X181799630Y-40770000D01*
X182834445Y-40770000D01*
X182834445Y-41804815D01*
X182317037Y-41804815D01*
X182317037Y-41287407D01*
X181799630Y-41287407D01*
X181282222Y-41287407D01*
X181282222Y-41804815D01*
X182317037Y-41804815D01*
X182317037Y-42839629D01*
X182834445Y-42839629D01*
G37*
X182834445Y-42839629D02*
X182834445Y-42322222D01*
X183351852Y-42322222D01*
X183351852Y-42839629D01*
X182834445Y-42839629D01*
X182834445Y-43874444D01*
X183351852Y-43874444D01*
X183351852Y-43357037D01*
X183869259Y-43357037D01*
X183869259Y-44391852D01*
X183351852Y-44391852D01*
X183351852Y-45944074D01*
X184386667Y-45944074D01*
X184386667Y-42839629D01*
X183869259Y-42839629D01*
X183869259Y-41804815D01*
X183351852Y-41804815D01*
X183351852Y-41287407D01*
X183869259Y-41287407D01*
X183869259Y-40770000D01*
X184386667Y-40770000D01*
X184386667Y-39735185D01*
X184904074Y-39735185D01*
X184904074Y-39217778D01*
X183869259Y-39217778D01*
X183869259Y-37148148D01*
X183351852Y-37148148D01*
X183351852Y-36630741D01*
X182834445Y-36630741D01*
X182834445Y-37148148D01*
X182317037Y-37148148D01*
X182317037Y-37665555D01*
X183351852Y-37665555D01*
X183351852Y-39217778D01*
X181799630Y-39217778D01*
X181799630Y-38182963D01*
X180764815Y-38182963D01*
X180764815Y-38700370D01*
X180247408Y-38700370D01*
X180247408Y-39217778D01*
X179730000Y-39217778D01*
X179730000Y-39735185D01*
X180247408Y-39735185D01*
X180247408Y-40252592D01*
X181282222Y-40252592D01*
X181282222Y-39735185D01*
X181799630Y-39735185D01*
X181799630Y-40252592D01*
X182317037Y-40252592D01*
X182317037Y-39735185D01*
X183351852Y-39735185D01*
X183351852Y-39217778D01*
X183869259Y-39217778D01*
X183869259Y-40770000D01*
X182834445Y-40770000D01*
X182834445Y-40252592D01*
X182317037Y-40252592D01*
X181799630Y-40252592D01*
X181282222Y-40252592D01*
X180247408Y-40252592D01*
X180247408Y-40770000D01*
X180764815Y-40770000D01*
X180764815Y-41287407D01*
X181282222Y-41287407D01*
X181799630Y-41287407D01*
X181799630Y-40770000D01*
X182834445Y-40770000D01*
X182834445Y-41804815D01*
X182317037Y-41804815D01*
X182317037Y-41287407D01*
X181799630Y-41287407D01*
X181282222Y-41287407D01*
X181282222Y-41804815D01*
X182317037Y-41804815D01*
X182317037Y-42839629D01*
X182834445Y-42839629D01*
G36*
X181799630Y-42839629D02*
G01*
X181799630Y-44391852D01*
X182317037Y-44391852D01*
X182317037Y-42839629D01*
X181799630Y-42839629D01*
G37*
X181799630Y-42839629D02*
X181799630Y-44391852D01*
X182317037Y-44391852D01*
X182317037Y-42839629D01*
X181799630Y-42839629D01*
G36*
X187491111Y-38182963D02*
G01*
X188525926Y-38182963D01*
X188525926Y-37148148D01*
X188008519Y-37148148D01*
X188008519Y-37665555D01*
X186973704Y-37665555D01*
X186973704Y-37148148D01*
X185938889Y-37148148D01*
X185938889Y-37665555D01*
X186456297Y-37665555D01*
X186973704Y-37665555D01*
X186973704Y-38182963D01*
X186456297Y-38182963D01*
X186456297Y-37665555D01*
X185938889Y-37665555D01*
X184904074Y-37665555D01*
X184904074Y-38182963D01*
X185421482Y-38182963D01*
X185421482Y-38700370D01*
X185938889Y-38700370D01*
X185938889Y-38182963D01*
X186456297Y-38182963D01*
X186456297Y-38700370D01*
X185938889Y-38700370D01*
X185421482Y-38700370D01*
X185421482Y-39217778D01*
X185938889Y-39217778D01*
X186456297Y-39217778D01*
X186456297Y-38700370D01*
X186973704Y-38700370D01*
X186973704Y-39217778D01*
X186456297Y-39217778D01*
X185938889Y-39217778D01*
X185938889Y-39735185D01*
X184904074Y-39735185D01*
X184904074Y-40770000D01*
X185938889Y-40770000D01*
X185938889Y-40252592D01*
X186456297Y-40252592D01*
X186456297Y-39735185D01*
X187491111Y-39735185D01*
X187491111Y-38182963D01*
G37*
X187491111Y-38182963D02*
X188525926Y-38182963D01*
X188525926Y-37148148D01*
X188008519Y-37148148D01*
X188008519Y-37665555D01*
X186973704Y-37665555D01*
X186973704Y-37148148D01*
X185938889Y-37148148D01*
X185938889Y-37665555D01*
X186456297Y-37665555D01*
X186973704Y-37665555D01*
X186973704Y-38182963D01*
X186456297Y-38182963D01*
X186456297Y-37665555D01*
X185938889Y-37665555D01*
X184904074Y-37665555D01*
X184904074Y-38182963D01*
X185421482Y-38182963D01*
X185421482Y-38700370D01*
X185938889Y-38700370D01*
X185938889Y-38182963D01*
X186456297Y-38182963D01*
X186456297Y-38700370D01*
X185938889Y-38700370D01*
X185421482Y-38700370D01*
X185421482Y-39217778D01*
X185938889Y-39217778D01*
X186456297Y-39217778D01*
X186456297Y-38700370D01*
X186973704Y-38700370D01*
X186973704Y-39217778D01*
X186456297Y-39217778D01*
X185938889Y-39217778D01*
X185938889Y-39735185D01*
X184904074Y-39735185D01*
X184904074Y-40770000D01*
X185938889Y-40770000D01*
X185938889Y-40252592D01*
X186456297Y-40252592D01*
X186456297Y-39735185D01*
X187491111Y-39735185D01*
X187491111Y-38182963D01*
G36*
X182834445Y-45944074D02*
G01*
X182834445Y-46461481D01*
X182317037Y-46461481D01*
X182317037Y-46978889D01*
X183351852Y-46978889D01*
X183351852Y-45944074D01*
X182834445Y-45944074D01*
G37*
X182834445Y-45944074D02*
X182834445Y-46461481D01*
X182317037Y-46461481D01*
X182317037Y-46978889D01*
X183351852Y-46978889D01*
X183351852Y-45944074D01*
X182834445Y-45944074D01*
G36*
X183351852Y-36630741D02*
G01*
X183869259Y-36630741D01*
X183869259Y-37148148D01*
X184386667Y-37148148D01*
X184386667Y-36630741D01*
X184904074Y-36630741D01*
X184904074Y-37148148D01*
X185421482Y-37148148D01*
X185421482Y-36630741D01*
X186456297Y-36630741D01*
X186456297Y-36113333D01*
X186973704Y-36113333D01*
X186973704Y-35595926D01*
X187491111Y-35595926D01*
X187491111Y-35078518D01*
X186456297Y-35078518D01*
X186456297Y-34561111D01*
X186973704Y-34561111D01*
X186973704Y-34043703D01*
X187491111Y-34043703D01*
X187491111Y-33526296D01*
X188008519Y-33526296D01*
X188008519Y-33008889D01*
X187491111Y-33008889D01*
X187491111Y-31974074D01*
X186973704Y-31974074D01*
X186973704Y-32491481D01*
X186456297Y-32491481D01*
X186456297Y-31974074D01*
X184904074Y-31974074D01*
X184904074Y-33008889D01*
X185938889Y-33008889D01*
X185938889Y-32491481D01*
X186456297Y-32491481D01*
X186456297Y-33008889D01*
X185938889Y-33008889D01*
X184904074Y-33008889D01*
X183351852Y-33008889D01*
X183351852Y-32491481D01*
X182834445Y-32491481D01*
X182834445Y-31974074D01*
X182317037Y-31974074D01*
X182317037Y-32491481D01*
X181799630Y-32491481D01*
X181799630Y-33008889D01*
X182317037Y-33008889D01*
X182317037Y-32491481D01*
X182834445Y-32491481D01*
X182834445Y-33008889D01*
X182317037Y-33008889D01*
X181799630Y-33008889D01*
X181282222Y-33008889D01*
X181282222Y-32491481D01*
X180247408Y-32491481D01*
X180247408Y-31974074D01*
X179212593Y-31974074D01*
X179212593Y-32491481D01*
X178695185Y-32491481D01*
X178695185Y-31974074D01*
X177660371Y-31974074D01*
X177660371Y-32491481D01*
X178177778Y-32491481D01*
X178177778Y-34561111D01*
X178695185Y-34561111D01*
X178695185Y-34043703D01*
X179730000Y-34043703D01*
X180247408Y-34043703D01*
X180247408Y-33008889D01*
X181282222Y-33008889D01*
X181282222Y-34561111D01*
X181799630Y-34561111D01*
X181799630Y-34043703D01*
X182317037Y-34043703D01*
X182317037Y-33526296D01*
X183351852Y-33526296D01*
X183351852Y-34043703D01*
X184904074Y-34043703D01*
X184904074Y-33526296D01*
X186456297Y-33526296D01*
X186456297Y-34043703D01*
X184904074Y-34043703D01*
X183351852Y-34043703D01*
X183351852Y-35078518D01*
X182834445Y-35078518D01*
X182834445Y-35595926D01*
X183351852Y-35595926D01*
X183869259Y-35595926D01*
X183869259Y-36113333D01*
X184386667Y-36113333D01*
X184386667Y-34561111D01*
X185938889Y-34561111D01*
X185938889Y-36113333D01*
X184386667Y-36113333D01*
X183869259Y-36113333D01*
X183351852Y-36113333D01*
X183351852Y-35595926D01*
X182834445Y-35595926D01*
X181799630Y-35595926D01*
X181799630Y-35078518D01*
X180764815Y-35078518D01*
X180764815Y-34043703D01*
X180247408Y-34043703D01*
X179730000Y-34043703D01*
X179730000Y-34561111D01*
X178695185Y-34561111D01*
X178177778Y-34561111D01*
X178177778Y-35078518D01*
X179730000Y-35078518D01*
X179730000Y-34561111D01*
X180247408Y-34561111D01*
X180247408Y-35078518D01*
X179730000Y-35078518D01*
X179730000Y-37148148D01*
X180247408Y-37148148D01*
X180247408Y-36113333D01*
X180764815Y-36113333D01*
X180764815Y-35595926D01*
X181282222Y-35595926D01*
X181282222Y-36113333D01*
X182317037Y-36113333D01*
X182317037Y-36630741D01*
X182834445Y-36630741D01*
X182834445Y-36113333D01*
X183351852Y-36113333D01*
X183351852Y-36630741D01*
G37*
X183351852Y-36630741D02*
X183869259Y-36630741D01*
X183869259Y-37148148D01*
X184386667Y-37148148D01*
X184386667Y-36630741D01*
X184904074Y-36630741D01*
X184904074Y-37148148D01*
X185421482Y-37148148D01*
X185421482Y-36630741D01*
X186456297Y-36630741D01*
X186456297Y-36113333D01*
X186973704Y-36113333D01*
X186973704Y-35595926D01*
X187491111Y-35595926D01*
X187491111Y-35078518D01*
X186456297Y-35078518D01*
X186456297Y-34561111D01*
X186973704Y-34561111D01*
X186973704Y-34043703D01*
X187491111Y-34043703D01*
X187491111Y-33526296D01*
X188008519Y-33526296D01*
X188008519Y-33008889D01*
X187491111Y-33008889D01*
X187491111Y-31974074D01*
X186973704Y-31974074D01*
X186973704Y-32491481D01*
X186456297Y-32491481D01*
X186456297Y-31974074D01*
X184904074Y-31974074D01*
X184904074Y-33008889D01*
X185938889Y-33008889D01*
X185938889Y-32491481D01*
X186456297Y-32491481D01*
X186456297Y-33008889D01*
X185938889Y-33008889D01*
X184904074Y-33008889D01*
X183351852Y-33008889D01*
X183351852Y-32491481D01*
X182834445Y-32491481D01*
X182834445Y-31974074D01*
X182317037Y-31974074D01*
X182317037Y-32491481D01*
X181799630Y-32491481D01*
X181799630Y-33008889D01*
X182317037Y-33008889D01*
X182317037Y-32491481D01*
X182834445Y-32491481D01*
X182834445Y-33008889D01*
X182317037Y-33008889D01*
X181799630Y-33008889D01*
X181282222Y-33008889D01*
X181282222Y-32491481D01*
X180247408Y-32491481D01*
X180247408Y-31974074D01*
X179212593Y-31974074D01*
X179212593Y-32491481D01*
X178695185Y-32491481D01*
X178695185Y-31974074D01*
X177660371Y-31974074D01*
X177660371Y-32491481D01*
X178177778Y-32491481D01*
X178177778Y-34561111D01*
X178695185Y-34561111D01*
X178695185Y-34043703D01*
X179730000Y-34043703D01*
X180247408Y-34043703D01*
X180247408Y-33008889D01*
X181282222Y-33008889D01*
X181282222Y-34561111D01*
X181799630Y-34561111D01*
X181799630Y-34043703D01*
X182317037Y-34043703D01*
X182317037Y-33526296D01*
X183351852Y-33526296D01*
X183351852Y-34043703D01*
X184904074Y-34043703D01*
X184904074Y-33526296D01*
X186456297Y-33526296D01*
X186456297Y-34043703D01*
X184904074Y-34043703D01*
X183351852Y-34043703D01*
X183351852Y-35078518D01*
X182834445Y-35078518D01*
X182834445Y-35595926D01*
X183351852Y-35595926D01*
X183869259Y-35595926D01*
X183869259Y-36113333D01*
X184386667Y-36113333D01*
X184386667Y-34561111D01*
X185938889Y-34561111D01*
X185938889Y-36113333D01*
X184386667Y-36113333D01*
X183869259Y-36113333D01*
X183351852Y-36113333D01*
X183351852Y-35595926D01*
X182834445Y-35595926D01*
X181799630Y-35595926D01*
X181799630Y-35078518D01*
X180764815Y-35078518D01*
X180764815Y-34043703D01*
X180247408Y-34043703D01*
X179730000Y-34043703D01*
X179730000Y-34561111D01*
X178695185Y-34561111D01*
X178177778Y-34561111D01*
X178177778Y-35078518D01*
X179730000Y-35078518D01*
X179730000Y-34561111D01*
X180247408Y-34561111D01*
X180247408Y-35078518D01*
X179730000Y-35078518D01*
X179730000Y-37148148D01*
X180247408Y-37148148D01*
X180247408Y-36113333D01*
X180764815Y-36113333D01*
X180764815Y-35595926D01*
X181282222Y-35595926D01*
X181282222Y-36113333D01*
X182317037Y-36113333D01*
X182317037Y-36630741D01*
X182834445Y-36630741D01*
X182834445Y-36113333D01*
X183351852Y-36113333D01*
X183351852Y-36630741D01*
G36*
X187491111Y-40252592D02*
G01*
X188008519Y-40252592D01*
X188008519Y-40770000D01*
X188525926Y-40770000D01*
X188525926Y-39735185D01*
X187491111Y-39735185D01*
X187491111Y-40252592D01*
G37*
X187491111Y-40252592D02*
X188008519Y-40252592D01*
X188008519Y-40770000D01*
X188525926Y-40770000D01*
X188525926Y-39735185D01*
X187491111Y-39735185D01*
X187491111Y-40252592D01*
G36*
X184386667Y-41287407D02*
G01*
X184904074Y-41287407D01*
X184904074Y-40770000D01*
X184386667Y-40770000D01*
X184386667Y-41287407D01*
G37*
X184386667Y-41287407D02*
X184904074Y-41287407D01*
X184904074Y-40770000D01*
X184386667Y-40770000D01*
X184386667Y-41287407D01*
G36*
X182317037Y-45944074D02*
G01*
X182317037Y-45426666D01*
X182834445Y-45426666D01*
X182834445Y-44909259D01*
X181799630Y-44909259D01*
X181799630Y-44391852D01*
X181282222Y-44391852D01*
X181282222Y-43357037D01*
X180764815Y-43357037D01*
X180764815Y-42839629D01*
X180247408Y-42839629D01*
X180247408Y-41804815D01*
X179730000Y-41804815D01*
X179730000Y-43874444D01*
X180247408Y-43874444D01*
X180247408Y-43357037D01*
X180764815Y-43357037D01*
X180764815Y-43874444D01*
X180247408Y-43874444D01*
X179730000Y-43874444D01*
X179212593Y-43874444D01*
X179212593Y-44391852D01*
X179730000Y-44391852D01*
X179730000Y-44909259D01*
X180764815Y-44909259D01*
X180764815Y-45944074D01*
X181282222Y-45944074D01*
X181282222Y-45426666D01*
X181799630Y-45426666D01*
X181799630Y-45944074D01*
X181282222Y-45944074D01*
X181282222Y-46461481D01*
X180247408Y-46461481D01*
X180247408Y-46978889D01*
X181799630Y-46978889D01*
X181799630Y-45944074D01*
X182317037Y-45944074D01*
G37*
X182317037Y-45944074D02*
X182317037Y-45426666D01*
X182834445Y-45426666D01*
X182834445Y-44909259D01*
X181799630Y-44909259D01*
X181799630Y-44391852D01*
X181282222Y-44391852D01*
X181282222Y-43357037D01*
X180764815Y-43357037D01*
X180764815Y-42839629D01*
X180247408Y-42839629D01*
X180247408Y-41804815D01*
X179730000Y-41804815D01*
X179730000Y-43874444D01*
X180247408Y-43874444D01*
X180247408Y-43357037D01*
X180764815Y-43357037D01*
X180764815Y-43874444D01*
X180247408Y-43874444D01*
X179730000Y-43874444D01*
X179212593Y-43874444D01*
X179212593Y-44391852D01*
X179730000Y-44391852D01*
X179730000Y-44909259D01*
X180764815Y-44909259D01*
X180764815Y-45944074D01*
X181282222Y-45944074D01*
X181282222Y-45426666D01*
X181799630Y-45426666D01*
X181799630Y-45944074D01*
X181282222Y-45944074D01*
X181282222Y-46461481D01*
X180247408Y-46461481D01*
X180247408Y-46978889D01*
X181799630Y-46978889D01*
X181799630Y-45944074D01*
X182317037Y-45944074D01*
G36*
X184386667Y-38182963D02*
G01*
X184386667Y-38700370D01*
X184904074Y-38700370D01*
X184904074Y-38182963D01*
X184386667Y-38182963D01*
G37*
X184386667Y-38182963D02*
X184386667Y-38700370D01*
X184904074Y-38700370D01*
X184904074Y-38182963D01*
X184386667Y-38182963D01*
G36*
X186456297Y-41287407D02*
G01*
X185938889Y-41287407D01*
X185938889Y-41804815D01*
X185421482Y-41804815D01*
X185421482Y-42322222D01*
X186456297Y-42322222D01*
X186456297Y-41287407D01*
G37*
X186456297Y-41287407D02*
X185938889Y-41287407D01*
X185938889Y-41804815D01*
X185421482Y-41804815D01*
X185421482Y-42322222D01*
X186456297Y-42322222D01*
X186456297Y-41287407D01*
G36*
X186973704Y-36630741D02*
G01*
X188525926Y-36630741D01*
X188525926Y-36113333D01*
X186973704Y-36113333D01*
X186973704Y-36630741D01*
G37*
X186973704Y-36630741D02*
X188525926Y-36630741D01*
X188525926Y-36113333D01*
X186973704Y-36113333D01*
X186973704Y-36630741D01*
G36*
X180247408Y-37665555D02*
G01*
X181799630Y-37665555D01*
X181799630Y-37148148D01*
X182317037Y-37148148D01*
X182317037Y-36630741D01*
X180764815Y-36630741D01*
X180764815Y-37148148D01*
X180247408Y-37148148D01*
X180247408Y-37665555D01*
G37*
X180247408Y-37665555D02*
X181799630Y-37665555D01*
X181799630Y-37148148D01*
X182317037Y-37148148D01*
X182317037Y-36630741D01*
X180764815Y-36630741D01*
X180764815Y-37148148D01*
X180247408Y-37148148D01*
X180247408Y-37665555D01*
G36*
X181799630Y-38182963D02*
G01*
X182317037Y-38182963D01*
X182317037Y-37665555D01*
X181799630Y-37665555D01*
X181799630Y-38182963D01*
G37*
X181799630Y-38182963D02*
X182317037Y-38182963D01*
X182317037Y-37665555D01*
X181799630Y-37665555D01*
X181799630Y-38182963D01*
G36*
X180247408Y-38182963D02*
G01*
X179730000Y-38182963D01*
X179730000Y-38700370D01*
X180247408Y-38700370D01*
X180247408Y-38182963D01*
G37*
X180247408Y-38182963D02*
X179730000Y-38182963D01*
X179730000Y-38700370D01*
X180247408Y-38700370D01*
X180247408Y-38182963D01*
G36*
X179212593Y-38700370D02*
G01*
X179212593Y-37148148D01*
X178695185Y-37148148D01*
X178695185Y-36630741D01*
X178177778Y-36630741D01*
X178177778Y-35595926D01*
X177660371Y-35595926D01*
X177660371Y-36113333D01*
X176625556Y-36113333D01*
X176625556Y-36630741D01*
X175590741Y-36630741D01*
X175590741Y-36113333D01*
X174555926Y-36113333D01*
X174555926Y-36630741D01*
X175073334Y-36630741D01*
X175073334Y-37148148D01*
X175590741Y-37148148D01*
X175590741Y-38182963D01*
X176108148Y-38182963D01*
X176108148Y-37148148D01*
X176625556Y-37148148D01*
X176625556Y-36630741D01*
X178177778Y-36630741D01*
X178177778Y-37148148D01*
X178695185Y-37148148D01*
X178695185Y-39217778D01*
X178177778Y-39217778D01*
X178177778Y-38182963D01*
X177660371Y-38182963D01*
X177660371Y-37665555D01*
X177142963Y-37665555D01*
X177142963Y-37148148D01*
X176625556Y-37148148D01*
X176625556Y-37665555D01*
X177142963Y-37665555D01*
X177142963Y-38182963D01*
X176625556Y-38182963D01*
X176625556Y-38700370D01*
X177142963Y-38700370D01*
X177142963Y-38182963D01*
X177660371Y-38182963D01*
X177660371Y-38700370D01*
X177142963Y-38700370D01*
X177142963Y-39217778D01*
X176625556Y-39217778D01*
X176625556Y-39735185D01*
X177142963Y-39735185D01*
X177142963Y-39217778D01*
X177660371Y-39217778D01*
X177660371Y-39735185D01*
X177142963Y-39735185D01*
X177142963Y-40252592D01*
X176625556Y-40252592D01*
X176625556Y-40770000D01*
X177142963Y-40770000D01*
X177142963Y-40252592D01*
X178177778Y-40252592D01*
X178177778Y-41287407D01*
X177660371Y-41287407D01*
X177660371Y-40770000D01*
X177142963Y-40770000D01*
X177142963Y-41287407D01*
X176625556Y-41287407D01*
X176625556Y-41804815D01*
X178177778Y-41804815D01*
X178177778Y-41287407D01*
X178695185Y-41287407D01*
X178695185Y-40252592D01*
X179212593Y-40252592D01*
X179212593Y-39217778D01*
X179730000Y-39217778D01*
X179730000Y-38700370D01*
X179212593Y-38700370D01*
G37*
X179212593Y-38700370D02*
X179212593Y-37148148D01*
X178695185Y-37148148D01*
X178695185Y-36630741D01*
X178177778Y-36630741D01*
X178177778Y-35595926D01*
X177660371Y-35595926D01*
X177660371Y-36113333D01*
X176625556Y-36113333D01*
X176625556Y-36630741D01*
X175590741Y-36630741D01*
X175590741Y-36113333D01*
X174555926Y-36113333D01*
X174555926Y-36630741D01*
X175073334Y-36630741D01*
X175073334Y-37148148D01*
X175590741Y-37148148D01*
X175590741Y-38182963D01*
X176108148Y-38182963D01*
X176108148Y-37148148D01*
X176625556Y-37148148D01*
X176625556Y-36630741D01*
X178177778Y-36630741D01*
X178177778Y-37148148D01*
X178695185Y-37148148D01*
X178695185Y-39217778D01*
X178177778Y-39217778D01*
X178177778Y-38182963D01*
X177660371Y-38182963D01*
X177660371Y-37665555D01*
X177142963Y-37665555D01*
X177142963Y-37148148D01*
X176625556Y-37148148D01*
X176625556Y-37665555D01*
X177142963Y-37665555D01*
X177142963Y-38182963D01*
X176625556Y-38182963D01*
X176625556Y-38700370D01*
X177142963Y-38700370D01*
X177142963Y-38182963D01*
X177660371Y-38182963D01*
X177660371Y-38700370D01*
X177142963Y-38700370D01*
X177142963Y-39217778D01*
X176625556Y-39217778D01*
X176625556Y-39735185D01*
X177142963Y-39735185D01*
X177142963Y-39217778D01*
X177660371Y-39217778D01*
X177660371Y-39735185D01*
X177142963Y-39735185D01*
X177142963Y-40252592D01*
X176625556Y-40252592D01*
X176625556Y-40770000D01*
X177142963Y-40770000D01*
X177142963Y-40252592D01*
X178177778Y-40252592D01*
X178177778Y-41287407D01*
X177660371Y-41287407D01*
X177660371Y-40770000D01*
X177142963Y-40770000D01*
X177142963Y-41287407D01*
X176625556Y-41287407D01*
X176625556Y-41804815D01*
X178177778Y-41804815D01*
X178177778Y-41287407D01*
X178695185Y-41287407D01*
X178695185Y-40252592D01*
X179212593Y-40252592D01*
X179212593Y-39217778D01*
X179730000Y-39217778D01*
X179730000Y-38700370D01*
X179212593Y-38700370D01*
G36*
X178695185Y-42322222D02*
G01*
X177660371Y-42322222D01*
X177660371Y-43874444D01*
X178177778Y-43874444D01*
X178177778Y-43357037D01*
X178695185Y-43357037D01*
X178695185Y-42839629D01*
X179212593Y-42839629D01*
X179212593Y-41804815D01*
X179730000Y-41804815D01*
X179730000Y-41287407D01*
X178695185Y-41287407D01*
X178695185Y-42322222D01*
G37*
X178695185Y-42322222D02*
X177660371Y-42322222D01*
X177660371Y-43874444D01*
X178177778Y-43874444D01*
X178177778Y-43357037D01*
X178695185Y-43357037D01*
X178695185Y-42839629D01*
X179212593Y-42839629D01*
X179212593Y-41804815D01*
X179730000Y-41804815D01*
X179730000Y-41287407D01*
X178695185Y-41287407D01*
X178695185Y-42322222D01*
G36*
X178695185Y-43874444D02*
G01*
X179212593Y-43874444D01*
X179212593Y-43357037D01*
X178695185Y-43357037D01*
X178695185Y-43874444D01*
G37*
X178695185Y-43874444D02*
X179212593Y-43874444D01*
X179212593Y-43357037D01*
X178695185Y-43357037D01*
X178695185Y-43874444D01*
G36*
X179212593Y-44909259D02*
G01*
X179212593Y-45944074D01*
X178695185Y-45944074D01*
X178695185Y-46978889D01*
X179212593Y-46978889D01*
X179212593Y-46461481D01*
X179730000Y-46461481D01*
X179730000Y-44909259D01*
X179212593Y-44909259D01*
G37*
X179212593Y-44909259D02*
X179212593Y-45944074D01*
X178695185Y-45944074D01*
X178695185Y-46978889D01*
X179212593Y-46978889D01*
X179212593Y-46461481D01*
X179730000Y-46461481D01*
X179730000Y-44909259D01*
X179212593Y-44909259D01*
G36*
X186456297Y-42839629D02*
G01*
X188008519Y-42839629D01*
X188008519Y-41804815D01*
X186973704Y-41804815D01*
X186973704Y-42322222D01*
X186456297Y-42322222D01*
X186456297Y-42839629D01*
G37*
X186456297Y-42839629D02*
X188008519Y-42839629D01*
X188008519Y-41804815D01*
X186973704Y-41804815D01*
X186973704Y-42322222D01*
X186456297Y-42322222D01*
X186456297Y-42839629D01*
G36*
X184904074Y-42322222D02*
G01*
X184904074Y-41804815D01*
X184386667Y-41804815D01*
X184386667Y-42839629D01*
X185421482Y-42839629D01*
X185421482Y-42322222D01*
X184904074Y-42322222D01*
G37*
X184904074Y-42322222D02*
X184904074Y-41804815D01*
X184386667Y-41804815D01*
X184386667Y-42839629D01*
X185421482Y-42839629D01*
X185421482Y-42322222D01*
X184904074Y-42322222D01*
G36*
X175073334Y-40770000D02*
G01*
X173521111Y-40770000D01*
X173521111Y-41287407D01*
X174555926Y-41287407D01*
X174555926Y-41804815D01*
X175073334Y-41804815D01*
X175073334Y-41287407D01*
X175590741Y-41287407D01*
X175590741Y-41804815D01*
X175073334Y-41804815D01*
X174555926Y-41804815D01*
X174038519Y-41804815D01*
X174038519Y-42322222D01*
X176108148Y-42322222D01*
X176108148Y-41287407D01*
X175590741Y-41287407D01*
X175590741Y-40252592D01*
X175073334Y-40252592D01*
X175073334Y-40770000D01*
G37*
X175073334Y-40770000D02*
X173521111Y-40770000D01*
X173521111Y-41287407D01*
X174555926Y-41287407D01*
X174555926Y-41804815D01*
X175073334Y-41804815D01*
X175073334Y-41287407D01*
X175590741Y-41287407D01*
X175590741Y-41804815D01*
X175073334Y-41804815D01*
X174555926Y-41804815D01*
X174038519Y-41804815D01*
X174038519Y-42322222D01*
X176108148Y-42322222D01*
X176108148Y-41287407D01*
X175590741Y-41287407D01*
X175590741Y-40252592D01*
X175073334Y-40252592D01*
X175073334Y-40770000D01*
G36*
X173521111Y-42322222D02*
G01*
X173521111Y-42839629D01*
X174038519Y-42839629D01*
X174038519Y-42322222D01*
X173521111Y-42322222D01*
G37*
X173521111Y-42322222D02*
X173521111Y-42839629D01*
X174038519Y-42839629D01*
X174038519Y-42322222D01*
X173521111Y-42322222D01*
G36*
X188008519Y-34043703D02*
G01*
X187491111Y-34043703D01*
X187491111Y-35078518D01*
X188525926Y-35078518D01*
X188525926Y-33526296D01*
X188008519Y-33526296D01*
X188008519Y-34043703D01*
G37*
X188008519Y-34043703D02*
X187491111Y-34043703D01*
X187491111Y-35078518D01*
X188525926Y-35078518D01*
X188525926Y-33526296D01*
X188008519Y-33526296D01*
X188008519Y-34043703D01*
G36*
X186973704Y-41287407D02*
G01*
X186973704Y-40770000D01*
X186456297Y-40770000D01*
X186456297Y-41287407D01*
X186973704Y-41287407D01*
G37*
X186973704Y-41287407D02*
X186973704Y-40770000D01*
X186456297Y-40770000D01*
X186456297Y-41287407D01*
X186973704Y-41287407D01*
G36*
X175073334Y-39735185D02*
G01*
X176108148Y-39735185D01*
X176108148Y-39217778D01*
X175590741Y-39217778D01*
X175590741Y-38182963D01*
X175073334Y-38182963D01*
X175073334Y-37665555D01*
X174555926Y-37665555D01*
X174555926Y-37148148D01*
X174038519Y-37148148D01*
X174038519Y-36113333D01*
X173521111Y-36113333D01*
X173521111Y-38182963D01*
X174038519Y-38182963D01*
X174038519Y-38700370D01*
X173521111Y-38700370D01*
X173521111Y-39217778D01*
X174038519Y-39217778D01*
X174555926Y-39217778D01*
X174555926Y-38182963D01*
X175073334Y-38182963D01*
X175073334Y-39217778D01*
X174555926Y-39217778D01*
X174038519Y-39217778D01*
X174038519Y-39735185D01*
X173521111Y-39735185D01*
X173521111Y-40252592D01*
X175073334Y-40252592D01*
X175073334Y-39735185D01*
G37*
X175073334Y-39735185D02*
X176108148Y-39735185D01*
X176108148Y-39217778D01*
X175590741Y-39217778D01*
X175590741Y-38182963D01*
X175073334Y-38182963D01*
X175073334Y-37665555D01*
X174555926Y-37665555D01*
X174555926Y-37148148D01*
X174038519Y-37148148D01*
X174038519Y-36113333D01*
X173521111Y-36113333D01*
X173521111Y-38182963D01*
X174038519Y-38182963D01*
X174038519Y-38700370D01*
X173521111Y-38700370D01*
X173521111Y-39217778D01*
X174038519Y-39217778D01*
X174555926Y-39217778D01*
X174555926Y-38182963D01*
X175073334Y-38182963D01*
X175073334Y-39217778D01*
X174555926Y-39217778D01*
X174038519Y-39217778D01*
X174038519Y-39735185D01*
X173521111Y-39735185D01*
X173521111Y-40252592D01*
X175073334Y-40252592D01*
X175073334Y-39735185D01*
G36*
X179212593Y-35595926D02*
G01*
X178695185Y-35595926D01*
X178695185Y-36630741D01*
X179212593Y-36630741D01*
X179212593Y-35595926D01*
G37*
X179212593Y-35595926D02*
X178695185Y-35595926D01*
X178695185Y-36630741D01*
X179212593Y-36630741D01*
X179212593Y-35595926D01*
G36*
X188525926Y-32491481D02*
G01*
X188008519Y-32491481D01*
X188008519Y-33008889D01*
X188525926Y-33008889D01*
X188525926Y-32491481D01*
G37*
X188525926Y-32491481D02*
X188008519Y-32491481D01*
X188008519Y-33008889D01*
X188525926Y-33008889D01*
X188525926Y-32491481D01*
G36*
X178695185Y-45426666D02*
G01*
X178177778Y-45426666D01*
X178177778Y-44909259D01*
X177660371Y-44909259D01*
X177660371Y-46461481D01*
X178177778Y-46461481D01*
X178177778Y-45944074D01*
X178695185Y-45944074D01*
X178695185Y-45426666D01*
G37*
X178695185Y-45426666D02*
X178177778Y-45426666D01*
X178177778Y-44909259D01*
X177660371Y-44909259D01*
X177660371Y-46461481D01*
X178177778Y-46461481D01*
X178177778Y-45944074D01*
X178695185Y-45944074D01*
X178695185Y-45426666D01*
G36*
X183869259Y-31974074D02*
G01*
X183351852Y-31974074D01*
X183351852Y-32491481D01*
X183869259Y-32491481D01*
X183869259Y-31974074D01*
G37*
X183869259Y-31974074D02*
X183351852Y-31974074D01*
X183351852Y-32491481D01*
X183869259Y-32491481D01*
X183869259Y-31974074D01*
G36*
X175602685Y-35596597D02*
G01*
X175880385Y-35583797D01*
X176114278Y-35561778D01*
X176281474Y-35530525D01*
X176302311Y-35524058D01*
X176588875Y-35378670D01*
X176837359Y-35157061D01*
X176990139Y-34945704D01*
X177119445Y-34725741D01*
X177119445Y-32844259D01*
X176990139Y-32624296D01*
X176783580Y-32355045D01*
X176524486Y-32149862D01*
X176302311Y-32045942D01*
X176157869Y-32015487D01*
X175942534Y-31993363D01*
X175678369Y-31979536D01*
X175387441Y-31973974D01*
X175091816Y-31976642D01*
X174813558Y-31987507D01*
X174574733Y-32006536D01*
X174397407Y-32033694D01*
X174342510Y-32048926D01*
X174076380Y-32188790D01*
X173837566Y-32401331D01*
X173673935Y-32624296D01*
X173544630Y-32844259D01*
X173544630Y-33785000D01*
X173544858Y-33906351D01*
X174080069Y-33906351D01*
X174080556Y-33630308D01*
X174089072Y-33366106D01*
X174105616Y-33134859D01*
X174130187Y-32957680D01*
X174158395Y-32863362D01*
X174224549Y-32753665D01*
X174303214Y-32671510D01*
X174408239Y-32613037D01*
X174553471Y-32574382D01*
X174752759Y-32551686D01*
X175019949Y-32541084D01*
X175322614Y-32538694D01*
X175636897Y-32540538D01*
X175871508Y-32546974D01*
X176040787Y-32559123D01*
X176159073Y-32578103D01*
X176240705Y-32605032D01*
X176253675Y-32611357D01*
X176363372Y-32677511D01*
X176445527Y-32756177D01*
X176504000Y-32861202D01*
X176542655Y-33006434D01*
X176565352Y-33205721D01*
X176575953Y-33472911D01*
X176578343Y-33775576D01*
X176575905Y-34110398D01*
X176566010Y-34365446D01*
X176545040Y-34554944D01*
X176509376Y-34693113D01*
X176455399Y-34794177D01*
X176379490Y-34872357D01*
X176282254Y-34939311D01*
X176217119Y-34973431D01*
X176140438Y-34997980D01*
X176036367Y-35014490D01*
X175889060Y-35024491D01*
X175682674Y-35029515D01*
X175401364Y-35031093D01*
X175332037Y-35031130D01*
X174992057Y-35028148D01*
X174732265Y-35016666D01*
X174538892Y-34992876D01*
X174398170Y-34952972D01*
X174296329Y-34893146D01*
X174219602Y-34809592D01*
X174158395Y-34706638D01*
X174126772Y-34594377D01*
X174103176Y-34409499D01*
X174087609Y-34173119D01*
X174080069Y-33906351D01*
X173544858Y-33906351D01*
X173545240Y-34108388D01*
X173547983Y-34352588D01*
X173554222Y-34532484D01*
X173565325Y-34662958D01*
X173582657Y-34758894D01*
X173607584Y-34835174D01*
X173641471Y-34906682D01*
X173648841Y-34920594D01*
X173813522Y-35147958D01*
X174038016Y-35349325D01*
X174288110Y-35495647D01*
X174358123Y-35522817D01*
X174511551Y-35555895D01*
X174735609Y-35579826D01*
X175007409Y-35594597D01*
X175304064Y-35600192D01*
X175602685Y-35596597D01*
G37*
X175602685Y-35596597D02*
X175880385Y-35583797D01*
X176114278Y-35561778D01*
X176281474Y-35530525D01*
X176302311Y-35524058D01*
X176588875Y-35378670D01*
X176837359Y-35157061D01*
X176990139Y-34945704D01*
X177119445Y-34725741D01*
X177119445Y-32844259D01*
X176990139Y-32624296D01*
X176783580Y-32355045D01*
X176524486Y-32149862D01*
X176302311Y-32045942D01*
X176157869Y-32015487D01*
X175942534Y-31993363D01*
X175678369Y-31979536D01*
X175387441Y-31973974D01*
X175091816Y-31976642D01*
X174813558Y-31987507D01*
X174574733Y-32006536D01*
X174397407Y-32033694D01*
X174342510Y-32048926D01*
X174076380Y-32188790D01*
X173837566Y-32401331D01*
X173673935Y-32624296D01*
X173544630Y-32844259D01*
X173544630Y-33785000D01*
X173544858Y-33906351D01*
X174080069Y-33906351D01*
X174080556Y-33630308D01*
X174089072Y-33366106D01*
X174105616Y-33134859D01*
X174130187Y-32957680D01*
X174158395Y-32863362D01*
X174224549Y-32753665D01*
X174303214Y-32671510D01*
X174408239Y-32613037D01*
X174553471Y-32574382D01*
X174752759Y-32551686D01*
X175019949Y-32541084D01*
X175322614Y-32538694D01*
X175636897Y-32540538D01*
X175871508Y-32546974D01*
X176040787Y-32559123D01*
X176159073Y-32578103D01*
X176240705Y-32605032D01*
X176253675Y-32611357D01*
X176363372Y-32677511D01*
X176445527Y-32756177D01*
X176504000Y-32861202D01*
X176542655Y-33006434D01*
X176565352Y-33205721D01*
X176575953Y-33472911D01*
X176578343Y-33775576D01*
X176575905Y-34110398D01*
X176566010Y-34365446D01*
X176545040Y-34554944D01*
X176509376Y-34693113D01*
X176455399Y-34794177D01*
X176379490Y-34872357D01*
X176282254Y-34939311D01*
X176217119Y-34973431D01*
X176140438Y-34997980D01*
X176036367Y-35014490D01*
X175889060Y-35024491D01*
X175682674Y-35029515D01*
X175401364Y-35031093D01*
X175332037Y-35031130D01*
X174992057Y-35028148D01*
X174732265Y-35016666D01*
X174538892Y-34992876D01*
X174398170Y-34952972D01*
X174296329Y-34893146D01*
X174219602Y-34809592D01*
X174158395Y-34706638D01*
X174126772Y-34594377D01*
X174103176Y-34409499D01*
X174087609Y-34173119D01*
X174080069Y-33906351D01*
X173544858Y-33906351D01*
X173545240Y-34108388D01*
X173547983Y-34352588D01*
X173554222Y-34532484D01*
X173565325Y-34662958D01*
X173582657Y-34758894D01*
X173607584Y-34835174D01*
X173641471Y-34906682D01*
X173648841Y-34920594D01*
X173813522Y-35147958D01*
X174038016Y-35349325D01*
X174288110Y-35495647D01*
X174358123Y-35522817D01*
X174511551Y-35555895D01*
X174735609Y-35579826D01*
X175007409Y-35594597D01*
X175304064Y-35600192D01*
X175602685Y-35596597D01*
D12*
X123330000Y-34290000D02*
X126830000Y-34290000D01*
X123330000Y-34290000D02*
X121380000Y-34290000D01*
X123330000Y-44410000D02*
X125280000Y-44410000D01*
X123330000Y-44410000D02*
X121380000Y-44410000D01*
X195261252Y-14265000D02*
X194738748Y-14265000D01*
X195261252Y-15735000D02*
X194738748Y-15735000D01*
X195261252Y-12265000D02*
X194738748Y-12265000D01*
X195261252Y-13735000D02*
X194738748Y-13735000D01*
X188735000Y-22261252D02*
X188735000Y-21738748D01*
X187265000Y-22261252D02*
X187265000Y-21738748D01*
X122091252Y-32115000D02*
X121568748Y-32115000D01*
X122091252Y-33585000D02*
X121568748Y-33585000D01*
X134068748Y-33085000D02*
X134591252Y-33085000D01*
X134068748Y-31615000D02*
X134591252Y-31615000D01*
X30261252Y-12765000D02*
X29738748Y-12765000D01*
X30261252Y-14235000D02*
X29738748Y-14235000D01*
X24265000Y-29238748D02*
X24265000Y-29761252D01*
X25735000Y-29238748D02*
X25735000Y-29761252D01*
X4765000Y-29238748D02*
X4765000Y-29761252D01*
X6235000Y-29238748D02*
X6235000Y-29761252D01*
X75738748Y-111735000D02*
X76261252Y-111735000D01*
X75738748Y-110265000D02*
X76261252Y-110265000D01*
X185261252Y-5265000D02*
X184738748Y-5265000D01*
X185261252Y-6735000D02*
X184738748Y-6735000D01*
X102735000Y-77261252D02*
X102735000Y-76738748D01*
X101265000Y-77261252D02*
X101265000Y-76738748D01*
X102735000Y-90261252D02*
X102735000Y-89738748D01*
X101265000Y-90261252D02*
X101265000Y-89738748D01*
X102735000Y-103823252D02*
X102735000Y-103300748D01*
X101265000Y-103823252D02*
X101265000Y-103300748D01*
X86235000Y-90261252D02*
X86235000Y-89738748D01*
X84765000Y-90261252D02*
X84765000Y-89738748D01*
X86235000Y-77261252D02*
X86235000Y-76738748D01*
X84765000Y-77261252D02*
X84765000Y-76738748D01*
X86235000Y-103761252D02*
X86235000Y-103238748D01*
X84765000Y-103761252D02*
X84765000Y-103238748D01*
X182735000Y-57261252D02*
X182735000Y-56738748D01*
X181265000Y-57261252D02*
X181265000Y-56738748D01*
X49238748Y-46735000D02*
X49761252Y-46735000D01*
X49238748Y-45265000D02*
X49761252Y-45265000D01*
X49238748Y-42235000D02*
X49761252Y-42235000D01*
X49238748Y-40765000D02*
X49761252Y-40765000D01*
X62761252Y-30265000D02*
X62238748Y-30265000D01*
X62761252Y-31735000D02*
X62238748Y-31735000D01*
X78761252Y-30265000D02*
X78238748Y-30265000D01*
X78761252Y-31735000D02*
X78238748Y-31735000D01*
X47238748Y-69235000D02*
X47761252Y-69235000D01*
X47238748Y-67765000D02*
X47761252Y-67765000D01*
X83738748Y-69235000D02*
X84261252Y-69235000D01*
X83738748Y-67765000D02*
X84261252Y-67765000D01*
X49188748Y-83735000D02*
X49711252Y-83735000D01*
X49188748Y-82265000D02*
X49711252Y-82265000D01*
X49288748Y-79235000D02*
X49811252Y-79235000D01*
X49288748Y-77765000D02*
X49811252Y-77765000D01*
X142735000Y-57261252D02*
X142735000Y-56738748D01*
X141265000Y-57261252D02*
X141265000Y-56738748D01*
X187735000Y-57261252D02*
X187735000Y-56738748D01*
X186265000Y-57261252D02*
X186265000Y-56738748D01*
X147735000Y-57261252D02*
X147735000Y-56738748D01*
X146265000Y-57261252D02*
X146265000Y-56738748D01*
X162735000Y-57261252D02*
X162735000Y-56738748D01*
X161265000Y-57261252D02*
X161265000Y-56738748D01*
X122735000Y-57261252D02*
X122735000Y-56738748D01*
X121265000Y-57261252D02*
X121265000Y-56738748D01*
X167735000Y-57261252D02*
X167735000Y-56738748D01*
X166265000Y-57261252D02*
X166265000Y-56738748D01*
X127735000Y-57261252D02*
X127735000Y-56738748D01*
X126265000Y-57261252D02*
X126265000Y-56738748D01*
X121765000Y-12272936D02*
X121765000Y-12727064D01*
X123235000Y-12272936D02*
X123235000Y-12727064D01*
X75735000Y-104227064D02*
X75735000Y-103772936D01*
X74265000Y-104227064D02*
X74265000Y-103772936D01*
X96000000Y-46440000D02*
X96800000Y-46440000D01*
X96000000Y-46440000D02*
X95200000Y-46440000D01*
X96000000Y-49560000D02*
X96800000Y-49560000D01*
X96000000Y-49560000D02*
X94200000Y-49560000D01*
X105500000Y-46440000D02*
X106300000Y-46440000D01*
X105500000Y-46440000D02*
X104700000Y-46440000D01*
X105500000Y-49560000D02*
X106300000Y-49560000D01*
X105500000Y-49560000D02*
X103700000Y-49560000D01*
D13*
X139605000Y-34075000D02*
X139605000Y-34350000D01*
X134055000Y-34075000D02*
X134055000Y-34430000D01*
X134055000Y-44625000D02*
X134055000Y-44270000D01*
X139605000Y-44625000D02*
X139605000Y-44270000D01*
X139605000Y-34075000D02*
X134055000Y-34075000D01*
X139605000Y-44625000D02*
X134055000Y-44625000D01*
X139605000Y-34350000D02*
X141130000Y-34350000D01*
D12*
X39510000Y-26000000D02*
X39510000Y-29860000D01*
X39510000Y-29860000D02*
X39275000Y-29860000D01*
X39510000Y-26000000D02*
X39510000Y-22140000D01*
X39510000Y-22140000D02*
X39275000Y-22140000D01*
X26490000Y-26000000D02*
X26490000Y-29860000D01*
X26490000Y-29860000D02*
X26725000Y-29860000D01*
X26490000Y-26000000D02*
X26490000Y-22140000D01*
X26490000Y-22140000D02*
X26725000Y-22140000D01*
X26725000Y-22140000D02*
X26725000Y-20325000D01*
X20010000Y-26000000D02*
X20010000Y-29860000D01*
X20010000Y-29860000D02*
X19775000Y-29860000D01*
X20010000Y-26000000D02*
X20010000Y-22140000D01*
X20010000Y-22140000D02*
X19775000Y-22140000D01*
X6990000Y-26000000D02*
X6990000Y-29860000D01*
X6990000Y-29860000D02*
X7225000Y-29860000D01*
X6990000Y-26000000D02*
X6990000Y-22140000D01*
X6990000Y-22140000D02*
X7225000Y-22140000D01*
X7225000Y-22140000D02*
X7225000Y-20325000D01*
X105500000Y-53440000D02*
X106300000Y-53440000D01*
X105500000Y-53440000D02*
X104700000Y-53440000D01*
X105500000Y-56560000D02*
X106300000Y-56560000D01*
X105500000Y-56560000D02*
X103700000Y-56560000D01*
X66000000Y-46510000D02*
X62140000Y-46510000D01*
X62140000Y-46510000D02*
X62140000Y-46275000D01*
X66000000Y-46510000D02*
X69860000Y-46510000D01*
X69860000Y-46510000D02*
X69860000Y-46275000D01*
X66000000Y-33490000D02*
X62140000Y-33490000D01*
X62140000Y-33490000D02*
X62140000Y-33725000D01*
X66000000Y-33490000D02*
X69860000Y-33490000D01*
X69860000Y-33490000D02*
X69860000Y-33725000D01*
X69860000Y-33725000D02*
X71675000Y-33725000D01*
X77000000Y-86940000D02*
X77800000Y-86940000D01*
X77000000Y-86940000D02*
X76200000Y-86940000D01*
X77000000Y-90060000D02*
X77800000Y-90060000D01*
X77000000Y-90060000D02*
X75200000Y-90060000D01*
X82000000Y-46510000D02*
X78140000Y-46510000D01*
X78140000Y-46510000D02*
X78140000Y-46275000D01*
X82000000Y-46510000D02*
X85860000Y-46510000D01*
X85860000Y-46510000D02*
X85860000Y-46275000D01*
X82000000Y-33490000D02*
X78140000Y-33490000D01*
X78140000Y-33490000D02*
X78140000Y-33725000D01*
X82000000Y-33490000D02*
X85860000Y-33490000D01*
X85860000Y-33490000D02*
X85860000Y-33725000D01*
X85860000Y-33725000D02*
X87675000Y-33725000D01*
X40340000Y-61000000D02*
X40340000Y-57950000D01*
X40340000Y-61000000D02*
X40340000Y-64050000D01*
X54660000Y-61000000D02*
X54660000Y-57950000D01*
X54660000Y-61000000D02*
X54660000Y-65450000D01*
X76840000Y-61000000D02*
X76840000Y-57950000D01*
X76840000Y-61000000D02*
X76840000Y-64050000D01*
X91160000Y-61000000D02*
X91160000Y-57950000D01*
X91160000Y-61000000D02*
X91160000Y-65450000D01*
X61261252Y-76765000D02*
X60738748Y-76765000D01*
X61261252Y-78235000D02*
X60738748Y-78235000D01*
X110265000Y-33272936D02*
X110265000Y-33727064D01*
X111735000Y-33272936D02*
X111735000Y-33727064D01*
X103440000Y-73500000D02*
X103440000Y-70000000D01*
X103440000Y-73500000D02*
X103440000Y-75450000D01*
X113560000Y-73500000D02*
X113560000Y-71550000D01*
X113560000Y-73500000D02*
X113560000Y-75450000D01*
X103440000Y-86500000D02*
X103440000Y-83000000D01*
X103440000Y-86500000D02*
X103440000Y-88450000D01*
X113560000Y-86500000D02*
X113560000Y-84550000D01*
X113560000Y-86500000D02*
X113560000Y-88450000D01*
X103440000Y-100000000D02*
X103440000Y-96500000D01*
X103440000Y-100000000D02*
X103440000Y-101950000D01*
X113560000Y-100000000D02*
X113560000Y-98050000D01*
X113560000Y-100000000D02*
X113560000Y-101950000D01*
X86940000Y-86500000D02*
X86940000Y-83000000D01*
X86940000Y-86500000D02*
X86940000Y-88450000D01*
X97060000Y-86500000D02*
X97060000Y-84550000D01*
X97060000Y-86500000D02*
X97060000Y-88450000D01*
X86940000Y-73500000D02*
X86940000Y-70000000D01*
X86940000Y-73500000D02*
X86940000Y-75450000D01*
X97060000Y-73500000D02*
X97060000Y-71550000D01*
X97060000Y-73500000D02*
X97060000Y-75450000D01*
X86940000Y-100000000D02*
X86940000Y-96500000D01*
X86940000Y-100000000D02*
X86940000Y-101950000D01*
X97060000Y-100000000D02*
X97060000Y-98050000D01*
X97060000Y-100000000D02*
X97060000Y-101950000D01*
X64655000Y-92465000D02*
X60795000Y-92465000D01*
X60795000Y-92465000D02*
X60795000Y-92230000D01*
X64655000Y-92465000D02*
X68515000Y-92465000D01*
X68515000Y-92465000D02*
X68515000Y-92230000D01*
X64655000Y-79445000D02*
X60795000Y-79445000D01*
X60795000Y-79445000D02*
X60795000Y-79680000D01*
X64655000Y-79445000D02*
X68515000Y-79445000D01*
X68515000Y-79445000D02*
X68515000Y-79680000D01*
X68515000Y-79680000D02*
X70330000Y-79680000D01*
X77000000Y-79940000D02*
X77800000Y-79940000D01*
X77000000Y-79940000D02*
X76200000Y-79940000D01*
X77000000Y-83060000D02*
X77800000Y-83060000D01*
X77000000Y-83060000D02*
X75200000Y-83060000D01*
X106238748Y-32765000D02*
X106761252Y-32765000D01*
X106238748Y-34235000D02*
X106761252Y-34235000D01*
X189265000Y-22261252D02*
X189265000Y-21738748D01*
X190735000Y-22261252D02*
X190735000Y-21738748D01*
X30261252Y-14765000D02*
X29738748Y-14765000D01*
X30261252Y-16235000D02*
X29738748Y-16235000D01*
D13*
X126761904Y-32952380D02*
X126761904Y-33761904D01*
X126714285Y-33857142D01*
X126666666Y-33904761D01*
X126571428Y-33952380D01*
X126380952Y-33952380D01*
X126285714Y-33904761D01*
X126238095Y-33857142D01*
X126190476Y-33761904D01*
X126190476Y-32952380D01*
X125285714Y-32952380D02*
X125476190Y-32952380D01*
X125571428Y-33000000D01*
X125619047Y-33047619D01*
X125714285Y-33190476D01*
X125761904Y-33380952D01*
X125761904Y-33761904D01*
X125714285Y-33857142D01*
X125666666Y-33904761D01*
X125571428Y-33952380D01*
X125380952Y-33952380D01*
X125285714Y-33904761D01*
X125238095Y-33857142D01*
X125190476Y-33761904D01*
X125190476Y-33523809D01*
X125238095Y-33428571D01*
X125285714Y-33380952D01*
X125380952Y-33333333D01*
X125571428Y-33333333D01*
X125666666Y-33380952D01*
X125714285Y-33428571D01*
X125761904Y-33523809D01*
X192166666Y-15357142D02*
X192214285Y-15404761D01*
X192357142Y-15452380D01*
X192452380Y-15452380D01*
X192595238Y-15404761D01*
X192690476Y-15309523D01*
X192738095Y-15214285D01*
X192785714Y-15023809D01*
X192785714Y-14880952D01*
X192738095Y-14690476D01*
X192690476Y-14595238D01*
X192595238Y-14500000D01*
X192452380Y-14452380D01*
X192357142Y-14452380D01*
X192214285Y-14500000D01*
X192166666Y-14547619D01*
X191785714Y-14547619D02*
X191738095Y-14500000D01*
X191642857Y-14452380D01*
X191404761Y-14452380D01*
X191309523Y-14500000D01*
X191261904Y-14547619D01*
X191214285Y-14642857D01*
X191214285Y-14738095D01*
X191261904Y-14880952D01*
X191833333Y-15452380D01*
X191214285Y-15452380D01*
X192166666Y-13357142D02*
X192214285Y-13404761D01*
X192357142Y-13452380D01*
X192452380Y-13452380D01*
X192595238Y-13404761D01*
X192690476Y-13309523D01*
X192738095Y-13214285D01*
X192785714Y-13023809D01*
X192785714Y-12880952D01*
X192738095Y-12690476D01*
X192690476Y-12595238D01*
X192595238Y-12500000D01*
X192452380Y-12452380D01*
X192357142Y-12452380D01*
X192214285Y-12500000D01*
X192166666Y-12547619D01*
X191833333Y-12452380D02*
X191214285Y-12452380D01*
X191547619Y-12833333D01*
X191404761Y-12833333D01*
X191309523Y-12880952D01*
X191261904Y-12928571D01*
X191214285Y-13023809D01*
X191214285Y-13261904D01*
X191261904Y-13357142D01*
X191309523Y-13404761D01*
X191404761Y-13452380D01*
X191690476Y-13452380D01*
X191785714Y-13404761D01*
X191833333Y-13357142D01*
X188357142Y-18833333D02*
X188404761Y-18785714D01*
X188452380Y-18642857D01*
X188452380Y-18547619D01*
X188404761Y-18404761D01*
X188309523Y-18309523D01*
X188214285Y-18261904D01*
X188023809Y-18214285D01*
X187880952Y-18214285D01*
X187690476Y-18261904D01*
X187595238Y-18309523D01*
X187500000Y-18404761D01*
X187452380Y-18547619D01*
X187452380Y-18642857D01*
X187500000Y-18785714D01*
X187547619Y-18833333D01*
X187452380Y-19738095D02*
X187452380Y-19261904D01*
X187928571Y-19214285D01*
X187880952Y-19261904D01*
X187833333Y-19357142D01*
X187833333Y-19595238D01*
X187880952Y-19690476D01*
X187928571Y-19738095D01*
X188023809Y-19785714D01*
X188261904Y-19785714D01*
X188357142Y-19738095D01*
X188404761Y-19690476D01*
X188452380Y-19595238D01*
X188452380Y-19357142D01*
X188404761Y-19261904D01*
X188357142Y-19214285D01*
X121996666Y-31207142D02*
X122044285Y-31254761D01*
X122187142Y-31302380D01*
X122282380Y-31302380D01*
X122425238Y-31254761D01*
X122520476Y-31159523D01*
X122568095Y-31064285D01*
X122615714Y-30873809D01*
X122615714Y-30730952D01*
X122568095Y-30540476D01*
X122520476Y-30445238D01*
X122425238Y-30350000D01*
X122282380Y-30302380D01*
X122187142Y-30302380D01*
X122044285Y-30350000D01*
X121996666Y-30397619D01*
X121663333Y-30302380D02*
X120996666Y-30302380D01*
X121425238Y-31302380D01*
X134496666Y-30707142D02*
X134544285Y-30754761D01*
X134687142Y-30802380D01*
X134782380Y-30802380D01*
X134925238Y-30754761D01*
X135020476Y-30659523D01*
X135068095Y-30564285D01*
X135115714Y-30373809D01*
X135115714Y-30230952D01*
X135068095Y-30040476D01*
X135020476Y-29945238D01*
X134925238Y-29850000D01*
X134782380Y-29802380D01*
X134687142Y-29802380D01*
X134544285Y-29850000D01*
X134496666Y-29897619D01*
X133925238Y-30230952D02*
X134020476Y-30183333D01*
X134068095Y-30135714D01*
X134115714Y-30040476D01*
X134115714Y-29992857D01*
X134068095Y-29897619D01*
X134020476Y-29850000D01*
X133925238Y-29802380D01*
X133734761Y-29802380D01*
X133639523Y-29850000D01*
X133591904Y-29897619D01*
X133544285Y-29992857D01*
X133544285Y-30040476D01*
X133591904Y-30135714D01*
X133639523Y-30183333D01*
X133734761Y-30230952D01*
X133925238Y-30230952D01*
X134020476Y-30278571D01*
X134068095Y-30326190D01*
X134115714Y-30421428D01*
X134115714Y-30611904D01*
X134068095Y-30707142D01*
X134020476Y-30754761D01*
X133925238Y-30802380D01*
X133734761Y-30802380D01*
X133639523Y-30754761D01*
X133591904Y-30707142D01*
X133544285Y-30611904D01*
X133544285Y-30421428D01*
X133591904Y-30326190D01*
X133639523Y-30278571D01*
X133734761Y-30230952D01*
X33166666Y-13997142D02*
X33214285Y-14044761D01*
X33357142Y-14092380D01*
X33452380Y-14092380D01*
X33595238Y-14044761D01*
X33690476Y-13949523D01*
X33738095Y-13854285D01*
X33785714Y-13663809D01*
X33785714Y-13520952D01*
X33738095Y-13330476D01*
X33690476Y-13235238D01*
X33595238Y-13140000D01*
X33452380Y-13092380D01*
X33357142Y-13092380D01*
X33214285Y-13140000D01*
X33166666Y-13187619D01*
X32690476Y-14092380D02*
X32500000Y-14092380D01*
X32404761Y-14044761D01*
X32357142Y-13997142D01*
X32261904Y-13854285D01*
X32214285Y-13663809D01*
X32214285Y-13282857D01*
X32261904Y-13187619D01*
X32309523Y-13140000D01*
X32404761Y-13092380D01*
X32595238Y-13092380D01*
X32690476Y-13140000D01*
X32738095Y-13187619D01*
X32785714Y-13282857D01*
X32785714Y-13520952D01*
X32738095Y-13616190D01*
X32690476Y-13663809D01*
X32595238Y-13711428D01*
X32404761Y-13711428D01*
X32309523Y-13663809D01*
X32261904Y-13616190D01*
X32214285Y-13520952D01*
X23707142Y-28857142D02*
X23754761Y-28809523D01*
X23802380Y-28666666D01*
X23802380Y-28571428D01*
X23754761Y-28428571D01*
X23659523Y-28333333D01*
X23564285Y-28285714D01*
X23373809Y-28238095D01*
X23230952Y-28238095D01*
X23040476Y-28285714D01*
X22945238Y-28333333D01*
X22850000Y-28428571D01*
X22802380Y-28571428D01*
X22802380Y-28666666D01*
X22850000Y-28809523D01*
X22897619Y-28857142D01*
X23802380Y-29809523D02*
X23802380Y-29238095D01*
X23802380Y-29523809D02*
X22802380Y-29523809D01*
X22945238Y-29428571D01*
X23040476Y-29333333D01*
X23088095Y-29238095D01*
X22897619Y-30190476D02*
X22850000Y-30238095D01*
X22802380Y-30333333D01*
X22802380Y-30571428D01*
X22850000Y-30666666D01*
X22897619Y-30714285D01*
X22992857Y-30761904D01*
X23088095Y-30761904D01*
X23230952Y-30714285D01*
X23802380Y-30142857D01*
X23802380Y-30761904D01*
X4207142Y-28857142D02*
X4254761Y-28809523D01*
X4302380Y-28666666D01*
X4302380Y-28571428D01*
X4254761Y-28428571D01*
X4159523Y-28333333D01*
X4064285Y-28285714D01*
X3873809Y-28238095D01*
X3730952Y-28238095D01*
X3540476Y-28285714D01*
X3445238Y-28333333D01*
X3350000Y-28428571D01*
X3302380Y-28571428D01*
X3302380Y-28666666D01*
X3350000Y-28809523D01*
X3397619Y-28857142D01*
X4302380Y-29809523D02*
X4302380Y-29238095D01*
X4302380Y-29523809D02*
X3302380Y-29523809D01*
X3445238Y-29428571D01*
X3540476Y-29333333D01*
X3588095Y-29238095D01*
X3302380Y-30142857D02*
X3302380Y-30761904D01*
X3683333Y-30428571D01*
X3683333Y-30571428D01*
X3730952Y-30666666D01*
X3778571Y-30714285D01*
X3873809Y-30761904D01*
X4111904Y-30761904D01*
X4207142Y-30714285D01*
X4254761Y-30666666D01*
X4302380Y-30571428D01*
X4302380Y-30285714D01*
X4254761Y-30190476D01*
X4207142Y-30142857D01*
X76642857Y-113007142D02*
X76690476Y-113054761D01*
X76833333Y-113102380D01*
X76928571Y-113102380D01*
X77071428Y-113054761D01*
X77166666Y-112959523D01*
X77214285Y-112864285D01*
X77261904Y-112673809D01*
X77261904Y-112530952D01*
X77214285Y-112340476D01*
X77166666Y-112245238D01*
X77071428Y-112150000D01*
X76928571Y-112102380D01*
X76833333Y-112102380D01*
X76690476Y-112150000D01*
X76642857Y-112197619D01*
X75690476Y-113102380D02*
X76261904Y-113102380D01*
X75976190Y-113102380D02*
X75976190Y-112102380D01*
X76071428Y-112245238D01*
X76166666Y-112340476D01*
X76261904Y-112388095D01*
X74833333Y-112435714D02*
X74833333Y-113102380D01*
X75071428Y-112054761D02*
X75309523Y-112769047D01*
X74690476Y-112769047D01*
X185642857Y-4707142D02*
X185690476Y-4754761D01*
X185833333Y-4802380D01*
X185928571Y-4802380D01*
X186071428Y-4754761D01*
X186166666Y-4659523D01*
X186214285Y-4564285D01*
X186261904Y-4373809D01*
X186261904Y-4230952D01*
X186214285Y-4040476D01*
X186166666Y-3945238D01*
X186071428Y-3850000D01*
X185928571Y-3802380D01*
X185833333Y-3802380D01*
X185690476Y-3850000D01*
X185642857Y-3897619D01*
X184690476Y-4802380D02*
X185261904Y-4802380D01*
X184976190Y-4802380D02*
X184976190Y-3802380D01*
X185071428Y-3945238D01*
X185166666Y-4040476D01*
X185261904Y-4088095D01*
X183785714Y-3802380D02*
X184261904Y-3802380D01*
X184309523Y-4278571D01*
X184261904Y-4230952D01*
X184166666Y-4183333D01*
X183928571Y-4183333D01*
X183833333Y-4230952D01*
X183785714Y-4278571D01*
X183738095Y-4373809D01*
X183738095Y-4611904D01*
X183785714Y-4707142D01*
X183833333Y-4754761D01*
X183928571Y-4802380D01*
X184166666Y-4802380D01*
X184261904Y-4754761D01*
X184309523Y-4707142D01*
X100607142Y-76357142D02*
X100654761Y-76309523D01*
X100702380Y-76166666D01*
X100702380Y-76071428D01*
X100654761Y-75928571D01*
X100559523Y-75833333D01*
X100464285Y-75785714D01*
X100273809Y-75738095D01*
X100130952Y-75738095D01*
X99940476Y-75785714D01*
X99845238Y-75833333D01*
X99750000Y-75928571D01*
X99702380Y-76071428D01*
X99702380Y-76166666D01*
X99750000Y-76309523D01*
X99797619Y-76357142D01*
X100702380Y-77309523D02*
X100702380Y-76738095D01*
X100702380Y-77023809D02*
X99702380Y-77023809D01*
X99845238Y-76928571D01*
X99940476Y-76833333D01*
X99988095Y-76738095D01*
X99702380Y-77642857D02*
X99702380Y-78309523D01*
X100702380Y-77880952D01*
X100607142Y-89357142D02*
X100654761Y-89309523D01*
X100702380Y-89166666D01*
X100702380Y-89071428D01*
X100654761Y-88928571D01*
X100559523Y-88833333D01*
X100464285Y-88785714D01*
X100273809Y-88738095D01*
X100130952Y-88738095D01*
X99940476Y-88785714D01*
X99845238Y-88833333D01*
X99750000Y-88928571D01*
X99702380Y-89071428D01*
X99702380Y-89166666D01*
X99750000Y-89309523D01*
X99797619Y-89357142D01*
X100702380Y-90309523D02*
X100702380Y-89738095D01*
X100702380Y-90023809D02*
X99702380Y-90023809D01*
X99845238Y-89928571D01*
X99940476Y-89833333D01*
X99988095Y-89738095D01*
X100130952Y-90880952D02*
X100083333Y-90785714D01*
X100035714Y-90738095D01*
X99940476Y-90690476D01*
X99892857Y-90690476D01*
X99797619Y-90738095D01*
X99750000Y-90785714D01*
X99702380Y-90880952D01*
X99702380Y-91071428D01*
X99750000Y-91166666D01*
X99797619Y-91214285D01*
X99892857Y-91261904D01*
X99940476Y-91261904D01*
X100035714Y-91214285D01*
X100083333Y-91166666D01*
X100130952Y-91071428D01*
X100130952Y-90880952D01*
X100178571Y-90785714D01*
X100226190Y-90738095D01*
X100321428Y-90690476D01*
X100511904Y-90690476D01*
X100607142Y-90738095D01*
X100654761Y-90785714D01*
X100702380Y-90880952D01*
X100702380Y-91071428D01*
X100654761Y-91166666D01*
X100607142Y-91214285D01*
X100511904Y-91261904D01*
X100321428Y-91261904D01*
X100226190Y-91214285D01*
X100178571Y-91166666D01*
X100130952Y-91071428D01*
X100607142Y-102857142D02*
X100654761Y-102809523D01*
X100702380Y-102666666D01*
X100702380Y-102571428D01*
X100654761Y-102428571D01*
X100559523Y-102333333D01*
X100464285Y-102285714D01*
X100273809Y-102238095D01*
X100130952Y-102238095D01*
X99940476Y-102285714D01*
X99845238Y-102333333D01*
X99750000Y-102428571D01*
X99702380Y-102571428D01*
X99702380Y-102666666D01*
X99750000Y-102809523D01*
X99797619Y-102857142D01*
X100702380Y-103809523D02*
X100702380Y-103238095D01*
X100702380Y-103523809D02*
X99702380Y-103523809D01*
X99845238Y-103428571D01*
X99940476Y-103333333D01*
X99988095Y-103238095D01*
X100702380Y-104285714D02*
X100702380Y-104476190D01*
X100654761Y-104571428D01*
X100607142Y-104619047D01*
X100464285Y-104714285D01*
X100273809Y-104761904D01*
X99892857Y-104761904D01*
X99797619Y-104714285D01*
X99750000Y-104666666D01*
X99702380Y-104571428D01*
X99702380Y-104380952D01*
X99750000Y-104285714D01*
X99797619Y-104238095D01*
X99892857Y-104190476D01*
X100130952Y-104190476D01*
X100226190Y-104238095D01*
X100273809Y-104285714D01*
X100321428Y-104380952D01*
X100321428Y-104571428D01*
X100273809Y-104666666D01*
X100226190Y-104714285D01*
X100130952Y-104761904D01*
X84107142Y-89357142D02*
X84154761Y-89309523D01*
X84202380Y-89166666D01*
X84202380Y-89071428D01*
X84154761Y-88928571D01*
X84059523Y-88833333D01*
X83964285Y-88785714D01*
X83773809Y-88738095D01*
X83630952Y-88738095D01*
X83440476Y-88785714D01*
X83345238Y-88833333D01*
X83250000Y-88928571D01*
X83202380Y-89071428D01*
X83202380Y-89166666D01*
X83250000Y-89309523D01*
X83297619Y-89357142D01*
X83297619Y-89738095D02*
X83250000Y-89785714D01*
X83202380Y-89880952D01*
X83202380Y-90119047D01*
X83250000Y-90214285D01*
X83297619Y-90261904D01*
X83392857Y-90309523D01*
X83488095Y-90309523D01*
X83630952Y-90261904D01*
X84202380Y-89690476D01*
X84202380Y-90309523D01*
X83202380Y-90928571D02*
X83202380Y-91023809D01*
X83250000Y-91119047D01*
X83297619Y-91166666D01*
X83392857Y-91214285D01*
X83583333Y-91261904D01*
X83821428Y-91261904D01*
X84011904Y-91214285D01*
X84107142Y-91166666D01*
X84154761Y-91119047D01*
X84202380Y-91023809D01*
X84202380Y-90928571D01*
X84154761Y-90833333D01*
X84107142Y-90785714D01*
X84011904Y-90738095D01*
X83821428Y-90690476D01*
X83583333Y-90690476D01*
X83392857Y-90738095D01*
X83297619Y-90785714D01*
X83250000Y-90833333D01*
X83202380Y-90928571D01*
X84107142Y-76357142D02*
X84154761Y-76309523D01*
X84202380Y-76166666D01*
X84202380Y-76071428D01*
X84154761Y-75928571D01*
X84059523Y-75833333D01*
X83964285Y-75785714D01*
X83773809Y-75738095D01*
X83630952Y-75738095D01*
X83440476Y-75785714D01*
X83345238Y-75833333D01*
X83250000Y-75928571D01*
X83202380Y-76071428D01*
X83202380Y-76166666D01*
X83250000Y-76309523D01*
X83297619Y-76357142D01*
X83297619Y-76738095D02*
X83250000Y-76785714D01*
X83202380Y-76880952D01*
X83202380Y-77119047D01*
X83250000Y-77214285D01*
X83297619Y-77261904D01*
X83392857Y-77309523D01*
X83488095Y-77309523D01*
X83630952Y-77261904D01*
X84202380Y-76690476D01*
X84202380Y-77309523D01*
X84202380Y-78261904D02*
X84202380Y-77690476D01*
X84202380Y-77976190D02*
X83202380Y-77976190D01*
X83345238Y-77880952D01*
X83440476Y-77785714D01*
X83488095Y-77690476D01*
X84107142Y-102857142D02*
X84154761Y-102809523D01*
X84202380Y-102666666D01*
X84202380Y-102571428D01*
X84154761Y-102428571D01*
X84059523Y-102333333D01*
X83964285Y-102285714D01*
X83773809Y-102238095D01*
X83630952Y-102238095D01*
X83440476Y-102285714D01*
X83345238Y-102333333D01*
X83250000Y-102428571D01*
X83202380Y-102571428D01*
X83202380Y-102666666D01*
X83250000Y-102809523D01*
X83297619Y-102857142D01*
X83297619Y-103238095D02*
X83250000Y-103285714D01*
X83202380Y-103380952D01*
X83202380Y-103619047D01*
X83250000Y-103714285D01*
X83297619Y-103761904D01*
X83392857Y-103809523D01*
X83488095Y-103809523D01*
X83630952Y-103761904D01*
X84202380Y-103190476D01*
X84202380Y-103809523D01*
X83297619Y-104190476D02*
X83250000Y-104238095D01*
X83202380Y-104333333D01*
X83202380Y-104571428D01*
X83250000Y-104666666D01*
X83297619Y-104714285D01*
X83392857Y-104761904D01*
X83488095Y-104761904D01*
X83630952Y-104714285D01*
X84202380Y-104142857D01*
X84202380Y-104761904D01*
X184007142Y-56357142D02*
X184054761Y-56309523D01*
X184102380Y-56166666D01*
X184102380Y-56071428D01*
X184054761Y-55928571D01*
X183959523Y-55833333D01*
X183864285Y-55785714D01*
X183673809Y-55738095D01*
X183530952Y-55738095D01*
X183340476Y-55785714D01*
X183245238Y-55833333D01*
X183150000Y-55928571D01*
X183102380Y-56071428D01*
X183102380Y-56166666D01*
X183150000Y-56309523D01*
X183197619Y-56357142D01*
X183197619Y-56738095D02*
X183150000Y-56785714D01*
X183102380Y-56880952D01*
X183102380Y-57119047D01*
X183150000Y-57214285D01*
X183197619Y-57261904D01*
X183292857Y-57309523D01*
X183388095Y-57309523D01*
X183530952Y-57261904D01*
X184102380Y-56690476D01*
X184102380Y-57309523D01*
X183102380Y-58214285D02*
X183102380Y-57738095D01*
X183578571Y-57690476D01*
X183530952Y-57738095D01*
X183483333Y-57833333D01*
X183483333Y-58071428D01*
X183530952Y-58166666D01*
X183578571Y-58214285D01*
X183673809Y-58261904D01*
X183911904Y-58261904D01*
X184007142Y-58214285D01*
X184054761Y-58166666D01*
X184102380Y-58071428D01*
X184102380Y-57833333D01*
X184054761Y-57738095D01*
X184007142Y-57690476D01*
X50142857Y-48007142D02*
X50190476Y-48054761D01*
X50333333Y-48102380D01*
X50428571Y-48102380D01*
X50571428Y-48054761D01*
X50666666Y-47959523D01*
X50714285Y-47864285D01*
X50761904Y-47673809D01*
X50761904Y-47530952D01*
X50714285Y-47340476D01*
X50666666Y-47245238D01*
X50571428Y-47150000D01*
X50428571Y-47102380D01*
X50333333Y-47102380D01*
X50190476Y-47150000D01*
X50142857Y-47197619D01*
X49761904Y-47197619D02*
X49714285Y-47150000D01*
X49619047Y-47102380D01*
X49380952Y-47102380D01*
X49285714Y-47150000D01*
X49238095Y-47197619D01*
X49190476Y-47292857D01*
X49190476Y-47388095D01*
X49238095Y-47530952D01*
X49809523Y-48102380D01*
X49190476Y-48102380D01*
X48333333Y-47102380D02*
X48523809Y-47102380D01*
X48619047Y-47150000D01*
X48666666Y-47197619D01*
X48761904Y-47340476D01*
X48809523Y-47530952D01*
X48809523Y-47911904D01*
X48761904Y-48007142D01*
X48714285Y-48054761D01*
X48619047Y-48102380D01*
X48428571Y-48102380D01*
X48333333Y-48054761D01*
X48285714Y-48007142D01*
X48238095Y-47911904D01*
X48238095Y-47673809D01*
X48285714Y-47578571D01*
X48333333Y-47530952D01*
X48428571Y-47483333D01*
X48619047Y-47483333D01*
X48714285Y-47530952D01*
X48761904Y-47578571D01*
X48809523Y-47673809D01*
X50142857Y-43507142D02*
X50190476Y-43554761D01*
X50333333Y-43602380D01*
X50428571Y-43602380D01*
X50571428Y-43554761D01*
X50666666Y-43459523D01*
X50714285Y-43364285D01*
X50761904Y-43173809D01*
X50761904Y-43030952D01*
X50714285Y-42840476D01*
X50666666Y-42745238D01*
X50571428Y-42650000D01*
X50428571Y-42602380D01*
X50333333Y-42602380D01*
X50190476Y-42650000D01*
X50142857Y-42697619D01*
X49761904Y-42697619D02*
X49714285Y-42650000D01*
X49619047Y-42602380D01*
X49380952Y-42602380D01*
X49285714Y-42650000D01*
X49238095Y-42697619D01*
X49190476Y-42792857D01*
X49190476Y-42888095D01*
X49238095Y-43030952D01*
X49809523Y-43602380D01*
X49190476Y-43602380D01*
X48857142Y-42602380D02*
X48190476Y-42602380D01*
X48619047Y-43602380D01*
X63142857Y-29707142D02*
X63190476Y-29754761D01*
X63333333Y-29802380D01*
X63428571Y-29802380D01*
X63571428Y-29754761D01*
X63666666Y-29659523D01*
X63714285Y-29564285D01*
X63761904Y-29373809D01*
X63761904Y-29230952D01*
X63714285Y-29040476D01*
X63666666Y-28945238D01*
X63571428Y-28850000D01*
X63428571Y-28802380D01*
X63333333Y-28802380D01*
X63190476Y-28850000D01*
X63142857Y-28897619D01*
X62761904Y-28897619D02*
X62714285Y-28850000D01*
X62619047Y-28802380D01*
X62380952Y-28802380D01*
X62285714Y-28850000D01*
X62238095Y-28897619D01*
X62190476Y-28992857D01*
X62190476Y-29088095D01*
X62238095Y-29230952D01*
X62809523Y-29802380D01*
X62190476Y-29802380D01*
X61619047Y-29230952D02*
X61714285Y-29183333D01*
X61761904Y-29135714D01*
X61809523Y-29040476D01*
X61809523Y-28992857D01*
X61761904Y-28897619D01*
X61714285Y-28850000D01*
X61619047Y-28802380D01*
X61428571Y-28802380D01*
X61333333Y-28850000D01*
X61285714Y-28897619D01*
X61238095Y-28992857D01*
X61238095Y-29040476D01*
X61285714Y-29135714D01*
X61333333Y-29183333D01*
X61428571Y-29230952D01*
X61619047Y-29230952D01*
X61714285Y-29278571D01*
X61761904Y-29326190D01*
X61809523Y-29421428D01*
X61809523Y-29611904D01*
X61761904Y-29707142D01*
X61714285Y-29754761D01*
X61619047Y-29802380D01*
X61428571Y-29802380D01*
X61333333Y-29754761D01*
X61285714Y-29707142D01*
X61238095Y-29611904D01*
X61238095Y-29421428D01*
X61285714Y-29326190D01*
X61333333Y-29278571D01*
X61428571Y-29230952D01*
X79142857Y-29707142D02*
X79190476Y-29754761D01*
X79333333Y-29802380D01*
X79428571Y-29802380D01*
X79571428Y-29754761D01*
X79666666Y-29659523D01*
X79714285Y-29564285D01*
X79761904Y-29373809D01*
X79761904Y-29230952D01*
X79714285Y-29040476D01*
X79666666Y-28945238D01*
X79571428Y-28850000D01*
X79428571Y-28802380D01*
X79333333Y-28802380D01*
X79190476Y-28850000D01*
X79142857Y-28897619D01*
X78761904Y-28897619D02*
X78714285Y-28850000D01*
X78619047Y-28802380D01*
X78380952Y-28802380D01*
X78285714Y-28850000D01*
X78238095Y-28897619D01*
X78190476Y-28992857D01*
X78190476Y-29088095D01*
X78238095Y-29230952D01*
X78809523Y-29802380D01*
X78190476Y-29802380D01*
X77714285Y-29802380D02*
X77523809Y-29802380D01*
X77428571Y-29754761D01*
X77380952Y-29707142D01*
X77285714Y-29564285D01*
X77238095Y-29373809D01*
X77238095Y-28992857D01*
X77285714Y-28897619D01*
X77333333Y-28850000D01*
X77428571Y-28802380D01*
X77619047Y-28802380D01*
X77714285Y-28850000D01*
X77761904Y-28897619D01*
X77809523Y-28992857D01*
X77809523Y-29230952D01*
X77761904Y-29326190D01*
X77714285Y-29373809D01*
X77619047Y-29421428D01*
X77428571Y-29421428D01*
X77333333Y-29373809D01*
X77285714Y-29326190D01*
X77238095Y-29230952D01*
X48142857Y-70507142D02*
X48190476Y-70554761D01*
X48333333Y-70602380D01*
X48428571Y-70602380D01*
X48571428Y-70554761D01*
X48666666Y-70459523D01*
X48714285Y-70364285D01*
X48761904Y-70173809D01*
X48761904Y-70030952D01*
X48714285Y-69840476D01*
X48666666Y-69745238D01*
X48571428Y-69650000D01*
X48428571Y-69602380D01*
X48333333Y-69602380D01*
X48190476Y-69650000D01*
X48142857Y-69697619D01*
X47809523Y-69602380D02*
X47190476Y-69602380D01*
X47523809Y-69983333D01*
X47380952Y-69983333D01*
X47285714Y-70030952D01*
X47238095Y-70078571D01*
X47190476Y-70173809D01*
X47190476Y-70411904D01*
X47238095Y-70507142D01*
X47285714Y-70554761D01*
X47380952Y-70602380D01*
X47666666Y-70602380D01*
X47761904Y-70554761D01*
X47809523Y-70507142D01*
X46571428Y-69602380D02*
X46476190Y-69602380D01*
X46380952Y-69650000D01*
X46333333Y-69697619D01*
X46285714Y-69792857D01*
X46238095Y-69983333D01*
X46238095Y-70221428D01*
X46285714Y-70411904D01*
X46333333Y-70507142D01*
X46380952Y-70554761D01*
X46476190Y-70602380D01*
X46571428Y-70602380D01*
X46666666Y-70554761D01*
X46714285Y-70507142D01*
X46761904Y-70411904D01*
X46809523Y-70221428D01*
X46809523Y-69983333D01*
X46761904Y-69792857D01*
X46714285Y-69697619D01*
X46666666Y-69650000D01*
X46571428Y-69602380D01*
X84642857Y-70507142D02*
X84690476Y-70554761D01*
X84833333Y-70602380D01*
X84928571Y-70602380D01*
X85071428Y-70554761D01*
X85166666Y-70459523D01*
X85214285Y-70364285D01*
X85261904Y-70173809D01*
X85261904Y-70030952D01*
X85214285Y-69840476D01*
X85166666Y-69745238D01*
X85071428Y-69650000D01*
X84928571Y-69602380D01*
X84833333Y-69602380D01*
X84690476Y-69650000D01*
X84642857Y-69697619D01*
X84309523Y-69602380D02*
X83690476Y-69602380D01*
X84023809Y-69983333D01*
X83880952Y-69983333D01*
X83785714Y-70030952D01*
X83738095Y-70078571D01*
X83690476Y-70173809D01*
X83690476Y-70411904D01*
X83738095Y-70507142D01*
X83785714Y-70554761D01*
X83880952Y-70602380D01*
X84166666Y-70602380D01*
X84261904Y-70554761D01*
X84309523Y-70507142D01*
X82738095Y-70602380D02*
X83309523Y-70602380D01*
X83023809Y-70602380D02*
X83023809Y-69602380D01*
X83119047Y-69745238D01*
X83214285Y-69840476D01*
X83309523Y-69888095D01*
X50092857Y-85007142D02*
X50140476Y-85054761D01*
X50283333Y-85102380D01*
X50378571Y-85102380D01*
X50521428Y-85054761D01*
X50616666Y-84959523D01*
X50664285Y-84864285D01*
X50711904Y-84673809D01*
X50711904Y-84530952D01*
X50664285Y-84340476D01*
X50616666Y-84245238D01*
X50521428Y-84150000D01*
X50378571Y-84102380D01*
X50283333Y-84102380D01*
X50140476Y-84150000D01*
X50092857Y-84197619D01*
X49759523Y-84102380D02*
X49140476Y-84102380D01*
X49473809Y-84483333D01*
X49330952Y-84483333D01*
X49235714Y-84530952D01*
X49188095Y-84578571D01*
X49140476Y-84673809D01*
X49140476Y-84911904D01*
X49188095Y-85007142D01*
X49235714Y-85054761D01*
X49330952Y-85102380D01*
X49616666Y-85102380D01*
X49711904Y-85054761D01*
X49759523Y-85007142D01*
X48807142Y-84102380D02*
X48188095Y-84102380D01*
X48521428Y-84483333D01*
X48378571Y-84483333D01*
X48283333Y-84530952D01*
X48235714Y-84578571D01*
X48188095Y-84673809D01*
X48188095Y-84911904D01*
X48235714Y-85007142D01*
X48283333Y-85054761D01*
X48378571Y-85102380D01*
X48664285Y-85102380D01*
X48759523Y-85054761D01*
X48807142Y-85007142D01*
X50192857Y-80507142D02*
X50240476Y-80554761D01*
X50383333Y-80602380D01*
X50478571Y-80602380D01*
X50621428Y-80554761D01*
X50716666Y-80459523D01*
X50764285Y-80364285D01*
X50811904Y-80173809D01*
X50811904Y-80030952D01*
X50764285Y-79840476D01*
X50716666Y-79745238D01*
X50621428Y-79650000D01*
X50478571Y-79602380D01*
X50383333Y-79602380D01*
X50240476Y-79650000D01*
X50192857Y-79697619D01*
X49859523Y-79602380D02*
X49240476Y-79602380D01*
X49573809Y-79983333D01*
X49430952Y-79983333D01*
X49335714Y-80030952D01*
X49288095Y-80078571D01*
X49240476Y-80173809D01*
X49240476Y-80411904D01*
X49288095Y-80507142D01*
X49335714Y-80554761D01*
X49430952Y-80602380D01*
X49716666Y-80602380D01*
X49811904Y-80554761D01*
X49859523Y-80507142D01*
X48383333Y-79935714D02*
X48383333Y-80602380D01*
X48621428Y-79554761D02*
X48859523Y-80269047D01*
X48240476Y-80269047D01*
X144007142Y-56357142D02*
X144054761Y-56309523D01*
X144102380Y-56166666D01*
X144102380Y-56071428D01*
X144054761Y-55928571D01*
X143959523Y-55833333D01*
X143864285Y-55785714D01*
X143673809Y-55738095D01*
X143530952Y-55738095D01*
X143340476Y-55785714D01*
X143245238Y-55833333D01*
X143150000Y-55928571D01*
X143102380Y-56071428D01*
X143102380Y-56166666D01*
X143150000Y-56309523D01*
X143197619Y-56357142D01*
X143435714Y-57214285D02*
X144102380Y-57214285D01*
X143054761Y-56976190D02*
X143769047Y-56738095D01*
X143769047Y-57357142D01*
X143197619Y-57690476D02*
X143150000Y-57738095D01*
X143102380Y-57833333D01*
X143102380Y-58071428D01*
X143150000Y-58166666D01*
X143197619Y-58214285D01*
X143292857Y-58261904D01*
X143388095Y-58261904D01*
X143530952Y-58214285D01*
X144102380Y-57642857D01*
X144102380Y-58261904D01*
X189007142Y-56357142D02*
X189054761Y-56309523D01*
X189102380Y-56166666D01*
X189102380Y-56071428D01*
X189054761Y-55928571D01*
X188959523Y-55833333D01*
X188864285Y-55785714D01*
X188673809Y-55738095D01*
X188530952Y-55738095D01*
X188340476Y-55785714D01*
X188245238Y-55833333D01*
X188150000Y-55928571D01*
X188102380Y-56071428D01*
X188102380Y-56166666D01*
X188150000Y-56309523D01*
X188197619Y-56357142D01*
X188435714Y-57214285D02*
X189102380Y-57214285D01*
X188054761Y-56976190D02*
X188769047Y-56738095D01*
X188769047Y-57357142D01*
X188102380Y-57642857D02*
X188102380Y-58261904D01*
X188483333Y-57928571D01*
X188483333Y-58071428D01*
X188530952Y-58166666D01*
X188578571Y-58214285D01*
X188673809Y-58261904D01*
X188911904Y-58261904D01*
X189007142Y-58214285D01*
X189054761Y-58166666D01*
X189102380Y-58071428D01*
X189102380Y-57785714D01*
X189054761Y-57690476D01*
X189007142Y-57642857D01*
X149007142Y-56357142D02*
X149054761Y-56309523D01*
X149102380Y-56166666D01*
X149102380Y-56071428D01*
X149054761Y-55928571D01*
X148959523Y-55833333D01*
X148864285Y-55785714D01*
X148673809Y-55738095D01*
X148530952Y-55738095D01*
X148340476Y-55785714D01*
X148245238Y-55833333D01*
X148150000Y-55928571D01*
X148102380Y-56071428D01*
X148102380Y-56166666D01*
X148150000Y-56309523D01*
X148197619Y-56357142D01*
X148435714Y-57214285D02*
X149102380Y-57214285D01*
X148054761Y-56976190D02*
X148769047Y-56738095D01*
X148769047Y-57357142D01*
X148435714Y-58166666D02*
X149102380Y-58166666D01*
X148054761Y-57928571D02*
X148769047Y-57690476D01*
X148769047Y-58309523D01*
X164007142Y-56357142D02*
X164054761Y-56309523D01*
X164102380Y-56166666D01*
X164102380Y-56071428D01*
X164054761Y-55928571D01*
X163959523Y-55833333D01*
X163864285Y-55785714D01*
X163673809Y-55738095D01*
X163530952Y-55738095D01*
X163340476Y-55785714D01*
X163245238Y-55833333D01*
X163150000Y-55928571D01*
X163102380Y-56071428D01*
X163102380Y-56166666D01*
X163150000Y-56309523D01*
X163197619Y-56357142D01*
X163435714Y-57214285D02*
X164102380Y-57214285D01*
X163054761Y-56976190D02*
X163769047Y-56738095D01*
X163769047Y-57357142D01*
X163102380Y-58214285D02*
X163102380Y-57738095D01*
X163578571Y-57690476D01*
X163530952Y-57738095D01*
X163483333Y-57833333D01*
X163483333Y-58071428D01*
X163530952Y-58166666D01*
X163578571Y-58214285D01*
X163673809Y-58261904D01*
X163911904Y-58261904D01*
X164007142Y-58214285D01*
X164054761Y-58166666D01*
X164102380Y-58071428D01*
X164102380Y-57833333D01*
X164054761Y-57738095D01*
X164007142Y-57690476D01*
X124007142Y-56357142D02*
X124054761Y-56309523D01*
X124102380Y-56166666D01*
X124102380Y-56071428D01*
X124054761Y-55928571D01*
X123959523Y-55833333D01*
X123864285Y-55785714D01*
X123673809Y-55738095D01*
X123530952Y-55738095D01*
X123340476Y-55785714D01*
X123245238Y-55833333D01*
X123150000Y-55928571D01*
X123102380Y-56071428D01*
X123102380Y-56166666D01*
X123150000Y-56309523D01*
X123197619Y-56357142D01*
X123435714Y-57214285D02*
X124102380Y-57214285D01*
X123054761Y-56976190D02*
X123769047Y-56738095D01*
X123769047Y-57357142D01*
X123102380Y-58166666D02*
X123102380Y-57976190D01*
X123150000Y-57880952D01*
X123197619Y-57833333D01*
X123340476Y-57738095D01*
X123530952Y-57690476D01*
X123911904Y-57690476D01*
X124007142Y-57738095D01*
X124054761Y-57785714D01*
X124102380Y-57880952D01*
X124102380Y-58071428D01*
X124054761Y-58166666D01*
X124007142Y-58214285D01*
X123911904Y-58261904D01*
X123673809Y-58261904D01*
X123578571Y-58214285D01*
X123530952Y-58166666D01*
X123483333Y-58071428D01*
X123483333Y-57880952D01*
X123530952Y-57785714D01*
X123578571Y-57738095D01*
X123673809Y-57690476D01*
X169007142Y-56357142D02*
X169054761Y-56309523D01*
X169102380Y-56166666D01*
X169102380Y-56071428D01*
X169054761Y-55928571D01*
X168959523Y-55833333D01*
X168864285Y-55785714D01*
X168673809Y-55738095D01*
X168530952Y-55738095D01*
X168340476Y-55785714D01*
X168245238Y-55833333D01*
X168150000Y-55928571D01*
X168102380Y-56071428D01*
X168102380Y-56166666D01*
X168150000Y-56309523D01*
X168197619Y-56357142D01*
X168435714Y-57214285D02*
X169102380Y-57214285D01*
X168054761Y-56976190D02*
X168769047Y-56738095D01*
X168769047Y-57357142D01*
X168102380Y-57642857D02*
X168102380Y-58309523D01*
X169102380Y-57880952D01*
X129007142Y-56357142D02*
X129054761Y-56309523D01*
X129102380Y-56166666D01*
X129102380Y-56071428D01*
X129054761Y-55928571D01*
X128959523Y-55833333D01*
X128864285Y-55785714D01*
X128673809Y-55738095D01*
X128530952Y-55738095D01*
X128340476Y-55785714D01*
X128245238Y-55833333D01*
X128150000Y-55928571D01*
X128102380Y-56071428D01*
X128102380Y-56166666D01*
X128150000Y-56309523D01*
X128197619Y-56357142D01*
X128435714Y-57214285D02*
X129102380Y-57214285D01*
X128054761Y-56976190D02*
X128769047Y-56738095D01*
X128769047Y-57357142D01*
X128530952Y-57880952D02*
X128483333Y-57785714D01*
X128435714Y-57738095D01*
X128340476Y-57690476D01*
X128292857Y-57690476D01*
X128197619Y-57738095D01*
X128150000Y-57785714D01*
X128102380Y-57880952D01*
X128102380Y-58071428D01*
X128150000Y-58166666D01*
X128197619Y-58214285D01*
X128292857Y-58261904D01*
X128340476Y-58261904D01*
X128435714Y-58214285D01*
X128483333Y-58166666D01*
X128530952Y-58071428D01*
X128530952Y-57880952D01*
X128578571Y-57785714D01*
X128626190Y-57738095D01*
X128721428Y-57690476D01*
X128911904Y-57690476D01*
X129007142Y-57738095D01*
X129054761Y-57785714D01*
X129102380Y-57880952D01*
X129102380Y-58071428D01*
X129054761Y-58166666D01*
X129007142Y-58214285D01*
X128911904Y-58261904D01*
X128721428Y-58261904D01*
X128626190Y-58214285D01*
X128578571Y-58166666D01*
X128530952Y-58071428D01*
X121302380Y-12333333D02*
X120826190Y-12000000D01*
X121302380Y-11761904D02*
X120302380Y-11761904D01*
X120302380Y-12142857D01*
X120350000Y-12238095D01*
X120397619Y-12285714D01*
X120492857Y-12333333D01*
X120635714Y-12333333D01*
X120730952Y-12285714D01*
X120778571Y-12238095D01*
X120826190Y-12142857D01*
X120826190Y-11761904D01*
X120635714Y-13190476D02*
X121302380Y-13190476D01*
X120254761Y-12952380D02*
X120969047Y-12714285D01*
X120969047Y-13333333D01*
X77102380Y-103833333D02*
X76626190Y-103500000D01*
X77102380Y-103261904D02*
X76102380Y-103261904D01*
X76102380Y-103642857D01*
X76150000Y-103738095D01*
X76197619Y-103785714D01*
X76292857Y-103833333D01*
X76435714Y-103833333D01*
X76530952Y-103785714D01*
X76578571Y-103738095D01*
X76626190Y-103642857D01*
X76626190Y-103261904D01*
X76102380Y-104738095D02*
X76102380Y-104261904D01*
X76578571Y-104214285D01*
X76530952Y-104261904D01*
X76483333Y-104357142D01*
X76483333Y-104595238D01*
X76530952Y-104690476D01*
X76578571Y-104738095D01*
X76673809Y-104785714D01*
X76911904Y-104785714D01*
X77007142Y-104738095D01*
X77054761Y-104690476D01*
X77102380Y-104595238D01*
X77102380Y-104357142D01*
X77054761Y-104261904D01*
X77007142Y-104214285D01*
X96761904Y-50352380D02*
X96761904Y-51161904D01*
X96714285Y-51257142D01*
X96666666Y-51304761D01*
X96571428Y-51352380D01*
X96380952Y-51352380D01*
X96285714Y-51304761D01*
X96238095Y-51257142D01*
X96190476Y-51161904D01*
X96190476Y-50352380D01*
X95809523Y-50352380D02*
X95190476Y-50352380D01*
X95523809Y-50733333D01*
X95380952Y-50733333D01*
X95285714Y-50780952D01*
X95238095Y-50828571D01*
X95190476Y-50923809D01*
X95190476Y-51161904D01*
X95238095Y-51257142D01*
X95285714Y-51304761D01*
X95380952Y-51352380D01*
X95666666Y-51352380D01*
X95761904Y-51304761D01*
X95809523Y-51257142D01*
X106261904Y-50352380D02*
X106261904Y-51161904D01*
X106214285Y-51257142D01*
X106166666Y-51304761D01*
X106071428Y-51352380D01*
X105880952Y-51352380D01*
X105785714Y-51304761D01*
X105738095Y-51257142D01*
X105690476Y-51161904D01*
X105690476Y-50352380D01*
X104738095Y-50352380D02*
X105214285Y-50352380D01*
X105261904Y-50828571D01*
X105214285Y-50780952D01*
X105119047Y-50733333D01*
X104880952Y-50733333D01*
X104785714Y-50780952D01*
X104738095Y-50828571D01*
X104690476Y-50923809D01*
X104690476Y-51161904D01*
X104738095Y-51257142D01*
X104785714Y-51304761D01*
X104880952Y-51352380D01*
X105119047Y-51352380D01*
X105214285Y-51304761D01*
X105261904Y-51257142D01*
X138261904Y-32452380D02*
X138261904Y-33261904D01*
X138214285Y-33357142D01*
X138166666Y-33404761D01*
X138071428Y-33452380D01*
X137880952Y-33452380D01*
X137785714Y-33404761D01*
X137738095Y-33357142D01*
X137690476Y-33261904D01*
X137690476Y-32452380D01*
X137309523Y-32452380D02*
X136642857Y-32452380D01*
X137071428Y-33452380D01*
X25102380Y-25238095D02*
X25911904Y-25238095D01*
X26007142Y-25285714D01*
X26054761Y-25333333D01*
X26102380Y-25428571D01*
X26102380Y-25619047D01*
X26054761Y-25714285D01*
X26007142Y-25761904D01*
X25911904Y-25809523D01*
X25102380Y-25809523D01*
X25530952Y-26428571D02*
X25483333Y-26333333D01*
X25435714Y-26285714D01*
X25340476Y-26238095D01*
X25292857Y-26238095D01*
X25197619Y-26285714D01*
X25150000Y-26333333D01*
X25102380Y-26428571D01*
X25102380Y-26619047D01*
X25150000Y-26714285D01*
X25197619Y-26761904D01*
X25292857Y-26809523D01*
X25340476Y-26809523D01*
X25435714Y-26761904D01*
X25483333Y-26714285D01*
X25530952Y-26619047D01*
X25530952Y-26428571D01*
X25578571Y-26333333D01*
X25626190Y-26285714D01*
X25721428Y-26238095D01*
X25911904Y-26238095D01*
X26007142Y-26285714D01*
X26054761Y-26333333D01*
X26102380Y-26428571D01*
X26102380Y-26619047D01*
X26054761Y-26714285D01*
X26007142Y-26761904D01*
X25911904Y-26809523D01*
X25721428Y-26809523D01*
X25626190Y-26761904D01*
X25578571Y-26714285D01*
X25530952Y-26619047D01*
X5602380Y-25238095D02*
X6411904Y-25238095D01*
X6507142Y-25285714D01*
X6554761Y-25333333D01*
X6602380Y-25428571D01*
X6602380Y-25619047D01*
X6554761Y-25714285D01*
X6507142Y-25761904D01*
X6411904Y-25809523D01*
X5602380Y-25809523D01*
X6602380Y-26333333D02*
X6602380Y-26523809D01*
X6554761Y-26619047D01*
X6507142Y-26666666D01*
X6364285Y-26761904D01*
X6173809Y-26809523D01*
X5792857Y-26809523D01*
X5697619Y-26761904D01*
X5650000Y-26714285D01*
X5602380Y-26619047D01*
X5602380Y-26428571D01*
X5650000Y-26333333D01*
X5697619Y-26285714D01*
X5792857Y-26238095D01*
X6030952Y-26238095D01*
X6126190Y-26285714D01*
X6173809Y-26333333D01*
X6221428Y-26428571D01*
X6221428Y-26619047D01*
X6173809Y-26714285D01*
X6126190Y-26761904D01*
X6030952Y-26809523D01*
X106738095Y-57352380D02*
X106738095Y-58161904D01*
X106690476Y-58257142D01*
X106642857Y-58304761D01*
X106547619Y-58352380D01*
X106357142Y-58352380D01*
X106261904Y-58304761D01*
X106214285Y-58257142D01*
X106166666Y-58161904D01*
X106166666Y-57352380D01*
X105166666Y-58352380D02*
X105738095Y-58352380D01*
X105452380Y-58352380D02*
X105452380Y-57352380D01*
X105547619Y-57495238D01*
X105642857Y-57590476D01*
X105738095Y-57638095D01*
X104214285Y-58352380D02*
X104785714Y-58352380D01*
X104500000Y-58352380D02*
X104500000Y-57352380D01*
X104595238Y-57495238D01*
X104690476Y-57590476D01*
X104785714Y-57638095D01*
X67238095Y-32102380D02*
X67238095Y-32911904D01*
X67190476Y-33007142D01*
X67142857Y-33054761D01*
X67047619Y-33102380D01*
X66857142Y-33102380D01*
X66761904Y-33054761D01*
X66714285Y-33007142D01*
X66666666Y-32911904D01*
X66666666Y-32102380D01*
X65666666Y-33102380D02*
X66238095Y-33102380D01*
X65952380Y-33102380D02*
X65952380Y-32102380D01*
X66047619Y-32245238D01*
X66142857Y-32340476D01*
X66238095Y-32388095D01*
X65285714Y-32197619D02*
X65238095Y-32150000D01*
X65142857Y-32102380D01*
X64904761Y-32102380D01*
X64809523Y-32150000D01*
X64761904Y-32197619D01*
X64714285Y-32292857D01*
X64714285Y-32388095D01*
X64761904Y-32530952D01*
X65333333Y-33102380D01*
X64714285Y-33102380D01*
X78238095Y-90852380D02*
X78238095Y-91661904D01*
X78190476Y-91757142D01*
X78142857Y-91804761D01*
X78047619Y-91852380D01*
X77857142Y-91852380D01*
X77761904Y-91804761D01*
X77714285Y-91757142D01*
X77666666Y-91661904D01*
X77666666Y-90852380D01*
X76666666Y-91852380D02*
X77238095Y-91852380D01*
X76952380Y-91852380D02*
X76952380Y-90852380D01*
X77047619Y-90995238D01*
X77142857Y-91090476D01*
X77238095Y-91138095D01*
X75761904Y-90852380D02*
X76238095Y-90852380D01*
X76285714Y-91328571D01*
X76238095Y-91280952D01*
X76142857Y-91233333D01*
X75904761Y-91233333D01*
X75809523Y-91280952D01*
X75761904Y-91328571D01*
X75714285Y-91423809D01*
X75714285Y-91661904D01*
X75761904Y-91757142D01*
X75809523Y-91804761D01*
X75904761Y-91852380D01*
X76142857Y-91852380D01*
X76238095Y-91804761D01*
X76285714Y-91757142D01*
X83238095Y-32102380D02*
X83238095Y-32911904D01*
X83190476Y-33007142D01*
X83142857Y-33054761D01*
X83047619Y-33102380D01*
X82857142Y-33102380D01*
X82761904Y-33054761D01*
X82714285Y-33007142D01*
X82666666Y-32911904D01*
X82666666Y-32102380D01*
X82238095Y-32197619D02*
X82190476Y-32150000D01*
X82095238Y-32102380D01*
X81857142Y-32102380D01*
X81761904Y-32150000D01*
X81714285Y-32197619D01*
X81666666Y-32292857D01*
X81666666Y-32388095D01*
X81714285Y-32530952D01*
X82285714Y-33102380D01*
X81666666Y-33102380D01*
X80714285Y-33102380D02*
X81285714Y-33102380D01*
X81000000Y-33102380D02*
X81000000Y-32102380D01*
X81095238Y-32245238D01*
X81190476Y-32340476D01*
X81285714Y-32388095D01*
X55002380Y-59761904D02*
X55811904Y-59761904D01*
X55907142Y-59809523D01*
X55954761Y-59857142D01*
X56002380Y-59952380D01*
X56002380Y-60142857D01*
X55954761Y-60238095D01*
X55907142Y-60285714D01*
X55811904Y-60333333D01*
X55002380Y-60333333D01*
X55097619Y-60761904D02*
X55050000Y-60809523D01*
X55002380Y-60904761D01*
X55002380Y-61142857D01*
X55050000Y-61238095D01*
X55097619Y-61285714D01*
X55192857Y-61333333D01*
X55288095Y-61333333D01*
X55430952Y-61285714D01*
X56002380Y-60714285D01*
X56002380Y-61333333D01*
X55097619Y-61714285D02*
X55050000Y-61761904D01*
X55002380Y-61857142D01*
X55002380Y-62095238D01*
X55050000Y-62190476D01*
X55097619Y-62238095D01*
X55192857Y-62285714D01*
X55288095Y-62285714D01*
X55430952Y-62238095D01*
X56002380Y-61666666D01*
X56002380Y-62285714D01*
X91502380Y-59761904D02*
X92311904Y-59761904D01*
X92407142Y-59809523D01*
X92454761Y-59857142D01*
X92502380Y-59952380D01*
X92502380Y-60142857D01*
X92454761Y-60238095D01*
X92407142Y-60285714D01*
X92311904Y-60333333D01*
X91502380Y-60333333D01*
X91597619Y-60761904D02*
X91550000Y-60809523D01*
X91502380Y-60904761D01*
X91502380Y-61142857D01*
X91550000Y-61238095D01*
X91597619Y-61285714D01*
X91692857Y-61333333D01*
X91788095Y-61333333D01*
X91930952Y-61285714D01*
X92502380Y-60714285D01*
X92502380Y-61333333D01*
X91502380Y-61666666D02*
X91502380Y-62285714D01*
X91883333Y-61952380D01*
X91883333Y-62095238D01*
X91930952Y-62190476D01*
X91978571Y-62238095D01*
X92073809Y-62285714D01*
X92311904Y-62285714D01*
X92407142Y-62238095D01*
X92454761Y-62190476D01*
X92502380Y-62095238D01*
X92502380Y-61809523D01*
X92454761Y-61714285D01*
X92407142Y-61666666D01*
X61642857Y-76177142D02*
X61690476Y-76224761D01*
X61833333Y-76272380D01*
X61928571Y-76272380D01*
X62071428Y-76224761D01*
X62166666Y-76129523D01*
X62214285Y-76034285D01*
X62261904Y-75843809D01*
X62261904Y-75700952D01*
X62214285Y-75510476D01*
X62166666Y-75415238D01*
X62071428Y-75320000D01*
X61928571Y-75272380D01*
X61833333Y-75272380D01*
X61690476Y-75320000D01*
X61642857Y-75367619D01*
X60738095Y-75272380D02*
X61214285Y-75272380D01*
X61261904Y-75748571D01*
X61214285Y-75700952D01*
X61119047Y-75653333D01*
X60880952Y-75653333D01*
X60785714Y-75700952D01*
X60738095Y-75748571D01*
X60690476Y-75843809D01*
X60690476Y-76081904D01*
X60738095Y-76177142D01*
X60785714Y-76224761D01*
X60880952Y-76272380D01*
X61119047Y-76272380D01*
X61214285Y-76224761D01*
X61261904Y-76177142D01*
X60309523Y-75367619D02*
X60261904Y-75320000D01*
X60166666Y-75272380D01*
X59928571Y-75272380D01*
X59833333Y-75320000D01*
X59785714Y-75367619D01*
X59738095Y-75462857D01*
X59738095Y-75558095D01*
X59785714Y-75700952D01*
X60357142Y-76272380D01*
X59738095Y-76272380D01*
X113202380Y-33333333D02*
X112726190Y-33000000D01*
X113202380Y-32761904D02*
X112202380Y-32761904D01*
X112202380Y-33142857D01*
X112250000Y-33238095D01*
X112297619Y-33285714D01*
X112392857Y-33333333D01*
X112535714Y-33333333D01*
X112630952Y-33285714D01*
X112678571Y-33238095D01*
X112726190Y-33142857D01*
X112726190Y-32761904D01*
X112202380Y-34190476D02*
X112202380Y-34000000D01*
X112250000Y-33904761D01*
X112297619Y-33857142D01*
X112440476Y-33761904D01*
X112630952Y-33714285D01*
X113011904Y-33714285D01*
X113107142Y-33761904D01*
X113154761Y-33809523D01*
X113202380Y-33904761D01*
X113202380Y-34095238D01*
X113154761Y-34190476D01*
X113107142Y-34238095D01*
X113011904Y-34285714D01*
X112773809Y-34285714D01*
X112678571Y-34238095D01*
X112630952Y-34190476D01*
X112583333Y-34095238D01*
X112583333Y-33904761D01*
X112630952Y-33809523D01*
X112678571Y-33761904D01*
X112773809Y-33714285D01*
X102052380Y-72261904D02*
X102861904Y-72261904D01*
X102957142Y-72309523D01*
X103004761Y-72357142D01*
X103052380Y-72452380D01*
X103052380Y-72642857D01*
X103004761Y-72738095D01*
X102957142Y-72785714D01*
X102861904Y-72833333D01*
X102052380Y-72833333D01*
X103052380Y-73833333D02*
X103052380Y-73261904D01*
X103052380Y-73547619D02*
X102052380Y-73547619D01*
X102195238Y-73452380D01*
X102290476Y-73357142D01*
X102338095Y-73261904D01*
X102052380Y-74166666D02*
X102052380Y-74785714D01*
X102433333Y-74452380D01*
X102433333Y-74595238D01*
X102480952Y-74690476D01*
X102528571Y-74738095D01*
X102623809Y-74785714D01*
X102861904Y-74785714D01*
X102957142Y-74738095D01*
X103004761Y-74690476D01*
X103052380Y-74595238D01*
X103052380Y-74309523D01*
X103004761Y-74214285D01*
X102957142Y-74166666D01*
X102052380Y-85261904D02*
X102861904Y-85261904D01*
X102957142Y-85309523D01*
X103004761Y-85357142D01*
X103052380Y-85452380D01*
X103052380Y-85642857D01*
X103004761Y-85738095D01*
X102957142Y-85785714D01*
X102861904Y-85833333D01*
X102052380Y-85833333D01*
X103052380Y-86833333D02*
X103052380Y-86261904D01*
X103052380Y-86547619D02*
X102052380Y-86547619D01*
X102195238Y-86452380D01*
X102290476Y-86357142D01*
X102338095Y-86261904D01*
X102385714Y-87690476D02*
X103052380Y-87690476D01*
X102004761Y-87452380D02*
X102719047Y-87214285D01*
X102719047Y-87833333D01*
X102052380Y-98761904D02*
X102861904Y-98761904D01*
X102957142Y-98809523D01*
X103004761Y-98857142D01*
X103052380Y-98952380D01*
X103052380Y-99142857D01*
X103004761Y-99238095D01*
X102957142Y-99285714D01*
X102861904Y-99333333D01*
X102052380Y-99333333D01*
X103052380Y-100333333D02*
X103052380Y-99761904D01*
X103052380Y-100047619D02*
X102052380Y-100047619D01*
X102195238Y-99952380D01*
X102290476Y-99857142D01*
X102338095Y-99761904D01*
X102052380Y-101190476D02*
X102052380Y-101000000D01*
X102100000Y-100904761D01*
X102147619Y-100857142D01*
X102290476Y-100761904D01*
X102480952Y-100714285D01*
X102861904Y-100714285D01*
X102957142Y-100761904D01*
X103004761Y-100809523D01*
X103052380Y-100904761D01*
X103052380Y-101095238D01*
X103004761Y-101190476D01*
X102957142Y-101238095D01*
X102861904Y-101285714D01*
X102623809Y-101285714D01*
X102528571Y-101238095D01*
X102480952Y-101190476D01*
X102433333Y-101095238D01*
X102433333Y-100904761D01*
X102480952Y-100809523D01*
X102528571Y-100761904D01*
X102623809Y-100714285D01*
X85552380Y-85261904D02*
X86361904Y-85261904D01*
X86457142Y-85309523D01*
X86504761Y-85357142D01*
X86552380Y-85452380D01*
X86552380Y-85642857D01*
X86504761Y-85738095D01*
X86457142Y-85785714D01*
X86361904Y-85833333D01*
X85552380Y-85833333D01*
X86552380Y-86833333D02*
X86552380Y-86261904D01*
X86552380Y-86547619D02*
X85552380Y-86547619D01*
X85695238Y-86452380D01*
X85790476Y-86357142D01*
X85838095Y-86261904D01*
X85552380Y-87166666D02*
X85552380Y-87833333D01*
X86552380Y-87404761D01*
X85552380Y-72261904D02*
X86361904Y-72261904D01*
X86457142Y-72309523D01*
X86504761Y-72357142D01*
X86552380Y-72452380D01*
X86552380Y-72642857D01*
X86504761Y-72738095D01*
X86457142Y-72785714D01*
X86361904Y-72833333D01*
X85552380Y-72833333D01*
X86552380Y-73833333D02*
X86552380Y-73261904D01*
X86552380Y-73547619D02*
X85552380Y-73547619D01*
X85695238Y-73452380D01*
X85790476Y-73357142D01*
X85838095Y-73261904D01*
X86552380Y-74309523D02*
X86552380Y-74500000D01*
X86504761Y-74595238D01*
X86457142Y-74642857D01*
X86314285Y-74738095D01*
X86123809Y-74785714D01*
X85742857Y-74785714D01*
X85647619Y-74738095D01*
X85600000Y-74690476D01*
X85552380Y-74595238D01*
X85552380Y-74404761D01*
X85600000Y-74309523D01*
X85647619Y-74261904D01*
X85742857Y-74214285D01*
X85980952Y-74214285D01*
X86076190Y-74261904D01*
X86123809Y-74309523D01*
X86171428Y-74404761D01*
X86171428Y-74595238D01*
X86123809Y-74690476D01*
X86076190Y-74738095D01*
X85980952Y-74785714D01*
X85552380Y-98761904D02*
X86361904Y-98761904D01*
X86457142Y-98809523D01*
X86504761Y-98857142D01*
X86552380Y-98952380D01*
X86552380Y-99142857D01*
X86504761Y-99238095D01*
X86457142Y-99285714D01*
X86361904Y-99333333D01*
X85552380Y-99333333D01*
X85647619Y-99761904D02*
X85600000Y-99809523D01*
X85552380Y-99904761D01*
X85552380Y-100142857D01*
X85600000Y-100238095D01*
X85647619Y-100285714D01*
X85742857Y-100333333D01*
X85838095Y-100333333D01*
X85980952Y-100285714D01*
X86552380Y-99714285D01*
X86552380Y-100333333D01*
X85552380Y-100952380D02*
X85552380Y-101047619D01*
X85600000Y-101142857D01*
X85647619Y-101190476D01*
X85742857Y-101238095D01*
X85933333Y-101285714D01*
X86171428Y-101285714D01*
X86361904Y-101238095D01*
X86457142Y-101190476D01*
X86504761Y-101142857D01*
X86552380Y-101047619D01*
X86552380Y-100952380D01*
X86504761Y-100857142D01*
X86457142Y-100809523D01*
X86361904Y-100761904D01*
X86171428Y-100714285D01*
X85933333Y-100714285D01*
X85742857Y-100761904D01*
X85647619Y-100809523D01*
X85600000Y-100857142D01*
X85552380Y-100952380D01*
X65893095Y-78057380D02*
X65893095Y-78866904D01*
X65845476Y-78962142D01*
X65797857Y-79009761D01*
X65702619Y-79057380D01*
X65512142Y-79057380D01*
X65416904Y-79009761D01*
X65369285Y-78962142D01*
X65321666Y-78866904D01*
X65321666Y-78057380D01*
X64416904Y-78390714D02*
X64416904Y-79057380D01*
X64655000Y-78009761D02*
X64893095Y-78724047D01*
X64274047Y-78724047D01*
X63702619Y-78057380D02*
X63607380Y-78057380D01*
X63512142Y-78105000D01*
X63464523Y-78152619D01*
X63416904Y-78247857D01*
X63369285Y-78438333D01*
X63369285Y-78676428D01*
X63416904Y-78866904D01*
X63464523Y-78962142D01*
X63512142Y-79009761D01*
X63607380Y-79057380D01*
X63702619Y-79057380D01*
X63797857Y-79009761D01*
X63845476Y-78962142D01*
X63893095Y-78866904D01*
X63940714Y-78676428D01*
X63940714Y-78438333D01*
X63893095Y-78247857D01*
X63845476Y-78152619D01*
X63797857Y-78105000D01*
X63702619Y-78057380D01*
X78238095Y-83352380D02*
X78238095Y-84161904D01*
X78190476Y-84257142D01*
X78142857Y-84304761D01*
X78047619Y-84352380D01*
X77857142Y-84352380D01*
X77761904Y-84304761D01*
X77714285Y-84257142D01*
X77666666Y-84161904D01*
X77666666Y-83352380D01*
X76761904Y-83685714D02*
X76761904Y-84352380D01*
X77000000Y-83304761D02*
X77238095Y-84019047D01*
X76619047Y-84019047D01*
X75714285Y-84352380D02*
X76285714Y-84352380D01*
X76000000Y-84352380D02*
X76000000Y-83352380D01*
X76095238Y-83495238D01*
X76190476Y-83590476D01*
X76285714Y-83638095D01*
X107142857Y-35537142D02*
X107190476Y-35584761D01*
X107333333Y-35632380D01*
X107428571Y-35632380D01*
X107571428Y-35584761D01*
X107666666Y-35489523D01*
X107714285Y-35394285D01*
X107761904Y-35203809D01*
X107761904Y-35060952D01*
X107714285Y-34870476D01*
X107666666Y-34775238D01*
X107571428Y-34680000D01*
X107428571Y-34632380D01*
X107333333Y-34632380D01*
X107190476Y-34680000D01*
X107142857Y-34727619D01*
X106190476Y-35632380D02*
X106761904Y-35632380D01*
X106476190Y-35632380D02*
X106476190Y-34632380D01*
X106571428Y-34775238D01*
X106666666Y-34870476D01*
X106761904Y-34918095D01*
X105238095Y-35632380D02*
X105809523Y-35632380D01*
X105523809Y-35632380D02*
X105523809Y-34632380D01*
X105619047Y-34775238D01*
X105714285Y-34870476D01*
X105809523Y-34918095D01*
X190357142Y-17857142D02*
X190404761Y-17809523D01*
X190452380Y-17666666D01*
X190452380Y-17571428D01*
X190404761Y-17428571D01*
X190309523Y-17333333D01*
X190214285Y-17285714D01*
X190023809Y-17238095D01*
X189880952Y-17238095D01*
X189690476Y-17285714D01*
X189595238Y-17333333D01*
X189500000Y-17428571D01*
X189452380Y-17571428D01*
X189452380Y-17666666D01*
X189500000Y-17809523D01*
X189547619Y-17857142D01*
X189452380Y-18761904D02*
X189452380Y-18285714D01*
X189928571Y-18238095D01*
X189880952Y-18285714D01*
X189833333Y-18380952D01*
X189833333Y-18619047D01*
X189880952Y-18714285D01*
X189928571Y-18761904D01*
X190023809Y-18809523D01*
X190261904Y-18809523D01*
X190357142Y-18761904D01*
X190404761Y-18714285D01*
X190452380Y-18619047D01*
X190452380Y-18380952D01*
X190404761Y-18285714D01*
X190357142Y-18238095D01*
X189452380Y-19666666D02*
X189452380Y-19476190D01*
X189500000Y-19380952D01*
X189547619Y-19333333D01*
X189690476Y-19238095D01*
X189880952Y-19190476D01*
X190261904Y-19190476D01*
X190357142Y-19238095D01*
X190404761Y-19285714D01*
X190452380Y-19380952D01*
X190452380Y-19571428D01*
X190404761Y-19666666D01*
X190357142Y-19714285D01*
X190261904Y-19761904D01*
X190023809Y-19761904D01*
X189928571Y-19714285D01*
X189880952Y-19666666D01*
X189833333Y-19571428D01*
X189833333Y-19380952D01*
X189880952Y-19285714D01*
X189928571Y-19238095D01*
X190023809Y-19190476D01*
X34142857Y-15857142D02*
X34190476Y-15904761D01*
X34333333Y-15952380D01*
X34428571Y-15952380D01*
X34571428Y-15904761D01*
X34666666Y-15809523D01*
X34714285Y-15714285D01*
X34761904Y-15523809D01*
X34761904Y-15380952D01*
X34714285Y-15190476D01*
X34666666Y-15095238D01*
X34571428Y-15000000D01*
X34428571Y-14952380D01*
X34333333Y-14952380D01*
X34190476Y-15000000D01*
X34142857Y-15047619D01*
X33238095Y-14952380D02*
X33714285Y-14952380D01*
X33761904Y-15428571D01*
X33714285Y-15380952D01*
X33619047Y-15333333D01*
X33380952Y-15333333D01*
X33285714Y-15380952D01*
X33238095Y-15428571D01*
X33190476Y-15523809D01*
X33190476Y-15761904D01*
X33238095Y-15857142D01*
X33285714Y-15904761D01*
X33380952Y-15952380D01*
X33619047Y-15952380D01*
X33714285Y-15904761D01*
X33761904Y-15857142D01*
X32238095Y-15952380D02*
X32809523Y-15952380D01*
X32523809Y-15952380D02*
X32523809Y-14952380D01*
X32619047Y-15095238D01*
X32714285Y-15190476D01*
X32809523Y-15238095D01*
M02*
