G04 #@! TF.GenerationSoftware,KiCad,Pcbnew,(5.1.8)-1*
G04 #@! TF.CreationDate,2021-04-14T20:49:20+02:00*
G04 #@! TF.ProjectId,Project_GCM,50726f6a-6563-4745-9f47-434d2e6b6963,V5.1*
G04 #@! TF.SameCoordinates,PX40d9900PY1e84800*
G04 #@! TF.FileFunction,Soldermask,Top*
G04 #@! TF.FilePolarity,Negative*
%FSLAX46Y46*%
G04 Gerber Fmt 4.6, Leading zero omitted, Abs format (unit mm)*
G04 Created by KiCad (PCBNEW (5.1.8)-1) date 2021-04-14 20:49:20*
%MOMM*%
%LPD*%
G01*
G04 APERTURE LIST*
%ADD10O,1.700000X1.700000*%
%ADD11R,1.700000X1.700000*%
%ADD12C,3.500000*%
%ADD13C,1.750000*%
%ADD14C,2.000000*%
%ADD15C,1.300000*%
%ADD16C,1.700000*%
%ADD17O,1.600000X1.600000*%
%ADD18R,1.600000X1.600000*%
%ADD19C,3.000000*%
%ADD20C,1.650000*%
%ADD21R,1.650000X1.650000*%
%ADD22R,0.900000X0.800000*%
%ADD23R,1.600000X0.300000*%
%ADD24C,1.600000*%
%ADD25R,1.530000X1.530000*%
%ADD26C,1.530000*%
G04 APERTURE END LIST*
G36*
G01*
X68500000Y-36840000D02*
X68500000Y-36540000D01*
G75*
G02*
X68650000Y-36390000I150000J0D01*
G01*
X70300000Y-36390000D01*
G75*
G02*
X70450000Y-36540000I0J-150000D01*
G01*
X70450000Y-36840000D01*
G75*
G02*
X70300000Y-36990000I-150000J0D01*
G01*
X68650000Y-36990000D01*
G75*
G02*
X68500000Y-36840000I0J150000D01*
G01*
G37*
G36*
G01*
X68500000Y-38110000D02*
X68500000Y-37810000D01*
G75*
G02*
X68650000Y-37660000I150000J0D01*
G01*
X70300000Y-37660000D01*
G75*
G02*
X70450000Y-37810000I0J-150000D01*
G01*
X70450000Y-38110000D01*
G75*
G02*
X70300000Y-38260000I-150000J0D01*
G01*
X68650000Y-38260000D01*
G75*
G02*
X68500000Y-38110000I0J150000D01*
G01*
G37*
G36*
G01*
X68500000Y-39380000D02*
X68500000Y-39080000D01*
G75*
G02*
X68650000Y-38930000I150000J0D01*
G01*
X70300000Y-38930000D01*
G75*
G02*
X70450000Y-39080000I0J-150000D01*
G01*
X70450000Y-39380000D01*
G75*
G02*
X70300000Y-39530000I-150000J0D01*
G01*
X68650000Y-39530000D01*
G75*
G02*
X68500000Y-39380000I0J150000D01*
G01*
G37*
G36*
G01*
X68500000Y-40650000D02*
X68500000Y-40350000D01*
G75*
G02*
X68650000Y-40200000I150000J0D01*
G01*
X70300000Y-40200000D01*
G75*
G02*
X70450000Y-40350000I0J-150000D01*
G01*
X70450000Y-40650000D01*
G75*
G02*
X70300000Y-40800000I-150000J0D01*
G01*
X68650000Y-40800000D01*
G75*
G02*
X68500000Y-40650000I0J150000D01*
G01*
G37*
G36*
G01*
X68500000Y-41920000D02*
X68500000Y-41620000D01*
G75*
G02*
X68650000Y-41470000I150000J0D01*
G01*
X70300000Y-41470000D01*
G75*
G02*
X70450000Y-41620000I0J-150000D01*
G01*
X70450000Y-41920000D01*
G75*
G02*
X70300000Y-42070000I-150000J0D01*
G01*
X68650000Y-42070000D01*
G75*
G02*
X68500000Y-41920000I0J150000D01*
G01*
G37*
G36*
G01*
X68500000Y-43190000D02*
X68500000Y-42890000D01*
G75*
G02*
X68650000Y-42740000I150000J0D01*
G01*
X70300000Y-42740000D01*
G75*
G02*
X70450000Y-42890000I0J-150000D01*
G01*
X70450000Y-43190000D01*
G75*
G02*
X70300000Y-43340000I-150000J0D01*
G01*
X68650000Y-43340000D01*
G75*
G02*
X68500000Y-43190000I0J150000D01*
G01*
G37*
G36*
G01*
X68500000Y-44460000D02*
X68500000Y-44160000D01*
G75*
G02*
X68650000Y-44010000I150000J0D01*
G01*
X70300000Y-44010000D01*
G75*
G02*
X70450000Y-44160000I0J-150000D01*
G01*
X70450000Y-44460000D01*
G75*
G02*
X70300000Y-44610000I-150000J0D01*
G01*
X68650000Y-44610000D01*
G75*
G02*
X68500000Y-44460000I0J150000D01*
G01*
G37*
G36*
G01*
X63550000Y-44460000D02*
X63550000Y-44160000D01*
G75*
G02*
X63700000Y-44010000I150000J0D01*
G01*
X65350000Y-44010000D01*
G75*
G02*
X65500000Y-44160000I0J-150000D01*
G01*
X65500000Y-44460000D01*
G75*
G02*
X65350000Y-44610000I-150000J0D01*
G01*
X63700000Y-44610000D01*
G75*
G02*
X63550000Y-44460000I0J150000D01*
G01*
G37*
G36*
G01*
X63550000Y-43190000D02*
X63550000Y-42890000D01*
G75*
G02*
X63700000Y-42740000I150000J0D01*
G01*
X65350000Y-42740000D01*
G75*
G02*
X65500000Y-42890000I0J-150000D01*
G01*
X65500000Y-43190000D01*
G75*
G02*
X65350000Y-43340000I-150000J0D01*
G01*
X63700000Y-43340000D01*
G75*
G02*
X63550000Y-43190000I0J150000D01*
G01*
G37*
G36*
G01*
X63550000Y-41920000D02*
X63550000Y-41620000D01*
G75*
G02*
X63700000Y-41470000I150000J0D01*
G01*
X65350000Y-41470000D01*
G75*
G02*
X65500000Y-41620000I0J-150000D01*
G01*
X65500000Y-41920000D01*
G75*
G02*
X65350000Y-42070000I-150000J0D01*
G01*
X63700000Y-42070000D01*
G75*
G02*
X63550000Y-41920000I0J150000D01*
G01*
G37*
G36*
G01*
X63550000Y-40650000D02*
X63550000Y-40350000D01*
G75*
G02*
X63700000Y-40200000I150000J0D01*
G01*
X65350000Y-40200000D01*
G75*
G02*
X65500000Y-40350000I0J-150000D01*
G01*
X65500000Y-40650000D01*
G75*
G02*
X65350000Y-40800000I-150000J0D01*
G01*
X63700000Y-40800000D01*
G75*
G02*
X63550000Y-40650000I0J150000D01*
G01*
G37*
G36*
G01*
X63550000Y-39380000D02*
X63550000Y-39080000D01*
G75*
G02*
X63700000Y-38930000I150000J0D01*
G01*
X65350000Y-38930000D01*
G75*
G02*
X65500000Y-39080000I0J-150000D01*
G01*
X65500000Y-39380000D01*
G75*
G02*
X65350000Y-39530000I-150000J0D01*
G01*
X63700000Y-39530000D01*
G75*
G02*
X63550000Y-39380000I0J150000D01*
G01*
G37*
G36*
G01*
X63550000Y-38110000D02*
X63550000Y-37810000D01*
G75*
G02*
X63700000Y-37660000I150000J0D01*
G01*
X65350000Y-37660000D01*
G75*
G02*
X65500000Y-37810000I0J-150000D01*
G01*
X65500000Y-38110000D01*
G75*
G02*
X65350000Y-38260000I-150000J0D01*
G01*
X63700000Y-38260000D01*
G75*
G02*
X63550000Y-38110000I0J150000D01*
G01*
G37*
G36*
G01*
X63550000Y-36840000D02*
X63550000Y-36540000D01*
G75*
G02*
X63700000Y-36390000I150000J0D01*
G01*
X65350000Y-36390000D01*
G75*
G02*
X65500000Y-36540000I0J-150000D01*
G01*
X65500000Y-36840000D01*
G75*
G02*
X65350000Y-36990000I-150000J0D01*
G01*
X63700000Y-36990000D01*
G75*
G02*
X63550000Y-36840000I0J150000D01*
G01*
G37*
D10*
X180920000Y-6100000D03*
X180920000Y-8640000D03*
X178380000Y-6100000D03*
X178380000Y-8640000D03*
X175840000Y-6100000D03*
X175840000Y-8640000D03*
X173300000Y-6100000D03*
X173300000Y-8640000D03*
X170760000Y-6100000D03*
X170760000Y-8640000D03*
X168220000Y-6100000D03*
X168220000Y-8640000D03*
X165680000Y-6100000D03*
X165680000Y-8640000D03*
X163140000Y-6100000D03*
X163140000Y-8640000D03*
X160600000Y-6100000D03*
X160600000Y-8640000D03*
X158060000Y-6100000D03*
X158060000Y-8640000D03*
X155520000Y-6100000D03*
X155520000Y-8640000D03*
X152980000Y-6100000D03*
X152980000Y-8640000D03*
X150440000Y-6100000D03*
X150440000Y-8640000D03*
X147900000Y-6100000D03*
X147900000Y-8640000D03*
X145360000Y-6100000D03*
X145360000Y-8640000D03*
X142820000Y-6100000D03*
X142820000Y-8640000D03*
X140280000Y-6100000D03*
X140280000Y-8640000D03*
X137740000Y-6100000D03*
X137740000Y-8640000D03*
X135200000Y-6100000D03*
X135200000Y-8640000D03*
X132660000Y-6100000D03*
X132660000Y-8640000D03*
X130120000Y-6100000D03*
D11*
X130120000Y-8640000D03*
D12*
X22320000Y-2920000D03*
X111220000Y-2920000D03*
D13*
X27400000Y-10540000D03*
X29940000Y-10540000D03*
X32480000Y-10540000D03*
X35020000Y-10540000D03*
X37560000Y-10540000D03*
X40100000Y-10540000D03*
X42640000Y-10540000D03*
X45180000Y-10540000D03*
X47720000Y-10540000D03*
X50260000Y-10540000D03*
X52800000Y-10540000D03*
X55340000Y-10540000D03*
X57880000Y-10540000D03*
X60420000Y-10540000D03*
X62960000Y-10540000D03*
X65500000Y-10540000D03*
X68040000Y-10540000D03*
X70580000Y-10540000D03*
X73120000Y-10540000D03*
X75660000Y-10540000D03*
X78200000Y-10540000D03*
X80740000Y-10540000D03*
X83280000Y-10540000D03*
X85820000Y-10540000D03*
X88360000Y-10540000D03*
X90900000Y-10540000D03*
X93440000Y-10540000D03*
X95980000Y-10540000D03*
X98520000Y-10540000D03*
X101060000Y-10540000D03*
X103600000Y-10540000D03*
X106140000Y-10540000D03*
X27400000Y-8000000D03*
X29940000Y-8000000D03*
X32480000Y-8000000D03*
X35020000Y-8000000D03*
X37560000Y-8000000D03*
X40100000Y-8000000D03*
X42640000Y-8000000D03*
X45180000Y-8000000D03*
X47720000Y-8000000D03*
X50260000Y-8000000D03*
X52800000Y-8000000D03*
X55340000Y-8000000D03*
X57880000Y-8000000D03*
X60420000Y-8000000D03*
X62960000Y-8000000D03*
X65500000Y-8000000D03*
X68040000Y-8000000D03*
X70580000Y-8000000D03*
X73120000Y-8000000D03*
X75660000Y-8000000D03*
X78200000Y-8000000D03*
X80740000Y-8000000D03*
X83280000Y-8000000D03*
X85820000Y-8000000D03*
X88360000Y-8000000D03*
X90900000Y-8000000D03*
X93440000Y-8000000D03*
X95980000Y-8000000D03*
X98520000Y-8000000D03*
X101060000Y-8000000D03*
X103600000Y-8000000D03*
X106140000Y-8000000D03*
X27400000Y-5460000D03*
X29940000Y-5460000D03*
X32480000Y-5460000D03*
X35020000Y-5460000D03*
X37560000Y-5460000D03*
X40100000Y-5460000D03*
X42640000Y-5460000D03*
X45180000Y-5460000D03*
X47720000Y-5460000D03*
X50260000Y-5460000D03*
X52800000Y-5460000D03*
X55340000Y-5460000D03*
X57880000Y-5460000D03*
X60420000Y-5460000D03*
X62960000Y-5460000D03*
X65500000Y-5460000D03*
X68040000Y-5460000D03*
X70580000Y-5460000D03*
X73120000Y-5460000D03*
X75660000Y-5460000D03*
X78200000Y-5460000D03*
X80740000Y-5460000D03*
X83280000Y-5460000D03*
X85820000Y-5460000D03*
X88360000Y-5460000D03*
X90900000Y-5460000D03*
X93440000Y-5460000D03*
X95980000Y-5460000D03*
X98520000Y-5460000D03*
X101060000Y-5460000D03*
X103600000Y-5460000D03*
X106140000Y-5460000D03*
D14*
X46190000Y-83400000D03*
X46190000Y-78540000D03*
X43650000Y-83400000D03*
X43650000Y-78540000D03*
X41110000Y-83400000D03*
X41110000Y-78540000D03*
X38570000Y-83400000D03*
X38570000Y-78540000D03*
X36030000Y-83400000D03*
X36030000Y-78540000D03*
X33490000Y-83400000D03*
X33490000Y-78540000D03*
X30950000Y-83400000D03*
X30950000Y-78540000D03*
X28410000Y-83400000D03*
X28410000Y-78540000D03*
X25870000Y-83400000D03*
X25870000Y-78540000D03*
X23330000Y-83400000D03*
X23330000Y-78540000D03*
X20790000Y-83400000D03*
X20790000Y-78540000D03*
X18250000Y-83400000D03*
X18250000Y-78540000D03*
X15710000Y-83400000D03*
X15710000Y-78540000D03*
X13170000Y-83400000D03*
X13170000Y-78540000D03*
X10640000Y-83400000D03*
X10630000Y-78540000D03*
X46190000Y-46400000D03*
X46190000Y-41540000D03*
X43650000Y-46400000D03*
X43650000Y-41540000D03*
X41110000Y-46400000D03*
X41110000Y-41540000D03*
X38570000Y-46400000D03*
X38570000Y-41540000D03*
X36030000Y-46400000D03*
X36030000Y-41540000D03*
X33490000Y-46400000D03*
X33490000Y-41540000D03*
X30950000Y-46400000D03*
X30950000Y-41540000D03*
X28410000Y-46400000D03*
X28410000Y-41540000D03*
X25870000Y-46400000D03*
X25870000Y-41540000D03*
X23330000Y-46400000D03*
X23330000Y-41540000D03*
X20790000Y-46400000D03*
X20790000Y-41540000D03*
X18250000Y-46400000D03*
X18250000Y-41540000D03*
X15710000Y-46400000D03*
X15710000Y-41540000D03*
X13170000Y-46400000D03*
X13170000Y-41540000D03*
X10640000Y-46400000D03*
X10630000Y-41540000D03*
G36*
G01*
X90950000Y-58475000D02*
X90950000Y-57525000D01*
G75*
G02*
X91200000Y-57275000I250000J0D01*
G01*
X91700000Y-57275000D01*
G75*
G02*
X91950000Y-57525000I0J-250000D01*
G01*
X91950000Y-58475000D01*
G75*
G02*
X91700000Y-58725000I-250000J0D01*
G01*
X91200000Y-58725000D01*
G75*
G02*
X90950000Y-58475000I0J250000D01*
G01*
G37*
G36*
G01*
X89050000Y-58475000D02*
X89050000Y-57525000D01*
G75*
G02*
X89300000Y-57275000I250000J0D01*
G01*
X89800000Y-57275000D01*
G75*
G02*
X90050000Y-57525000I0J-250000D01*
G01*
X90050000Y-58475000D01*
G75*
G02*
X89800000Y-58725000I-250000J0D01*
G01*
X89300000Y-58725000D01*
G75*
G02*
X89050000Y-58475000I0J250000D01*
G01*
G37*
G36*
G01*
X54950000Y-19975000D02*
X54950000Y-19025000D01*
G75*
G02*
X55200000Y-18775000I250000J0D01*
G01*
X55700000Y-18775000D01*
G75*
G02*
X55950000Y-19025000I0J-250000D01*
G01*
X55950000Y-19975000D01*
G75*
G02*
X55700000Y-20225000I-250000J0D01*
G01*
X55200000Y-20225000D01*
G75*
G02*
X54950000Y-19975000I0J250000D01*
G01*
G37*
G36*
G01*
X53050000Y-19975000D02*
X53050000Y-19025000D01*
G75*
G02*
X53300000Y-18775000I250000J0D01*
G01*
X53800000Y-18775000D01*
G75*
G02*
X54050000Y-19025000I0J-250000D01*
G01*
X54050000Y-19975000D01*
G75*
G02*
X53800000Y-20225000I-250000J0D01*
G01*
X53300000Y-20225000D01*
G75*
G02*
X53050000Y-19975000I0J250000D01*
G01*
G37*
G36*
G01*
X28550000Y-13025000D02*
X28550000Y-13975000D01*
G75*
G02*
X28300000Y-14225000I-250000J0D01*
G01*
X27800000Y-14225000D01*
G75*
G02*
X27550000Y-13975000I0J250000D01*
G01*
X27550000Y-13025000D01*
G75*
G02*
X27800000Y-12775000I250000J0D01*
G01*
X28300000Y-12775000D01*
G75*
G02*
X28550000Y-13025000I0J-250000D01*
G01*
G37*
G36*
G01*
X30450000Y-13025000D02*
X30450000Y-13975000D01*
G75*
G02*
X30200000Y-14225000I-250000J0D01*
G01*
X29700000Y-14225000D01*
G75*
G02*
X29450000Y-13975000I0J250000D01*
G01*
X29450000Y-13025000D01*
G75*
G02*
X29700000Y-12775000I250000J0D01*
G01*
X30200000Y-12775000D01*
G75*
G02*
X30450000Y-13025000I0J-250000D01*
G01*
G37*
G36*
G01*
X70050000Y-20525000D02*
X70050000Y-21475000D01*
G75*
G02*
X69800000Y-21725000I-250000J0D01*
G01*
X69300000Y-21725000D01*
G75*
G02*
X69050000Y-21475000I0J250000D01*
G01*
X69050000Y-20525000D01*
G75*
G02*
X69300000Y-20275000I250000J0D01*
G01*
X69800000Y-20275000D01*
G75*
G02*
X70050000Y-20525000I0J-250000D01*
G01*
G37*
G36*
G01*
X71950000Y-20525000D02*
X71950000Y-21475000D01*
G75*
G02*
X71700000Y-21725000I-250000J0D01*
G01*
X71200000Y-21725000D01*
G75*
G02*
X70950000Y-21475000I0J250000D01*
G01*
X70950000Y-20525000D01*
G75*
G02*
X71200000Y-20275000I250000J0D01*
G01*
X71700000Y-20275000D01*
G75*
G02*
X71950000Y-20525000I0J-250000D01*
G01*
G37*
G36*
G01*
X46550000Y-58525000D02*
X46550000Y-59475000D01*
G75*
G02*
X46300000Y-59725000I-250000J0D01*
G01*
X45800000Y-59725000D01*
G75*
G02*
X45550000Y-59475000I0J250000D01*
G01*
X45550000Y-58525000D01*
G75*
G02*
X45800000Y-58275000I250000J0D01*
G01*
X46300000Y-58275000D01*
G75*
G02*
X46550000Y-58525000I0J-250000D01*
G01*
G37*
G36*
G01*
X48450000Y-58525000D02*
X48450000Y-59475000D01*
G75*
G02*
X48200000Y-59725000I-250000J0D01*
G01*
X47700000Y-59725000D01*
G75*
G02*
X47450000Y-59475000I0J250000D01*
G01*
X47450000Y-58525000D01*
G75*
G02*
X47700000Y-58275000I250000J0D01*
G01*
X48200000Y-58275000D01*
G75*
G02*
X48450000Y-58525000I0J-250000D01*
G01*
G37*
G36*
G01*
X66450000Y-53975000D02*
X66450000Y-53025000D01*
G75*
G02*
X66700000Y-52775000I250000J0D01*
G01*
X67200000Y-52775000D01*
G75*
G02*
X67450000Y-53025000I0J-250000D01*
G01*
X67450000Y-53975000D01*
G75*
G02*
X67200000Y-54225000I-250000J0D01*
G01*
X66700000Y-54225000D01*
G75*
G02*
X66450000Y-53975000I0J250000D01*
G01*
G37*
G36*
G01*
X64550000Y-53975000D02*
X64550000Y-53025000D01*
G75*
G02*
X64800000Y-52775000I250000J0D01*
G01*
X65300000Y-52775000D01*
G75*
G02*
X65550000Y-53025000I0J-250000D01*
G01*
X65550000Y-53975000D01*
G75*
G02*
X65300000Y-54225000I-250000J0D01*
G01*
X64800000Y-54225000D01*
G75*
G02*
X64550000Y-53975000I0J250000D01*
G01*
G37*
D15*
X197340000Y-21750000D03*
D16*
X193500000Y-18000000D03*
X193500000Y-20500000D03*
X193500000Y-23000000D03*
X193500000Y-25500000D03*
X196000000Y-18000000D03*
X196000000Y-20500000D03*
X196000000Y-23000000D03*
G36*
G01*
X196850000Y-24900000D02*
X196850000Y-26100000D01*
G75*
G02*
X196600000Y-26350000I-250000J0D01*
G01*
X195400000Y-26350000D01*
G75*
G02*
X195150000Y-26100000I0J250000D01*
G01*
X195150000Y-24900000D01*
G75*
G02*
X195400000Y-24650000I250000J0D01*
G01*
X196600000Y-24650000D01*
G75*
G02*
X196850000Y-24900000I0J-250000D01*
G01*
G37*
G36*
G01*
X108549998Y-57900000D02*
X109450002Y-57900000D01*
G75*
G02*
X109700000Y-58149998I0J-249998D01*
G01*
X109700000Y-58675002D01*
G75*
G02*
X109450002Y-58925000I-249998J0D01*
G01*
X108549998Y-58925000D01*
G75*
G02*
X108300000Y-58675002I0J249998D01*
G01*
X108300000Y-58149998D01*
G75*
G02*
X108549998Y-57900000I249998J0D01*
G01*
G37*
G36*
G01*
X108549998Y-56075000D02*
X109450002Y-56075000D01*
G75*
G02*
X109700000Y-56324998I0J-249998D01*
G01*
X109700000Y-56850002D01*
G75*
G02*
X109450002Y-57100000I-249998J0D01*
G01*
X108549998Y-57100000D01*
G75*
G02*
X108300000Y-56850002I0J249998D01*
G01*
X108300000Y-56324998D01*
G75*
G02*
X108549998Y-56075000I249998J0D01*
G01*
G37*
G36*
G01*
X108549998Y-62900000D02*
X109450002Y-62900000D01*
G75*
G02*
X109700000Y-63149998I0J-249998D01*
G01*
X109700000Y-63675002D01*
G75*
G02*
X109450002Y-63925000I-249998J0D01*
G01*
X108549998Y-63925000D01*
G75*
G02*
X108300000Y-63675002I0J249998D01*
G01*
X108300000Y-63149998D01*
G75*
G02*
X108549998Y-62900000I249998J0D01*
G01*
G37*
G36*
G01*
X108549998Y-61075000D02*
X109450002Y-61075000D01*
G75*
G02*
X109700000Y-61324998I0J-249998D01*
G01*
X109700000Y-61850002D01*
G75*
G02*
X109450002Y-62100000I-249998J0D01*
G01*
X108549998Y-62100000D01*
G75*
G02*
X108300000Y-61850002I0J249998D01*
G01*
X108300000Y-61324998D01*
G75*
G02*
X108549998Y-61075000I249998J0D01*
G01*
G37*
G36*
G01*
X99049998Y-61900000D02*
X99950002Y-61900000D01*
G75*
G02*
X100200000Y-62149998I0J-249998D01*
G01*
X100200000Y-62675002D01*
G75*
G02*
X99950002Y-62925000I-249998J0D01*
G01*
X99049998Y-62925000D01*
G75*
G02*
X98800000Y-62675002I0J249998D01*
G01*
X98800000Y-62149998D01*
G75*
G02*
X99049998Y-61900000I249998J0D01*
G01*
G37*
G36*
G01*
X99049998Y-60075000D02*
X99950002Y-60075000D01*
G75*
G02*
X100200000Y-60324998I0J-249998D01*
G01*
X100200000Y-60850002D01*
G75*
G02*
X99950002Y-61100000I-249998J0D01*
G01*
X99049998Y-61100000D01*
G75*
G02*
X98800000Y-60850002I0J249998D01*
G01*
X98800000Y-60324998D01*
G75*
G02*
X99049998Y-60075000I249998J0D01*
G01*
G37*
D17*
X34180000Y-96000000D03*
X36720000Y-96000000D03*
X39260000Y-96000000D03*
X41800000Y-96000000D03*
X44340000Y-96000000D03*
X46880000Y-96000000D03*
X49420000Y-96000000D03*
X51960000Y-96000000D03*
D18*
X54500000Y-96000000D03*
D17*
X197000000Y-49180000D03*
X197000000Y-51720000D03*
X197000000Y-54260000D03*
X197000000Y-56800000D03*
X197000000Y-59340000D03*
X197000000Y-61880000D03*
X197000000Y-64420000D03*
X197000000Y-66960000D03*
D18*
X197000000Y-69500000D03*
D17*
X197000000Y-76180000D03*
X197000000Y-78720000D03*
X197000000Y-81260000D03*
X197000000Y-83800000D03*
X197000000Y-86340000D03*
X197000000Y-88880000D03*
X197000000Y-91420000D03*
X197000000Y-93960000D03*
D18*
X197000000Y-96500000D03*
G36*
G01*
X54625000Y-22435000D02*
X54625000Y-22135000D01*
G75*
G02*
X54775000Y-21985000I150000J0D01*
G01*
X56525000Y-21985000D01*
G75*
G02*
X56675000Y-22135000I0J-150000D01*
G01*
X56675000Y-22435000D01*
G75*
G02*
X56525000Y-22585000I-150000J0D01*
G01*
X54775000Y-22585000D01*
G75*
G02*
X54625000Y-22435000I0J150000D01*
G01*
G37*
G36*
G01*
X54625000Y-23705000D02*
X54625000Y-23405000D01*
G75*
G02*
X54775000Y-23255000I150000J0D01*
G01*
X56525000Y-23255000D01*
G75*
G02*
X56675000Y-23405000I0J-150000D01*
G01*
X56675000Y-23705000D01*
G75*
G02*
X56525000Y-23855000I-150000J0D01*
G01*
X54775000Y-23855000D01*
G75*
G02*
X54625000Y-23705000I0J150000D01*
G01*
G37*
G36*
G01*
X54625000Y-24975000D02*
X54625000Y-24675000D01*
G75*
G02*
X54775000Y-24525000I150000J0D01*
G01*
X56525000Y-24525000D01*
G75*
G02*
X56675000Y-24675000I0J-150000D01*
G01*
X56675000Y-24975000D01*
G75*
G02*
X56525000Y-25125000I-150000J0D01*
G01*
X54775000Y-25125000D01*
G75*
G02*
X54625000Y-24975000I0J150000D01*
G01*
G37*
G36*
G01*
X54625000Y-26245000D02*
X54625000Y-25945000D01*
G75*
G02*
X54775000Y-25795000I150000J0D01*
G01*
X56525000Y-25795000D01*
G75*
G02*
X56675000Y-25945000I0J-150000D01*
G01*
X56675000Y-26245000D01*
G75*
G02*
X56525000Y-26395000I-150000J0D01*
G01*
X54775000Y-26395000D01*
G75*
G02*
X54625000Y-26245000I0J150000D01*
G01*
G37*
G36*
G01*
X54625000Y-27515000D02*
X54625000Y-27215000D01*
G75*
G02*
X54775000Y-27065000I150000J0D01*
G01*
X56525000Y-27065000D01*
G75*
G02*
X56675000Y-27215000I0J-150000D01*
G01*
X56675000Y-27515000D01*
G75*
G02*
X56525000Y-27665000I-150000J0D01*
G01*
X54775000Y-27665000D01*
G75*
G02*
X54625000Y-27515000I0J150000D01*
G01*
G37*
G36*
G01*
X54625000Y-28785000D02*
X54625000Y-28485000D01*
G75*
G02*
X54775000Y-28335000I150000J0D01*
G01*
X56525000Y-28335000D01*
G75*
G02*
X56675000Y-28485000I0J-150000D01*
G01*
X56675000Y-28785000D01*
G75*
G02*
X56525000Y-28935000I-150000J0D01*
G01*
X54775000Y-28935000D01*
G75*
G02*
X54625000Y-28785000I0J150000D01*
G01*
G37*
G36*
G01*
X54625000Y-30055000D02*
X54625000Y-29755000D01*
G75*
G02*
X54775000Y-29605000I150000J0D01*
G01*
X56525000Y-29605000D01*
G75*
G02*
X56675000Y-29755000I0J-150000D01*
G01*
X56675000Y-30055000D01*
G75*
G02*
X56525000Y-30205000I-150000J0D01*
G01*
X54775000Y-30205000D01*
G75*
G02*
X54625000Y-30055000I0J150000D01*
G01*
G37*
G36*
G01*
X54625000Y-31325000D02*
X54625000Y-31025000D01*
G75*
G02*
X54775000Y-30875000I150000J0D01*
G01*
X56525000Y-30875000D01*
G75*
G02*
X56675000Y-31025000I0J-150000D01*
G01*
X56675000Y-31325000D01*
G75*
G02*
X56525000Y-31475000I-150000J0D01*
G01*
X54775000Y-31475000D01*
G75*
G02*
X54625000Y-31325000I0J150000D01*
G01*
G37*
G36*
G01*
X54625000Y-32595000D02*
X54625000Y-32295000D01*
G75*
G02*
X54775000Y-32145000I150000J0D01*
G01*
X56525000Y-32145000D01*
G75*
G02*
X56675000Y-32295000I0J-150000D01*
G01*
X56675000Y-32595000D01*
G75*
G02*
X56525000Y-32745000I-150000J0D01*
G01*
X54775000Y-32745000D01*
G75*
G02*
X54625000Y-32595000I0J150000D01*
G01*
G37*
G36*
G01*
X54625000Y-33865000D02*
X54625000Y-33565000D01*
G75*
G02*
X54775000Y-33415000I150000J0D01*
G01*
X56525000Y-33415000D01*
G75*
G02*
X56675000Y-33565000I0J-150000D01*
G01*
X56675000Y-33865000D01*
G75*
G02*
X56525000Y-34015000I-150000J0D01*
G01*
X54775000Y-34015000D01*
G75*
G02*
X54625000Y-33865000I0J150000D01*
G01*
G37*
G36*
G01*
X45325000Y-33865000D02*
X45325000Y-33565000D01*
G75*
G02*
X45475000Y-33415000I150000J0D01*
G01*
X47225000Y-33415000D01*
G75*
G02*
X47375000Y-33565000I0J-150000D01*
G01*
X47375000Y-33865000D01*
G75*
G02*
X47225000Y-34015000I-150000J0D01*
G01*
X45475000Y-34015000D01*
G75*
G02*
X45325000Y-33865000I0J150000D01*
G01*
G37*
G36*
G01*
X45325000Y-32595000D02*
X45325000Y-32295000D01*
G75*
G02*
X45475000Y-32145000I150000J0D01*
G01*
X47225000Y-32145000D01*
G75*
G02*
X47375000Y-32295000I0J-150000D01*
G01*
X47375000Y-32595000D01*
G75*
G02*
X47225000Y-32745000I-150000J0D01*
G01*
X45475000Y-32745000D01*
G75*
G02*
X45325000Y-32595000I0J150000D01*
G01*
G37*
G36*
G01*
X45325000Y-31325000D02*
X45325000Y-31025000D01*
G75*
G02*
X45475000Y-30875000I150000J0D01*
G01*
X47225000Y-30875000D01*
G75*
G02*
X47375000Y-31025000I0J-150000D01*
G01*
X47375000Y-31325000D01*
G75*
G02*
X47225000Y-31475000I-150000J0D01*
G01*
X45475000Y-31475000D01*
G75*
G02*
X45325000Y-31325000I0J150000D01*
G01*
G37*
G36*
G01*
X45325000Y-30055000D02*
X45325000Y-29755000D01*
G75*
G02*
X45475000Y-29605000I150000J0D01*
G01*
X47225000Y-29605000D01*
G75*
G02*
X47375000Y-29755000I0J-150000D01*
G01*
X47375000Y-30055000D01*
G75*
G02*
X47225000Y-30205000I-150000J0D01*
G01*
X45475000Y-30205000D01*
G75*
G02*
X45325000Y-30055000I0J150000D01*
G01*
G37*
G36*
G01*
X45325000Y-28785000D02*
X45325000Y-28485000D01*
G75*
G02*
X45475000Y-28335000I150000J0D01*
G01*
X47225000Y-28335000D01*
G75*
G02*
X47375000Y-28485000I0J-150000D01*
G01*
X47375000Y-28785000D01*
G75*
G02*
X47225000Y-28935000I-150000J0D01*
G01*
X45475000Y-28935000D01*
G75*
G02*
X45325000Y-28785000I0J150000D01*
G01*
G37*
G36*
G01*
X45325000Y-27515000D02*
X45325000Y-27215000D01*
G75*
G02*
X45475000Y-27065000I150000J0D01*
G01*
X47225000Y-27065000D01*
G75*
G02*
X47375000Y-27215000I0J-150000D01*
G01*
X47375000Y-27515000D01*
G75*
G02*
X47225000Y-27665000I-150000J0D01*
G01*
X45475000Y-27665000D01*
G75*
G02*
X45325000Y-27515000I0J150000D01*
G01*
G37*
G36*
G01*
X45325000Y-26245000D02*
X45325000Y-25945000D01*
G75*
G02*
X45475000Y-25795000I150000J0D01*
G01*
X47225000Y-25795000D01*
G75*
G02*
X47375000Y-25945000I0J-150000D01*
G01*
X47375000Y-26245000D01*
G75*
G02*
X47225000Y-26395000I-150000J0D01*
G01*
X45475000Y-26395000D01*
G75*
G02*
X45325000Y-26245000I0J150000D01*
G01*
G37*
G36*
G01*
X45325000Y-24975000D02*
X45325000Y-24675000D01*
G75*
G02*
X45475000Y-24525000I150000J0D01*
G01*
X47225000Y-24525000D01*
G75*
G02*
X47375000Y-24675000I0J-150000D01*
G01*
X47375000Y-24975000D01*
G75*
G02*
X47225000Y-25125000I-150000J0D01*
G01*
X45475000Y-25125000D01*
G75*
G02*
X45325000Y-24975000I0J150000D01*
G01*
G37*
G36*
G01*
X45325000Y-23705000D02*
X45325000Y-23405000D01*
G75*
G02*
X45475000Y-23255000I150000J0D01*
G01*
X47225000Y-23255000D01*
G75*
G02*
X47375000Y-23405000I0J-150000D01*
G01*
X47375000Y-23705000D01*
G75*
G02*
X47225000Y-23855000I-150000J0D01*
G01*
X45475000Y-23855000D01*
G75*
G02*
X45325000Y-23705000I0J150000D01*
G01*
G37*
G36*
G01*
X45325000Y-22435000D02*
X45325000Y-22135000D01*
G75*
G02*
X45475000Y-21985000I150000J0D01*
G01*
X47225000Y-21985000D01*
G75*
G02*
X47375000Y-22135000I0J-150000D01*
G01*
X47375000Y-22435000D01*
G75*
G02*
X47225000Y-22585000I-150000J0D01*
G01*
X45475000Y-22585000D01*
G75*
G02*
X45325000Y-22435000I0J150000D01*
G01*
G37*
G36*
G01*
X110800000Y-76475000D02*
X111100000Y-76475000D01*
G75*
G02*
X111250000Y-76625000I0J-150000D01*
G01*
X111250000Y-77650000D01*
G75*
G02*
X111100000Y-77800000I-150000J0D01*
G01*
X110800000Y-77800000D01*
G75*
G02*
X110650000Y-77650000I0J150000D01*
G01*
X110650000Y-76625000D01*
G75*
G02*
X110800000Y-76475000I150000J0D01*
G01*
G37*
G36*
G01*
X108900000Y-76475000D02*
X109200000Y-76475000D01*
G75*
G02*
X109350000Y-76625000I0J-150000D01*
G01*
X109350000Y-77650000D01*
G75*
G02*
X109200000Y-77800000I-150000J0D01*
G01*
X108900000Y-77800000D01*
G75*
G02*
X108750000Y-77650000I0J150000D01*
G01*
X108750000Y-76625000D01*
G75*
G02*
X108900000Y-76475000I150000J0D01*
G01*
G37*
G36*
G01*
X108900000Y-74200000D02*
X109200000Y-74200000D01*
G75*
G02*
X109350000Y-74350000I0J-150000D01*
G01*
X109350000Y-75375000D01*
G75*
G02*
X109200000Y-75525000I-150000J0D01*
G01*
X108900000Y-75525000D01*
G75*
G02*
X108750000Y-75375000I0J150000D01*
G01*
X108750000Y-74350000D01*
G75*
G02*
X108900000Y-74200000I150000J0D01*
G01*
G37*
G36*
G01*
X109850000Y-74200000D02*
X110150000Y-74200000D01*
G75*
G02*
X110300000Y-74350000I0J-150000D01*
G01*
X110300000Y-75375000D01*
G75*
G02*
X110150000Y-75525000I-150000J0D01*
G01*
X109850000Y-75525000D01*
G75*
G02*
X109700000Y-75375000I0J150000D01*
G01*
X109700000Y-74350000D01*
G75*
G02*
X109850000Y-74200000I150000J0D01*
G01*
G37*
G36*
G01*
X110800000Y-74200000D02*
X111100000Y-74200000D01*
G75*
G02*
X111250000Y-74350000I0J-150000D01*
G01*
X111250000Y-75375000D01*
G75*
G02*
X111100000Y-75525000I-150000J0D01*
G01*
X110800000Y-75525000D01*
G75*
G02*
X110650000Y-75375000I0J150000D01*
G01*
X110650000Y-74350000D01*
G75*
G02*
X110800000Y-74200000I150000J0D01*
G01*
G37*
G36*
G01*
X72675000Y-63975000D02*
X72825000Y-63975000D01*
G75*
G02*
X72900000Y-64050000I0J-75000D01*
G01*
X72900000Y-65375000D01*
G75*
G02*
X72825000Y-65450000I-75000J0D01*
G01*
X72675000Y-65450000D01*
G75*
G02*
X72600000Y-65375000I0J75000D01*
G01*
X72600000Y-64050000D01*
G75*
G02*
X72675000Y-63975000I75000J0D01*
G01*
G37*
G36*
G01*
X72175000Y-63975000D02*
X72325000Y-63975000D01*
G75*
G02*
X72400000Y-64050000I0J-75000D01*
G01*
X72400000Y-65375000D01*
G75*
G02*
X72325000Y-65450000I-75000J0D01*
G01*
X72175000Y-65450000D01*
G75*
G02*
X72100000Y-65375000I0J75000D01*
G01*
X72100000Y-64050000D01*
G75*
G02*
X72175000Y-63975000I75000J0D01*
G01*
G37*
G36*
G01*
X71675000Y-63975000D02*
X71825000Y-63975000D01*
G75*
G02*
X71900000Y-64050000I0J-75000D01*
G01*
X71900000Y-65375000D01*
G75*
G02*
X71825000Y-65450000I-75000J0D01*
G01*
X71675000Y-65450000D01*
G75*
G02*
X71600000Y-65375000I0J75000D01*
G01*
X71600000Y-64050000D01*
G75*
G02*
X71675000Y-63975000I75000J0D01*
G01*
G37*
G36*
G01*
X71175000Y-63975000D02*
X71325000Y-63975000D01*
G75*
G02*
X71400000Y-64050000I0J-75000D01*
G01*
X71400000Y-65375000D01*
G75*
G02*
X71325000Y-65450000I-75000J0D01*
G01*
X71175000Y-65450000D01*
G75*
G02*
X71100000Y-65375000I0J75000D01*
G01*
X71100000Y-64050000D01*
G75*
G02*
X71175000Y-63975000I75000J0D01*
G01*
G37*
G36*
G01*
X70675000Y-63975000D02*
X70825000Y-63975000D01*
G75*
G02*
X70900000Y-64050000I0J-75000D01*
G01*
X70900000Y-65375000D01*
G75*
G02*
X70825000Y-65450000I-75000J0D01*
G01*
X70675000Y-65450000D01*
G75*
G02*
X70600000Y-65375000I0J75000D01*
G01*
X70600000Y-64050000D01*
G75*
G02*
X70675000Y-63975000I75000J0D01*
G01*
G37*
G36*
G01*
X70175000Y-63975000D02*
X70325000Y-63975000D01*
G75*
G02*
X70400000Y-64050000I0J-75000D01*
G01*
X70400000Y-65375000D01*
G75*
G02*
X70325000Y-65450000I-75000J0D01*
G01*
X70175000Y-65450000D01*
G75*
G02*
X70100000Y-65375000I0J75000D01*
G01*
X70100000Y-64050000D01*
G75*
G02*
X70175000Y-63975000I75000J0D01*
G01*
G37*
G36*
G01*
X69675000Y-63975000D02*
X69825000Y-63975000D01*
G75*
G02*
X69900000Y-64050000I0J-75000D01*
G01*
X69900000Y-65375000D01*
G75*
G02*
X69825000Y-65450000I-75000J0D01*
G01*
X69675000Y-65450000D01*
G75*
G02*
X69600000Y-65375000I0J75000D01*
G01*
X69600000Y-64050000D01*
G75*
G02*
X69675000Y-63975000I75000J0D01*
G01*
G37*
G36*
G01*
X69175000Y-63975000D02*
X69325000Y-63975000D01*
G75*
G02*
X69400000Y-64050000I0J-75000D01*
G01*
X69400000Y-65375000D01*
G75*
G02*
X69325000Y-65450000I-75000J0D01*
G01*
X69175000Y-65450000D01*
G75*
G02*
X69100000Y-65375000I0J75000D01*
G01*
X69100000Y-64050000D01*
G75*
G02*
X69175000Y-63975000I75000J0D01*
G01*
G37*
G36*
G01*
X68675000Y-63975000D02*
X68825000Y-63975000D01*
G75*
G02*
X68900000Y-64050000I0J-75000D01*
G01*
X68900000Y-65375000D01*
G75*
G02*
X68825000Y-65450000I-75000J0D01*
G01*
X68675000Y-65450000D01*
G75*
G02*
X68600000Y-65375000I0J75000D01*
G01*
X68600000Y-64050000D01*
G75*
G02*
X68675000Y-63975000I75000J0D01*
G01*
G37*
G36*
G01*
X68175000Y-63975000D02*
X68325000Y-63975000D01*
G75*
G02*
X68400000Y-64050000I0J-75000D01*
G01*
X68400000Y-65375000D01*
G75*
G02*
X68325000Y-65450000I-75000J0D01*
G01*
X68175000Y-65450000D01*
G75*
G02*
X68100000Y-65375000I0J75000D01*
G01*
X68100000Y-64050000D01*
G75*
G02*
X68175000Y-63975000I75000J0D01*
G01*
G37*
G36*
G01*
X67675000Y-63975000D02*
X67825000Y-63975000D01*
G75*
G02*
X67900000Y-64050000I0J-75000D01*
G01*
X67900000Y-65375000D01*
G75*
G02*
X67825000Y-65450000I-75000J0D01*
G01*
X67675000Y-65450000D01*
G75*
G02*
X67600000Y-65375000I0J75000D01*
G01*
X67600000Y-64050000D01*
G75*
G02*
X67675000Y-63975000I75000J0D01*
G01*
G37*
G36*
G01*
X67175000Y-63975000D02*
X67325000Y-63975000D01*
G75*
G02*
X67400000Y-64050000I0J-75000D01*
G01*
X67400000Y-65375000D01*
G75*
G02*
X67325000Y-65450000I-75000J0D01*
G01*
X67175000Y-65450000D01*
G75*
G02*
X67100000Y-65375000I0J75000D01*
G01*
X67100000Y-64050000D01*
G75*
G02*
X67175000Y-63975000I75000J0D01*
G01*
G37*
G36*
G01*
X66675000Y-63975000D02*
X66825000Y-63975000D01*
G75*
G02*
X66900000Y-64050000I0J-75000D01*
G01*
X66900000Y-65375000D01*
G75*
G02*
X66825000Y-65450000I-75000J0D01*
G01*
X66675000Y-65450000D01*
G75*
G02*
X66600000Y-65375000I0J75000D01*
G01*
X66600000Y-64050000D01*
G75*
G02*
X66675000Y-63975000I75000J0D01*
G01*
G37*
G36*
G01*
X66175000Y-63975000D02*
X66325000Y-63975000D01*
G75*
G02*
X66400000Y-64050000I0J-75000D01*
G01*
X66400000Y-65375000D01*
G75*
G02*
X66325000Y-65450000I-75000J0D01*
G01*
X66175000Y-65450000D01*
G75*
G02*
X66100000Y-65375000I0J75000D01*
G01*
X66100000Y-64050000D01*
G75*
G02*
X66175000Y-63975000I75000J0D01*
G01*
G37*
G36*
G01*
X65675000Y-63975000D02*
X65825000Y-63975000D01*
G75*
G02*
X65900000Y-64050000I0J-75000D01*
G01*
X65900000Y-65375000D01*
G75*
G02*
X65825000Y-65450000I-75000J0D01*
G01*
X65675000Y-65450000D01*
G75*
G02*
X65600000Y-65375000I0J75000D01*
G01*
X65600000Y-64050000D01*
G75*
G02*
X65675000Y-63975000I75000J0D01*
G01*
G37*
G36*
G01*
X65175000Y-63975000D02*
X65325000Y-63975000D01*
G75*
G02*
X65400000Y-64050000I0J-75000D01*
G01*
X65400000Y-65375000D01*
G75*
G02*
X65325000Y-65450000I-75000J0D01*
G01*
X65175000Y-65450000D01*
G75*
G02*
X65100000Y-65375000I0J75000D01*
G01*
X65100000Y-64050000D01*
G75*
G02*
X65175000Y-63975000I75000J0D01*
G01*
G37*
G36*
G01*
X64675000Y-63975000D02*
X64825000Y-63975000D01*
G75*
G02*
X64900000Y-64050000I0J-75000D01*
G01*
X64900000Y-65375000D01*
G75*
G02*
X64825000Y-65450000I-75000J0D01*
G01*
X64675000Y-65450000D01*
G75*
G02*
X64600000Y-65375000I0J75000D01*
G01*
X64600000Y-64050000D01*
G75*
G02*
X64675000Y-63975000I75000J0D01*
G01*
G37*
G36*
G01*
X64175000Y-63975000D02*
X64325000Y-63975000D01*
G75*
G02*
X64400000Y-64050000I0J-75000D01*
G01*
X64400000Y-65375000D01*
G75*
G02*
X64325000Y-65450000I-75000J0D01*
G01*
X64175000Y-65450000D01*
G75*
G02*
X64100000Y-65375000I0J75000D01*
G01*
X64100000Y-64050000D01*
G75*
G02*
X64175000Y-63975000I75000J0D01*
G01*
G37*
G36*
G01*
X63675000Y-63975000D02*
X63825000Y-63975000D01*
G75*
G02*
X63900000Y-64050000I0J-75000D01*
G01*
X63900000Y-65375000D01*
G75*
G02*
X63825000Y-65450000I-75000J0D01*
G01*
X63675000Y-65450000D01*
G75*
G02*
X63600000Y-65375000I0J75000D01*
G01*
X63600000Y-64050000D01*
G75*
G02*
X63675000Y-63975000I75000J0D01*
G01*
G37*
G36*
G01*
X63175000Y-63975000D02*
X63325000Y-63975000D01*
G75*
G02*
X63400000Y-64050000I0J-75000D01*
G01*
X63400000Y-65375000D01*
G75*
G02*
X63325000Y-65450000I-75000J0D01*
G01*
X63175000Y-65450000D01*
G75*
G02*
X63100000Y-65375000I0J75000D01*
G01*
X63100000Y-64050000D01*
G75*
G02*
X63175000Y-63975000I75000J0D01*
G01*
G37*
G36*
G01*
X62675000Y-63975000D02*
X62825000Y-63975000D01*
G75*
G02*
X62900000Y-64050000I0J-75000D01*
G01*
X62900000Y-65375000D01*
G75*
G02*
X62825000Y-65450000I-75000J0D01*
G01*
X62675000Y-65450000D01*
G75*
G02*
X62600000Y-65375000I0J75000D01*
G01*
X62600000Y-64050000D01*
G75*
G02*
X62675000Y-63975000I75000J0D01*
G01*
G37*
G36*
G01*
X62175000Y-63975000D02*
X62325000Y-63975000D01*
G75*
G02*
X62400000Y-64050000I0J-75000D01*
G01*
X62400000Y-65375000D01*
G75*
G02*
X62325000Y-65450000I-75000J0D01*
G01*
X62175000Y-65450000D01*
G75*
G02*
X62100000Y-65375000I0J75000D01*
G01*
X62100000Y-64050000D01*
G75*
G02*
X62175000Y-63975000I75000J0D01*
G01*
G37*
G36*
G01*
X61675000Y-63975000D02*
X61825000Y-63975000D01*
G75*
G02*
X61900000Y-64050000I0J-75000D01*
G01*
X61900000Y-65375000D01*
G75*
G02*
X61825000Y-65450000I-75000J0D01*
G01*
X61675000Y-65450000D01*
G75*
G02*
X61600000Y-65375000I0J75000D01*
G01*
X61600000Y-64050000D01*
G75*
G02*
X61675000Y-63975000I75000J0D01*
G01*
G37*
G36*
G01*
X61175000Y-63975000D02*
X61325000Y-63975000D01*
G75*
G02*
X61400000Y-64050000I0J-75000D01*
G01*
X61400000Y-65375000D01*
G75*
G02*
X61325000Y-65450000I-75000J0D01*
G01*
X61175000Y-65450000D01*
G75*
G02*
X61100000Y-65375000I0J75000D01*
G01*
X61100000Y-64050000D01*
G75*
G02*
X61175000Y-63975000I75000J0D01*
G01*
G37*
G36*
G01*
X60675000Y-63975000D02*
X60825000Y-63975000D01*
G75*
G02*
X60900000Y-64050000I0J-75000D01*
G01*
X60900000Y-65375000D01*
G75*
G02*
X60825000Y-65450000I-75000J0D01*
G01*
X60675000Y-65450000D01*
G75*
G02*
X60600000Y-65375000I0J75000D01*
G01*
X60600000Y-64050000D01*
G75*
G02*
X60675000Y-63975000I75000J0D01*
G01*
G37*
G36*
G01*
X60175000Y-63975000D02*
X60325000Y-63975000D01*
G75*
G02*
X60400000Y-64050000I0J-75000D01*
G01*
X60400000Y-65375000D01*
G75*
G02*
X60325000Y-65450000I-75000J0D01*
G01*
X60175000Y-65450000D01*
G75*
G02*
X60100000Y-65375000I0J75000D01*
G01*
X60100000Y-64050000D01*
G75*
G02*
X60175000Y-63975000I75000J0D01*
G01*
G37*
G36*
G01*
X59675000Y-63975000D02*
X59825000Y-63975000D01*
G75*
G02*
X59900000Y-64050000I0J-75000D01*
G01*
X59900000Y-65375000D01*
G75*
G02*
X59825000Y-65450000I-75000J0D01*
G01*
X59675000Y-65450000D01*
G75*
G02*
X59600000Y-65375000I0J75000D01*
G01*
X59600000Y-64050000D01*
G75*
G02*
X59675000Y-63975000I75000J0D01*
G01*
G37*
G36*
G01*
X59175000Y-63975000D02*
X59325000Y-63975000D01*
G75*
G02*
X59400000Y-64050000I0J-75000D01*
G01*
X59400000Y-65375000D01*
G75*
G02*
X59325000Y-65450000I-75000J0D01*
G01*
X59175000Y-65450000D01*
G75*
G02*
X59100000Y-65375000I0J75000D01*
G01*
X59100000Y-64050000D01*
G75*
G02*
X59175000Y-63975000I75000J0D01*
G01*
G37*
G36*
G01*
X59175000Y-56550000D02*
X59325000Y-56550000D01*
G75*
G02*
X59400000Y-56625000I0J-75000D01*
G01*
X59400000Y-57950000D01*
G75*
G02*
X59325000Y-58025000I-75000J0D01*
G01*
X59175000Y-58025000D01*
G75*
G02*
X59100000Y-57950000I0J75000D01*
G01*
X59100000Y-56625000D01*
G75*
G02*
X59175000Y-56550000I75000J0D01*
G01*
G37*
G36*
G01*
X59675000Y-56550000D02*
X59825000Y-56550000D01*
G75*
G02*
X59900000Y-56625000I0J-75000D01*
G01*
X59900000Y-57950000D01*
G75*
G02*
X59825000Y-58025000I-75000J0D01*
G01*
X59675000Y-58025000D01*
G75*
G02*
X59600000Y-57950000I0J75000D01*
G01*
X59600000Y-56625000D01*
G75*
G02*
X59675000Y-56550000I75000J0D01*
G01*
G37*
G36*
G01*
X60175000Y-56550000D02*
X60325000Y-56550000D01*
G75*
G02*
X60400000Y-56625000I0J-75000D01*
G01*
X60400000Y-57950000D01*
G75*
G02*
X60325000Y-58025000I-75000J0D01*
G01*
X60175000Y-58025000D01*
G75*
G02*
X60100000Y-57950000I0J75000D01*
G01*
X60100000Y-56625000D01*
G75*
G02*
X60175000Y-56550000I75000J0D01*
G01*
G37*
G36*
G01*
X60675000Y-56550000D02*
X60825000Y-56550000D01*
G75*
G02*
X60900000Y-56625000I0J-75000D01*
G01*
X60900000Y-57950000D01*
G75*
G02*
X60825000Y-58025000I-75000J0D01*
G01*
X60675000Y-58025000D01*
G75*
G02*
X60600000Y-57950000I0J75000D01*
G01*
X60600000Y-56625000D01*
G75*
G02*
X60675000Y-56550000I75000J0D01*
G01*
G37*
G36*
G01*
X61175000Y-56550000D02*
X61325000Y-56550000D01*
G75*
G02*
X61400000Y-56625000I0J-75000D01*
G01*
X61400000Y-57950000D01*
G75*
G02*
X61325000Y-58025000I-75000J0D01*
G01*
X61175000Y-58025000D01*
G75*
G02*
X61100000Y-57950000I0J75000D01*
G01*
X61100000Y-56625000D01*
G75*
G02*
X61175000Y-56550000I75000J0D01*
G01*
G37*
G36*
G01*
X61675000Y-56550000D02*
X61825000Y-56550000D01*
G75*
G02*
X61900000Y-56625000I0J-75000D01*
G01*
X61900000Y-57950000D01*
G75*
G02*
X61825000Y-58025000I-75000J0D01*
G01*
X61675000Y-58025000D01*
G75*
G02*
X61600000Y-57950000I0J75000D01*
G01*
X61600000Y-56625000D01*
G75*
G02*
X61675000Y-56550000I75000J0D01*
G01*
G37*
G36*
G01*
X62175000Y-56550000D02*
X62325000Y-56550000D01*
G75*
G02*
X62400000Y-56625000I0J-75000D01*
G01*
X62400000Y-57950000D01*
G75*
G02*
X62325000Y-58025000I-75000J0D01*
G01*
X62175000Y-58025000D01*
G75*
G02*
X62100000Y-57950000I0J75000D01*
G01*
X62100000Y-56625000D01*
G75*
G02*
X62175000Y-56550000I75000J0D01*
G01*
G37*
G36*
G01*
X62675000Y-56550000D02*
X62825000Y-56550000D01*
G75*
G02*
X62900000Y-56625000I0J-75000D01*
G01*
X62900000Y-57950000D01*
G75*
G02*
X62825000Y-58025000I-75000J0D01*
G01*
X62675000Y-58025000D01*
G75*
G02*
X62600000Y-57950000I0J75000D01*
G01*
X62600000Y-56625000D01*
G75*
G02*
X62675000Y-56550000I75000J0D01*
G01*
G37*
G36*
G01*
X63175000Y-56550000D02*
X63325000Y-56550000D01*
G75*
G02*
X63400000Y-56625000I0J-75000D01*
G01*
X63400000Y-57950000D01*
G75*
G02*
X63325000Y-58025000I-75000J0D01*
G01*
X63175000Y-58025000D01*
G75*
G02*
X63100000Y-57950000I0J75000D01*
G01*
X63100000Y-56625000D01*
G75*
G02*
X63175000Y-56550000I75000J0D01*
G01*
G37*
G36*
G01*
X63675000Y-56550000D02*
X63825000Y-56550000D01*
G75*
G02*
X63900000Y-56625000I0J-75000D01*
G01*
X63900000Y-57950000D01*
G75*
G02*
X63825000Y-58025000I-75000J0D01*
G01*
X63675000Y-58025000D01*
G75*
G02*
X63600000Y-57950000I0J75000D01*
G01*
X63600000Y-56625000D01*
G75*
G02*
X63675000Y-56550000I75000J0D01*
G01*
G37*
G36*
G01*
X64175000Y-56550000D02*
X64325000Y-56550000D01*
G75*
G02*
X64400000Y-56625000I0J-75000D01*
G01*
X64400000Y-57950000D01*
G75*
G02*
X64325000Y-58025000I-75000J0D01*
G01*
X64175000Y-58025000D01*
G75*
G02*
X64100000Y-57950000I0J75000D01*
G01*
X64100000Y-56625000D01*
G75*
G02*
X64175000Y-56550000I75000J0D01*
G01*
G37*
G36*
G01*
X64675000Y-56550000D02*
X64825000Y-56550000D01*
G75*
G02*
X64900000Y-56625000I0J-75000D01*
G01*
X64900000Y-57950000D01*
G75*
G02*
X64825000Y-58025000I-75000J0D01*
G01*
X64675000Y-58025000D01*
G75*
G02*
X64600000Y-57950000I0J75000D01*
G01*
X64600000Y-56625000D01*
G75*
G02*
X64675000Y-56550000I75000J0D01*
G01*
G37*
G36*
G01*
X65175000Y-56550000D02*
X65325000Y-56550000D01*
G75*
G02*
X65400000Y-56625000I0J-75000D01*
G01*
X65400000Y-57950000D01*
G75*
G02*
X65325000Y-58025000I-75000J0D01*
G01*
X65175000Y-58025000D01*
G75*
G02*
X65100000Y-57950000I0J75000D01*
G01*
X65100000Y-56625000D01*
G75*
G02*
X65175000Y-56550000I75000J0D01*
G01*
G37*
G36*
G01*
X65675000Y-56550000D02*
X65825000Y-56550000D01*
G75*
G02*
X65900000Y-56625000I0J-75000D01*
G01*
X65900000Y-57950000D01*
G75*
G02*
X65825000Y-58025000I-75000J0D01*
G01*
X65675000Y-58025000D01*
G75*
G02*
X65600000Y-57950000I0J75000D01*
G01*
X65600000Y-56625000D01*
G75*
G02*
X65675000Y-56550000I75000J0D01*
G01*
G37*
G36*
G01*
X66175000Y-56550000D02*
X66325000Y-56550000D01*
G75*
G02*
X66400000Y-56625000I0J-75000D01*
G01*
X66400000Y-57950000D01*
G75*
G02*
X66325000Y-58025000I-75000J0D01*
G01*
X66175000Y-58025000D01*
G75*
G02*
X66100000Y-57950000I0J75000D01*
G01*
X66100000Y-56625000D01*
G75*
G02*
X66175000Y-56550000I75000J0D01*
G01*
G37*
G36*
G01*
X66675000Y-56550000D02*
X66825000Y-56550000D01*
G75*
G02*
X66900000Y-56625000I0J-75000D01*
G01*
X66900000Y-57950000D01*
G75*
G02*
X66825000Y-58025000I-75000J0D01*
G01*
X66675000Y-58025000D01*
G75*
G02*
X66600000Y-57950000I0J75000D01*
G01*
X66600000Y-56625000D01*
G75*
G02*
X66675000Y-56550000I75000J0D01*
G01*
G37*
G36*
G01*
X67175000Y-56550000D02*
X67325000Y-56550000D01*
G75*
G02*
X67400000Y-56625000I0J-75000D01*
G01*
X67400000Y-57950000D01*
G75*
G02*
X67325000Y-58025000I-75000J0D01*
G01*
X67175000Y-58025000D01*
G75*
G02*
X67100000Y-57950000I0J75000D01*
G01*
X67100000Y-56625000D01*
G75*
G02*
X67175000Y-56550000I75000J0D01*
G01*
G37*
G36*
G01*
X67675000Y-56550000D02*
X67825000Y-56550000D01*
G75*
G02*
X67900000Y-56625000I0J-75000D01*
G01*
X67900000Y-57950000D01*
G75*
G02*
X67825000Y-58025000I-75000J0D01*
G01*
X67675000Y-58025000D01*
G75*
G02*
X67600000Y-57950000I0J75000D01*
G01*
X67600000Y-56625000D01*
G75*
G02*
X67675000Y-56550000I75000J0D01*
G01*
G37*
G36*
G01*
X68175000Y-56550000D02*
X68325000Y-56550000D01*
G75*
G02*
X68400000Y-56625000I0J-75000D01*
G01*
X68400000Y-57950000D01*
G75*
G02*
X68325000Y-58025000I-75000J0D01*
G01*
X68175000Y-58025000D01*
G75*
G02*
X68100000Y-57950000I0J75000D01*
G01*
X68100000Y-56625000D01*
G75*
G02*
X68175000Y-56550000I75000J0D01*
G01*
G37*
G36*
G01*
X68675000Y-56550000D02*
X68825000Y-56550000D01*
G75*
G02*
X68900000Y-56625000I0J-75000D01*
G01*
X68900000Y-57950000D01*
G75*
G02*
X68825000Y-58025000I-75000J0D01*
G01*
X68675000Y-58025000D01*
G75*
G02*
X68600000Y-57950000I0J75000D01*
G01*
X68600000Y-56625000D01*
G75*
G02*
X68675000Y-56550000I75000J0D01*
G01*
G37*
G36*
G01*
X69175000Y-56550000D02*
X69325000Y-56550000D01*
G75*
G02*
X69400000Y-56625000I0J-75000D01*
G01*
X69400000Y-57950000D01*
G75*
G02*
X69325000Y-58025000I-75000J0D01*
G01*
X69175000Y-58025000D01*
G75*
G02*
X69100000Y-57950000I0J75000D01*
G01*
X69100000Y-56625000D01*
G75*
G02*
X69175000Y-56550000I75000J0D01*
G01*
G37*
G36*
G01*
X69675000Y-56550000D02*
X69825000Y-56550000D01*
G75*
G02*
X69900000Y-56625000I0J-75000D01*
G01*
X69900000Y-57950000D01*
G75*
G02*
X69825000Y-58025000I-75000J0D01*
G01*
X69675000Y-58025000D01*
G75*
G02*
X69600000Y-57950000I0J75000D01*
G01*
X69600000Y-56625000D01*
G75*
G02*
X69675000Y-56550000I75000J0D01*
G01*
G37*
G36*
G01*
X70175000Y-56550000D02*
X70325000Y-56550000D01*
G75*
G02*
X70400000Y-56625000I0J-75000D01*
G01*
X70400000Y-57950000D01*
G75*
G02*
X70325000Y-58025000I-75000J0D01*
G01*
X70175000Y-58025000D01*
G75*
G02*
X70100000Y-57950000I0J75000D01*
G01*
X70100000Y-56625000D01*
G75*
G02*
X70175000Y-56550000I75000J0D01*
G01*
G37*
G36*
G01*
X70675000Y-56550000D02*
X70825000Y-56550000D01*
G75*
G02*
X70900000Y-56625000I0J-75000D01*
G01*
X70900000Y-57950000D01*
G75*
G02*
X70825000Y-58025000I-75000J0D01*
G01*
X70675000Y-58025000D01*
G75*
G02*
X70600000Y-57950000I0J75000D01*
G01*
X70600000Y-56625000D01*
G75*
G02*
X70675000Y-56550000I75000J0D01*
G01*
G37*
G36*
G01*
X71175000Y-56550000D02*
X71325000Y-56550000D01*
G75*
G02*
X71400000Y-56625000I0J-75000D01*
G01*
X71400000Y-57950000D01*
G75*
G02*
X71325000Y-58025000I-75000J0D01*
G01*
X71175000Y-58025000D01*
G75*
G02*
X71100000Y-57950000I0J75000D01*
G01*
X71100000Y-56625000D01*
G75*
G02*
X71175000Y-56550000I75000J0D01*
G01*
G37*
G36*
G01*
X71675000Y-56550000D02*
X71825000Y-56550000D01*
G75*
G02*
X71900000Y-56625000I0J-75000D01*
G01*
X71900000Y-57950000D01*
G75*
G02*
X71825000Y-58025000I-75000J0D01*
G01*
X71675000Y-58025000D01*
G75*
G02*
X71600000Y-57950000I0J75000D01*
G01*
X71600000Y-56625000D01*
G75*
G02*
X71675000Y-56550000I75000J0D01*
G01*
G37*
G36*
G01*
X72175000Y-56550000D02*
X72325000Y-56550000D01*
G75*
G02*
X72400000Y-56625000I0J-75000D01*
G01*
X72400000Y-57950000D01*
G75*
G02*
X72325000Y-58025000I-75000J0D01*
G01*
X72175000Y-58025000D01*
G75*
G02*
X72100000Y-57950000I0J75000D01*
G01*
X72100000Y-56625000D01*
G75*
G02*
X72175000Y-56550000I75000J0D01*
G01*
G37*
G36*
G01*
X72675000Y-56550000D02*
X72825000Y-56550000D01*
G75*
G02*
X72900000Y-56625000I0J-75000D01*
G01*
X72900000Y-57950000D01*
G75*
G02*
X72825000Y-58025000I-75000J0D01*
G01*
X72675000Y-58025000D01*
G75*
G02*
X72600000Y-57950000I0J75000D01*
G01*
X72600000Y-56625000D01*
G75*
G02*
X72675000Y-56550000I75000J0D01*
G01*
G37*
G36*
G01*
X70050000Y-34025000D02*
X70050000Y-34975000D01*
G75*
G02*
X69800000Y-35225000I-250000J0D01*
G01*
X69300000Y-35225000D01*
G75*
G02*
X69050000Y-34975000I0J250000D01*
G01*
X69050000Y-34025000D01*
G75*
G02*
X69300000Y-33775000I250000J0D01*
G01*
X69800000Y-33775000D01*
G75*
G02*
X70050000Y-34025000I0J-250000D01*
G01*
G37*
G36*
G01*
X71950000Y-34025000D02*
X71950000Y-34975000D01*
G75*
G02*
X71700000Y-35225000I-250000J0D01*
G01*
X71200000Y-35225000D01*
G75*
G02*
X70950000Y-34975000I0J250000D01*
G01*
X70950000Y-34025000D01*
G75*
G02*
X71200000Y-33775000I250000J0D01*
G01*
X71700000Y-33775000D01*
G75*
G02*
X71950000Y-34025000I0J-250000D01*
G01*
G37*
G36*
G01*
X82550000Y-19525000D02*
X82550000Y-20475000D01*
G75*
G02*
X82300000Y-20725000I-250000J0D01*
G01*
X81800000Y-20725000D01*
G75*
G02*
X81550000Y-20475000I0J250000D01*
G01*
X81550000Y-19525000D01*
G75*
G02*
X81800000Y-19275000I250000J0D01*
G01*
X82300000Y-19275000D01*
G75*
G02*
X82550000Y-19525000I0J-250000D01*
G01*
G37*
G36*
G01*
X84450000Y-19525000D02*
X84450000Y-20475000D01*
G75*
G02*
X84200000Y-20725000I-250000J0D01*
G01*
X83700000Y-20725000D01*
G75*
G02*
X83450000Y-20475000I0J250000D01*
G01*
X83450000Y-19525000D01*
G75*
G02*
X83700000Y-19275000I250000J0D01*
G01*
X84200000Y-19275000D01*
G75*
G02*
X84450000Y-19525000I0J-250000D01*
G01*
G37*
G36*
G01*
X82550000Y-34025000D02*
X82550000Y-34975000D01*
G75*
G02*
X82300000Y-35225000I-250000J0D01*
G01*
X81800000Y-35225000D01*
G75*
G02*
X81550000Y-34975000I0J250000D01*
G01*
X81550000Y-34025000D01*
G75*
G02*
X81800000Y-33775000I250000J0D01*
G01*
X82300000Y-33775000D01*
G75*
G02*
X82550000Y-34025000I0J-250000D01*
G01*
G37*
G36*
G01*
X84450000Y-34025000D02*
X84450000Y-34975000D01*
G75*
G02*
X84200000Y-35225000I-250000J0D01*
G01*
X83700000Y-35225000D01*
G75*
G02*
X83450000Y-34975000I0J250000D01*
G01*
X83450000Y-34025000D01*
G75*
G02*
X83700000Y-33775000I250000J0D01*
G01*
X84200000Y-33775000D01*
G75*
G02*
X84450000Y-34025000I0J-250000D01*
G01*
G37*
G36*
G01*
X94550000Y-26525000D02*
X94550000Y-27475000D01*
G75*
G02*
X94300000Y-27725000I-250000J0D01*
G01*
X93800000Y-27725000D01*
G75*
G02*
X93550000Y-27475000I0J250000D01*
G01*
X93550000Y-26525000D01*
G75*
G02*
X93800000Y-26275000I250000J0D01*
G01*
X94300000Y-26275000D01*
G75*
G02*
X94550000Y-26525000I0J-250000D01*
G01*
G37*
G36*
G01*
X96450000Y-26525000D02*
X96450000Y-27475000D01*
G75*
G02*
X96200000Y-27725000I-250000J0D01*
G01*
X95700000Y-27725000D01*
G75*
G02*
X95450000Y-27475000I0J250000D01*
G01*
X95450000Y-26525000D01*
G75*
G02*
X95700000Y-26275000I250000J0D01*
G01*
X96200000Y-26275000D01*
G75*
G02*
X96450000Y-26525000I0J-250000D01*
G01*
G37*
G36*
G01*
X130950000Y-22975000D02*
X130950000Y-22025000D01*
G75*
G02*
X131200000Y-21775000I250000J0D01*
G01*
X131700000Y-21775000D01*
G75*
G02*
X131950000Y-22025000I0J-250000D01*
G01*
X131950000Y-22975000D01*
G75*
G02*
X131700000Y-23225000I-250000J0D01*
G01*
X131200000Y-23225000D01*
G75*
G02*
X130950000Y-22975000I0J250000D01*
G01*
G37*
G36*
G01*
X129050000Y-22975000D02*
X129050000Y-22025000D01*
G75*
G02*
X129300000Y-21775000I250000J0D01*
G01*
X129800000Y-21775000D01*
G75*
G02*
X130050000Y-22025000I0J-250000D01*
G01*
X130050000Y-22975000D01*
G75*
G02*
X129800000Y-23225000I-250000J0D01*
G01*
X129300000Y-23225000D01*
G75*
G02*
X129050000Y-22975000I0J250000D01*
G01*
G37*
G36*
G01*
X145550000Y-18025000D02*
X145550000Y-18975000D01*
G75*
G02*
X145300000Y-19225000I-250000J0D01*
G01*
X144800000Y-19225000D01*
G75*
G02*
X144550000Y-18975000I0J250000D01*
G01*
X144550000Y-18025000D01*
G75*
G02*
X144800000Y-17775000I250000J0D01*
G01*
X145300000Y-17775000D01*
G75*
G02*
X145550000Y-18025000I0J-250000D01*
G01*
G37*
G36*
G01*
X147450000Y-18025000D02*
X147450000Y-18975000D01*
G75*
G02*
X147200000Y-19225000I-250000J0D01*
G01*
X146700000Y-19225000D01*
G75*
G02*
X146450000Y-18975000I0J250000D01*
G01*
X146450000Y-18025000D01*
G75*
G02*
X146700000Y-17775000I250000J0D01*
G01*
X147200000Y-17775000D01*
G75*
G02*
X147450000Y-18025000I0J-250000D01*
G01*
G37*
G36*
G01*
X145550000Y-33525000D02*
X145550000Y-34475000D01*
G75*
G02*
X145300000Y-34725000I-250000J0D01*
G01*
X144800000Y-34725000D01*
G75*
G02*
X144550000Y-34475000I0J250000D01*
G01*
X144550000Y-33525000D01*
G75*
G02*
X144800000Y-33275000I250000J0D01*
G01*
X145300000Y-33275000D01*
G75*
G02*
X145550000Y-33525000I0J-250000D01*
G01*
G37*
G36*
G01*
X147450000Y-33525000D02*
X147450000Y-34475000D01*
G75*
G02*
X147200000Y-34725000I-250000J0D01*
G01*
X146700000Y-34725000D01*
G75*
G02*
X146450000Y-34475000I0J250000D01*
G01*
X146450000Y-33525000D01*
G75*
G02*
X146700000Y-33275000I250000J0D01*
G01*
X147200000Y-33275000D01*
G75*
G02*
X147450000Y-33525000I0J-250000D01*
G01*
G37*
G36*
G01*
X158550000Y-17025000D02*
X158550000Y-17975000D01*
G75*
G02*
X158300000Y-18225000I-250000J0D01*
G01*
X157800000Y-18225000D01*
G75*
G02*
X157550000Y-17975000I0J250000D01*
G01*
X157550000Y-17025000D01*
G75*
G02*
X157800000Y-16775000I250000J0D01*
G01*
X158300000Y-16775000D01*
G75*
G02*
X158550000Y-17025000I0J-250000D01*
G01*
G37*
G36*
G01*
X160450000Y-17025000D02*
X160450000Y-17975000D01*
G75*
G02*
X160200000Y-18225000I-250000J0D01*
G01*
X159700000Y-18225000D01*
G75*
G02*
X159450000Y-17975000I0J250000D01*
G01*
X159450000Y-17025000D01*
G75*
G02*
X159700000Y-16775000I250000J0D01*
G01*
X160200000Y-16775000D01*
G75*
G02*
X160450000Y-17025000I0J-250000D01*
G01*
G37*
G36*
G01*
X158550000Y-33525000D02*
X158550000Y-34475000D01*
G75*
G02*
X158300000Y-34725000I-250000J0D01*
G01*
X157800000Y-34725000D01*
G75*
G02*
X157550000Y-34475000I0J250000D01*
G01*
X157550000Y-33525000D01*
G75*
G02*
X157800000Y-33275000I250000J0D01*
G01*
X158300000Y-33275000D01*
G75*
G02*
X158550000Y-33525000I0J-250000D01*
G01*
G37*
G36*
G01*
X160450000Y-33525000D02*
X160450000Y-34475000D01*
G75*
G02*
X160200000Y-34725000I-250000J0D01*
G01*
X159700000Y-34725000D01*
G75*
G02*
X159450000Y-34475000I0J250000D01*
G01*
X159450000Y-33525000D01*
G75*
G02*
X159700000Y-33275000I250000J0D01*
G01*
X160200000Y-33275000D01*
G75*
G02*
X160450000Y-33525000I0J-250000D01*
G01*
G37*
G36*
G01*
X169550000Y-25525000D02*
X169550000Y-26475000D01*
G75*
G02*
X169300000Y-26725000I-250000J0D01*
G01*
X168800000Y-26725000D01*
G75*
G02*
X168550000Y-26475000I0J250000D01*
G01*
X168550000Y-25525000D01*
G75*
G02*
X168800000Y-25275000I250000J0D01*
G01*
X169300000Y-25275000D01*
G75*
G02*
X169550000Y-25525000I0J-250000D01*
G01*
G37*
G36*
G01*
X171450000Y-25525000D02*
X171450000Y-26475000D01*
G75*
G02*
X171200000Y-26725000I-250000J0D01*
G01*
X170700000Y-26725000D01*
G75*
G02*
X170450000Y-26475000I0J250000D01*
G01*
X170450000Y-25525000D01*
G75*
G02*
X170700000Y-25275000I250000J0D01*
G01*
X171200000Y-25275000D01*
G75*
G02*
X171450000Y-25525000I0J-250000D01*
G01*
G37*
G36*
G01*
X68450000Y-77975000D02*
X68450000Y-77025000D01*
G75*
G02*
X68700000Y-76775000I250000J0D01*
G01*
X69200000Y-76775000D01*
G75*
G02*
X69450000Y-77025000I0J-250000D01*
G01*
X69450000Y-77975000D01*
G75*
G02*
X69200000Y-78225000I-250000J0D01*
G01*
X68700000Y-78225000D01*
G75*
G02*
X68450000Y-77975000I0J250000D01*
G01*
G37*
G36*
G01*
X66550000Y-77975000D02*
X66550000Y-77025000D01*
G75*
G02*
X66800000Y-76775000I250000J0D01*
G01*
X67300000Y-76775000D01*
G75*
G02*
X67550000Y-77025000I0J-250000D01*
G01*
X67550000Y-77975000D01*
G75*
G02*
X67300000Y-78225000I-250000J0D01*
G01*
X66800000Y-78225000D01*
G75*
G02*
X66550000Y-77975000I0J250000D01*
G01*
G37*
G36*
G01*
X81450000Y-77975000D02*
X81450000Y-77025000D01*
G75*
G02*
X81700000Y-76775000I250000J0D01*
G01*
X82200000Y-76775000D01*
G75*
G02*
X82450000Y-77025000I0J-250000D01*
G01*
X82450000Y-77975000D01*
G75*
G02*
X82200000Y-78225000I-250000J0D01*
G01*
X81700000Y-78225000D01*
G75*
G02*
X81450000Y-77975000I0J250000D01*
G01*
G37*
G36*
G01*
X79550000Y-77975000D02*
X79550000Y-77025000D01*
G75*
G02*
X79800000Y-76775000I250000J0D01*
G01*
X80300000Y-76775000D01*
G75*
G02*
X80550000Y-77025000I0J-250000D01*
G01*
X80550000Y-77975000D01*
G75*
G02*
X80300000Y-78225000I-250000J0D01*
G01*
X79800000Y-78225000D01*
G75*
G02*
X79550000Y-77975000I0J250000D01*
G01*
G37*
G36*
G01*
X94450000Y-77975000D02*
X94450000Y-77025000D01*
G75*
G02*
X94700000Y-76775000I250000J0D01*
G01*
X95200000Y-76775000D01*
G75*
G02*
X95450000Y-77025000I0J-250000D01*
G01*
X95450000Y-77975000D01*
G75*
G02*
X95200000Y-78225000I-250000J0D01*
G01*
X94700000Y-78225000D01*
G75*
G02*
X94450000Y-77975000I0J250000D01*
G01*
G37*
G36*
G01*
X92550000Y-77975000D02*
X92550000Y-77025000D01*
G75*
G02*
X92800000Y-76775000I250000J0D01*
G01*
X93300000Y-76775000D01*
G75*
G02*
X93550000Y-77025000I0J-250000D01*
G01*
X93550000Y-77975000D01*
G75*
G02*
X93300000Y-78225000I-250000J0D01*
G01*
X92800000Y-78225000D01*
G75*
G02*
X92550000Y-77975000I0J250000D01*
G01*
G37*
D19*
X5000000Y-5000000D03*
X198000000Y-5000000D03*
X5000000Y-111000000D03*
X198000000Y-111000000D03*
D20*
X182149000Y-60740000D03*
X187000000Y-60740000D03*
X182149000Y-63280000D03*
X187000000Y-63280000D03*
X182149000Y-65820000D03*
X187000000Y-65820000D03*
X182149000Y-68360000D03*
X187000000Y-68360000D03*
X182149000Y-70900000D03*
X187000000Y-70900000D03*
X182149000Y-73440000D03*
X187000000Y-73440000D03*
X182149000Y-75980000D03*
X187000000Y-75980000D03*
X182149000Y-78520000D03*
X187000000Y-78520000D03*
X182149000Y-81060000D03*
X187000000Y-81060000D03*
X182149000Y-83600000D03*
X187000000Y-83600000D03*
X182149000Y-86140000D03*
X187000000Y-86140000D03*
X182149000Y-88680000D03*
X187000000Y-88680000D03*
X182149000Y-91220000D03*
X187000000Y-91220000D03*
X182149000Y-93760000D03*
X187000000Y-93760000D03*
X182149000Y-96300000D03*
X187000000Y-96300000D03*
X182149000Y-98840000D03*
X187000000Y-98840000D03*
X182149000Y-101380000D03*
X187000000Y-101380000D03*
X182149000Y-103920000D03*
X187000000Y-103920000D03*
X182149000Y-106460000D03*
X187000000Y-106460000D03*
X182149000Y-109000000D03*
D21*
X187000000Y-109000000D03*
D20*
X142149000Y-60740000D03*
X147000000Y-60740000D03*
X142149000Y-63280000D03*
X147000000Y-63280000D03*
X142149000Y-65820000D03*
X147000000Y-65820000D03*
X142149000Y-68360000D03*
X147000000Y-68360000D03*
X142149000Y-70900000D03*
X147000000Y-70900000D03*
X142149000Y-73440000D03*
X147000000Y-73440000D03*
X142149000Y-75980000D03*
X147000000Y-75980000D03*
X142149000Y-78520000D03*
X147000000Y-78520000D03*
X142149000Y-81060000D03*
X147000000Y-81060000D03*
X142149000Y-83600000D03*
X147000000Y-83600000D03*
X142149000Y-86140000D03*
X147000000Y-86140000D03*
X142149000Y-88680000D03*
X147000000Y-88680000D03*
X142149000Y-91220000D03*
X147000000Y-91220000D03*
X142149000Y-93760000D03*
X147000000Y-93760000D03*
X142149000Y-96300000D03*
X147000000Y-96300000D03*
X142149000Y-98840000D03*
X147000000Y-98840000D03*
X142149000Y-101380000D03*
X147000000Y-101380000D03*
X142149000Y-103920000D03*
X147000000Y-103920000D03*
X142149000Y-106460000D03*
X147000000Y-106460000D03*
X142149000Y-109000000D03*
D21*
X147000000Y-109000000D03*
D20*
X162149000Y-60740000D03*
X167000000Y-60740000D03*
X162149000Y-63280000D03*
X167000000Y-63280000D03*
X162149000Y-65820000D03*
X167000000Y-65820000D03*
X162149000Y-68360000D03*
X167000000Y-68360000D03*
X162149000Y-70900000D03*
X167000000Y-70900000D03*
X162149000Y-73440000D03*
X167000000Y-73440000D03*
X162149000Y-75980000D03*
X167000000Y-75980000D03*
X162149000Y-78520000D03*
X167000000Y-78520000D03*
X162149000Y-81060000D03*
X167000000Y-81060000D03*
X162149000Y-83600000D03*
X167000000Y-83600000D03*
X162149000Y-86140000D03*
X167000000Y-86140000D03*
X162149000Y-88680000D03*
X167000000Y-88680000D03*
X162149000Y-91220000D03*
X167000000Y-91220000D03*
X162149000Y-93760000D03*
X167000000Y-93760000D03*
X162149000Y-96300000D03*
X167000000Y-96300000D03*
X162149000Y-98840000D03*
X167000000Y-98840000D03*
X162149000Y-101380000D03*
X167000000Y-101380000D03*
X162149000Y-103920000D03*
X167000000Y-103920000D03*
X162149000Y-106460000D03*
X167000000Y-106460000D03*
X162149000Y-109000000D03*
D21*
X167000000Y-109000000D03*
D20*
X122149000Y-60740000D03*
X127000000Y-60740000D03*
X122149000Y-63280000D03*
X127000000Y-63280000D03*
X122149000Y-65820000D03*
X127000000Y-65820000D03*
X122149000Y-68360000D03*
X127000000Y-68360000D03*
X122149000Y-70900000D03*
X127000000Y-70900000D03*
X122149000Y-73440000D03*
X127000000Y-73440000D03*
X122149000Y-75980000D03*
X127000000Y-75980000D03*
X122149000Y-78520000D03*
X127000000Y-78520000D03*
X122149000Y-81060000D03*
X127000000Y-81060000D03*
X122149000Y-83600000D03*
X127000000Y-83600000D03*
X122149000Y-86140000D03*
X127000000Y-86140000D03*
X122149000Y-88680000D03*
X127000000Y-88680000D03*
X122149000Y-91220000D03*
X127000000Y-91220000D03*
X122149000Y-93760000D03*
X127000000Y-93760000D03*
X122149000Y-96300000D03*
X127000000Y-96300000D03*
X122149000Y-98840000D03*
X127000000Y-98840000D03*
X122149000Y-101380000D03*
X127000000Y-101380000D03*
X122149000Y-103920000D03*
X127000000Y-103920000D03*
X122149000Y-106460000D03*
X127000000Y-106460000D03*
X122149000Y-109000000D03*
D21*
X127000000Y-109000000D03*
D22*
X89500000Y-55000000D03*
X91500000Y-54050000D03*
X91500000Y-55950000D03*
G36*
G01*
X103475000Y-57200000D02*
X103475000Y-56900000D01*
G75*
G02*
X103625000Y-56750000I150000J0D01*
G01*
X104650000Y-56750000D01*
G75*
G02*
X104800000Y-56900000I0J-150000D01*
G01*
X104800000Y-57200000D01*
G75*
G02*
X104650000Y-57350000I-150000J0D01*
G01*
X103625000Y-57350000D01*
G75*
G02*
X103475000Y-57200000I0J150000D01*
G01*
G37*
G36*
G01*
X103475000Y-58150000D02*
X103475000Y-57850000D01*
G75*
G02*
X103625000Y-57700000I150000J0D01*
G01*
X104650000Y-57700000D01*
G75*
G02*
X104800000Y-57850000I0J-150000D01*
G01*
X104800000Y-58150000D01*
G75*
G02*
X104650000Y-58300000I-150000J0D01*
G01*
X103625000Y-58300000D01*
G75*
G02*
X103475000Y-58150000I0J150000D01*
G01*
G37*
G36*
G01*
X103475000Y-59100000D02*
X103475000Y-58800000D01*
G75*
G02*
X103625000Y-58650000I150000J0D01*
G01*
X104650000Y-58650000D01*
G75*
G02*
X104800000Y-58800000I0J-150000D01*
G01*
X104800000Y-59100000D01*
G75*
G02*
X104650000Y-59250000I-150000J0D01*
G01*
X103625000Y-59250000D01*
G75*
G02*
X103475000Y-59100000I0J150000D01*
G01*
G37*
G36*
G01*
X101200000Y-59100000D02*
X101200000Y-58800000D01*
G75*
G02*
X101350000Y-58650000I150000J0D01*
G01*
X102375000Y-58650000D01*
G75*
G02*
X102525000Y-58800000I0J-150000D01*
G01*
X102525000Y-59100000D01*
G75*
G02*
X102375000Y-59250000I-150000J0D01*
G01*
X101350000Y-59250000D01*
G75*
G02*
X101200000Y-59100000I0J150000D01*
G01*
G37*
G36*
G01*
X101200000Y-58150000D02*
X101200000Y-57850000D01*
G75*
G02*
X101350000Y-57700000I150000J0D01*
G01*
X102375000Y-57700000D01*
G75*
G02*
X102525000Y-57850000I0J-150000D01*
G01*
X102525000Y-58150000D01*
G75*
G02*
X102375000Y-58300000I-150000J0D01*
G01*
X101350000Y-58300000D01*
G75*
G02*
X101200000Y-58150000I0J150000D01*
G01*
G37*
G36*
G01*
X101200000Y-57200000D02*
X101200000Y-56900000D01*
G75*
G02*
X101350000Y-56750000I150000J0D01*
G01*
X102375000Y-56750000D01*
G75*
G02*
X102525000Y-56900000I0J-150000D01*
G01*
X102525000Y-57200000D01*
G75*
G02*
X102375000Y-57350000I-150000J0D01*
G01*
X101350000Y-57350000D01*
G75*
G02*
X101200000Y-57200000I0J150000D01*
G01*
G37*
D23*
X45200000Y-61025000D03*
X45200000Y-61675000D03*
X45200000Y-62325000D03*
X45200000Y-62975000D03*
X41800000Y-62975000D03*
X41800000Y-62325000D03*
X41800000Y-61675000D03*
X41800000Y-61025000D03*
G36*
G01*
X96475000Y-47200000D02*
X96475000Y-46900000D01*
G75*
G02*
X96625000Y-46750000I150000J0D01*
G01*
X97650000Y-46750000D01*
G75*
G02*
X97800000Y-46900000I0J-150000D01*
G01*
X97800000Y-47200000D01*
G75*
G02*
X97650000Y-47350000I-150000J0D01*
G01*
X96625000Y-47350000D01*
G75*
G02*
X96475000Y-47200000I0J150000D01*
G01*
G37*
G36*
G01*
X96475000Y-49100000D02*
X96475000Y-48800000D01*
G75*
G02*
X96625000Y-48650000I150000J0D01*
G01*
X97650000Y-48650000D01*
G75*
G02*
X97800000Y-48800000I0J-150000D01*
G01*
X97800000Y-49100000D01*
G75*
G02*
X97650000Y-49250000I-150000J0D01*
G01*
X96625000Y-49250000D01*
G75*
G02*
X96475000Y-49100000I0J150000D01*
G01*
G37*
G36*
G01*
X94200000Y-49100000D02*
X94200000Y-48800000D01*
G75*
G02*
X94350000Y-48650000I150000J0D01*
G01*
X95375000Y-48650000D01*
G75*
G02*
X95525000Y-48800000I0J-150000D01*
G01*
X95525000Y-49100000D01*
G75*
G02*
X95375000Y-49250000I-150000J0D01*
G01*
X94350000Y-49250000D01*
G75*
G02*
X94200000Y-49100000I0J150000D01*
G01*
G37*
G36*
G01*
X94200000Y-48150000D02*
X94200000Y-47850000D01*
G75*
G02*
X94350000Y-47700000I150000J0D01*
G01*
X95375000Y-47700000D01*
G75*
G02*
X95525000Y-47850000I0J-150000D01*
G01*
X95525000Y-48150000D01*
G75*
G02*
X95375000Y-48300000I-150000J0D01*
G01*
X94350000Y-48300000D01*
G75*
G02*
X94200000Y-48150000I0J150000D01*
G01*
G37*
G36*
G01*
X94200000Y-47200000D02*
X94200000Y-46900000D01*
G75*
G02*
X94350000Y-46750000I150000J0D01*
G01*
X95375000Y-46750000D01*
G75*
G02*
X95525000Y-46900000I0J-150000D01*
G01*
X95525000Y-47200000D01*
G75*
G02*
X95375000Y-47350000I-150000J0D01*
G01*
X94350000Y-47350000D01*
G75*
G02*
X94200000Y-47200000I0J150000D01*
G01*
G37*
G36*
G01*
X68500000Y-23340000D02*
X68500000Y-23040000D01*
G75*
G02*
X68650000Y-22890000I150000J0D01*
G01*
X70300000Y-22890000D01*
G75*
G02*
X70450000Y-23040000I0J-150000D01*
G01*
X70450000Y-23340000D01*
G75*
G02*
X70300000Y-23490000I-150000J0D01*
G01*
X68650000Y-23490000D01*
G75*
G02*
X68500000Y-23340000I0J150000D01*
G01*
G37*
G36*
G01*
X68500000Y-24610000D02*
X68500000Y-24310000D01*
G75*
G02*
X68650000Y-24160000I150000J0D01*
G01*
X70300000Y-24160000D01*
G75*
G02*
X70450000Y-24310000I0J-150000D01*
G01*
X70450000Y-24610000D01*
G75*
G02*
X70300000Y-24760000I-150000J0D01*
G01*
X68650000Y-24760000D01*
G75*
G02*
X68500000Y-24610000I0J150000D01*
G01*
G37*
G36*
G01*
X68500000Y-25880000D02*
X68500000Y-25580000D01*
G75*
G02*
X68650000Y-25430000I150000J0D01*
G01*
X70300000Y-25430000D01*
G75*
G02*
X70450000Y-25580000I0J-150000D01*
G01*
X70450000Y-25880000D01*
G75*
G02*
X70300000Y-26030000I-150000J0D01*
G01*
X68650000Y-26030000D01*
G75*
G02*
X68500000Y-25880000I0J150000D01*
G01*
G37*
G36*
G01*
X68500000Y-27150000D02*
X68500000Y-26850000D01*
G75*
G02*
X68650000Y-26700000I150000J0D01*
G01*
X70300000Y-26700000D01*
G75*
G02*
X70450000Y-26850000I0J-150000D01*
G01*
X70450000Y-27150000D01*
G75*
G02*
X70300000Y-27300000I-150000J0D01*
G01*
X68650000Y-27300000D01*
G75*
G02*
X68500000Y-27150000I0J150000D01*
G01*
G37*
G36*
G01*
X68500000Y-28420000D02*
X68500000Y-28120000D01*
G75*
G02*
X68650000Y-27970000I150000J0D01*
G01*
X70300000Y-27970000D01*
G75*
G02*
X70450000Y-28120000I0J-150000D01*
G01*
X70450000Y-28420000D01*
G75*
G02*
X70300000Y-28570000I-150000J0D01*
G01*
X68650000Y-28570000D01*
G75*
G02*
X68500000Y-28420000I0J150000D01*
G01*
G37*
G36*
G01*
X68500000Y-29690000D02*
X68500000Y-29390000D01*
G75*
G02*
X68650000Y-29240000I150000J0D01*
G01*
X70300000Y-29240000D01*
G75*
G02*
X70450000Y-29390000I0J-150000D01*
G01*
X70450000Y-29690000D01*
G75*
G02*
X70300000Y-29840000I-150000J0D01*
G01*
X68650000Y-29840000D01*
G75*
G02*
X68500000Y-29690000I0J150000D01*
G01*
G37*
G36*
G01*
X68500000Y-30960000D02*
X68500000Y-30660000D01*
G75*
G02*
X68650000Y-30510000I150000J0D01*
G01*
X70300000Y-30510000D01*
G75*
G02*
X70450000Y-30660000I0J-150000D01*
G01*
X70450000Y-30960000D01*
G75*
G02*
X70300000Y-31110000I-150000J0D01*
G01*
X68650000Y-31110000D01*
G75*
G02*
X68500000Y-30960000I0J150000D01*
G01*
G37*
G36*
G01*
X63550000Y-30960000D02*
X63550000Y-30660000D01*
G75*
G02*
X63700000Y-30510000I150000J0D01*
G01*
X65350000Y-30510000D01*
G75*
G02*
X65500000Y-30660000I0J-150000D01*
G01*
X65500000Y-30960000D01*
G75*
G02*
X65350000Y-31110000I-150000J0D01*
G01*
X63700000Y-31110000D01*
G75*
G02*
X63550000Y-30960000I0J150000D01*
G01*
G37*
G36*
G01*
X63550000Y-29690000D02*
X63550000Y-29390000D01*
G75*
G02*
X63700000Y-29240000I150000J0D01*
G01*
X65350000Y-29240000D01*
G75*
G02*
X65500000Y-29390000I0J-150000D01*
G01*
X65500000Y-29690000D01*
G75*
G02*
X65350000Y-29840000I-150000J0D01*
G01*
X63700000Y-29840000D01*
G75*
G02*
X63550000Y-29690000I0J150000D01*
G01*
G37*
G36*
G01*
X63550000Y-28420000D02*
X63550000Y-28120000D01*
G75*
G02*
X63700000Y-27970000I150000J0D01*
G01*
X65350000Y-27970000D01*
G75*
G02*
X65500000Y-28120000I0J-150000D01*
G01*
X65500000Y-28420000D01*
G75*
G02*
X65350000Y-28570000I-150000J0D01*
G01*
X63700000Y-28570000D01*
G75*
G02*
X63550000Y-28420000I0J150000D01*
G01*
G37*
G36*
G01*
X63550000Y-27150000D02*
X63550000Y-26850000D01*
G75*
G02*
X63700000Y-26700000I150000J0D01*
G01*
X65350000Y-26700000D01*
G75*
G02*
X65500000Y-26850000I0J-150000D01*
G01*
X65500000Y-27150000D01*
G75*
G02*
X65350000Y-27300000I-150000J0D01*
G01*
X63700000Y-27300000D01*
G75*
G02*
X63550000Y-27150000I0J150000D01*
G01*
G37*
G36*
G01*
X63550000Y-25880000D02*
X63550000Y-25580000D01*
G75*
G02*
X63700000Y-25430000I150000J0D01*
G01*
X65350000Y-25430000D01*
G75*
G02*
X65500000Y-25580000I0J-150000D01*
G01*
X65500000Y-25880000D01*
G75*
G02*
X65350000Y-26030000I-150000J0D01*
G01*
X63700000Y-26030000D01*
G75*
G02*
X63550000Y-25880000I0J150000D01*
G01*
G37*
G36*
G01*
X63550000Y-24610000D02*
X63550000Y-24310000D01*
G75*
G02*
X63700000Y-24160000I150000J0D01*
G01*
X65350000Y-24160000D01*
G75*
G02*
X65500000Y-24310000I0J-150000D01*
G01*
X65500000Y-24610000D01*
G75*
G02*
X65350000Y-24760000I-150000J0D01*
G01*
X63700000Y-24760000D01*
G75*
G02*
X63550000Y-24610000I0J150000D01*
G01*
G37*
G36*
G01*
X63550000Y-23340000D02*
X63550000Y-23040000D01*
G75*
G02*
X63700000Y-22890000I150000J0D01*
G01*
X65350000Y-22890000D01*
G75*
G02*
X65500000Y-23040000I0J-150000D01*
G01*
X65500000Y-23340000D01*
G75*
G02*
X65350000Y-23490000I-150000J0D01*
G01*
X63700000Y-23490000D01*
G75*
G02*
X63550000Y-23340000I0J150000D01*
G01*
G37*
G36*
G01*
X81000000Y-22205000D02*
X81000000Y-21905000D01*
G75*
G02*
X81150000Y-21755000I150000J0D01*
G01*
X82850000Y-21755000D01*
G75*
G02*
X83000000Y-21905000I0J-150000D01*
G01*
X83000000Y-22205000D01*
G75*
G02*
X82850000Y-22355000I-150000J0D01*
G01*
X81150000Y-22355000D01*
G75*
G02*
X81000000Y-22205000I0J150000D01*
G01*
G37*
G36*
G01*
X81000000Y-23475000D02*
X81000000Y-23175000D01*
G75*
G02*
X81150000Y-23025000I150000J0D01*
G01*
X82850000Y-23025000D01*
G75*
G02*
X83000000Y-23175000I0J-150000D01*
G01*
X83000000Y-23475000D01*
G75*
G02*
X82850000Y-23625000I-150000J0D01*
G01*
X81150000Y-23625000D01*
G75*
G02*
X81000000Y-23475000I0J150000D01*
G01*
G37*
G36*
G01*
X81000000Y-24745000D02*
X81000000Y-24445000D01*
G75*
G02*
X81150000Y-24295000I150000J0D01*
G01*
X82850000Y-24295000D01*
G75*
G02*
X83000000Y-24445000I0J-150000D01*
G01*
X83000000Y-24745000D01*
G75*
G02*
X82850000Y-24895000I-150000J0D01*
G01*
X81150000Y-24895000D01*
G75*
G02*
X81000000Y-24745000I0J150000D01*
G01*
G37*
G36*
G01*
X81000000Y-26015000D02*
X81000000Y-25715000D01*
G75*
G02*
X81150000Y-25565000I150000J0D01*
G01*
X82850000Y-25565000D01*
G75*
G02*
X83000000Y-25715000I0J-150000D01*
G01*
X83000000Y-26015000D01*
G75*
G02*
X82850000Y-26165000I-150000J0D01*
G01*
X81150000Y-26165000D01*
G75*
G02*
X81000000Y-26015000I0J150000D01*
G01*
G37*
G36*
G01*
X81000000Y-27285000D02*
X81000000Y-26985000D01*
G75*
G02*
X81150000Y-26835000I150000J0D01*
G01*
X82850000Y-26835000D01*
G75*
G02*
X83000000Y-26985000I0J-150000D01*
G01*
X83000000Y-27285000D01*
G75*
G02*
X82850000Y-27435000I-150000J0D01*
G01*
X81150000Y-27435000D01*
G75*
G02*
X81000000Y-27285000I0J150000D01*
G01*
G37*
G36*
G01*
X81000000Y-28555000D02*
X81000000Y-28255000D01*
G75*
G02*
X81150000Y-28105000I150000J0D01*
G01*
X82850000Y-28105000D01*
G75*
G02*
X83000000Y-28255000I0J-150000D01*
G01*
X83000000Y-28555000D01*
G75*
G02*
X82850000Y-28705000I-150000J0D01*
G01*
X81150000Y-28705000D01*
G75*
G02*
X81000000Y-28555000I0J150000D01*
G01*
G37*
G36*
G01*
X81000000Y-29825000D02*
X81000000Y-29525000D01*
G75*
G02*
X81150000Y-29375000I150000J0D01*
G01*
X82850000Y-29375000D01*
G75*
G02*
X83000000Y-29525000I0J-150000D01*
G01*
X83000000Y-29825000D01*
G75*
G02*
X82850000Y-29975000I-150000J0D01*
G01*
X81150000Y-29975000D01*
G75*
G02*
X81000000Y-29825000I0J150000D01*
G01*
G37*
G36*
G01*
X81000000Y-31095000D02*
X81000000Y-30795000D01*
G75*
G02*
X81150000Y-30645000I150000J0D01*
G01*
X82850000Y-30645000D01*
G75*
G02*
X83000000Y-30795000I0J-150000D01*
G01*
X83000000Y-31095000D01*
G75*
G02*
X82850000Y-31245000I-150000J0D01*
G01*
X81150000Y-31245000D01*
G75*
G02*
X81000000Y-31095000I0J150000D01*
G01*
G37*
G36*
G01*
X76000000Y-31095000D02*
X76000000Y-30795000D01*
G75*
G02*
X76150000Y-30645000I150000J0D01*
G01*
X77850000Y-30645000D01*
G75*
G02*
X78000000Y-30795000I0J-150000D01*
G01*
X78000000Y-31095000D01*
G75*
G02*
X77850000Y-31245000I-150000J0D01*
G01*
X76150000Y-31245000D01*
G75*
G02*
X76000000Y-31095000I0J150000D01*
G01*
G37*
G36*
G01*
X76000000Y-29825000D02*
X76000000Y-29525000D01*
G75*
G02*
X76150000Y-29375000I150000J0D01*
G01*
X77850000Y-29375000D01*
G75*
G02*
X78000000Y-29525000I0J-150000D01*
G01*
X78000000Y-29825000D01*
G75*
G02*
X77850000Y-29975000I-150000J0D01*
G01*
X76150000Y-29975000D01*
G75*
G02*
X76000000Y-29825000I0J150000D01*
G01*
G37*
G36*
G01*
X76000000Y-28555000D02*
X76000000Y-28255000D01*
G75*
G02*
X76150000Y-28105000I150000J0D01*
G01*
X77850000Y-28105000D01*
G75*
G02*
X78000000Y-28255000I0J-150000D01*
G01*
X78000000Y-28555000D01*
G75*
G02*
X77850000Y-28705000I-150000J0D01*
G01*
X76150000Y-28705000D01*
G75*
G02*
X76000000Y-28555000I0J150000D01*
G01*
G37*
G36*
G01*
X76000000Y-27285000D02*
X76000000Y-26985000D01*
G75*
G02*
X76150000Y-26835000I150000J0D01*
G01*
X77850000Y-26835000D01*
G75*
G02*
X78000000Y-26985000I0J-150000D01*
G01*
X78000000Y-27285000D01*
G75*
G02*
X77850000Y-27435000I-150000J0D01*
G01*
X76150000Y-27435000D01*
G75*
G02*
X76000000Y-27285000I0J150000D01*
G01*
G37*
G36*
G01*
X76000000Y-26015000D02*
X76000000Y-25715000D01*
G75*
G02*
X76150000Y-25565000I150000J0D01*
G01*
X77850000Y-25565000D01*
G75*
G02*
X78000000Y-25715000I0J-150000D01*
G01*
X78000000Y-26015000D01*
G75*
G02*
X77850000Y-26165000I-150000J0D01*
G01*
X76150000Y-26165000D01*
G75*
G02*
X76000000Y-26015000I0J150000D01*
G01*
G37*
G36*
G01*
X76000000Y-24745000D02*
X76000000Y-24445000D01*
G75*
G02*
X76150000Y-24295000I150000J0D01*
G01*
X77850000Y-24295000D01*
G75*
G02*
X78000000Y-24445000I0J-150000D01*
G01*
X78000000Y-24745000D01*
G75*
G02*
X77850000Y-24895000I-150000J0D01*
G01*
X76150000Y-24895000D01*
G75*
G02*
X76000000Y-24745000I0J150000D01*
G01*
G37*
G36*
G01*
X76000000Y-23475000D02*
X76000000Y-23175000D01*
G75*
G02*
X76150000Y-23025000I150000J0D01*
G01*
X77850000Y-23025000D01*
G75*
G02*
X78000000Y-23175000I0J-150000D01*
G01*
X78000000Y-23475000D01*
G75*
G02*
X77850000Y-23625000I-150000J0D01*
G01*
X76150000Y-23625000D01*
G75*
G02*
X76000000Y-23475000I0J150000D01*
G01*
G37*
G36*
G01*
X76000000Y-22205000D02*
X76000000Y-21905000D01*
G75*
G02*
X76150000Y-21755000I150000J0D01*
G01*
X77850000Y-21755000D01*
G75*
G02*
X78000000Y-21905000I0J-150000D01*
G01*
X78000000Y-22205000D01*
G75*
G02*
X77850000Y-22355000I-150000J0D01*
G01*
X76150000Y-22355000D01*
G75*
G02*
X76000000Y-22205000I0J150000D01*
G01*
G37*
G36*
G01*
X81000000Y-36705000D02*
X81000000Y-36405000D01*
G75*
G02*
X81150000Y-36255000I150000J0D01*
G01*
X82850000Y-36255000D01*
G75*
G02*
X83000000Y-36405000I0J-150000D01*
G01*
X83000000Y-36705000D01*
G75*
G02*
X82850000Y-36855000I-150000J0D01*
G01*
X81150000Y-36855000D01*
G75*
G02*
X81000000Y-36705000I0J150000D01*
G01*
G37*
G36*
G01*
X81000000Y-37975000D02*
X81000000Y-37675000D01*
G75*
G02*
X81150000Y-37525000I150000J0D01*
G01*
X82850000Y-37525000D01*
G75*
G02*
X83000000Y-37675000I0J-150000D01*
G01*
X83000000Y-37975000D01*
G75*
G02*
X82850000Y-38125000I-150000J0D01*
G01*
X81150000Y-38125000D01*
G75*
G02*
X81000000Y-37975000I0J150000D01*
G01*
G37*
G36*
G01*
X81000000Y-39245000D02*
X81000000Y-38945000D01*
G75*
G02*
X81150000Y-38795000I150000J0D01*
G01*
X82850000Y-38795000D01*
G75*
G02*
X83000000Y-38945000I0J-150000D01*
G01*
X83000000Y-39245000D01*
G75*
G02*
X82850000Y-39395000I-150000J0D01*
G01*
X81150000Y-39395000D01*
G75*
G02*
X81000000Y-39245000I0J150000D01*
G01*
G37*
G36*
G01*
X81000000Y-40515000D02*
X81000000Y-40215000D01*
G75*
G02*
X81150000Y-40065000I150000J0D01*
G01*
X82850000Y-40065000D01*
G75*
G02*
X83000000Y-40215000I0J-150000D01*
G01*
X83000000Y-40515000D01*
G75*
G02*
X82850000Y-40665000I-150000J0D01*
G01*
X81150000Y-40665000D01*
G75*
G02*
X81000000Y-40515000I0J150000D01*
G01*
G37*
G36*
G01*
X81000000Y-41785000D02*
X81000000Y-41485000D01*
G75*
G02*
X81150000Y-41335000I150000J0D01*
G01*
X82850000Y-41335000D01*
G75*
G02*
X83000000Y-41485000I0J-150000D01*
G01*
X83000000Y-41785000D01*
G75*
G02*
X82850000Y-41935000I-150000J0D01*
G01*
X81150000Y-41935000D01*
G75*
G02*
X81000000Y-41785000I0J150000D01*
G01*
G37*
G36*
G01*
X81000000Y-43055000D02*
X81000000Y-42755000D01*
G75*
G02*
X81150000Y-42605000I150000J0D01*
G01*
X82850000Y-42605000D01*
G75*
G02*
X83000000Y-42755000I0J-150000D01*
G01*
X83000000Y-43055000D01*
G75*
G02*
X82850000Y-43205000I-150000J0D01*
G01*
X81150000Y-43205000D01*
G75*
G02*
X81000000Y-43055000I0J150000D01*
G01*
G37*
G36*
G01*
X81000000Y-44325000D02*
X81000000Y-44025000D01*
G75*
G02*
X81150000Y-43875000I150000J0D01*
G01*
X82850000Y-43875000D01*
G75*
G02*
X83000000Y-44025000I0J-150000D01*
G01*
X83000000Y-44325000D01*
G75*
G02*
X82850000Y-44475000I-150000J0D01*
G01*
X81150000Y-44475000D01*
G75*
G02*
X81000000Y-44325000I0J150000D01*
G01*
G37*
G36*
G01*
X81000000Y-45595000D02*
X81000000Y-45295000D01*
G75*
G02*
X81150000Y-45145000I150000J0D01*
G01*
X82850000Y-45145000D01*
G75*
G02*
X83000000Y-45295000I0J-150000D01*
G01*
X83000000Y-45595000D01*
G75*
G02*
X82850000Y-45745000I-150000J0D01*
G01*
X81150000Y-45745000D01*
G75*
G02*
X81000000Y-45595000I0J150000D01*
G01*
G37*
G36*
G01*
X76000000Y-45595000D02*
X76000000Y-45295000D01*
G75*
G02*
X76150000Y-45145000I150000J0D01*
G01*
X77850000Y-45145000D01*
G75*
G02*
X78000000Y-45295000I0J-150000D01*
G01*
X78000000Y-45595000D01*
G75*
G02*
X77850000Y-45745000I-150000J0D01*
G01*
X76150000Y-45745000D01*
G75*
G02*
X76000000Y-45595000I0J150000D01*
G01*
G37*
G36*
G01*
X76000000Y-44325000D02*
X76000000Y-44025000D01*
G75*
G02*
X76150000Y-43875000I150000J0D01*
G01*
X77850000Y-43875000D01*
G75*
G02*
X78000000Y-44025000I0J-150000D01*
G01*
X78000000Y-44325000D01*
G75*
G02*
X77850000Y-44475000I-150000J0D01*
G01*
X76150000Y-44475000D01*
G75*
G02*
X76000000Y-44325000I0J150000D01*
G01*
G37*
G36*
G01*
X76000000Y-43055000D02*
X76000000Y-42755000D01*
G75*
G02*
X76150000Y-42605000I150000J0D01*
G01*
X77850000Y-42605000D01*
G75*
G02*
X78000000Y-42755000I0J-150000D01*
G01*
X78000000Y-43055000D01*
G75*
G02*
X77850000Y-43205000I-150000J0D01*
G01*
X76150000Y-43205000D01*
G75*
G02*
X76000000Y-43055000I0J150000D01*
G01*
G37*
G36*
G01*
X76000000Y-41785000D02*
X76000000Y-41485000D01*
G75*
G02*
X76150000Y-41335000I150000J0D01*
G01*
X77850000Y-41335000D01*
G75*
G02*
X78000000Y-41485000I0J-150000D01*
G01*
X78000000Y-41785000D01*
G75*
G02*
X77850000Y-41935000I-150000J0D01*
G01*
X76150000Y-41935000D01*
G75*
G02*
X76000000Y-41785000I0J150000D01*
G01*
G37*
G36*
G01*
X76000000Y-40515000D02*
X76000000Y-40215000D01*
G75*
G02*
X76150000Y-40065000I150000J0D01*
G01*
X77850000Y-40065000D01*
G75*
G02*
X78000000Y-40215000I0J-150000D01*
G01*
X78000000Y-40515000D01*
G75*
G02*
X77850000Y-40665000I-150000J0D01*
G01*
X76150000Y-40665000D01*
G75*
G02*
X76000000Y-40515000I0J150000D01*
G01*
G37*
G36*
G01*
X76000000Y-39245000D02*
X76000000Y-38945000D01*
G75*
G02*
X76150000Y-38795000I150000J0D01*
G01*
X77850000Y-38795000D01*
G75*
G02*
X78000000Y-38945000I0J-150000D01*
G01*
X78000000Y-39245000D01*
G75*
G02*
X77850000Y-39395000I-150000J0D01*
G01*
X76150000Y-39395000D01*
G75*
G02*
X76000000Y-39245000I0J150000D01*
G01*
G37*
G36*
G01*
X76000000Y-37975000D02*
X76000000Y-37675000D01*
G75*
G02*
X76150000Y-37525000I150000J0D01*
G01*
X77850000Y-37525000D01*
G75*
G02*
X78000000Y-37675000I0J-150000D01*
G01*
X78000000Y-37975000D01*
G75*
G02*
X77850000Y-38125000I-150000J0D01*
G01*
X76150000Y-38125000D01*
G75*
G02*
X76000000Y-37975000I0J150000D01*
G01*
G37*
G36*
G01*
X76000000Y-36705000D02*
X76000000Y-36405000D01*
G75*
G02*
X76150000Y-36255000I150000J0D01*
G01*
X77850000Y-36255000D01*
G75*
G02*
X78000000Y-36405000I0J-150000D01*
G01*
X78000000Y-36705000D01*
G75*
G02*
X77850000Y-36855000I-150000J0D01*
G01*
X76150000Y-36855000D01*
G75*
G02*
X76000000Y-36705000I0J150000D01*
G01*
G37*
G36*
G01*
X105975000Y-47200000D02*
X105975000Y-46900000D01*
G75*
G02*
X106125000Y-46750000I150000J0D01*
G01*
X107150000Y-46750000D01*
G75*
G02*
X107300000Y-46900000I0J-150000D01*
G01*
X107300000Y-47200000D01*
G75*
G02*
X107150000Y-47350000I-150000J0D01*
G01*
X106125000Y-47350000D01*
G75*
G02*
X105975000Y-47200000I0J150000D01*
G01*
G37*
G36*
G01*
X105975000Y-49100000D02*
X105975000Y-48800000D01*
G75*
G02*
X106125000Y-48650000I150000J0D01*
G01*
X107150000Y-48650000D01*
G75*
G02*
X107300000Y-48800000I0J-150000D01*
G01*
X107300000Y-49100000D01*
G75*
G02*
X107150000Y-49250000I-150000J0D01*
G01*
X106125000Y-49250000D01*
G75*
G02*
X105975000Y-49100000I0J150000D01*
G01*
G37*
G36*
G01*
X103700000Y-49100000D02*
X103700000Y-48800000D01*
G75*
G02*
X103850000Y-48650000I150000J0D01*
G01*
X104875000Y-48650000D01*
G75*
G02*
X105025000Y-48800000I0J-150000D01*
G01*
X105025000Y-49100000D01*
G75*
G02*
X104875000Y-49250000I-150000J0D01*
G01*
X103850000Y-49250000D01*
G75*
G02*
X103700000Y-49100000I0J150000D01*
G01*
G37*
G36*
G01*
X103700000Y-48150000D02*
X103700000Y-47850000D01*
G75*
G02*
X103850000Y-47700000I150000J0D01*
G01*
X104875000Y-47700000D01*
G75*
G02*
X105025000Y-47850000I0J-150000D01*
G01*
X105025000Y-48150000D01*
G75*
G02*
X104875000Y-48300000I-150000J0D01*
G01*
X103850000Y-48300000D01*
G75*
G02*
X103700000Y-48150000I0J150000D01*
G01*
G37*
G36*
G01*
X103700000Y-47200000D02*
X103700000Y-46900000D01*
G75*
G02*
X103850000Y-46750000I150000J0D01*
G01*
X104875000Y-46750000D01*
G75*
G02*
X105025000Y-46900000I0J-150000D01*
G01*
X105025000Y-47200000D01*
G75*
G02*
X104875000Y-47350000I-150000J0D01*
G01*
X103850000Y-47350000D01*
G75*
G02*
X103700000Y-47200000I0J150000D01*
G01*
G37*
G36*
G01*
X93000000Y-29205000D02*
X93000000Y-28905000D01*
G75*
G02*
X93150000Y-28755000I150000J0D01*
G01*
X94850000Y-28755000D01*
G75*
G02*
X95000000Y-28905000I0J-150000D01*
G01*
X95000000Y-29205000D01*
G75*
G02*
X94850000Y-29355000I-150000J0D01*
G01*
X93150000Y-29355000D01*
G75*
G02*
X93000000Y-29205000I0J150000D01*
G01*
G37*
G36*
G01*
X93000000Y-30475000D02*
X93000000Y-30175000D01*
G75*
G02*
X93150000Y-30025000I150000J0D01*
G01*
X94850000Y-30025000D01*
G75*
G02*
X95000000Y-30175000I0J-150000D01*
G01*
X95000000Y-30475000D01*
G75*
G02*
X94850000Y-30625000I-150000J0D01*
G01*
X93150000Y-30625000D01*
G75*
G02*
X93000000Y-30475000I0J150000D01*
G01*
G37*
G36*
G01*
X93000000Y-31745000D02*
X93000000Y-31445000D01*
G75*
G02*
X93150000Y-31295000I150000J0D01*
G01*
X94850000Y-31295000D01*
G75*
G02*
X95000000Y-31445000I0J-150000D01*
G01*
X95000000Y-31745000D01*
G75*
G02*
X94850000Y-31895000I-150000J0D01*
G01*
X93150000Y-31895000D01*
G75*
G02*
X93000000Y-31745000I0J150000D01*
G01*
G37*
G36*
G01*
X93000000Y-33015000D02*
X93000000Y-32715000D01*
G75*
G02*
X93150000Y-32565000I150000J0D01*
G01*
X94850000Y-32565000D01*
G75*
G02*
X95000000Y-32715000I0J-150000D01*
G01*
X95000000Y-33015000D01*
G75*
G02*
X94850000Y-33165000I-150000J0D01*
G01*
X93150000Y-33165000D01*
G75*
G02*
X93000000Y-33015000I0J150000D01*
G01*
G37*
G36*
G01*
X93000000Y-34285000D02*
X93000000Y-33985000D01*
G75*
G02*
X93150000Y-33835000I150000J0D01*
G01*
X94850000Y-33835000D01*
G75*
G02*
X95000000Y-33985000I0J-150000D01*
G01*
X95000000Y-34285000D01*
G75*
G02*
X94850000Y-34435000I-150000J0D01*
G01*
X93150000Y-34435000D01*
G75*
G02*
X93000000Y-34285000I0J150000D01*
G01*
G37*
G36*
G01*
X93000000Y-35555000D02*
X93000000Y-35255000D01*
G75*
G02*
X93150000Y-35105000I150000J0D01*
G01*
X94850000Y-35105000D01*
G75*
G02*
X95000000Y-35255000I0J-150000D01*
G01*
X95000000Y-35555000D01*
G75*
G02*
X94850000Y-35705000I-150000J0D01*
G01*
X93150000Y-35705000D01*
G75*
G02*
X93000000Y-35555000I0J150000D01*
G01*
G37*
G36*
G01*
X93000000Y-36825000D02*
X93000000Y-36525000D01*
G75*
G02*
X93150000Y-36375000I150000J0D01*
G01*
X94850000Y-36375000D01*
G75*
G02*
X95000000Y-36525000I0J-150000D01*
G01*
X95000000Y-36825000D01*
G75*
G02*
X94850000Y-36975000I-150000J0D01*
G01*
X93150000Y-36975000D01*
G75*
G02*
X93000000Y-36825000I0J150000D01*
G01*
G37*
G36*
G01*
X93000000Y-38095000D02*
X93000000Y-37795000D01*
G75*
G02*
X93150000Y-37645000I150000J0D01*
G01*
X94850000Y-37645000D01*
G75*
G02*
X95000000Y-37795000I0J-150000D01*
G01*
X95000000Y-38095000D01*
G75*
G02*
X94850000Y-38245000I-150000J0D01*
G01*
X93150000Y-38245000D01*
G75*
G02*
X93000000Y-38095000I0J150000D01*
G01*
G37*
G36*
G01*
X88000000Y-38095000D02*
X88000000Y-37795000D01*
G75*
G02*
X88150000Y-37645000I150000J0D01*
G01*
X89850000Y-37645000D01*
G75*
G02*
X90000000Y-37795000I0J-150000D01*
G01*
X90000000Y-38095000D01*
G75*
G02*
X89850000Y-38245000I-150000J0D01*
G01*
X88150000Y-38245000D01*
G75*
G02*
X88000000Y-38095000I0J150000D01*
G01*
G37*
G36*
G01*
X88000000Y-36825000D02*
X88000000Y-36525000D01*
G75*
G02*
X88150000Y-36375000I150000J0D01*
G01*
X89850000Y-36375000D01*
G75*
G02*
X90000000Y-36525000I0J-150000D01*
G01*
X90000000Y-36825000D01*
G75*
G02*
X89850000Y-36975000I-150000J0D01*
G01*
X88150000Y-36975000D01*
G75*
G02*
X88000000Y-36825000I0J150000D01*
G01*
G37*
G36*
G01*
X88000000Y-35555000D02*
X88000000Y-35255000D01*
G75*
G02*
X88150000Y-35105000I150000J0D01*
G01*
X89850000Y-35105000D01*
G75*
G02*
X90000000Y-35255000I0J-150000D01*
G01*
X90000000Y-35555000D01*
G75*
G02*
X89850000Y-35705000I-150000J0D01*
G01*
X88150000Y-35705000D01*
G75*
G02*
X88000000Y-35555000I0J150000D01*
G01*
G37*
G36*
G01*
X88000000Y-34285000D02*
X88000000Y-33985000D01*
G75*
G02*
X88150000Y-33835000I150000J0D01*
G01*
X89850000Y-33835000D01*
G75*
G02*
X90000000Y-33985000I0J-150000D01*
G01*
X90000000Y-34285000D01*
G75*
G02*
X89850000Y-34435000I-150000J0D01*
G01*
X88150000Y-34435000D01*
G75*
G02*
X88000000Y-34285000I0J150000D01*
G01*
G37*
G36*
G01*
X88000000Y-33015000D02*
X88000000Y-32715000D01*
G75*
G02*
X88150000Y-32565000I150000J0D01*
G01*
X89850000Y-32565000D01*
G75*
G02*
X90000000Y-32715000I0J-150000D01*
G01*
X90000000Y-33015000D01*
G75*
G02*
X89850000Y-33165000I-150000J0D01*
G01*
X88150000Y-33165000D01*
G75*
G02*
X88000000Y-33015000I0J150000D01*
G01*
G37*
G36*
G01*
X88000000Y-31745000D02*
X88000000Y-31445000D01*
G75*
G02*
X88150000Y-31295000I150000J0D01*
G01*
X89850000Y-31295000D01*
G75*
G02*
X90000000Y-31445000I0J-150000D01*
G01*
X90000000Y-31745000D01*
G75*
G02*
X89850000Y-31895000I-150000J0D01*
G01*
X88150000Y-31895000D01*
G75*
G02*
X88000000Y-31745000I0J150000D01*
G01*
G37*
G36*
G01*
X88000000Y-30475000D02*
X88000000Y-30175000D01*
G75*
G02*
X88150000Y-30025000I150000J0D01*
G01*
X89850000Y-30025000D01*
G75*
G02*
X90000000Y-30175000I0J-150000D01*
G01*
X90000000Y-30475000D01*
G75*
G02*
X89850000Y-30625000I-150000J0D01*
G01*
X88150000Y-30625000D01*
G75*
G02*
X88000000Y-30475000I0J150000D01*
G01*
G37*
G36*
G01*
X88000000Y-29205000D02*
X88000000Y-28905000D01*
G75*
G02*
X88150000Y-28755000I150000J0D01*
G01*
X89850000Y-28755000D01*
G75*
G02*
X90000000Y-28905000I0J-150000D01*
G01*
X90000000Y-29205000D01*
G75*
G02*
X89850000Y-29355000I-150000J0D01*
G01*
X88150000Y-29355000D01*
G75*
G02*
X88000000Y-29205000I0J150000D01*
G01*
G37*
G36*
G01*
X130625000Y-24935000D02*
X130625000Y-24635000D01*
G75*
G02*
X130775000Y-24485000I150000J0D01*
G01*
X132525000Y-24485000D01*
G75*
G02*
X132675000Y-24635000I0J-150000D01*
G01*
X132675000Y-24935000D01*
G75*
G02*
X132525000Y-25085000I-150000J0D01*
G01*
X130775000Y-25085000D01*
G75*
G02*
X130625000Y-24935000I0J150000D01*
G01*
G37*
G36*
G01*
X130625000Y-26205000D02*
X130625000Y-25905000D01*
G75*
G02*
X130775000Y-25755000I150000J0D01*
G01*
X132525000Y-25755000D01*
G75*
G02*
X132675000Y-25905000I0J-150000D01*
G01*
X132675000Y-26205000D01*
G75*
G02*
X132525000Y-26355000I-150000J0D01*
G01*
X130775000Y-26355000D01*
G75*
G02*
X130625000Y-26205000I0J150000D01*
G01*
G37*
G36*
G01*
X130625000Y-27475000D02*
X130625000Y-27175000D01*
G75*
G02*
X130775000Y-27025000I150000J0D01*
G01*
X132525000Y-27025000D01*
G75*
G02*
X132675000Y-27175000I0J-150000D01*
G01*
X132675000Y-27475000D01*
G75*
G02*
X132525000Y-27625000I-150000J0D01*
G01*
X130775000Y-27625000D01*
G75*
G02*
X130625000Y-27475000I0J150000D01*
G01*
G37*
G36*
G01*
X130625000Y-28745000D02*
X130625000Y-28445000D01*
G75*
G02*
X130775000Y-28295000I150000J0D01*
G01*
X132525000Y-28295000D01*
G75*
G02*
X132675000Y-28445000I0J-150000D01*
G01*
X132675000Y-28745000D01*
G75*
G02*
X132525000Y-28895000I-150000J0D01*
G01*
X130775000Y-28895000D01*
G75*
G02*
X130625000Y-28745000I0J150000D01*
G01*
G37*
G36*
G01*
X130625000Y-30015000D02*
X130625000Y-29715000D01*
G75*
G02*
X130775000Y-29565000I150000J0D01*
G01*
X132525000Y-29565000D01*
G75*
G02*
X132675000Y-29715000I0J-150000D01*
G01*
X132675000Y-30015000D01*
G75*
G02*
X132525000Y-30165000I-150000J0D01*
G01*
X130775000Y-30165000D01*
G75*
G02*
X130625000Y-30015000I0J150000D01*
G01*
G37*
G36*
G01*
X130625000Y-31285000D02*
X130625000Y-30985000D01*
G75*
G02*
X130775000Y-30835000I150000J0D01*
G01*
X132525000Y-30835000D01*
G75*
G02*
X132675000Y-30985000I0J-150000D01*
G01*
X132675000Y-31285000D01*
G75*
G02*
X132525000Y-31435000I-150000J0D01*
G01*
X130775000Y-31435000D01*
G75*
G02*
X130625000Y-31285000I0J150000D01*
G01*
G37*
G36*
G01*
X130625000Y-32555000D02*
X130625000Y-32255000D01*
G75*
G02*
X130775000Y-32105000I150000J0D01*
G01*
X132525000Y-32105000D01*
G75*
G02*
X132675000Y-32255000I0J-150000D01*
G01*
X132675000Y-32555000D01*
G75*
G02*
X132525000Y-32705000I-150000J0D01*
G01*
X130775000Y-32705000D01*
G75*
G02*
X130625000Y-32555000I0J150000D01*
G01*
G37*
G36*
G01*
X130625000Y-33825000D02*
X130625000Y-33525000D01*
G75*
G02*
X130775000Y-33375000I150000J0D01*
G01*
X132525000Y-33375000D01*
G75*
G02*
X132675000Y-33525000I0J-150000D01*
G01*
X132675000Y-33825000D01*
G75*
G02*
X132525000Y-33975000I-150000J0D01*
G01*
X130775000Y-33975000D01*
G75*
G02*
X130625000Y-33825000I0J150000D01*
G01*
G37*
G36*
G01*
X130625000Y-35095000D02*
X130625000Y-34795000D01*
G75*
G02*
X130775000Y-34645000I150000J0D01*
G01*
X132525000Y-34645000D01*
G75*
G02*
X132675000Y-34795000I0J-150000D01*
G01*
X132675000Y-35095000D01*
G75*
G02*
X132525000Y-35245000I-150000J0D01*
G01*
X130775000Y-35245000D01*
G75*
G02*
X130625000Y-35095000I0J150000D01*
G01*
G37*
G36*
G01*
X130625000Y-36365000D02*
X130625000Y-36065000D01*
G75*
G02*
X130775000Y-35915000I150000J0D01*
G01*
X132525000Y-35915000D01*
G75*
G02*
X132675000Y-36065000I0J-150000D01*
G01*
X132675000Y-36365000D01*
G75*
G02*
X132525000Y-36515000I-150000J0D01*
G01*
X130775000Y-36515000D01*
G75*
G02*
X130625000Y-36365000I0J150000D01*
G01*
G37*
G36*
G01*
X121325000Y-36365000D02*
X121325000Y-36065000D01*
G75*
G02*
X121475000Y-35915000I150000J0D01*
G01*
X123225000Y-35915000D01*
G75*
G02*
X123375000Y-36065000I0J-150000D01*
G01*
X123375000Y-36365000D01*
G75*
G02*
X123225000Y-36515000I-150000J0D01*
G01*
X121475000Y-36515000D01*
G75*
G02*
X121325000Y-36365000I0J150000D01*
G01*
G37*
G36*
G01*
X121325000Y-35095000D02*
X121325000Y-34795000D01*
G75*
G02*
X121475000Y-34645000I150000J0D01*
G01*
X123225000Y-34645000D01*
G75*
G02*
X123375000Y-34795000I0J-150000D01*
G01*
X123375000Y-35095000D01*
G75*
G02*
X123225000Y-35245000I-150000J0D01*
G01*
X121475000Y-35245000D01*
G75*
G02*
X121325000Y-35095000I0J150000D01*
G01*
G37*
G36*
G01*
X121325000Y-33825000D02*
X121325000Y-33525000D01*
G75*
G02*
X121475000Y-33375000I150000J0D01*
G01*
X123225000Y-33375000D01*
G75*
G02*
X123375000Y-33525000I0J-150000D01*
G01*
X123375000Y-33825000D01*
G75*
G02*
X123225000Y-33975000I-150000J0D01*
G01*
X121475000Y-33975000D01*
G75*
G02*
X121325000Y-33825000I0J150000D01*
G01*
G37*
G36*
G01*
X121325000Y-32555000D02*
X121325000Y-32255000D01*
G75*
G02*
X121475000Y-32105000I150000J0D01*
G01*
X123225000Y-32105000D01*
G75*
G02*
X123375000Y-32255000I0J-150000D01*
G01*
X123375000Y-32555000D01*
G75*
G02*
X123225000Y-32705000I-150000J0D01*
G01*
X121475000Y-32705000D01*
G75*
G02*
X121325000Y-32555000I0J150000D01*
G01*
G37*
G36*
G01*
X121325000Y-31285000D02*
X121325000Y-30985000D01*
G75*
G02*
X121475000Y-30835000I150000J0D01*
G01*
X123225000Y-30835000D01*
G75*
G02*
X123375000Y-30985000I0J-150000D01*
G01*
X123375000Y-31285000D01*
G75*
G02*
X123225000Y-31435000I-150000J0D01*
G01*
X121475000Y-31435000D01*
G75*
G02*
X121325000Y-31285000I0J150000D01*
G01*
G37*
G36*
G01*
X121325000Y-30015000D02*
X121325000Y-29715000D01*
G75*
G02*
X121475000Y-29565000I150000J0D01*
G01*
X123225000Y-29565000D01*
G75*
G02*
X123375000Y-29715000I0J-150000D01*
G01*
X123375000Y-30015000D01*
G75*
G02*
X123225000Y-30165000I-150000J0D01*
G01*
X121475000Y-30165000D01*
G75*
G02*
X121325000Y-30015000I0J150000D01*
G01*
G37*
G36*
G01*
X121325000Y-28745000D02*
X121325000Y-28445000D01*
G75*
G02*
X121475000Y-28295000I150000J0D01*
G01*
X123225000Y-28295000D01*
G75*
G02*
X123375000Y-28445000I0J-150000D01*
G01*
X123375000Y-28745000D01*
G75*
G02*
X123225000Y-28895000I-150000J0D01*
G01*
X121475000Y-28895000D01*
G75*
G02*
X121325000Y-28745000I0J150000D01*
G01*
G37*
G36*
G01*
X121325000Y-27475000D02*
X121325000Y-27175000D01*
G75*
G02*
X121475000Y-27025000I150000J0D01*
G01*
X123225000Y-27025000D01*
G75*
G02*
X123375000Y-27175000I0J-150000D01*
G01*
X123375000Y-27475000D01*
G75*
G02*
X123225000Y-27625000I-150000J0D01*
G01*
X121475000Y-27625000D01*
G75*
G02*
X121325000Y-27475000I0J150000D01*
G01*
G37*
G36*
G01*
X121325000Y-26205000D02*
X121325000Y-25905000D01*
G75*
G02*
X121475000Y-25755000I150000J0D01*
G01*
X123225000Y-25755000D01*
G75*
G02*
X123375000Y-25905000I0J-150000D01*
G01*
X123375000Y-26205000D01*
G75*
G02*
X123225000Y-26355000I-150000J0D01*
G01*
X121475000Y-26355000D01*
G75*
G02*
X121325000Y-26205000I0J150000D01*
G01*
G37*
G36*
G01*
X121325000Y-24935000D02*
X121325000Y-24635000D01*
G75*
G02*
X121475000Y-24485000I150000J0D01*
G01*
X123225000Y-24485000D01*
G75*
G02*
X123375000Y-24635000I0J-150000D01*
G01*
X123375000Y-24935000D01*
G75*
G02*
X123225000Y-25085000I-150000J0D01*
G01*
X121475000Y-25085000D01*
G75*
G02*
X121325000Y-24935000I0J150000D01*
G01*
G37*
G36*
G01*
X144000000Y-20840000D02*
X144000000Y-20540000D01*
G75*
G02*
X144150000Y-20390000I150000J0D01*
G01*
X145800000Y-20390000D01*
G75*
G02*
X145950000Y-20540000I0J-150000D01*
G01*
X145950000Y-20840000D01*
G75*
G02*
X145800000Y-20990000I-150000J0D01*
G01*
X144150000Y-20990000D01*
G75*
G02*
X144000000Y-20840000I0J150000D01*
G01*
G37*
G36*
G01*
X144000000Y-22110000D02*
X144000000Y-21810000D01*
G75*
G02*
X144150000Y-21660000I150000J0D01*
G01*
X145800000Y-21660000D01*
G75*
G02*
X145950000Y-21810000I0J-150000D01*
G01*
X145950000Y-22110000D01*
G75*
G02*
X145800000Y-22260000I-150000J0D01*
G01*
X144150000Y-22260000D01*
G75*
G02*
X144000000Y-22110000I0J150000D01*
G01*
G37*
G36*
G01*
X144000000Y-23380000D02*
X144000000Y-23080000D01*
G75*
G02*
X144150000Y-22930000I150000J0D01*
G01*
X145800000Y-22930000D01*
G75*
G02*
X145950000Y-23080000I0J-150000D01*
G01*
X145950000Y-23380000D01*
G75*
G02*
X145800000Y-23530000I-150000J0D01*
G01*
X144150000Y-23530000D01*
G75*
G02*
X144000000Y-23380000I0J150000D01*
G01*
G37*
G36*
G01*
X144000000Y-24650000D02*
X144000000Y-24350000D01*
G75*
G02*
X144150000Y-24200000I150000J0D01*
G01*
X145800000Y-24200000D01*
G75*
G02*
X145950000Y-24350000I0J-150000D01*
G01*
X145950000Y-24650000D01*
G75*
G02*
X145800000Y-24800000I-150000J0D01*
G01*
X144150000Y-24800000D01*
G75*
G02*
X144000000Y-24650000I0J150000D01*
G01*
G37*
G36*
G01*
X144000000Y-25920000D02*
X144000000Y-25620000D01*
G75*
G02*
X144150000Y-25470000I150000J0D01*
G01*
X145800000Y-25470000D01*
G75*
G02*
X145950000Y-25620000I0J-150000D01*
G01*
X145950000Y-25920000D01*
G75*
G02*
X145800000Y-26070000I-150000J0D01*
G01*
X144150000Y-26070000D01*
G75*
G02*
X144000000Y-25920000I0J150000D01*
G01*
G37*
G36*
G01*
X144000000Y-27190000D02*
X144000000Y-26890000D01*
G75*
G02*
X144150000Y-26740000I150000J0D01*
G01*
X145800000Y-26740000D01*
G75*
G02*
X145950000Y-26890000I0J-150000D01*
G01*
X145950000Y-27190000D01*
G75*
G02*
X145800000Y-27340000I-150000J0D01*
G01*
X144150000Y-27340000D01*
G75*
G02*
X144000000Y-27190000I0J150000D01*
G01*
G37*
G36*
G01*
X144000000Y-28460000D02*
X144000000Y-28160000D01*
G75*
G02*
X144150000Y-28010000I150000J0D01*
G01*
X145800000Y-28010000D01*
G75*
G02*
X145950000Y-28160000I0J-150000D01*
G01*
X145950000Y-28460000D01*
G75*
G02*
X145800000Y-28610000I-150000J0D01*
G01*
X144150000Y-28610000D01*
G75*
G02*
X144000000Y-28460000I0J150000D01*
G01*
G37*
G36*
G01*
X139050000Y-28460000D02*
X139050000Y-28160000D01*
G75*
G02*
X139200000Y-28010000I150000J0D01*
G01*
X140850000Y-28010000D01*
G75*
G02*
X141000000Y-28160000I0J-150000D01*
G01*
X141000000Y-28460000D01*
G75*
G02*
X140850000Y-28610000I-150000J0D01*
G01*
X139200000Y-28610000D01*
G75*
G02*
X139050000Y-28460000I0J150000D01*
G01*
G37*
G36*
G01*
X139050000Y-27190000D02*
X139050000Y-26890000D01*
G75*
G02*
X139200000Y-26740000I150000J0D01*
G01*
X140850000Y-26740000D01*
G75*
G02*
X141000000Y-26890000I0J-150000D01*
G01*
X141000000Y-27190000D01*
G75*
G02*
X140850000Y-27340000I-150000J0D01*
G01*
X139200000Y-27340000D01*
G75*
G02*
X139050000Y-27190000I0J150000D01*
G01*
G37*
G36*
G01*
X139050000Y-25920000D02*
X139050000Y-25620000D01*
G75*
G02*
X139200000Y-25470000I150000J0D01*
G01*
X140850000Y-25470000D01*
G75*
G02*
X141000000Y-25620000I0J-150000D01*
G01*
X141000000Y-25920000D01*
G75*
G02*
X140850000Y-26070000I-150000J0D01*
G01*
X139200000Y-26070000D01*
G75*
G02*
X139050000Y-25920000I0J150000D01*
G01*
G37*
G36*
G01*
X139050000Y-24650000D02*
X139050000Y-24350000D01*
G75*
G02*
X139200000Y-24200000I150000J0D01*
G01*
X140850000Y-24200000D01*
G75*
G02*
X141000000Y-24350000I0J-150000D01*
G01*
X141000000Y-24650000D01*
G75*
G02*
X140850000Y-24800000I-150000J0D01*
G01*
X139200000Y-24800000D01*
G75*
G02*
X139050000Y-24650000I0J150000D01*
G01*
G37*
G36*
G01*
X139050000Y-23380000D02*
X139050000Y-23080000D01*
G75*
G02*
X139200000Y-22930000I150000J0D01*
G01*
X140850000Y-22930000D01*
G75*
G02*
X141000000Y-23080000I0J-150000D01*
G01*
X141000000Y-23380000D01*
G75*
G02*
X140850000Y-23530000I-150000J0D01*
G01*
X139200000Y-23530000D01*
G75*
G02*
X139050000Y-23380000I0J150000D01*
G01*
G37*
G36*
G01*
X139050000Y-22110000D02*
X139050000Y-21810000D01*
G75*
G02*
X139200000Y-21660000I150000J0D01*
G01*
X140850000Y-21660000D01*
G75*
G02*
X141000000Y-21810000I0J-150000D01*
G01*
X141000000Y-22110000D01*
G75*
G02*
X140850000Y-22260000I-150000J0D01*
G01*
X139200000Y-22260000D01*
G75*
G02*
X139050000Y-22110000I0J150000D01*
G01*
G37*
G36*
G01*
X139050000Y-20840000D02*
X139050000Y-20540000D01*
G75*
G02*
X139200000Y-20390000I150000J0D01*
G01*
X140850000Y-20390000D01*
G75*
G02*
X141000000Y-20540000I0J-150000D01*
G01*
X141000000Y-20840000D01*
G75*
G02*
X140850000Y-20990000I-150000J0D01*
G01*
X139200000Y-20990000D01*
G75*
G02*
X139050000Y-20840000I0J150000D01*
G01*
G37*
G36*
G01*
X144000000Y-36340000D02*
X144000000Y-36040000D01*
G75*
G02*
X144150000Y-35890000I150000J0D01*
G01*
X145800000Y-35890000D01*
G75*
G02*
X145950000Y-36040000I0J-150000D01*
G01*
X145950000Y-36340000D01*
G75*
G02*
X145800000Y-36490000I-150000J0D01*
G01*
X144150000Y-36490000D01*
G75*
G02*
X144000000Y-36340000I0J150000D01*
G01*
G37*
G36*
G01*
X144000000Y-37610000D02*
X144000000Y-37310000D01*
G75*
G02*
X144150000Y-37160000I150000J0D01*
G01*
X145800000Y-37160000D01*
G75*
G02*
X145950000Y-37310000I0J-150000D01*
G01*
X145950000Y-37610000D01*
G75*
G02*
X145800000Y-37760000I-150000J0D01*
G01*
X144150000Y-37760000D01*
G75*
G02*
X144000000Y-37610000I0J150000D01*
G01*
G37*
G36*
G01*
X144000000Y-38880000D02*
X144000000Y-38580000D01*
G75*
G02*
X144150000Y-38430000I150000J0D01*
G01*
X145800000Y-38430000D01*
G75*
G02*
X145950000Y-38580000I0J-150000D01*
G01*
X145950000Y-38880000D01*
G75*
G02*
X145800000Y-39030000I-150000J0D01*
G01*
X144150000Y-39030000D01*
G75*
G02*
X144000000Y-38880000I0J150000D01*
G01*
G37*
G36*
G01*
X144000000Y-40150000D02*
X144000000Y-39850000D01*
G75*
G02*
X144150000Y-39700000I150000J0D01*
G01*
X145800000Y-39700000D01*
G75*
G02*
X145950000Y-39850000I0J-150000D01*
G01*
X145950000Y-40150000D01*
G75*
G02*
X145800000Y-40300000I-150000J0D01*
G01*
X144150000Y-40300000D01*
G75*
G02*
X144000000Y-40150000I0J150000D01*
G01*
G37*
G36*
G01*
X144000000Y-41420000D02*
X144000000Y-41120000D01*
G75*
G02*
X144150000Y-40970000I150000J0D01*
G01*
X145800000Y-40970000D01*
G75*
G02*
X145950000Y-41120000I0J-150000D01*
G01*
X145950000Y-41420000D01*
G75*
G02*
X145800000Y-41570000I-150000J0D01*
G01*
X144150000Y-41570000D01*
G75*
G02*
X144000000Y-41420000I0J150000D01*
G01*
G37*
G36*
G01*
X144000000Y-42690000D02*
X144000000Y-42390000D01*
G75*
G02*
X144150000Y-42240000I150000J0D01*
G01*
X145800000Y-42240000D01*
G75*
G02*
X145950000Y-42390000I0J-150000D01*
G01*
X145950000Y-42690000D01*
G75*
G02*
X145800000Y-42840000I-150000J0D01*
G01*
X144150000Y-42840000D01*
G75*
G02*
X144000000Y-42690000I0J150000D01*
G01*
G37*
G36*
G01*
X144000000Y-43960000D02*
X144000000Y-43660000D01*
G75*
G02*
X144150000Y-43510000I150000J0D01*
G01*
X145800000Y-43510000D01*
G75*
G02*
X145950000Y-43660000I0J-150000D01*
G01*
X145950000Y-43960000D01*
G75*
G02*
X145800000Y-44110000I-150000J0D01*
G01*
X144150000Y-44110000D01*
G75*
G02*
X144000000Y-43960000I0J150000D01*
G01*
G37*
G36*
G01*
X139050000Y-43960000D02*
X139050000Y-43660000D01*
G75*
G02*
X139200000Y-43510000I150000J0D01*
G01*
X140850000Y-43510000D01*
G75*
G02*
X141000000Y-43660000I0J-150000D01*
G01*
X141000000Y-43960000D01*
G75*
G02*
X140850000Y-44110000I-150000J0D01*
G01*
X139200000Y-44110000D01*
G75*
G02*
X139050000Y-43960000I0J150000D01*
G01*
G37*
G36*
G01*
X139050000Y-42690000D02*
X139050000Y-42390000D01*
G75*
G02*
X139200000Y-42240000I150000J0D01*
G01*
X140850000Y-42240000D01*
G75*
G02*
X141000000Y-42390000I0J-150000D01*
G01*
X141000000Y-42690000D01*
G75*
G02*
X140850000Y-42840000I-150000J0D01*
G01*
X139200000Y-42840000D01*
G75*
G02*
X139050000Y-42690000I0J150000D01*
G01*
G37*
G36*
G01*
X139050000Y-41420000D02*
X139050000Y-41120000D01*
G75*
G02*
X139200000Y-40970000I150000J0D01*
G01*
X140850000Y-40970000D01*
G75*
G02*
X141000000Y-41120000I0J-150000D01*
G01*
X141000000Y-41420000D01*
G75*
G02*
X140850000Y-41570000I-150000J0D01*
G01*
X139200000Y-41570000D01*
G75*
G02*
X139050000Y-41420000I0J150000D01*
G01*
G37*
G36*
G01*
X139050000Y-40150000D02*
X139050000Y-39850000D01*
G75*
G02*
X139200000Y-39700000I150000J0D01*
G01*
X140850000Y-39700000D01*
G75*
G02*
X141000000Y-39850000I0J-150000D01*
G01*
X141000000Y-40150000D01*
G75*
G02*
X140850000Y-40300000I-150000J0D01*
G01*
X139200000Y-40300000D01*
G75*
G02*
X139050000Y-40150000I0J150000D01*
G01*
G37*
G36*
G01*
X139050000Y-38880000D02*
X139050000Y-38580000D01*
G75*
G02*
X139200000Y-38430000I150000J0D01*
G01*
X140850000Y-38430000D01*
G75*
G02*
X141000000Y-38580000I0J-150000D01*
G01*
X141000000Y-38880000D01*
G75*
G02*
X140850000Y-39030000I-150000J0D01*
G01*
X139200000Y-39030000D01*
G75*
G02*
X139050000Y-38880000I0J150000D01*
G01*
G37*
G36*
G01*
X139050000Y-37610000D02*
X139050000Y-37310000D01*
G75*
G02*
X139200000Y-37160000I150000J0D01*
G01*
X140850000Y-37160000D01*
G75*
G02*
X141000000Y-37310000I0J-150000D01*
G01*
X141000000Y-37610000D01*
G75*
G02*
X140850000Y-37760000I-150000J0D01*
G01*
X139200000Y-37760000D01*
G75*
G02*
X139050000Y-37610000I0J150000D01*
G01*
G37*
G36*
G01*
X139050000Y-36340000D02*
X139050000Y-36040000D01*
G75*
G02*
X139200000Y-35890000I150000J0D01*
G01*
X140850000Y-35890000D01*
G75*
G02*
X141000000Y-36040000I0J-150000D01*
G01*
X141000000Y-36340000D01*
G75*
G02*
X140850000Y-36490000I-150000J0D01*
G01*
X139200000Y-36490000D01*
G75*
G02*
X139050000Y-36340000I0J150000D01*
G01*
G37*
G36*
G01*
X157000000Y-19705000D02*
X157000000Y-19405000D01*
G75*
G02*
X157150000Y-19255000I150000J0D01*
G01*
X158850000Y-19255000D01*
G75*
G02*
X159000000Y-19405000I0J-150000D01*
G01*
X159000000Y-19705000D01*
G75*
G02*
X158850000Y-19855000I-150000J0D01*
G01*
X157150000Y-19855000D01*
G75*
G02*
X157000000Y-19705000I0J150000D01*
G01*
G37*
G36*
G01*
X157000000Y-20975000D02*
X157000000Y-20675000D01*
G75*
G02*
X157150000Y-20525000I150000J0D01*
G01*
X158850000Y-20525000D01*
G75*
G02*
X159000000Y-20675000I0J-150000D01*
G01*
X159000000Y-20975000D01*
G75*
G02*
X158850000Y-21125000I-150000J0D01*
G01*
X157150000Y-21125000D01*
G75*
G02*
X157000000Y-20975000I0J150000D01*
G01*
G37*
G36*
G01*
X157000000Y-22245000D02*
X157000000Y-21945000D01*
G75*
G02*
X157150000Y-21795000I150000J0D01*
G01*
X158850000Y-21795000D01*
G75*
G02*
X159000000Y-21945000I0J-150000D01*
G01*
X159000000Y-22245000D01*
G75*
G02*
X158850000Y-22395000I-150000J0D01*
G01*
X157150000Y-22395000D01*
G75*
G02*
X157000000Y-22245000I0J150000D01*
G01*
G37*
G36*
G01*
X157000000Y-23515000D02*
X157000000Y-23215000D01*
G75*
G02*
X157150000Y-23065000I150000J0D01*
G01*
X158850000Y-23065000D01*
G75*
G02*
X159000000Y-23215000I0J-150000D01*
G01*
X159000000Y-23515000D01*
G75*
G02*
X158850000Y-23665000I-150000J0D01*
G01*
X157150000Y-23665000D01*
G75*
G02*
X157000000Y-23515000I0J150000D01*
G01*
G37*
G36*
G01*
X157000000Y-24785000D02*
X157000000Y-24485000D01*
G75*
G02*
X157150000Y-24335000I150000J0D01*
G01*
X158850000Y-24335000D01*
G75*
G02*
X159000000Y-24485000I0J-150000D01*
G01*
X159000000Y-24785000D01*
G75*
G02*
X158850000Y-24935000I-150000J0D01*
G01*
X157150000Y-24935000D01*
G75*
G02*
X157000000Y-24785000I0J150000D01*
G01*
G37*
G36*
G01*
X157000000Y-26055000D02*
X157000000Y-25755000D01*
G75*
G02*
X157150000Y-25605000I150000J0D01*
G01*
X158850000Y-25605000D01*
G75*
G02*
X159000000Y-25755000I0J-150000D01*
G01*
X159000000Y-26055000D01*
G75*
G02*
X158850000Y-26205000I-150000J0D01*
G01*
X157150000Y-26205000D01*
G75*
G02*
X157000000Y-26055000I0J150000D01*
G01*
G37*
G36*
G01*
X157000000Y-27325000D02*
X157000000Y-27025000D01*
G75*
G02*
X157150000Y-26875000I150000J0D01*
G01*
X158850000Y-26875000D01*
G75*
G02*
X159000000Y-27025000I0J-150000D01*
G01*
X159000000Y-27325000D01*
G75*
G02*
X158850000Y-27475000I-150000J0D01*
G01*
X157150000Y-27475000D01*
G75*
G02*
X157000000Y-27325000I0J150000D01*
G01*
G37*
G36*
G01*
X157000000Y-28595000D02*
X157000000Y-28295000D01*
G75*
G02*
X157150000Y-28145000I150000J0D01*
G01*
X158850000Y-28145000D01*
G75*
G02*
X159000000Y-28295000I0J-150000D01*
G01*
X159000000Y-28595000D01*
G75*
G02*
X158850000Y-28745000I-150000J0D01*
G01*
X157150000Y-28745000D01*
G75*
G02*
X157000000Y-28595000I0J150000D01*
G01*
G37*
G36*
G01*
X152000000Y-28595000D02*
X152000000Y-28295000D01*
G75*
G02*
X152150000Y-28145000I150000J0D01*
G01*
X153850000Y-28145000D01*
G75*
G02*
X154000000Y-28295000I0J-150000D01*
G01*
X154000000Y-28595000D01*
G75*
G02*
X153850000Y-28745000I-150000J0D01*
G01*
X152150000Y-28745000D01*
G75*
G02*
X152000000Y-28595000I0J150000D01*
G01*
G37*
G36*
G01*
X152000000Y-27325000D02*
X152000000Y-27025000D01*
G75*
G02*
X152150000Y-26875000I150000J0D01*
G01*
X153850000Y-26875000D01*
G75*
G02*
X154000000Y-27025000I0J-150000D01*
G01*
X154000000Y-27325000D01*
G75*
G02*
X153850000Y-27475000I-150000J0D01*
G01*
X152150000Y-27475000D01*
G75*
G02*
X152000000Y-27325000I0J150000D01*
G01*
G37*
G36*
G01*
X152000000Y-26055000D02*
X152000000Y-25755000D01*
G75*
G02*
X152150000Y-25605000I150000J0D01*
G01*
X153850000Y-25605000D01*
G75*
G02*
X154000000Y-25755000I0J-150000D01*
G01*
X154000000Y-26055000D01*
G75*
G02*
X153850000Y-26205000I-150000J0D01*
G01*
X152150000Y-26205000D01*
G75*
G02*
X152000000Y-26055000I0J150000D01*
G01*
G37*
G36*
G01*
X152000000Y-24785000D02*
X152000000Y-24485000D01*
G75*
G02*
X152150000Y-24335000I150000J0D01*
G01*
X153850000Y-24335000D01*
G75*
G02*
X154000000Y-24485000I0J-150000D01*
G01*
X154000000Y-24785000D01*
G75*
G02*
X153850000Y-24935000I-150000J0D01*
G01*
X152150000Y-24935000D01*
G75*
G02*
X152000000Y-24785000I0J150000D01*
G01*
G37*
G36*
G01*
X152000000Y-23515000D02*
X152000000Y-23215000D01*
G75*
G02*
X152150000Y-23065000I150000J0D01*
G01*
X153850000Y-23065000D01*
G75*
G02*
X154000000Y-23215000I0J-150000D01*
G01*
X154000000Y-23515000D01*
G75*
G02*
X153850000Y-23665000I-150000J0D01*
G01*
X152150000Y-23665000D01*
G75*
G02*
X152000000Y-23515000I0J150000D01*
G01*
G37*
G36*
G01*
X152000000Y-22245000D02*
X152000000Y-21945000D01*
G75*
G02*
X152150000Y-21795000I150000J0D01*
G01*
X153850000Y-21795000D01*
G75*
G02*
X154000000Y-21945000I0J-150000D01*
G01*
X154000000Y-22245000D01*
G75*
G02*
X153850000Y-22395000I-150000J0D01*
G01*
X152150000Y-22395000D01*
G75*
G02*
X152000000Y-22245000I0J150000D01*
G01*
G37*
G36*
G01*
X152000000Y-20975000D02*
X152000000Y-20675000D01*
G75*
G02*
X152150000Y-20525000I150000J0D01*
G01*
X153850000Y-20525000D01*
G75*
G02*
X154000000Y-20675000I0J-150000D01*
G01*
X154000000Y-20975000D01*
G75*
G02*
X153850000Y-21125000I-150000J0D01*
G01*
X152150000Y-21125000D01*
G75*
G02*
X152000000Y-20975000I0J150000D01*
G01*
G37*
G36*
G01*
X152000000Y-19705000D02*
X152000000Y-19405000D01*
G75*
G02*
X152150000Y-19255000I150000J0D01*
G01*
X153850000Y-19255000D01*
G75*
G02*
X154000000Y-19405000I0J-150000D01*
G01*
X154000000Y-19705000D01*
G75*
G02*
X153850000Y-19855000I-150000J0D01*
G01*
X152150000Y-19855000D01*
G75*
G02*
X152000000Y-19705000I0J150000D01*
G01*
G37*
G36*
G01*
X157000000Y-36205000D02*
X157000000Y-35905000D01*
G75*
G02*
X157150000Y-35755000I150000J0D01*
G01*
X158850000Y-35755000D01*
G75*
G02*
X159000000Y-35905000I0J-150000D01*
G01*
X159000000Y-36205000D01*
G75*
G02*
X158850000Y-36355000I-150000J0D01*
G01*
X157150000Y-36355000D01*
G75*
G02*
X157000000Y-36205000I0J150000D01*
G01*
G37*
G36*
G01*
X157000000Y-37475000D02*
X157000000Y-37175000D01*
G75*
G02*
X157150000Y-37025000I150000J0D01*
G01*
X158850000Y-37025000D01*
G75*
G02*
X159000000Y-37175000I0J-150000D01*
G01*
X159000000Y-37475000D01*
G75*
G02*
X158850000Y-37625000I-150000J0D01*
G01*
X157150000Y-37625000D01*
G75*
G02*
X157000000Y-37475000I0J150000D01*
G01*
G37*
G36*
G01*
X157000000Y-38745000D02*
X157000000Y-38445000D01*
G75*
G02*
X157150000Y-38295000I150000J0D01*
G01*
X158850000Y-38295000D01*
G75*
G02*
X159000000Y-38445000I0J-150000D01*
G01*
X159000000Y-38745000D01*
G75*
G02*
X158850000Y-38895000I-150000J0D01*
G01*
X157150000Y-38895000D01*
G75*
G02*
X157000000Y-38745000I0J150000D01*
G01*
G37*
G36*
G01*
X157000000Y-40015000D02*
X157000000Y-39715000D01*
G75*
G02*
X157150000Y-39565000I150000J0D01*
G01*
X158850000Y-39565000D01*
G75*
G02*
X159000000Y-39715000I0J-150000D01*
G01*
X159000000Y-40015000D01*
G75*
G02*
X158850000Y-40165000I-150000J0D01*
G01*
X157150000Y-40165000D01*
G75*
G02*
X157000000Y-40015000I0J150000D01*
G01*
G37*
G36*
G01*
X157000000Y-41285000D02*
X157000000Y-40985000D01*
G75*
G02*
X157150000Y-40835000I150000J0D01*
G01*
X158850000Y-40835000D01*
G75*
G02*
X159000000Y-40985000I0J-150000D01*
G01*
X159000000Y-41285000D01*
G75*
G02*
X158850000Y-41435000I-150000J0D01*
G01*
X157150000Y-41435000D01*
G75*
G02*
X157000000Y-41285000I0J150000D01*
G01*
G37*
G36*
G01*
X157000000Y-42555000D02*
X157000000Y-42255000D01*
G75*
G02*
X157150000Y-42105000I150000J0D01*
G01*
X158850000Y-42105000D01*
G75*
G02*
X159000000Y-42255000I0J-150000D01*
G01*
X159000000Y-42555000D01*
G75*
G02*
X158850000Y-42705000I-150000J0D01*
G01*
X157150000Y-42705000D01*
G75*
G02*
X157000000Y-42555000I0J150000D01*
G01*
G37*
G36*
G01*
X157000000Y-43825000D02*
X157000000Y-43525000D01*
G75*
G02*
X157150000Y-43375000I150000J0D01*
G01*
X158850000Y-43375000D01*
G75*
G02*
X159000000Y-43525000I0J-150000D01*
G01*
X159000000Y-43825000D01*
G75*
G02*
X158850000Y-43975000I-150000J0D01*
G01*
X157150000Y-43975000D01*
G75*
G02*
X157000000Y-43825000I0J150000D01*
G01*
G37*
G36*
G01*
X157000000Y-45095000D02*
X157000000Y-44795000D01*
G75*
G02*
X157150000Y-44645000I150000J0D01*
G01*
X158850000Y-44645000D01*
G75*
G02*
X159000000Y-44795000I0J-150000D01*
G01*
X159000000Y-45095000D01*
G75*
G02*
X158850000Y-45245000I-150000J0D01*
G01*
X157150000Y-45245000D01*
G75*
G02*
X157000000Y-45095000I0J150000D01*
G01*
G37*
G36*
G01*
X152000000Y-45095000D02*
X152000000Y-44795000D01*
G75*
G02*
X152150000Y-44645000I150000J0D01*
G01*
X153850000Y-44645000D01*
G75*
G02*
X154000000Y-44795000I0J-150000D01*
G01*
X154000000Y-45095000D01*
G75*
G02*
X153850000Y-45245000I-150000J0D01*
G01*
X152150000Y-45245000D01*
G75*
G02*
X152000000Y-45095000I0J150000D01*
G01*
G37*
G36*
G01*
X152000000Y-43825000D02*
X152000000Y-43525000D01*
G75*
G02*
X152150000Y-43375000I150000J0D01*
G01*
X153850000Y-43375000D01*
G75*
G02*
X154000000Y-43525000I0J-150000D01*
G01*
X154000000Y-43825000D01*
G75*
G02*
X153850000Y-43975000I-150000J0D01*
G01*
X152150000Y-43975000D01*
G75*
G02*
X152000000Y-43825000I0J150000D01*
G01*
G37*
G36*
G01*
X152000000Y-42555000D02*
X152000000Y-42255000D01*
G75*
G02*
X152150000Y-42105000I150000J0D01*
G01*
X153850000Y-42105000D01*
G75*
G02*
X154000000Y-42255000I0J-150000D01*
G01*
X154000000Y-42555000D01*
G75*
G02*
X153850000Y-42705000I-150000J0D01*
G01*
X152150000Y-42705000D01*
G75*
G02*
X152000000Y-42555000I0J150000D01*
G01*
G37*
G36*
G01*
X152000000Y-41285000D02*
X152000000Y-40985000D01*
G75*
G02*
X152150000Y-40835000I150000J0D01*
G01*
X153850000Y-40835000D01*
G75*
G02*
X154000000Y-40985000I0J-150000D01*
G01*
X154000000Y-41285000D01*
G75*
G02*
X153850000Y-41435000I-150000J0D01*
G01*
X152150000Y-41435000D01*
G75*
G02*
X152000000Y-41285000I0J150000D01*
G01*
G37*
G36*
G01*
X152000000Y-40015000D02*
X152000000Y-39715000D01*
G75*
G02*
X152150000Y-39565000I150000J0D01*
G01*
X153850000Y-39565000D01*
G75*
G02*
X154000000Y-39715000I0J-150000D01*
G01*
X154000000Y-40015000D01*
G75*
G02*
X153850000Y-40165000I-150000J0D01*
G01*
X152150000Y-40165000D01*
G75*
G02*
X152000000Y-40015000I0J150000D01*
G01*
G37*
G36*
G01*
X152000000Y-38745000D02*
X152000000Y-38445000D01*
G75*
G02*
X152150000Y-38295000I150000J0D01*
G01*
X153850000Y-38295000D01*
G75*
G02*
X154000000Y-38445000I0J-150000D01*
G01*
X154000000Y-38745000D01*
G75*
G02*
X153850000Y-38895000I-150000J0D01*
G01*
X152150000Y-38895000D01*
G75*
G02*
X152000000Y-38745000I0J150000D01*
G01*
G37*
G36*
G01*
X152000000Y-37475000D02*
X152000000Y-37175000D01*
G75*
G02*
X152150000Y-37025000I150000J0D01*
G01*
X153850000Y-37025000D01*
G75*
G02*
X154000000Y-37175000I0J-150000D01*
G01*
X154000000Y-37475000D01*
G75*
G02*
X153850000Y-37625000I-150000J0D01*
G01*
X152150000Y-37625000D01*
G75*
G02*
X152000000Y-37475000I0J150000D01*
G01*
G37*
G36*
G01*
X152000000Y-36205000D02*
X152000000Y-35905000D01*
G75*
G02*
X152150000Y-35755000I150000J0D01*
G01*
X153850000Y-35755000D01*
G75*
G02*
X154000000Y-35905000I0J-150000D01*
G01*
X154000000Y-36205000D01*
G75*
G02*
X153850000Y-36355000I-150000J0D01*
G01*
X152150000Y-36355000D01*
G75*
G02*
X152000000Y-36205000I0J150000D01*
G01*
G37*
G36*
G01*
X168000000Y-28205000D02*
X168000000Y-27905000D01*
G75*
G02*
X168150000Y-27755000I150000J0D01*
G01*
X169850000Y-27755000D01*
G75*
G02*
X170000000Y-27905000I0J-150000D01*
G01*
X170000000Y-28205000D01*
G75*
G02*
X169850000Y-28355000I-150000J0D01*
G01*
X168150000Y-28355000D01*
G75*
G02*
X168000000Y-28205000I0J150000D01*
G01*
G37*
G36*
G01*
X168000000Y-29475000D02*
X168000000Y-29175000D01*
G75*
G02*
X168150000Y-29025000I150000J0D01*
G01*
X169850000Y-29025000D01*
G75*
G02*
X170000000Y-29175000I0J-150000D01*
G01*
X170000000Y-29475000D01*
G75*
G02*
X169850000Y-29625000I-150000J0D01*
G01*
X168150000Y-29625000D01*
G75*
G02*
X168000000Y-29475000I0J150000D01*
G01*
G37*
G36*
G01*
X168000000Y-30745000D02*
X168000000Y-30445000D01*
G75*
G02*
X168150000Y-30295000I150000J0D01*
G01*
X169850000Y-30295000D01*
G75*
G02*
X170000000Y-30445000I0J-150000D01*
G01*
X170000000Y-30745000D01*
G75*
G02*
X169850000Y-30895000I-150000J0D01*
G01*
X168150000Y-30895000D01*
G75*
G02*
X168000000Y-30745000I0J150000D01*
G01*
G37*
G36*
G01*
X168000000Y-32015000D02*
X168000000Y-31715000D01*
G75*
G02*
X168150000Y-31565000I150000J0D01*
G01*
X169850000Y-31565000D01*
G75*
G02*
X170000000Y-31715000I0J-150000D01*
G01*
X170000000Y-32015000D01*
G75*
G02*
X169850000Y-32165000I-150000J0D01*
G01*
X168150000Y-32165000D01*
G75*
G02*
X168000000Y-32015000I0J150000D01*
G01*
G37*
G36*
G01*
X168000000Y-33285000D02*
X168000000Y-32985000D01*
G75*
G02*
X168150000Y-32835000I150000J0D01*
G01*
X169850000Y-32835000D01*
G75*
G02*
X170000000Y-32985000I0J-150000D01*
G01*
X170000000Y-33285000D01*
G75*
G02*
X169850000Y-33435000I-150000J0D01*
G01*
X168150000Y-33435000D01*
G75*
G02*
X168000000Y-33285000I0J150000D01*
G01*
G37*
G36*
G01*
X168000000Y-34555000D02*
X168000000Y-34255000D01*
G75*
G02*
X168150000Y-34105000I150000J0D01*
G01*
X169850000Y-34105000D01*
G75*
G02*
X170000000Y-34255000I0J-150000D01*
G01*
X170000000Y-34555000D01*
G75*
G02*
X169850000Y-34705000I-150000J0D01*
G01*
X168150000Y-34705000D01*
G75*
G02*
X168000000Y-34555000I0J150000D01*
G01*
G37*
G36*
G01*
X168000000Y-35825000D02*
X168000000Y-35525000D01*
G75*
G02*
X168150000Y-35375000I150000J0D01*
G01*
X169850000Y-35375000D01*
G75*
G02*
X170000000Y-35525000I0J-150000D01*
G01*
X170000000Y-35825000D01*
G75*
G02*
X169850000Y-35975000I-150000J0D01*
G01*
X168150000Y-35975000D01*
G75*
G02*
X168000000Y-35825000I0J150000D01*
G01*
G37*
G36*
G01*
X168000000Y-37095000D02*
X168000000Y-36795000D01*
G75*
G02*
X168150000Y-36645000I150000J0D01*
G01*
X169850000Y-36645000D01*
G75*
G02*
X170000000Y-36795000I0J-150000D01*
G01*
X170000000Y-37095000D01*
G75*
G02*
X169850000Y-37245000I-150000J0D01*
G01*
X168150000Y-37245000D01*
G75*
G02*
X168000000Y-37095000I0J150000D01*
G01*
G37*
G36*
G01*
X163000000Y-37095000D02*
X163000000Y-36795000D01*
G75*
G02*
X163150000Y-36645000I150000J0D01*
G01*
X164850000Y-36645000D01*
G75*
G02*
X165000000Y-36795000I0J-150000D01*
G01*
X165000000Y-37095000D01*
G75*
G02*
X164850000Y-37245000I-150000J0D01*
G01*
X163150000Y-37245000D01*
G75*
G02*
X163000000Y-37095000I0J150000D01*
G01*
G37*
G36*
G01*
X163000000Y-35825000D02*
X163000000Y-35525000D01*
G75*
G02*
X163150000Y-35375000I150000J0D01*
G01*
X164850000Y-35375000D01*
G75*
G02*
X165000000Y-35525000I0J-150000D01*
G01*
X165000000Y-35825000D01*
G75*
G02*
X164850000Y-35975000I-150000J0D01*
G01*
X163150000Y-35975000D01*
G75*
G02*
X163000000Y-35825000I0J150000D01*
G01*
G37*
G36*
G01*
X163000000Y-34555000D02*
X163000000Y-34255000D01*
G75*
G02*
X163150000Y-34105000I150000J0D01*
G01*
X164850000Y-34105000D01*
G75*
G02*
X165000000Y-34255000I0J-150000D01*
G01*
X165000000Y-34555000D01*
G75*
G02*
X164850000Y-34705000I-150000J0D01*
G01*
X163150000Y-34705000D01*
G75*
G02*
X163000000Y-34555000I0J150000D01*
G01*
G37*
G36*
G01*
X163000000Y-33285000D02*
X163000000Y-32985000D01*
G75*
G02*
X163150000Y-32835000I150000J0D01*
G01*
X164850000Y-32835000D01*
G75*
G02*
X165000000Y-32985000I0J-150000D01*
G01*
X165000000Y-33285000D01*
G75*
G02*
X164850000Y-33435000I-150000J0D01*
G01*
X163150000Y-33435000D01*
G75*
G02*
X163000000Y-33285000I0J150000D01*
G01*
G37*
G36*
G01*
X163000000Y-32015000D02*
X163000000Y-31715000D01*
G75*
G02*
X163150000Y-31565000I150000J0D01*
G01*
X164850000Y-31565000D01*
G75*
G02*
X165000000Y-31715000I0J-150000D01*
G01*
X165000000Y-32015000D01*
G75*
G02*
X164850000Y-32165000I-150000J0D01*
G01*
X163150000Y-32165000D01*
G75*
G02*
X163000000Y-32015000I0J150000D01*
G01*
G37*
G36*
G01*
X163000000Y-30745000D02*
X163000000Y-30445000D01*
G75*
G02*
X163150000Y-30295000I150000J0D01*
G01*
X164850000Y-30295000D01*
G75*
G02*
X165000000Y-30445000I0J-150000D01*
G01*
X165000000Y-30745000D01*
G75*
G02*
X164850000Y-30895000I-150000J0D01*
G01*
X163150000Y-30895000D01*
G75*
G02*
X163000000Y-30745000I0J150000D01*
G01*
G37*
G36*
G01*
X163000000Y-29475000D02*
X163000000Y-29175000D01*
G75*
G02*
X163150000Y-29025000I150000J0D01*
G01*
X164850000Y-29025000D01*
G75*
G02*
X165000000Y-29175000I0J-150000D01*
G01*
X165000000Y-29475000D01*
G75*
G02*
X164850000Y-29625000I-150000J0D01*
G01*
X163150000Y-29625000D01*
G75*
G02*
X163000000Y-29475000I0J150000D01*
G01*
G37*
G36*
G01*
X163000000Y-28205000D02*
X163000000Y-27905000D01*
G75*
G02*
X163150000Y-27755000I150000J0D01*
G01*
X164850000Y-27755000D01*
G75*
G02*
X165000000Y-27905000I0J-150000D01*
G01*
X165000000Y-28205000D01*
G75*
G02*
X164850000Y-28355000I-150000J0D01*
G01*
X163150000Y-28355000D01*
G75*
G02*
X163000000Y-28205000I0J150000D01*
G01*
G37*
G36*
G01*
X68340000Y-80230000D02*
X68340000Y-79930000D01*
G75*
G02*
X68490000Y-79780000I150000J0D01*
G01*
X70240000Y-79780000D01*
G75*
G02*
X70390000Y-79930000I0J-150000D01*
G01*
X70390000Y-80230000D01*
G75*
G02*
X70240000Y-80380000I-150000J0D01*
G01*
X68490000Y-80380000D01*
G75*
G02*
X68340000Y-80230000I0J150000D01*
G01*
G37*
G36*
G01*
X68340000Y-81500000D02*
X68340000Y-81200000D01*
G75*
G02*
X68490000Y-81050000I150000J0D01*
G01*
X70240000Y-81050000D01*
G75*
G02*
X70390000Y-81200000I0J-150000D01*
G01*
X70390000Y-81500000D01*
G75*
G02*
X70240000Y-81650000I-150000J0D01*
G01*
X68490000Y-81650000D01*
G75*
G02*
X68340000Y-81500000I0J150000D01*
G01*
G37*
G36*
G01*
X68340000Y-82770000D02*
X68340000Y-82470000D01*
G75*
G02*
X68490000Y-82320000I150000J0D01*
G01*
X70240000Y-82320000D01*
G75*
G02*
X70390000Y-82470000I0J-150000D01*
G01*
X70390000Y-82770000D01*
G75*
G02*
X70240000Y-82920000I-150000J0D01*
G01*
X68490000Y-82920000D01*
G75*
G02*
X68340000Y-82770000I0J150000D01*
G01*
G37*
G36*
G01*
X68340000Y-84040000D02*
X68340000Y-83740000D01*
G75*
G02*
X68490000Y-83590000I150000J0D01*
G01*
X70240000Y-83590000D01*
G75*
G02*
X70390000Y-83740000I0J-150000D01*
G01*
X70390000Y-84040000D01*
G75*
G02*
X70240000Y-84190000I-150000J0D01*
G01*
X68490000Y-84190000D01*
G75*
G02*
X68340000Y-84040000I0J150000D01*
G01*
G37*
G36*
G01*
X68340000Y-85310000D02*
X68340000Y-85010000D01*
G75*
G02*
X68490000Y-84860000I150000J0D01*
G01*
X70240000Y-84860000D01*
G75*
G02*
X70390000Y-85010000I0J-150000D01*
G01*
X70390000Y-85310000D01*
G75*
G02*
X70240000Y-85460000I-150000J0D01*
G01*
X68490000Y-85460000D01*
G75*
G02*
X68340000Y-85310000I0J150000D01*
G01*
G37*
G36*
G01*
X68340000Y-86580000D02*
X68340000Y-86280000D01*
G75*
G02*
X68490000Y-86130000I150000J0D01*
G01*
X70240000Y-86130000D01*
G75*
G02*
X70390000Y-86280000I0J-150000D01*
G01*
X70390000Y-86580000D01*
G75*
G02*
X70240000Y-86730000I-150000J0D01*
G01*
X68490000Y-86730000D01*
G75*
G02*
X68340000Y-86580000I0J150000D01*
G01*
G37*
G36*
G01*
X68340000Y-87850000D02*
X68340000Y-87550000D01*
G75*
G02*
X68490000Y-87400000I150000J0D01*
G01*
X70240000Y-87400000D01*
G75*
G02*
X70390000Y-87550000I0J-150000D01*
G01*
X70390000Y-87850000D01*
G75*
G02*
X70240000Y-88000000I-150000J0D01*
G01*
X68490000Y-88000000D01*
G75*
G02*
X68340000Y-87850000I0J150000D01*
G01*
G37*
G36*
G01*
X68340000Y-89120000D02*
X68340000Y-88820000D01*
G75*
G02*
X68490000Y-88670000I150000J0D01*
G01*
X70240000Y-88670000D01*
G75*
G02*
X70390000Y-88820000I0J-150000D01*
G01*
X70390000Y-89120000D01*
G75*
G02*
X70240000Y-89270000I-150000J0D01*
G01*
X68490000Y-89270000D01*
G75*
G02*
X68340000Y-89120000I0J150000D01*
G01*
G37*
G36*
G01*
X68340000Y-90390000D02*
X68340000Y-90090000D01*
G75*
G02*
X68490000Y-89940000I150000J0D01*
G01*
X70240000Y-89940000D01*
G75*
G02*
X70390000Y-90090000I0J-150000D01*
G01*
X70390000Y-90390000D01*
G75*
G02*
X70240000Y-90540000I-150000J0D01*
G01*
X68490000Y-90540000D01*
G75*
G02*
X68340000Y-90390000I0J150000D01*
G01*
G37*
G36*
G01*
X68340000Y-91660000D02*
X68340000Y-91360000D01*
G75*
G02*
X68490000Y-91210000I150000J0D01*
G01*
X70240000Y-91210000D01*
G75*
G02*
X70390000Y-91360000I0J-150000D01*
G01*
X70390000Y-91660000D01*
G75*
G02*
X70240000Y-91810000I-150000J0D01*
G01*
X68490000Y-91810000D01*
G75*
G02*
X68340000Y-91660000I0J150000D01*
G01*
G37*
G36*
G01*
X59040000Y-91660000D02*
X59040000Y-91360000D01*
G75*
G02*
X59190000Y-91210000I150000J0D01*
G01*
X60940000Y-91210000D01*
G75*
G02*
X61090000Y-91360000I0J-150000D01*
G01*
X61090000Y-91660000D01*
G75*
G02*
X60940000Y-91810000I-150000J0D01*
G01*
X59190000Y-91810000D01*
G75*
G02*
X59040000Y-91660000I0J150000D01*
G01*
G37*
G36*
G01*
X59040000Y-90390000D02*
X59040000Y-90090000D01*
G75*
G02*
X59190000Y-89940000I150000J0D01*
G01*
X60940000Y-89940000D01*
G75*
G02*
X61090000Y-90090000I0J-150000D01*
G01*
X61090000Y-90390000D01*
G75*
G02*
X60940000Y-90540000I-150000J0D01*
G01*
X59190000Y-90540000D01*
G75*
G02*
X59040000Y-90390000I0J150000D01*
G01*
G37*
G36*
G01*
X59040000Y-89120000D02*
X59040000Y-88820000D01*
G75*
G02*
X59190000Y-88670000I150000J0D01*
G01*
X60940000Y-88670000D01*
G75*
G02*
X61090000Y-88820000I0J-150000D01*
G01*
X61090000Y-89120000D01*
G75*
G02*
X60940000Y-89270000I-150000J0D01*
G01*
X59190000Y-89270000D01*
G75*
G02*
X59040000Y-89120000I0J150000D01*
G01*
G37*
G36*
G01*
X59040000Y-87850000D02*
X59040000Y-87550000D01*
G75*
G02*
X59190000Y-87400000I150000J0D01*
G01*
X60940000Y-87400000D01*
G75*
G02*
X61090000Y-87550000I0J-150000D01*
G01*
X61090000Y-87850000D01*
G75*
G02*
X60940000Y-88000000I-150000J0D01*
G01*
X59190000Y-88000000D01*
G75*
G02*
X59040000Y-87850000I0J150000D01*
G01*
G37*
G36*
G01*
X59040000Y-86580000D02*
X59040000Y-86280000D01*
G75*
G02*
X59190000Y-86130000I150000J0D01*
G01*
X60940000Y-86130000D01*
G75*
G02*
X61090000Y-86280000I0J-150000D01*
G01*
X61090000Y-86580000D01*
G75*
G02*
X60940000Y-86730000I-150000J0D01*
G01*
X59190000Y-86730000D01*
G75*
G02*
X59040000Y-86580000I0J150000D01*
G01*
G37*
G36*
G01*
X59040000Y-85310000D02*
X59040000Y-85010000D01*
G75*
G02*
X59190000Y-84860000I150000J0D01*
G01*
X60940000Y-84860000D01*
G75*
G02*
X61090000Y-85010000I0J-150000D01*
G01*
X61090000Y-85310000D01*
G75*
G02*
X60940000Y-85460000I-150000J0D01*
G01*
X59190000Y-85460000D01*
G75*
G02*
X59040000Y-85310000I0J150000D01*
G01*
G37*
G36*
G01*
X59040000Y-84040000D02*
X59040000Y-83740000D01*
G75*
G02*
X59190000Y-83590000I150000J0D01*
G01*
X60940000Y-83590000D01*
G75*
G02*
X61090000Y-83740000I0J-150000D01*
G01*
X61090000Y-84040000D01*
G75*
G02*
X60940000Y-84190000I-150000J0D01*
G01*
X59190000Y-84190000D01*
G75*
G02*
X59040000Y-84040000I0J150000D01*
G01*
G37*
G36*
G01*
X59040000Y-82770000D02*
X59040000Y-82470000D01*
G75*
G02*
X59190000Y-82320000I150000J0D01*
G01*
X60940000Y-82320000D01*
G75*
G02*
X61090000Y-82470000I0J-150000D01*
G01*
X61090000Y-82770000D01*
G75*
G02*
X60940000Y-82920000I-150000J0D01*
G01*
X59190000Y-82920000D01*
G75*
G02*
X59040000Y-82770000I0J150000D01*
G01*
G37*
G36*
G01*
X59040000Y-81500000D02*
X59040000Y-81200000D01*
G75*
G02*
X59190000Y-81050000I150000J0D01*
G01*
X60940000Y-81050000D01*
G75*
G02*
X61090000Y-81200000I0J-150000D01*
G01*
X61090000Y-81500000D01*
G75*
G02*
X60940000Y-81650000I-150000J0D01*
G01*
X59190000Y-81650000D01*
G75*
G02*
X59040000Y-81500000I0J150000D01*
G01*
G37*
G36*
G01*
X59040000Y-80230000D02*
X59040000Y-79930000D01*
G75*
G02*
X59190000Y-79780000I150000J0D01*
G01*
X60940000Y-79780000D01*
G75*
G02*
X61090000Y-79930000I0J-150000D01*
G01*
X61090000Y-80230000D01*
G75*
G02*
X60940000Y-80380000I-150000J0D01*
G01*
X59190000Y-80380000D01*
G75*
G02*
X59040000Y-80230000I0J150000D01*
G01*
G37*
G36*
G01*
X81250000Y-80230000D02*
X81250000Y-79930000D01*
G75*
G02*
X81400000Y-79780000I150000J0D01*
G01*
X83150000Y-79780000D01*
G75*
G02*
X83300000Y-79930000I0J-150000D01*
G01*
X83300000Y-80230000D01*
G75*
G02*
X83150000Y-80380000I-150000J0D01*
G01*
X81400000Y-80380000D01*
G75*
G02*
X81250000Y-80230000I0J150000D01*
G01*
G37*
G36*
G01*
X81250000Y-81500000D02*
X81250000Y-81200000D01*
G75*
G02*
X81400000Y-81050000I150000J0D01*
G01*
X83150000Y-81050000D01*
G75*
G02*
X83300000Y-81200000I0J-150000D01*
G01*
X83300000Y-81500000D01*
G75*
G02*
X83150000Y-81650000I-150000J0D01*
G01*
X81400000Y-81650000D01*
G75*
G02*
X81250000Y-81500000I0J150000D01*
G01*
G37*
G36*
G01*
X81250000Y-82770000D02*
X81250000Y-82470000D01*
G75*
G02*
X81400000Y-82320000I150000J0D01*
G01*
X83150000Y-82320000D01*
G75*
G02*
X83300000Y-82470000I0J-150000D01*
G01*
X83300000Y-82770000D01*
G75*
G02*
X83150000Y-82920000I-150000J0D01*
G01*
X81400000Y-82920000D01*
G75*
G02*
X81250000Y-82770000I0J150000D01*
G01*
G37*
G36*
G01*
X81250000Y-84040000D02*
X81250000Y-83740000D01*
G75*
G02*
X81400000Y-83590000I150000J0D01*
G01*
X83150000Y-83590000D01*
G75*
G02*
X83300000Y-83740000I0J-150000D01*
G01*
X83300000Y-84040000D01*
G75*
G02*
X83150000Y-84190000I-150000J0D01*
G01*
X81400000Y-84190000D01*
G75*
G02*
X81250000Y-84040000I0J150000D01*
G01*
G37*
G36*
G01*
X81250000Y-85310000D02*
X81250000Y-85010000D01*
G75*
G02*
X81400000Y-84860000I150000J0D01*
G01*
X83150000Y-84860000D01*
G75*
G02*
X83300000Y-85010000I0J-150000D01*
G01*
X83300000Y-85310000D01*
G75*
G02*
X83150000Y-85460000I-150000J0D01*
G01*
X81400000Y-85460000D01*
G75*
G02*
X81250000Y-85310000I0J150000D01*
G01*
G37*
G36*
G01*
X81250000Y-86580000D02*
X81250000Y-86280000D01*
G75*
G02*
X81400000Y-86130000I150000J0D01*
G01*
X83150000Y-86130000D01*
G75*
G02*
X83300000Y-86280000I0J-150000D01*
G01*
X83300000Y-86580000D01*
G75*
G02*
X83150000Y-86730000I-150000J0D01*
G01*
X81400000Y-86730000D01*
G75*
G02*
X81250000Y-86580000I0J150000D01*
G01*
G37*
G36*
G01*
X81250000Y-87850000D02*
X81250000Y-87550000D01*
G75*
G02*
X81400000Y-87400000I150000J0D01*
G01*
X83150000Y-87400000D01*
G75*
G02*
X83300000Y-87550000I0J-150000D01*
G01*
X83300000Y-87850000D01*
G75*
G02*
X83150000Y-88000000I-150000J0D01*
G01*
X81400000Y-88000000D01*
G75*
G02*
X81250000Y-87850000I0J150000D01*
G01*
G37*
G36*
G01*
X81250000Y-89120000D02*
X81250000Y-88820000D01*
G75*
G02*
X81400000Y-88670000I150000J0D01*
G01*
X83150000Y-88670000D01*
G75*
G02*
X83300000Y-88820000I0J-150000D01*
G01*
X83300000Y-89120000D01*
G75*
G02*
X83150000Y-89270000I-150000J0D01*
G01*
X81400000Y-89270000D01*
G75*
G02*
X81250000Y-89120000I0J150000D01*
G01*
G37*
G36*
G01*
X81250000Y-90390000D02*
X81250000Y-90090000D01*
G75*
G02*
X81400000Y-89940000I150000J0D01*
G01*
X83150000Y-89940000D01*
G75*
G02*
X83300000Y-90090000I0J-150000D01*
G01*
X83300000Y-90390000D01*
G75*
G02*
X83150000Y-90540000I-150000J0D01*
G01*
X81400000Y-90540000D01*
G75*
G02*
X81250000Y-90390000I0J150000D01*
G01*
G37*
G36*
G01*
X81250000Y-91660000D02*
X81250000Y-91360000D01*
G75*
G02*
X81400000Y-91210000I150000J0D01*
G01*
X83150000Y-91210000D01*
G75*
G02*
X83300000Y-91360000I0J-150000D01*
G01*
X83300000Y-91660000D01*
G75*
G02*
X83150000Y-91810000I-150000J0D01*
G01*
X81400000Y-91810000D01*
G75*
G02*
X81250000Y-91660000I0J150000D01*
G01*
G37*
G36*
G01*
X71950000Y-91660000D02*
X71950000Y-91360000D01*
G75*
G02*
X72100000Y-91210000I150000J0D01*
G01*
X73850000Y-91210000D01*
G75*
G02*
X74000000Y-91360000I0J-150000D01*
G01*
X74000000Y-91660000D01*
G75*
G02*
X73850000Y-91810000I-150000J0D01*
G01*
X72100000Y-91810000D01*
G75*
G02*
X71950000Y-91660000I0J150000D01*
G01*
G37*
G36*
G01*
X71950000Y-90390000D02*
X71950000Y-90090000D01*
G75*
G02*
X72100000Y-89940000I150000J0D01*
G01*
X73850000Y-89940000D01*
G75*
G02*
X74000000Y-90090000I0J-150000D01*
G01*
X74000000Y-90390000D01*
G75*
G02*
X73850000Y-90540000I-150000J0D01*
G01*
X72100000Y-90540000D01*
G75*
G02*
X71950000Y-90390000I0J150000D01*
G01*
G37*
G36*
G01*
X71950000Y-89120000D02*
X71950000Y-88820000D01*
G75*
G02*
X72100000Y-88670000I150000J0D01*
G01*
X73850000Y-88670000D01*
G75*
G02*
X74000000Y-88820000I0J-150000D01*
G01*
X74000000Y-89120000D01*
G75*
G02*
X73850000Y-89270000I-150000J0D01*
G01*
X72100000Y-89270000D01*
G75*
G02*
X71950000Y-89120000I0J150000D01*
G01*
G37*
G36*
G01*
X71950000Y-87850000D02*
X71950000Y-87550000D01*
G75*
G02*
X72100000Y-87400000I150000J0D01*
G01*
X73850000Y-87400000D01*
G75*
G02*
X74000000Y-87550000I0J-150000D01*
G01*
X74000000Y-87850000D01*
G75*
G02*
X73850000Y-88000000I-150000J0D01*
G01*
X72100000Y-88000000D01*
G75*
G02*
X71950000Y-87850000I0J150000D01*
G01*
G37*
G36*
G01*
X71950000Y-86580000D02*
X71950000Y-86280000D01*
G75*
G02*
X72100000Y-86130000I150000J0D01*
G01*
X73850000Y-86130000D01*
G75*
G02*
X74000000Y-86280000I0J-150000D01*
G01*
X74000000Y-86580000D01*
G75*
G02*
X73850000Y-86730000I-150000J0D01*
G01*
X72100000Y-86730000D01*
G75*
G02*
X71950000Y-86580000I0J150000D01*
G01*
G37*
G36*
G01*
X71950000Y-85310000D02*
X71950000Y-85010000D01*
G75*
G02*
X72100000Y-84860000I150000J0D01*
G01*
X73850000Y-84860000D01*
G75*
G02*
X74000000Y-85010000I0J-150000D01*
G01*
X74000000Y-85310000D01*
G75*
G02*
X73850000Y-85460000I-150000J0D01*
G01*
X72100000Y-85460000D01*
G75*
G02*
X71950000Y-85310000I0J150000D01*
G01*
G37*
G36*
G01*
X71950000Y-84040000D02*
X71950000Y-83740000D01*
G75*
G02*
X72100000Y-83590000I150000J0D01*
G01*
X73850000Y-83590000D01*
G75*
G02*
X74000000Y-83740000I0J-150000D01*
G01*
X74000000Y-84040000D01*
G75*
G02*
X73850000Y-84190000I-150000J0D01*
G01*
X72100000Y-84190000D01*
G75*
G02*
X71950000Y-84040000I0J150000D01*
G01*
G37*
G36*
G01*
X71950000Y-82770000D02*
X71950000Y-82470000D01*
G75*
G02*
X72100000Y-82320000I150000J0D01*
G01*
X73850000Y-82320000D01*
G75*
G02*
X74000000Y-82470000I0J-150000D01*
G01*
X74000000Y-82770000D01*
G75*
G02*
X73850000Y-82920000I-150000J0D01*
G01*
X72100000Y-82920000D01*
G75*
G02*
X71950000Y-82770000I0J150000D01*
G01*
G37*
G36*
G01*
X71950000Y-81500000D02*
X71950000Y-81200000D01*
G75*
G02*
X72100000Y-81050000I150000J0D01*
G01*
X73850000Y-81050000D01*
G75*
G02*
X74000000Y-81200000I0J-150000D01*
G01*
X74000000Y-81500000D01*
G75*
G02*
X73850000Y-81650000I-150000J0D01*
G01*
X72100000Y-81650000D01*
G75*
G02*
X71950000Y-81500000I0J150000D01*
G01*
G37*
G36*
G01*
X71950000Y-80230000D02*
X71950000Y-79930000D01*
G75*
G02*
X72100000Y-79780000I150000J0D01*
G01*
X73850000Y-79780000D01*
G75*
G02*
X74000000Y-79930000I0J-150000D01*
G01*
X74000000Y-80230000D01*
G75*
G02*
X73850000Y-80380000I-150000J0D01*
G01*
X72100000Y-80380000D01*
G75*
G02*
X71950000Y-80230000I0J150000D01*
G01*
G37*
G36*
G01*
X94160000Y-80230000D02*
X94160000Y-79930000D01*
G75*
G02*
X94310000Y-79780000I150000J0D01*
G01*
X96060000Y-79780000D01*
G75*
G02*
X96210000Y-79930000I0J-150000D01*
G01*
X96210000Y-80230000D01*
G75*
G02*
X96060000Y-80380000I-150000J0D01*
G01*
X94310000Y-80380000D01*
G75*
G02*
X94160000Y-80230000I0J150000D01*
G01*
G37*
G36*
G01*
X94160000Y-81500000D02*
X94160000Y-81200000D01*
G75*
G02*
X94310000Y-81050000I150000J0D01*
G01*
X96060000Y-81050000D01*
G75*
G02*
X96210000Y-81200000I0J-150000D01*
G01*
X96210000Y-81500000D01*
G75*
G02*
X96060000Y-81650000I-150000J0D01*
G01*
X94310000Y-81650000D01*
G75*
G02*
X94160000Y-81500000I0J150000D01*
G01*
G37*
G36*
G01*
X94160000Y-82770000D02*
X94160000Y-82470000D01*
G75*
G02*
X94310000Y-82320000I150000J0D01*
G01*
X96060000Y-82320000D01*
G75*
G02*
X96210000Y-82470000I0J-150000D01*
G01*
X96210000Y-82770000D01*
G75*
G02*
X96060000Y-82920000I-150000J0D01*
G01*
X94310000Y-82920000D01*
G75*
G02*
X94160000Y-82770000I0J150000D01*
G01*
G37*
G36*
G01*
X94160000Y-84040000D02*
X94160000Y-83740000D01*
G75*
G02*
X94310000Y-83590000I150000J0D01*
G01*
X96060000Y-83590000D01*
G75*
G02*
X96210000Y-83740000I0J-150000D01*
G01*
X96210000Y-84040000D01*
G75*
G02*
X96060000Y-84190000I-150000J0D01*
G01*
X94310000Y-84190000D01*
G75*
G02*
X94160000Y-84040000I0J150000D01*
G01*
G37*
G36*
G01*
X94160000Y-85310000D02*
X94160000Y-85010000D01*
G75*
G02*
X94310000Y-84860000I150000J0D01*
G01*
X96060000Y-84860000D01*
G75*
G02*
X96210000Y-85010000I0J-150000D01*
G01*
X96210000Y-85310000D01*
G75*
G02*
X96060000Y-85460000I-150000J0D01*
G01*
X94310000Y-85460000D01*
G75*
G02*
X94160000Y-85310000I0J150000D01*
G01*
G37*
G36*
G01*
X94160000Y-86580000D02*
X94160000Y-86280000D01*
G75*
G02*
X94310000Y-86130000I150000J0D01*
G01*
X96060000Y-86130000D01*
G75*
G02*
X96210000Y-86280000I0J-150000D01*
G01*
X96210000Y-86580000D01*
G75*
G02*
X96060000Y-86730000I-150000J0D01*
G01*
X94310000Y-86730000D01*
G75*
G02*
X94160000Y-86580000I0J150000D01*
G01*
G37*
G36*
G01*
X94160000Y-87850000D02*
X94160000Y-87550000D01*
G75*
G02*
X94310000Y-87400000I150000J0D01*
G01*
X96060000Y-87400000D01*
G75*
G02*
X96210000Y-87550000I0J-150000D01*
G01*
X96210000Y-87850000D01*
G75*
G02*
X96060000Y-88000000I-150000J0D01*
G01*
X94310000Y-88000000D01*
G75*
G02*
X94160000Y-87850000I0J150000D01*
G01*
G37*
G36*
G01*
X94160000Y-89120000D02*
X94160000Y-88820000D01*
G75*
G02*
X94310000Y-88670000I150000J0D01*
G01*
X96060000Y-88670000D01*
G75*
G02*
X96210000Y-88820000I0J-150000D01*
G01*
X96210000Y-89120000D01*
G75*
G02*
X96060000Y-89270000I-150000J0D01*
G01*
X94310000Y-89270000D01*
G75*
G02*
X94160000Y-89120000I0J150000D01*
G01*
G37*
G36*
G01*
X94160000Y-90390000D02*
X94160000Y-90090000D01*
G75*
G02*
X94310000Y-89940000I150000J0D01*
G01*
X96060000Y-89940000D01*
G75*
G02*
X96210000Y-90090000I0J-150000D01*
G01*
X96210000Y-90390000D01*
G75*
G02*
X96060000Y-90540000I-150000J0D01*
G01*
X94310000Y-90540000D01*
G75*
G02*
X94160000Y-90390000I0J150000D01*
G01*
G37*
G36*
G01*
X94160000Y-91660000D02*
X94160000Y-91360000D01*
G75*
G02*
X94310000Y-91210000I150000J0D01*
G01*
X96060000Y-91210000D01*
G75*
G02*
X96210000Y-91360000I0J-150000D01*
G01*
X96210000Y-91660000D01*
G75*
G02*
X96060000Y-91810000I-150000J0D01*
G01*
X94310000Y-91810000D01*
G75*
G02*
X94160000Y-91660000I0J150000D01*
G01*
G37*
G36*
G01*
X84860000Y-91660000D02*
X84860000Y-91360000D01*
G75*
G02*
X85010000Y-91210000I150000J0D01*
G01*
X86760000Y-91210000D01*
G75*
G02*
X86910000Y-91360000I0J-150000D01*
G01*
X86910000Y-91660000D01*
G75*
G02*
X86760000Y-91810000I-150000J0D01*
G01*
X85010000Y-91810000D01*
G75*
G02*
X84860000Y-91660000I0J150000D01*
G01*
G37*
G36*
G01*
X84860000Y-90390000D02*
X84860000Y-90090000D01*
G75*
G02*
X85010000Y-89940000I150000J0D01*
G01*
X86760000Y-89940000D01*
G75*
G02*
X86910000Y-90090000I0J-150000D01*
G01*
X86910000Y-90390000D01*
G75*
G02*
X86760000Y-90540000I-150000J0D01*
G01*
X85010000Y-90540000D01*
G75*
G02*
X84860000Y-90390000I0J150000D01*
G01*
G37*
G36*
G01*
X84860000Y-89120000D02*
X84860000Y-88820000D01*
G75*
G02*
X85010000Y-88670000I150000J0D01*
G01*
X86760000Y-88670000D01*
G75*
G02*
X86910000Y-88820000I0J-150000D01*
G01*
X86910000Y-89120000D01*
G75*
G02*
X86760000Y-89270000I-150000J0D01*
G01*
X85010000Y-89270000D01*
G75*
G02*
X84860000Y-89120000I0J150000D01*
G01*
G37*
G36*
G01*
X84860000Y-87850000D02*
X84860000Y-87550000D01*
G75*
G02*
X85010000Y-87400000I150000J0D01*
G01*
X86760000Y-87400000D01*
G75*
G02*
X86910000Y-87550000I0J-150000D01*
G01*
X86910000Y-87850000D01*
G75*
G02*
X86760000Y-88000000I-150000J0D01*
G01*
X85010000Y-88000000D01*
G75*
G02*
X84860000Y-87850000I0J150000D01*
G01*
G37*
G36*
G01*
X84860000Y-86580000D02*
X84860000Y-86280000D01*
G75*
G02*
X85010000Y-86130000I150000J0D01*
G01*
X86760000Y-86130000D01*
G75*
G02*
X86910000Y-86280000I0J-150000D01*
G01*
X86910000Y-86580000D01*
G75*
G02*
X86760000Y-86730000I-150000J0D01*
G01*
X85010000Y-86730000D01*
G75*
G02*
X84860000Y-86580000I0J150000D01*
G01*
G37*
G36*
G01*
X84860000Y-85310000D02*
X84860000Y-85010000D01*
G75*
G02*
X85010000Y-84860000I150000J0D01*
G01*
X86760000Y-84860000D01*
G75*
G02*
X86910000Y-85010000I0J-150000D01*
G01*
X86910000Y-85310000D01*
G75*
G02*
X86760000Y-85460000I-150000J0D01*
G01*
X85010000Y-85460000D01*
G75*
G02*
X84860000Y-85310000I0J150000D01*
G01*
G37*
G36*
G01*
X84860000Y-84040000D02*
X84860000Y-83740000D01*
G75*
G02*
X85010000Y-83590000I150000J0D01*
G01*
X86760000Y-83590000D01*
G75*
G02*
X86910000Y-83740000I0J-150000D01*
G01*
X86910000Y-84040000D01*
G75*
G02*
X86760000Y-84190000I-150000J0D01*
G01*
X85010000Y-84190000D01*
G75*
G02*
X84860000Y-84040000I0J150000D01*
G01*
G37*
G36*
G01*
X84860000Y-82770000D02*
X84860000Y-82470000D01*
G75*
G02*
X85010000Y-82320000I150000J0D01*
G01*
X86760000Y-82320000D01*
G75*
G02*
X86910000Y-82470000I0J-150000D01*
G01*
X86910000Y-82770000D01*
G75*
G02*
X86760000Y-82920000I-150000J0D01*
G01*
X85010000Y-82920000D01*
G75*
G02*
X84860000Y-82770000I0J150000D01*
G01*
G37*
G36*
G01*
X84860000Y-81500000D02*
X84860000Y-81200000D01*
G75*
G02*
X85010000Y-81050000I150000J0D01*
G01*
X86760000Y-81050000D01*
G75*
G02*
X86910000Y-81200000I0J-150000D01*
G01*
X86910000Y-81500000D01*
G75*
G02*
X86760000Y-81650000I-150000J0D01*
G01*
X85010000Y-81650000D01*
G75*
G02*
X84860000Y-81500000I0J150000D01*
G01*
G37*
G36*
G01*
X84860000Y-80230000D02*
X84860000Y-79930000D01*
G75*
G02*
X85010000Y-79780000I150000J0D01*
G01*
X86760000Y-79780000D01*
G75*
G02*
X86910000Y-79930000I0J-150000D01*
G01*
X86910000Y-80230000D01*
G75*
G02*
X86760000Y-80380000I-150000J0D01*
G01*
X85010000Y-80380000D01*
G75*
G02*
X84860000Y-80230000I0J150000D01*
G01*
G37*
D24*
X110620000Y-37000000D03*
X110620000Y-29380000D03*
X103000000Y-29380000D03*
D18*
X103000000Y-37000000D03*
D16*
X24160000Y-57460000D03*
X21620000Y-57460000D03*
X19080000Y-57460000D03*
X16540000Y-57460000D03*
X14000000Y-57460000D03*
X24160000Y-60000000D03*
X21620000Y-60000000D03*
X19080000Y-60000000D03*
X16540000Y-60000000D03*
G36*
G01*
X14600000Y-60850000D02*
X13400000Y-60850000D01*
G75*
G02*
X13150000Y-60600000I0J250000D01*
G01*
X13150000Y-59400000D01*
G75*
G02*
X13400000Y-59150000I250000J0D01*
G01*
X14600000Y-59150000D01*
G75*
G02*
X14850000Y-59400000I0J-250000D01*
G01*
X14850000Y-60600000D01*
G75*
G02*
X14600000Y-60850000I-250000J0D01*
G01*
G37*
X24160000Y-94460000D03*
X21620000Y-94460000D03*
X19080000Y-94460000D03*
X16540000Y-94460000D03*
X14000000Y-94460000D03*
X24160000Y-97000000D03*
X21620000Y-97000000D03*
X19080000Y-97000000D03*
X16540000Y-97000000D03*
G36*
G01*
X14600000Y-97850000D02*
X13400000Y-97850000D01*
G75*
G02*
X13150000Y-97600000I0J250000D01*
G01*
X13150000Y-96400000D01*
G75*
G02*
X13400000Y-96150000I250000J0D01*
G01*
X14600000Y-96150000D01*
G75*
G02*
X14850000Y-96400000I0J-250000D01*
G01*
X14850000Y-97600000D01*
G75*
G02*
X14600000Y-97850000I-250000J0D01*
G01*
G37*
G36*
G01*
X104770000Y-53945000D02*
X104770000Y-52995000D01*
G75*
G02*
X105020000Y-52745000I250000J0D01*
G01*
X105520000Y-52745000D01*
G75*
G02*
X105770000Y-52995000I0J-250000D01*
G01*
X105770000Y-53945000D01*
G75*
G02*
X105520000Y-54195000I-250000J0D01*
G01*
X105020000Y-54195000D01*
G75*
G02*
X104770000Y-53945000I0J250000D01*
G01*
G37*
G36*
G01*
X102870000Y-53945000D02*
X102870000Y-52995000D01*
G75*
G02*
X103120000Y-52745000I250000J0D01*
G01*
X103620000Y-52745000D01*
G75*
G02*
X103870000Y-52995000I0J-250000D01*
G01*
X103870000Y-53945000D01*
G75*
G02*
X103620000Y-54195000I-250000J0D01*
G01*
X103120000Y-54195000D01*
G75*
G02*
X102870000Y-53945000I0J250000D01*
G01*
G37*
D25*
X64650000Y-107500000D03*
D26*
X67190000Y-107500000D03*
X69730000Y-107500000D03*
X72270000Y-107500000D03*
X74810000Y-107500000D03*
X77350000Y-107500000D03*
D11*
X122500000Y-6100000D03*
D10*
X122500000Y-8640000D03*
G36*
G01*
X30450000Y-15025000D02*
X30450000Y-15975000D01*
G75*
G02*
X30200000Y-16225000I-250000J0D01*
G01*
X29700000Y-16225000D01*
G75*
G02*
X29450000Y-15975000I0J250000D01*
G01*
X29450000Y-15025000D01*
G75*
G02*
X29700000Y-14775000I250000J0D01*
G01*
X30200000Y-14775000D01*
G75*
G02*
X30450000Y-15025000I0J-250000D01*
G01*
G37*
G36*
G01*
X28550000Y-15025000D02*
X28550000Y-15975000D01*
G75*
G02*
X28300000Y-16225000I-250000J0D01*
G01*
X27800000Y-16225000D01*
G75*
G02*
X27550000Y-15975000I0J250000D01*
G01*
X27550000Y-15025000D01*
G75*
G02*
X27800000Y-14775000I250000J0D01*
G01*
X28300000Y-14775000D01*
G75*
G02*
X28550000Y-15025000I0J-250000D01*
G01*
G37*
M02*
