G04 #@! TF.GenerationSoftware,KiCad,Pcbnew,(5.1.8)-1*
G04 #@! TF.CreationDate,2020-11-27T14:02:34+01:00*
G04 #@! TF.ProjectId,Project_GCM,50726f6a-6563-4745-9f47-434d2e6b6963,V5.0*
G04 #@! TF.SameCoordinates,PX40d9900PY1e84800*
G04 #@! TF.FileFunction,Soldermask,Bot*
G04 #@! TF.FilePolarity,Negative*
%FSLAX46Y46*%
G04 Gerber Fmt 4.6, Leading zero omitted, Abs format (unit mm)*
G04 Created by KiCad (PCBNEW (5.1.8)-1) date 2020-11-27 14:02:34*
%MOMM*%
%LPD*%
G01*
G04 APERTURE LIST*
%ADD10C,3.500000*%
%ADD11C,1.750000*%
%ADD12C,2.000000*%
%ADD13C,1.300000*%
%ADD14C,1.700000*%
%ADD15O,1.700000X1.700000*%
%ADD16R,1.700000X1.700000*%
%ADD17O,1.600000X1.600000*%
%ADD18R,1.600000X1.600000*%
%ADD19R,1.500000X0.600000*%
%ADD20C,3.000000*%
%ADD21C,1.650000*%
%ADD22R,1.650000X1.650000*%
%ADD23C,1.600000*%
G04 APERTURE END LIST*
G36*
G01*
X121830000Y-34755000D02*
X121830000Y-35055000D01*
G75*
G02*
X121680000Y-35205000I-150000J0D01*
G01*
X119980000Y-35205000D01*
G75*
G02*
X119830000Y-35055000I0J150000D01*
G01*
X119830000Y-34755000D01*
G75*
G02*
X119980000Y-34605000I150000J0D01*
G01*
X121680000Y-34605000D01*
G75*
G02*
X121830000Y-34755000I0J-150000D01*
G01*
G37*
G36*
G01*
X121830000Y-36025000D02*
X121830000Y-36325000D01*
G75*
G02*
X121680000Y-36475000I-150000J0D01*
G01*
X119980000Y-36475000D01*
G75*
G02*
X119830000Y-36325000I0J150000D01*
G01*
X119830000Y-36025000D01*
G75*
G02*
X119980000Y-35875000I150000J0D01*
G01*
X121680000Y-35875000D01*
G75*
G02*
X121830000Y-36025000I0J-150000D01*
G01*
G37*
G36*
G01*
X121830000Y-37295000D02*
X121830000Y-37595000D01*
G75*
G02*
X121680000Y-37745000I-150000J0D01*
G01*
X119980000Y-37745000D01*
G75*
G02*
X119830000Y-37595000I0J150000D01*
G01*
X119830000Y-37295000D01*
G75*
G02*
X119980000Y-37145000I150000J0D01*
G01*
X121680000Y-37145000D01*
G75*
G02*
X121830000Y-37295000I0J-150000D01*
G01*
G37*
G36*
G01*
X121830000Y-38565000D02*
X121830000Y-38865000D01*
G75*
G02*
X121680000Y-39015000I-150000J0D01*
G01*
X119980000Y-39015000D01*
G75*
G02*
X119830000Y-38865000I0J150000D01*
G01*
X119830000Y-38565000D01*
G75*
G02*
X119980000Y-38415000I150000J0D01*
G01*
X121680000Y-38415000D01*
G75*
G02*
X121830000Y-38565000I0J-150000D01*
G01*
G37*
G36*
G01*
X121830000Y-39835000D02*
X121830000Y-40135000D01*
G75*
G02*
X121680000Y-40285000I-150000J0D01*
G01*
X119980000Y-40285000D01*
G75*
G02*
X119830000Y-40135000I0J150000D01*
G01*
X119830000Y-39835000D01*
G75*
G02*
X119980000Y-39685000I150000J0D01*
G01*
X121680000Y-39685000D01*
G75*
G02*
X121830000Y-39835000I0J-150000D01*
G01*
G37*
G36*
G01*
X121830000Y-41105000D02*
X121830000Y-41405000D01*
G75*
G02*
X121680000Y-41555000I-150000J0D01*
G01*
X119980000Y-41555000D01*
G75*
G02*
X119830000Y-41405000I0J150000D01*
G01*
X119830000Y-41105000D01*
G75*
G02*
X119980000Y-40955000I150000J0D01*
G01*
X121680000Y-40955000D01*
G75*
G02*
X121830000Y-41105000I0J-150000D01*
G01*
G37*
G36*
G01*
X121830000Y-42375000D02*
X121830000Y-42675000D01*
G75*
G02*
X121680000Y-42825000I-150000J0D01*
G01*
X119980000Y-42825000D01*
G75*
G02*
X119830000Y-42675000I0J150000D01*
G01*
X119830000Y-42375000D01*
G75*
G02*
X119980000Y-42225000I150000J0D01*
G01*
X121680000Y-42225000D01*
G75*
G02*
X121830000Y-42375000I0J-150000D01*
G01*
G37*
G36*
G01*
X121830000Y-43645000D02*
X121830000Y-43945000D01*
G75*
G02*
X121680000Y-44095000I-150000J0D01*
G01*
X119980000Y-44095000D01*
G75*
G02*
X119830000Y-43945000I0J150000D01*
G01*
X119830000Y-43645000D01*
G75*
G02*
X119980000Y-43495000I150000J0D01*
G01*
X121680000Y-43495000D01*
G75*
G02*
X121830000Y-43645000I0J-150000D01*
G01*
G37*
G36*
G01*
X126830000Y-43645000D02*
X126830000Y-43945000D01*
G75*
G02*
X126680000Y-44095000I-150000J0D01*
G01*
X124980000Y-44095000D01*
G75*
G02*
X124830000Y-43945000I0J150000D01*
G01*
X124830000Y-43645000D01*
G75*
G02*
X124980000Y-43495000I150000J0D01*
G01*
X126680000Y-43495000D01*
G75*
G02*
X126830000Y-43645000I0J-150000D01*
G01*
G37*
G36*
G01*
X126830000Y-42375000D02*
X126830000Y-42675000D01*
G75*
G02*
X126680000Y-42825000I-150000J0D01*
G01*
X124980000Y-42825000D01*
G75*
G02*
X124830000Y-42675000I0J150000D01*
G01*
X124830000Y-42375000D01*
G75*
G02*
X124980000Y-42225000I150000J0D01*
G01*
X126680000Y-42225000D01*
G75*
G02*
X126830000Y-42375000I0J-150000D01*
G01*
G37*
G36*
G01*
X126830000Y-41105000D02*
X126830000Y-41405000D01*
G75*
G02*
X126680000Y-41555000I-150000J0D01*
G01*
X124980000Y-41555000D01*
G75*
G02*
X124830000Y-41405000I0J150000D01*
G01*
X124830000Y-41105000D01*
G75*
G02*
X124980000Y-40955000I150000J0D01*
G01*
X126680000Y-40955000D01*
G75*
G02*
X126830000Y-41105000I0J-150000D01*
G01*
G37*
G36*
G01*
X126830000Y-39835000D02*
X126830000Y-40135000D01*
G75*
G02*
X126680000Y-40285000I-150000J0D01*
G01*
X124980000Y-40285000D01*
G75*
G02*
X124830000Y-40135000I0J150000D01*
G01*
X124830000Y-39835000D01*
G75*
G02*
X124980000Y-39685000I150000J0D01*
G01*
X126680000Y-39685000D01*
G75*
G02*
X126830000Y-39835000I0J-150000D01*
G01*
G37*
G36*
G01*
X126830000Y-38565000D02*
X126830000Y-38865000D01*
G75*
G02*
X126680000Y-39015000I-150000J0D01*
G01*
X124980000Y-39015000D01*
G75*
G02*
X124830000Y-38865000I0J150000D01*
G01*
X124830000Y-38565000D01*
G75*
G02*
X124980000Y-38415000I150000J0D01*
G01*
X126680000Y-38415000D01*
G75*
G02*
X126830000Y-38565000I0J-150000D01*
G01*
G37*
G36*
G01*
X126830000Y-37295000D02*
X126830000Y-37595000D01*
G75*
G02*
X126680000Y-37745000I-150000J0D01*
G01*
X124980000Y-37745000D01*
G75*
G02*
X124830000Y-37595000I0J150000D01*
G01*
X124830000Y-37295000D01*
G75*
G02*
X124980000Y-37145000I150000J0D01*
G01*
X126680000Y-37145000D01*
G75*
G02*
X126830000Y-37295000I0J-150000D01*
G01*
G37*
G36*
G01*
X126830000Y-36025000D02*
X126830000Y-36325000D01*
G75*
G02*
X126680000Y-36475000I-150000J0D01*
G01*
X124980000Y-36475000D01*
G75*
G02*
X124830000Y-36325000I0J150000D01*
G01*
X124830000Y-36025000D01*
G75*
G02*
X124980000Y-35875000I150000J0D01*
G01*
X126680000Y-35875000D01*
G75*
G02*
X126830000Y-36025000I0J-150000D01*
G01*
G37*
G36*
G01*
X126830000Y-34755000D02*
X126830000Y-35055000D01*
G75*
G02*
X126680000Y-35205000I-150000J0D01*
G01*
X124980000Y-35205000D01*
G75*
G02*
X124830000Y-35055000I0J150000D01*
G01*
X124830000Y-34755000D01*
G75*
G02*
X124980000Y-34605000I150000J0D01*
G01*
X126680000Y-34605000D01*
G75*
G02*
X126830000Y-34755000I0J-150000D01*
G01*
G37*
D10*
X22320000Y-2920000D03*
X111220000Y-2920000D03*
D11*
X27400000Y-10540000D03*
X29940000Y-10540000D03*
X32480000Y-10540000D03*
X35020000Y-10540000D03*
X37560000Y-10540000D03*
X40100000Y-10540000D03*
X42640000Y-10540000D03*
X45180000Y-10540000D03*
X47720000Y-10540000D03*
X50260000Y-10540000D03*
X52800000Y-10540000D03*
X55340000Y-10540000D03*
X57880000Y-10540000D03*
X60420000Y-10540000D03*
X62960000Y-10540000D03*
X65500000Y-10540000D03*
X68040000Y-10540000D03*
X70580000Y-10540000D03*
X73120000Y-10540000D03*
X75660000Y-10540000D03*
X78200000Y-10540000D03*
X80740000Y-10540000D03*
X83280000Y-10540000D03*
X85820000Y-10540000D03*
X88360000Y-10540000D03*
X90900000Y-10540000D03*
X93440000Y-10540000D03*
X95980000Y-10540000D03*
X98520000Y-10540000D03*
X101060000Y-10540000D03*
X103600000Y-10540000D03*
X106140000Y-10540000D03*
X27400000Y-8000000D03*
X29940000Y-8000000D03*
X32480000Y-8000000D03*
X35020000Y-8000000D03*
X37560000Y-8000000D03*
X40100000Y-8000000D03*
X42640000Y-8000000D03*
X45180000Y-8000000D03*
X47720000Y-8000000D03*
X50260000Y-8000000D03*
X52800000Y-8000000D03*
X55340000Y-8000000D03*
X57880000Y-8000000D03*
X60420000Y-8000000D03*
X62960000Y-8000000D03*
X65500000Y-8000000D03*
X68040000Y-8000000D03*
X70580000Y-8000000D03*
X73120000Y-8000000D03*
X75660000Y-8000000D03*
X78200000Y-8000000D03*
X80740000Y-8000000D03*
X83280000Y-8000000D03*
X85820000Y-8000000D03*
X88360000Y-8000000D03*
X90900000Y-8000000D03*
X93440000Y-8000000D03*
X95980000Y-8000000D03*
X98520000Y-8000000D03*
X101060000Y-8000000D03*
X103600000Y-8000000D03*
X106140000Y-8000000D03*
X27400000Y-5460000D03*
X29940000Y-5460000D03*
X32480000Y-5460000D03*
X35020000Y-5460000D03*
X37560000Y-5460000D03*
X40100000Y-5460000D03*
X42640000Y-5460000D03*
X45180000Y-5460000D03*
X47720000Y-5460000D03*
X50260000Y-5460000D03*
X52800000Y-5460000D03*
X55340000Y-5460000D03*
X57880000Y-5460000D03*
X60420000Y-5460000D03*
X62960000Y-5460000D03*
X65500000Y-5460000D03*
X68040000Y-5460000D03*
X70580000Y-5460000D03*
X73120000Y-5460000D03*
X75660000Y-5460000D03*
X78200000Y-5460000D03*
X80740000Y-5460000D03*
X83280000Y-5460000D03*
X85820000Y-5460000D03*
X88360000Y-5460000D03*
X90900000Y-5460000D03*
X93440000Y-5460000D03*
X95980000Y-5460000D03*
X98520000Y-5460000D03*
X101060000Y-5460000D03*
X103600000Y-5460000D03*
X106140000Y-5460000D03*
D12*
X44190000Y-83400000D03*
X44190000Y-78540000D03*
X41650000Y-83400000D03*
X41650000Y-78540000D03*
X39110000Y-83400000D03*
X39110000Y-78540000D03*
X36570000Y-83400000D03*
X36570000Y-78540000D03*
X34030000Y-83400000D03*
X34030000Y-78540000D03*
X31490000Y-83400000D03*
X31490000Y-78540000D03*
X28950000Y-83400000D03*
X28950000Y-78540000D03*
X26410000Y-83400000D03*
X26410000Y-78540000D03*
X23870000Y-83400000D03*
X23870000Y-78540000D03*
X21330000Y-83400000D03*
X21330000Y-78540000D03*
X18790000Y-83400000D03*
X18790000Y-78540000D03*
X16250000Y-83400000D03*
X16250000Y-78540000D03*
X13710000Y-83400000D03*
X13710000Y-78540000D03*
X11170000Y-83400000D03*
X11170000Y-78540000D03*
X8640000Y-83400000D03*
X8630000Y-78540000D03*
X44190000Y-46400000D03*
X44190000Y-41540000D03*
X41650000Y-46400000D03*
X41650000Y-41540000D03*
X39110000Y-46400000D03*
X39110000Y-41540000D03*
X36570000Y-46400000D03*
X36570000Y-41540000D03*
X34030000Y-46400000D03*
X34030000Y-41540000D03*
X31490000Y-46400000D03*
X31490000Y-41540000D03*
X28950000Y-46400000D03*
X28950000Y-41540000D03*
X26410000Y-46400000D03*
X26410000Y-41540000D03*
X23870000Y-46400000D03*
X23870000Y-41540000D03*
X21330000Y-46400000D03*
X21330000Y-41540000D03*
X18790000Y-46400000D03*
X18790000Y-41540000D03*
X16250000Y-46400000D03*
X16250000Y-41540000D03*
X13710000Y-46400000D03*
X13710000Y-41540000D03*
X11170000Y-46400000D03*
X11170000Y-41540000D03*
X8640000Y-46400000D03*
X8630000Y-41540000D03*
G36*
G01*
X195525000Y-30200000D02*
X196475000Y-30200000D01*
G75*
G02*
X196725000Y-30450000I0J-250000D01*
G01*
X196725000Y-30950000D01*
G75*
G02*
X196475000Y-31200000I-250000J0D01*
G01*
X195525000Y-31200000D01*
G75*
G02*
X195275000Y-30950000I0J250000D01*
G01*
X195275000Y-30450000D01*
G75*
G02*
X195525000Y-30200000I250000J0D01*
G01*
G37*
G36*
G01*
X195525000Y-28300000D02*
X196475000Y-28300000D01*
G75*
G02*
X196725000Y-28550000I0J-250000D01*
G01*
X196725000Y-29050000D01*
G75*
G02*
X196475000Y-29300000I-250000J0D01*
G01*
X195525000Y-29300000D01*
G75*
G02*
X195275000Y-29050000I0J250000D01*
G01*
X195275000Y-28550000D01*
G75*
G02*
X195525000Y-28300000I250000J0D01*
G01*
G37*
G36*
G01*
X199975000Y-15550000D02*
X199025000Y-15550000D01*
G75*
G02*
X198775000Y-15300000I0J250000D01*
G01*
X198775000Y-14800000D01*
G75*
G02*
X199025000Y-14550000I250000J0D01*
G01*
X199975000Y-14550000D01*
G75*
G02*
X200225000Y-14800000I0J-250000D01*
G01*
X200225000Y-15300000D01*
G75*
G02*
X199975000Y-15550000I-250000J0D01*
G01*
G37*
G36*
G01*
X199975000Y-17450000D02*
X199025000Y-17450000D01*
G75*
G02*
X198775000Y-17200000I0J250000D01*
G01*
X198775000Y-16700000D01*
G75*
G02*
X199025000Y-16450000I250000J0D01*
G01*
X199975000Y-16450000D01*
G75*
G02*
X200225000Y-16700000I0J-250000D01*
G01*
X200225000Y-17200000D01*
G75*
G02*
X199975000Y-17450000I-250000J0D01*
G01*
G37*
G36*
G01*
X193025000Y-30200000D02*
X193975000Y-30200000D01*
G75*
G02*
X194225000Y-30450000I0J-250000D01*
G01*
X194225000Y-30950000D01*
G75*
G02*
X193975000Y-31200000I-250000J0D01*
G01*
X193025000Y-31200000D01*
G75*
G02*
X192775000Y-30950000I0J250000D01*
G01*
X192775000Y-30450000D01*
G75*
G02*
X193025000Y-30200000I250000J0D01*
G01*
G37*
G36*
G01*
X193025000Y-28300000D02*
X193975000Y-28300000D01*
G75*
G02*
X194225000Y-28550000I0J-250000D01*
G01*
X194225000Y-29050000D01*
G75*
G02*
X193975000Y-29300000I-250000J0D01*
G01*
X193025000Y-29300000D01*
G75*
G02*
X192775000Y-29050000I0J250000D01*
G01*
X192775000Y-28550000D01*
G75*
G02*
X193025000Y-28300000I250000J0D01*
G01*
G37*
G36*
G01*
X121380000Y-32375000D02*
X121380000Y-33325000D01*
G75*
G02*
X121130000Y-33575000I-250000J0D01*
G01*
X120630000Y-33575000D01*
G75*
G02*
X120380000Y-33325000I0J250000D01*
G01*
X120380000Y-32375000D01*
G75*
G02*
X120630000Y-32125000I250000J0D01*
G01*
X121130000Y-32125000D01*
G75*
G02*
X121380000Y-32375000I0J-250000D01*
G01*
G37*
G36*
G01*
X123280000Y-32375000D02*
X123280000Y-33325000D01*
G75*
G02*
X123030000Y-33575000I-250000J0D01*
G01*
X122530000Y-33575000D01*
G75*
G02*
X122280000Y-33325000I0J250000D01*
G01*
X122280000Y-32375000D01*
G75*
G02*
X122530000Y-32125000I250000J0D01*
G01*
X123030000Y-32125000D01*
G75*
G02*
X123280000Y-32375000I0J-250000D01*
G01*
G37*
G36*
G01*
X134780000Y-32825000D02*
X134780000Y-31875000D01*
G75*
G02*
X135030000Y-31625000I250000J0D01*
G01*
X135530000Y-31625000D01*
G75*
G02*
X135780000Y-31875000I0J-250000D01*
G01*
X135780000Y-32825000D01*
G75*
G02*
X135530000Y-33075000I-250000J0D01*
G01*
X135030000Y-33075000D01*
G75*
G02*
X134780000Y-32825000I0J250000D01*
G01*
G37*
G36*
G01*
X132880000Y-32825000D02*
X132880000Y-31875000D01*
G75*
G02*
X133130000Y-31625000I250000J0D01*
G01*
X133630000Y-31625000D01*
G75*
G02*
X133880000Y-31875000I0J-250000D01*
G01*
X133880000Y-32825000D01*
G75*
G02*
X133630000Y-33075000I-250000J0D01*
G01*
X133130000Y-33075000D01*
G75*
G02*
X132880000Y-32825000I0J250000D01*
G01*
G37*
G36*
G01*
X29580000Y-12885000D02*
X29580000Y-13835000D01*
G75*
G02*
X29330000Y-14085000I-250000J0D01*
G01*
X28830000Y-14085000D01*
G75*
G02*
X28580000Y-13835000I0J250000D01*
G01*
X28580000Y-12885000D01*
G75*
G02*
X28830000Y-12635000I250000J0D01*
G01*
X29330000Y-12635000D01*
G75*
G02*
X29580000Y-12885000I0J-250000D01*
G01*
G37*
G36*
G01*
X31480000Y-12885000D02*
X31480000Y-13835000D01*
G75*
G02*
X31230000Y-14085000I-250000J0D01*
G01*
X30730000Y-14085000D01*
G75*
G02*
X30480000Y-13835000I0J250000D01*
G01*
X30480000Y-12885000D01*
G75*
G02*
X30730000Y-12635000I250000J0D01*
G01*
X31230000Y-12635000D01*
G75*
G02*
X31480000Y-12885000I0J-250000D01*
G01*
G37*
G36*
G01*
X107400000Y-34150001D02*
X107400000Y-32849999D01*
G75*
G02*
X107649999Y-32600000I249999J0D01*
G01*
X108300001Y-32600000D01*
G75*
G02*
X108550000Y-32849999I0J-249999D01*
G01*
X108550000Y-34150001D01*
G75*
G02*
X108300001Y-34400000I-249999J0D01*
G01*
X107649999Y-34400000D01*
G75*
G02*
X107400000Y-34150001I0J249999D01*
G01*
G37*
G36*
G01*
X104450000Y-34150001D02*
X104450000Y-32849999D01*
G75*
G02*
X104699999Y-32600000I249999J0D01*
G01*
X105350001Y-32600000D01*
G75*
G02*
X105600000Y-32849999I0J-249999D01*
G01*
X105600000Y-34150001D01*
G75*
G02*
X105350001Y-34400000I-249999J0D01*
G01*
X104699999Y-34400000D01*
G75*
G02*
X104450000Y-34150001I0J249999D01*
G01*
G37*
G36*
G01*
X24525000Y-29950000D02*
X25475000Y-29950000D01*
G75*
G02*
X25725000Y-30200000I0J-250000D01*
G01*
X25725000Y-30700000D01*
G75*
G02*
X25475000Y-30950000I-250000J0D01*
G01*
X24525000Y-30950000D01*
G75*
G02*
X24275000Y-30700000I0J250000D01*
G01*
X24275000Y-30200000D01*
G75*
G02*
X24525000Y-29950000I250000J0D01*
G01*
G37*
G36*
G01*
X24525000Y-28050000D02*
X25475000Y-28050000D01*
G75*
G02*
X25725000Y-28300000I0J-250000D01*
G01*
X25725000Y-28800000D01*
G75*
G02*
X25475000Y-29050000I-250000J0D01*
G01*
X24525000Y-29050000D01*
G75*
G02*
X24275000Y-28800000I0J250000D01*
G01*
X24275000Y-28300000D01*
G75*
G02*
X24525000Y-28050000I250000J0D01*
G01*
G37*
G36*
G01*
X5025000Y-29950000D02*
X5975000Y-29950000D01*
G75*
G02*
X6225000Y-30200000I0J-250000D01*
G01*
X6225000Y-30700000D01*
G75*
G02*
X5975000Y-30950000I-250000J0D01*
G01*
X5025000Y-30950000D01*
G75*
G02*
X4775000Y-30700000I0J250000D01*
G01*
X4775000Y-30200000D01*
G75*
G02*
X5025000Y-29950000I250000J0D01*
G01*
G37*
G36*
G01*
X5025000Y-28050000D02*
X5975000Y-28050000D01*
G75*
G02*
X6225000Y-28300000I0J-250000D01*
G01*
X6225000Y-28800000D01*
G75*
G02*
X5975000Y-29050000I-250000J0D01*
G01*
X5025000Y-29050000D01*
G75*
G02*
X4775000Y-28800000I0J250000D01*
G01*
X4775000Y-28300000D01*
G75*
G02*
X5025000Y-28050000I250000J0D01*
G01*
G37*
G36*
G01*
X61950000Y-107975000D02*
X61950000Y-107025000D01*
G75*
G02*
X62200000Y-106775000I250000J0D01*
G01*
X62700000Y-106775000D01*
G75*
G02*
X62950000Y-107025000I0J-250000D01*
G01*
X62950000Y-107975000D01*
G75*
G02*
X62700000Y-108225000I-250000J0D01*
G01*
X62200000Y-108225000D01*
G75*
G02*
X61950000Y-107975000I0J250000D01*
G01*
G37*
G36*
G01*
X60050000Y-107975000D02*
X60050000Y-107025000D01*
G75*
G02*
X60300000Y-106775000I250000J0D01*
G01*
X60800000Y-106775000D01*
G75*
G02*
X61050000Y-107025000I0J-250000D01*
G01*
X61050000Y-107975000D01*
G75*
G02*
X60800000Y-108225000I-250000J0D01*
G01*
X60300000Y-108225000D01*
G75*
G02*
X60050000Y-107975000I0J250000D01*
G01*
G37*
G36*
G01*
X185050000Y-8525000D02*
X185050000Y-9475000D01*
G75*
G02*
X184800000Y-9725000I-250000J0D01*
G01*
X184300000Y-9725000D01*
G75*
G02*
X184050000Y-9475000I0J250000D01*
G01*
X184050000Y-8525000D01*
G75*
G02*
X184300000Y-8275000I250000J0D01*
G01*
X184800000Y-8275000D01*
G75*
G02*
X185050000Y-8525000I0J-250000D01*
G01*
G37*
G36*
G01*
X186950000Y-8525000D02*
X186950000Y-9475000D01*
G75*
G02*
X186700000Y-9725000I-250000J0D01*
G01*
X186200000Y-9725000D01*
G75*
G02*
X185950000Y-9475000I0J250000D01*
G01*
X185950000Y-8525000D01*
G75*
G02*
X186200000Y-8275000I250000J0D01*
G01*
X186700000Y-8275000D01*
G75*
G02*
X186950000Y-8525000I0J-250000D01*
G01*
G37*
G36*
G01*
X102475000Y-76550000D02*
X101525000Y-76550000D01*
G75*
G02*
X101275000Y-76300000I0J250000D01*
G01*
X101275000Y-75800000D01*
G75*
G02*
X101525000Y-75550000I250000J0D01*
G01*
X102475000Y-75550000D01*
G75*
G02*
X102725000Y-75800000I0J-250000D01*
G01*
X102725000Y-76300000D01*
G75*
G02*
X102475000Y-76550000I-250000J0D01*
G01*
G37*
G36*
G01*
X102475000Y-78450000D02*
X101525000Y-78450000D01*
G75*
G02*
X101275000Y-78200000I0J250000D01*
G01*
X101275000Y-77700000D01*
G75*
G02*
X101525000Y-77450000I250000J0D01*
G01*
X102475000Y-77450000D01*
G75*
G02*
X102725000Y-77700000I0J-250000D01*
G01*
X102725000Y-78200000D01*
G75*
G02*
X102475000Y-78450000I-250000J0D01*
G01*
G37*
G36*
G01*
X102475000Y-89550000D02*
X101525000Y-89550000D01*
G75*
G02*
X101275000Y-89300000I0J250000D01*
G01*
X101275000Y-88800000D01*
G75*
G02*
X101525000Y-88550000I250000J0D01*
G01*
X102475000Y-88550000D01*
G75*
G02*
X102725000Y-88800000I0J-250000D01*
G01*
X102725000Y-89300000D01*
G75*
G02*
X102475000Y-89550000I-250000J0D01*
G01*
G37*
G36*
G01*
X102475000Y-91450000D02*
X101525000Y-91450000D01*
G75*
G02*
X101275000Y-91200000I0J250000D01*
G01*
X101275000Y-90700000D01*
G75*
G02*
X101525000Y-90450000I250000J0D01*
G01*
X102475000Y-90450000D01*
G75*
G02*
X102725000Y-90700000I0J-250000D01*
G01*
X102725000Y-91200000D01*
G75*
G02*
X102475000Y-91450000I-250000J0D01*
G01*
G37*
G36*
G01*
X102475000Y-103112000D02*
X101525000Y-103112000D01*
G75*
G02*
X101275000Y-102862000I0J250000D01*
G01*
X101275000Y-102362000D01*
G75*
G02*
X101525000Y-102112000I250000J0D01*
G01*
X102475000Y-102112000D01*
G75*
G02*
X102725000Y-102362000I0J-250000D01*
G01*
X102725000Y-102862000D01*
G75*
G02*
X102475000Y-103112000I-250000J0D01*
G01*
G37*
G36*
G01*
X102475000Y-105012000D02*
X101525000Y-105012000D01*
G75*
G02*
X101275000Y-104762000I0J250000D01*
G01*
X101275000Y-104262000D01*
G75*
G02*
X101525000Y-104012000I250000J0D01*
G01*
X102475000Y-104012000D01*
G75*
G02*
X102725000Y-104262000I0J-250000D01*
G01*
X102725000Y-104762000D01*
G75*
G02*
X102475000Y-105012000I-250000J0D01*
G01*
G37*
G36*
G01*
X85975000Y-89550000D02*
X85025000Y-89550000D01*
G75*
G02*
X84775000Y-89300000I0J250000D01*
G01*
X84775000Y-88800000D01*
G75*
G02*
X85025000Y-88550000I250000J0D01*
G01*
X85975000Y-88550000D01*
G75*
G02*
X86225000Y-88800000I0J-250000D01*
G01*
X86225000Y-89300000D01*
G75*
G02*
X85975000Y-89550000I-250000J0D01*
G01*
G37*
G36*
G01*
X85975000Y-91450000D02*
X85025000Y-91450000D01*
G75*
G02*
X84775000Y-91200000I0J250000D01*
G01*
X84775000Y-90700000D01*
G75*
G02*
X85025000Y-90450000I250000J0D01*
G01*
X85975000Y-90450000D01*
G75*
G02*
X86225000Y-90700000I0J-250000D01*
G01*
X86225000Y-91200000D01*
G75*
G02*
X85975000Y-91450000I-250000J0D01*
G01*
G37*
G36*
G01*
X85975000Y-76550000D02*
X85025000Y-76550000D01*
G75*
G02*
X84775000Y-76300000I0J250000D01*
G01*
X84775000Y-75800000D01*
G75*
G02*
X85025000Y-75550000I250000J0D01*
G01*
X85975000Y-75550000D01*
G75*
G02*
X86225000Y-75800000I0J-250000D01*
G01*
X86225000Y-76300000D01*
G75*
G02*
X85975000Y-76550000I-250000J0D01*
G01*
G37*
G36*
G01*
X85975000Y-78450000D02*
X85025000Y-78450000D01*
G75*
G02*
X84775000Y-78200000I0J250000D01*
G01*
X84775000Y-77700000D01*
G75*
G02*
X85025000Y-77450000I250000J0D01*
G01*
X85975000Y-77450000D01*
G75*
G02*
X86225000Y-77700000I0J-250000D01*
G01*
X86225000Y-78200000D01*
G75*
G02*
X85975000Y-78450000I-250000J0D01*
G01*
G37*
G36*
G01*
X85975000Y-103550000D02*
X85025000Y-103550000D01*
G75*
G02*
X84775000Y-103300000I0J250000D01*
G01*
X84775000Y-102800000D01*
G75*
G02*
X85025000Y-102550000I250000J0D01*
G01*
X85975000Y-102550000D01*
G75*
G02*
X86225000Y-102800000I0J-250000D01*
G01*
X86225000Y-103300000D01*
G75*
G02*
X85975000Y-103550000I-250000J0D01*
G01*
G37*
G36*
G01*
X85975000Y-105450000D02*
X85025000Y-105450000D01*
G75*
G02*
X84775000Y-105200000I0J250000D01*
G01*
X84775000Y-104700000D01*
G75*
G02*
X85025000Y-104450000I250000J0D01*
G01*
X85975000Y-104450000D01*
G75*
G02*
X86225000Y-104700000I0J-250000D01*
G01*
X86225000Y-105200000D01*
G75*
G02*
X85975000Y-105450000I-250000J0D01*
G01*
G37*
G36*
G01*
X182475000Y-56550000D02*
X181525000Y-56550000D01*
G75*
G02*
X181275000Y-56300000I0J250000D01*
G01*
X181275000Y-55800000D01*
G75*
G02*
X181525000Y-55550000I250000J0D01*
G01*
X182475000Y-55550000D01*
G75*
G02*
X182725000Y-55800000I0J-250000D01*
G01*
X182725000Y-56300000D01*
G75*
G02*
X182475000Y-56550000I-250000J0D01*
G01*
G37*
G36*
G01*
X182475000Y-58450000D02*
X181525000Y-58450000D01*
G75*
G02*
X181275000Y-58200000I0J250000D01*
G01*
X181275000Y-57700000D01*
G75*
G02*
X181525000Y-57450000I250000J0D01*
G01*
X182475000Y-57450000D01*
G75*
G02*
X182725000Y-57700000I0J-250000D01*
G01*
X182725000Y-58200000D01*
G75*
G02*
X182475000Y-58450000I-250000J0D01*
G01*
G37*
G36*
G01*
X47950000Y-46475000D02*
X47950000Y-45525000D01*
G75*
G02*
X48200000Y-45275000I250000J0D01*
G01*
X48700000Y-45275000D01*
G75*
G02*
X48950000Y-45525000I0J-250000D01*
G01*
X48950000Y-46475000D01*
G75*
G02*
X48700000Y-46725000I-250000J0D01*
G01*
X48200000Y-46725000D01*
G75*
G02*
X47950000Y-46475000I0J250000D01*
G01*
G37*
G36*
G01*
X46050000Y-46475000D02*
X46050000Y-45525000D01*
G75*
G02*
X46300000Y-45275000I250000J0D01*
G01*
X46800000Y-45275000D01*
G75*
G02*
X47050000Y-45525000I0J-250000D01*
G01*
X47050000Y-46475000D01*
G75*
G02*
X46800000Y-46725000I-250000J0D01*
G01*
X46300000Y-46725000D01*
G75*
G02*
X46050000Y-46475000I0J250000D01*
G01*
G37*
G36*
G01*
X47950000Y-41975000D02*
X47950000Y-41025000D01*
G75*
G02*
X48200000Y-40775000I250000J0D01*
G01*
X48700000Y-40775000D01*
G75*
G02*
X48950000Y-41025000I0J-250000D01*
G01*
X48950000Y-41975000D01*
G75*
G02*
X48700000Y-42225000I-250000J0D01*
G01*
X48200000Y-42225000D01*
G75*
G02*
X47950000Y-41975000I0J250000D01*
G01*
G37*
G36*
G01*
X46050000Y-41975000D02*
X46050000Y-41025000D01*
G75*
G02*
X46300000Y-40775000I250000J0D01*
G01*
X46800000Y-40775000D01*
G75*
G02*
X47050000Y-41025000I0J-250000D01*
G01*
X47050000Y-41975000D01*
G75*
G02*
X46800000Y-42225000I-250000J0D01*
G01*
X46300000Y-42225000D01*
G75*
G02*
X46050000Y-41975000I0J250000D01*
G01*
G37*
G36*
G01*
X62050000Y-30525000D02*
X62050000Y-31475000D01*
G75*
G02*
X61800000Y-31725000I-250000J0D01*
G01*
X61300000Y-31725000D01*
G75*
G02*
X61050000Y-31475000I0J250000D01*
G01*
X61050000Y-30525000D01*
G75*
G02*
X61300000Y-30275000I250000J0D01*
G01*
X61800000Y-30275000D01*
G75*
G02*
X62050000Y-30525000I0J-250000D01*
G01*
G37*
G36*
G01*
X63950000Y-30525000D02*
X63950000Y-31475000D01*
G75*
G02*
X63700000Y-31725000I-250000J0D01*
G01*
X63200000Y-31725000D01*
G75*
G02*
X62950000Y-31475000I0J250000D01*
G01*
X62950000Y-30525000D01*
G75*
G02*
X63200000Y-30275000I250000J0D01*
G01*
X63700000Y-30275000D01*
G75*
G02*
X63950000Y-30525000I0J-250000D01*
G01*
G37*
G36*
G01*
X78050000Y-30525000D02*
X78050000Y-31475000D01*
G75*
G02*
X77800000Y-31725000I-250000J0D01*
G01*
X77300000Y-31725000D01*
G75*
G02*
X77050000Y-31475000I0J250000D01*
G01*
X77050000Y-30525000D01*
G75*
G02*
X77300000Y-30275000I250000J0D01*
G01*
X77800000Y-30275000D01*
G75*
G02*
X78050000Y-30525000I0J-250000D01*
G01*
G37*
G36*
G01*
X79950000Y-30525000D02*
X79950000Y-31475000D01*
G75*
G02*
X79700000Y-31725000I-250000J0D01*
G01*
X79200000Y-31725000D01*
G75*
G02*
X78950000Y-31475000I0J250000D01*
G01*
X78950000Y-30525000D01*
G75*
G02*
X79200000Y-30275000I250000J0D01*
G01*
X79700000Y-30275000D01*
G75*
G02*
X79950000Y-30525000I0J-250000D01*
G01*
G37*
G36*
G01*
X56475000Y-55550000D02*
X55525000Y-55550000D01*
G75*
G02*
X55275000Y-55300000I0J250000D01*
G01*
X55275000Y-54800000D01*
G75*
G02*
X55525000Y-54550000I250000J0D01*
G01*
X56475000Y-54550000D01*
G75*
G02*
X56725000Y-54800000I0J-250000D01*
G01*
X56725000Y-55300000D01*
G75*
G02*
X56475000Y-55550000I-250000J0D01*
G01*
G37*
G36*
G01*
X56475000Y-57450000D02*
X55525000Y-57450000D01*
G75*
G02*
X55275000Y-57200000I0J250000D01*
G01*
X55275000Y-56700000D01*
G75*
G02*
X55525000Y-56450000I250000J0D01*
G01*
X56475000Y-56450000D01*
G75*
G02*
X56725000Y-56700000I0J-250000D01*
G01*
X56725000Y-57200000D01*
G75*
G02*
X56475000Y-57450000I-250000J0D01*
G01*
G37*
G36*
G01*
X92975000Y-55550000D02*
X92025000Y-55550000D01*
G75*
G02*
X91775000Y-55300000I0J250000D01*
G01*
X91775000Y-54800000D01*
G75*
G02*
X92025000Y-54550000I250000J0D01*
G01*
X92975000Y-54550000D01*
G75*
G02*
X93225000Y-54800000I0J-250000D01*
G01*
X93225000Y-55300000D01*
G75*
G02*
X92975000Y-55550000I-250000J0D01*
G01*
G37*
G36*
G01*
X92975000Y-57450000D02*
X92025000Y-57450000D01*
G75*
G02*
X91775000Y-57200000I0J250000D01*
G01*
X91775000Y-56700000D01*
G75*
G02*
X92025000Y-56450000I250000J0D01*
G01*
X92975000Y-56450000D01*
G75*
G02*
X93225000Y-56700000I0J-250000D01*
G01*
X93225000Y-57200000D01*
G75*
G02*
X92975000Y-57450000I-250000J0D01*
G01*
G37*
G36*
G01*
X47900000Y-83475000D02*
X47900000Y-82525000D01*
G75*
G02*
X48150000Y-82275000I250000J0D01*
G01*
X48650000Y-82275000D01*
G75*
G02*
X48900000Y-82525000I0J-250000D01*
G01*
X48900000Y-83475000D01*
G75*
G02*
X48650000Y-83725000I-250000J0D01*
G01*
X48150000Y-83725000D01*
G75*
G02*
X47900000Y-83475000I0J250000D01*
G01*
G37*
G36*
G01*
X46000000Y-83475000D02*
X46000000Y-82525000D01*
G75*
G02*
X46250000Y-82275000I250000J0D01*
G01*
X46750000Y-82275000D01*
G75*
G02*
X47000000Y-82525000I0J-250000D01*
G01*
X47000000Y-83475000D01*
G75*
G02*
X46750000Y-83725000I-250000J0D01*
G01*
X46250000Y-83725000D01*
G75*
G02*
X46000000Y-83475000I0J250000D01*
G01*
G37*
G36*
G01*
X48000000Y-78975000D02*
X48000000Y-78025000D01*
G75*
G02*
X48250000Y-77775000I250000J0D01*
G01*
X48750000Y-77775000D01*
G75*
G02*
X49000000Y-78025000I0J-250000D01*
G01*
X49000000Y-78975000D01*
G75*
G02*
X48750000Y-79225000I-250000J0D01*
G01*
X48250000Y-79225000D01*
G75*
G02*
X48000000Y-78975000I0J250000D01*
G01*
G37*
G36*
G01*
X46100000Y-78975000D02*
X46100000Y-78025000D01*
G75*
G02*
X46350000Y-77775000I250000J0D01*
G01*
X46850000Y-77775000D01*
G75*
G02*
X47100000Y-78025000I0J-250000D01*
G01*
X47100000Y-78975000D01*
G75*
G02*
X46850000Y-79225000I-250000J0D01*
G01*
X46350000Y-79225000D01*
G75*
G02*
X46100000Y-78975000I0J250000D01*
G01*
G37*
G36*
G01*
X142475000Y-56550000D02*
X141525000Y-56550000D01*
G75*
G02*
X141275000Y-56300000I0J250000D01*
G01*
X141275000Y-55800000D01*
G75*
G02*
X141525000Y-55550000I250000J0D01*
G01*
X142475000Y-55550000D01*
G75*
G02*
X142725000Y-55800000I0J-250000D01*
G01*
X142725000Y-56300000D01*
G75*
G02*
X142475000Y-56550000I-250000J0D01*
G01*
G37*
G36*
G01*
X142475000Y-58450000D02*
X141525000Y-58450000D01*
G75*
G02*
X141275000Y-58200000I0J250000D01*
G01*
X141275000Y-57700000D01*
G75*
G02*
X141525000Y-57450000I250000J0D01*
G01*
X142475000Y-57450000D01*
G75*
G02*
X142725000Y-57700000I0J-250000D01*
G01*
X142725000Y-58200000D01*
G75*
G02*
X142475000Y-58450000I-250000J0D01*
G01*
G37*
G36*
G01*
X187475000Y-56550000D02*
X186525000Y-56550000D01*
G75*
G02*
X186275000Y-56300000I0J250000D01*
G01*
X186275000Y-55800000D01*
G75*
G02*
X186525000Y-55550000I250000J0D01*
G01*
X187475000Y-55550000D01*
G75*
G02*
X187725000Y-55800000I0J-250000D01*
G01*
X187725000Y-56300000D01*
G75*
G02*
X187475000Y-56550000I-250000J0D01*
G01*
G37*
G36*
G01*
X187475000Y-58450000D02*
X186525000Y-58450000D01*
G75*
G02*
X186275000Y-58200000I0J250000D01*
G01*
X186275000Y-57700000D01*
G75*
G02*
X186525000Y-57450000I250000J0D01*
G01*
X187475000Y-57450000D01*
G75*
G02*
X187725000Y-57700000I0J-250000D01*
G01*
X187725000Y-58200000D01*
G75*
G02*
X187475000Y-58450000I-250000J0D01*
G01*
G37*
G36*
G01*
X147475000Y-56550000D02*
X146525000Y-56550000D01*
G75*
G02*
X146275000Y-56300000I0J250000D01*
G01*
X146275000Y-55800000D01*
G75*
G02*
X146525000Y-55550000I250000J0D01*
G01*
X147475000Y-55550000D01*
G75*
G02*
X147725000Y-55800000I0J-250000D01*
G01*
X147725000Y-56300000D01*
G75*
G02*
X147475000Y-56550000I-250000J0D01*
G01*
G37*
G36*
G01*
X147475000Y-58450000D02*
X146525000Y-58450000D01*
G75*
G02*
X146275000Y-58200000I0J250000D01*
G01*
X146275000Y-57700000D01*
G75*
G02*
X146525000Y-57450000I250000J0D01*
G01*
X147475000Y-57450000D01*
G75*
G02*
X147725000Y-57700000I0J-250000D01*
G01*
X147725000Y-58200000D01*
G75*
G02*
X147475000Y-58450000I-250000J0D01*
G01*
G37*
G36*
G01*
X162475000Y-56550000D02*
X161525000Y-56550000D01*
G75*
G02*
X161275000Y-56300000I0J250000D01*
G01*
X161275000Y-55800000D01*
G75*
G02*
X161525000Y-55550000I250000J0D01*
G01*
X162475000Y-55550000D01*
G75*
G02*
X162725000Y-55800000I0J-250000D01*
G01*
X162725000Y-56300000D01*
G75*
G02*
X162475000Y-56550000I-250000J0D01*
G01*
G37*
G36*
G01*
X162475000Y-58450000D02*
X161525000Y-58450000D01*
G75*
G02*
X161275000Y-58200000I0J250000D01*
G01*
X161275000Y-57700000D01*
G75*
G02*
X161525000Y-57450000I250000J0D01*
G01*
X162475000Y-57450000D01*
G75*
G02*
X162725000Y-57700000I0J-250000D01*
G01*
X162725000Y-58200000D01*
G75*
G02*
X162475000Y-58450000I-250000J0D01*
G01*
G37*
G36*
G01*
X122475000Y-56550000D02*
X121525000Y-56550000D01*
G75*
G02*
X121275000Y-56300000I0J250000D01*
G01*
X121275000Y-55800000D01*
G75*
G02*
X121525000Y-55550000I250000J0D01*
G01*
X122475000Y-55550000D01*
G75*
G02*
X122725000Y-55800000I0J-250000D01*
G01*
X122725000Y-56300000D01*
G75*
G02*
X122475000Y-56550000I-250000J0D01*
G01*
G37*
G36*
G01*
X122475000Y-58450000D02*
X121525000Y-58450000D01*
G75*
G02*
X121275000Y-58200000I0J250000D01*
G01*
X121275000Y-57700000D01*
G75*
G02*
X121525000Y-57450000I250000J0D01*
G01*
X122475000Y-57450000D01*
G75*
G02*
X122725000Y-57700000I0J-250000D01*
G01*
X122725000Y-58200000D01*
G75*
G02*
X122475000Y-58450000I-250000J0D01*
G01*
G37*
G36*
G01*
X167475000Y-56550000D02*
X166525000Y-56550000D01*
G75*
G02*
X166275000Y-56300000I0J250000D01*
G01*
X166275000Y-55800000D01*
G75*
G02*
X166525000Y-55550000I250000J0D01*
G01*
X167475000Y-55550000D01*
G75*
G02*
X167725000Y-55800000I0J-250000D01*
G01*
X167725000Y-56300000D01*
G75*
G02*
X167475000Y-56550000I-250000J0D01*
G01*
G37*
G36*
G01*
X167475000Y-58450000D02*
X166525000Y-58450000D01*
G75*
G02*
X166275000Y-58200000I0J250000D01*
G01*
X166275000Y-57700000D01*
G75*
G02*
X166525000Y-57450000I250000J0D01*
G01*
X167475000Y-57450000D01*
G75*
G02*
X167725000Y-57700000I0J-250000D01*
G01*
X167725000Y-58200000D01*
G75*
G02*
X167475000Y-58450000I-250000J0D01*
G01*
G37*
G36*
G01*
X127475000Y-56550000D02*
X126525000Y-56550000D01*
G75*
G02*
X126275000Y-56300000I0J250000D01*
G01*
X126275000Y-55800000D01*
G75*
G02*
X126525000Y-55550000I250000J0D01*
G01*
X127475000Y-55550000D01*
G75*
G02*
X127725000Y-55800000I0J-250000D01*
G01*
X127725000Y-56300000D01*
G75*
G02*
X127475000Y-56550000I-250000J0D01*
G01*
G37*
G36*
G01*
X127475000Y-58450000D02*
X126525000Y-58450000D01*
G75*
G02*
X126275000Y-58200000I0J250000D01*
G01*
X126275000Y-57700000D01*
G75*
G02*
X126525000Y-57450000I250000J0D01*
G01*
X127475000Y-57450000D01*
G75*
G02*
X127725000Y-57700000I0J-250000D01*
G01*
X127725000Y-58200000D01*
G75*
G02*
X127475000Y-58450000I-250000J0D01*
G01*
G37*
D13*
X197340000Y-21750000D03*
D14*
X193500000Y-18000000D03*
X193500000Y-20500000D03*
X193500000Y-23000000D03*
X193500000Y-25500000D03*
X196000000Y-18000000D03*
X196000000Y-20500000D03*
X196000000Y-23000000D03*
G36*
G01*
X196850000Y-24900000D02*
X196850000Y-26100000D01*
G75*
G02*
X196600000Y-26350000I-250000J0D01*
G01*
X195400000Y-26350000D01*
G75*
G02*
X195150000Y-26100000I0J250000D01*
G01*
X195150000Y-24900000D01*
G75*
G02*
X195400000Y-24650000I250000J0D01*
G01*
X196600000Y-24650000D01*
G75*
G02*
X196850000Y-24900000I0J-250000D01*
G01*
G37*
D15*
X65300000Y-107500000D03*
X67840000Y-107500000D03*
X70380000Y-107500000D03*
X72920000Y-107500000D03*
X75460000Y-107500000D03*
D16*
X78000000Y-107500000D03*
D15*
X121500000Y-9040000D03*
D16*
X121500000Y-6500000D03*
D15*
X181800000Y-9040000D03*
X181800000Y-6500000D03*
X179260000Y-9040000D03*
X179260000Y-6500000D03*
X176720000Y-9040000D03*
X176720000Y-6500000D03*
X174180000Y-9040000D03*
X174180000Y-6500000D03*
X171640000Y-9040000D03*
X171640000Y-6500000D03*
X169100000Y-9040000D03*
X169100000Y-6500000D03*
X166560000Y-9040000D03*
X166560000Y-6500000D03*
X164020000Y-9040000D03*
X164020000Y-6500000D03*
X161480000Y-9040000D03*
X161480000Y-6500000D03*
X158940000Y-9040000D03*
X158940000Y-6500000D03*
X156400000Y-9040000D03*
X156400000Y-6500000D03*
X153860000Y-9040000D03*
X153860000Y-6500000D03*
X151320000Y-9040000D03*
X151320000Y-6500000D03*
X148780000Y-9040000D03*
X148780000Y-6500000D03*
X146240000Y-9040000D03*
X146240000Y-6500000D03*
X143700000Y-9040000D03*
X143700000Y-6500000D03*
X141160000Y-9040000D03*
X141160000Y-6500000D03*
X138620000Y-9040000D03*
X138620000Y-6500000D03*
X136080000Y-9040000D03*
X136080000Y-6500000D03*
X133540000Y-9040000D03*
X133540000Y-6500000D03*
X131000000Y-9040000D03*
D16*
X131000000Y-6500000D03*
G36*
G01*
X121049998Y-13400000D02*
X121950002Y-13400000D01*
G75*
G02*
X122200000Y-13649998I0J-249998D01*
G01*
X122200000Y-14175002D01*
G75*
G02*
X121950002Y-14425000I-249998J0D01*
G01*
X121049998Y-14425000D01*
G75*
G02*
X120800000Y-14175002I0J249998D01*
G01*
X120800000Y-13649998D01*
G75*
G02*
X121049998Y-13400000I249998J0D01*
G01*
G37*
G36*
G01*
X121049998Y-11575000D02*
X121950002Y-11575000D01*
G75*
G02*
X122200000Y-11824998I0J-249998D01*
G01*
X122200000Y-12350002D01*
G75*
G02*
X121950002Y-12600000I-249998J0D01*
G01*
X121049998Y-12600000D01*
G75*
G02*
X120800000Y-12350002I0J249998D01*
G01*
X120800000Y-11824998D01*
G75*
G02*
X121049998Y-11575000I249998J0D01*
G01*
G37*
G36*
G01*
X68450002Y-103100000D02*
X67549998Y-103100000D01*
G75*
G02*
X67300000Y-102850002I0J249998D01*
G01*
X67300000Y-102324998D01*
G75*
G02*
X67549998Y-102075000I249998J0D01*
G01*
X68450002Y-102075000D01*
G75*
G02*
X68700000Y-102324998I0J-249998D01*
G01*
X68700000Y-102850002D01*
G75*
G02*
X68450002Y-103100000I-249998J0D01*
G01*
G37*
G36*
G01*
X68450002Y-104925000D02*
X67549998Y-104925000D01*
G75*
G02*
X67300000Y-104675002I0J249998D01*
G01*
X67300000Y-104149998D01*
G75*
G02*
X67549998Y-103900000I249998J0D01*
G01*
X68450002Y-103900000D01*
G75*
G02*
X68700000Y-104149998I0J-249998D01*
G01*
X68700000Y-104675002D01*
G75*
G02*
X68450002Y-104925000I-249998J0D01*
G01*
G37*
D17*
X34180000Y-96000000D03*
X36720000Y-96000000D03*
X39260000Y-96000000D03*
X41800000Y-96000000D03*
X44340000Y-96000000D03*
X46880000Y-96000000D03*
X49420000Y-96000000D03*
X51960000Y-96000000D03*
D18*
X54500000Y-96000000D03*
D17*
X197000000Y-49180000D03*
X197000000Y-51720000D03*
X197000000Y-54260000D03*
X197000000Y-56800000D03*
X197000000Y-59340000D03*
X197000000Y-61880000D03*
X197000000Y-64420000D03*
X197000000Y-66960000D03*
D18*
X197000000Y-69500000D03*
D17*
X197000000Y-76180000D03*
X197000000Y-78720000D03*
X197000000Y-81260000D03*
X197000000Y-83800000D03*
X197000000Y-86340000D03*
X197000000Y-88880000D03*
X197000000Y-91420000D03*
X197000000Y-93960000D03*
D18*
X197000000Y-96500000D03*
G36*
G01*
X96475000Y-49100000D02*
X96475000Y-48800000D01*
G75*
G02*
X96625000Y-48650000I150000J0D01*
G01*
X97650000Y-48650000D01*
G75*
G02*
X97800000Y-48800000I0J-150000D01*
G01*
X97800000Y-49100000D01*
G75*
G02*
X97650000Y-49250000I-150000J0D01*
G01*
X96625000Y-49250000D01*
G75*
G02*
X96475000Y-49100000I0J150000D01*
G01*
G37*
G36*
G01*
X96475000Y-47200000D02*
X96475000Y-46900000D01*
G75*
G02*
X96625000Y-46750000I150000J0D01*
G01*
X97650000Y-46750000D01*
G75*
G02*
X97800000Y-46900000I0J-150000D01*
G01*
X97800000Y-47200000D01*
G75*
G02*
X97650000Y-47350000I-150000J0D01*
G01*
X96625000Y-47350000D01*
G75*
G02*
X96475000Y-47200000I0J150000D01*
G01*
G37*
G36*
G01*
X94200000Y-47200000D02*
X94200000Y-46900000D01*
G75*
G02*
X94350000Y-46750000I150000J0D01*
G01*
X95375000Y-46750000D01*
G75*
G02*
X95525000Y-46900000I0J-150000D01*
G01*
X95525000Y-47200000D01*
G75*
G02*
X95375000Y-47350000I-150000J0D01*
G01*
X94350000Y-47350000D01*
G75*
G02*
X94200000Y-47200000I0J150000D01*
G01*
G37*
G36*
G01*
X94200000Y-48150000D02*
X94200000Y-47850000D01*
G75*
G02*
X94350000Y-47700000I150000J0D01*
G01*
X95375000Y-47700000D01*
G75*
G02*
X95525000Y-47850000I0J-150000D01*
G01*
X95525000Y-48150000D01*
G75*
G02*
X95375000Y-48300000I-150000J0D01*
G01*
X94350000Y-48300000D01*
G75*
G02*
X94200000Y-48150000I0J150000D01*
G01*
G37*
G36*
G01*
X94200000Y-49100000D02*
X94200000Y-48800000D01*
G75*
G02*
X94350000Y-48650000I150000J0D01*
G01*
X95375000Y-48650000D01*
G75*
G02*
X95525000Y-48800000I0J-150000D01*
G01*
X95525000Y-49100000D01*
G75*
G02*
X95375000Y-49250000I-150000J0D01*
G01*
X94350000Y-49250000D01*
G75*
G02*
X94200000Y-49100000I0J150000D01*
G01*
G37*
G36*
G01*
X105975000Y-49100000D02*
X105975000Y-48800000D01*
G75*
G02*
X106125000Y-48650000I150000J0D01*
G01*
X107150000Y-48650000D01*
G75*
G02*
X107300000Y-48800000I0J-150000D01*
G01*
X107300000Y-49100000D01*
G75*
G02*
X107150000Y-49250000I-150000J0D01*
G01*
X106125000Y-49250000D01*
G75*
G02*
X105975000Y-49100000I0J150000D01*
G01*
G37*
G36*
G01*
X105975000Y-47200000D02*
X105975000Y-46900000D01*
G75*
G02*
X106125000Y-46750000I150000J0D01*
G01*
X107150000Y-46750000D01*
G75*
G02*
X107300000Y-46900000I0J-150000D01*
G01*
X107300000Y-47200000D01*
G75*
G02*
X107150000Y-47350000I-150000J0D01*
G01*
X106125000Y-47350000D01*
G75*
G02*
X105975000Y-47200000I0J150000D01*
G01*
G37*
G36*
G01*
X103700000Y-47200000D02*
X103700000Y-46900000D01*
G75*
G02*
X103850000Y-46750000I150000J0D01*
G01*
X104875000Y-46750000D01*
G75*
G02*
X105025000Y-46900000I0J-150000D01*
G01*
X105025000Y-47200000D01*
G75*
G02*
X104875000Y-47350000I-150000J0D01*
G01*
X103850000Y-47350000D01*
G75*
G02*
X103700000Y-47200000I0J150000D01*
G01*
G37*
G36*
G01*
X103700000Y-48150000D02*
X103700000Y-47850000D01*
G75*
G02*
X103850000Y-47700000I150000J0D01*
G01*
X104875000Y-47700000D01*
G75*
G02*
X105025000Y-47850000I0J-150000D01*
G01*
X105025000Y-48150000D01*
G75*
G02*
X104875000Y-48300000I-150000J0D01*
G01*
X103850000Y-48300000D01*
G75*
G02*
X103700000Y-48150000I0J150000D01*
G01*
G37*
G36*
G01*
X103700000Y-49100000D02*
X103700000Y-48800000D01*
G75*
G02*
X103850000Y-48650000I150000J0D01*
G01*
X104875000Y-48650000D01*
G75*
G02*
X105025000Y-48800000I0J-150000D01*
G01*
X105025000Y-49100000D01*
G75*
G02*
X104875000Y-49250000I-150000J0D01*
G01*
X103850000Y-49250000D01*
G75*
G02*
X103700000Y-49100000I0J150000D01*
G01*
G37*
D19*
X133280000Y-34905000D03*
X133280000Y-36175000D03*
X133280000Y-37445000D03*
X133280000Y-38715000D03*
X133280000Y-39985000D03*
X133280000Y-41255000D03*
X133280000Y-42525000D03*
X133280000Y-43795000D03*
X140380000Y-43795000D03*
X140380000Y-42525000D03*
X140380000Y-41255000D03*
X140380000Y-39985000D03*
X140380000Y-38715000D03*
X140380000Y-37445000D03*
X140380000Y-36175000D03*
X140380000Y-34905000D03*
G36*
G01*
X27135000Y-29625000D02*
X27435000Y-29625000D01*
G75*
G02*
X27585000Y-29775000I0J-150000D01*
G01*
X27585000Y-31525000D01*
G75*
G02*
X27435000Y-31675000I-150000J0D01*
G01*
X27135000Y-31675000D01*
G75*
G02*
X26985000Y-31525000I0J150000D01*
G01*
X26985000Y-29775000D01*
G75*
G02*
X27135000Y-29625000I150000J0D01*
G01*
G37*
G36*
G01*
X28405000Y-29625000D02*
X28705000Y-29625000D01*
G75*
G02*
X28855000Y-29775000I0J-150000D01*
G01*
X28855000Y-31525000D01*
G75*
G02*
X28705000Y-31675000I-150000J0D01*
G01*
X28405000Y-31675000D01*
G75*
G02*
X28255000Y-31525000I0J150000D01*
G01*
X28255000Y-29775000D01*
G75*
G02*
X28405000Y-29625000I150000J0D01*
G01*
G37*
G36*
G01*
X29675000Y-29625000D02*
X29975000Y-29625000D01*
G75*
G02*
X30125000Y-29775000I0J-150000D01*
G01*
X30125000Y-31525000D01*
G75*
G02*
X29975000Y-31675000I-150000J0D01*
G01*
X29675000Y-31675000D01*
G75*
G02*
X29525000Y-31525000I0J150000D01*
G01*
X29525000Y-29775000D01*
G75*
G02*
X29675000Y-29625000I150000J0D01*
G01*
G37*
G36*
G01*
X30945000Y-29625000D02*
X31245000Y-29625000D01*
G75*
G02*
X31395000Y-29775000I0J-150000D01*
G01*
X31395000Y-31525000D01*
G75*
G02*
X31245000Y-31675000I-150000J0D01*
G01*
X30945000Y-31675000D01*
G75*
G02*
X30795000Y-31525000I0J150000D01*
G01*
X30795000Y-29775000D01*
G75*
G02*
X30945000Y-29625000I150000J0D01*
G01*
G37*
G36*
G01*
X32215000Y-29625000D02*
X32515000Y-29625000D01*
G75*
G02*
X32665000Y-29775000I0J-150000D01*
G01*
X32665000Y-31525000D01*
G75*
G02*
X32515000Y-31675000I-150000J0D01*
G01*
X32215000Y-31675000D01*
G75*
G02*
X32065000Y-31525000I0J150000D01*
G01*
X32065000Y-29775000D01*
G75*
G02*
X32215000Y-29625000I150000J0D01*
G01*
G37*
G36*
G01*
X33485000Y-29625000D02*
X33785000Y-29625000D01*
G75*
G02*
X33935000Y-29775000I0J-150000D01*
G01*
X33935000Y-31525000D01*
G75*
G02*
X33785000Y-31675000I-150000J0D01*
G01*
X33485000Y-31675000D01*
G75*
G02*
X33335000Y-31525000I0J150000D01*
G01*
X33335000Y-29775000D01*
G75*
G02*
X33485000Y-29625000I150000J0D01*
G01*
G37*
G36*
G01*
X34755000Y-29625000D02*
X35055000Y-29625000D01*
G75*
G02*
X35205000Y-29775000I0J-150000D01*
G01*
X35205000Y-31525000D01*
G75*
G02*
X35055000Y-31675000I-150000J0D01*
G01*
X34755000Y-31675000D01*
G75*
G02*
X34605000Y-31525000I0J150000D01*
G01*
X34605000Y-29775000D01*
G75*
G02*
X34755000Y-29625000I150000J0D01*
G01*
G37*
G36*
G01*
X36025000Y-29625000D02*
X36325000Y-29625000D01*
G75*
G02*
X36475000Y-29775000I0J-150000D01*
G01*
X36475000Y-31525000D01*
G75*
G02*
X36325000Y-31675000I-150000J0D01*
G01*
X36025000Y-31675000D01*
G75*
G02*
X35875000Y-31525000I0J150000D01*
G01*
X35875000Y-29775000D01*
G75*
G02*
X36025000Y-29625000I150000J0D01*
G01*
G37*
G36*
G01*
X37295000Y-29625000D02*
X37595000Y-29625000D01*
G75*
G02*
X37745000Y-29775000I0J-150000D01*
G01*
X37745000Y-31525000D01*
G75*
G02*
X37595000Y-31675000I-150000J0D01*
G01*
X37295000Y-31675000D01*
G75*
G02*
X37145000Y-31525000I0J150000D01*
G01*
X37145000Y-29775000D01*
G75*
G02*
X37295000Y-29625000I150000J0D01*
G01*
G37*
G36*
G01*
X38565000Y-29625000D02*
X38865000Y-29625000D01*
G75*
G02*
X39015000Y-29775000I0J-150000D01*
G01*
X39015000Y-31525000D01*
G75*
G02*
X38865000Y-31675000I-150000J0D01*
G01*
X38565000Y-31675000D01*
G75*
G02*
X38415000Y-31525000I0J150000D01*
G01*
X38415000Y-29775000D01*
G75*
G02*
X38565000Y-29625000I150000J0D01*
G01*
G37*
G36*
G01*
X38565000Y-20325000D02*
X38865000Y-20325000D01*
G75*
G02*
X39015000Y-20475000I0J-150000D01*
G01*
X39015000Y-22225000D01*
G75*
G02*
X38865000Y-22375000I-150000J0D01*
G01*
X38565000Y-22375000D01*
G75*
G02*
X38415000Y-22225000I0J150000D01*
G01*
X38415000Y-20475000D01*
G75*
G02*
X38565000Y-20325000I150000J0D01*
G01*
G37*
G36*
G01*
X37295000Y-20325000D02*
X37595000Y-20325000D01*
G75*
G02*
X37745000Y-20475000I0J-150000D01*
G01*
X37745000Y-22225000D01*
G75*
G02*
X37595000Y-22375000I-150000J0D01*
G01*
X37295000Y-22375000D01*
G75*
G02*
X37145000Y-22225000I0J150000D01*
G01*
X37145000Y-20475000D01*
G75*
G02*
X37295000Y-20325000I150000J0D01*
G01*
G37*
G36*
G01*
X36025000Y-20325000D02*
X36325000Y-20325000D01*
G75*
G02*
X36475000Y-20475000I0J-150000D01*
G01*
X36475000Y-22225000D01*
G75*
G02*
X36325000Y-22375000I-150000J0D01*
G01*
X36025000Y-22375000D01*
G75*
G02*
X35875000Y-22225000I0J150000D01*
G01*
X35875000Y-20475000D01*
G75*
G02*
X36025000Y-20325000I150000J0D01*
G01*
G37*
G36*
G01*
X34755000Y-20325000D02*
X35055000Y-20325000D01*
G75*
G02*
X35205000Y-20475000I0J-150000D01*
G01*
X35205000Y-22225000D01*
G75*
G02*
X35055000Y-22375000I-150000J0D01*
G01*
X34755000Y-22375000D01*
G75*
G02*
X34605000Y-22225000I0J150000D01*
G01*
X34605000Y-20475000D01*
G75*
G02*
X34755000Y-20325000I150000J0D01*
G01*
G37*
G36*
G01*
X33485000Y-20325000D02*
X33785000Y-20325000D01*
G75*
G02*
X33935000Y-20475000I0J-150000D01*
G01*
X33935000Y-22225000D01*
G75*
G02*
X33785000Y-22375000I-150000J0D01*
G01*
X33485000Y-22375000D01*
G75*
G02*
X33335000Y-22225000I0J150000D01*
G01*
X33335000Y-20475000D01*
G75*
G02*
X33485000Y-20325000I150000J0D01*
G01*
G37*
G36*
G01*
X32215000Y-20325000D02*
X32515000Y-20325000D01*
G75*
G02*
X32665000Y-20475000I0J-150000D01*
G01*
X32665000Y-22225000D01*
G75*
G02*
X32515000Y-22375000I-150000J0D01*
G01*
X32215000Y-22375000D01*
G75*
G02*
X32065000Y-22225000I0J150000D01*
G01*
X32065000Y-20475000D01*
G75*
G02*
X32215000Y-20325000I150000J0D01*
G01*
G37*
G36*
G01*
X30945000Y-20325000D02*
X31245000Y-20325000D01*
G75*
G02*
X31395000Y-20475000I0J-150000D01*
G01*
X31395000Y-22225000D01*
G75*
G02*
X31245000Y-22375000I-150000J0D01*
G01*
X30945000Y-22375000D01*
G75*
G02*
X30795000Y-22225000I0J150000D01*
G01*
X30795000Y-20475000D01*
G75*
G02*
X30945000Y-20325000I150000J0D01*
G01*
G37*
G36*
G01*
X29675000Y-20325000D02*
X29975000Y-20325000D01*
G75*
G02*
X30125000Y-20475000I0J-150000D01*
G01*
X30125000Y-22225000D01*
G75*
G02*
X29975000Y-22375000I-150000J0D01*
G01*
X29675000Y-22375000D01*
G75*
G02*
X29525000Y-22225000I0J150000D01*
G01*
X29525000Y-20475000D01*
G75*
G02*
X29675000Y-20325000I150000J0D01*
G01*
G37*
G36*
G01*
X28405000Y-20325000D02*
X28705000Y-20325000D01*
G75*
G02*
X28855000Y-20475000I0J-150000D01*
G01*
X28855000Y-22225000D01*
G75*
G02*
X28705000Y-22375000I-150000J0D01*
G01*
X28405000Y-22375000D01*
G75*
G02*
X28255000Y-22225000I0J150000D01*
G01*
X28255000Y-20475000D01*
G75*
G02*
X28405000Y-20325000I150000J0D01*
G01*
G37*
G36*
G01*
X27135000Y-20325000D02*
X27435000Y-20325000D01*
G75*
G02*
X27585000Y-20475000I0J-150000D01*
G01*
X27585000Y-22225000D01*
G75*
G02*
X27435000Y-22375000I-150000J0D01*
G01*
X27135000Y-22375000D01*
G75*
G02*
X26985000Y-22225000I0J150000D01*
G01*
X26985000Y-20475000D01*
G75*
G02*
X27135000Y-20325000I150000J0D01*
G01*
G37*
G36*
G01*
X7635000Y-29625000D02*
X7935000Y-29625000D01*
G75*
G02*
X8085000Y-29775000I0J-150000D01*
G01*
X8085000Y-31525000D01*
G75*
G02*
X7935000Y-31675000I-150000J0D01*
G01*
X7635000Y-31675000D01*
G75*
G02*
X7485000Y-31525000I0J150000D01*
G01*
X7485000Y-29775000D01*
G75*
G02*
X7635000Y-29625000I150000J0D01*
G01*
G37*
G36*
G01*
X8905000Y-29625000D02*
X9205000Y-29625000D01*
G75*
G02*
X9355000Y-29775000I0J-150000D01*
G01*
X9355000Y-31525000D01*
G75*
G02*
X9205000Y-31675000I-150000J0D01*
G01*
X8905000Y-31675000D01*
G75*
G02*
X8755000Y-31525000I0J150000D01*
G01*
X8755000Y-29775000D01*
G75*
G02*
X8905000Y-29625000I150000J0D01*
G01*
G37*
G36*
G01*
X10175000Y-29625000D02*
X10475000Y-29625000D01*
G75*
G02*
X10625000Y-29775000I0J-150000D01*
G01*
X10625000Y-31525000D01*
G75*
G02*
X10475000Y-31675000I-150000J0D01*
G01*
X10175000Y-31675000D01*
G75*
G02*
X10025000Y-31525000I0J150000D01*
G01*
X10025000Y-29775000D01*
G75*
G02*
X10175000Y-29625000I150000J0D01*
G01*
G37*
G36*
G01*
X11445000Y-29625000D02*
X11745000Y-29625000D01*
G75*
G02*
X11895000Y-29775000I0J-150000D01*
G01*
X11895000Y-31525000D01*
G75*
G02*
X11745000Y-31675000I-150000J0D01*
G01*
X11445000Y-31675000D01*
G75*
G02*
X11295000Y-31525000I0J150000D01*
G01*
X11295000Y-29775000D01*
G75*
G02*
X11445000Y-29625000I150000J0D01*
G01*
G37*
G36*
G01*
X12715000Y-29625000D02*
X13015000Y-29625000D01*
G75*
G02*
X13165000Y-29775000I0J-150000D01*
G01*
X13165000Y-31525000D01*
G75*
G02*
X13015000Y-31675000I-150000J0D01*
G01*
X12715000Y-31675000D01*
G75*
G02*
X12565000Y-31525000I0J150000D01*
G01*
X12565000Y-29775000D01*
G75*
G02*
X12715000Y-29625000I150000J0D01*
G01*
G37*
G36*
G01*
X13985000Y-29625000D02*
X14285000Y-29625000D01*
G75*
G02*
X14435000Y-29775000I0J-150000D01*
G01*
X14435000Y-31525000D01*
G75*
G02*
X14285000Y-31675000I-150000J0D01*
G01*
X13985000Y-31675000D01*
G75*
G02*
X13835000Y-31525000I0J150000D01*
G01*
X13835000Y-29775000D01*
G75*
G02*
X13985000Y-29625000I150000J0D01*
G01*
G37*
G36*
G01*
X15255000Y-29625000D02*
X15555000Y-29625000D01*
G75*
G02*
X15705000Y-29775000I0J-150000D01*
G01*
X15705000Y-31525000D01*
G75*
G02*
X15555000Y-31675000I-150000J0D01*
G01*
X15255000Y-31675000D01*
G75*
G02*
X15105000Y-31525000I0J150000D01*
G01*
X15105000Y-29775000D01*
G75*
G02*
X15255000Y-29625000I150000J0D01*
G01*
G37*
G36*
G01*
X16525000Y-29625000D02*
X16825000Y-29625000D01*
G75*
G02*
X16975000Y-29775000I0J-150000D01*
G01*
X16975000Y-31525000D01*
G75*
G02*
X16825000Y-31675000I-150000J0D01*
G01*
X16525000Y-31675000D01*
G75*
G02*
X16375000Y-31525000I0J150000D01*
G01*
X16375000Y-29775000D01*
G75*
G02*
X16525000Y-29625000I150000J0D01*
G01*
G37*
G36*
G01*
X17795000Y-29625000D02*
X18095000Y-29625000D01*
G75*
G02*
X18245000Y-29775000I0J-150000D01*
G01*
X18245000Y-31525000D01*
G75*
G02*
X18095000Y-31675000I-150000J0D01*
G01*
X17795000Y-31675000D01*
G75*
G02*
X17645000Y-31525000I0J150000D01*
G01*
X17645000Y-29775000D01*
G75*
G02*
X17795000Y-29625000I150000J0D01*
G01*
G37*
G36*
G01*
X19065000Y-29625000D02*
X19365000Y-29625000D01*
G75*
G02*
X19515000Y-29775000I0J-150000D01*
G01*
X19515000Y-31525000D01*
G75*
G02*
X19365000Y-31675000I-150000J0D01*
G01*
X19065000Y-31675000D01*
G75*
G02*
X18915000Y-31525000I0J150000D01*
G01*
X18915000Y-29775000D01*
G75*
G02*
X19065000Y-29625000I150000J0D01*
G01*
G37*
G36*
G01*
X19065000Y-20325000D02*
X19365000Y-20325000D01*
G75*
G02*
X19515000Y-20475000I0J-150000D01*
G01*
X19515000Y-22225000D01*
G75*
G02*
X19365000Y-22375000I-150000J0D01*
G01*
X19065000Y-22375000D01*
G75*
G02*
X18915000Y-22225000I0J150000D01*
G01*
X18915000Y-20475000D01*
G75*
G02*
X19065000Y-20325000I150000J0D01*
G01*
G37*
G36*
G01*
X17795000Y-20325000D02*
X18095000Y-20325000D01*
G75*
G02*
X18245000Y-20475000I0J-150000D01*
G01*
X18245000Y-22225000D01*
G75*
G02*
X18095000Y-22375000I-150000J0D01*
G01*
X17795000Y-22375000D01*
G75*
G02*
X17645000Y-22225000I0J150000D01*
G01*
X17645000Y-20475000D01*
G75*
G02*
X17795000Y-20325000I150000J0D01*
G01*
G37*
G36*
G01*
X16525000Y-20325000D02*
X16825000Y-20325000D01*
G75*
G02*
X16975000Y-20475000I0J-150000D01*
G01*
X16975000Y-22225000D01*
G75*
G02*
X16825000Y-22375000I-150000J0D01*
G01*
X16525000Y-22375000D01*
G75*
G02*
X16375000Y-22225000I0J150000D01*
G01*
X16375000Y-20475000D01*
G75*
G02*
X16525000Y-20325000I150000J0D01*
G01*
G37*
G36*
G01*
X15255000Y-20325000D02*
X15555000Y-20325000D01*
G75*
G02*
X15705000Y-20475000I0J-150000D01*
G01*
X15705000Y-22225000D01*
G75*
G02*
X15555000Y-22375000I-150000J0D01*
G01*
X15255000Y-22375000D01*
G75*
G02*
X15105000Y-22225000I0J150000D01*
G01*
X15105000Y-20475000D01*
G75*
G02*
X15255000Y-20325000I150000J0D01*
G01*
G37*
G36*
G01*
X13985000Y-20325000D02*
X14285000Y-20325000D01*
G75*
G02*
X14435000Y-20475000I0J-150000D01*
G01*
X14435000Y-22225000D01*
G75*
G02*
X14285000Y-22375000I-150000J0D01*
G01*
X13985000Y-22375000D01*
G75*
G02*
X13835000Y-22225000I0J150000D01*
G01*
X13835000Y-20475000D01*
G75*
G02*
X13985000Y-20325000I150000J0D01*
G01*
G37*
G36*
G01*
X12715000Y-20325000D02*
X13015000Y-20325000D01*
G75*
G02*
X13165000Y-20475000I0J-150000D01*
G01*
X13165000Y-22225000D01*
G75*
G02*
X13015000Y-22375000I-150000J0D01*
G01*
X12715000Y-22375000D01*
G75*
G02*
X12565000Y-22225000I0J150000D01*
G01*
X12565000Y-20475000D01*
G75*
G02*
X12715000Y-20325000I150000J0D01*
G01*
G37*
G36*
G01*
X11445000Y-20325000D02*
X11745000Y-20325000D01*
G75*
G02*
X11895000Y-20475000I0J-150000D01*
G01*
X11895000Y-22225000D01*
G75*
G02*
X11745000Y-22375000I-150000J0D01*
G01*
X11445000Y-22375000D01*
G75*
G02*
X11295000Y-22225000I0J150000D01*
G01*
X11295000Y-20475000D01*
G75*
G02*
X11445000Y-20325000I150000J0D01*
G01*
G37*
G36*
G01*
X10175000Y-20325000D02*
X10475000Y-20325000D01*
G75*
G02*
X10625000Y-20475000I0J-150000D01*
G01*
X10625000Y-22225000D01*
G75*
G02*
X10475000Y-22375000I-150000J0D01*
G01*
X10175000Y-22375000D01*
G75*
G02*
X10025000Y-22225000I0J150000D01*
G01*
X10025000Y-20475000D01*
G75*
G02*
X10175000Y-20325000I150000J0D01*
G01*
G37*
G36*
G01*
X8905000Y-20325000D02*
X9205000Y-20325000D01*
G75*
G02*
X9355000Y-20475000I0J-150000D01*
G01*
X9355000Y-22225000D01*
G75*
G02*
X9205000Y-22375000I-150000J0D01*
G01*
X8905000Y-22375000D01*
G75*
G02*
X8755000Y-22225000I0J150000D01*
G01*
X8755000Y-20475000D01*
G75*
G02*
X8905000Y-20325000I150000J0D01*
G01*
G37*
G36*
G01*
X7635000Y-20325000D02*
X7935000Y-20325000D01*
G75*
G02*
X8085000Y-20475000I0J-150000D01*
G01*
X8085000Y-22225000D01*
G75*
G02*
X7935000Y-22375000I-150000J0D01*
G01*
X7635000Y-22375000D01*
G75*
G02*
X7485000Y-22225000I0J150000D01*
G01*
X7485000Y-20475000D01*
G75*
G02*
X7635000Y-20325000I150000J0D01*
G01*
G37*
G36*
G01*
X105975000Y-56100000D02*
X105975000Y-55800000D01*
G75*
G02*
X106125000Y-55650000I150000J0D01*
G01*
X107150000Y-55650000D01*
G75*
G02*
X107300000Y-55800000I0J-150000D01*
G01*
X107300000Y-56100000D01*
G75*
G02*
X107150000Y-56250000I-150000J0D01*
G01*
X106125000Y-56250000D01*
G75*
G02*
X105975000Y-56100000I0J150000D01*
G01*
G37*
G36*
G01*
X105975000Y-54200000D02*
X105975000Y-53900000D01*
G75*
G02*
X106125000Y-53750000I150000J0D01*
G01*
X107150000Y-53750000D01*
G75*
G02*
X107300000Y-53900000I0J-150000D01*
G01*
X107300000Y-54200000D01*
G75*
G02*
X107150000Y-54350000I-150000J0D01*
G01*
X106125000Y-54350000D01*
G75*
G02*
X105975000Y-54200000I0J150000D01*
G01*
G37*
G36*
G01*
X103700000Y-54200000D02*
X103700000Y-53900000D01*
G75*
G02*
X103850000Y-53750000I150000J0D01*
G01*
X104875000Y-53750000D01*
G75*
G02*
X105025000Y-53900000I0J-150000D01*
G01*
X105025000Y-54200000D01*
G75*
G02*
X104875000Y-54350000I-150000J0D01*
G01*
X103850000Y-54350000D01*
G75*
G02*
X103700000Y-54200000I0J150000D01*
G01*
G37*
G36*
G01*
X103700000Y-55150000D02*
X103700000Y-54850000D01*
G75*
G02*
X103850000Y-54700000I150000J0D01*
G01*
X104875000Y-54700000D01*
G75*
G02*
X105025000Y-54850000I0J-150000D01*
G01*
X105025000Y-55150000D01*
G75*
G02*
X104875000Y-55300000I-150000J0D01*
G01*
X103850000Y-55300000D01*
G75*
G02*
X103700000Y-55150000I0J150000D01*
G01*
G37*
G36*
G01*
X103700000Y-56100000D02*
X103700000Y-55800000D01*
G75*
G02*
X103850000Y-55650000I150000J0D01*
G01*
X104875000Y-55650000D01*
G75*
G02*
X105025000Y-55800000I0J-150000D01*
G01*
X105025000Y-56100000D01*
G75*
G02*
X104875000Y-56250000I-150000J0D01*
G01*
X103850000Y-56250000D01*
G75*
G02*
X103700000Y-56100000I0J150000D01*
G01*
G37*
G36*
G01*
X62375000Y-34135000D02*
X62375000Y-34435000D01*
G75*
G02*
X62225000Y-34585000I-150000J0D01*
G01*
X60475000Y-34585000D01*
G75*
G02*
X60325000Y-34435000I0J150000D01*
G01*
X60325000Y-34135000D01*
G75*
G02*
X60475000Y-33985000I150000J0D01*
G01*
X62225000Y-33985000D01*
G75*
G02*
X62375000Y-34135000I0J-150000D01*
G01*
G37*
G36*
G01*
X62375000Y-35405000D02*
X62375000Y-35705000D01*
G75*
G02*
X62225000Y-35855000I-150000J0D01*
G01*
X60475000Y-35855000D01*
G75*
G02*
X60325000Y-35705000I0J150000D01*
G01*
X60325000Y-35405000D01*
G75*
G02*
X60475000Y-35255000I150000J0D01*
G01*
X62225000Y-35255000D01*
G75*
G02*
X62375000Y-35405000I0J-150000D01*
G01*
G37*
G36*
G01*
X62375000Y-36675000D02*
X62375000Y-36975000D01*
G75*
G02*
X62225000Y-37125000I-150000J0D01*
G01*
X60475000Y-37125000D01*
G75*
G02*
X60325000Y-36975000I0J150000D01*
G01*
X60325000Y-36675000D01*
G75*
G02*
X60475000Y-36525000I150000J0D01*
G01*
X62225000Y-36525000D01*
G75*
G02*
X62375000Y-36675000I0J-150000D01*
G01*
G37*
G36*
G01*
X62375000Y-37945000D02*
X62375000Y-38245000D01*
G75*
G02*
X62225000Y-38395000I-150000J0D01*
G01*
X60475000Y-38395000D01*
G75*
G02*
X60325000Y-38245000I0J150000D01*
G01*
X60325000Y-37945000D01*
G75*
G02*
X60475000Y-37795000I150000J0D01*
G01*
X62225000Y-37795000D01*
G75*
G02*
X62375000Y-37945000I0J-150000D01*
G01*
G37*
G36*
G01*
X62375000Y-39215000D02*
X62375000Y-39515000D01*
G75*
G02*
X62225000Y-39665000I-150000J0D01*
G01*
X60475000Y-39665000D01*
G75*
G02*
X60325000Y-39515000I0J150000D01*
G01*
X60325000Y-39215000D01*
G75*
G02*
X60475000Y-39065000I150000J0D01*
G01*
X62225000Y-39065000D01*
G75*
G02*
X62375000Y-39215000I0J-150000D01*
G01*
G37*
G36*
G01*
X62375000Y-40485000D02*
X62375000Y-40785000D01*
G75*
G02*
X62225000Y-40935000I-150000J0D01*
G01*
X60475000Y-40935000D01*
G75*
G02*
X60325000Y-40785000I0J150000D01*
G01*
X60325000Y-40485000D01*
G75*
G02*
X60475000Y-40335000I150000J0D01*
G01*
X62225000Y-40335000D01*
G75*
G02*
X62375000Y-40485000I0J-150000D01*
G01*
G37*
G36*
G01*
X62375000Y-41755000D02*
X62375000Y-42055000D01*
G75*
G02*
X62225000Y-42205000I-150000J0D01*
G01*
X60475000Y-42205000D01*
G75*
G02*
X60325000Y-42055000I0J150000D01*
G01*
X60325000Y-41755000D01*
G75*
G02*
X60475000Y-41605000I150000J0D01*
G01*
X62225000Y-41605000D01*
G75*
G02*
X62375000Y-41755000I0J-150000D01*
G01*
G37*
G36*
G01*
X62375000Y-43025000D02*
X62375000Y-43325000D01*
G75*
G02*
X62225000Y-43475000I-150000J0D01*
G01*
X60475000Y-43475000D01*
G75*
G02*
X60325000Y-43325000I0J150000D01*
G01*
X60325000Y-43025000D01*
G75*
G02*
X60475000Y-42875000I150000J0D01*
G01*
X62225000Y-42875000D01*
G75*
G02*
X62375000Y-43025000I0J-150000D01*
G01*
G37*
G36*
G01*
X62375000Y-44295000D02*
X62375000Y-44595000D01*
G75*
G02*
X62225000Y-44745000I-150000J0D01*
G01*
X60475000Y-44745000D01*
G75*
G02*
X60325000Y-44595000I0J150000D01*
G01*
X60325000Y-44295000D01*
G75*
G02*
X60475000Y-44145000I150000J0D01*
G01*
X62225000Y-44145000D01*
G75*
G02*
X62375000Y-44295000I0J-150000D01*
G01*
G37*
G36*
G01*
X62375000Y-45565000D02*
X62375000Y-45865000D01*
G75*
G02*
X62225000Y-46015000I-150000J0D01*
G01*
X60475000Y-46015000D01*
G75*
G02*
X60325000Y-45865000I0J150000D01*
G01*
X60325000Y-45565000D01*
G75*
G02*
X60475000Y-45415000I150000J0D01*
G01*
X62225000Y-45415000D01*
G75*
G02*
X62375000Y-45565000I0J-150000D01*
G01*
G37*
G36*
G01*
X71675000Y-45565000D02*
X71675000Y-45865000D01*
G75*
G02*
X71525000Y-46015000I-150000J0D01*
G01*
X69775000Y-46015000D01*
G75*
G02*
X69625000Y-45865000I0J150000D01*
G01*
X69625000Y-45565000D01*
G75*
G02*
X69775000Y-45415000I150000J0D01*
G01*
X71525000Y-45415000D01*
G75*
G02*
X71675000Y-45565000I0J-150000D01*
G01*
G37*
G36*
G01*
X71675000Y-44295000D02*
X71675000Y-44595000D01*
G75*
G02*
X71525000Y-44745000I-150000J0D01*
G01*
X69775000Y-44745000D01*
G75*
G02*
X69625000Y-44595000I0J150000D01*
G01*
X69625000Y-44295000D01*
G75*
G02*
X69775000Y-44145000I150000J0D01*
G01*
X71525000Y-44145000D01*
G75*
G02*
X71675000Y-44295000I0J-150000D01*
G01*
G37*
G36*
G01*
X71675000Y-43025000D02*
X71675000Y-43325000D01*
G75*
G02*
X71525000Y-43475000I-150000J0D01*
G01*
X69775000Y-43475000D01*
G75*
G02*
X69625000Y-43325000I0J150000D01*
G01*
X69625000Y-43025000D01*
G75*
G02*
X69775000Y-42875000I150000J0D01*
G01*
X71525000Y-42875000D01*
G75*
G02*
X71675000Y-43025000I0J-150000D01*
G01*
G37*
G36*
G01*
X71675000Y-41755000D02*
X71675000Y-42055000D01*
G75*
G02*
X71525000Y-42205000I-150000J0D01*
G01*
X69775000Y-42205000D01*
G75*
G02*
X69625000Y-42055000I0J150000D01*
G01*
X69625000Y-41755000D01*
G75*
G02*
X69775000Y-41605000I150000J0D01*
G01*
X71525000Y-41605000D01*
G75*
G02*
X71675000Y-41755000I0J-150000D01*
G01*
G37*
G36*
G01*
X71675000Y-40485000D02*
X71675000Y-40785000D01*
G75*
G02*
X71525000Y-40935000I-150000J0D01*
G01*
X69775000Y-40935000D01*
G75*
G02*
X69625000Y-40785000I0J150000D01*
G01*
X69625000Y-40485000D01*
G75*
G02*
X69775000Y-40335000I150000J0D01*
G01*
X71525000Y-40335000D01*
G75*
G02*
X71675000Y-40485000I0J-150000D01*
G01*
G37*
G36*
G01*
X71675000Y-39215000D02*
X71675000Y-39515000D01*
G75*
G02*
X71525000Y-39665000I-150000J0D01*
G01*
X69775000Y-39665000D01*
G75*
G02*
X69625000Y-39515000I0J150000D01*
G01*
X69625000Y-39215000D01*
G75*
G02*
X69775000Y-39065000I150000J0D01*
G01*
X71525000Y-39065000D01*
G75*
G02*
X71675000Y-39215000I0J-150000D01*
G01*
G37*
G36*
G01*
X71675000Y-37945000D02*
X71675000Y-38245000D01*
G75*
G02*
X71525000Y-38395000I-150000J0D01*
G01*
X69775000Y-38395000D01*
G75*
G02*
X69625000Y-38245000I0J150000D01*
G01*
X69625000Y-37945000D01*
G75*
G02*
X69775000Y-37795000I150000J0D01*
G01*
X71525000Y-37795000D01*
G75*
G02*
X71675000Y-37945000I0J-150000D01*
G01*
G37*
G36*
G01*
X71675000Y-36675000D02*
X71675000Y-36975000D01*
G75*
G02*
X71525000Y-37125000I-150000J0D01*
G01*
X69775000Y-37125000D01*
G75*
G02*
X69625000Y-36975000I0J150000D01*
G01*
X69625000Y-36675000D01*
G75*
G02*
X69775000Y-36525000I150000J0D01*
G01*
X71525000Y-36525000D01*
G75*
G02*
X71675000Y-36675000I0J-150000D01*
G01*
G37*
G36*
G01*
X71675000Y-35405000D02*
X71675000Y-35705000D01*
G75*
G02*
X71525000Y-35855000I-150000J0D01*
G01*
X69775000Y-35855000D01*
G75*
G02*
X69625000Y-35705000I0J150000D01*
G01*
X69625000Y-35405000D01*
G75*
G02*
X69775000Y-35255000I150000J0D01*
G01*
X71525000Y-35255000D01*
G75*
G02*
X71675000Y-35405000I0J-150000D01*
G01*
G37*
G36*
G01*
X71675000Y-34135000D02*
X71675000Y-34435000D01*
G75*
G02*
X71525000Y-34585000I-150000J0D01*
G01*
X69775000Y-34585000D01*
G75*
G02*
X69625000Y-34435000I0J150000D01*
G01*
X69625000Y-34135000D01*
G75*
G02*
X69775000Y-33985000I150000J0D01*
G01*
X71525000Y-33985000D01*
G75*
G02*
X71675000Y-34135000I0J-150000D01*
G01*
G37*
G36*
G01*
X77475000Y-89600000D02*
X77475000Y-89300000D01*
G75*
G02*
X77625000Y-89150000I150000J0D01*
G01*
X78650000Y-89150000D01*
G75*
G02*
X78800000Y-89300000I0J-150000D01*
G01*
X78800000Y-89600000D01*
G75*
G02*
X78650000Y-89750000I-150000J0D01*
G01*
X77625000Y-89750000D01*
G75*
G02*
X77475000Y-89600000I0J150000D01*
G01*
G37*
G36*
G01*
X77475000Y-87700000D02*
X77475000Y-87400000D01*
G75*
G02*
X77625000Y-87250000I150000J0D01*
G01*
X78650000Y-87250000D01*
G75*
G02*
X78800000Y-87400000I0J-150000D01*
G01*
X78800000Y-87700000D01*
G75*
G02*
X78650000Y-87850000I-150000J0D01*
G01*
X77625000Y-87850000D01*
G75*
G02*
X77475000Y-87700000I0J150000D01*
G01*
G37*
G36*
G01*
X75200000Y-87700000D02*
X75200000Y-87400000D01*
G75*
G02*
X75350000Y-87250000I150000J0D01*
G01*
X76375000Y-87250000D01*
G75*
G02*
X76525000Y-87400000I0J-150000D01*
G01*
X76525000Y-87700000D01*
G75*
G02*
X76375000Y-87850000I-150000J0D01*
G01*
X75350000Y-87850000D01*
G75*
G02*
X75200000Y-87700000I0J150000D01*
G01*
G37*
G36*
G01*
X75200000Y-88650000D02*
X75200000Y-88350000D01*
G75*
G02*
X75350000Y-88200000I150000J0D01*
G01*
X76375000Y-88200000D01*
G75*
G02*
X76525000Y-88350000I0J-150000D01*
G01*
X76525000Y-88650000D01*
G75*
G02*
X76375000Y-88800000I-150000J0D01*
G01*
X75350000Y-88800000D01*
G75*
G02*
X75200000Y-88650000I0J150000D01*
G01*
G37*
G36*
G01*
X75200000Y-89600000D02*
X75200000Y-89300000D01*
G75*
G02*
X75350000Y-89150000I150000J0D01*
G01*
X76375000Y-89150000D01*
G75*
G02*
X76525000Y-89300000I0J-150000D01*
G01*
X76525000Y-89600000D01*
G75*
G02*
X76375000Y-89750000I-150000J0D01*
G01*
X75350000Y-89750000D01*
G75*
G02*
X75200000Y-89600000I0J150000D01*
G01*
G37*
G36*
G01*
X78375000Y-34135000D02*
X78375000Y-34435000D01*
G75*
G02*
X78225000Y-34585000I-150000J0D01*
G01*
X76475000Y-34585000D01*
G75*
G02*
X76325000Y-34435000I0J150000D01*
G01*
X76325000Y-34135000D01*
G75*
G02*
X76475000Y-33985000I150000J0D01*
G01*
X78225000Y-33985000D01*
G75*
G02*
X78375000Y-34135000I0J-150000D01*
G01*
G37*
G36*
G01*
X78375000Y-35405000D02*
X78375000Y-35705000D01*
G75*
G02*
X78225000Y-35855000I-150000J0D01*
G01*
X76475000Y-35855000D01*
G75*
G02*
X76325000Y-35705000I0J150000D01*
G01*
X76325000Y-35405000D01*
G75*
G02*
X76475000Y-35255000I150000J0D01*
G01*
X78225000Y-35255000D01*
G75*
G02*
X78375000Y-35405000I0J-150000D01*
G01*
G37*
G36*
G01*
X78375000Y-36675000D02*
X78375000Y-36975000D01*
G75*
G02*
X78225000Y-37125000I-150000J0D01*
G01*
X76475000Y-37125000D01*
G75*
G02*
X76325000Y-36975000I0J150000D01*
G01*
X76325000Y-36675000D01*
G75*
G02*
X76475000Y-36525000I150000J0D01*
G01*
X78225000Y-36525000D01*
G75*
G02*
X78375000Y-36675000I0J-150000D01*
G01*
G37*
G36*
G01*
X78375000Y-37945000D02*
X78375000Y-38245000D01*
G75*
G02*
X78225000Y-38395000I-150000J0D01*
G01*
X76475000Y-38395000D01*
G75*
G02*
X76325000Y-38245000I0J150000D01*
G01*
X76325000Y-37945000D01*
G75*
G02*
X76475000Y-37795000I150000J0D01*
G01*
X78225000Y-37795000D01*
G75*
G02*
X78375000Y-37945000I0J-150000D01*
G01*
G37*
G36*
G01*
X78375000Y-39215000D02*
X78375000Y-39515000D01*
G75*
G02*
X78225000Y-39665000I-150000J0D01*
G01*
X76475000Y-39665000D01*
G75*
G02*
X76325000Y-39515000I0J150000D01*
G01*
X76325000Y-39215000D01*
G75*
G02*
X76475000Y-39065000I150000J0D01*
G01*
X78225000Y-39065000D01*
G75*
G02*
X78375000Y-39215000I0J-150000D01*
G01*
G37*
G36*
G01*
X78375000Y-40485000D02*
X78375000Y-40785000D01*
G75*
G02*
X78225000Y-40935000I-150000J0D01*
G01*
X76475000Y-40935000D01*
G75*
G02*
X76325000Y-40785000I0J150000D01*
G01*
X76325000Y-40485000D01*
G75*
G02*
X76475000Y-40335000I150000J0D01*
G01*
X78225000Y-40335000D01*
G75*
G02*
X78375000Y-40485000I0J-150000D01*
G01*
G37*
G36*
G01*
X78375000Y-41755000D02*
X78375000Y-42055000D01*
G75*
G02*
X78225000Y-42205000I-150000J0D01*
G01*
X76475000Y-42205000D01*
G75*
G02*
X76325000Y-42055000I0J150000D01*
G01*
X76325000Y-41755000D01*
G75*
G02*
X76475000Y-41605000I150000J0D01*
G01*
X78225000Y-41605000D01*
G75*
G02*
X78375000Y-41755000I0J-150000D01*
G01*
G37*
G36*
G01*
X78375000Y-43025000D02*
X78375000Y-43325000D01*
G75*
G02*
X78225000Y-43475000I-150000J0D01*
G01*
X76475000Y-43475000D01*
G75*
G02*
X76325000Y-43325000I0J150000D01*
G01*
X76325000Y-43025000D01*
G75*
G02*
X76475000Y-42875000I150000J0D01*
G01*
X78225000Y-42875000D01*
G75*
G02*
X78375000Y-43025000I0J-150000D01*
G01*
G37*
G36*
G01*
X78375000Y-44295000D02*
X78375000Y-44595000D01*
G75*
G02*
X78225000Y-44745000I-150000J0D01*
G01*
X76475000Y-44745000D01*
G75*
G02*
X76325000Y-44595000I0J150000D01*
G01*
X76325000Y-44295000D01*
G75*
G02*
X76475000Y-44145000I150000J0D01*
G01*
X78225000Y-44145000D01*
G75*
G02*
X78375000Y-44295000I0J-150000D01*
G01*
G37*
G36*
G01*
X78375000Y-45565000D02*
X78375000Y-45865000D01*
G75*
G02*
X78225000Y-46015000I-150000J0D01*
G01*
X76475000Y-46015000D01*
G75*
G02*
X76325000Y-45865000I0J150000D01*
G01*
X76325000Y-45565000D01*
G75*
G02*
X76475000Y-45415000I150000J0D01*
G01*
X78225000Y-45415000D01*
G75*
G02*
X78375000Y-45565000I0J-150000D01*
G01*
G37*
G36*
G01*
X87675000Y-45565000D02*
X87675000Y-45865000D01*
G75*
G02*
X87525000Y-46015000I-150000J0D01*
G01*
X85775000Y-46015000D01*
G75*
G02*
X85625000Y-45865000I0J150000D01*
G01*
X85625000Y-45565000D01*
G75*
G02*
X85775000Y-45415000I150000J0D01*
G01*
X87525000Y-45415000D01*
G75*
G02*
X87675000Y-45565000I0J-150000D01*
G01*
G37*
G36*
G01*
X87675000Y-44295000D02*
X87675000Y-44595000D01*
G75*
G02*
X87525000Y-44745000I-150000J0D01*
G01*
X85775000Y-44745000D01*
G75*
G02*
X85625000Y-44595000I0J150000D01*
G01*
X85625000Y-44295000D01*
G75*
G02*
X85775000Y-44145000I150000J0D01*
G01*
X87525000Y-44145000D01*
G75*
G02*
X87675000Y-44295000I0J-150000D01*
G01*
G37*
G36*
G01*
X87675000Y-43025000D02*
X87675000Y-43325000D01*
G75*
G02*
X87525000Y-43475000I-150000J0D01*
G01*
X85775000Y-43475000D01*
G75*
G02*
X85625000Y-43325000I0J150000D01*
G01*
X85625000Y-43025000D01*
G75*
G02*
X85775000Y-42875000I150000J0D01*
G01*
X87525000Y-42875000D01*
G75*
G02*
X87675000Y-43025000I0J-150000D01*
G01*
G37*
G36*
G01*
X87675000Y-41755000D02*
X87675000Y-42055000D01*
G75*
G02*
X87525000Y-42205000I-150000J0D01*
G01*
X85775000Y-42205000D01*
G75*
G02*
X85625000Y-42055000I0J150000D01*
G01*
X85625000Y-41755000D01*
G75*
G02*
X85775000Y-41605000I150000J0D01*
G01*
X87525000Y-41605000D01*
G75*
G02*
X87675000Y-41755000I0J-150000D01*
G01*
G37*
G36*
G01*
X87675000Y-40485000D02*
X87675000Y-40785000D01*
G75*
G02*
X87525000Y-40935000I-150000J0D01*
G01*
X85775000Y-40935000D01*
G75*
G02*
X85625000Y-40785000I0J150000D01*
G01*
X85625000Y-40485000D01*
G75*
G02*
X85775000Y-40335000I150000J0D01*
G01*
X87525000Y-40335000D01*
G75*
G02*
X87675000Y-40485000I0J-150000D01*
G01*
G37*
G36*
G01*
X87675000Y-39215000D02*
X87675000Y-39515000D01*
G75*
G02*
X87525000Y-39665000I-150000J0D01*
G01*
X85775000Y-39665000D01*
G75*
G02*
X85625000Y-39515000I0J150000D01*
G01*
X85625000Y-39215000D01*
G75*
G02*
X85775000Y-39065000I150000J0D01*
G01*
X87525000Y-39065000D01*
G75*
G02*
X87675000Y-39215000I0J-150000D01*
G01*
G37*
G36*
G01*
X87675000Y-37945000D02*
X87675000Y-38245000D01*
G75*
G02*
X87525000Y-38395000I-150000J0D01*
G01*
X85775000Y-38395000D01*
G75*
G02*
X85625000Y-38245000I0J150000D01*
G01*
X85625000Y-37945000D01*
G75*
G02*
X85775000Y-37795000I150000J0D01*
G01*
X87525000Y-37795000D01*
G75*
G02*
X87675000Y-37945000I0J-150000D01*
G01*
G37*
G36*
G01*
X87675000Y-36675000D02*
X87675000Y-36975000D01*
G75*
G02*
X87525000Y-37125000I-150000J0D01*
G01*
X85775000Y-37125000D01*
G75*
G02*
X85625000Y-36975000I0J150000D01*
G01*
X85625000Y-36675000D01*
G75*
G02*
X85775000Y-36525000I150000J0D01*
G01*
X87525000Y-36525000D01*
G75*
G02*
X87675000Y-36675000I0J-150000D01*
G01*
G37*
G36*
G01*
X87675000Y-35405000D02*
X87675000Y-35705000D01*
G75*
G02*
X87525000Y-35855000I-150000J0D01*
G01*
X85775000Y-35855000D01*
G75*
G02*
X85625000Y-35705000I0J150000D01*
G01*
X85625000Y-35405000D01*
G75*
G02*
X85775000Y-35255000I150000J0D01*
G01*
X87525000Y-35255000D01*
G75*
G02*
X87675000Y-35405000I0J-150000D01*
G01*
G37*
G36*
G01*
X87675000Y-34135000D02*
X87675000Y-34435000D01*
G75*
G02*
X87525000Y-34585000I-150000J0D01*
G01*
X85775000Y-34585000D01*
G75*
G02*
X85625000Y-34435000I0J150000D01*
G01*
X85625000Y-34135000D01*
G75*
G02*
X85775000Y-33985000I150000J0D01*
G01*
X87525000Y-33985000D01*
G75*
G02*
X87675000Y-34135000I0J-150000D01*
G01*
G37*
G36*
G01*
X54325000Y-58025000D02*
X54175000Y-58025000D01*
G75*
G02*
X54100000Y-57950000I0J75000D01*
G01*
X54100000Y-56625000D01*
G75*
G02*
X54175000Y-56550000I75000J0D01*
G01*
X54325000Y-56550000D01*
G75*
G02*
X54400000Y-56625000I0J-75000D01*
G01*
X54400000Y-57950000D01*
G75*
G02*
X54325000Y-58025000I-75000J0D01*
G01*
G37*
G36*
G01*
X53825000Y-58025000D02*
X53675000Y-58025000D01*
G75*
G02*
X53600000Y-57950000I0J75000D01*
G01*
X53600000Y-56625000D01*
G75*
G02*
X53675000Y-56550000I75000J0D01*
G01*
X53825000Y-56550000D01*
G75*
G02*
X53900000Y-56625000I0J-75000D01*
G01*
X53900000Y-57950000D01*
G75*
G02*
X53825000Y-58025000I-75000J0D01*
G01*
G37*
G36*
G01*
X53325000Y-58025000D02*
X53175000Y-58025000D01*
G75*
G02*
X53100000Y-57950000I0J75000D01*
G01*
X53100000Y-56625000D01*
G75*
G02*
X53175000Y-56550000I75000J0D01*
G01*
X53325000Y-56550000D01*
G75*
G02*
X53400000Y-56625000I0J-75000D01*
G01*
X53400000Y-57950000D01*
G75*
G02*
X53325000Y-58025000I-75000J0D01*
G01*
G37*
G36*
G01*
X52825000Y-58025000D02*
X52675000Y-58025000D01*
G75*
G02*
X52600000Y-57950000I0J75000D01*
G01*
X52600000Y-56625000D01*
G75*
G02*
X52675000Y-56550000I75000J0D01*
G01*
X52825000Y-56550000D01*
G75*
G02*
X52900000Y-56625000I0J-75000D01*
G01*
X52900000Y-57950000D01*
G75*
G02*
X52825000Y-58025000I-75000J0D01*
G01*
G37*
G36*
G01*
X52325000Y-58025000D02*
X52175000Y-58025000D01*
G75*
G02*
X52100000Y-57950000I0J75000D01*
G01*
X52100000Y-56625000D01*
G75*
G02*
X52175000Y-56550000I75000J0D01*
G01*
X52325000Y-56550000D01*
G75*
G02*
X52400000Y-56625000I0J-75000D01*
G01*
X52400000Y-57950000D01*
G75*
G02*
X52325000Y-58025000I-75000J0D01*
G01*
G37*
G36*
G01*
X51825000Y-58025000D02*
X51675000Y-58025000D01*
G75*
G02*
X51600000Y-57950000I0J75000D01*
G01*
X51600000Y-56625000D01*
G75*
G02*
X51675000Y-56550000I75000J0D01*
G01*
X51825000Y-56550000D01*
G75*
G02*
X51900000Y-56625000I0J-75000D01*
G01*
X51900000Y-57950000D01*
G75*
G02*
X51825000Y-58025000I-75000J0D01*
G01*
G37*
G36*
G01*
X51325000Y-58025000D02*
X51175000Y-58025000D01*
G75*
G02*
X51100000Y-57950000I0J75000D01*
G01*
X51100000Y-56625000D01*
G75*
G02*
X51175000Y-56550000I75000J0D01*
G01*
X51325000Y-56550000D01*
G75*
G02*
X51400000Y-56625000I0J-75000D01*
G01*
X51400000Y-57950000D01*
G75*
G02*
X51325000Y-58025000I-75000J0D01*
G01*
G37*
G36*
G01*
X50825000Y-58025000D02*
X50675000Y-58025000D01*
G75*
G02*
X50600000Y-57950000I0J75000D01*
G01*
X50600000Y-56625000D01*
G75*
G02*
X50675000Y-56550000I75000J0D01*
G01*
X50825000Y-56550000D01*
G75*
G02*
X50900000Y-56625000I0J-75000D01*
G01*
X50900000Y-57950000D01*
G75*
G02*
X50825000Y-58025000I-75000J0D01*
G01*
G37*
G36*
G01*
X50325000Y-58025000D02*
X50175000Y-58025000D01*
G75*
G02*
X50100000Y-57950000I0J75000D01*
G01*
X50100000Y-56625000D01*
G75*
G02*
X50175000Y-56550000I75000J0D01*
G01*
X50325000Y-56550000D01*
G75*
G02*
X50400000Y-56625000I0J-75000D01*
G01*
X50400000Y-57950000D01*
G75*
G02*
X50325000Y-58025000I-75000J0D01*
G01*
G37*
G36*
G01*
X49825000Y-58025000D02*
X49675000Y-58025000D01*
G75*
G02*
X49600000Y-57950000I0J75000D01*
G01*
X49600000Y-56625000D01*
G75*
G02*
X49675000Y-56550000I75000J0D01*
G01*
X49825000Y-56550000D01*
G75*
G02*
X49900000Y-56625000I0J-75000D01*
G01*
X49900000Y-57950000D01*
G75*
G02*
X49825000Y-58025000I-75000J0D01*
G01*
G37*
G36*
G01*
X49325000Y-58025000D02*
X49175000Y-58025000D01*
G75*
G02*
X49100000Y-57950000I0J75000D01*
G01*
X49100000Y-56625000D01*
G75*
G02*
X49175000Y-56550000I75000J0D01*
G01*
X49325000Y-56550000D01*
G75*
G02*
X49400000Y-56625000I0J-75000D01*
G01*
X49400000Y-57950000D01*
G75*
G02*
X49325000Y-58025000I-75000J0D01*
G01*
G37*
G36*
G01*
X48825000Y-58025000D02*
X48675000Y-58025000D01*
G75*
G02*
X48600000Y-57950000I0J75000D01*
G01*
X48600000Y-56625000D01*
G75*
G02*
X48675000Y-56550000I75000J0D01*
G01*
X48825000Y-56550000D01*
G75*
G02*
X48900000Y-56625000I0J-75000D01*
G01*
X48900000Y-57950000D01*
G75*
G02*
X48825000Y-58025000I-75000J0D01*
G01*
G37*
G36*
G01*
X48325000Y-58025000D02*
X48175000Y-58025000D01*
G75*
G02*
X48100000Y-57950000I0J75000D01*
G01*
X48100000Y-56625000D01*
G75*
G02*
X48175000Y-56550000I75000J0D01*
G01*
X48325000Y-56550000D01*
G75*
G02*
X48400000Y-56625000I0J-75000D01*
G01*
X48400000Y-57950000D01*
G75*
G02*
X48325000Y-58025000I-75000J0D01*
G01*
G37*
G36*
G01*
X47825000Y-58025000D02*
X47675000Y-58025000D01*
G75*
G02*
X47600000Y-57950000I0J75000D01*
G01*
X47600000Y-56625000D01*
G75*
G02*
X47675000Y-56550000I75000J0D01*
G01*
X47825000Y-56550000D01*
G75*
G02*
X47900000Y-56625000I0J-75000D01*
G01*
X47900000Y-57950000D01*
G75*
G02*
X47825000Y-58025000I-75000J0D01*
G01*
G37*
G36*
G01*
X47325000Y-58025000D02*
X47175000Y-58025000D01*
G75*
G02*
X47100000Y-57950000I0J75000D01*
G01*
X47100000Y-56625000D01*
G75*
G02*
X47175000Y-56550000I75000J0D01*
G01*
X47325000Y-56550000D01*
G75*
G02*
X47400000Y-56625000I0J-75000D01*
G01*
X47400000Y-57950000D01*
G75*
G02*
X47325000Y-58025000I-75000J0D01*
G01*
G37*
G36*
G01*
X46825000Y-58025000D02*
X46675000Y-58025000D01*
G75*
G02*
X46600000Y-57950000I0J75000D01*
G01*
X46600000Y-56625000D01*
G75*
G02*
X46675000Y-56550000I75000J0D01*
G01*
X46825000Y-56550000D01*
G75*
G02*
X46900000Y-56625000I0J-75000D01*
G01*
X46900000Y-57950000D01*
G75*
G02*
X46825000Y-58025000I-75000J0D01*
G01*
G37*
G36*
G01*
X46325000Y-58025000D02*
X46175000Y-58025000D01*
G75*
G02*
X46100000Y-57950000I0J75000D01*
G01*
X46100000Y-56625000D01*
G75*
G02*
X46175000Y-56550000I75000J0D01*
G01*
X46325000Y-56550000D01*
G75*
G02*
X46400000Y-56625000I0J-75000D01*
G01*
X46400000Y-57950000D01*
G75*
G02*
X46325000Y-58025000I-75000J0D01*
G01*
G37*
G36*
G01*
X45825000Y-58025000D02*
X45675000Y-58025000D01*
G75*
G02*
X45600000Y-57950000I0J75000D01*
G01*
X45600000Y-56625000D01*
G75*
G02*
X45675000Y-56550000I75000J0D01*
G01*
X45825000Y-56550000D01*
G75*
G02*
X45900000Y-56625000I0J-75000D01*
G01*
X45900000Y-57950000D01*
G75*
G02*
X45825000Y-58025000I-75000J0D01*
G01*
G37*
G36*
G01*
X45325000Y-58025000D02*
X45175000Y-58025000D01*
G75*
G02*
X45100000Y-57950000I0J75000D01*
G01*
X45100000Y-56625000D01*
G75*
G02*
X45175000Y-56550000I75000J0D01*
G01*
X45325000Y-56550000D01*
G75*
G02*
X45400000Y-56625000I0J-75000D01*
G01*
X45400000Y-57950000D01*
G75*
G02*
X45325000Y-58025000I-75000J0D01*
G01*
G37*
G36*
G01*
X44825000Y-58025000D02*
X44675000Y-58025000D01*
G75*
G02*
X44600000Y-57950000I0J75000D01*
G01*
X44600000Y-56625000D01*
G75*
G02*
X44675000Y-56550000I75000J0D01*
G01*
X44825000Y-56550000D01*
G75*
G02*
X44900000Y-56625000I0J-75000D01*
G01*
X44900000Y-57950000D01*
G75*
G02*
X44825000Y-58025000I-75000J0D01*
G01*
G37*
G36*
G01*
X44325000Y-58025000D02*
X44175000Y-58025000D01*
G75*
G02*
X44100000Y-57950000I0J75000D01*
G01*
X44100000Y-56625000D01*
G75*
G02*
X44175000Y-56550000I75000J0D01*
G01*
X44325000Y-56550000D01*
G75*
G02*
X44400000Y-56625000I0J-75000D01*
G01*
X44400000Y-57950000D01*
G75*
G02*
X44325000Y-58025000I-75000J0D01*
G01*
G37*
G36*
G01*
X43825000Y-58025000D02*
X43675000Y-58025000D01*
G75*
G02*
X43600000Y-57950000I0J75000D01*
G01*
X43600000Y-56625000D01*
G75*
G02*
X43675000Y-56550000I75000J0D01*
G01*
X43825000Y-56550000D01*
G75*
G02*
X43900000Y-56625000I0J-75000D01*
G01*
X43900000Y-57950000D01*
G75*
G02*
X43825000Y-58025000I-75000J0D01*
G01*
G37*
G36*
G01*
X43325000Y-58025000D02*
X43175000Y-58025000D01*
G75*
G02*
X43100000Y-57950000I0J75000D01*
G01*
X43100000Y-56625000D01*
G75*
G02*
X43175000Y-56550000I75000J0D01*
G01*
X43325000Y-56550000D01*
G75*
G02*
X43400000Y-56625000I0J-75000D01*
G01*
X43400000Y-57950000D01*
G75*
G02*
X43325000Y-58025000I-75000J0D01*
G01*
G37*
G36*
G01*
X42825000Y-58025000D02*
X42675000Y-58025000D01*
G75*
G02*
X42600000Y-57950000I0J75000D01*
G01*
X42600000Y-56625000D01*
G75*
G02*
X42675000Y-56550000I75000J0D01*
G01*
X42825000Y-56550000D01*
G75*
G02*
X42900000Y-56625000I0J-75000D01*
G01*
X42900000Y-57950000D01*
G75*
G02*
X42825000Y-58025000I-75000J0D01*
G01*
G37*
G36*
G01*
X42325000Y-58025000D02*
X42175000Y-58025000D01*
G75*
G02*
X42100000Y-57950000I0J75000D01*
G01*
X42100000Y-56625000D01*
G75*
G02*
X42175000Y-56550000I75000J0D01*
G01*
X42325000Y-56550000D01*
G75*
G02*
X42400000Y-56625000I0J-75000D01*
G01*
X42400000Y-57950000D01*
G75*
G02*
X42325000Y-58025000I-75000J0D01*
G01*
G37*
G36*
G01*
X41825000Y-58025000D02*
X41675000Y-58025000D01*
G75*
G02*
X41600000Y-57950000I0J75000D01*
G01*
X41600000Y-56625000D01*
G75*
G02*
X41675000Y-56550000I75000J0D01*
G01*
X41825000Y-56550000D01*
G75*
G02*
X41900000Y-56625000I0J-75000D01*
G01*
X41900000Y-57950000D01*
G75*
G02*
X41825000Y-58025000I-75000J0D01*
G01*
G37*
G36*
G01*
X41325000Y-58025000D02*
X41175000Y-58025000D01*
G75*
G02*
X41100000Y-57950000I0J75000D01*
G01*
X41100000Y-56625000D01*
G75*
G02*
X41175000Y-56550000I75000J0D01*
G01*
X41325000Y-56550000D01*
G75*
G02*
X41400000Y-56625000I0J-75000D01*
G01*
X41400000Y-57950000D01*
G75*
G02*
X41325000Y-58025000I-75000J0D01*
G01*
G37*
G36*
G01*
X40825000Y-58025000D02*
X40675000Y-58025000D01*
G75*
G02*
X40600000Y-57950000I0J75000D01*
G01*
X40600000Y-56625000D01*
G75*
G02*
X40675000Y-56550000I75000J0D01*
G01*
X40825000Y-56550000D01*
G75*
G02*
X40900000Y-56625000I0J-75000D01*
G01*
X40900000Y-57950000D01*
G75*
G02*
X40825000Y-58025000I-75000J0D01*
G01*
G37*
G36*
G01*
X40825000Y-65450000D02*
X40675000Y-65450000D01*
G75*
G02*
X40600000Y-65375000I0J75000D01*
G01*
X40600000Y-64050000D01*
G75*
G02*
X40675000Y-63975000I75000J0D01*
G01*
X40825000Y-63975000D01*
G75*
G02*
X40900000Y-64050000I0J-75000D01*
G01*
X40900000Y-65375000D01*
G75*
G02*
X40825000Y-65450000I-75000J0D01*
G01*
G37*
G36*
G01*
X41325000Y-65450000D02*
X41175000Y-65450000D01*
G75*
G02*
X41100000Y-65375000I0J75000D01*
G01*
X41100000Y-64050000D01*
G75*
G02*
X41175000Y-63975000I75000J0D01*
G01*
X41325000Y-63975000D01*
G75*
G02*
X41400000Y-64050000I0J-75000D01*
G01*
X41400000Y-65375000D01*
G75*
G02*
X41325000Y-65450000I-75000J0D01*
G01*
G37*
G36*
G01*
X41825000Y-65450000D02*
X41675000Y-65450000D01*
G75*
G02*
X41600000Y-65375000I0J75000D01*
G01*
X41600000Y-64050000D01*
G75*
G02*
X41675000Y-63975000I75000J0D01*
G01*
X41825000Y-63975000D01*
G75*
G02*
X41900000Y-64050000I0J-75000D01*
G01*
X41900000Y-65375000D01*
G75*
G02*
X41825000Y-65450000I-75000J0D01*
G01*
G37*
G36*
G01*
X42325000Y-65450000D02*
X42175000Y-65450000D01*
G75*
G02*
X42100000Y-65375000I0J75000D01*
G01*
X42100000Y-64050000D01*
G75*
G02*
X42175000Y-63975000I75000J0D01*
G01*
X42325000Y-63975000D01*
G75*
G02*
X42400000Y-64050000I0J-75000D01*
G01*
X42400000Y-65375000D01*
G75*
G02*
X42325000Y-65450000I-75000J0D01*
G01*
G37*
G36*
G01*
X42825000Y-65450000D02*
X42675000Y-65450000D01*
G75*
G02*
X42600000Y-65375000I0J75000D01*
G01*
X42600000Y-64050000D01*
G75*
G02*
X42675000Y-63975000I75000J0D01*
G01*
X42825000Y-63975000D01*
G75*
G02*
X42900000Y-64050000I0J-75000D01*
G01*
X42900000Y-65375000D01*
G75*
G02*
X42825000Y-65450000I-75000J0D01*
G01*
G37*
G36*
G01*
X43325000Y-65450000D02*
X43175000Y-65450000D01*
G75*
G02*
X43100000Y-65375000I0J75000D01*
G01*
X43100000Y-64050000D01*
G75*
G02*
X43175000Y-63975000I75000J0D01*
G01*
X43325000Y-63975000D01*
G75*
G02*
X43400000Y-64050000I0J-75000D01*
G01*
X43400000Y-65375000D01*
G75*
G02*
X43325000Y-65450000I-75000J0D01*
G01*
G37*
G36*
G01*
X43825000Y-65450000D02*
X43675000Y-65450000D01*
G75*
G02*
X43600000Y-65375000I0J75000D01*
G01*
X43600000Y-64050000D01*
G75*
G02*
X43675000Y-63975000I75000J0D01*
G01*
X43825000Y-63975000D01*
G75*
G02*
X43900000Y-64050000I0J-75000D01*
G01*
X43900000Y-65375000D01*
G75*
G02*
X43825000Y-65450000I-75000J0D01*
G01*
G37*
G36*
G01*
X44325000Y-65450000D02*
X44175000Y-65450000D01*
G75*
G02*
X44100000Y-65375000I0J75000D01*
G01*
X44100000Y-64050000D01*
G75*
G02*
X44175000Y-63975000I75000J0D01*
G01*
X44325000Y-63975000D01*
G75*
G02*
X44400000Y-64050000I0J-75000D01*
G01*
X44400000Y-65375000D01*
G75*
G02*
X44325000Y-65450000I-75000J0D01*
G01*
G37*
G36*
G01*
X44825000Y-65450000D02*
X44675000Y-65450000D01*
G75*
G02*
X44600000Y-65375000I0J75000D01*
G01*
X44600000Y-64050000D01*
G75*
G02*
X44675000Y-63975000I75000J0D01*
G01*
X44825000Y-63975000D01*
G75*
G02*
X44900000Y-64050000I0J-75000D01*
G01*
X44900000Y-65375000D01*
G75*
G02*
X44825000Y-65450000I-75000J0D01*
G01*
G37*
G36*
G01*
X45325000Y-65450000D02*
X45175000Y-65450000D01*
G75*
G02*
X45100000Y-65375000I0J75000D01*
G01*
X45100000Y-64050000D01*
G75*
G02*
X45175000Y-63975000I75000J0D01*
G01*
X45325000Y-63975000D01*
G75*
G02*
X45400000Y-64050000I0J-75000D01*
G01*
X45400000Y-65375000D01*
G75*
G02*
X45325000Y-65450000I-75000J0D01*
G01*
G37*
G36*
G01*
X45825000Y-65450000D02*
X45675000Y-65450000D01*
G75*
G02*
X45600000Y-65375000I0J75000D01*
G01*
X45600000Y-64050000D01*
G75*
G02*
X45675000Y-63975000I75000J0D01*
G01*
X45825000Y-63975000D01*
G75*
G02*
X45900000Y-64050000I0J-75000D01*
G01*
X45900000Y-65375000D01*
G75*
G02*
X45825000Y-65450000I-75000J0D01*
G01*
G37*
G36*
G01*
X46325000Y-65450000D02*
X46175000Y-65450000D01*
G75*
G02*
X46100000Y-65375000I0J75000D01*
G01*
X46100000Y-64050000D01*
G75*
G02*
X46175000Y-63975000I75000J0D01*
G01*
X46325000Y-63975000D01*
G75*
G02*
X46400000Y-64050000I0J-75000D01*
G01*
X46400000Y-65375000D01*
G75*
G02*
X46325000Y-65450000I-75000J0D01*
G01*
G37*
G36*
G01*
X46825000Y-65450000D02*
X46675000Y-65450000D01*
G75*
G02*
X46600000Y-65375000I0J75000D01*
G01*
X46600000Y-64050000D01*
G75*
G02*
X46675000Y-63975000I75000J0D01*
G01*
X46825000Y-63975000D01*
G75*
G02*
X46900000Y-64050000I0J-75000D01*
G01*
X46900000Y-65375000D01*
G75*
G02*
X46825000Y-65450000I-75000J0D01*
G01*
G37*
G36*
G01*
X47325000Y-65450000D02*
X47175000Y-65450000D01*
G75*
G02*
X47100000Y-65375000I0J75000D01*
G01*
X47100000Y-64050000D01*
G75*
G02*
X47175000Y-63975000I75000J0D01*
G01*
X47325000Y-63975000D01*
G75*
G02*
X47400000Y-64050000I0J-75000D01*
G01*
X47400000Y-65375000D01*
G75*
G02*
X47325000Y-65450000I-75000J0D01*
G01*
G37*
G36*
G01*
X47825000Y-65450000D02*
X47675000Y-65450000D01*
G75*
G02*
X47600000Y-65375000I0J75000D01*
G01*
X47600000Y-64050000D01*
G75*
G02*
X47675000Y-63975000I75000J0D01*
G01*
X47825000Y-63975000D01*
G75*
G02*
X47900000Y-64050000I0J-75000D01*
G01*
X47900000Y-65375000D01*
G75*
G02*
X47825000Y-65450000I-75000J0D01*
G01*
G37*
G36*
G01*
X48325000Y-65450000D02*
X48175000Y-65450000D01*
G75*
G02*
X48100000Y-65375000I0J75000D01*
G01*
X48100000Y-64050000D01*
G75*
G02*
X48175000Y-63975000I75000J0D01*
G01*
X48325000Y-63975000D01*
G75*
G02*
X48400000Y-64050000I0J-75000D01*
G01*
X48400000Y-65375000D01*
G75*
G02*
X48325000Y-65450000I-75000J0D01*
G01*
G37*
G36*
G01*
X48825000Y-65450000D02*
X48675000Y-65450000D01*
G75*
G02*
X48600000Y-65375000I0J75000D01*
G01*
X48600000Y-64050000D01*
G75*
G02*
X48675000Y-63975000I75000J0D01*
G01*
X48825000Y-63975000D01*
G75*
G02*
X48900000Y-64050000I0J-75000D01*
G01*
X48900000Y-65375000D01*
G75*
G02*
X48825000Y-65450000I-75000J0D01*
G01*
G37*
G36*
G01*
X49325000Y-65450000D02*
X49175000Y-65450000D01*
G75*
G02*
X49100000Y-65375000I0J75000D01*
G01*
X49100000Y-64050000D01*
G75*
G02*
X49175000Y-63975000I75000J0D01*
G01*
X49325000Y-63975000D01*
G75*
G02*
X49400000Y-64050000I0J-75000D01*
G01*
X49400000Y-65375000D01*
G75*
G02*
X49325000Y-65450000I-75000J0D01*
G01*
G37*
G36*
G01*
X49825000Y-65450000D02*
X49675000Y-65450000D01*
G75*
G02*
X49600000Y-65375000I0J75000D01*
G01*
X49600000Y-64050000D01*
G75*
G02*
X49675000Y-63975000I75000J0D01*
G01*
X49825000Y-63975000D01*
G75*
G02*
X49900000Y-64050000I0J-75000D01*
G01*
X49900000Y-65375000D01*
G75*
G02*
X49825000Y-65450000I-75000J0D01*
G01*
G37*
G36*
G01*
X50325000Y-65450000D02*
X50175000Y-65450000D01*
G75*
G02*
X50100000Y-65375000I0J75000D01*
G01*
X50100000Y-64050000D01*
G75*
G02*
X50175000Y-63975000I75000J0D01*
G01*
X50325000Y-63975000D01*
G75*
G02*
X50400000Y-64050000I0J-75000D01*
G01*
X50400000Y-65375000D01*
G75*
G02*
X50325000Y-65450000I-75000J0D01*
G01*
G37*
G36*
G01*
X50825000Y-65450000D02*
X50675000Y-65450000D01*
G75*
G02*
X50600000Y-65375000I0J75000D01*
G01*
X50600000Y-64050000D01*
G75*
G02*
X50675000Y-63975000I75000J0D01*
G01*
X50825000Y-63975000D01*
G75*
G02*
X50900000Y-64050000I0J-75000D01*
G01*
X50900000Y-65375000D01*
G75*
G02*
X50825000Y-65450000I-75000J0D01*
G01*
G37*
G36*
G01*
X51325000Y-65450000D02*
X51175000Y-65450000D01*
G75*
G02*
X51100000Y-65375000I0J75000D01*
G01*
X51100000Y-64050000D01*
G75*
G02*
X51175000Y-63975000I75000J0D01*
G01*
X51325000Y-63975000D01*
G75*
G02*
X51400000Y-64050000I0J-75000D01*
G01*
X51400000Y-65375000D01*
G75*
G02*
X51325000Y-65450000I-75000J0D01*
G01*
G37*
G36*
G01*
X51825000Y-65450000D02*
X51675000Y-65450000D01*
G75*
G02*
X51600000Y-65375000I0J75000D01*
G01*
X51600000Y-64050000D01*
G75*
G02*
X51675000Y-63975000I75000J0D01*
G01*
X51825000Y-63975000D01*
G75*
G02*
X51900000Y-64050000I0J-75000D01*
G01*
X51900000Y-65375000D01*
G75*
G02*
X51825000Y-65450000I-75000J0D01*
G01*
G37*
G36*
G01*
X52325000Y-65450000D02*
X52175000Y-65450000D01*
G75*
G02*
X52100000Y-65375000I0J75000D01*
G01*
X52100000Y-64050000D01*
G75*
G02*
X52175000Y-63975000I75000J0D01*
G01*
X52325000Y-63975000D01*
G75*
G02*
X52400000Y-64050000I0J-75000D01*
G01*
X52400000Y-65375000D01*
G75*
G02*
X52325000Y-65450000I-75000J0D01*
G01*
G37*
G36*
G01*
X52825000Y-65450000D02*
X52675000Y-65450000D01*
G75*
G02*
X52600000Y-65375000I0J75000D01*
G01*
X52600000Y-64050000D01*
G75*
G02*
X52675000Y-63975000I75000J0D01*
G01*
X52825000Y-63975000D01*
G75*
G02*
X52900000Y-64050000I0J-75000D01*
G01*
X52900000Y-65375000D01*
G75*
G02*
X52825000Y-65450000I-75000J0D01*
G01*
G37*
G36*
G01*
X53325000Y-65450000D02*
X53175000Y-65450000D01*
G75*
G02*
X53100000Y-65375000I0J75000D01*
G01*
X53100000Y-64050000D01*
G75*
G02*
X53175000Y-63975000I75000J0D01*
G01*
X53325000Y-63975000D01*
G75*
G02*
X53400000Y-64050000I0J-75000D01*
G01*
X53400000Y-65375000D01*
G75*
G02*
X53325000Y-65450000I-75000J0D01*
G01*
G37*
G36*
G01*
X53825000Y-65450000D02*
X53675000Y-65450000D01*
G75*
G02*
X53600000Y-65375000I0J75000D01*
G01*
X53600000Y-64050000D01*
G75*
G02*
X53675000Y-63975000I75000J0D01*
G01*
X53825000Y-63975000D01*
G75*
G02*
X53900000Y-64050000I0J-75000D01*
G01*
X53900000Y-65375000D01*
G75*
G02*
X53825000Y-65450000I-75000J0D01*
G01*
G37*
G36*
G01*
X54325000Y-65450000D02*
X54175000Y-65450000D01*
G75*
G02*
X54100000Y-65375000I0J75000D01*
G01*
X54100000Y-64050000D01*
G75*
G02*
X54175000Y-63975000I75000J0D01*
G01*
X54325000Y-63975000D01*
G75*
G02*
X54400000Y-64050000I0J-75000D01*
G01*
X54400000Y-65375000D01*
G75*
G02*
X54325000Y-65450000I-75000J0D01*
G01*
G37*
G36*
G01*
X90825000Y-58025000D02*
X90675000Y-58025000D01*
G75*
G02*
X90600000Y-57950000I0J75000D01*
G01*
X90600000Y-56625000D01*
G75*
G02*
X90675000Y-56550000I75000J0D01*
G01*
X90825000Y-56550000D01*
G75*
G02*
X90900000Y-56625000I0J-75000D01*
G01*
X90900000Y-57950000D01*
G75*
G02*
X90825000Y-58025000I-75000J0D01*
G01*
G37*
G36*
G01*
X90325000Y-58025000D02*
X90175000Y-58025000D01*
G75*
G02*
X90100000Y-57950000I0J75000D01*
G01*
X90100000Y-56625000D01*
G75*
G02*
X90175000Y-56550000I75000J0D01*
G01*
X90325000Y-56550000D01*
G75*
G02*
X90400000Y-56625000I0J-75000D01*
G01*
X90400000Y-57950000D01*
G75*
G02*
X90325000Y-58025000I-75000J0D01*
G01*
G37*
G36*
G01*
X89825000Y-58025000D02*
X89675000Y-58025000D01*
G75*
G02*
X89600000Y-57950000I0J75000D01*
G01*
X89600000Y-56625000D01*
G75*
G02*
X89675000Y-56550000I75000J0D01*
G01*
X89825000Y-56550000D01*
G75*
G02*
X89900000Y-56625000I0J-75000D01*
G01*
X89900000Y-57950000D01*
G75*
G02*
X89825000Y-58025000I-75000J0D01*
G01*
G37*
G36*
G01*
X89325000Y-58025000D02*
X89175000Y-58025000D01*
G75*
G02*
X89100000Y-57950000I0J75000D01*
G01*
X89100000Y-56625000D01*
G75*
G02*
X89175000Y-56550000I75000J0D01*
G01*
X89325000Y-56550000D01*
G75*
G02*
X89400000Y-56625000I0J-75000D01*
G01*
X89400000Y-57950000D01*
G75*
G02*
X89325000Y-58025000I-75000J0D01*
G01*
G37*
G36*
G01*
X88825000Y-58025000D02*
X88675000Y-58025000D01*
G75*
G02*
X88600000Y-57950000I0J75000D01*
G01*
X88600000Y-56625000D01*
G75*
G02*
X88675000Y-56550000I75000J0D01*
G01*
X88825000Y-56550000D01*
G75*
G02*
X88900000Y-56625000I0J-75000D01*
G01*
X88900000Y-57950000D01*
G75*
G02*
X88825000Y-58025000I-75000J0D01*
G01*
G37*
G36*
G01*
X88325000Y-58025000D02*
X88175000Y-58025000D01*
G75*
G02*
X88100000Y-57950000I0J75000D01*
G01*
X88100000Y-56625000D01*
G75*
G02*
X88175000Y-56550000I75000J0D01*
G01*
X88325000Y-56550000D01*
G75*
G02*
X88400000Y-56625000I0J-75000D01*
G01*
X88400000Y-57950000D01*
G75*
G02*
X88325000Y-58025000I-75000J0D01*
G01*
G37*
G36*
G01*
X87825000Y-58025000D02*
X87675000Y-58025000D01*
G75*
G02*
X87600000Y-57950000I0J75000D01*
G01*
X87600000Y-56625000D01*
G75*
G02*
X87675000Y-56550000I75000J0D01*
G01*
X87825000Y-56550000D01*
G75*
G02*
X87900000Y-56625000I0J-75000D01*
G01*
X87900000Y-57950000D01*
G75*
G02*
X87825000Y-58025000I-75000J0D01*
G01*
G37*
G36*
G01*
X87325000Y-58025000D02*
X87175000Y-58025000D01*
G75*
G02*
X87100000Y-57950000I0J75000D01*
G01*
X87100000Y-56625000D01*
G75*
G02*
X87175000Y-56550000I75000J0D01*
G01*
X87325000Y-56550000D01*
G75*
G02*
X87400000Y-56625000I0J-75000D01*
G01*
X87400000Y-57950000D01*
G75*
G02*
X87325000Y-58025000I-75000J0D01*
G01*
G37*
G36*
G01*
X86825000Y-58025000D02*
X86675000Y-58025000D01*
G75*
G02*
X86600000Y-57950000I0J75000D01*
G01*
X86600000Y-56625000D01*
G75*
G02*
X86675000Y-56550000I75000J0D01*
G01*
X86825000Y-56550000D01*
G75*
G02*
X86900000Y-56625000I0J-75000D01*
G01*
X86900000Y-57950000D01*
G75*
G02*
X86825000Y-58025000I-75000J0D01*
G01*
G37*
G36*
G01*
X86325000Y-58025000D02*
X86175000Y-58025000D01*
G75*
G02*
X86100000Y-57950000I0J75000D01*
G01*
X86100000Y-56625000D01*
G75*
G02*
X86175000Y-56550000I75000J0D01*
G01*
X86325000Y-56550000D01*
G75*
G02*
X86400000Y-56625000I0J-75000D01*
G01*
X86400000Y-57950000D01*
G75*
G02*
X86325000Y-58025000I-75000J0D01*
G01*
G37*
G36*
G01*
X85825000Y-58025000D02*
X85675000Y-58025000D01*
G75*
G02*
X85600000Y-57950000I0J75000D01*
G01*
X85600000Y-56625000D01*
G75*
G02*
X85675000Y-56550000I75000J0D01*
G01*
X85825000Y-56550000D01*
G75*
G02*
X85900000Y-56625000I0J-75000D01*
G01*
X85900000Y-57950000D01*
G75*
G02*
X85825000Y-58025000I-75000J0D01*
G01*
G37*
G36*
G01*
X85325000Y-58025000D02*
X85175000Y-58025000D01*
G75*
G02*
X85100000Y-57950000I0J75000D01*
G01*
X85100000Y-56625000D01*
G75*
G02*
X85175000Y-56550000I75000J0D01*
G01*
X85325000Y-56550000D01*
G75*
G02*
X85400000Y-56625000I0J-75000D01*
G01*
X85400000Y-57950000D01*
G75*
G02*
X85325000Y-58025000I-75000J0D01*
G01*
G37*
G36*
G01*
X84825000Y-58025000D02*
X84675000Y-58025000D01*
G75*
G02*
X84600000Y-57950000I0J75000D01*
G01*
X84600000Y-56625000D01*
G75*
G02*
X84675000Y-56550000I75000J0D01*
G01*
X84825000Y-56550000D01*
G75*
G02*
X84900000Y-56625000I0J-75000D01*
G01*
X84900000Y-57950000D01*
G75*
G02*
X84825000Y-58025000I-75000J0D01*
G01*
G37*
G36*
G01*
X84325000Y-58025000D02*
X84175000Y-58025000D01*
G75*
G02*
X84100000Y-57950000I0J75000D01*
G01*
X84100000Y-56625000D01*
G75*
G02*
X84175000Y-56550000I75000J0D01*
G01*
X84325000Y-56550000D01*
G75*
G02*
X84400000Y-56625000I0J-75000D01*
G01*
X84400000Y-57950000D01*
G75*
G02*
X84325000Y-58025000I-75000J0D01*
G01*
G37*
G36*
G01*
X83825000Y-58025000D02*
X83675000Y-58025000D01*
G75*
G02*
X83600000Y-57950000I0J75000D01*
G01*
X83600000Y-56625000D01*
G75*
G02*
X83675000Y-56550000I75000J0D01*
G01*
X83825000Y-56550000D01*
G75*
G02*
X83900000Y-56625000I0J-75000D01*
G01*
X83900000Y-57950000D01*
G75*
G02*
X83825000Y-58025000I-75000J0D01*
G01*
G37*
G36*
G01*
X83325000Y-58025000D02*
X83175000Y-58025000D01*
G75*
G02*
X83100000Y-57950000I0J75000D01*
G01*
X83100000Y-56625000D01*
G75*
G02*
X83175000Y-56550000I75000J0D01*
G01*
X83325000Y-56550000D01*
G75*
G02*
X83400000Y-56625000I0J-75000D01*
G01*
X83400000Y-57950000D01*
G75*
G02*
X83325000Y-58025000I-75000J0D01*
G01*
G37*
G36*
G01*
X82825000Y-58025000D02*
X82675000Y-58025000D01*
G75*
G02*
X82600000Y-57950000I0J75000D01*
G01*
X82600000Y-56625000D01*
G75*
G02*
X82675000Y-56550000I75000J0D01*
G01*
X82825000Y-56550000D01*
G75*
G02*
X82900000Y-56625000I0J-75000D01*
G01*
X82900000Y-57950000D01*
G75*
G02*
X82825000Y-58025000I-75000J0D01*
G01*
G37*
G36*
G01*
X82325000Y-58025000D02*
X82175000Y-58025000D01*
G75*
G02*
X82100000Y-57950000I0J75000D01*
G01*
X82100000Y-56625000D01*
G75*
G02*
X82175000Y-56550000I75000J0D01*
G01*
X82325000Y-56550000D01*
G75*
G02*
X82400000Y-56625000I0J-75000D01*
G01*
X82400000Y-57950000D01*
G75*
G02*
X82325000Y-58025000I-75000J0D01*
G01*
G37*
G36*
G01*
X81825000Y-58025000D02*
X81675000Y-58025000D01*
G75*
G02*
X81600000Y-57950000I0J75000D01*
G01*
X81600000Y-56625000D01*
G75*
G02*
X81675000Y-56550000I75000J0D01*
G01*
X81825000Y-56550000D01*
G75*
G02*
X81900000Y-56625000I0J-75000D01*
G01*
X81900000Y-57950000D01*
G75*
G02*
X81825000Y-58025000I-75000J0D01*
G01*
G37*
G36*
G01*
X81325000Y-58025000D02*
X81175000Y-58025000D01*
G75*
G02*
X81100000Y-57950000I0J75000D01*
G01*
X81100000Y-56625000D01*
G75*
G02*
X81175000Y-56550000I75000J0D01*
G01*
X81325000Y-56550000D01*
G75*
G02*
X81400000Y-56625000I0J-75000D01*
G01*
X81400000Y-57950000D01*
G75*
G02*
X81325000Y-58025000I-75000J0D01*
G01*
G37*
G36*
G01*
X80825000Y-58025000D02*
X80675000Y-58025000D01*
G75*
G02*
X80600000Y-57950000I0J75000D01*
G01*
X80600000Y-56625000D01*
G75*
G02*
X80675000Y-56550000I75000J0D01*
G01*
X80825000Y-56550000D01*
G75*
G02*
X80900000Y-56625000I0J-75000D01*
G01*
X80900000Y-57950000D01*
G75*
G02*
X80825000Y-58025000I-75000J0D01*
G01*
G37*
G36*
G01*
X80325000Y-58025000D02*
X80175000Y-58025000D01*
G75*
G02*
X80100000Y-57950000I0J75000D01*
G01*
X80100000Y-56625000D01*
G75*
G02*
X80175000Y-56550000I75000J0D01*
G01*
X80325000Y-56550000D01*
G75*
G02*
X80400000Y-56625000I0J-75000D01*
G01*
X80400000Y-57950000D01*
G75*
G02*
X80325000Y-58025000I-75000J0D01*
G01*
G37*
G36*
G01*
X79825000Y-58025000D02*
X79675000Y-58025000D01*
G75*
G02*
X79600000Y-57950000I0J75000D01*
G01*
X79600000Y-56625000D01*
G75*
G02*
X79675000Y-56550000I75000J0D01*
G01*
X79825000Y-56550000D01*
G75*
G02*
X79900000Y-56625000I0J-75000D01*
G01*
X79900000Y-57950000D01*
G75*
G02*
X79825000Y-58025000I-75000J0D01*
G01*
G37*
G36*
G01*
X79325000Y-58025000D02*
X79175000Y-58025000D01*
G75*
G02*
X79100000Y-57950000I0J75000D01*
G01*
X79100000Y-56625000D01*
G75*
G02*
X79175000Y-56550000I75000J0D01*
G01*
X79325000Y-56550000D01*
G75*
G02*
X79400000Y-56625000I0J-75000D01*
G01*
X79400000Y-57950000D01*
G75*
G02*
X79325000Y-58025000I-75000J0D01*
G01*
G37*
G36*
G01*
X78825000Y-58025000D02*
X78675000Y-58025000D01*
G75*
G02*
X78600000Y-57950000I0J75000D01*
G01*
X78600000Y-56625000D01*
G75*
G02*
X78675000Y-56550000I75000J0D01*
G01*
X78825000Y-56550000D01*
G75*
G02*
X78900000Y-56625000I0J-75000D01*
G01*
X78900000Y-57950000D01*
G75*
G02*
X78825000Y-58025000I-75000J0D01*
G01*
G37*
G36*
G01*
X78325000Y-58025000D02*
X78175000Y-58025000D01*
G75*
G02*
X78100000Y-57950000I0J75000D01*
G01*
X78100000Y-56625000D01*
G75*
G02*
X78175000Y-56550000I75000J0D01*
G01*
X78325000Y-56550000D01*
G75*
G02*
X78400000Y-56625000I0J-75000D01*
G01*
X78400000Y-57950000D01*
G75*
G02*
X78325000Y-58025000I-75000J0D01*
G01*
G37*
G36*
G01*
X77825000Y-58025000D02*
X77675000Y-58025000D01*
G75*
G02*
X77600000Y-57950000I0J75000D01*
G01*
X77600000Y-56625000D01*
G75*
G02*
X77675000Y-56550000I75000J0D01*
G01*
X77825000Y-56550000D01*
G75*
G02*
X77900000Y-56625000I0J-75000D01*
G01*
X77900000Y-57950000D01*
G75*
G02*
X77825000Y-58025000I-75000J0D01*
G01*
G37*
G36*
G01*
X77325000Y-58025000D02*
X77175000Y-58025000D01*
G75*
G02*
X77100000Y-57950000I0J75000D01*
G01*
X77100000Y-56625000D01*
G75*
G02*
X77175000Y-56550000I75000J0D01*
G01*
X77325000Y-56550000D01*
G75*
G02*
X77400000Y-56625000I0J-75000D01*
G01*
X77400000Y-57950000D01*
G75*
G02*
X77325000Y-58025000I-75000J0D01*
G01*
G37*
G36*
G01*
X77325000Y-65450000D02*
X77175000Y-65450000D01*
G75*
G02*
X77100000Y-65375000I0J75000D01*
G01*
X77100000Y-64050000D01*
G75*
G02*
X77175000Y-63975000I75000J0D01*
G01*
X77325000Y-63975000D01*
G75*
G02*
X77400000Y-64050000I0J-75000D01*
G01*
X77400000Y-65375000D01*
G75*
G02*
X77325000Y-65450000I-75000J0D01*
G01*
G37*
G36*
G01*
X77825000Y-65450000D02*
X77675000Y-65450000D01*
G75*
G02*
X77600000Y-65375000I0J75000D01*
G01*
X77600000Y-64050000D01*
G75*
G02*
X77675000Y-63975000I75000J0D01*
G01*
X77825000Y-63975000D01*
G75*
G02*
X77900000Y-64050000I0J-75000D01*
G01*
X77900000Y-65375000D01*
G75*
G02*
X77825000Y-65450000I-75000J0D01*
G01*
G37*
G36*
G01*
X78325000Y-65450000D02*
X78175000Y-65450000D01*
G75*
G02*
X78100000Y-65375000I0J75000D01*
G01*
X78100000Y-64050000D01*
G75*
G02*
X78175000Y-63975000I75000J0D01*
G01*
X78325000Y-63975000D01*
G75*
G02*
X78400000Y-64050000I0J-75000D01*
G01*
X78400000Y-65375000D01*
G75*
G02*
X78325000Y-65450000I-75000J0D01*
G01*
G37*
G36*
G01*
X78825000Y-65450000D02*
X78675000Y-65450000D01*
G75*
G02*
X78600000Y-65375000I0J75000D01*
G01*
X78600000Y-64050000D01*
G75*
G02*
X78675000Y-63975000I75000J0D01*
G01*
X78825000Y-63975000D01*
G75*
G02*
X78900000Y-64050000I0J-75000D01*
G01*
X78900000Y-65375000D01*
G75*
G02*
X78825000Y-65450000I-75000J0D01*
G01*
G37*
G36*
G01*
X79325000Y-65450000D02*
X79175000Y-65450000D01*
G75*
G02*
X79100000Y-65375000I0J75000D01*
G01*
X79100000Y-64050000D01*
G75*
G02*
X79175000Y-63975000I75000J0D01*
G01*
X79325000Y-63975000D01*
G75*
G02*
X79400000Y-64050000I0J-75000D01*
G01*
X79400000Y-65375000D01*
G75*
G02*
X79325000Y-65450000I-75000J0D01*
G01*
G37*
G36*
G01*
X79825000Y-65450000D02*
X79675000Y-65450000D01*
G75*
G02*
X79600000Y-65375000I0J75000D01*
G01*
X79600000Y-64050000D01*
G75*
G02*
X79675000Y-63975000I75000J0D01*
G01*
X79825000Y-63975000D01*
G75*
G02*
X79900000Y-64050000I0J-75000D01*
G01*
X79900000Y-65375000D01*
G75*
G02*
X79825000Y-65450000I-75000J0D01*
G01*
G37*
G36*
G01*
X80325000Y-65450000D02*
X80175000Y-65450000D01*
G75*
G02*
X80100000Y-65375000I0J75000D01*
G01*
X80100000Y-64050000D01*
G75*
G02*
X80175000Y-63975000I75000J0D01*
G01*
X80325000Y-63975000D01*
G75*
G02*
X80400000Y-64050000I0J-75000D01*
G01*
X80400000Y-65375000D01*
G75*
G02*
X80325000Y-65450000I-75000J0D01*
G01*
G37*
G36*
G01*
X80825000Y-65450000D02*
X80675000Y-65450000D01*
G75*
G02*
X80600000Y-65375000I0J75000D01*
G01*
X80600000Y-64050000D01*
G75*
G02*
X80675000Y-63975000I75000J0D01*
G01*
X80825000Y-63975000D01*
G75*
G02*
X80900000Y-64050000I0J-75000D01*
G01*
X80900000Y-65375000D01*
G75*
G02*
X80825000Y-65450000I-75000J0D01*
G01*
G37*
G36*
G01*
X81325000Y-65450000D02*
X81175000Y-65450000D01*
G75*
G02*
X81100000Y-65375000I0J75000D01*
G01*
X81100000Y-64050000D01*
G75*
G02*
X81175000Y-63975000I75000J0D01*
G01*
X81325000Y-63975000D01*
G75*
G02*
X81400000Y-64050000I0J-75000D01*
G01*
X81400000Y-65375000D01*
G75*
G02*
X81325000Y-65450000I-75000J0D01*
G01*
G37*
G36*
G01*
X81825000Y-65450000D02*
X81675000Y-65450000D01*
G75*
G02*
X81600000Y-65375000I0J75000D01*
G01*
X81600000Y-64050000D01*
G75*
G02*
X81675000Y-63975000I75000J0D01*
G01*
X81825000Y-63975000D01*
G75*
G02*
X81900000Y-64050000I0J-75000D01*
G01*
X81900000Y-65375000D01*
G75*
G02*
X81825000Y-65450000I-75000J0D01*
G01*
G37*
G36*
G01*
X82325000Y-65450000D02*
X82175000Y-65450000D01*
G75*
G02*
X82100000Y-65375000I0J75000D01*
G01*
X82100000Y-64050000D01*
G75*
G02*
X82175000Y-63975000I75000J0D01*
G01*
X82325000Y-63975000D01*
G75*
G02*
X82400000Y-64050000I0J-75000D01*
G01*
X82400000Y-65375000D01*
G75*
G02*
X82325000Y-65450000I-75000J0D01*
G01*
G37*
G36*
G01*
X82825000Y-65450000D02*
X82675000Y-65450000D01*
G75*
G02*
X82600000Y-65375000I0J75000D01*
G01*
X82600000Y-64050000D01*
G75*
G02*
X82675000Y-63975000I75000J0D01*
G01*
X82825000Y-63975000D01*
G75*
G02*
X82900000Y-64050000I0J-75000D01*
G01*
X82900000Y-65375000D01*
G75*
G02*
X82825000Y-65450000I-75000J0D01*
G01*
G37*
G36*
G01*
X83325000Y-65450000D02*
X83175000Y-65450000D01*
G75*
G02*
X83100000Y-65375000I0J75000D01*
G01*
X83100000Y-64050000D01*
G75*
G02*
X83175000Y-63975000I75000J0D01*
G01*
X83325000Y-63975000D01*
G75*
G02*
X83400000Y-64050000I0J-75000D01*
G01*
X83400000Y-65375000D01*
G75*
G02*
X83325000Y-65450000I-75000J0D01*
G01*
G37*
G36*
G01*
X83825000Y-65450000D02*
X83675000Y-65450000D01*
G75*
G02*
X83600000Y-65375000I0J75000D01*
G01*
X83600000Y-64050000D01*
G75*
G02*
X83675000Y-63975000I75000J0D01*
G01*
X83825000Y-63975000D01*
G75*
G02*
X83900000Y-64050000I0J-75000D01*
G01*
X83900000Y-65375000D01*
G75*
G02*
X83825000Y-65450000I-75000J0D01*
G01*
G37*
G36*
G01*
X84325000Y-65450000D02*
X84175000Y-65450000D01*
G75*
G02*
X84100000Y-65375000I0J75000D01*
G01*
X84100000Y-64050000D01*
G75*
G02*
X84175000Y-63975000I75000J0D01*
G01*
X84325000Y-63975000D01*
G75*
G02*
X84400000Y-64050000I0J-75000D01*
G01*
X84400000Y-65375000D01*
G75*
G02*
X84325000Y-65450000I-75000J0D01*
G01*
G37*
G36*
G01*
X84825000Y-65450000D02*
X84675000Y-65450000D01*
G75*
G02*
X84600000Y-65375000I0J75000D01*
G01*
X84600000Y-64050000D01*
G75*
G02*
X84675000Y-63975000I75000J0D01*
G01*
X84825000Y-63975000D01*
G75*
G02*
X84900000Y-64050000I0J-75000D01*
G01*
X84900000Y-65375000D01*
G75*
G02*
X84825000Y-65450000I-75000J0D01*
G01*
G37*
G36*
G01*
X85325000Y-65450000D02*
X85175000Y-65450000D01*
G75*
G02*
X85100000Y-65375000I0J75000D01*
G01*
X85100000Y-64050000D01*
G75*
G02*
X85175000Y-63975000I75000J0D01*
G01*
X85325000Y-63975000D01*
G75*
G02*
X85400000Y-64050000I0J-75000D01*
G01*
X85400000Y-65375000D01*
G75*
G02*
X85325000Y-65450000I-75000J0D01*
G01*
G37*
G36*
G01*
X85825000Y-65450000D02*
X85675000Y-65450000D01*
G75*
G02*
X85600000Y-65375000I0J75000D01*
G01*
X85600000Y-64050000D01*
G75*
G02*
X85675000Y-63975000I75000J0D01*
G01*
X85825000Y-63975000D01*
G75*
G02*
X85900000Y-64050000I0J-75000D01*
G01*
X85900000Y-65375000D01*
G75*
G02*
X85825000Y-65450000I-75000J0D01*
G01*
G37*
G36*
G01*
X86325000Y-65450000D02*
X86175000Y-65450000D01*
G75*
G02*
X86100000Y-65375000I0J75000D01*
G01*
X86100000Y-64050000D01*
G75*
G02*
X86175000Y-63975000I75000J0D01*
G01*
X86325000Y-63975000D01*
G75*
G02*
X86400000Y-64050000I0J-75000D01*
G01*
X86400000Y-65375000D01*
G75*
G02*
X86325000Y-65450000I-75000J0D01*
G01*
G37*
G36*
G01*
X86825000Y-65450000D02*
X86675000Y-65450000D01*
G75*
G02*
X86600000Y-65375000I0J75000D01*
G01*
X86600000Y-64050000D01*
G75*
G02*
X86675000Y-63975000I75000J0D01*
G01*
X86825000Y-63975000D01*
G75*
G02*
X86900000Y-64050000I0J-75000D01*
G01*
X86900000Y-65375000D01*
G75*
G02*
X86825000Y-65450000I-75000J0D01*
G01*
G37*
G36*
G01*
X87325000Y-65450000D02*
X87175000Y-65450000D01*
G75*
G02*
X87100000Y-65375000I0J75000D01*
G01*
X87100000Y-64050000D01*
G75*
G02*
X87175000Y-63975000I75000J0D01*
G01*
X87325000Y-63975000D01*
G75*
G02*
X87400000Y-64050000I0J-75000D01*
G01*
X87400000Y-65375000D01*
G75*
G02*
X87325000Y-65450000I-75000J0D01*
G01*
G37*
G36*
G01*
X87825000Y-65450000D02*
X87675000Y-65450000D01*
G75*
G02*
X87600000Y-65375000I0J75000D01*
G01*
X87600000Y-64050000D01*
G75*
G02*
X87675000Y-63975000I75000J0D01*
G01*
X87825000Y-63975000D01*
G75*
G02*
X87900000Y-64050000I0J-75000D01*
G01*
X87900000Y-65375000D01*
G75*
G02*
X87825000Y-65450000I-75000J0D01*
G01*
G37*
G36*
G01*
X88325000Y-65450000D02*
X88175000Y-65450000D01*
G75*
G02*
X88100000Y-65375000I0J75000D01*
G01*
X88100000Y-64050000D01*
G75*
G02*
X88175000Y-63975000I75000J0D01*
G01*
X88325000Y-63975000D01*
G75*
G02*
X88400000Y-64050000I0J-75000D01*
G01*
X88400000Y-65375000D01*
G75*
G02*
X88325000Y-65450000I-75000J0D01*
G01*
G37*
G36*
G01*
X88825000Y-65450000D02*
X88675000Y-65450000D01*
G75*
G02*
X88600000Y-65375000I0J75000D01*
G01*
X88600000Y-64050000D01*
G75*
G02*
X88675000Y-63975000I75000J0D01*
G01*
X88825000Y-63975000D01*
G75*
G02*
X88900000Y-64050000I0J-75000D01*
G01*
X88900000Y-65375000D01*
G75*
G02*
X88825000Y-65450000I-75000J0D01*
G01*
G37*
G36*
G01*
X89325000Y-65450000D02*
X89175000Y-65450000D01*
G75*
G02*
X89100000Y-65375000I0J75000D01*
G01*
X89100000Y-64050000D01*
G75*
G02*
X89175000Y-63975000I75000J0D01*
G01*
X89325000Y-63975000D01*
G75*
G02*
X89400000Y-64050000I0J-75000D01*
G01*
X89400000Y-65375000D01*
G75*
G02*
X89325000Y-65450000I-75000J0D01*
G01*
G37*
G36*
G01*
X89825000Y-65450000D02*
X89675000Y-65450000D01*
G75*
G02*
X89600000Y-65375000I0J75000D01*
G01*
X89600000Y-64050000D01*
G75*
G02*
X89675000Y-63975000I75000J0D01*
G01*
X89825000Y-63975000D01*
G75*
G02*
X89900000Y-64050000I0J-75000D01*
G01*
X89900000Y-65375000D01*
G75*
G02*
X89825000Y-65450000I-75000J0D01*
G01*
G37*
G36*
G01*
X90325000Y-65450000D02*
X90175000Y-65450000D01*
G75*
G02*
X90100000Y-65375000I0J75000D01*
G01*
X90100000Y-64050000D01*
G75*
G02*
X90175000Y-63975000I75000J0D01*
G01*
X90325000Y-63975000D01*
G75*
G02*
X90400000Y-64050000I0J-75000D01*
G01*
X90400000Y-65375000D01*
G75*
G02*
X90325000Y-65450000I-75000J0D01*
G01*
G37*
G36*
G01*
X90825000Y-65450000D02*
X90675000Y-65450000D01*
G75*
G02*
X90600000Y-65375000I0J75000D01*
G01*
X90600000Y-64050000D01*
G75*
G02*
X90675000Y-63975000I75000J0D01*
G01*
X90825000Y-63975000D01*
G75*
G02*
X90900000Y-64050000I0J-75000D01*
G01*
X90900000Y-65375000D01*
G75*
G02*
X90825000Y-65450000I-75000J0D01*
G01*
G37*
G36*
G01*
X60550000Y-77025000D02*
X60550000Y-77975000D01*
G75*
G02*
X60300000Y-78225000I-250000J0D01*
G01*
X59800000Y-78225000D01*
G75*
G02*
X59550000Y-77975000I0J250000D01*
G01*
X59550000Y-77025000D01*
G75*
G02*
X59800000Y-76775000I250000J0D01*
G01*
X60300000Y-76775000D01*
G75*
G02*
X60550000Y-77025000I0J-250000D01*
G01*
G37*
G36*
G01*
X62450000Y-77025000D02*
X62450000Y-77975000D01*
G75*
G02*
X62200000Y-78225000I-250000J0D01*
G01*
X61700000Y-78225000D01*
G75*
G02*
X61450000Y-77975000I0J250000D01*
G01*
X61450000Y-77025000D01*
G75*
G02*
X61700000Y-76775000I250000J0D01*
G01*
X62200000Y-76775000D01*
G75*
G02*
X62450000Y-77025000I0J-250000D01*
G01*
G37*
D20*
X5000000Y-5000000D03*
X198000000Y-5000000D03*
X5000000Y-111000000D03*
X198000000Y-111000000D03*
D21*
X182149000Y-60740000D03*
X187000000Y-60740000D03*
X182149000Y-63280000D03*
X187000000Y-63280000D03*
X182149000Y-65820000D03*
X187000000Y-65820000D03*
X182149000Y-68360000D03*
X187000000Y-68360000D03*
X182149000Y-70900000D03*
X187000000Y-70900000D03*
X182149000Y-73440000D03*
X187000000Y-73440000D03*
X182149000Y-75980000D03*
X187000000Y-75980000D03*
X182149000Y-78520000D03*
X187000000Y-78520000D03*
X182149000Y-81060000D03*
X187000000Y-81060000D03*
X182149000Y-83600000D03*
X187000000Y-83600000D03*
X182149000Y-86140000D03*
X187000000Y-86140000D03*
X182149000Y-88680000D03*
X187000000Y-88680000D03*
X182149000Y-91220000D03*
X187000000Y-91220000D03*
X182149000Y-93760000D03*
X187000000Y-93760000D03*
X182149000Y-96300000D03*
X187000000Y-96300000D03*
X182149000Y-98840000D03*
X187000000Y-98840000D03*
X182149000Y-101380000D03*
X187000000Y-101380000D03*
X182149000Y-103920000D03*
X187000000Y-103920000D03*
X182149000Y-106460000D03*
X187000000Y-106460000D03*
X182149000Y-109000000D03*
D22*
X187000000Y-109000000D03*
D21*
X142149000Y-60740000D03*
X147000000Y-60740000D03*
X142149000Y-63280000D03*
X147000000Y-63280000D03*
X142149000Y-65820000D03*
X147000000Y-65820000D03*
X142149000Y-68360000D03*
X147000000Y-68360000D03*
X142149000Y-70900000D03*
X147000000Y-70900000D03*
X142149000Y-73440000D03*
X147000000Y-73440000D03*
X142149000Y-75980000D03*
X147000000Y-75980000D03*
X142149000Y-78520000D03*
X147000000Y-78520000D03*
X142149000Y-81060000D03*
X147000000Y-81060000D03*
X142149000Y-83600000D03*
X147000000Y-83600000D03*
X142149000Y-86140000D03*
X147000000Y-86140000D03*
X142149000Y-88680000D03*
X147000000Y-88680000D03*
X142149000Y-91220000D03*
X147000000Y-91220000D03*
X142149000Y-93760000D03*
X147000000Y-93760000D03*
X142149000Y-96300000D03*
X147000000Y-96300000D03*
X142149000Y-98840000D03*
X147000000Y-98840000D03*
X142149000Y-101380000D03*
X147000000Y-101380000D03*
X142149000Y-103920000D03*
X147000000Y-103920000D03*
X142149000Y-106460000D03*
X147000000Y-106460000D03*
X142149000Y-109000000D03*
D22*
X147000000Y-109000000D03*
D21*
X162149000Y-60740000D03*
X167000000Y-60740000D03*
X162149000Y-63280000D03*
X167000000Y-63280000D03*
X162149000Y-65820000D03*
X167000000Y-65820000D03*
X162149000Y-68360000D03*
X167000000Y-68360000D03*
X162149000Y-70900000D03*
X167000000Y-70900000D03*
X162149000Y-73440000D03*
X167000000Y-73440000D03*
X162149000Y-75980000D03*
X167000000Y-75980000D03*
X162149000Y-78520000D03*
X167000000Y-78520000D03*
X162149000Y-81060000D03*
X167000000Y-81060000D03*
X162149000Y-83600000D03*
X167000000Y-83600000D03*
X162149000Y-86140000D03*
X167000000Y-86140000D03*
X162149000Y-88680000D03*
X167000000Y-88680000D03*
X162149000Y-91220000D03*
X167000000Y-91220000D03*
X162149000Y-93760000D03*
X167000000Y-93760000D03*
X162149000Y-96300000D03*
X167000000Y-96300000D03*
X162149000Y-98840000D03*
X167000000Y-98840000D03*
X162149000Y-101380000D03*
X167000000Y-101380000D03*
X162149000Y-103920000D03*
X167000000Y-103920000D03*
X162149000Y-106460000D03*
X167000000Y-106460000D03*
X162149000Y-109000000D03*
D22*
X167000000Y-109000000D03*
D21*
X122149000Y-60740000D03*
X127000000Y-60740000D03*
X122149000Y-63280000D03*
X127000000Y-63280000D03*
X122149000Y-65820000D03*
X127000000Y-65820000D03*
X122149000Y-68360000D03*
X127000000Y-68360000D03*
X122149000Y-70900000D03*
X127000000Y-70900000D03*
X122149000Y-73440000D03*
X127000000Y-73440000D03*
X122149000Y-75980000D03*
X127000000Y-75980000D03*
X122149000Y-78520000D03*
X127000000Y-78520000D03*
X122149000Y-81060000D03*
X127000000Y-81060000D03*
X122149000Y-83600000D03*
X127000000Y-83600000D03*
X122149000Y-86140000D03*
X127000000Y-86140000D03*
X122149000Y-88680000D03*
X127000000Y-88680000D03*
X122149000Y-91220000D03*
X127000000Y-91220000D03*
X122149000Y-93760000D03*
X127000000Y-93760000D03*
X122149000Y-96300000D03*
X127000000Y-96300000D03*
X122149000Y-98840000D03*
X127000000Y-98840000D03*
X122149000Y-101380000D03*
X127000000Y-101380000D03*
X122149000Y-103920000D03*
X127000000Y-103920000D03*
X122149000Y-106460000D03*
X127000000Y-106460000D03*
X122149000Y-109000000D03*
D22*
X127000000Y-109000000D03*
G36*
G01*
X110549998Y-33900000D02*
X111450002Y-33900000D01*
G75*
G02*
X111700000Y-34149998I0J-249998D01*
G01*
X111700000Y-34675002D01*
G75*
G02*
X111450002Y-34925000I-249998J0D01*
G01*
X110549998Y-34925000D01*
G75*
G02*
X110300000Y-34675002I0J249998D01*
G01*
X110300000Y-34149998D01*
G75*
G02*
X110549998Y-33900000I249998J0D01*
G01*
G37*
G36*
G01*
X110549998Y-32075000D02*
X111450002Y-32075000D01*
G75*
G02*
X111700000Y-32324998I0J-249998D01*
G01*
X111700000Y-32850002D01*
G75*
G02*
X111450002Y-33100000I-249998J0D01*
G01*
X110549998Y-33100000D01*
G75*
G02*
X110300000Y-32850002I0J249998D01*
G01*
X110300000Y-32324998D01*
G75*
G02*
X110549998Y-32075000I249998J0D01*
G01*
G37*
G36*
G01*
X103905000Y-75000000D02*
X104205000Y-75000000D01*
G75*
G02*
X104355000Y-75150000I0J-150000D01*
G01*
X104355000Y-76850000D01*
G75*
G02*
X104205000Y-77000000I-150000J0D01*
G01*
X103905000Y-77000000D01*
G75*
G02*
X103755000Y-76850000I0J150000D01*
G01*
X103755000Y-75150000D01*
G75*
G02*
X103905000Y-75000000I150000J0D01*
G01*
G37*
G36*
G01*
X105175000Y-75000000D02*
X105475000Y-75000000D01*
G75*
G02*
X105625000Y-75150000I0J-150000D01*
G01*
X105625000Y-76850000D01*
G75*
G02*
X105475000Y-77000000I-150000J0D01*
G01*
X105175000Y-77000000D01*
G75*
G02*
X105025000Y-76850000I0J150000D01*
G01*
X105025000Y-75150000D01*
G75*
G02*
X105175000Y-75000000I150000J0D01*
G01*
G37*
G36*
G01*
X106445000Y-75000000D02*
X106745000Y-75000000D01*
G75*
G02*
X106895000Y-75150000I0J-150000D01*
G01*
X106895000Y-76850000D01*
G75*
G02*
X106745000Y-77000000I-150000J0D01*
G01*
X106445000Y-77000000D01*
G75*
G02*
X106295000Y-76850000I0J150000D01*
G01*
X106295000Y-75150000D01*
G75*
G02*
X106445000Y-75000000I150000J0D01*
G01*
G37*
G36*
G01*
X107715000Y-75000000D02*
X108015000Y-75000000D01*
G75*
G02*
X108165000Y-75150000I0J-150000D01*
G01*
X108165000Y-76850000D01*
G75*
G02*
X108015000Y-77000000I-150000J0D01*
G01*
X107715000Y-77000000D01*
G75*
G02*
X107565000Y-76850000I0J150000D01*
G01*
X107565000Y-75150000D01*
G75*
G02*
X107715000Y-75000000I150000J0D01*
G01*
G37*
G36*
G01*
X108985000Y-75000000D02*
X109285000Y-75000000D01*
G75*
G02*
X109435000Y-75150000I0J-150000D01*
G01*
X109435000Y-76850000D01*
G75*
G02*
X109285000Y-77000000I-150000J0D01*
G01*
X108985000Y-77000000D01*
G75*
G02*
X108835000Y-76850000I0J150000D01*
G01*
X108835000Y-75150000D01*
G75*
G02*
X108985000Y-75000000I150000J0D01*
G01*
G37*
G36*
G01*
X110255000Y-75000000D02*
X110555000Y-75000000D01*
G75*
G02*
X110705000Y-75150000I0J-150000D01*
G01*
X110705000Y-76850000D01*
G75*
G02*
X110555000Y-77000000I-150000J0D01*
G01*
X110255000Y-77000000D01*
G75*
G02*
X110105000Y-76850000I0J150000D01*
G01*
X110105000Y-75150000D01*
G75*
G02*
X110255000Y-75000000I150000J0D01*
G01*
G37*
G36*
G01*
X111525000Y-75000000D02*
X111825000Y-75000000D01*
G75*
G02*
X111975000Y-75150000I0J-150000D01*
G01*
X111975000Y-76850000D01*
G75*
G02*
X111825000Y-77000000I-150000J0D01*
G01*
X111525000Y-77000000D01*
G75*
G02*
X111375000Y-76850000I0J150000D01*
G01*
X111375000Y-75150000D01*
G75*
G02*
X111525000Y-75000000I150000J0D01*
G01*
G37*
G36*
G01*
X112795000Y-75000000D02*
X113095000Y-75000000D01*
G75*
G02*
X113245000Y-75150000I0J-150000D01*
G01*
X113245000Y-76850000D01*
G75*
G02*
X113095000Y-77000000I-150000J0D01*
G01*
X112795000Y-77000000D01*
G75*
G02*
X112645000Y-76850000I0J150000D01*
G01*
X112645000Y-75150000D01*
G75*
G02*
X112795000Y-75000000I150000J0D01*
G01*
G37*
G36*
G01*
X112795000Y-70000000D02*
X113095000Y-70000000D01*
G75*
G02*
X113245000Y-70150000I0J-150000D01*
G01*
X113245000Y-71850000D01*
G75*
G02*
X113095000Y-72000000I-150000J0D01*
G01*
X112795000Y-72000000D01*
G75*
G02*
X112645000Y-71850000I0J150000D01*
G01*
X112645000Y-70150000D01*
G75*
G02*
X112795000Y-70000000I150000J0D01*
G01*
G37*
G36*
G01*
X111525000Y-70000000D02*
X111825000Y-70000000D01*
G75*
G02*
X111975000Y-70150000I0J-150000D01*
G01*
X111975000Y-71850000D01*
G75*
G02*
X111825000Y-72000000I-150000J0D01*
G01*
X111525000Y-72000000D01*
G75*
G02*
X111375000Y-71850000I0J150000D01*
G01*
X111375000Y-70150000D01*
G75*
G02*
X111525000Y-70000000I150000J0D01*
G01*
G37*
G36*
G01*
X110255000Y-70000000D02*
X110555000Y-70000000D01*
G75*
G02*
X110705000Y-70150000I0J-150000D01*
G01*
X110705000Y-71850000D01*
G75*
G02*
X110555000Y-72000000I-150000J0D01*
G01*
X110255000Y-72000000D01*
G75*
G02*
X110105000Y-71850000I0J150000D01*
G01*
X110105000Y-70150000D01*
G75*
G02*
X110255000Y-70000000I150000J0D01*
G01*
G37*
G36*
G01*
X108985000Y-70000000D02*
X109285000Y-70000000D01*
G75*
G02*
X109435000Y-70150000I0J-150000D01*
G01*
X109435000Y-71850000D01*
G75*
G02*
X109285000Y-72000000I-150000J0D01*
G01*
X108985000Y-72000000D01*
G75*
G02*
X108835000Y-71850000I0J150000D01*
G01*
X108835000Y-70150000D01*
G75*
G02*
X108985000Y-70000000I150000J0D01*
G01*
G37*
G36*
G01*
X107715000Y-70000000D02*
X108015000Y-70000000D01*
G75*
G02*
X108165000Y-70150000I0J-150000D01*
G01*
X108165000Y-71850000D01*
G75*
G02*
X108015000Y-72000000I-150000J0D01*
G01*
X107715000Y-72000000D01*
G75*
G02*
X107565000Y-71850000I0J150000D01*
G01*
X107565000Y-70150000D01*
G75*
G02*
X107715000Y-70000000I150000J0D01*
G01*
G37*
G36*
G01*
X106445000Y-70000000D02*
X106745000Y-70000000D01*
G75*
G02*
X106895000Y-70150000I0J-150000D01*
G01*
X106895000Y-71850000D01*
G75*
G02*
X106745000Y-72000000I-150000J0D01*
G01*
X106445000Y-72000000D01*
G75*
G02*
X106295000Y-71850000I0J150000D01*
G01*
X106295000Y-70150000D01*
G75*
G02*
X106445000Y-70000000I150000J0D01*
G01*
G37*
G36*
G01*
X105175000Y-70000000D02*
X105475000Y-70000000D01*
G75*
G02*
X105625000Y-70150000I0J-150000D01*
G01*
X105625000Y-71850000D01*
G75*
G02*
X105475000Y-72000000I-150000J0D01*
G01*
X105175000Y-72000000D01*
G75*
G02*
X105025000Y-71850000I0J150000D01*
G01*
X105025000Y-70150000D01*
G75*
G02*
X105175000Y-70000000I150000J0D01*
G01*
G37*
G36*
G01*
X103905000Y-70000000D02*
X104205000Y-70000000D01*
G75*
G02*
X104355000Y-70150000I0J-150000D01*
G01*
X104355000Y-71850000D01*
G75*
G02*
X104205000Y-72000000I-150000J0D01*
G01*
X103905000Y-72000000D01*
G75*
G02*
X103755000Y-71850000I0J150000D01*
G01*
X103755000Y-70150000D01*
G75*
G02*
X103905000Y-70000000I150000J0D01*
G01*
G37*
G36*
G01*
X103905000Y-88000000D02*
X104205000Y-88000000D01*
G75*
G02*
X104355000Y-88150000I0J-150000D01*
G01*
X104355000Y-89850000D01*
G75*
G02*
X104205000Y-90000000I-150000J0D01*
G01*
X103905000Y-90000000D01*
G75*
G02*
X103755000Y-89850000I0J150000D01*
G01*
X103755000Y-88150000D01*
G75*
G02*
X103905000Y-88000000I150000J0D01*
G01*
G37*
G36*
G01*
X105175000Y-88000000D02*
X105475000Y-88000000D01*
G75*
G02*
X105625000Y-88150000I0J-150000D01*
G01*
X105625000Y-89850000D01*
G75*
G02*
X105475000Y-90000000I-150000J0D01*
G01*
X105175000Y-90000000D01*
G75*
G02*
X105025000Y-89850000I0J150000D01*
G01*
X105025000Y-88150000D01*
G75*
G02*
X105175000Y-88000000I150000J0D01*
G01*
G37*
G36*
G01*
X106445000Y-88000000D02*
X106745000Y-88000000D01*
G75*
G02*
X106895000Y-88150000I0J-150000D01*
G01*
X106895000Y-89850000D01*
G75*
G02*
X106745000Y-90000000I-150000J0D01*
G01*
X106445000Y-90000000D01*
G75*
G02*
X106295000Y-89850000I0J150000D01*
G01*
X106295000Y-88150000D01*
G75*
G02*
X106445000Y-88000000I150000J0D01*
G01*
G37*
G36*
G01*
X107715000Y-88000000D02*
X108015000Y-88000000D01*
G75*
G02*
X108165000Y-88150000I0J-150000D01*
G01*
X108165000Y-89850000D01*
G75*
G02*
X108015000Y-90000000I-150000J0D01*
G01*
X107715000Y-90000000D01*
G75*
G02*
X107565000Y-89850000I0J150000D01*
G01*
X107565000Y-88150000D01*
G75*
G02*
X107715000Y-88000000I150000J0D01*
G01*
G37*
G36*
G01*
X108985000Y-88000000D02*
X109285000Y-88000000D01*
G75*
G02*
X109435000Y-88150000I0J-150000D01*
G01*
X109435000Y-89850000D01*
G75*
G02*
X109285000Y-90000000I-150000J0D01*
G01*
X108985000Y-90000000D01*
G75*
G02*
X108835000Y-89850000I0J150000D01*
G01*
X108835000Y-88150000D01*
G75*
G02*
X108985000Y-88000000I150000J0D01*
G01*
G37*
G36*
G01*
X110255000Y-88000000D02*
X110555000Y-88000000D01*
G75*
G02*
X110705000Y-88150000I0J-150000D01*
G01*
X110705000Y-89850000D01*
G75*
G02*
X110555000Y-90000000I-150000J0D01*
G01*
X110255000Y-90000000D01*
G75*
G02*
X110105000Y-89850000I0J150000D01*
G01*
X110105000Y-88150000D01*
G75*
G02*
X110255000Y-88000000I150000J0D01*
G01*
G37*
G36*
G01*
X111525000Y-88000000D02*
X111825000Y-88000000D01*
G75*
G02*
X111975000Y-88150000I0J-150000D01*
G01*
X111975000Y-89850000D01*
G75*
G02*
X111825000Y-90000000I-150000J0D01*
G01*
X111525000Y-90000000D01*
G75*
G02*
X111375000Y-89850000I0J150000D01*
G01*
X111375000Y-88150000D01*
G75*
G02*
X111525000Y-88000000I150000J0D01*
G01*
G37*
G36*
G01*
X112795000Y-88000000D02*
X113095000Y-88000000D01*
G75*
G02*
X113245000Y-88150000I0J-150000D01*
G01*
X113245000Y-89850000D01*
G75*
G02*
X113095000Y-90000000I-150000J0D01*
G01*
X112795000Y-90000000D01*
G75*
G02*
X112645000Y-89850000I0J150000D01*
G01*
X112645000Y-88150000D01*
G75*
G02*
X112795000Y-88000000I150000J0D01*
G01*
G37*
G36*
G01*
X112795000Y-83000000D02*
X113095000Y-83000000D01*
G75*
G02*
X113245000Y-83150000I0J-150000D01*
G01*
X113245000Y-84850000D01*
G75*
G02*
X113095000Y-85000000I-150000J0D01*
G01*
X112795000Y-85000000D01*
G75*
G02*
X112645000Y-84850000I0J150000D01*
G01*
X112645000Y-83150000D01*
G75*
G02*
X112795000Y-83000000I150000J0D01*
G01*
G37*
G36*
G01*
X111525000Y-83000000D02*
X111825000Y-83000000D01*
G75*
G02*
X111975000Y-83150000I0J-150000D01*
G01*
X111975000Y-84850000D01*
G75*
G02*
X111825000Y-85000000I-150000J0D01*
G01*
X111525000Y-85000000D01*
G75*
G02*
X111375000Y-84850000I0J150000D01*
G01*
X111375000Y-83150000D01*
G75*
G02*
X111525000Y-83000000I150000J0D01*
G01*
G37*
G36*
G01*
X110255000Y-83000000D02*
X110555000Y-83000000D01*
G75*
G02*
X110705000Y-83150000I0J-150000D01*
G01*
X110705000Y-84850000D01*
G75*
G02*
X110555000Y-85000000I-150000J0D01*
G01*
X110255000Y-85000000D01*
G75*
G02*
X110105000Y-84850000I0J150000D01*
G01*
X110105000Y-83150000D01*
G75*
G02*
X110255000Y-83000000I150000J0D01*
G01*
G37*
G36*
G01*
X108985000Y-83000000D02*
X109285000Y-83000000D01*
G75*
G02*
X109435000Y-83150000I0J-150000D01*
G01*
X109435000Y-84850000D01*
G75*
G02*
X109285000Y-85000000I-150000J0D01*
G01*
X108985000Y-85000000D01*
G75*
G02*
X108835000Y-84850000I0J150000D01*
G01*
X108835000Y-83150000D01*
G75*
G02*
X108985000Y-83000000I150000J0D01*
G01*
G37*
G36*
G01*
X107715000Y-83000000D02*
X108015000Y-83000000D01*
G75*
G02*
X108165000Y-83150000I0J-150000D01*
G01*
X108165000Y-84850000D01*
G75*
G02*
X108015000Y-85000000I-150000J0D01*
G01*
X107715000Y-85000000D01*
G75*
G02*
X107565000Y-84850000I0J150000D01*
G01*
X107565000Y-83150000D01*
G75*
G02*
X107715000Y-83000000I150000J0D01*
G01*
G37*
G36*
G01*
X106445000Y-83000000D02*
X106745000Y-83000000D01*
G75*
G02*
X106895000Y-83150000I0J-150000D01*
G01*
X106895000Y-84850000D01*
G75*
G02*
X106745000Y-85000000I-150000J0D01*
G01*
X106445000Y-85000000D01*
G75*
G02*
X106295000Y-84850000I0J150000D01*
G01*
X106295000Y-83150000D01*
G75*
G02*
X106445000Y-83000000I150000J0D01*
G01*
G37*
G36*
G01*
X105175000Y-83000000D02*
X105475000Y-83000000D01*
G75*
G02*
X105625000Y-83150000I0J-150000D01*
G01*
X105625000Y-84850000D01*
G75*
G02*
X105475000Y-85000000I-150000J0D01*
G01*
X105175000Y-85000000D01*
G75*
G02*
X105025000Y-84850000I0J150000D01*
G01*
X105025000Y-83150000D01*
G75*
G02*
X105175000Y-83000000I150000J0D01*
G01*
G37*
G36*
G01*
X103905000Y-83000000D02*
X104205000Y-83000000D01*
G75*
G02*
X104355000Y-83150000I0J-150000D01*
G01*
X104355000Y-84850000D01*
G75*
G02*
X104205000Y-85000000I-150000J0D01*
G01*
X103905000Y-85000000D01*
G75*
G02*
X103755000Y-84850000I0J150000D01*
G01*
X103755000Y-83150000D01*
G75*
G02*
X103905000Y-83000000I150000J0D01*
G01*
G37*
G36*
G01*
X103905000Y-101500000D02*
X104205000Y-101500000D01*
G75*
G02*
X104355000Y-101650000I0J-150000D01*
G01*
X104355000Y-103350000D01*
G75*
G02*
X104205000Y-103500000I-150000J0D01*
G01*
X103905000Y-103500000D01*
G75*
G02*
X103755000Y-103350000I0J150000D01*
G01*
X103755000Y-101650000D01*
G75*
G02*
X103905000Y-101500000I150000J0D01*
G01*
G37*
G36*
G01*
X105175000Y-101500000D02*
X105475000Y-101500000D01*
G75*
G02*
X105625000Y-101650000I0J-150000D01*
G01*
X105625000Y-103350000D01*
G75*
G02*
X105475000Y-103500000I-150000J0D01*
G01*
X105175000Y-103500000D01*
G75*
G02*
X105025000Y-103350000I0J150000D01*
G01*
X105025000Y-101650000D01*
G75*
G02*
X105175000Y-101500000I150000J0D01*
G01*
G37*
G36*
G01*
X106445000Y-101500000D02*
X106745000Y-101500000D01*
G75*
G02*
X106895000Y-101650000I0J-150000D01*
G01*
X106895000Y-103350000D01*
G75*
G02*
X106745000Y-103500000I-150000J0D01*
G01*
X106445000Y-103500000D01*
G75*
G02*
X106295000Y-103350000I0J150000D01*
G01*
X106295000Y-101650000D01*
G75*
G02*
X106445000Y-101500000I150000J0D01*
G01*
G37*
G36*
G01*
X107715000Y-101500000D02*
X108015000Y-101500000D01*
G75*
G02*
X108165000Y-101650000I0J-150000D01*
G01*
X108165000Y-103350000D01*
G75*
G02*
X108015000Y-103500000I-150000J0D01*
G01*
X107715000Y-103500000D01*
G75*
G02*
X107565000Y-103350000I0J150000D01*
G01*
X107565000Y-101650000D01*
G75*
G02*
X107715000Y-101500000I150000J0D01*
G01*
G37*
G36*
G01*
X108985000Y-101500000D02*
X109285000Y-101500000D01*
G75*
G02*
X109435000Y-101650000I0J-150000D01*
G01*
X109435000Y-103350000D01*
G75*
G02*
X109285000Y-103500000I-150000J0D01*
G01*
X108985000Y-103500000D01*
G75*
G02*
X108835000Y-103350000I0J150000D01*
G01*
X108835000Y-101650000D01*
G75*
G02*
X108985000Y-101500000I150000J0D01*
G01*
G37*
G36*
G01*
X110255000Y-101500000D02*
X110555000Y-101500000D01*
G75*
G02*
X110705000Y-101650000I0J-150000D01*
G01*
X110705000Y-103350000D01*
G75*
G02*
X110555000Y-103500000I-150000J0D01*
G01*
X110255000Y-103500000D01*
G75*
G02*
X110105000Y-103350000I0J150000D01*
G01*
X110105000Y-101650000D01*
G75*
G02*
X110255000Y-101500000I150000J0D01*
G01*
G37*
G36*
G01*
X111525000Y-101500000D02*
X111825000Y-101500000D01*
G75*
G02*
X111975000Y-101650000I0J-150000D01*
G01*
X111975000Y-103350000D01*
G75*
G02*
X111825000Y-103500000I-150000J0D01*
G01*
X111525000Y-103500000D01*
G75*
G02*
X111375000Y-103350000I0J150000D01*
G01*
X111375000Y-101650000D01*
G75*
G02*
X111525000Y-101500000I150000J0D01*
G01*
G37*
G36*
G01*
X112795000Y-101500000D02*
X113095000Y-101500000D01*
G75*
G02*
X113245000Y-101650000I0J-150000D01*
G01*
X113245000Y-103350000D01*
G75*
G02*
X113095000Y-103500000I-150000J0D01*
G01*
X112795000Y-103500000D01*
G75*
G02*
X112645000Y-103350000I0J150000D01*
G01*
X112645000Y-101650000D01*
G75*
G02*
X112795000Y-101500000I150000J0D01*
G01*
G37*
G36*
G01*
X112795000Y-96500000D02*
X113095000Y-96500000D01*
G75*
G02*
X113245000Y-96650000I0J-150000D01*
G01*
X113245000Y-98350000D01*
G75*
G02*
X113095000Y-98500000I-150000J0D01*
G01*
X112795000Y-98500000D01*
G75*
G02*
X112645000Y-98350000I0J150000D01*
G01*
X112645000Y-96650000D01*
G75*
G02*
X112795000Y-96500000I150000J0D01*
G01*
G37*
G36*
G01*
X111525000Y-96500000D02*
X111825000Y-96500000D01*
G75*
G02*
X111975000Y-96650000I0J-150000D01*
G01*
X111975000Y-98350000D01*
G75*
G02*
X111825000Y-98500000I-150000J0D01*
G01*
X111525000Y-98500000D01*
G75*
G02*
X111375000Y-98350000I0J150000D01*
G01*
X111375000Y-96650000D01*
G75*
G02*
X111525000Y-96500000I150000J0D01*
G01*
G37*
G36*
G01*
X110255000Y-96500000D02*
X110555000Y-96500000D01*
G75*
G02*
X110705000Y-96650000I0J-150000D01*
G01*
X110705000Y-98350000D01*
G75*
G02*
X110555000Y-98500000I-150000J0D01*
G01*
X110255000Y-98500000D01*
G75*
G02*
X110105000Y-98350000I0J150000D01*
G01*
X110105000Y-96650000D01*
G75*
G02*
X110255000Y-96500000I150000J0D01*
G01*
G37*
G36*
G01*
X108985000Y-96500000D02*
X109285000Y-96500000D01*
G75*
G02*
X109435000Y-96650000I0J-150000D01*
G01*
X109435000Y-98350000D01*
G75*
G02*
X109285000Y-98500000I-150000J0D01*
G01*
X108985000Y-98500000D01*
G75*
G02*
X108835000Y-98350000I0J150000D01*
G01*
X108835000Y-96650000D01*
G75*
G02*
X108985000Y-96500000I150000J0D01*
G01*
G37*
G36*
G01*
X107715000Y-96500000D02*
X108015000Y-96500000D01*
G75*
G02*
X108165000Y-96650000I0J-150000D01*
G01*
X108165000Y-98350000D01*
G75*
G02*
X108015000Y-98500000I-150000J0D01*
G01*
X107715000Y-98500000D01*
G75*
G02*
X107565000Y-98350000I0J150000D01*
G01*
X107565000Y-96650000D01*
G75*
G02*
X107715000Y-96500000I150000J0D01*
G01*
G37*
G36*
G01*
X106445000Y-96500000D02*
X106745000Y-96500000D01*
G75*
G02*
X106895000Y-96650000I0J-150000D01*
G01*
X106895000Y-98350000D01*
G75*
G02*
X106745000Y-98500000I-150000J0D01*
G01*
X106445000Y-98500000D01*
G75*
G02*
X106295000Y-98350000I0J150000D01*
G01*
X106295000Y-96650000D01*
G75*
G02*
X106445000Y-96500000I150000J0D01*
G01*
G37*
G36*
G01*
X105175000Y-96500000D02*
X105475000Y-96500000D01*
G75*
G02*
X105625000Y-96650000I0J-150000D01*
G01*
X105625000Y-98350000D01*
G75*
G02*
X105475000Y-98500000I-150000J0D01*
G01*
X105175000Y-98500000D01*
G75*
G02*
X105025000Y-98350000I0J150000D01*
G01*
X105025000Y-96650000D01*
G75*
G02*
X105175000Y-96500000I150000J0D01*
G01*
G37*
G36*
G01*
X103905000Y-96500000D02*
X104205000Y-96500000D01*
G75*
G02*
X104355000Y-96650000I0J-150000D01*
G01*
X104355000Y-98350000D01*
G75*
G02*
X104205000Y-98500000I-150000J0D01*
G01*
X103905000Y-98500000D01*
G75*
G02*
X103755000Y-98350000I0J150000D01*
G01*
X103755000Y-96650000D01*
G75*
G02*
X103905000Y-96500000I150000J0D01*
G01*
G37*
G36*
G01*
X87405000Y-88000000D02*
X87705000Y-88000000D01*
G75*
G02*
X87855000Y-88150000I0J-150000D01*
G01*
X87855000Y-89850000D01*
G75*
G02*
X87705000Y-90000000I-150000J0D01*
G01*
X87405000Y-90000000D01*
G75*
G02*
X87255000Y-89850000I0J150000D01*
G01*
X87255000Y-88150000D01*
G75*
G02*
X87405000Y-88000000I150000J0D01*
G01*
G37*
G36*
G01*
X88675000Y-88000000D02*
X88975000Y-88000000D01*
G75*
G02*
X89125000Y-88150000I0J-150000D01*
G01*
X89125000Y-89850000D01*
G75*
G02*
X88975000Y-90000000I-150000J0D01*
G01*
X88675000Y-90000000D01*
G75*
G02*
X88525000Y-89850000I0J150000D01*
G01*
X88525000Y-88150000D01*
G75*
G02*
X88675000Y-88000000I150000J0D01*
G01*
G37*
G36*
G01*
X89945000Y-88000000D02*
X90245000Y-88000000D01*
G75*
G02*
X90395000Y-88150000I0J-150000D01*
G01*
X90395000Y-89850000D01*
G75*
G02*
X90245000Y-90000000I-150000J0D01*
G01*
X89945000Y-90000000D01*
G75*
G02*
X89795000Y-89850000I0J150000D01*
G01*
X89795000Y-88150000D01*
G75*
G02*
X89945000Y-88000000I150000J0D01*
G01*
G37*
G36*
G01*
X91215000Y-88000000D02*
X91515000Y-88000000D01*
G75*
G02*
X91665000Y-88150000I0J-150000D01*
G01*
X91665000Y-89850000D01*
G75*
G02*
X91515000Y-90000000I-150000J0D01*
G01*
X91215000Y-90000000D01*
G75*
G02*
X91065000Y-89850000I0J150000D01*
G01*
X91065000Y-88150000D01*
G75*
G02*
X91215000Y-88000000I150000J0D01*
G01*
G37*
G36*
G01*
X92485000Y-88000000D02*
X92785000Y-88000000D01*
G75*
G02*
X92935000Y-88150000I0J-150000D01*
G01*
X92935000Y-89850000D01*
G75*
G02*
X92785000Y-90000000I-150000J0D01*
G01*
X92485000Y-90000000D01*
G75*
G02*
X92335000Y-89850000I0J150000D01*
G01*
X92335000Y-88150000D01*
G75*
G02*
X92485000Y-88000000I150000J0D01*
G01*
G37*
G36*
G01*
X93755000Y-88000000D02*
X94055000Y-88000000D01*
G75*
G02*
X94205000Y-88150000I0J-150000D01*
G01*
X94205000Y-89850000D01*
G75*
G02*
X94055000Y-90000000I-150000J0D01*
G01*
X93755000Y-90000000D01*
G75*
G02*
X93605000Y-89850000I0J150000D01*
G01*
X93605000Y-88150000D01*
G75*
G02*
X93755000Y-88000000I150000J0D01*
G01*
G37*
G36*
G01*
X95025000Y-88000000D02*
X95325000Y-88000000D01*
G75*
G02*
X95475000Y-88150000I0J-150000D01*
G01*
X95475000Y-89850000D01*
G75*
G02*
X95325000Y-90000000I-150000J0D01*
G01*
X95025000Y-90000000D01*
G75*
G02*
X94875000Y-89850000I0J150000D01*
G01*
X94875000Y-88150000D01*
G75*
G02*
X95025000Y-88000000I150000J0D01*
G01*
G37*
G36*
G01*
X96295000Y-88000000D02*
X96595000Y-88000000D01*
G75*
G02*
X96745000Y-88150000I0J-150000D01*
G01*
X96745000Y-89850000D01*
G75*
G02*
X96595000Y-90000000I-150000J0D01*
G01*
X96295000Y-90000000D01*
G75*
G02*
X96145000Y-89850000I0J150000D01*
G01*
X96145000Y-88150000D01*
G75*
G02*
X96295000Y-88000000I150000J0D01*
G01*
G37*
G36*
G01*
X96295000Y-83000000D02*
X96595000Y-83000000D01*
G75*
G02*
X96745000Y-83150000I0J-150000D01*
G01*
X96745000Y-84850000D01*
G75*
G02*
X96595000Y-85000000I-150000J0D01*
G01*
X96295000Y-85000000D01*
G75*
G02*
X96145000Y-84850000I0J150000D01*
G01*
X96145000Y-83150000D01*
G75*
G02*
X96295000Y-83000000I150000J0D01*
G01*
G37*
G36*
G01*
X95025000Y-83000000D02*
X95325000Y-83000000D01*
G75*
G02*
X95475000Y-83150000I0J-150000D01*
G01*
X95475000Y-84850000D01*
G75*
G02*
X95325000Y-85000000I-150000J0D01*
G01*
X95025000Y-85000000D01*
G75*
G02*
X94875000Y-84850000I0J150000D01*
G01*
X94875000Y-83150000D01*
G75*
G02*
X95025000Y-83000000I150000J0D01*
G01*
G37*
G36*
G01*
X93755000Y-83000000D02*
X94055000Y-83000000D01*
G75*
G02*
X94205000Y-83150000I0J-150000D01*
G01*
X94205000Y-84850000D01*
G75*
G02*
X94055000Y-85000000I-150000J0D01*
G01*
X93755000Y-85000000D01*
G75*
G02*
X93605000Y-84850000I0J150000D01*
G01*
X93605000Y-83150000D01*
G75*
G02*
X93755000Y-83000000I150000J0D01*
G01*
G37*
G36*
G01*
X92485000Y-83000000D02*
X92785000Y-83000000D01*
G75*
G02*
X92935000Y-83150000I0J-150000D01*
G01*
X92935000Y-84850000D01*
G75*
G02*
X92785000Y-85000000I-150000J0D01*
G01*
X92485000Y-85000000D01*
G75*
G02*
X92335000Y-84850000I0J150000D01*
G01*
X92335000Y-83150000D01*
G75*
G02*
X92485000Y-83000000I150000J0D01*
G01*
G37*
G36*
G01*
X91215000Y-83000000D02*
X91515000Y-83000000D01*
G75*
G02*
X91665000Y-83150000I0J-150000D01*
G01*
X91665000Y-84850000D01*
G75*
G02*
X91515000Y-85000000I-150000J0D01*
G01*
X91215000Y-85000000D01*
G75*
G02*
X91065000Y-84850000I0J150000D01*
G01*
X91065000Y-83150000D01*
G75*
G02*
X91215000Y-83000000I150000J0D01*
G01*
G37*
G36*
G01*
X89945000Y-83000000D02*
X90245000Y-83000000D01*
G75*
G02*
X90395000Y-83150000I0J-150000D01*
G01*
X90395000Y-84850000D01*
G75*
G02*
X90245000Y-85000000I-150000J0D01*
G01*
X89945000Y-85000000D01*
G75*
G02*
X89795000Y-84850000I0J150000D01*
G01*
X89795000Y-83150000D01*
G75*
G02*
X89945000Y-83000000I150000J0D01*
G01*
G37*
G36*
G01*
X88675000Y-83000000D02*
X88975000Y-83000000D01*
G75*
G02*
X89125000Y-83150000I0J-150000D01*
G01*
X89125000Y-84850000D01*
G75*
G02*
X88975000Y-85000000I-150000J0D01*
G01*
X88675000Y-85000000D01*
G75*
G02*
X88525000Y-84850000I0J150000D01*
G01*
X88525000Y-83150000D01*
G75*
G02*
X88675000Y-83000000I150000J0D01*
G01*
G37*
G36*
G01*
X87405000Y-83000000D02*
X87705000Y-83000000D01*
G75*
G02*
X87855000Y-83150000I0J-150000D01*
G01*
X87855000Y-84850000D01*
G75*
G02*
X87705000Y-85000000I-150000J0D01*
G01*
X87405000Y-85000000D01*
G75*
G02*
X87255000Y-84850000I0J150000D01*
G01*
X87255000Y-83150000D01*
G75*
G02*
X87405000Y-83000000I150000J0D01*
G01*
G37*
G36*
G01*
X87405000Y-75000000D02*
X87705000Y-75000000D01*
G75*
G02*
X87855000Y-75150000I0J-150000D01*
G01*
X87855000Y-76850000D01*
G75*
G02*
X87705000Y-77000000I-150000J0D01*
G01*
X87405000Y-77000000D01*
G75*
G02*
X87255000Y-76850000I0J150000D01*
G01*
X87255000Y-75150000D01*
G75*
G02*
X87405000Y-75000000I150000J0D01*
G01*
G37*
G36*
G01*
X88675000Y-75000000D02*
X88975000Y-75000000D01*
G75*
G02*
X89125000Y-75150000I0J-150000D01*
G01*
X89125000Y-76850000D01*
G75*
G02*
X88975000Y-77000000I-150000J0D01*
G01*
X88675000Y-77000000D01*
G75*
G02*
X88525000Y-76850000I0J150000D01*
G01*
X88525000Y-75150000D01*
G75*
G02*
X88675000Y-75000000I150000J0D01*
G01*
G37*
G36*
G01*
X89945000Y-75000000D02*
X90245000Y-75000000D01*
G75*
G02*
X90395000Y-75150000I0J-150000D01*
G01*
X90395000Y-76850000D01*
G75*
G02*
X90245000Y-77000000I-150000J0D01*
G01*
X89945000Y-77000000D01*
G75*
G02*
X89795000Y-76850000I0J150000D01*
G01*
X89795000Y-75150000D01*
G75*
G02*
X89945000Y-75000000I150000J0D01*
G01*
G37*
G36*
G01*
X91215000Y-75000000D02*
X91515000Y-75000000D01*
G75*
G02*
X91665000Y-75150000I0J-150000D01*
G01*
X91665000Y-76850000D01*
G75*
G02*
X91515000Y-77000000I-150000J0D01*
G01*
X91215000Y-77000000D01*
G75*
G02*
X91065000Y-76850000I0J150000D01*
G01*
X91065000Y-75150000D01*
G75*
G02*
X91215000Y-75000000I150000J0D01*
G01*
G37*
G36*
G01*
X92485000Y-75000000D02*
X92785000Y-75000000D01*
G75*
G02*
X92935000Y-75150000I0J-150000D01*
G01*
X92935000Y-76850000D01*
G75*
G02*
X92785000Y-77000000I-150000J0D01*
G01*
X92485000Y-77000000D01*
G75*
G02*
X92335000Y-76850000I0J150000D01*
G01*
X92335000Y-75150000D01*
G75*
G02*
X92485000Y-75000000I150000J0D01*
G01*
G37*
G36*
G01*
X93755000Y-75000000D02*
X94055000Y-75000000D01*
G75*
G02*
X94205000Y-75150000I0J-150000D01*
G01*
X94205000Y-76850000D01*
G75*
G02*
X94055000Y-77000000I-150000J0D01*
G01*
X93755000Y-77000000D01*
G75*
G02*
X93605000Y-76850000I0J150000D01*
G01*
X93605000Y-75150000D01*
G75*
G02*
X93755000Y-75000000I150000J0D01*
G01*
G37*
G36*
G01*
X95025000Y-75000000D02*
X95325000Y-75000000D01*
G75*
G02*
X95475000Y-75150000I0J-150000D01*
G01*
X95475000Y-76850000D01*
G75*
G02*
X95325000Y-77000000I-150000J0D01*
G01*
X95025000Y-77000000D01*
G75*
G02*
X94875000Y-76850000I0J150000D01*
G01*
X94875000Y-75150000D01*
G75*
G02*
X95025000Y-75000000I150000J0D01*
G01*
G37*
G36*
G01*
X96295000Y-75000000D02*
X96595000Y-75000000D01*
G75*
G02*
X96745000Y-75150000I0J-150000D01*
G01*
X96745000Y-76850000D01*
G75*
G02*
X96595000Y-77000000I-150000J0D01*
G01*
X96295000Y-77000000D01*
G75*
G02*
X96145000Y-76850000I0J150000D01*
G01*
X96145000Y-75150000D01*
G75*
G02*
X96295000Y-75000000I150000J0D01*
G01*
G37*
G36*
G01*
X96295000Y-70000000D02*
X96595000Y-70000000D01*
G75*
G02*
X96745000Y-70150000I0J-150000D01*
G01*
X96745000Y-71850000D01*
G75*
G02*
X96595000Y-72000000I-150000J0D01*
G01*
X96295000Y-72000000D01*
G75*
G02*
X96145000Y-71850000I0J150000D01*
G01*
X96145000Y-70150000D01*
G75*
G02*
X96295000Y-70000000I150000J0D01*
G01*
G37*
G36*
G01*
X95025000Y-70000000D02*
X95325000Y-70000000D01*
G75*
G02*
X95475000Y-70150000I0J-150000D01*
G01*
X95475000Y-71850000D01*
G75*
G02*
X95325000Y-72000000I-150000J0D01*
G01*
X95025000Y-72000000D01*
G75*
G02*
X94875000Y-71850000I0J150000D01*
G01*
X94875000Y-70150000D01*
G75*
G02*
X95025000Y-70000000I150000J0D01*
G01*
G37*
G36*
G01*
X93755000Y-70000000D02*
X94055000Y-70000000D01*
G75*
G02*
X94205000Y-70150000I0J-150000D01*
G01*
X94205000Y-71850000D01*
G75*
G02*
X94055000Y-72000000I-150000J0D01*
G01*
X93755000Y-72000000D01*
G75*
G02*
X93605000Y-71850000I0J150000D01*
G01*
X93605000Y-70150000D01*
G75*
G02*
X93755000Y-70000000I150000J0D01*
G01*
G37*
G36*
G01*
X92485000Y-70000000D02*
X92785000Y-70000000D01*
G75*
G02*
X92935000Y-70150000I0J-150000D01*
G01*
X92935000Y-71850000D01*
G75*
G02*
X92785000Y-72000000I-150000J0D01*
G01*
X92485000Y-72000000D01*
G75*
G02*
X92335000Y-71850000I0J150000D01*
G01*
X92335000Y-70150000D01*
G75*
G02*
X92485000Y-70000000I150000J0D01*
G01*
G37*
G36*
G01*
X91215000Y-70000000D02*
X91515000Y-70000000D01*
G75*
G02*
X91665000Y-70150000I0J-150000D01*
G01*
X91665000Y-71850000D01*
G75*
G02*
X91515000Y-72000000I-150000J0D01*
G01*
X91215000Y-72000000D01*
G75*
G02*
X91065000Y-71850000I0J150000D01*
G01*
X91065000Y-70150000D01*
G75*
G02*
X91215000Y-70000000I150000J0D01*
G01*
G37*
G36*
G01*
X89945000Y-70000000D02*
X90245000Y-70000000D01*
G75*
G02*
X90395000Y-70150000I0J-150000D01*
G01*
X90395000Y-71850000D01*
G75*
G02*
X90245000Y-72000000I-150000J0D01*
G01*
X89945000Y-72000000D01*
G75*
G02*
X89795000Y-71850000I0J150000D01*
G01*
X89795000Y-70150000D01*
G75*
G02*
X89945000Y-70000000I150000J0D01*
G01*
G37*
G36*
G01*
X88675000Y-70000000D02*
X88975000Y-70000000D01*
G75*
G02*
X89125000Y-70150000I0J-150000D01*
G01*
X89125000Y-71850000D01*
G75*
G02*
X88975000Y-72000000I-150000J0D01*
G01*
X88675000Y-72000000D01*
G75*
G02*
X88525000Y-71850000I0J150000D01*
G01*
X88525000Y-70150000D01*
G75*
G02*
X88675000Y-70000000I150000J0D01*
G01*
G37*
G36*
G01*
X87405000Y-70000000D02*
X87705000Y-70000000D01*
G75*
G02*
X87855000Y-70150000I0J-150000D01*
G01*
X87855000Y-71850000D01*
G75*
G02*
X87705000Y-72000000I-150000J0D01*
G01*
X87405000Y-72000000D01*
G75*
G02*
X87255000Y-71850000I0J150000D01*
G01*
X87255000Y-70150000D01*
G75*
G02*
X87405000Y-70000000I150000J0D01*
G01*
G37*
G36*
G01*
X87405000Y-101500000D02*
X87705000Y-101500000D01*
G75*
G02*
X87855000Y-101650000I0J-150000D01*
G01*
X87855000Y-103350000D01*
G75*
G02*
X87705000Y-103500000I-150000J0D01*
G01*
X87405000Y-103500000D01*
G75*
G02*
X87255000Y-103350000I0J150000D01*
G01*
X87255000Y-101650000D01*
G75*
G02*
X87405000Y-101500000I150000J0D01*
G01*
G37*
G36*
G01*
X88675000Y-101500000D02*
X88975000Y-101500000D01*
G75*
G02*
X89125000Y-101650000I0J-150000D01*
G01*
X89125000Y-103350000D01*
G75*
G02*
X88975000Y-103500000I-150000J0D01*
G01*
X88675000Y-103500000D01*
G75*
G02*
X88525000Y-103350000I0J150000D01*
G01*
X88525000Y-101650000D01*
G75*
G02*
X88675000Y-101500000I150000J0D01*
G01*
G37*
G36*
G01*
X89945000Y-101500000D02*
X90245000Y-101500000D01*
G75*
G02*
X90395000Y-101650000I0J-150000D01*
G01*
X90395000Y-103350000D01*
G75*
G02*
X90245000Y-103500000I-150000J0D01*
G01*
X89945000Y-103500000D01*
G75*
G02*
X89795000Y-103350000I0J150000D01*
G01*
X89795000Y-101650000D01*
G75*
G02*
X89945000Y-101500000I150000J0D01*
G01*
G37*
G36*
G01*
X91215000Y-101500000D02*
X91515000Y-101500000D01*
G75*
G02*
X91665000Y-101650000I0J-150000D01*
G01*
X91665000Y-103350000D01*
G75*
G02*
X91515000Y-103500000I-150000J0D01*
G01*
X91215000Y-103500000D01*
G75*
G02*
X91065000Y-103350000I0J150000D01*
G01*
X91065000Y-101650000D01*
G75*
G02*
X91215000Y-101500000I150000J0D01*
G01*
G37*
G36*
G01*
X92485000Y-101500000D02*
X92785000Y-101500000D01*
G75*
G02*
X92935000Y-101650000I0J-150000D01*
G01*
X92935000Y-103350000D01*
G75*
G02*
X92785000Y-103500000I-150000J0D01*
G01*
X92485000Y-103500000D01*
G75*
G02*
X92335000Y-103350000I0J150000D01*
G01*
X92335000Y-101650000D01*
G75*
G02*
X92485000Y-101500000I150000J0D01*
G01*
G37*
G36*
G01*
X93755000Y-101500000D02*
X94055000Y-101500000D01*
G75*
G02*
X94205000Y-101650000I0J-150000D01*
G01*
X94205000Y-103350000D01*
G75*
G02*
X94055000Y-103500000I-150000J0D01*
G01*
X93755000Y-103500000D01*
G75*
G02*
X93605000Y-103350000I0J150000D01*
G01*
X93605000Y-101650000D01*
G75*
G02*
X93755000Y-101500000I150000J0D01*
G01*
G37*
G36*
G01*
X95025000Y-101500000D02*
X95325000Y-101500000D01*
G75*
G02*
X95475000Y-101650000I0J-150000D01*
G01*
X95475000Y-103350000D01*
G75*
G02*
X95325000Y-103500000I-150000J0D01*
G01*
X95025000Y-103500000D01*
G75*
G02*
X94875000Y-103350000I0J150000D01*
G01*
X94875000Y-101650000D01*
G75*
G02*
X95025000Y-101500000I150000J0D01*
G01*
G37*
G36*
G01*
X96295000Y-101500000D02*
X96595000Y-101500000D01*
G75*
G02*
X96745000Y-101650000I0J-150000D01*
G01*
X96745000Y-103350000D01*
G75*
G02*
X96595000Y-103500000I-150000J0D01*
G01*
X96295000Y-103500000D01*
G75*
G02*
X96145000Y-103350000I0J150000D01*
G01*
X96145000Y-101650000D01*
G75*
G02*
X96295000Y-101500000I150000J0D01*
G01*
G37*
G36*
G01*
X96295000Y-96500000D02*
X96595000Y-96500000D01*
G75*
G02*
X96745000Y-96650000I0J-150000D01*
G01*
X96745000Y-98350000D01*
G75*
G02*
X96595000Y-98500000I-150000J0D01*
G01*
X96295000Y-98500000D01*
G75*
G02*
X96145000Y-98350000I0J150000D01*
G01*
X96145000Y-96650000D01*
G75*
G02*
X96295000Y-96500000I150000J0D01*
G01*
G37*
G36*
G01*
X95025000Y-96500000D02*
X95325000Y-96500000D01*
G75*
G02*
X95475000Y-96650000I0J-150000D01*
G01*
X95475000Y-98350000D01*
G75*
G02*
X95325000Y-98500000I-150000J0D01*
G01*
X95025000Y-98500000D01*
G75*
G02*
X94875000Y-98350000I0J150000D01*
G01*
X94875000Y-96650000D01*
G75*
G02*
X95025000Y-96500000I150000J0D01*
G01*
G37*
G36*
G01*
X93755000Y-96500000D02*
X94055000Y-96500000D01*
G75*
G02*
X94205000Y-96650000I0J-150000D01*
G01*
X94205000Y-98350000D01*
G75*
G02*
X94055000Y-98500000I-150000J0D01*
G01*
X93755000Y-98500000D01*
G75*
G02*
X93605000Y-98350000I0J150000D01*
G01*
X93605000Y-96650000D01*
G75*
G02*
X93755000Y-96500000I150000J0D01*
G01*
G37*
G36*
G01*
X92485000Y-96500000D02*
X92785000Y-96500000D01*
G75*
G02*
X92935000Y-96650000I0J-150000D01*
G01*
X92935000Y-98350000D01*
G75*
G02*
X92785000Y-98500000I-150000J0D01*
G01*
X92485000Y-98500000D01*
G75*
G02*
X92335000Y-98350000I0J150000D01*
G01*
X92335000Y-96650000D01*
G75*
G02*
X92485000Y-96500000I150000J0D01*
G01*
G37*
G36*
G01*
X91215000Y-96500000D02*
X91515000Y-96500000D01*
G75*
G02*
X91665000Y-96650000I0J-150000D01*
G01*
X91665000Y-98350000D01*
G75*
G02*
X91515000Y-98500000I-150000J0D01*
G01*
X91215000Y-98500000D01*
G75*
G02*
X91065000Y-98350000I0J150000D01*
G01*
X91065000Y-96650000D01*
G75*
G02*
X91215000Y-96500000I150000J0D01*
G01*
G37*
G36*
G01*
X89945000Y-96500000D02*
X90245000Y-96500000D01*
G75*
G02*
X90395000Y-96650000I0J-150000D01*
G01*
X90395000Y-98350000D01*
G75*
G02*
X90245000Y-98500000I-150000J0D01*
G01*
X89945000Y-98500000D01*
G75*
G02*
X89795000Y-98350000I0J150000D01*
G01*
X89795000Y-96650000D01*
G75*
G02*
X89945000Y-96500000I150000J0D01*
G01*
G37*
G36*
G01*
X88675000Y-96500000D02*
X88975000Y-96500000D01*
G75*
G02*
X89125000Y-96650000I0J-150000D01*
G01*
X89125000Y-98350000D01*
G75*
G02*
X88975000Y-98500000I-150000J0D01*
G01*
X88675000Y-98500000D01*
G75*
G02*
X88525000Y-98350000I0J150000D01*
G01*
X88525000Y-96650000D01*
G75*
G02*
X88675000Y-96500000I150000J0D01*
G01*
G37*
G36*
G01*
X87405000Y-96500000D02*
X87705000Y-96500000D01*
G75*
G02*
X87855000Y-96650000I0J-150000D01*
G01*
X87855000Y-98350000D01*
G75*
G02*
X87705000Y-98500000I-150000J0D01*
G01*
X87405000Y-98500000D01*
G75*
G02*
X87255000Y-98350000I0J150000D01*
G01*
X87255000Y-96650000D01*
G75*
G02*
X87405000Y-96500000I150000J0D01*
G01*
G37*
G36*
G01*
X61030000Y-80090000D02*
X61030000Y-80390000D01*
G75*
G02*
X60880000Y-80540000I-150000J0D01*
G01*
X59130000Y-80540000D01*
G75*
G02*
X58980000Y-80390000I0J150000D01*
G01*
X58980000Y-80090000D01*
G75*
G02*
X59130000Y-79940000I150000J0D01*
G01*
X60880000Y-79940000D01*
G75*
G02*
X61030000Y-80090000I0J-150000D01*
G01*
G37*
G36*
G01*
X61030000Y-81360000D02*
X61030000Y-81660000D01*
G75*
G02*
X60880000Y-81810000I-150000J0D01*
G01*
X59130000Y-81810000D01*
G75*
G02*
X58980000Y-81660000I0J150000D01*
G01*
X58980000Y-81360000D01*
G75*
G02*
X59130000Y-81210000I150000J0D01*
G01*
X60880000Y-81210000D01*
G75*
G02*
X61030000Y-81360000I0J-150000D01*
G01*
G37*
G36*
G01*
X61030000Y-82630000D02*
X61030000Y-82930000D01*
G75*
G02*
X60880000Y-83080000I-150000J0D01*
G01*
X59130000Y-83080000D01*
G75*
G02*
X58980000Y-82930000I0J150000D01*
G01*
X58980000Y-82630000D01*
G75*
G02*
X59130000Y-82480000I150000J0D01*
G01*
X60880000Y-82480000D01*
G75*
G02*
X61030000Y-82630000I0J-150000D01*
G01*
G37*
G36*
G01*
X61030000Y-83900000D02*
X61030000Y-84200000D01*
G75*
G02*
X60880000Y-84350000I-150000J0D01*
G01*
X59130000Y-84350000D01*
G75*
G02*
X58980000Y-84200000I0J150000D01*
G01*
X58980000Y-83900000D01*
G75*
G02*
X59130000Y-83750000I150000J0D01*
G01*
X60880000Y-83750000D01*
G75*
G02*
X61030000Y-83900000I0J-150000D01*
G01*
G37*
G36*
G01*
X61030000Y-85170000D02*
X61030000Y-85470000D01*
G75*
G02*
X60880000Y-85620000I-150000J0D01*
G01*
X59130000Y-85620000D01*
G75*
G02*
X58980000Y-85470000I0J150000D01*
G01*
X58980000Y-85170000D01*
G75*
G02*
X59130000Y-85020000I150000J0D01*
G01*
X60880000Y-85020000D01*
G75*
G02*
X61030000Y-85170000I0J-150000D01*
G01*
G37*
G36*
G01*
X61030000Y-86440000D02*
X61030000Y-86740000D01*
G75*
G02*
X60880000Y-86890000I-150000J0D01*
G01*
X59130000Y-86890000D01*
G75*
G02*
X58980000Y-86740000I0J150000D01*
G01*
X58980000Y-86440000D01*
G75*
G02*
X59130000Y-86290000I150000J0D01*
G01*
X60880000Y-86290000D01*
G75*
G02*
X61030000Y-86440000I0J-150000D01*
G01*
G37*
G36*
G01*
X61030000Y-87710000D02*
X61030000Y-88010000D01*
G75*
G02*
X60880000Y-88160000I-150000J0D01*
G01*
X59130000Y-88160000D01*
G75*
G02*
X58980000Y-88010000I0J150000D01*
G01*
X58980000Y-87710000D01*
G75*
G02*
X59130000Y-87560000I150000J0D01*
G01*
X60880000Y-87560000D01*
G75*
G02*
X61030000Y-87710000I0J-150000D01*
G01*
G37*
G36*
G01*
X61030000Y-88980000D02*
X61030000Y-89280000D01*
G75*
G02*
X60880000Y-89430000I-150000J0D01*
G01*
X59130000Y-89430000D01*
G75*
G02*
X58980000Y-89280000I0J150000D01*
G01*
X58980000Y-88980000D01*
G75*
G02*
X59130000Y-88830000I150000J0D01*
G01*
X60880000Y-88830000D01*
G75*
G02*
X61030000Y-88980000I0J-150000D01*
G01*
G37*
G36*
G01*
X61030000Y-90250000D02*
X61030000Y-90550000D01*
G75*
G02*
X60880000Y-90700000I-150000J0D01*
G01*
X59130000Y-90700000D01*
G75*
G02*
X58980000Y-90550000I0J150000D01*
G01*
X58980000Y-90250000D01*
G75*
G02*
X59130000Y-90100000I150000J0D01*
G01*
X60880000Y-90100000D01*
G75*
G02*
X61030000Y-90250000I0J-150000D01*
G01*
G37*
G36*
G01*
X61030000Y-91520000D02*
X61030000Y-91820000D01*
G75*
G02*
X60880000Y-91970000I-150000J0D01*
G01*
X59130000Y-91970000D01*
G75*
G02*
X58980000Y-91820000I0J150000D01*
G01*
X58980000Y-91520000D01*
G75*
G02*
X59130000Y-91370000I150000J0D01*
G01*
X60880000Y-91370000D01*
G75*
G02*
X61030000Y-91520000I0J-150000D01*
G01*
G37*
G36*
G01*
X70330000Y-91520000D02*
X70330000Y-91820000D01*
G75*
G02*
X70180000Y-91970000I-150000J0D01*
G01*
X68430000Y-91970000D01*
G75*
G02*
X68280000Y-91820000I0J150000D01*
G01*
X68280000Y-91520000D01*
G75*
G02*
X68430000Y-91370000I150000J0D01*
G01*
X70180000Y-91370000D01*
G75*
G02*
X70330000Y-91520000I0J-150000D01*
G01*
G37*
G36*
G01*
X70330000Y-90250000D02*
X70330000Y-90550000D01*
G75*
G02*
X70180000Y-90700000I-150000J0D01*
G01*
X68430000Y-90700000D01*
G75*
G02*
X68280000Y-90550000I0J150000D01*
G01*
X68280000Y-90250000D01*
G75*
G02*
X68430000Y-90100000I150000J0D01*
G01*
X70180000Y-90100000D01*
G75*
G02*
X70330000Y-90250000I0J-150000D01*
G01*
G37*
G36*
G01*
X70330000Y-88980000D02*
X70330000Y-89280000D01*
G75*
G02*
X70180000Y-89430000I-150000J0D01*
G01*
X68430000Y-89430000D01*
G75*
G02*
X68280000Y-89280000I0J150000D01*
G01*
X68280000Y-88980000D01*
G75*
G02*
X68430000Y-88830000I150000J0D01*
G01*
X70180000Y-88830000D01*
G75*
G02*
X70330000Y-88980000I0J-150000D01*
G01*
G37*
G36*
G01*
X70330000Y-87710000D02*
X70330000Y-88010000D01*
G75*
G02*
X70180000Y-88160000I-150000J0D01*
G01*
X68430000Y-88160000D01*
G75*
G02*
X68280000Y-88010000I0J150000D01*
G01*
X68280000Y-87710000D01*
G75*
G02*
X68430000Y-87560000I150000J0D01*
G01*
X70180000Y-87560000D01*
G75*
G02*
X70330000Y-87710000I0J-150000D01*
G01*
G37*
G36*
G01*
X70330000Y-86440000D02*
X70330000Y-86740000D01*
G75*
G02*
X70180000Y-86890000I-150000J0D01*
G01*
X68430000Y-86890000D01*
G75*
G02*
X68280000Y-86740000I0J150000D01*
G01*
X68280000Y-86440000D01*
G75*
G02*
X68430000Y-86290000I150000J0D01*
G01*
X70180000Y-86290000D01*
G75*
G02*
X70330000Y-86440000I0J-150000D01*
G01*
G37*
G36*
G01*
X70330000Y-85170000D02*
X70330000Y-85470000D01*
G75*
G02*
X70180000Y-85620000I-150000J0D01*
G01*
X68430000Y-85620000D01*
G75*
G02*
X68280000Y-85470000I0J150000D01*
G01*
X68280000Y-85170000D01*
G75*
G02*
X68430000Y-85020000I150000J0D01*
G01*
X70180000Y-85020000D01*
G75*
G02*
X70330000Y-85170000I0J-150000D01*
G01*
G37*
G36*
G01*
X70330000Y-83900000D02*
X70330000Y-84200000D01*
G75*
G02*
X70180000Y-84350000I-150000J0D01*
G01*
X68430000Y-84350000D01*
G75*
G02*
X68280000Y-84200000I0J150000D01*
G01*
X68280000Y-83900000D01*
G75*
G02*
X68430000Y-83750000I150000J0D01*
G01*
X70180000Y-83750000D01*
G75*
G02*
X70330000Y-83900000I0J-150000D01*
G01*
G37*
G36*
G01*
X70330000Y-82630000D02*
X70330000Y-82930000D01*
G75*
G02*
X70180000Y-83080000I-150000J0D01*
G01*
X68430000Y-83080000D01*
G75*
G02*
X68280000Y-82930000I0J150000D01*
G01*
X68280000Y-82630000D01*
G75*
G02*
X68430000Y-82480000I150000J0D01*
G01*
X70180000Y-82480000D01*
G75*
G02*
X70330000Y-82630000I0J-150000D01*
G01*
G37*
G36*
G01*
X70330000Y-81360000D02*
X70330000Y-81660000D01*
G75*
G02*
X70180000Y-81810000I-150000J0D01*
G01*
X68430000Y-81810000D01*
G75*
G02*
X68280000Y-81660000I0J150000D01*
G01*
X68280000Y-81360000D01*
G75*
G02*
X68430000Y-81210000I150000J0D01*
G01*
X70180000Y-81210000D01*
G75*
G02*
X70330000Y-81360000I0J-150000D01*
G01*
G37*
G36*
G01*
X70330000Y-80090000D02*
X70330000Y-80390000D01*
G75*
G02*
X70180000Y-80540000I-150000J0D01*
G01*
X68430000Y-80540000D01*
G75*
G02*
X68280000Y-80390000I0J150000D01*
G01*
X68280000Y-80090000D01*
G75*
G02*
X68430000Y-79940000I150000J0D01*
G01*
X70180000Y-79940000D01*
G75*
G02*
X70330000Y-80090000I0J-150000D01*
G01*
G37*
G36*
G01*
X77475000Y-82600000D02*
X77475000Y-82300000D01*
G75*
G02*
X77625000Y-82150000I150000J0D01*
G01*
X78650000Y-82150000D01*
G75*
G02*
X78800000Y-82300000I0J-150000D01*
G01*
X78800000Y-82600000D01*
G75*
G02*
X78650000Y-82750000I-150000J0D01*
G01*
X77625000Y-82750000D01*
G75*
G02*
X77475000Y-82600000I0J150000D01*
G01*
G37*
G36*
G01*
X77475000Y-80700000D02*
X77475000Y-80400000D01*
G75*
G02*
X77625000Y-80250000I150000J0D01*
G01*
X78650000Y-80250000D01*
G75*
G02*
X78800000Y-80400000I0J-150000D01*
G01*
X78800000Y-80700000D01*
G75*
G02*
X78650000Y-80850000I-150000J0D01*
G01*
X77625000Y-80850000D01*
G75*
G02*
X77475000Y-80700000I0J150000D01*
G01*
G37*
G36*
G01*
X75200000Y-80700000D02*
X75200000Y-80400000D01*
G75*
G02*
X75350000Y-80250000I150000J0D01*
G01*
X76375000Y-80250000D01*
G75*
G02*
X76525000Y-80400000I0J-150000D01*
G01*
X76525000Y-80700000D01*
G75*
G02*
X76375000Y-80850000I-150000J0D01*
G01*
X75350000Y-80850000D01*
G75*
G02*
X75200000Y-80700000I0J150000D01*
G01*
G37*
G36*
G01*
X75200000Y-81650000D02*
X75200000Y-81350000D01*
G75*
G02*
X75350000Y-81200000I150000J0D01*
G01*
X76375000Y-81200000D01*
G75*
G02*
X76525000Y-81350000I0J-150000D01*
G01*
X76525000Y-81650000D01*
G75*
G02*
X76375000Y-81800000I-150000J0D01*
G01*
X75350000Y-81800000D01*
G75*
G02*
X75200000Y-81650000I0J150000D01*
G01*
G37*
G36*
G01*
X75200000Y-82600000D02*
X75200000Y-82300000D01*
G75*
G02*
X75350000Y-82150000I150000J0D01*
G01*
X76375000Y-82150000D01*
G75*
G02*
X76525000Y-82300000I0J-150000D01*
G01*
X76525000Y-82600000D01*
G75*
G02*
X76375000Y-82750000I-150000J0D01*
G01*
X75350000Y-82750000D01*
G75*
G02*
X75200000Y-82600000I0J150000D01*
G01*
G37*
D23*
X110620000Y-37000000D03*
X110620000Y-29380000D03*
X103000000Y-29380000D03*
D18*
X103000000Y-37000000D03*
D14*
X22160000Y-57460000D03*
X19620000Y-57460000D03*
X17080000Y-57460000D03*
X14540000Y-57460000D03*
X12000000Y-57460000D03*
X22160000Y-60000000D03*
X19620000Y-60000000D03*
X17080000Y-60000000D03*
X14540000Y-60000000D03*
G36*
G01*
X12600000Y-60850000D02*
X11400000Y-60850000D01*
G75*
G02*
X11150000Y-60600000I0J250000D01*
G01*
X11150000Y-59400000D01*
G75*
G02*
X11400000Y-59150000I250000J0D01*
G01*
X12600000Y-59150000D01*
G75*
G02*
X12850000Y-59400000I0J-250000D01*
G01*
X12850000Y-60600000D01*
G75*
G02*
X12600000Y-60850000I-250000J0D01*
G01*
G37*
X22160000Y-94460000D03*
X19620000Y-94460000D03*
X17080000Y-94460000D03*
X14540000Y-94460000D03*
X12000000Y-94460000D03*
X22160000Y-97000000D03*
X19620000Y-97000000D03*
X17080000Y-97000000D03*
X14540000Y-97000000D03*
G36*
G01*
X12600000Y-97850000D02*
X11400000Y-97850000D01*
G75*
G02*
X11150000Y-97600000I0J250000D01*
G01*
X11150000Y-96400000D01*
G75*
G02*
X11400000Y-96150000I250000J0D01*
G01*
X12600000Y-96150000D01*
G75*
G02*
X12850000Y-96400000I0J-250000D01*
G01*
X12850000Y-97600000D01*
G75*
G02*
X12600000Y-97850000I-250000J0D01*
G01*
G37*
M02*
