M48
; DRILL file {KiCad (5.1.8)-1} date 04/14/21 20:49:32
; FORMAT={-:-/ absolute / metric / decimal}
; #@! TF.CreationDate,2021-04-14T20:49:32+02:00
; #@! TF.GenerationSoftware,Kicad,Pcbnew,(5.1.8)-1
; #@! TF.FileFunction,Plated,1,4,PTH
FMAT,2
METRIC
T1C0.200
T2C0.300
T3C0.800
T4C1.000
T5C1.020
T6C1.100
T7C1.150
T8C1.168
T9C1.200
%
G90
G05
T1
X7.715Y-22.799
X9.538Y-23.701
X9.619Y-29.357
X10.96Y-22.53
X12.227Y-31.841
X13.511Y-20.15
X14.618Y-29.319
X15.343Y-32.289
X16.043Y-29.446
X17.034Y-19.749
X17.631Y-19.346
X17.945Y-22.803
X18.443Y-18.31
X19.264Y-18.392
X19.957Y-31.834
X20.942Y-30.383
X21.247Y-31.956
X27.97Y-17.948
X29.306Y-22.654
X29.326Y-24.825
X31.29Y-19.904
X32.122Y-29.201
X34.255Y-29.451
X34.905Y-19.539
X35.514Y-28.871
X36.359Y-26.057
X36.86Y-29.411
X37.445Y-23.053
X38.332Y-56.322
X38.745Y-27.722
X39.418Y-57.023
X39.753Y-21.601
X39.791Y-28.117
X40.229Y-27.628
X40.56Y-29.586
X40.85Y-15.93
X41.49Y-27.608
X42.75Y-59.865
X42.776Y-20.901
X42.895Y-70.243
X43.028Y-61.675
X43.084Y-28.389
X43.139Y-13.961
X43.25Y-56.14
X43.505Y-48.075
X43.606Y-87.576
X43.812Y-60.894
X44.25Y-56.139
X44.287Y-87.592
X44.395Y-15.517
X44.814Y-52.691
X44.82Y-59.294
X45.037Y-16.189
X45.091Y-56.122
X45.317Y-66.059
X45.342Y-53.055
X45.362Y-87.232
X45.413Y-48.752
X45.419Y-67.223
X45.585Y-16.729
X45.753Y-11.8
X46.129Y-18.192
X46.333Y-56.129
X46.35Y-74.305
X46.359Y-87.194
X46.792Y-54.184
X46.967Y-60.995
X47.006Y-59.429
X47.25Y-62.832
X47.366Y-48.525
X47.366Y-50.465
X47.378Y-53.369
X47.631Y-25.365
X47.726Y-52.328
X48.108Y-56.13
X48.145Y-28.635
X48.472Y-65.872
X48.505Y-71.241
X48.671Y-62.981
X48.802Y-66.508
X49.149Y-65.864
X49.168Y-55.225
X49.212Y-59.116
X49.25Y-60.899
X49.763Y-60.393
X49.871Y-28.391
X50.161Y-25.956
X50.247Y-66.156
X50.25Y-61.963
X50.804Y-11.822
X51.016Y-59.08
X51.581Y-22.698
X52.008Y-25.158
X52.008Y-59.49
X52.26Y-62.981
X52.451Y-11.823
X52.971Y-41.205
X53.617Y-66.808
X53.706Y-65.986
X54.215Y-30.281
X55.002Y-65.458
X55.096Y-69.073
X55.512Y-76.537
X55.591Y-43.665
X56.297Y-34.446
X56.569Y-41.818
X56.739Y-21.472
X56.958Y-75.091
X57.075Y-34.387
X57.103Y-32.445
X57.139Y-30.127
X57.321Y-25.571
X57.428Y-75.512
X58.094Y-30.104
X58.289Y-31.827
X58.36Y-47.16
X58.474Y-33.715
X58.588Y-43.247
X59.317Y-67.107
X59.319Y-61.087
X59.348Y-61.745
X59.684Y-40.878
X59.953Y-37.274
X59.954Y-38.695
X60.25Y-66.493
X60.456Y-30.587
X60.891Y-74.934
X60.958Y-60.633
X61.224Y-66.488
X61.293Y-63.361
X61.308Y-46.599
X61.308Y-89.657
X61.347Y-74.478
X61.459Y-55.575
X61.568Y-90.453
X61.94Y-87.284
X61.945Y-85.739
X61.963Y-66.084
X62.03Y-13.069
X62.1Y-11.509
X62.127Y-12.437
X62.143Y-78.934
X62.167Y-14.216
X62.298Y-84.705
X62.498Y-62.285
X62.546Y-43.799
X62.595Y-63.371
X62.719Y-50.939
X62.807Y-24.99
X62.807Y-87.655
X62.809Y-56.139
X62.927Y-37.593
X62.95Y-59.157
X63.046Y-66.089
X63.279Y-87.145
X63.329Y-63.5
X63.376Y-53.856
X63.395Y-59.726
X63.428Y-32.314
X63.494Y-34.02
X63.777Y-84.982
X63.799Y-58.459
X63.972Y-81.234
X64.121Y-13.624
X64.147Y-65.906
X64.15Y-67.06
X64.25Y-54.947
X64.609Y-66.376
X64.88Y-67.366
X64.921Y-12.766
X64.968Y-61.144
X65.053Y-50.939
X65.273Y-14.287
X65.53Y-56.126
X65.538Y-58.438
X65.7Y-62.171
X65.807Y-62.985
X65.878Y-69.713
X65.91Y-39.217
X65.942Y-26.075
X65.959Y-18.236
X66.015Y-54.216
X66.196Y-11.852
X66.215Y-40.291
X66.239Y-63.539
X66.333Y-72.937
X66.507Y-82.23
X66.526Y-46.357
X66.632Y-44.233
X66.699Y-12.811
X66.715Y-81.457
X66.856Y-32.275
X67.094Y-76.29
X67.163Y-37.809
X67.178Y-26.585
X67.191Y-85.731
X67.221Y-33.813
X67.221Y-34.536
X67.243Y-18.732
X67.335Y-59.162
X67.423Y-90.584
X67.618Y-56.13
X67.677Y-86.632
X67.781Y-13.364
X67.861Y-80.24
X67.906Y-45.861
X67.913Y-83.628
X68.097Y-71.784
X68.097Y-72.478
X68.619Y-35.112
X68.627Y-79.354
X68.801Y-47.907
X68.805Y-62.035
X68.862Y-12.384
X68.959Y-13.696
X70.605Y-90.938
X70.728Y-58.738
X70.877Y-63.039
X70.9Y-88.727
X70.921Y-85.427
X70.933Y-81.49
X70.999Y-79.681
X71.054Y-86.289
X71.165Y-67.775
X71.269Y-69.129
X71.281Y-59.209
X71.334Y-58.433
X71.445Y-82.481
X71.517Y-65.885
X71.526Y-80.08
X71.675Y-89.486
X71.732Y-84.469
X71.964Y-60.575
X71.971Y-70.945
X72.101Y-41.024
X72.322Y-38.239
X72.379Y-51.39
X72.703Y-62.204
X72.817Y-67.006
X73.001Y-32.401
X73.111Y-48.692
X73.218Y-56.214
X73.298Y-59.379
X74.197Y-85.756
X74.656Y-80.59
X74.696Y-39.333
X74.789Y-81.49
X74.939Y-57.58
X74.979Y-51.741
X75.031Y-2.27
X75.039Y-55.837
X75.104Y-41.796
X75.206Y-59.997
X75.4Y-45.792
X75.671Y-55.318
X75.794Y-33.472
X76.365Y-85.889
X76.424Y-33.506
X76.493Y-58.827
X76.494Y-12.281
X76.531Y-92.657
X76.648Y-83.752
X76.684Y-57.085
X76.784Y-93.321
X77.097Y-70.629
X77.127Y-49.193
X77.325Y-60.359
X77.539Y-86.67
X77.684Y-79.729
X77.863Y-20.41
X78.247Y-84.747
X78.481Y-71.313
X78.825Y-29.299
X79.094Y-51.855
X79.212Y-65.86
X79.311Y-29.842
X79.413Y-83.111
X79.577Y-37.207
X79.666Y-48.178
X79.887Y-42.092
X79.908Y-65.863
X79.971Y-80.694
X80.569Y-27.086
X80.582Y-41.257
X80.584Y-42.796
X80.587Y-26.066
X80.641Y-80.948
X80.703Y-60.647
X80.814Y-27.77
X80.822Y-85.197
X80.828Y-86.545
X80.843Y-90.107
X80.932Y-66.248
X82.02Y-49.699
X82.166Y-75.02
X82.615Y-61.81
X83.163Y-43.541
X83.372Y-39.562
X83.483Y-62.672
X83.75Y-60.647
X83.752Y-65.879
X84.083Y-52.465
X84.101Y-61.29
X84.247Y-86.43
X84.344Y-42.675
X84.385Y-65.879
X84.415Y-81.054
X84.516Y-61.767
X84.629Y-40.672
X84.892Y-23.774
X85.194Y-43.175
X85.273Y-66.43
X85.452Y-63.562
X85.471Y-52.934
X85.827Y-65.862
X85.968Y-67.675
X85.986Y-92.382
X86.082Y-63.566
X86.185Y-59.563
X86.596Y-62.411
X86.68Y-59.959
X86.746Y-33.108
X87.292Y-85.662
X87.376Y-82.492
X87.489Y-87.412
X87.574Y-63.558
X87.62Y-52.184
X87.725Y-33.56
X87.75Y-66.305
X87.867Y-45.044
X87.931Y-41.295
X88.025Y-98.825
X88.109Y-39.118
X88.137Y-52.684
X88.174Y-90.734
X88.25Y-65.878
X88.26Y-16.656
X88.337Y-62.43
X88.38Y-66.731
X88.383Y-77.718
X88.575Y-53.142
X88.808Y-58.954
X89.184Y-2.293
X89.25Y-65.859
X89.684Y-78.402
X89.878Y-38.69
X89.964Y-79.503
X90.016Y-11.613
X90.239Y-69.189
X90.437Y-34.285
X90.506Y-95.486
X90.551Y-85.958
X90.72Y-67.272
X90.74Y-86.949
X90.903Y-69.673
X90.965Y-29.137
X91.076Y-51.347
X91.09Y-90.774
X91.223Y-95.607
X91.27Y-87.31
X91.365Y-101.081
X91.533Y-69.572
X91.65Y-96.072
X91.785Y-12.142
X91.962Y-52.917
X92.063Y-25.661
X92.188Y-56.832
X92.218Y-91.649
X92.28Y-96.026
X92.548Y-69.585
X92.579Y-36.961
X92.788Y-103.91
X92.831Y-36.053
X92.867Y-87.261
X92.882Y-82.259
X93.12Y-85.332
X93.444Y-90.353
X93.539Y-69.585
X93.592Y-53.79
X93.75Y-86.103
X94.336Y-99.32
X95.113Y-53.674
X95.113Y-54.823
X95.134Y-12.764
X95.183Y-100.162
X95.516Y-31.955
X95.621Y-92.224
X95.962Y-78.517
X95.999Y-77.526
X96.191Y-47.607
X96.395Y-78.022
X96.42Y-45.94
X96.666Y-86.835
X96.807Y-81.896
X97.173Y-89.195
X97.346Y-86.532
X97.373Y-85.109
X97.663Y-17.293
X97.926Y-78.307
X98.399Y-89.693
X98.452Y-86.762
X98.725Y-85.584
X100.094Y-14.075
X100.522Y-89.589
X102.316Y-20.811
X102.367Y-13.808
X102.697Y-93.784
X103.274Y-47.079
X104.432Y-100.151
X104.547Y-98.832
X104.707Y-101.318
X105.187Y-56.638
X105.199Y-77.408
X105.208Y-81.824
X105.277Y-80.181
X105.349Y-90.422
X105.43Y-29.847
X105.509Y-72.424
X106.339Y-49.679
X106.355Y-80.224
X106.424Y-53.1
X106.6Y-73.926
X106.694Y-100.802
X106.935Y-62.181
X107.137Y-77.279
X107.166Y-87.769
X107.43Y-101.117
X107.44Y-67.557
X107.61Y-77.697
X107.765Y-73.013
X107.865Y-95.52
X107.865Y-58.053
X108.47Y-68.605
X108.5Y-96.325
X108.52Y-82.474
X108.614Y-69.357
X108.861Y-52.596
X109.045Y-86.817
X109.046Y-80.878
X109.169Y-82.325
X109.669Y-65.825
X109.759Y-96.338
X109.778Y-77.406
X109.839Y-32.469
X109.862Y-87.401
X110.068Y-104.604
X110.117Y-59.45
X110.592Y-62.299
X110.688Y-64.102
X110.782Y-63.455
X111.245Y-7.266
X111.303Y-65.297
X111.595Y-87.514
X112.409Y-78.307
X112.637Y-56.635
X112.78Y-99.99
X113.562Y-63.767
X115.38Y-87.96
X116.449Y-51.089
X117.33Y-27.005
X117.699Y-30.406
X118.209Y-69.76
X119.138Y-29.836
X119.842Y-69.75
X119.939Y-44.636
X120.581Y-27.869
X121.988Y-40.615
X122.738Y-39.628
X122.782Y-38.97
X122.891Y-23.947
X123.796Y-25.907
X123.844Y-37.957
X124.067Y-41.58
X124.133Y-30.775
X124.233Y-33.992
X124.542Y-29.865
X125.386Y-52.7
X125.456Y-53.33
X126.61Y-33.21
X126.617Y-55.09
X126.828Y-51.175
X126.864Y-50.511
X127.477Y-38.501
X127.514Y-36.119
X127.622Y-34.573
X127.918Y-50.827
X127.967Y-34.023
X128.511Y-32.215
X128.676Y-52.537
X128.748Y-37.556
X129.191Y-33.099
X129.981Y-51.964
X130.039Y-31.449
X130.206Y-32.763
X131.585Y-41.296
X132.111Y-39.836
X133.11Y-29.865
X133.94Y-79.2
X134.434Y-54.859
X135.146Y-54.871
X135.531Y-39.365
X135.541Y-36.772
X135.541Y-37.957
X135.577Y-35.235
X136.312Y-57.236
X138.313Y-35.058
X138.619Y-20.753
X139.76Y-31.042
X141.413Y-23.297
X142.008Y-38.73
X142.014Y-39.901
X142.024Y-40.645
X142.061Y-23.231
X142.726Y-22.586
X146.436Y-58.958
X148.642Y-76.895
X152.961Y-72.492
X153.752Y-67.255
X154.416Y-41.135
X154.429Y-24.937
X154.944Y-39.865
X156.506Y-38.557
X156.578Y-25.775
X156.589Y-21.931
X156.594Y-23.23
X156.594Y-40.812
X156.641Y-24.197
X156.669Y-41.917
X156.767Y-43.097
X156.821Y-27.829
X157.64Y-15.792
X158.0Y-29.178
X162.591Y-30.595
X162.685Y-28.829
X162.796Y-32.534
X162.81Y-33.805
X164.283Y-58.731
X167.18Y-35.26
X167.593Y-34.379
T2
X27.953Y-29.319
X40.85Y-66.82
X43.322Y-65.953
X46.19Y-75.184
X49.871Y-33.715
X57.159Y-78.54
X62.833Y-29.347
X78.205Y-33.214
X78.54Y-77.3
X79.601Y-33.188
X80.229Y-78.919
X84.14Y-92.41
X86.233Y-78.928
X98.198Y-82.455
X100.56Y-75.4
X102.941Y-49.767
X103.37Y-45.1
X105.738Y-54.856
X106.17Y-45.45
X112.671Y-72.831
X124.49Y-21.89
X142.07Y-43.94
X159.257Y-18.915
X168.022Y-25.873
T3
X197.0Y-76.18
X197.0Y-78.72
X197.0Y-81.26
X197.0Y-83.8
X197.0Y-86.34
X197.0Y-88.88
X197.0Y-91.42
X197.0Y-93.96
X197.0Y-96.5
X197.0Y-49.18
X197.0Y-51.72
X197.0Y-54.26
X197.0Y-56.8
X197.0Y-59.34
X197.0Y-61.88
X197.0Y-64.42
X197.0Y-66.96
X197.0Y-69.5
X34.18Y-96.0
X36.72Y-96.0
X39.26Y-96.0
X41.8Y-96.0
X44.34Y-96.0
X46.88Y-96.0
X49.42Y-96.0
X51.96Y-96.0
X54.5Y-96.0
X103.0Y-29.38
X103.0Y-37.0
X110.62Y-29.38
X110.62Y-37.0
T4
X14.0Y-94.46
X14.0Y-97.0
X16.54Y-94.46
X16.54Y-97.0
X19.08Y-94.46
X19.08Y-97.0
X21.62Y-94.46
X21.62Y-97.0
X24.16Y-94.46
X24.16Y-97.0
X14.0Y-57.46
X14.0Y-60.0
X16.54Y-57.46
X16.54Y-60.0
X19.08Y-57.46
X19.08Y-60.0
X21.62Y-57.46
X21.62Y-60.0
X24.16Y-57.46
X24.16Y-60.0
X130.12Y-6.1
X130.12Y-8.64
X132.66Y-6.1
X132.66Y-8.64
X135.2Y-6.1
X135.2Y-8.64
X137.74Y-6.1
X137.74Y-8.64
X140.28Y-6.1
X140.28Y-8.64
X142.82Y-6.1
X142.82Y-8.64
X145.36Y-6.1
X145.36Y-8.64
X147.9Y-6.1
X147.9Y-8.64
X150.44Y-6.1
X150.44Y-8.64
X152.98Y-6.1
X152.98Y-8.64
X155.52Y-6.1
X155.52Y-8.64
X158.06Y-6.1
X158.06Y-8.64
X160.6Y-6.1
X160.6Y-8.64
X163.14Y-6.1
X163.14Y-8.64
X165.68Y-6.1
X165.68Y-8.64
X168.22Y-6.1
X168.22Y-8.64
X170.76Y-6.1
X170.76Y-8.64
X173.3Y-6.1
X173.3Y-8.64
X175.84Y-6.1
X175.84Y-8.64
X178.38Y-6.1
X178.38Y-8.64
X180.92Y-6.1
X180.92Y-8.64
X122.5Y-6.1
X122.5Y-8.64
T5
X64.65Y-107.5
X67.19Y-107.5
X69.73Y-107.5
X72.27Y-107.5
X74.81Y-107.5
X77.35Y-107.5
T6
X162.149Y-60.74
X162.149Y-63.28
X162.149Y-65.82
X162.149Y-68.36
X162.149Y-70.9
X162.149Y-73.44
X162.149Y-75.98
X162.149Y-78.52
X162.149Y-81.06
X162.149Y-83.6
X162.149Y-86.14
X162.149Y-88.68
X162.149Y-91.22
X162.149Y-93.76
X162.149Y-96.3
X162.149Y-98.84
X162.149Y-101.38
X162.149Y-103.92
X162.149Y-106.46
X162.149Y-109.0
X167.0Y-60.74
X167.0Y-63.28
X167.0Y-65.82
X167.0Y-68.36
X167.0Y-70.9
X167.0Y-73.44
X167.0Y-75.98
X167.0Y-78.52
X167.0Y-81.06
X167.0Y-83.6
X167.0Y-86.14
X167.0Y-88.68
X167.0Y-91.22
X167.0Y-93.76
X167.0Y-96.3
X167.0Y-98.84
X167.0Y-101.38
X167.0Y-103.92
X167.0Y-106.46
X167.0Y-109.0
X122.149Y-60.74
X122.149Y-63.28
X122.149Y-65.82
X122.149Y-68.36
X122.149Y-70.9
X122.149Y-73.44
X122.149Y-75.98
X122.149Y-78.52
X122.149Y-81.06
X122.149Y-83.6
X122.149Y-86.14
X122.149Y-88.68
X122.149Y-91.22
X122.149Y-93.76
X122.149Y-96.3
X122.149Y-98.84
X122.149Y-101.38
X122.149Y-103.92
X122.149Y-106.46
X122.149Y-109.0
X127.0Y-60.74
X127.0Y-63.28
X127.0Y-65.82
X127.0Y-68.36
X127.0Y-70.9
X127.0Y-73.44
X127.0Y-75.98
X127.0Y-78.52
X127.0Y-81.06
X127.0Y-83.6
X127.0Y-86.14
X127.0Y-88.68
X127.0Y-91.22
X127.0Y-93.76
X127.0Y-96.3
X127.0Y-98.84
X127.0Y-101.38
X127.0Y-103.92
X127.0Y-106.46
X127.0Y-109.0
X142.149Y-60.74
X142.149Y-63.28
X142.149Y-65.82
X142.149Y-68.36
X142.149Y-70.9
X142.149Y-73.44
X142.149Y-75.98
X142.149Y-78.52
X142.149Y-81.06
X142.149Y-83.6
X142.149Y-86.14
X142.149Y-88.68
X142.149Y-91.22
X142.149Y-93.76
X142.149Y-96.3
X142.149Y-98.84
X142.149Y-101.38
X142.149Y-103.92
X142.149Y-106.46
X142.149Y-109.0
X147.0Y-60.74
X147.0Y-63.28
X147.0Y-65.82
X147.0Y-68.36
X147.0Y-70.9
X147.0Y-73.44
X147.0Y-75.98
X147.0Y-78.52
X147.0Y-81.06
X147.0Y-83.6
X147.0Y-86.14
X147.0Y-88.68
X147.0Y-91.22
X147.0Y-93.76
X147.0Y-96.3
X147.0Y-98.84
X147.0Y-101.38
X147.0Y-103.92
X147.0Y-106.46
X147.0Y-109.0
X182.149Y-60.74
X182.149Y-63.28
X182.149Y-65.82
X182.149Y-68.36
X182.149Y-70.9
X182.149Y-73.44
X182.149Y-75.98
X182.149Y-78.52
X182.149Y-81.06
X182.149Y-83.6
X182.149Y-86.14
X182.149Y-88.68
X182.149Y-91.22
X182.149Y-93.76
X182.149Y-96.3
X182.149Y-98.84
X182.149Y-101.38
X182.149Y-103.92
X182.149Y-106.46
X182.149Y-109.0
X187.0Y-60.74
X187.0Y-63.28
X187.0Y-65.82
X187.0Y-68.36
X187.0Y-70.9
X187.0Y-73.44
X187.0Y-75.98
X187.0Y-78.52
X187.0Y-81.06
X187.0Y-83.6
X187.0Y-86.14
X187.0Y-88.68
X187.0Y-91.22
X187.0Y-93.76
X187.0Y-96.3
X187.0Y-98.84
X187.0Y-101.38
X187.0Y-103.92
X187.0Y-106.46
X187.0Y-109.0
T7
X27.4Y-5.46
X27.4Y-8.0
X27.4Y-10.54
X29.94Y-5.46
X29.94Y-8.0
X29.94Y-10.54
X32.48Y-5.46
X32.48Y-8.0
X32.48Y-10.54
X35.02Y-5.46
X35.02Y-8.0
X35.02Y-10.54
X37.56Y-5.46
X37.56Y-8.0
X37.56Y-10.54
X40.1Y-5.46
X40.1Y-8.0
X40.1Y-10.54
X42.64Y-5.46
X42.64Y-8.0
X42.64Y-10.54
X45.18Y-5.46
X45.18Y-8.0
X45.18Y-10.54
X47.72Y-5.46
X47.72Y-8.0
X47.72Y-10.54
X50.26Y-5.46
X50.26Y-8.0
X50.26Y-10.54
X52.8Y-5.46
X52.8Y-8.0
X52.8Y-10.54
X55.34Y-5.46
X55.34Y-8.0
X55.34Y-10.54
X57.88Y-5.46
X57.88Y-8.0
X57.88Y-10.54
X60.42Y-5.46
X60.42Y-8.0
X60.42Y-10.54
X62.96Y-5.46
X62.96Y-8.0
X62.96Y-10.54
X65.5Y-5.46
X65.5Y-8.0
X65.5Y-10.54
X68.04Y-5.46
X68.04Y-8.0
X68.04Y-10.54
X70.58Y-5.46
X70.58Y-8.0
X70.58Y-10.54
X73.12Y-5.46
X73.12Y-8.0
X73.12Y-10.54
X75.66Y-5.46
X75.66Y-8.0
X75.66Y-10.54
X78.2Y-5.46
X78.2Y-8.0
X78.2Y-10.54
X80.74Y-5.46
X80.74Y-8.0
X80.74Y-10.54
X83.28Y-5.46
X83.28Y-8.0
X83.28Y-10.54
X85.82Y-5.46
X85.82Y-8.0
X85.82Y-10.54
X88.36Y-5.46
X88.36Y-8.0
X88.36Y-10.54
X90.9Y-5.46
X90.9Y-8.0
X90.9Y-10.54
X93.44Y-5.46
X93.44Y-8.0
X93.44Y-10.54
X95.98Y-5.46
X95.98Y-8.0
X95.98Y-10.54
X98.52Y-5.46
X98.52Y-8.0
X98.52Y-10.54
X101.06Y-5.46
X101.06Y-8.0
X101.06Y-10.54
X103.6Y-5.46
X103.6Y-8.0
X103.6Y-10.54
X106.14Y-5.46
X106.14Y-8.0
X106.14Y-10.54
T8
X10.63Y-78.54
X10.64Y-83.4
X13.17Y-78.54
X13.17Y-83.4
X15.71Y-78.54
X15.71Y-83.4
X18.25Y-78.54
X18.25Y-83.4
X20.79Y-78.54
X20.79Y-83.4
X23.33Y-78.54
X23.33Y-83.4
X25.87Y-78.54
X25.87Y-83.4
X28.41Y-78.54
X28.41Y-83.4
X30.95Y-78.54
X30.95Y-83.4
X33.49Y-78.54
X33.49Y-83.4
X36.03Y-78.54
X36.03Y-83.4
X38.57Y-78.54
X38.57Y-83.4
X41.11Y-78.54
X41.11Y-83.4
X43.65Y-78.54
X43.65Y-83.4
X46.19Y-78.54
X46.19Y-83.4
X10.63Y-41.54
X10.64Y-46.4
X13.17Y-41.54
X13.17Y-46.4
X15.71Y-41.54
X15.71Y-46.4
X18.25Y-41.54
X18.25Y-46.4
X20.79Y-41.54
X20.79Y-46.4
X23.33Y-41.54
X23.33Y-46.4
X25.87Y-41.54
X25.87Y-46.4
X28.41Y-41.54
X28.41Y-46.4
X30.95Y-41.54
X30.95Y-46.4
X33.49Y-41.54
X33.49Y-46.4
X36.03Y-41.54
X36.03Y-46.4
X38.57Y-41.54
X38.57Y-46.4
X41.11Y-41.54
X41.11Y-46.4
X43.65Y-41.54
X43.65Y-46.4
X46.19Y-41.54
X46.19Y-46.4
T9
X193.5Y-18.0
X193.5Y-20.5
X193.5Y-23.0
X193.5Y-25.5
X196.0Y-18.0
X196.0Y-20.5
X196.0Y-23.0
X196.0Y-25.5
T0
M30
