M48
; DRILL file {KiCad (5.1.8)-1} date 11/23/20 17:33:22
; FORMAT={-:-/ absolute / metric / decimal}
; #@! TF.CreationDate,2020-11-23T17:33:22+01:00
; #@! TF.GenerationSoftware,Kicad,Pcbnew,(5.1.8)-1
; #@! TF.FileFunction,Plated,1,4,PTH
FMAT,2
METRIC
T1C0.200
T2C0.300
T3C0.800
T4C1.000
T5C1.100
T6C1.150
T7C1.168
T8C1.200
%
G90
G05
T1
X9.055Y-19.904
X11.945Y-32.112
X12.202Y-20.14
X13.456Y-20.102
X14.135Y-29.216
X14.647Y-22.883
X15.405Y-19.918
X16.414Y-29.216
X17.223Y-29.373
X17.26Y-22.601
X19.744Y-20.034
X19.94Y-30.265
X21.09Y-19.555
X30.596Y-19.682
X31.679Y-31.909
X32.408Y-28.009
X32.444Y-19.366
X33.576Y-28.744
X34.831Y-28.554
X34.905Y-19.905
X34.905Y-29.186
X35.279Y-18.826
X37.255Y-27.366
X40.149Y-59.804
X40.444Y-71.345
X41.21Y-26.863
X41.812Y-14.624
X42.181Y-12.042
X42.196Y-60.342
X42.568Y-13.064
X42.634Y-70.775
X42.779Y-63.55
X43.25Y-56.127
X43.879Y-70.758
X43.899Y-52.764
X43.956Y-61.537
X44.051Y-63.464
X44.151Y-55.915
X44.585Y-49.821
X44.718Y-52.773
X44.93Y-25.226
X45.02Y-53.384
X45.12Y-59.795
X45.493Y-50.339
X45.538Y-47.937
X46.39Y-11.538
X46.435Y-60.182
X47.108Y-53.273
X47.108Y-55.639
X47.193Y-38.783
X47.25Y-63.563
X47.654Y-28.059
X47.657Y-29.392
X47.752Y-60.521
X47.785Y-25.999
X48.27Y-63.545
X48.3Y-24.998
X48.691Y-30.852
X49.0Y-32.944
X49.051Y-28.434
X49.071Y-26.241
X49.156Y-71.232
X49.319Y-59.031
X49.582Y-18.976
X49.602Y-63.406
X49.721Y-39.416
X49.746Y-22.059
X49.8Y-50.836
X50.154Y-40.669
X50.189Y-62.384
X50.76Y-12.695
X50.784Y-18.212
X50.879Y-14.652
X51.355Y-62.136
X51.433Y-59.679
X51.576Y-58.843
X51.691Y-76.598
X51.852Y-21.907
X51.888Y-75.482
X52.22Y-30.584
X52.238Y-46.408
X52.411Y-70.971
X52.691Y-75.077
X52.908Y-74.443
X53.201Y-25.254
X53.25Y-56.138
X53.31Y-29.442
X53.362Y-74.006
X53.48Y-25.885
X53.681Y-41.746
X53.918Y-31.239
X54.66Y-72.766
X54.767Y-14.277
X54.844Y-63.041
X56.334Y-64.308
X56.481Y-66.908
X57.06Y-25.373
X57.099Y-26.833
X57.396Y-46.998
X57.42Y-27.824
X57.905Y-40.818
X58.012Y-66.908
X58.064Y-12.984
X58.389Y-60.964
X58.461Y-50.525
X58.462Y-66.349
X58.474Y-47.261
X58.55Y-44.011
X58.562Y-90.341
X58.606Y-32.115
X58.654Y-89.598
X58.715Y-52.842
X58.846Y-66.857
X59.1Y-20.202
X59.287Y-47.358
X59.523Y-59.521
X59.778Y-9.27
X59.781Y-67.934
X59.783Y-53.198
X59.944Y-44.883
X60.01Y-38.782
X60.116Y-60.978
X60.416Y-62.726
X60.591Y-73.926
X60.637Y-29.442
X60.662Y-59.147
X60.694Y-19.357
X60.794Y-56.141
X60.801Y-70.786
X61.018Y-73.426
X61.25Y-59.75
X61.297Y-87.117
X61.392Y-63.561
X61.431Y-85.985
X61.453Y-61.759
X61.727Y-72.741
X61.947Y-84.714
X61.949Y-81.561
X62.007Y-87.127
X62.012Y-62.091
X62.321Y-63.081
X62.401Y-56.134
X62.601Y-92.103
X62.662Y-47.667
X62.83Y-45.467
X62.876Y-32.621
X62.907Y-59.442
X62.98Y-41.51
X63.168Y-56.126
X63.327Y-83.956
X63.885Y-33.121
X63.976Y-48.815
X64.027Y-32.487
X64.322Y-56.134
X65.016Y-90.201
X65.073Y-63.359
X65.077Y-62.729
X65.268Y-61.321
X65.707Y-63.438
X65.817Y-48.865
X65.91Y-40.79
X66.207Y-32.937
X66.388Y-62.728
X66.388Y-63.372
X66.551Y-24.799
X66.663Y-73.018
X66.732Y-61.327
X66.743Y-59.866
X66.997Y-12.318
X67.034Y-56.139
X67.141Y-80.324
X67.163Y-71.39
X67.448Y-36.686
X67.594Y-41.08
X67.641Y-73.295
X67.695Y-85.832
X67.841Y-91.51
X67.901Y-66.719
X67.946Y-27.364
X68.071Y-80.827
X68.19Y-37.345
X68.516Y-17.39
X68.534Y-56.14
X68.765Y-14.082
X69.385Y-74.269
X69.678Y-69.418
X70.15Y-62.97
X70.207Y-17.817
X70.287Y-61.509
X70.298Y-59.53
X70.486Y-31.579
X70.807Y-90.18
X70.816Y-86.467
X70.826Y-81.031
X70.831Y-87.661
X70.863Y-26.671
X70.873Y-85.278
X70.959Y-25.666
X70.964Y-82.188
X70.965Y-59.282
X71.078Y-66.223
X71.126Y-29.442
X71.595Y-59.272
X71.756Y-29.642
X72.001Y-76.607
X72.276Y-60.059
X72.283Y-26.748
X72.531Y-60.823
X72.588Y-61.537
X72.65Y-47.158
X72.715Y-55.639
X72.83Y-68.785
X73.111Y-41.756
X73.441Y-27.732
X73.453Y-25.751
X73.469Y-22.031
X73.496Y-42.263
X73.911Y-20.242
X74.173Y-85.803
X74.301Y-86.919
X74.391Y-53.629
X74.406Y-90.366
X74.407Y-85.106
X74.436Y-34.44
X74.772Y-12.325
X74.977Y-77.708
X75.179Y-25.501
X75.418Y-57.915
X75.427Y-34.07
X75.537Y-19.364
X75.576Y-65.963
X76.057Y-62.767
X76.067Y-76.469
X76.449Y-47.874
X76.494Y-77.099
X76.718Y-73.436
X76.761Y-55.819
X76.864Y-81.03
X76.937Y-82.141
X76.971Y-79.569
X77.312Y-51.045
X77.555Y-65.868
X77.865Y-63.526
X78.197Y-46.592
X78.734Y-13.284
X78.743Y-37.251
X78.923Y-38.268
X79.093Y-62.249
X79.171Y-3.49
X79.294Y-87.802
X79.552Y-84.052
X79.716Y-65.93
X79.716Y-27.86
X79.75Y-54.679
X79.882Y-38.71
X79.905Y-45.141
X80.099Y-40.24
X80.183Y-78.73
X80.197Y-82.407
X80.258Y-39.226
X80.285Y-14.312
X80.329Y-41.998
X80.553Y-62.614
X80.575Y-29.669
X80.657Y-30.495
X80.679Y-81.238
X80.803Y-39.718
X80.84Y-85.16
X81.012Y-17.817
X81.039Y-63.529
X81.544Y-63.003
X81.561Y-15.99
X81.664Y-55.198
X82.318Y-47.694
X82.671Y-3.536
X82.75Y-61.518
X83.246Y-25.141
X83.357Y-69.987
X83.367Y-52.682
X83.593Y-62.26
X83.68Y-88.19
X83.732Y-90.193
X83.75Y-65.886
X83.769Y-85.226
X83.987Y-70.072
X84.019Y-30.476
X84.114Y-11.525
X84.129Y-9.047
X84.245Y-55.696
X84.285Y-44.121
X84.31Y-63.453
X84.327Y-78.658
X84.429Y-81.35
X84.435Y-86.36
X84.438Y-90.054
X84.463Y-85.634
X84.698Y-70.817
X84.929Y-61.176
X84.936Y-19.458
X85.07Y-66.747
X85.081Y-33.644
X85.12Y-12.074
X85.189Y-37.957
X85.219Y-36.572
X85.25Y-54.636
X85.329Y-71.008
X85.342Y-38.858
X85.44Y-43.782
X85.496Y-66.281
X85.763Y-20.915
X85.861Y-67.659
X85.896Y-61.158
X86.181Y-56.143
X86.434Y-60.805
X86.49Y-63.293
X86.668Y-55.229
X86.863Y-15.174
X86.913Y-33.579
X86.929Y-66.22
X87.231Y-26.435
X87.542Y-82.403
X87.544Y-33.35
X87.557Y-77.433
X87.713Y-56.135
X87.74Y-91.451
X87.873Y-63.529
X88.182Y-77.721
X88.373Y-79.103
X88.39Y-54.137
X88.444Y-45.82
X88.451Y-42.221
X88.479Y-61.291
X88.532Y-38.673
X88.606Y-58.49
X88.88Y-79.487
X88.891Y-90.563
X88.996Y-13.103
X89.068Y-49.185
X89.155Y-80.718
X89.283Y-86.159
X89.416Y-87.185
X89.496Y-66.364
X89.549Y-74.758
X89.831Y-69.584
X89.903Y-78.562
X89.913Y-3.387
X90.095Y-90.751
X90.229Y-80.97
X90.274Y-99.52
X90.337Y-15.158
X90.656Y-82.712
X90.666Y-69.773
X90.729Y-74.112
X90.819Y-96.238
X91.236Y-30.813
X91.251Y-90.868
X91.365Y-100.83
X91.587Y-68.913
X91.792Y-82.277
X92.332Y-87.206
X92.378Y-58.255
X92.554Y-69.594
X92.635Y-96.083
X92.651Y-26.648
X92.691Y-36.024
X92.705Y-100.848
X92.815Y-67.749
X93.174Y-85.384
X93.18Y-63.531
X93.536Y-86.217
X93.587Y-69.593
X93.587Y-72.451
X93.617Y-78.887
X93.873Y-101.092
X93.992Y-77.861
X94.035Y-96.082
X94.067Y-51.77
X94.191Y-24.238
X94.247Y-78.846
X94.636Y-93.345
X94.845Y-57.893
X94.94Y-12.928
X95.008Y-101.063
X95.249Y-12.327
X95.366Y-33.626
X96.196Y-66.609
X96.196Y-67.658
X96.368Y-47.755
X96.496Y-79.079
X96.536Y-80.868
X96.61Y-12.166
X96.906Y-78.481
X97.667Y-23.812
X98.219Y-87.899
X98.227Y-82.683
X98.69Y-81.235
X98.714Y-74.998
X99.107Y-80.62
X99.34Y-83.313
X99.941Y-19.437
X100.134Y-34.38
X100.51Y-53.904
X100.725Y-28.223
X100.833Y-79.388
X100.862Y-46.224
X100.877Y-54.568
X101.182Y-89.917
X101.58Y-26.648
X101.614Y-21.871
X101.959Y-66.949
X102.161Y-21.159
X102.737Y-87.322
X102.766Y-91.936
X102.894Y-71.637
X102.938Y-62.571
X103.019Y-58.258
X103.122Y-47.935
X103.154Y-46.405
X103.159Y-49.3
X103.368Y-66.947
X103.495Y-93.909
X104.091Y-94.962
X104.153Y-67.95
X104.259Y-77.957
X104.541Y-72.321
X104.562Y-69.074
X104.703Y-101.334
X104.856Y-68.465
X105.023Y-98.912
X105.16Y-91.723
X105.186Y-78.81
X105.325Y-72.53
X106.068Y-81.868
X106.109Y-95.547
X106.242Y-67.831
X106.259Y-101.081
X106.586Y-99.034
X106.595Y-87.564
X106.604Y-48.093
X106.801Y-77.51
X106.895Y-65.599
X107.309Y-81.194
X107.32Y-82.341
X107.691Y-63.41
X107.898Y-87.585
X108.481Y-90.897
X108.52Y-65.501
X108.761Y-87.583
X108.968Y-96.092
X109.135Y-103.946
X109.141Y-85.997
X109.745Y-93.023
X109.902Y-95.063
X109.943Y-82.63
X109.957Y-60.905
X111.488Y-65.434
X111.948Y-85.52
X112.129Y-65.43
X112.172Y-101.211
X112.229Y-68.382
X112.296Y-58.645
X112.87Y-74.418
X112.927Y-58.285
X113.415Y-93.741
X114.489Y-66.433
X115.06Y-56.939
X115.95Y-22.944
X116.389Y-23.79
X116.523Y-50.923
X117.563Y-22.614
X119.148Y-43.769
X119.579Y-29.246
X119.852Y-30.237
X119.859Y-64.358
X120.118Y-44.928
X120.875Y-28.97
X123.059Y-57.074
X123.203Y-41.978
X123.384Y-40.483
X123.385Y-39.632
X123.453Y-37.199
X123.563Y-47.192
X123.64Y-34.199
X123.723Y-33.136
X123.833Y-28.437
X123.837Y-42.7
X123.904Y-30.926
X124.066Y-54.129
X124.127Y-36.379
X124.365Y-37.32
X124.833Y-31.428
X125.148Y-29.865
X125.371Y-54.314
X125.761Y-45.096
X127.021Y-40.64
X127.148Y-43.136
X127.71Y-34.62
X129.87Y-40.95
X130.086Y-38.515
X130.212Y-39.962
X130.213Y-27.401
X132.249Y-40.58
X133.087Y-26.055
X133.278Y-30.909
X133.828Y-12.85
X134.401Y-26.626
X134.441Y-37.44
X134.442Y-39.216
X134.442Y-36.331
X135.154Y-39.774
X138.637Y-20.753
X138.753Y-40.646
X138.894Y-39.366
X145.0Y-15.305
X146.747Y-48.963
X148.095Y-46.606
X150.035Y-43.933
X153.061Y-72.536
X153.199Y-67.265
X154.228Y-40.576
X156.556Y-26.168
X156.571Y-42.179
X156.588Y-38.742
X156.59Y-28.53
X156.596Y-13.807
X156.604Y-27.567
X156.645Y-17.117
X156.742Y-40.403
X156.846Y-43.04
X162.556Y-28.305
X162.594Y-31.865
X165.368Y-33.576
X166.455Y-10.687
X166.919Y-34.369
X167.48Y-35.16
X172.303Y-12.41
T2
X39.555Y-21.276
X47.274Y-62.069
X47.424Y-36.13
X50.766Y-58.506
X54.867Y-78.976
X55.907Y-58.267
X59.842Y-34.185
X60.797Y-78.849
X62.969Y-29.573
X69.048Y-45.222
X75.769Y-77.579
X78.138Y-92.724
X79.333Y-33.42
X79.718Y-34.963
X84.119Y-77.264
X87.004Y-78.106
X89.027Y-62.243
X94.831Y-79.264
X95.287Y-28.418
X96.816Y-50.035
X98.516Y-47.698
X99.21Y-93.347
X104.566Y-52.411
X105.117Y-45.502
X105.623Y-50.525
X108.722Y-92.593
X111.045Y-78.29
X112.309Y-72.265
X112.371Y-93.517
X119.104Y-37.04
X119.868Y-32.898
X141.68Y-38.581
X159.478Y-36.407
X169.05Y-27.24
T3
X197.0Y-49.18
X197.0Y-51.72
X197.0Y-54.26
X197.0Y-56.8
X197.0Y-59.34
X197.0Y-61.88
X197.0Y-64.42
X197.0Y-66.96
X197.0Y-69.5
X34.18Y-96.0
X36.72Y-96.0
X39.26Y-96.0
X41.8Y-96.0
X44.34Y-96.0
X46.88Y-96.0
X49.42Y-96.0
X51.96Y-96.0
X54.5Y-96.0
X197.0Y-76.18
X197.0Y-78.72
X197.0Y-81.26
X197.0Y-83.8
X197.0Y-86.34
X197.0Y-88.88
X197.0Y-91.42
X197.0Y-93.96
X197.0Y-96.5
X103.0Y-29.38
X103.0Y-37.0
X110.62Y-29.38
X110.62Y-37.0
T4
X12.0Y-57.46
X12.0Y-60.0
X14.54Y-57.46
X14.54Y-60.0
X17.08Y-57.46
X17.08Y-60.0
X19.62Y-57.46
X19.62Y-60.0
X22.16Y-57.46
X22.16Y-60.0
X12.0Y-94.46
X12.0Y-97.0
X14.54Y-94.46
X14.54Y-97.0
X17.08Y-94.46
X17.08Y-97.0
X19.62Y-94.46
X19.62Y-97.0
X22.16Y-94.46
X22.16Y-97.0
X121.5Y-6.5
X121.5Y-9.04
X131.0Y-6.5
X131.0Y-9.04
X133.54Y-6.5
X133.54Y-9.04
X136.08Y-6.5
X136.08Y-9.04
X138.62Y-6.5
X138.62Y-9.04
X141.16Y-6.5
X141.16Y-9.04
X143.7Y-6.5
X143.7Y-9.04
X146.24Y-6.5
X146.24Y-9.04
X148.78Y-6.5
X148.78Y-9.04
X151.32Y-6.5
X151.32Y-9.04
X153.86Y-6.5
X153.86Y-9.04
X156.4Y-6.5
X156.4Y-9.04
X158.94Y-6.5
X158.94Y-9.04
X161.48Y-6.5
X161.48Y-9.04
X164.02Y-6.5
X164.02Y-9.04
X166.56Y-6.5
X166.56Y-9.04
X169.1Y-6.5
X169.1Y-9.04
X171.64Y-6.5
X171.64Y-9.04
X174.18Y-6.5
X174.18Y-9.04
X176.72Y-6.5
X176.72Y-9.04
X179.26Y-6.5
X179.26Y-9.04
X181.8Y-6.5
X181.8Y-9.04
X65.3Y-107.5
X67.84Y-107.5
X70.38Y-107.5
X72.92Y-107.5
X75.46Y-107.5
X78.0Y-107.5
T5
X182.149Y-60.74
X182.149Y-63.28
X182.149Y-65.82
X182.149Y-68.36
X182.149Y-70.9
X182.149Y-73.44
X182.149Y-75.98
X182.149Y-78.52
X182.149Y-81.06
X182.149Y-83.6
X182.149Y-86.14
X182.149Y-88.68
X182.149Y-91.22
X182.149Y-93.76
X182.149Y-96.3
X182.149Y-98.84
X182.149Y-101.38
X182.149Y-103.92
X182.149Y-106.46
X182.149Y-109.0
X187.0Y-60.74
X187.0Y-63.28
X187.0Y-65.82
X187.0Y-68.36
X187.0Y-70.9
X187.0Y-73.44
X187.0Y-75.98
X187.0Y-78.52
X187.0Y-81.06
X187.0Y-83.6
X187.0Y-86.14
X187.0Y-88.68
X187.0Y-91.22
X187.0Y-93.76
X187.0Y-96.3
X187.0Y-98.84
X187.0Y-101.38
X187.0Y-103.92
X187.0Y-106.46
X187.0Y-109.0
X122.149Y-60.74
X122.149Y-63.28
X122.149Y-65.82
X122.149Y-68.36
X122.149Y-70.9
X122.149Y-73.44
X122.149Y-75.98
X122.149Y-78.52
X122.149Y-81.06
X122.149Y-83.6
X122.149Y-86.14
X122.149Y-88.68
X122.149Y-91.22
X122.149Y-93.76
X122.149Y-96.3
X122.149Y-98.84
X122.149Y-101.38
X122.149Y-103.92
X122.149Y-106.46
X122.149Y-109.0
X127.0Y-60.74
X127.0Y-63.28
X127.0Y-65.82
X127.0Y-68.36
X127.0Y-70.9
X127.0Y-73.44
X127.0Y-75.98
X127.0Y-78.52
X127.0Y-81.06
X127.0Y-83.6
X127.0Y-86.14
X127.0Y-88.68
X127.0Y-91.22
X127.0Y-93.76
X127.0Y-96.3
X127.0Y-98.84
X127.0Y-101.38
X127.0Y-103.92
X127.0Y-106.46
X127.0Y-109.0
X162.149Y-60.74
X162.149Y-63.28
X162.149Y-65.82
X162.149Y-68.36
X162.149Y-70.9
X162.149Y-73.44
X162.149Y-75.98
X162.149Y-78.52
X162.149Y-81.06
X162.149Y-83.6
X162.149Y-86.14
X162.149Y-88.68
X162.149Y-91.22
X162.149Y-93.76
X162.149Y-96.3
X162.149Y-98.84
X162.149Y-101.38
X162.149Y-103.92
X162.149Y-106.46
X162.149Y-109.0
X167.0Y-60.74
X167.0Y-63.28
X167.0Y-65.82
X167.0Y-68.36
X167.0Y-70.9
X167.0Y-73.44
X167.0Y-75.98
X167.0Y-78.52
X167.0Y-81.06
X167.0Y-83.6
X167.0Y-86.14
X167.0Y-88.68
X167.0Y-91.22
X167.0Y-93.76
X167.0Y-96.3
X167.0Y-98.84
X167.0Y-101.38
X167.0Y-103.92
X167.0Y-106.46
X167.0Y-109.0
X142.149Y-60.74
X142.149Y-63.28
X142.149Y-65.82
X142.149Y-68.36
X142.149Y-70.9
X142.149Y-73.44
X142.149Y-75.98
X142.149Y-78.52
X142.149Y-81.06
X142.149Y-83.6
X142.149Y-86.14
X142.149Y-88.68
X142.149Y-91.22
X142.149Y-93.76
X142.149Y-96.3
X142.149Y-98.84
X142.149Y-101.38
X142.149Y-103.92
X142.149Y-106.46
X142.149Y-109.0
X147.0Y-60.74
X147.0Y-63.28
X147.0Y-65.82
X147.0Y-68.36
X147.0Y-70.9
X147.0Y-73.44
X147.0Y-75.98
X147.0Y-78.52
X147.0Y-81.06
X147.0Y-83.6
X147.0Y-86.14
X147.0Y-88.68
X147.0Y-91.22
X147.0Y-93.76
X147.0Y-96.3
X147.0Y-98.84
X147.0Y-101.38
X147.0Y-103.92
X147.0Y-106.46
X147.0Y-109.0
T6
X27.4Y-5.46
X27.4Y-8.0
X27.4Y-10.54
X29.94Y-5.46
X29.94Y-8.0
X29.94Y-10.54
X32.48Y-5.46
X32.48Y-8.0
X32.48Y-10.54
X35.02Y-5.46
X35.02Y-8.0
X35.02Y-10.54
X37.56Y-5.46
X37.56Y-8.0
X37.56Y-10.54
X40.1Y-5.46
X40.1Y-8.0
X40.1Y-10.54
X42.64Y-5.46
X42.64Y-8.0
X42.64Y-10.54
X45.18Y-5.46
X45.18Y-8.0
X45.18Y-10.54
X47.72Y-5.46
X47.72Y-8.0
X47.72Y-10.54
X50.26Y-5.46
X50.26Y-8.0
X50.26Y-10.54
X52.8Y-5.46
X52.8Y-8.0
X52.8Y-10.54
X55.34Y-5.46
X55.34Y-8.0
X55.34Y-10.54
X57.88Y-5.46
X57.88Y-8.0
X57.88Y-10.54
X60.42Y-5.46
X60.42Y-8.0
X60.42Y-10.54
X62.96Y-5.46
X62.96Y-8.0
X62.96Y-10.54
X65.5Y-5.46
X65.5Y-8.0
X65.5Y-10.54
X68.04Y-5.46
X68.04Y-8.0
X68.04Y-10.54
X70.58Y-5.46
X70.58Y-8.0
X70.58Y-10.54
X73.12Y-5.46
X73.12Y-8.0
X73.12Y-10.54
X75.66Y-5.46
X75.66Y-8.0
X75.66Y-10.54
X78.2Y-5.46
X78.2Y-8.0
X78.2Y-10.54
X80.74Y-5.46
X80.74Y-8.0
X80.74Y-10.54
X83.28Y-5.46
X83.28Y-8.0
X83.28Y-10.54
X85.82Y-5.46
X85.82Y-8.0
X85.82Y-10.54
X88.36Y-5.46
X88.36Y-8.0
X88.36Y-10.54
X90.9Y-5.46
X90.9Y-8.0
X90.9Y-10.54
X93.44Y-5.46
X93.44Y-8.0
X93.44Y-10.54
X95.98Y-5.46
X95.98Y-8.0
X95.98Y-10.54
X98.52Y-5.46
X98.52Y-8.0
X98.52Y-10.54
X101.06Y-5.46
X101.06Y-8.0
X101.06Y-10.54
X103.6Y-5.46
X103.6Y-8.0
X103.6Y-10.54
X106.14Y-5.46
X106.14Y-8.0
X106.14Y-10.54
T7
X8.63Y-78.54
X8.64Y-83.4
X11.17Y-78.54
X11.17Y-83.4
X13.71Y-78.54
X13.71Y-83.4
X16.25Y-78.54
X16.25Y-83.4
X18.79Y-78.54
X18.79Y-83.4
X21.33Y-78.54
X21.33Y-83.4
X23.87Y-78.54
X23.87Y-83.4
X26.41Y-78.54
X26.41Y-83.4
X28.95Y-78.54
X28.95Y-83.4
X31.49Y-78.54
X31.49Y-83.4
X34.03Y-78.54
X34.03Y-83.4
X36.57Y-78.54
X36.57Y-83.4
X39.11Y-78.54
X39.11Y-83.4
X41.65Y-78.54
X41.65Y-83.4
X44.19Y-78.54
X44.19Y-83.4
X8.63Y-41.54
X8.64Y-46.4
X11.17Y-41.54
X11.17Y-46.4
X13.71Y-41.54
X13.71Y-46.4
X16.25Y-41.54
X16.25Y-46.4
X18.79Y-41.54
X18.79Y-46.4
X21.33Y-41.54
X21.33Y-46.4
X23.87Y-41.54
X23.87Y-46.4
X26.41Y-41.54
X26.41Y-46.4
X28.95Y-41.54
X28.95Y-46.4
X31.49Y-41.54
X31.49Y-46.4
X34.03Y-41.54
X34.03Y-46.4
X36.57Y-41.54
X36.57Y-46.4
X39.11Y-41.54
X39.11Y-46.4
X41.65Y-41.54
X41.65Y-46.4
X44.19Y-41.54
X44.19Y-46.4
T8
X193.5Y-18.0
X193.5Y-20.5
X193.5Y-23.0
X193.5Y-25.5
X196.0Y-18.0
X196.0Y-20.5
X196.0Y-23.0
X196.0Y-25.5
T0
M30
