G04 #@! TF.GenerationSoftware,KiCad,Pcbnew,(5.1.8)-1*
G04 #@! TF.CreationDate,2020-11-23T17:33:10+01:00*
G04 #@! TF.ProjectId,Project_GCM,50726f6a-6563-4745-9f47-434d2e6b6963,V5.0*
G04 #@! TF.SameCoordinates,PX40d9900PY1e84800*
G04 #@! TF.FileFunction,Legend,Top*
G04 #@! TF.FilePolarity,Positive*
%FSLAX46Y46*%
G04 Gerber Fmt 4.6, Leading zero omitted, Abs format (unit mm)*
G04 Created by KiCad (PCBNEW (5.1.8)-1) date 2020-11-23 17:33:10*
%MOMM*%
%LPD*%
G01*
G04 APERTURE LIST*
%ADD10C,0.300000*%
%ADD11C,0.150000*%
%ADD12C,0.200000*%
%ADD13C,0.250000*%
%ADD14C,0.750000*%
%ADD15C,0.120000*%
%ADD16C,0.254000*%
G04 APERTURE END LIST*
D10*
X117318571Y-10578571D02*
X118818571Y-10578571D01*
X117390000Y-10578571D02*
X117318571Y-10435714D01*
X117318571Y-10150000D01*
X117390000Y-10007142D01*
X117461428Y-9935714D01*
X117604285Y-9864285D01*
X118032857Y-9864285D01*
X118175714Y-9935714D01*
X118247142Y-10007142D01*
X118318571Y-10150000D01*
X118318571Y-10435714D01*
X118247142Y-10578571D01*
X118318571Y-8578571D02*
X117532857Y-8578571D01*
X117390000Y-8650000D01*
X117318571Y-8792857D01*
X117318571Y-9078571D01*
X117390000Y-9221428D01*
X118247142Y-8578571D02*
X118318571Y-8721428D01*
X118318571Y-9078571D01*
X118247142Y-9221428D01*
X118104285Y-9292857D01*
X117961428Y-9292857D01*
X117818571Y-9221428D01*
X117747142Y-9078571D01*
X117747142Y-8721428D01*
X117675714Y-8578571D01*
X117318571Y-7221428D02*
X118318571Y-7221428D01*
X117318571Y-7864285D02*
X118104285Y-7864285D01*
X118247142Y-7792857D01*
X118318571Y-7650000D01*
X118318571Y-7435714D01*
X118247142Y-7292857D01*
X118175714Y-7221428D01*
X118247142Y-6578571D02*
X118318571Y-6435714D01*
X118318571Y-6150000D01*
X118247142Y-6007142D01*
X118104285Y-5935714D01*
X118032857Y-5935714D01*
X117890000Y-6007142D01*
X117818571Y-6150000D01*
X117818571Y-6364285D01*
X117747142Y-6507142D01*
X117604285Y-6578571D01*
X117532857Y-6578571D01*
X117390000Y-6507142D01*
X117318571Y-6364285D01*
X117318571Y-6150000D01*
X117390000Y-6007142D01*
X118247142Y-4721428D02*
X118318571Y-4864285D01*
X118318571Y-5150000D01*
X118247142Y-5292857D01*
X118104285Y-5364285D01*
X117532857Y-5364285D01*
X117390000Y-5292857D01*
X117318571Y-5150000D01*
X117318571Y-4864285D01*
X117390000Y-4721428D01*
X117532857Y-4650000D01*
X117675714Y-4650000D01*
X117818571Y-5364285D01*
X6178571Y-12678571D02*
X6178571Y-11178571D01*
X6678571Y-12250000D01*
X7178571Y-11178571D01*
X7178571Y-12678571D01*
X8178571Y-11178571D02*
X8464285Y-11178571D01*
X8607142Y-11250000D01*
X8750000Y-11392857D01*
X8821428Y-11678571D01*
X8821428Y-12178571D01*
X8750000Y-12464285D01*
X8607142Y-12607142D01*
X8464285Y-12678571D01*
X8178571Y-12678571D01*
X8035714Y-12607142D01*
X7892857Y-12464285D01*
X7821428Y-12178571D01*
X7821428Y-11678571D01*
X7892857Y-11392857D01*
X8035714Y-11250000D01*
X8178571Y-11178571D01*
X9464285Y-12678571D02*
X9464285Y-11178571D01*
X9964285Y-12250000D01*
X10464285Y-11178571D01*
X10464285Y-12678571D01*
X11964285Y-12678571D02*
X11107142Y-12678571D01*
X11535714Y-12678571D02*
X11535714Y-11178571D01*
X11392857Y-11392857D01*
X11250000Y-11535714D01*
X11107142Y-11607142D01*
X12250000Y-12821428D02*
X13392857Y-12821428D01*
X13678571Y-12607142D02*
X13892857Y-12678571D01*
X14250000Y-12678571D01*
X14392857Y-12607142D01*
X14464285Y-12535714D01*
X14535714Y-12392857D01*
X14535714Y-12250000D01*
X14464285Y-12107142D01*
X14392857Y-12035714D01*
X14250000Y-11964285D01*
X13964285Y-11892857D01*
X13821428Y-11821428D01*
X13750000Y-11750000D01*
X13678571Y-11607142D01*
X13678571Y-11464285D01*
X13750000Y-11321428D01*
X13821428Y-11250000D01*
X13964285Y-11178571D01*
X14321428Y-11178571D01*
X14535714Y-11250000D01*
X15178571Y-12678571D02*
X15178571Y-11178571D01*
X15750000Y-11178571D01*
X15892857Y-11250000D01*
X15964285Y-11321428D01*
X16035714Y-11464285D01*
X16035714Y-11678571D01*
X15964285Y-11821428D01*
X15892857Y-11892857D01*
X15750000Y-11964285D01*
X15178571Y-11964285D01*
X16607142Y-12607142D02*
X16821428Y-12678571D01*
X17178571Y-12678571D01*
X17321428Y-12607142D01*
X17392857Y-12535714D01*
X17464285Y-12392857D01*
X17464285Y-12250000D01*
X17392857Y-12107142D01*
X17321428Y-12035714D01*
X17178571Y-11964285D01*
X16892857Y-11892857D01*
X16750000Y-11821428D01*
X16678571Y-11750000D01*
X16607142Y-11607142D01*
X16607142Y-11464285D01*
X16678571Y-11321428D01*
X16750000Y-11250000D01*
X16892857Y-11178571D01*
X17250000Y-11178571D01*
X17464285Y-11250000D01*
X18892857Y-12678571D02*
X18035714Y-12678571D01*
X18464285Y-12678571D02*
X18464285Y-11178571D01*
X18321428Y-11392857D01*
X18178571Y-11535714D01*
X18035714Y-11607142D01*
D11*
X189952380Y-26261904D02*
X188952380Y-26261904D01*
X188952380Y-25880952D01*
X189000000Y-25785714D01*
X189047619Y-25738095D01*
X189142857Y-25690476D01*
X189285714Y-25690476D01*
X189380952Y-25738095D01*
X189428571Y-25785714D01*
X189476190Y-25880952D01*
X189476190Y-26261904D01*
X189952380Y-25119047D02*
X189904761Y-25214285D01*
X189857142Y-25261904D01*
X189761904Y-25309523D01*
X189476190Y-25309523D01*
X189380952Y-25261904D01*
X189333333Y-25214285D01*
X189285714Y-25119047D01*
X189285714Y-24976190D01*
X189333333Y-24880952D01*
X189380952Y-24833333D01*
X189476190Y-24785714D01*
X189761904Y-24785714D01*
X189857142Y-24833333D01*
X189904761Y-24880952D01*
X189952380Y-24976190D01*
X189952380Y-25119047D01*
X189285714Y-24452380D02*
X189952380Y-24261904D01*
X189476190Y-24071428D01*
X189952380Y-23880952D01*
X189285714Y-23690476D01*
X189904761Y-22928571D02*
X189952380Y-23023809D01*
X189952380Y-23214285D01*
X189904761Y-23309523D01*
X189809523Y-23357142D01*
X189428571Y-23357142D01*
X189333333Y-23309523D01*
X189285714Y-23214285D01*
X189285714Y-23023809D01*
X189333333Y-22928571D01*
X189428571Y-22880952D01*
X189523809Y-22880952D01*
X189619047Y-23357142D01*
X189952380Y-22452380D02*
X189285714Y-22452380D01*
X189476190Y-22452380D02*
X189380952Y-22404761D01*
X189333333Y-22357142D01*
X189285714Y-22261904D01*
X189285714Y-22166666D01*
X189904761Y-21119047D02*
X189952380Y-21023809D01*
X189952380Y-20833333D01*
X189904761Y-20738095D01*
X189809523Y-20690476D01*
X189761904Y-20690476D01*
X189666666Y-20738095D01*
X189619047Y-20833333D01*
X189619047Y-20976190D01*
X189571428Y-21071428D01*
X189476190Y-21119047D01*
X189428571Y-21119047D01*
X189333333Y-21071428D01*
X189285714Y-20976190D01*
X189285714Y-20833333D01*
X189333333Y-20738095D01*
X189285714Y-19833333D02*
X189952380Y-19833333D01*
X189285714Y-20261904D02*
X189809523Y-20261904D01*
X189904761Y-20214285D01*
X189952380Y-20119047D01*
X189952380Y-19976190D01*
X189904761Y-19880952D01*
X189857142Y-19833333D01*
X189285714Y-19357142D02*
X190285714Y-19357142D01*
X189333333Y-19357142D02*
X189285714Y-19261904D01*
X189285714Y-19071428D01*
X189333333Y-18976190D01*
X189380952Y-18928571D01*
X189476190Y-18880952D01*
X189761904Y-18880952D01*
X189857142Y-18928571D01*
X189904761Y-18976190D01*
X189952380Y-19071428D01*
X189952380Y-19261904D01*
X189904761Y-19357142D01*
X189285714Y-18452380D02*
X190285714Y-18452380D01*
X189333333Y-18452380D02*
X189285714Y-18357142D01*
X189285714Y-18166666D01*
X189333333Y-18071428D01*
X189380952Y-18023809D01*
X189476190Y-17976190D01*
X189761904Y-17976190D01*
X189857142Y-18023809D01*
X189904761Y-18071428D01*
X189952380Y-18166666D01*
X189952380Y-18357142D01*
X189904761Y-18452380D01*
X189952380Y-17404761D02*
X189904761Y-17500000D01*
X189809523Y-17547619D01*
X188952380Y-17547619D01*
X189285714Y-17119047D02*
X189952380Y-16880952D01*
X189285714Y-16642857D02*
X189952380Y-16880952D01*
X190190476Y-16976190D01*
X190238095Y-17023809D01*
X190285714Y-17119047D01*
D12*
X190952380Y-67023809D02*
X189952380Y-67023809D01*
X189952380Y-66642857D01*
X190000000Y-66547619D01*
X190047619Y-66500000D01*
X190142857Y-66452380D01*
X190285714Y-66452380D01*
X190380952Y-66500000D01*
X190428571Y-66547619D01*
X190476190Y-66642857D01*
X190476190Y-67023809D01*
X190952380Y-66023809D02*
X189952380Y-66023809D01*
X189952380Y-65642857D01*
X190000000Y-65547619D01*
X190047619Y-65500000D01*
X190142857Y-65452380D01*
X190285714Y-65452380D01*
X190380952Y-65500000D01*
X190428571Y-65547619D01*
X190476190Y-65642857D01*
X190476190Y-66023809D01*
X190952380Y-64500000D02*
X190952380Y-65071428D01*
X190952380Y-64785714D02*
X189952380Y-64785714D01*
X190095238Y-64880952D01*
X190190476Y-64976190D01*
X190238095Y-65071428D01*
X190952380Y-63309523D02*
X190285714Y-63309523D01*
X190476190Y-63309523D02*
X190380952Y-63261904D01*
X190333333Y-63214285D01*
X190285714Y-63119047D01*
X190285714Y-63023809D01*
X190904761Y-62309523D02*
X190952380Y-62404761D01*
X190952380Y-62595238D01*
X190904761Y-62690476D01*
X190809523Y-62738095D01*
X190428571Y-62738095D01*
X190333333Y-62690476D01*
X190285714Y-62595238D01*
X190285714Y-62404761D01*
X190333333Y-62309523D01*
X190428571Y-62261904D01*
X190523809Y-62261904D01*
X190619047Y-62738095D01*
X190904761Y-61404761D02*
X190952380Y-61500000D01*
X190952380Y-61690476D01*
X190904761Y-61785714D01*
X190857142Y-61833333D01*
X190761904Y-61880952D01*
X190476190Y-61880952D01*
X190380952Y-61833333D01*
X190333333Y-61785714D01*
X190285714Y-61690476D01*
X190285714Y-61500000D01*
X190333333Y-61404761D01*
X190904761Y-60595238D02*
X190952380Y-60690476D01*
X190952380Y-60880952D01*
X190904761Y-60976190D01*
X190809523Y-61023809D01*
X190428571Y-61023809D01*
X190333333Y-60976190D01*
X190285714Y-60880952D01*
X190285714Y-60690476D01*
X190333333Y-60595238D01*
X190428571Y-60547619D01*
X190523809Y-60547619D01*
X190619047Y-61023809D01*
X190285714Y-60119047D02*
X191285714Y-60119047D01*
X190333333Y-60119047D02*
X190285714Y-60023809D01*
X190285714Y-59833333D01*
X190333333Y-59738095D01*
X190380952Y-59690476D01*
X190476190Y-59642857D01*
X190761904Y-59642857D01*
X190857142Y-59690476D01*
X190904761Y-59738095D01*
X190952380Y-59833333D01*
X190952380Y-60023809D01*
X190904761Y-60119047D01*
X190285714Y-59357142D02*
X190285714Y-58976190D01*
X189952380Y-59214285D02*
X190809523Y-59214285D01*
X190904761Y-59166666D01*
X190952380Y-59071428D01*
X190952380Y-58976190D01*
X190952380Y-58214285D02*
X190428571Y-58214285D01*
X190333333Y-58261904D01*
X190285714Y-58357142D01*
X190285714Y-58547619D01*
X190333333Y-58642857D01*
X190904761Y-58214285D02*
X190952380Y-58309523D01*
X190952380Y-58547619D01*
X190904761Y-58642857D01*
X190809523Y-58690476D01*
X190714285Y-58690476D01*
X190619047Y-58642857D01*
X190571428Y-58547619D01*
X190571428Y-58309523D01*
X190523809Y-58214285D01*
X190904761Y-57309523D02*
X190952380Y-57404761D01*
X190952380Y-57595238D01*
X190904761Y-57690476D01*
X190857142Y-57738095D01*
X190761904Y-57785714D01*
X190476190Y-57785714D01*
X190380952Y-57738095D01*
X190333333Y-57690476D01*
X190285714Y-57595238D01*
X190285714Y-57404761D01*
X190333333Y-57309523D01*
X190952380Y-56738095D02*
X190904761Y-56833333D01*
X190809523Y-56880952D01*
X189952380Y-56880952D01*
X190904761Y-55976190D02*
X190952380Y-56071428D01*
X190952380Y-56261904D01*
X190904761Y-56357142D01*
X190809523Y-56404761D01*
X190428571Y-56404761D01*
X190333333Y-56357142D01*
X190285714Y-56261904D01*
X190285714Y-56071428D01*
X190333333Y-55976190D01*
X190428571Y-55928571D01*
X190523809Y-55928571D01*
X190619047Y-56404761D01*
X170952380Y-67023809D02*
X169952380Y-67023809D01*
X169952380Y-66642857D01*
X170000000Y-66547619D01*
X170047619Y-66500000D01*
X170142857Y-66452380D01*
X170285714Y-66452380D01*
X170380952Y-66500000D01*
X170428571Y-66547619D01*
X170476190Y-66642857D01*
X170476190Y-67023809D01*
X170952380Y-66023809D02*
X169952380Y-66023809D01*
X169952380Y-65642857D01*
X170000000Y-65547619D01*
X170047619Y-65500000D01*
X170142857Y-65452380D01*
X170285714Y-65452380D01*
X170380952Y-65500000D01*
X170428571Y-65547619D01*
X170476190Y-65642857D01*
X170476190Y-66023809D01*
X170952380Y-64500000D02*
X170952380Y-65071428D01*
X170952380Y-64785714D02*
X169952380Y-64785714D01*
X170095238Y-64880952D01*
X170190476Y-64976190D01*
X170238095Y-65071428D01*
X170952380Y-63309523D02*
X170285714Y-63309523D01*
X170476190Y-63309523D02*
X170380952Y-63261904D01*
X170333333Y-63214285D01*
X170285714Y-63119047D01*
X170285714Y-63023809D01*
X170904761Y-62309523D02*
X170952380Y-62404761D01*
X170952380Y-62595238D01*
X170904761Y-62690476D01*
X170809523Y-62738095D01*
X170428571Y-62738095D01*
X170333333Y-62690476D01*
X170285714Y-62595238D01*
X170285714Y-62404761D01*
X170333333Y-62309523D01*
X170428571Y-62261904D01*
X170523809Y-62261904D01*
X170619047Y-62738095D01*
X170904761Y-61404761D02*
X170952380Y-61500000D01*
X170952380Y-61690476D01*
X170904761Y-61785714D01*
X170857142Y-61833333D01*
X170761904Y-61880952D01*
X170476190Y-61880952D01*
X170380952Y-61833333D01*
X170333333Y-61785714D01*
X170285714Y-61690476D01*
X170285714Y-61500000D01*
X170333333Y-61404761D01*
X170904761Y-60595238D02*
X170952380Y-60690476D01*
X170952380Y-60880952D01*
X170904761Y-60976190D01*
X170809523Y-61023809D01*
X170428571Y-61023809D01*
X170333333Y-60976190D01*
X170285714Y-60880952D01*
X170285714Y-60690476D01*
X170333333Y-60595238D01*
X170428571Y-60547619D01*
X170523809Y-60547619D01*
X170619047Y-61023809D01*
X170285714Y-60119047D02*
X171285714Y-60119047D01*
X170333333Y-60119047D02*
X170285714Y-60023809D01*
X170285714Y-59833333D01*
X170333333Y-59738095D01*
X170380952Y-59690476D01*
X170476190Y-59642857D01*
X170761904Y-59642857D01*
X170857142Y-59690476D01*
X170904761Y-59738095D01*
X170952380Y-59833333D01*
X170952380Y-60023809D01*
X170904761Y-60119047D01*
X170285714Y-59357142D02*
X170285714Y-58976190D01*
X169952380Y-59214285D02*
X170809523Y-59214285D01*
X170904761Y-59166666D01*
X170952380Y-59071428D01*
X170952380Y-58976190D01*
X170952380Y-58214285D02*
X170428571Y-58214285D01*
X170333333Y-58261904D01*
X170285714Y-58357142D01*
X170285714Y-58547619D01*
X170333333Y-58642857D01*
X170904761Y-58214285D02*
X170952380Y-58309523D01*
X170952380Y-58547619D01*
X170904761Y-58642857D01*
X170809523Y-58690476D01*
X170714285Y-58690476D01*
X170619047Y-58642857D01*
X170571428Y-58547619D01*
X170571428Y-58309523D01*
X170523809Y-58214285D01*
X170904761Y-57309523D02*
X170952380Y-57404761D01*
X170952380Y-57595238D01*
X170904761Y-57690476D01*
X170857142Y-57738095D01*
X170761904Y-57785714D01*
X170476190Y-57785714D01*
X170380952Y-57738095D01*
X170333333Y-57690476D01*
X170285714Y-57595238D01*
X170285714Y-57404761D01*
X170333333Y-57309523D01*
X170952380Y-56738095D02*
X170904761Y-56833333D01*
X170809523Y-56880952D01*
X169952380Y-56880952D01*
X170904761Y-55976190D02*
X170952380Y-56071428D01*
X170952380Y-56261904D01*
X170904761Y-56357142D01*
X170809523Y-56404761D01*
X170428571Y-56404761D01*
X170333333Y-56357142D01*
X170285714Y-56261904D01*
X170285714Y-56071428D01*
X170333333Y-55976190D01*
X170428571Y-55928571D01*
X170523809Y-55928571D01*
X170619047Y-56404761D01*
X150952380Y-67023809D02*
X149952380Y-67023809D01*
X149952380Y-66642857D01*
X150000000Y-66547619D01*
X150047619Y-66500000D01*
X150142857Y-66452380D01*
X150285714Y-66452380D01*
X150380952Y-66500000D01*
X150428571Y-66547619D01*
X150476190Y-66642857D01*
X150476190Y-67023809D01*
X150952380Y-66023809D02*
X149952380Y-66023809D01*
X149952380Y-65642857D01*
X150000000Y-65547619D01*
X150047619Y-65500000D01*
X150142857Y-65452380D01*
X150285714Y-65452380D01*
X150380952Y-65500000D01*
X150428571Y-65547619D01*
X150476190Y-65642857D01*
X150476190Y-66023809D01*
X150952380Y-64500000D02*
X150952380Y-65071428D01*
X150952380Y-64785714D02*
X149952380Y-64785714D01*
X150095238Y-64880952D01*
X150190476Y-64976190D01*
X150238095Y-65071428D01*
X150952380Y-63309523D02*
X150285714Y-63309523D01*
X150476190Y-63309523D02*
X150380952Y-63261904D01*
X150333333Y-63214285D01*
X150285714Y-63119047D01*
X150285714Y-63023809D01*
X150904761Y-62309523D02*
X150952380Y-62404761D01*
X150952380Y-62595238D01*
X150904761Y-62690476D01*
X150809523Y-62738095D01*
X150428571Y-62738095D01*
X150333333Y-62690476D01*
X150285714Y-62595238D01*
X150285714Y-62404761D01*
X150333333Y-62309523D01*
X150428571Y-62261904D01*
X150523809Y-62261904D01*
X150619047Y-62738095D01*
X150904761Y-61404761D02*
X150952380Y-61500000D01*
X150952380Y-61690476D01*
X150904761Y-61785714D01*
X150857142Y-61833333D01*
X150761904Y-61880952D01*
X150476190Y-61880952D01*
X150380952Y-61833333D01*
X150333333Y-61785714D01*
X150285714Y-61690476D01*
X150285714Y-61500000D01*
X150333333Y-61404761D01*
X150904761Y-60595238D02*
X150952380Y-60690476D01*
X150952380Y-60880952D01*
X150904761Y-60976190D01*
X150809523Y-61023809D01*
X150428571Y-61023809D01*
X150333333Y-60976190D01*
X150285714Y-60880952D01*
X150285714Y-60690476D01*
X150333333Y-60595238D01*
X150428571Y-60547619D01*
X150523809Y-60547619D01*
X150619047Y-61023809D01*
X150285714Y-60119047D02*
X151285714Y-60119047D01*
X150333333Y-60119047D02*
X150285714Y-60023809D01*
X150285714Y-59833333D01*
X150333333Y-59738095D01*
X150380952Y-59690476D01*
X150476190Y-59642857D01*
X150761904Y-59642857D01*
X150857142Y-59690476D01*
X150904761Y-59738095D01*
X150952380Y-59833333D01*
X150952380Y-60023809D01*
X150904761Y-60119047D01*
X150285714Y-59357142D02*
X150285714Y-58976190D01*
X149952380Y-59214285D02*
X150809523Y-59214285D01*
X150904761Y-59166666D01*
X150952380Y-59071428D01*
X150952380Y-58976190D01*
X150952380Y-58214285D02*
X150428571Y-58214285D01*
X150333333Y-58261904D01*
X150285714Y-58357142D01*
X150285714Y-58547619D01*
X150333333Y-58642857D01*
X150904761Y-58214285D02*
X150952380Y-58309523D01*
X150952380Y-58547619D01*
X150904761Y-58642857D01*
X150809523Y-58690476D01*
X150714285Y-58690476D01*
X150619047Y-58642857D01*
X150571428Y-58547619D01*
X150571428Y-58309523D01*
X150523809Y-58214285D01*
X150904761Y-57309523D02*
X150952380Y-57404761D01*
X150952380Y-57595238D01*
X150904761Y-57690476D01*
X150857142Y-57738095D01*
X150761904Y-57785714D01*
X150476190Y-57785714D01*
X150380952Y-57738095D01*
X150333333Y-57690476D01*
X150285714Y-57595238D01*
X150285714Y-57404761D01*
X150333333Y-57309523D01*
X150952380Y-56738095D02*
X150904761Y-56833333D01*
X150809523Y-56880952D01*
X149952380Y-56880952D01*
X150904761Y-55976190D02*
X150952380Y-56071428D01*
X150952380Y-56261904D01*
X150904761Y-56357142D01*
X150809523Y-56404761D01*
X150428571Y-56404761D01*
X150333333Y-56357142D01*
X150285714Y-56261904D01*
X150285714Y-56071428D01*
X150333333Y-55976190D01*
X150428571Y-55928571D01*
X150523809Y-55928571D01*
X150619047Y-56404761D01*
X130952380Y-67023809D02*
X129952380Y-67023809D01*
X129952380Y-66642857D01*
X130000000Y-66547619D01*
X130047619Y-66500000D01*
X130142857Y-66452380D01*
X130285714Y-66452380D01*
X130380952Y-66500000D01*
X130428571Y-66547619D01*
X130476190Y-66642857D01*
X130476190Y-67023809D01*
X130952380Y-66023809D02*
X129952380Y-66023809D01*
X129952380Y-65642857D01*
X130000000Y-65547619D01*
X130047619Y-65500000D01*
X130142857Y-65452380D01*
X130285714Y-65452380D01*
X130380952Y-65500000D01*
X130428571Y-65547619D01*
X130476190Y-65642857D01*
X130476190Y-66023809D01*
X130952380Y-64500000D02*
X130952380Y-65071428D01*
X130952380Y-64785714D02*
X129952380Y-64785714D01*
X130095238Y-64880952D01*
X130190476Y-64976190D01*
X130238095Y-65071428D01*
X130952380Y-63309523D02*
X130285714Y-63309523D01*
X130476190Y-63309523D02*
X130380952Y-63261904D01*
X130333333Y-63214285D01*
X130285714Y-63119047D01*
X130285714Y-63023809D01*
X130904761Y-62309523D02*
X130952380Y-62404761D01*
X130952380Y-62595238D01*
X130904761Y-62690476D01*
X130809523Y-62738095D01*
X130428571Y-62738095D01*
X130333333Y-62690476D01*
X130285714Y-62595238D01*
X130285714Y-62404761D01*
X130333333Y-62309523D01*
X130428571Y-62261904D01*
X130523809Y-62261904D01*
X130619047Y-62738095D01*
X130904761Y-61404761D02*
X130952380Y-61500000D01*
X130952380Y-61690476D01*
X130904761Y-61785714D01*
X130857142Y-61833333D01*
X130761904Y-61880952D01*
X130476190Y-61880952D01*
X130380952Y-61833333D01*
X130333333Y-61785714D01*
X130285714Y-61690476D01*
X130285714Y-61500000D01*
X130333333Y-61404761D01*
X130904761Y-60595238D02*
X130952380Y-60690476D01*
X130952380Y-60880952D01*
X130904761Y-60976190D01*
X130809523Y-61023809D01*
X130428571Y-61023809D01*
X130333333Y-60976190D01*
X130285714Y-60880952D01*
X130285714Y-60690476D01*
X130333333Y-60595238D01*
X130428571Y-60547619D01*
X130523809Y-60547619D01*
X130619047Y-61023809D01*
X130285714Y-60119047D02*
X131285714Y-60119047D01*
X130333333Y-60119047D02*
X130285714Y-60023809D01*
X130285714Y-59833333D01*
X130333333Y-59738095D01*
X130380952Y-59690476D01*
X130476190Y-59642857D01*
X130761904Y-59642857D01*
X130857142Y-59690476D01*
X130904761Y-59738095D01*
X130952380Y-59833333D01*
X130952380Y-60023809D01*
X130904761Y-60119047D01*
X130285714Y-59357142D02*
X130285714Y-58976190D01*
X129952380Y-59214285D02*
X130809523Y-59214285D01*
X130904761Y-59166666D01*
X130952380Y-59071428D01*
X130952380Y-58976190D01*
X130952380Y-58214285D02*
X130428571Y-58214285D01*
X130333333Y-58261904D01*
X130285714Y-58357142D01*
X130285714Y-58547619D01*
X130333333Y-58642857D01*
X130904761Y-58214285D02*
X130952380Y-58309523D01*
X130952380Y-58547619D01*
X130904761Y-58642857D01*
X130809523Y-58690476D01*
X130714285Y-58690476D01*
X130619047Y-58642857D01*
X130571428Y-58547619D01*
X130571428Y-58309523D01*
X130523809Y-58214285D01*
X130904761Y-57309523D02*
X130952380Y-57404761D01*
X130952380Y-57595238D01*
X130904761Y-57690476D01*
X130857142Y-57738095D01*
X130761904Y-57785714D01*
X130476190Y-57785714D01*
X130380952Y-57738095D01*
X130333333Y-57690476D01*
X130285714Y-57595238D01*
X130285714Y-57404761D01*
X130333333Y-57309523D01*
X130952380Y-56738095D02*
X130904761Y-56833333D01*
X130809523Y-56880952D01*
X129952380Y-56880952D01*
X130904761Y-55976190D02*
X130952380Y-56071428D01*
X130952380Y-56261904D01*
X130904761Y-56357142D01*
X130809523Y-56404761D01*
X130428571Y-56404761D01*
X130333333Y-56357142D01*
X130285714Y-56261904D01*
X130285714Y-56071428D01*
X130333333Y-55976190D01*
X130428571Y-55928571D01*
X130523809Y-55928571D01*
X130619047Y-56404761D01*
D11*
X83880952Y-109952380D02*
X83404761Y-109952380D01*
X83404761Y-108952380D01*
X84214285Y-109952380D02*
X84214285Y-109285714D01*
X84214285Y-108952380D02*
X84166666Y-109000000D01*
X84214285Y-109047619D01*
X84261904Y-109000000D01*
X84214285Y-108952380D01*
X84214285Y-109047619D01*
X85119047Y-109904761D02*
X85023809Y-109952380D01*
X84833333Y-109952380D01*
X84738095Y-109904761D01*
X84690476Y-109857142D01*
X84642857Y-109761904D01*
X84642857Y-109476190D01*
X84690476Y-109380952D01*
X84738095Y-109333333D01*
X84833333Y-109285714D01*
X85023809Y-109285714D01*
X85119047Y-109333333D01*
X85928571Y-109904761D02*
X85833333Y-109952380D01*
X85642857Y-109952380D01*
X85547619Y-109904761D01*
X85500000Y-109809523D01*
X85500000Y-109428571D01*
X85547619Y-109333333D01*
X85642857Y-109285714D01*
X85833333Y-109285714D01*
X85928571Y-109333333D01*
X85976190Y-109428571D01*
X85976190Y-109523809D01*
X85500000Y-109619047D01*
X86404761Y-109285714D02*
X86404761Y-109952380D01*
X86404761Y-109380952D02*
X86452380Y-109333333D01*
X86547619Y-109285714D01*
X86690476Y-109285714D01*
X86785714Y-109333333D01*
X86833333Y-109428571D01*
X86833333Y-109952380D01*
X87261904Y-109904761D02*
X87357142Y-109952380D01*
X87547619Y-109952380D01*
X87642857Y-109904761D01*
X87690476Y-109809523D01*
X87690476Y-109761904D01*
X87642857Y-109666666D01*
X87547619Y-109619047D01*
X87404761Y-109619047D01*
X87309523Y-109571428D01*
X87261904Y-109476190D01*
X87261904Y-109428571D01*
X87309523Y-109333333D01*
X87404761Y-109285714D01*
X87547619Y-109285714D01*
X87642857Y-109333333D01*
X88500000Y-109904761D02*
X88404761Y-109952380D01*
X88214285Y-109952380D01*
X88119047Y-109904761D01*
X88071428Y-109809523D01*
X88071428Y-109428571D01*
X88119047Y-109333333D01*
X88214285Y-109285714D01*
X88404761Y-109285714D01*
X88500000Y-109333333D01*
X88547619Y-109428571D01*
X88547619Y-109523809D01*
X88071428Y-109619047D01*
X89404761Y-109952380D02*
X89404761Y-108952380D01*
X89404761Y-109904761D02*
X89309523Y-109952380D01*
X89119047Y-109952380D01*
X89023809Y-109904761D01*
X88976190Y-109857142D01*
X88928571Y-109761904D01*
X88928571Y-109476190D01*
X88976190Y-109380952D01*
X89023809Y-109333333D01*
X89119047Y-109285714D01*
X89309523Y-109285714D01*
X89404761Y-109333333D01*
X91071428Y-109285714D02*
X91071428Y-109952380D01*
X90642857Y-109285714D02*
X90642857Y-109809523D01*
X90690476Y-109904761D01*
X90785714Y-109952380D01*
X90928571Y-109952380D01*
X91023809Y-109904761D01*
X91071428Y-109857142D01*
X91547619Y-109285714D02*
X91547619Y-109952380D01*
X91547619Y-109380952D02*
X91595238Y-109333333D01*
X91690476Y-109285714D01*
X91833333Y-109285714D01*
X91928571Y-109333333D01*
X91976190Y-109428571D01*
X91976190Y-109952380D01*
X92880952Y-109952380D02*
X92880952Y-108952380D01*
X92880952Y-109904761D02*
X92785714Y-109952380D01*
X92595238Y-109952380D01*
X92500000Y-109904761D01*
X92452380Y-109857142D01*
X92404761Y-109761904D01*
X92404761Y-109476190D01*
X92452380Y-109380952D01*
X92500000Y-109333333D01*
X92595238Y-109285714D01*
X92785714Y-109285714D01*
X92880952Y-109333333D01*
X93738095Y-109904761D02*
X93642857Y-109952380D01*
X93452380Y-109952380D01*
X93357142Y-109904761D01*
X93309523Y-109809523D01*
X93309523Y-109428571D01*
X93357142Y-109333333D01*
X93452380Y-109285714D01*
X93642857Y-109285714D01*
X93738095Y-109333333D01*
X93785714Y-109428571D01*
X93785714Y-109523809D01*
X93309523Y-109619047D01*
X94214285Y-109952380D02*
X94214285Y-109285714D01*
X94214285Y-109476190D02*
X94261904Y-109380952D01*
X94309523Y-109333333D01*
X94404761Y-109285714D01*
X94500000Y-109285714D01*
X96166666Y-109857142D02*
X96119047Y-109904761D01*
X95976190Y-109952380D01*
X95880952Y-109952380D01*
X95738095Y-109904761D01*
X95642857Y-109809523D01*
X95595238Y-109714285D01*
X95547619Y-109523809D01*
X95547619Y-109380952D01*
X95595238Y-109190476D01*
X95642857Y-109095238D01*
X95738095Y-109000000D01*
X95880952Y-108952380D01*
X95976190Y-108952380D01*
X96119047Y-109000000D01*
X96166666Y-109047619D01*
X96595238Y-109428571D02*
X96928571Y-109428571D01*
X97071428Y-109952380D02*
X96595238Y-109952380D01*
X96595238Y-108952380D01*
X97071428Y-108952380D01*
X98071428Y-109952380D02*
X97738095Y-109476190D01*
X97500000Y-109952380D02*
X97500000Y-108952380D01*
X97880952Y-108952380D01*
X97976190Y-109000000D01*
X98023809Y-109047619D01*
X98071428Y-109142857D01*
X98071428Y-109285714D01*
X98023809Y-109380952D01*
X97976190Y-109428571D01*
X97880952Y-109476190D01*
X97500000Y-109476190D01*
X98500000Y-109952380D02*
X98500000Y-108952380D01*
X99071428Y-109952380D01*
X99071428Y-108952380D01*
X99547619Y-109571428D02*
X100309523Y-109571428D01*
X100976190Y-108952380D02*
X101166666Y-108952380D01*
X101261904Y-109000000D01*
X101357142Y-109095238D01*
X101404761Y-109285714D01*
X101404761Y-109619047D01*
X101357142Y-109809523D01*
X101261904Y-109904761D01*
X101166666Y-109952380D01*
X100976190Y-109952380D01*
X100880952Y-109904761D01*
X100785714Y-109809523D01*
X100738095Y-109619047D01*
X100738095Y-109285714D01*
X100785714Y-109095238D01*
X100880952Y-109000000D01*
X100976190Y-108952380D01*
X101833333Y-109952380D02*
X101833333Y-108952380D01*
X101833333Y-109428571D02*
X102404761Y-109428571D01*
X102404761Y-109952380D02*
X102404761Y-108952380D01*
X103357142Y-109952380D02*
X102880952Y-109952380D01*
X102880952Y-108952380D01*
X103690476Y-109571428D02*
X104452380Y-109571428D01*
X104833333Y-108952380D02*
X105071428Y-109952380D01*
X105261904Y-109238095D01*
X105452380Y-109952380D01*
X105690476Y-108952380D01*
X106738095Y-109285714D02*
X106976190Y-109952380D01*
X107214285Y-109285714D01*
X107547619Y-109047619D02*
X107595238Y-109000000D01*
X107690476Y-108952380D01*
X107928571Y-108952380D01*
X108023809Y-109000000D01*
X108071428Y-109047619D01*
X108119047Y-109142857D01*
X108119047Y-109238095D01*
X108071428Y-109380952D01*
X107500000Y-109952380D01*
X108119047Y-109952380D01*
X109452380Y-109952380D02*
X109357142Y-109904761D01*
X109309523Y-109857142D01*
X109261904Y-109761904D01*
X109261904Y-109476190D01*
X109309523Y-109380952D01*
X109357142Y-109333333D01*
X109452380Y-109285714D01*
X109595238Y-109285714D01*
X109690476Y-109333333D01*
X109738095Y-109380952D01*
X109785714Y-109476190D01*
X109785714Y-109761904D01*
X109738095Y-109857142D01*
X109690476Y-109904761D01*
X109595238Y-109952380D01*
X109452380Y-109952380D01*
X110214285Y-109952380D02*
X110214285Y-109285714D01*
X110214285Y-109476190D02*
X110261904Y-109380952D01*
X110309523Y-109333333D01*
X110404761Y-109285714D01*
X110500000Y-109285714D01*
X111738095Y-109952380D02*
X111642857Y-109904761D01*
X111595238Y-109809523D01*
X111595238Y-108952380D01*
X112547619Y-109952380D02*
X112547619Y-109428571D01*
X112500000Y-109333333D01*
X112404761Y-109285714D01*
X112214285Y-109285714D01*
X112119047Y-109333333D01*
X112547619Y-109904761D02*
X112452380Y-109952380D01*
X112214285Y-109952380D01*
X112119047Y-109904761D01*
X112071428Y-109809523D01*
X112071428Y-109714285D01*
X112119047Y-109619047D01*
X112214285Y-109571428D01*
X112452380Y-109571428D01*
X112547619Y-109523809D01*
X112880952Y-109285714D02*
X113261904Y-109285714D01*
X113023809Y-108952380D02*
X113023809Y-109809523D01*
X113071428Y-109904761D01*
X113166666Y-109952380D01*
X113261904Y-109952380D01*
X113976190Y-109904761D02*
X113880952Y-109952380D01*
X113690476Y-109952380D01*
X113595238Y-109904761D01*
X113547619Y-109809523D01*
X113547619Y-109428571D01*
X113595238Y-109333333D01*
X113690476Y-109285714D01*
X113880952Y-109285714D01*
X113976190Y-109333333D01*
X114023809Y-109428571D01*
X114023809Y-109523809D01*
X113547619Y-109619047D01*
X114452380Y-109952380D02*
X114452380Y-109285714D01*
X114452380Y-109476190D02*
X114500000Y-109380952D01*
X114547619Y-109333333D01*
X114642857Y-109285714D01*
X114738095Y-109285714D01*
D13*
X78500000Y-111738095D02*
X78547619Y-111642857D01*
X78547619Y-111500000D01*
X78500000Y-111357142D01*
X78404761Y-111261904D01*
X78309523Y-111214285D01*
X78119047Y-111166666D01*
X77976190Y-111166666D01*
X77785714Y-111214285D01*
X77690476Y-111261904D01*
X77595238Y-111357142D01*
X77547619Y-111500000D01*
X77547619Y-111595238D01*
X77595238Y-111738095D01*
X77642857Y-111785714D01*
X77976190Y-111785714D01*
X77976190Y-111595238D01*
X77547619Y-112214285D02*
X78547619Y-112214285D01*
X77547619Y-112785714D01*
X78547619Y-112785714D01*
X77547619Y-113261904D02*
X78547619Y-113261904D01*
X78547619Y-113500000D01*
X78500000Y-113642857D01*
X78404761Y-113738095D01*
X78309523Y-113785714D01*
X78119047Y-113833333D01*
X77976190Y-113833333D01*
X77785714Y-113785714D01*
X77690476Y-113738095D01*
X77595238Y-113642857D01*
X77547619Y-113500000D01*
X77547619Y-113261904D01*
X65847619Y-112009523D02*
X65847619Y-111533333D01*
X65371428Y-111485714D01*
X65419047Y-111533333D01*
X65466666Y-111628571D01*
X65466666Y-111866666D01*
X65419047Y-111961904D01*
X65371428Y-112009523D01*
X65276190Y-112057142D01*
X65038095Y-112057142D01*
X64942857Y-112009523D01*
X64895238Y-111961904D01*
X64847619Y-111866666D01*
X64847619Y-111628571D01*
X64895238Y-111533333D01*
X64942857Y-111485714D01*
X65847619Y-112342857D02*
X64847619Y-112676190D01*
X65847619Y-113009523D01*
X75042857Y-111833333D02*
X74995238Y-111785714D01*
X74947619Y-111642857D01*
X74947619Y-111547619D01*
X74995238Y-111404761D01*
X75090476Y-111309523D01*
X75185714Y-111261904D01*
X75376190Y-111214285D01*
X75519047Y-111214285D01*
X75709523Y-111261904D01*
X75804761Y-111309523D01*
X75900000Y-111404761D01*
X75947619Y-111547619D01*
X75947619Y-111642857D01*
X75900000Y-111785714D01*
X75852380Y-111833333D01*
X74995238Y-112214285D02*
X74947619Y-112357142D01*
X74947619Y-112595238D01*
X74995238Y-112690476D01*
X75042857Y-112738095D01*
X75138095Y-112785714D01*
X75233333Y-112785714D01*
X75328571Y-112738095D01*
X75376190Y-112690476D01*
X75423809Y-112595238D01*
X75471428Y-112404761D01*
X75519047Y-112309523D01*
X75566666Y-112261904D01*
X75661904Y-112214285D01*
X75757142Y-112214285D01*
X75852380Y-112261904D01*
X75900000Y-112309523D01*
X75947619Y-112404761D01*
X75947619Y-112642857D01*
X75900000Y-112785714D01*
X72495238Y-111309523D02*
X72447619Y-111452380D01*
X72447619Y-111690476D01*
X72495238Y-111785714D01*
X72542857Y-111833333D01*
X72638095Y-111880952D01*
X72733333Y-111880952D01*
X72828571Y-111833333D01*
X72876190Y-111785714D01*
X72923809Y-111690476D01*
X72971428Y-111500000D01*
X73019047Y-111404761D01*
X73066666Y-111357142D01*
X73161904Y-111309523D01*
X73257142Y-111309523D01*
X73352380Y-111357142D01*
X73400000Y-111404761D01*
X73447619Y-111500000D01*
X73447619Y-111738095D01*
X73400000Y-111880952D01*
X72542857Y-112880952D02*
X72495238Y-112833333D01*
X72447619Y-112690476D01*
X72447619Y-112595238D01*
X72495238Y-112452380D01*
X72590476Y-112357142D01*
X72685714Y-112309523D01*
X72876190Y-112261904D01*
X73019047Y-112261904D01*
X73209523Y-112309523D01*
X73304761Y-112357142D01*
X73400000Y-112452380D01*
X73447619Y-112595238D01*
X73447619Y-112690476D01*
X73400000Y-112833333D01*
X73352380Y-112880952D01*
X72447619Y-113785714D02*
X72447619Y-113309523D01*
X73447619Y-113309523D01*
X72447619Y-114119047D02*
X73447619Y-114119047D01*
X72447619Y-114690476D02*
X73019047Y-114261904D01*
X73447619Y-114690476D02*
X72876190Y-114119047D01*
X69947619Y-111428571D02*
X70947619Y-111428571D01*
X70233333Y-111761904D01*
X70947619Y-112095238D01*
X69947619Y-112095238D01*
X70947619Y-112761904D02*
X70947619Y-112952380D01*
X70900000Y-113047619D01*
X70804761Y-113142857D01*
X70614285Y-113190476D01*
X70280952Y-113190476D01*
X70090476Y-113142857D01*
X69995238Y-113047619D01*
X69947619Y-112952380D01*
X69947619Y-112761904D01*
X69995238Y-112666666D01*
X70090476Y-112571428D01*
X70280952Y-112523809D01*
X70614285Y-112523809D01*
X70804761Y-112571428D01*
X70900000Y-112666666D01*
X70947619Y-112761904D01*
X69995238Y-113571428D02*
X69947619Y-113714285D01*
X69947619Y-113952380D01*
X69995238Y-114047619D01*
X70042857Y-114095238D01*
X70138095Y-114142857D01*
X70233333Y-114142857D01*
X70328571Y-114095238D01*
X70376190Y-114047619D01*
X70423809Y-113952380D01*
X70471428Y-113761904D01*
X70519047Y-113666666D01*
X70566666Y-113619047D01*
X70661904Y-113571428D01*
X70757142Y-113571428D01*
X70852380Y-113619047D01*
X70900000Y-113666666D01*
X70947619Y-113761904D01*
X70947619Y-114000000D01*
X70900000Y-114142857D01*
X69947619Y-114571428D02*
X70947619Y-114571428D01*
X67347619Y-111428571D02*
X68347619Y-111428571D01*
X67633333Y-111761904D01*
X68347619Y-112095238D01*
X67347619Y-112095238D01*
X67347619Y-112571428D02*
X68347619Y-112571428D01*
X67395238Y-113000000D02*
X67347619Y-113142857D01*
X67347619Y-113380952D01*
X67395238Y-113476190D01*
X67442857Y-113523809D01*
X67538095Y-113571428D01*
X67633333Y-113571428D01*
X67728571Y-113523809D01*
X67776190Y-113476190D01*
X67823809Y-113380952D01*
X67871428Y-113190476D01*
X67919047Y-113095238D01*
X67966666Y-113047619D01*
X68061904Y-113000000D01*
X68157142Y-113000000D01*
X68252380Y-113047619D01*
X68300000Y-113095238D01*
X68347619Y-113190476D01*
X68347619Y-113428571D01*
X68300000Y-113571428D01*
X68347619Y-114190476D02*
X68347619Y-114380952D01*
X68300000Y-114476190D01*
X68204761Y-114571428D01*
X68014285Y-114619047D01*
X67680952Y-114619047D01*
X67490476Y-114571428D01*
X67395238Y-114476190D01*
X67347619Y-114380952D01*
X67347619Y-114190476D01*
X67395238Y-114095238D01*
X67490476Y-114000000D01*
X67680952Y-113952380D01*
X68014285Y-113952380D01*
X68204761Y-114000000D01*
X68300000Y-114095238D01*
X68347619Y-114190476D01*
D10*
X75250000Y-101607142D02*
X75464285Y-101678571D01*
X75821428Y-101678571D01*
X75964285Y-101607142D01*
X76035714Y-101535714D01*
X76107142Y-101392857D01*
X76107142Y-101250000D01*
X76035714Y-101107142D01*
X75964285Y-101035714D01*
X75821428Y-100964285D01*
X75535714Y-100892857D01*
X75392857Y-100821428D01*
X75321428Y-100750000D01*
X75250000Y-100607142D01*
X75250000Y-100464285D01*
X75321428Y-100321428D01*
X75392857Y-100250000D01*
X75535714Y-100178571D01*
X75892857Y-100178571D01*
X76107142Y-100250000D01*
X76750000Y-101678571D02*
X76750000Y-100178571D01*
X77321428Y-100178571D01*
X77464285Y-100250000D01*
X77535714Y-100321428D01*
X77607142Y-100464285D01*
X77607142Y-100678571D01*
X77535714Y-100821428D01*
X77464285Y-100892857D01*
X77321428Y-100964285D01*
X76750000Y-100964285D01*
X78250000Y-101678571D02*
X78250000Y-100178571D01*
X79250000Y-100178571D02*
X79392857Y-100178571D01*
X79535714Y-100250000D01*
X79607142Y-100321428D01*
X79678571Y-100464285D01*
X79750000Y-100750000D01*
X79750000Y-101107142D01*
X79678571Y-101392857D01*
X79607142Y-101535714D01*
X79535714Y-101607142D01*
X79392857Y-101678571D01*
X79250000Y-101678571D01*
X79107142Y-101607142D01*
X79035714Y-101535714D01*
X78964285Y-101392857D01*
X78892857Y-101107142D01*
X78892857Y-100750000D01*
X78964285Y-100464285D01*
X79035714Y-100321428D01*
X79107142Y-100250000D01*
X79250000Y-100178571D01*
X192750000Y-13642857D02*
X192678571Y-13785714D01*
X192678571Y-14000000D01*
X192750000Y-14214285D01*
X192892857Y-14357142D01*
X193035714Y-14428571D01*
X193321428Y-14500000D01*
X193535714Y-14500000D01*
X193821428Y-14428571D01*
X193964285Y-14357142D01*
X194107142Y-14214285D01*
X194178571Y-14000000D01*
X194178571Y-13857142D01*
X194107142Y-13642857D01*
X194035714Y-13571428D01*
X193535714Y-13571428D01*
X193535714Y-13857142D01*
X194178571Y-12928571D02*
X192678571Y-12928571D01*
X194178571Y-12071428D01*
X192678571Y-12071428D01*
X194178571Y-11357142D02*
X192678571Y-11357142D01*
X192678571Y-11000000D01*
X192750000Y-10785714D01*
X192892857Y-10642857D01*
X193035714Y-10571428D01*
X193321428Y-10500000D01*
X193535714Y-10500000D01*
X193821428Y-10571428D01*
X193964285Y-10642857D01*
X194107142Y-10785714D01*
X194178571Y-11000000D01*
X194178571Y-11357142D01*
X197178571Y-31928571D02*
X197178571Y-32785714D01*
X197178571Y-32357142D02*
X195678571Y-32357142D01*
X195892857Y-32500000D01*
X196035714Y-32642857D01*
X196107142Y-32785714D01*
X195821428Y-31357142D02*
X195750000Y-31285714D01*
X195678571Y-31142857D01*
X195678571Y-30785714D01*
X195750000Y-30642857D01*
X195821428Y-30571428D01*
X195964285Y-30500000D01*
X196107142Y-30500000D01*
X196321428Y-30571428D01*
X197178571Y-31428571D01*
X197178571Y-30500000D01*
X195678571Y-30071428D02*
X197178571Y-29571428D01*
X195678571Y-29071428D01*
X192678571Y-33214285D02*
X192678571Y-32285714D01*
X193250000Y-32785714D01*
X193250000Y-32571428D01*
X193321428Y-32428571D01*
X193392857Y-32357142D01*
X193535714Y-32285714D01*
X193892857Y-32285714D01*
X194035714Y-32357142D01*
X194107142Y-32428571D01*
X194178571Y-32571428D01*
X194178571Y-33000000D01*
X194107142Y-33142857D01*
X194035714Y-33214285D01*
X194035714Y-31642857D02*
X194107142Y-31571428D01*
X194178571Y-31642857D01*
X194107142Y-31714285D01*
X194035714Y-31642857D01*
X194178571Y-31642857D01*
X192678571Y-31071428D02*
X192678571Y-30142857D01*
X193250000Y-30642857D01*
X193250000Y-30428571D01*
X193321428Y-30285714D01*
X193392857Y-30214285D01*
X193535714Y-30142857D01*
X193892857Y-30142857D01*
X194035714Y-30214285D01*
X194107142Y-30285714D01*
X194178571Y-30428571D01*
X194178571Y-30857142D01*
X194107142Y-31000000D01*
X194035714Y-31071428D01*
X192678571Y-29714285D02*
X194178571Y-29214285D01*
X192678571Y-28714285D01*
X195678571Y-13785714D02*
X195678571Y-14500000D01*
X196392857Y-14571428D01*
X196321428Y-14500000D01*
X196250000Y-14357142D01*
X196250000Y-14000000D01*
X196321428Y-13857142D01*
X196392857Y-13785714D01*
X196535714Y-13714285D01*
X196892857Y-13714285D01*
X197035714Y-13785714D01*
X197107142Y-13857142D01*
X197178571Y-14000000D01*
X197178571Y-14357142D01*
X197107142Y-14500000D01*
X197035714Y-14571428D01*
X195678571Y-13285714D02*
X197178571Y-12785714D01*
X195678571Y-12285714D01*
X149642857Y-3178571D02*
X149642857Y-1678571D01*
X150000000Y-1678571D01*
X150214285Y-1750000D01*
X150357142Y-1892857D01*
X150428571Y-2035714D01*
X150500000Y-2321428D01*
X150500000Y-2535714D01*
X150428571Y-2821428D01*
X150357142Y-2964285D01*
X150214285Y-3107142D01*
X150000000Y-3178571D01*
X149642857Y-3178571D01*
X151714285Y-3107142D02*
X151571428Y-3178571D01*
X151285714Y-3178571D01*
X151142857Y-3107142D01*
X151071428Y-2964285D01*
X151071428Y-2392857D01*
X151142857Y-2250000D01*
X151285714Y-2178571D01*
X151571428Y-2178571D01*
X151714285Y-2250000D01*
X151785714Y-2392857D01*
X151785714Y-2535714D01*
X151071428Y-2678571D01*
X152428571Y-3178571D02*
X152428571Y-1678571D01*
X152428571Y-2250000D02*
X152571428Y-2178571D01*
X152857142Y-2178571D01*
X153000000Y-2250000D01*
X153071428Y-2321428D01*
X153142857Y-2464285D01*
X153142857Y-2892857D01*
X153071428Y-3035714D01*
X153000000Y-3107142D01*
X152857142Y-3178571D01*
X152571428Y-3178571D01*
X152428571Y-3107142D01*
X154428571Y-2178571D02*
X154428571Y-3178571D01*
X153785714Y-2178571D02*
X153785714Y-2964285D01*
X153857142Y-3107142D01*
X154000000Y-3178571D01*
X154214285Y-3178571D01*
X154357142Y-3107142D01*
X154428571Y-3035714D01*
X155785714Y-2178571D02*
X155785714Y-3392857D01*
X155714285Y-3535714D01*
X155642857Y-3607142D01*
X155500000Y-3678571D01*
X155285714Y-3678571D01*
X155142857Y-3607142D01*
X155785714Y-3107142D02*
X155642857Y-3178571D01*
X155357142Y-3178571D01*
X155214285Y-3107142D01*
X155142857Y-3035714D01*
X155071428Y-2892857D01*
X155071428Y-2464285D01*
X155142857Y-2321428D01*
X155214285Y-2250000D01*
X155357142Y-2178571D01*
X155642857Y-2178571D01*
X155785714Y-2250000D01*
X157642857Y-3178571D02*
X157642857Y-1678571D01*
X157642857Y-2250000D02*
X157785714Y-2178571D01*
X158071428Y-2178571D01*
X158214285Y-2250000D01*
X158285714Y-2321428D01*
X158357142Y-2464285D01*
X158357142Y-2892857D01*
X158285714Y-3035714D01*
X158214285Y-3107142D01*
X158071428Y-3178571D01*
X157785714Y-3178571D01*
X157642857Y-3107142D01*
X159642857Y-2178571D02*
X159642857Y-3178571D01*
X159000000Y-2178571D02*
X159000000Y-2964285D01*
X159071428Y-3107142D01*
X159214285Y-3178571D01*
X159428571Y-3178571D01*
X159571428Y-3107142D01*
X159642857Y-3035714D01*
X160285714Y-3107142D02*
X160428571Y-3178571D01*
X160714285Y-3178571D01*
X160857142Y-3107142D01*
X160928571Y-2964285D01*
X160928571Y-2892857D01*
X160857142Y-2750000D01*
X160714285Y-2678571D01*
X160500000Y-2678571D01*
X160357142Y-2607142D01*
X160285714Y-2464285D01*
X160285714Y-2392857D01*
X160357142Y-2250000D01*
X160500000Y-2178571D01*
X160714285Y-2178571D01*
X160857142Y-2250000D01*
X162142857Y-3107142D02*
X162000000Y-3178571D01*
X161714285Y-3178571D01*
X161571428Y-3107142D01*
X161500000Y-2964285D01*
X161500000Y-2392857D01*
X161571428Y-2250000D01*
X161714285Y-2178571D01*
X162000000Y-2178571D01*
X162142857Y-2250000D01*
X162214285Y-2392857D01*
X162214285Y-2535714D01*
X161500000Y-2678571D01*
X162785714Y-3107142D02*
X162928571Y-3178571D01*
X163214285Y-3178571D01*
X163357142Y-3107142D01*
X163428571Y-2964285D01*
X163428571Y-2892857D01*
X163357142Y-2750000D01*
X163214285Y-2678571D01*
X163000000Y-2678571D01*
X162857142Y-2607142D01*
X162785714Y-2464285D01*
X162785714Y-2392857D01*
X162857142Y-2250000D01*
X163000000Y-2178571D01*
X163214285Y-2178571D01*
X163357142Y-2250000D01*
X6642857Y-53178571D02*
X6642857Y-51678571D01*
X7142857Y-52750000D01*
X7642857Y-51678571D01*
X7642857Y-53178571D01*
X8357142Y-53178571D02*
X8357142Y-51678571D01*
X8857142Y-52750000D01*
X9357142Y-51678571D01*
X9357142Y-53178571D01*
X10857142Y-53178571D02*
X10000000Y-53178571D01*
X10428571Y-53178571D02*
X10428571Y-51678571D01*
X10285714Y-51892857D01*
X10142857Y-52035714D01*
X10000000Y-52107142D01*
X12571428Y-53107142D02*
X12714285Y-53178571D01*
X13000000Y-53178571D01*
X13142857Y-53107142D01*
X13214285Y-52964285D01*
X13214285Y-52892857D01*
X13142857Y-52750000D01*
X13000000Y-52678571D01*
X12785714Y-52678571D01*
X12642857Y-52607142D01*
X12571428Y-52464285D01*
X12571428Y-52392857D01*
X12642857Y-52250000D01*
X12785714Y-52178571D01*
X13000000Y-52178571D01*
X13142857Y-52250000D01*
X14071428Y-53178571D02*
X13928571Y-53107142D01*
X13857142Y-52964285D01*
X13857142Y-51678571D01*
X14857142Y-53178571D02*
X14714285Y-53107142D01*
X14642857Y-53035714D01*
X14571428Y-52892857D01*
X14571428Y-52464285D01*
X14642857Y-52321428D01*
X14714285Y-52250000D01*
X14857142Y-52178571D01*
X15071428Y-52178571D01*
X15214285Y-52250000D01*
X15285714Y-52321428D01*
X15357142Y-52464285D01*
X15357142Y-52892857D01*
X15285714Y-53035714D01*
X15214285Y-53107142D01*
X15071428Y-53178571D01*
X14857142Y-53178571D01*
X15785714Y-52178571D02*
X16357142Y-52178571D01*
X16000000Y-51678571D02*
X16000000Y-52964285D01*
X16071428Y-53107142D01*
X16214285Y-53178571D01*
X16357142Y-53178571D01*
X18785714Y-53178571D02*
X17928571Y-53178571D01*
X18357142Y-53178571D02*
X18357142Y-51678571D01*
X18214285Y-51892857D01*
X18071428Y-52035714D01*
X17928571Y-52107142D01*
X21214285Y-53178571D02*
X21214285Y-52392857D01*
X21142857Y-52250000D01*
X21000000Y-52178571D01*
X20714285Y-52178571D01*
X20571428Y-52250000D01*
X21214285Y-53107142D02*
X21071428Y-53178571D01*
X20714285Y-53178571D01*
X20571428Y-53107142D01*
X20500000Y-52964285D01*
X20500000Y-52821428D01*
X20571428Y-52678571D01*
X20714285Y-52607142D01*
X21071428Y-52607142D01*
X21214285Y-52535714D01*
X22571428Y-53178571D02*
X22571428Y-51678571D01*
X22571428Y-53107142D02*
X22428571Y-53178571D01*
X22142857Y-53178571D01*
X22000000Y-53107142D01*
X21928571Y-53035714D01*
X21857142Y-52892857D01*
X21857142Y-52464285D01*
X21928571Y-52321428D01*
X22000000Y-52250000D01*
X22142857Y-52178571D01*
X22428571Y-52178571D01*
X22571428Y-52250000D01*
X23928571Y-53178571D02*
X23928571Y-51678571D01*
X23928571Y-53107142D02*
X23785714Y-53178571D01*
X23500000Y-53178571D01*
X23357142Y-53107142D01*
X23285714Y-53035714D01*
X23214285Y-52892857D01*
X23214285Y-52464285D01*
X23285714Y-52321428D01*
X23357142Y-52250000D01*
X23500000Y-52178571D01*
X23785714Y-52178571D01*
X23928571Y-52250000D01*
X24642857Y-53178571D02*
X24642857Y-52178571D01*
X24642857Y-52464285D02*
X24714285Y-52321428D01*
X24785714Y-52250000D01*
X24928571Y-52178571D01*
X25071428Y-52178571D01*
X26142857Y-53107142D02*
X26000000Y-53178571D01*
X25714285Y-53178571D01*
X25571428Y-53107142D01*
X25500000Y-52964285D01*
X25500000Y-52392857D01*
X25571428Y-52250000D01*
X25714285Y-52178571D01*
X26000000Y-52178571D01*
X26142857Y-52250000D01*
X26214285Y-52392857D01*
X26214285Y-52535714D01*
X25500000Y-52678571D01*
X26785714Y-53107142D02*
X26928571Y-53178571D01*
X27214285Y-53178571D01*
X27357142Y-53107142D01*
X27428571Y-52964285D01*
X27428571Y-52892857D01*
X27357142Y-52750000D01*
X27214285Y-52678571D01*
X27000000Y-52678571D01*
X26857142Y-52607142D01*
X26785714Y-52464285D01*
X26785714Y-52392857D01*
X26857142Y-52250000D01*
X27000000Y-52178571D01*
X27214285Y-52178571D01*
X27357142Y-52250000D01*
X28000000Y-53107142D02*
X28142857Y-53178571D01*
X28428571Y-53178571D01*
X28571428Y-53107142D01*
X28642857Y-52964285D01*
X28642857Y-52892857D01*
X28571428Y-52750000D01*
X28428571Y-52678571D01*
X28214285Y-52678571D01*
X28071428Y-52607142D01*
X28000000Y-52464285D01*
X28000000Y-52392857D01*
X28071428Y-52250000D01*
X28214285Y-52178571D01*
X28428571Y-52178571D01*
X28571428Y-52250000D01*
X31000000Y-53107142D02*
X30857142Y-53178571D01*
X30571428Y-53178571D01*
X30428571Y-53107142D01*
X30357142Y-52964285D01*
X30357142Y-52392857D01*
X30428571Y-52250000D01*
X30571428Y-52178571D01*
X30857142Y-52178571D01*
X31000000Y-52250000D01*
X31071428Y-52392857D01*
X31071428Y-52535714D01*
X30357142Y-52678571D01*
X31571428Y-53178571D02*
X32357142Y-52178571D01*
X31571428Y-52178571D02*
X32357142Y-53178571D01*
X32714285Y-52178571D02*
X33285714Y-52178571D01*
X32928571Y-51678571D02*
X32928571Y-52964285D01*
X33000000Y-53107142D01*
X33142857Y-53178571D01*
X33285714Y-53178571D01*
X34357142Y-53107142D02*
X34214285Y-53178571D01*
X33928571Y-53178571D01*
X33785714Y-53107142D01*
X33714285Y-52964285D01*
X33714285Y-52392857D01*
X33785714Y-52250000D01*
X33928571Y-52178571D01*
X34214285Y-52178571D01*
X34357142Y-52250000D01*
X34428571Y-52392857D01*
X34428571Y-52535714D01*
X33714285Y-52678571D01*
X35071428Y-52178571D02*
X35071428Y-53178571D01*
X35071428Y-52321428D02*
X35142857Y-52250000D01*
X35285714Y-52178571D01*
X35500000Y-52178571D01*
X35642857Y-52250000D01*
X35714285Y-52392857D01*
X35714285Y-53178571D01*
X36357142Y-53107142D02*
X36500000Y-53178571D01*
X36785714Y-53178571D01*
X36928571Y-53107142D01*
X37000000Y-52964285D01*
X37000000Y-52892857D01*
X36928571Y-52750000D01*
X36785714Y-52678571D01*
X36571428Y-52678571D01*
X36428571Y-52607142D01*
X36357142Y-52464285D01*
X36357142Y-52392857D01*
X36428571Y-52250000D01*
X36571428Y-52178571D01*
X36785714Y-52178571D01*
X36928571Y-52250000D01*
X37642857Y-53178571D02*
X37642857Y-52178571D01*
X37642857Y-51678571D02*
X37571428Y-51750000D01*
X37642857Y-51821428D01*
X37714285Y-51750000D01*
X37642857Y-51678571D01*
X37642857Y-51821428D01*
X38571428Y-53178571D02*
X38428571Y-53107142D01*
X38357142Y-53035714D01*
X38285714Y-52892857D01*
X38285714Y-52464285D01*
X38357142Y-52321428D01*
X38428571Y-52250000D01*
X38571428Y-52178571D01*
X38785714Y-52178571D01*
X38928571Y-52250000D01*
X39000000Y-52321428D01*
X39071428Y-52464285D01*
X39071428Y-52892857D01*
X39000000Y-53035714D01*
X38928571Y-53107142D01*
X38785714Y-53178571D01*
X38571428Y-53178571D01*
X39714285Y-52178571D02*
X39714285Y-53178571D01*
X39714285Y-52321428D02*
X39785714Y-52250000D01*
X39928571Y-52178571D01*
X40142857Y-52178571D01*
X40285714Y-52250000D01*
X40357142Y-52392857D01*
X40357142Y-53178571D01*
X6642857Y-90178571D02*
X6642857Y-88678571D01*
X7142857Y-89750000D01*
X7642857Y-88678571D01*
X7642857Y-90178571D01*
X8357142Y-90178571D02*
X8357142Y-88678571D01*
X8857142Y-89750000D01*
X9357142Y-88678571D01*
X9357142Y-90178571D01*
X10857142Y-90178571D02*
X10000000Y-90178571D01*
X10428571Y-90178571D02*
X10428571Y-88678571D01*
X10285714Y-88892857D01*
X10142857Y-89035714D01*
X10000000Y-89107142D01*
X12571428Y-90107142D02*
X12714285Y-90178571D01*
X13000000Y-90178571D01*
X13142857Y-90107142D01*
X13214285Y-89964285D01*
X13214285Y-89892857D01*
X13142857Y-89750000D01*
X13000000Y-89678571D01*
X12785714Y-89678571D01*
X12642857Y-89607142D01*
X12571428Y-89464285D01*
X12571428Y-89392857D01*
X12642857Y-89250000D01*
X12785714Y-89178571D01*
X13000000Y-89178571D01*
X13142857Y-89250000D01*
X14071428Y-90178571D02*
X13928571Y-90107142D01*
X13857142Y-89964285D01*
X13857142Y-88678571D01*
X14857142Y-90178571D02*
X14714285Y-90107142D01*
X14642857Y-90035714D01*
X14571428Y-89892857D01*
X14571428Y-89464285D01*
X14642857Y-89321428D01*
X14714285Y-89250000D01*
X14857142Y-89178571D01*
X15071428Y-89178571D01*
X15214285Y-89250000D01*
X15285714Y-89321428D01*
X15357142Y-89464285D01*
X15357142Y-89892857D01*
X15285714Y-90035714D01*
X15214285Y-90107142D01*
X15071428Y-90178571D01*
X14857142Y-90178571D01*
X15785714Y-89178571D02*
X16357142Y-89178571D01*
X16000000Y-88678571D02*
X16000000Y-89964285D01*
X16071428Y-90107142D01*
X16214285Y-90178571D01*
X16357142Y-90178571D01*
X17928571Y-88821428D02*
X18000000Y-88750000D01*
X18142857Y-88678571D01*
X18500000Y-88678571D01*
X18642857Y-88750000D01*
X18714285Y-88821428D01*
X18785714Y-88964285D01*
X18785714Y-89107142D01*
X18714285Y-89321428D01*
X17857142Y-90178571D01*
X18785714Y-90178571D01*
X21214285Y-90178571D02*
X21214285Y-89392857D01*
X21142857Y-89250000D01*
X21000000Y-89178571D01*
X20714285Y-89178571D01*
X20571428Y-89250000D01*
X21214285Y-90107142D02*
X21071428Y-90178571D01*
X20714285Y-90178571D01*
X20571428Y-90107142D01*
X20500000Y-89964285D01*
X20500000Y-89821428D01*
X20571428Y-89678571D01*
X20714285Y-89607142D01*
X21071428Y-89607142D01*
X21214285Y-89535714D01*
X22571428Y-90178571D02*
X22571428Y-88678571D01*
X22571428Y-90107142D02*
X22428571Y-90178571D01*
X22142857Y-90178571D01*
X22000000Y-90107142D01*
X21928571Y-90035714D01*
X21857142Y-89892857D01*
X21857142Y-89464285D01*
X21928571Y-89321428D01*
X22000000Y-89250000D01*
X22142857Y-89178571D01*
X22428571Y-89178571D01*
X22571428Y-89250000D01*
X23928571Y-90178571D02*
X23928571Y-88678571D01*
X23928571Y-90107142D02*
X23785714Y-90178571D01*
X23500000Y-90178571D01*
X23357142Y-90107142D01*
X23285714Y-90035714D01*
X23214285Y-89892857D01*
X23214285Y-89464285D01*
X23285714Y-89321428D01*
X23357142Y-89250000D01*
X23500000Y-89178571D01*
X23785714Y-89178571D01*
X23928571Y-89250000D01*
X24642857Y-90178571D02*
X24642857Y-89178571D01*
X24642857Y-89464285D02*
X24714285Y-89321428D01*
X24785714Y-89250000D01*
X24928571Y-89178571D01*
X25071428Y-89178571D01*
X26142857Y-90107142D02*
X26000000Y-90178571D01*
X25714285Y-90178571D01*
X25571428Y-90107142D01*
X25500000Y-89964285D01*
X25500000Y-89392857D01*
X25571428Y-89250000D01*
X25714285Y-89178571D01*
X26000000Y-89178571D01*
X26142857Y-89250000D01*
X26214285Y-89392857D01*
X26214285Y-89535714D01*
X25500000Y-89678571D01*
X26785714Y-90107142D02*
X26928571Y-90178571D01*
X27214285Y-90178571D01*
X27357142Y-90107142D01*
X27428571Y-89964285D01*
X27428571Y-89892857D01*
X27357142Y-89750000D01*
X27214285Y-89678571D01*
X27000000Y-89678571D01*
X26857142Y-89607142D01*
X26785714Y-89464285D01*
X26785714Y-89392857D01*
X26857142Y-89250000D01*
X27000000Y-89178571D01*
X27214285Y-89178571D01*
X27357142Y-89250000D01*
X28000000Y-90107142D02*
X28142857Y-90178571D01*
X28428571Y-90178571D01*
X28571428Y-90107142D01*
X28642857Y-89964285D01*
X28642857Y-89892857D01*
X28571428Y-89750000D01*
X28428571Y-89678571D01*
X28214285Y-89678571D01*
X28071428Y-89607142D01*
X28000000Y-89464285D01*
X28000000Y-89392857D01*
X28071428Y-89250000D01*
X28214285Y-89178571D01*
X28428571Y-89178571D01*
X28571428Y-89250000D01*
X31000000Y-90107142D02*
X30857142Y-90178571D01*
X30571428Y-90178571D01*
X30428571Y-90107142D01*
X30357142Y-89964285D01*
X30357142Y-89392857D01*
X30428571Y-89250000D01*
X30571428Y-89178571D01*
X30857142Y-89178571D01*
X31000000Y-89250000D01*
X31071428Y-89392857D01*
X31071428Y-89535714D01*
X30357142Y-89678571D01*
X31571428Y-90178571D02*
X32357142Y-89178571D01*
X31571428Y-89178571D02*
X32357142Y-90178571D01*
X32714285Y-89178571D02*
X33285714Y-89178571D01*
X32928571Y-88678571D02*
X32928571Y-89964285D01*
X33000000Y-90107142D01*
X33142857Y-90178571D01*
X33285714Y-90178571D01*
X34357142Y-90107142D02*
X34214285Y-90178571D01*
X33928571Y-90178571D01*
X33785714Y-90107142D01*
X33714285Y-89964285D01*
X33714285Y-89392857D01*
X33785714Y-89250000D01*
X33928571Y-89178571D01*
X34214285Y-89178571D01*
X34357142Y-89250000D01*
X34428571Y-89392857D01*
X34428571Y-89535714D01*
X33714285Y-89678571D01*
X35071428Y-89178571D02*
X35071428Y-90178571D01*
X35071428Y-89321428D02*
X35142857Y-89250000D01*
X35285714Y-89178571D01*
X35500000Y-89178571D01*
X35642857Y-89250000D01*
X35714285Y-89392857D01*
X35714285Y-90178571D01*
X36357142Y-90107142D02*
X36500000Y-90178571D01*
X36785714Y-90178571D01*
X36928571Y-90107142D01*
X37000000Y-89964285D01*
X37000000Y-89892857D01*
X36928571Y-89750000D01*
X36785714Y-89678571D01*
X36571428Y-89678571D01*
X36428571Y-89607142D01*
X36357142Y-89464285D01*
X36357142Y-89392857D01*
X36428571Y-89250000D01*
X36571428Y-89178571D01*
X36785714Y-89178571D01*
X36928571Y-89250000D01*
X37642857Y-90178571D02*
X37642857Y-89178571D01*
X37642857Y-88678571D02*
X37571428Y-88750000D01*
X37642857Y-88821428D01*
X37714285Y-88750000D01*
X37642857Y-88678571D01*
X37642857Y-88821428D01*
X38571428Y-90178571D02*
X38428571Y-90107142D01*
X38357142Y-90035714D01*
X38285714Y-89892857D01*
X38285714Y-89464285D01*
X38357142Y-89321428D01*
X38428571Y-89250000D01*
X38571428Y-89178571D01*
X38785714Y-89178571D01*
X38928571Y-89250000D01*
X39000000Y-89321428D01*
X39071428Y-89464285D01*
X39071428Y-89892857D01*
X39000000Y-90035714D01*
X38928571Y-90107142D01*
X38785714Y-90178571D01*
X38571428Y-90178571D01*
X39714285Y-89178571D02*
X39714285Y-90178571D01*
X39714285Y-89321428D02*
X39785714Y-89250000D01*
X39928571Y-89178571D01*
X40142857Y-89178571D01*
X40285714Y-89250000D01*
X40357142Y-89392857D01*
X40357142Y-90178571D01*
X4964285Y-37678571D02*
X4964285Y-36178571D01*
X5464285Y-37250000D01*
X5964285Y-36178571D01*
X5964285Y-37678571D01*
X6678571Y-37678571D02*
X6678571Y-36178571D01*
X7178571Y-37250000D01*
X7678571Y-36178571D01*
X7678571Y-37678571D01*
X9178571Y-37678571D02*
X8321428Y-37678571D01*
X8750000Y-37678571D02*
X8750000Y-36178571D01*
X8607142Y-36392857D01*
X8464285Y-36535714D01*
X8321428Y-36607142D01*
X10892857Y-37607142D02*
X11035714Y-37678571D01*
X11321428Y-37678571D01*
X11464285Y-37607142D01*
X11535714Y-37464285D01*
X11535714Y-37392857D01*
X11464285Y-37250000D01*
X11321428Y-37178571D01*
X11107142Y-37178571D01*
X10964285Y-37107142D01*
X10892857Y-36964285D01*
X10892857Y-36892857D01*
X10964285Y-36750000D01*
X11107142Y-36678571D01*
X11321428Y-36678571D01*
X11464285Y-36750000D01*
X12392857Y-37678571D02*
X12250000Y-37607142D01*
X12178571Y-37464285D01*
X12178571Y-36178571D01*
X13178571Y-37678571D02*
X13035714Y-37607142D01*
X12964285Y-37535714D01*
X12892857Y-37392857D01*
X12892857Y-36964285D01*
X12964285Y-36821428D01*
X13035714Y-36750000D01*
X13178571Y-36678571D01*
X13392857Y-36678571D01*
X13535714Y-36750000D01*
X13607142Y-36821428D01*
X13678571Y-36964285D01*
X13678571Y-37392857D01*
X13607142Y-37535714D01*
X13535714Y-37607142D01*
X13392857Y-37678571D01*
X13178571Y-37678571D01*
X14107142Y-36678571D02*
X14678571Y-36678571D01*
X14321428Y-36178571D02*
X14321428Y-37464285D01*
X14392857Y-37607142D01*
X14535714Y-37678571D01*
X14678571Y-37678571D01*
X17107142Y-37678571D02*
X16250000Y-37678571D01*
X16678571Y-37678571D02*
X16678571Y-36178571D01*
X16535714Y-36392857D01*
X16392857Y-36535714D01*
X16250000Y-36607142D01*
X4964285Y-74678571D02*
X4964285Y-73178571D01*
X5464285Y-74250000D01*
X5964285Y-73178571D01*
X5964285Y-74678571D01*
X6678571Y-74678571D02*
X6678571Y-73178571D01*
X7178571Y-74250000D01*
X7678571Y-73178571D01*
X7678571Y-74678571D01*
X9178571Y-74678571D02*
X8321428Y-74678571D01*
X8750000Y-74678571D02*
X8750000Y-73178571D01*
X8607142Y-73392857D01*
X8464285Y-73535714D01*
X8321428Y-73607142D01*
X10892857Y-74607142D02*
X11035714Y-74678571D01*
X11321428Y-74678571D01*
X11464285Y-74607142D01*
X11535714Y-74464285D01*
X11535714Y-74392857D01*
X11464285Y-74250000D01*
X11321428Y-74178571D01*
X11107142Y-74178571D01*
X10964285Y-74107142D01*
X10892857Y-73964285D01*
X10892857Y-73892857D01*
X10964285Y-73750000D01*
X11107142Y-73678571D01*
X11321428Y-73678571D01*
X11464285Y-73750000D01*
X12392857Y-74678571D02*
X12250000Y-74607142D01*
X12178571Y-74464285D01*
X12178571Y-73178571D01*
X13178571Y-74678571D02*
X13035714Y-74607142D01*
X12964285Y-74535714D01*
X12892857Y-74392857D01*
X12892857Y-73964285D01*
X12964285Y-73821428D01*
X13035714Y-73750000D01*
X13178571Y-73678571D01*
X13392857Y-73678571D01*
X13535714Y-73750000D01*
X13607142Y-73821428D01*
X13678571Y-73964285D01*
X13678571Y-74392857D01*
X13607142Y-74535714D01*
X13535714Y-74607142D01*
X13392857Y-74678571D01*
X13178571Y-74678571D01*
X14107142Y-73678571D02*
X14678571Y-73678571D01*
X14321428Y-73178571D02*
X14321428Y-74464285D01*
X14392857Y-74607142D01*
X14535714Y-74678571D01*
X14678571Y-74678571D01*
X16250000Y-73321428D02*
X16321428Y-73250000D01*
X16464285Y-73178571D01*
X16821428Y-73178571D01*
X16964285Y-73250000D01*
X17035714Y-73321428D01*
X17107142Y-73464285D01*
X17107142Y-73607142D01*
X17035714Y-73821428D01*
X16178571Y-74678571D01*
X17107142Y-74678571D01*
X123892857Y-52678571D02*
X123892857Y-51178571D01*
X124464285Y-51178571D01*
X124607142Y-51250000D01*
X124678571Y-51321428D01*
X124750000Y-51464285D01*
X124750000Y-51678571D01*
X124678571Y-51821428D01*
X124607142Y-51892857D01*
X124464285Y-51964285D01*
X123892857Y-51964285D01*
X125250000Y-51178571D02*
X126178571Y-51178571D01*
X125678571Y-51750000D01*
X125892857Y-51750000D01*
X126035714Y-51821428D01*
X126107142Y-51892857D01*
X126178571Y-52035714D01*
X126178571Y-52392857D01*
X126107142Y-52535714D01*
X126035714Y-52607142D01*
X125892857Y-52678571D01*
X125464285Y-52678571D01*
X125321428Y-52607142D01*
X125250000Y-52535714D01*
X143892857Y-52678571D02*
X143892857Y-51178571D01*
X144464285Y-51178571D01*
X144607142Y-51250000D01*
X144678571Y-51321428D01*
X144750000Y-51464285D01*
X144750000Y-51678571D01*
X144678571Y-51821428D01*
X144607142Y-51892857D01*
X144464285Y-51964285D01*
X143892857Y-51964285D01*
X145321428Y-51321428D02*
X145392857Y-51250000D01*
X145535714Y-51178571D01*
X145892857Y-51178571D01*
X146035714Y-51250000D01*
X146107142Y-51321428D01*
X146178571Y-51464285D01*
X146178571Y-51607142D01*
X146107142Y-51821428D01*
X145250000Y-52678571D01*
X146178571Y-52678571D01*
X162892857Y-52678571D02*
X162892857Y-51178571D01*
X163464285Y-51178571D01*
X163607142Y-51250000D01*
X163678571Y-51321428D01*
X163750000Y-51464285D01*
X163750000Y-51678571D01*
X163678571Y-51821428D01*
X163607142Y-51892857D01*
X163464285Y-51964285D01*
X162892857Y-51964285D01*
X165178571Y-52678571D02*
X164321428Y-52678571D01*
X164750000Y-52678571D02*
X164750000Y-51178571D01*
X164607142Y-51392857D01*
X164464285Y-51535714D01*
X164321428Y-51607142D01*
X183392857Y-52678571D02*
X183392857Y-51178571D01*
X183964285Y-51178571D01*
X184107142Y-51250000D01*
X184178571Y-51321428D01*
X184250000Y-51464285D01*
X184250000Y-51678571D01*
X184178571Y-51821428D01*
X184107142Y-51892857D01*
X183964285Y-51964285D01*
X183392857Y-51964285D01*
X185178571Y-51178571D02*
X185321428Y-51178571D01*
X185464285Y-51250000D01*
X185535714Y-51321428D01*
X185607142Y-51464285D01*
X185678571Y-51750000D01*
X185678571Y-52107142D01*
X185607142Y-52392857D01*
X185535714Y-52535714D01*
X185464285Y-52607142D01*
X185321428Y-52678571D01*
X185178571Y-52678571D01*
X185035714Y-52607142D01*
X184964285Y-52535714D01*
X184892857Y-52392857D01*
X184821428Y-52107142D01*
X184821428Y-51750000D01*
X184892857Y-51464285D01*
X184964285Y-51321428D01*
X185035714Y-51250000D01*
X185178571Y-51178571D01*
D14*
X87571428Y-104750000D02*
X87285714Y-104607142D01*
X86857142Y-104607142D01*
X86428571Y-104750000D01*
X86142857Y-105035714D01*
X86000000Y-105321428D01*
X85857142Y-105892857D01*
X85857142Y-106321428D01*
X86000000Y-106892857D01*
X86142857Y-107178571D01*
X86428571Y-107464285D01*
X86857142Y-107607142D01*
X87142857Y-107607142D01*
X87571428Y-107464285D01*
X87714285Y-107321428D01*
X87714285Y-106321428D01*
X87142857Y-106321428D01*
X90714285Y-107321428D02*
X90571428Y-107464285D01*
X90142857Y-107607142D01*
X89857142Y-107607142D01*
X89428571Y-107464285D01*
X89142857Y-107178571D01*
X89000000Y-106892857D01*
X88857142Y-106321428D01*
X88857142Y-105892857D01*
X89000000Y-105321428D01*
X89142857Y-105035714D01*
X89428571Y-104750000D01*
X89857142Y-104607142D01*
X90142857Y-104607142D01*
X90571428Y-104750000D01*
X90714285Y-104892857D01*
X92000000Y-107607142D02*
X92000000Y-104607142D01*
X93000000Y-106750000D01*
X94000000Y-104607142D01*
X94000000Y-107607142D01*
X97714285Y-106464285D02*
X100000000Y-106464285D01*
X103285714Y-104607142D02*
X104285714Y-107607142D01*
X105285714Y-104607142D01*
X107714285Y-104607142D02*
X106285714Y-104607142D01*
X106142857Y-106035714D01*
X106285714Y-105892857D01*
X106571428Y-105750000D01*
X107285714Y-105750000D01*
X107571428Y-105892857D01*
X107714285Y-106035714D01*
X107857142Y-106321428D01*
X107857142Y-107035714D01*
X107714285Y-107321428D01*
X107571428Y-107464285D01*
X107285714Y-107607142D01*
X106571428Y-107607142D01*
X106285714Y-107464285D01*
X106142857Y-107321428D01*
X109142857Y-107321428D02*
X109285714Y-107464285D01*
X109142857Y-107607142D01*
X109000000Y-107464285D01*
X109142857Y-107321428D01*
X109142857Y-107607142D01*
X111142857Y-104607142D02*
X111428571Y-104607142D01*
X111714285Y-104750000D01*
X111857142Y-104892857D01*
X112000000Y-105178571D01*
X112142857Y-105750000D01*
X112142857Y-106464285D01*
X112000000Y-107035714D01*
X111857142Y-107321428D01*
X111714285Y-107464285D01*
X111428571Y-107607142D01*
X111142857Y-107607142D01*
X110857142Y-107464285D01*
X110714285Y-107321428D01*
X110571428Y-107035714D01*
X110428571Y-106464285D01*
X110428571Y-105750000D01*
X110571428Y-105178571D01*
X110714285Y-104892857D01*
X110857142Y-104750000D01*
X111142857Y-104607142D01*
X10071428Y-109357142D02*
X11785714Y-109357142D01*
X10928571Y-112357142D02*
X10928571Y-109357142D01*
X13357142Y-109357142D02*
X13928571Y-109357142D01*
X14214285Y-109500000D01*
X14500000Y-109785714D01*
X14642857Y-110357142D01*
X14642857Y-111357142D01*
X14500000Y-111928571D01*
X14214285Y-112214285D01*
X13928571Y-112357142D01*
X13357142Y-112357142D01*
X13071428Y-112214285D01*
X12785714Y-111928571D01*
X12642857Y-111357142D01*
X12642857Y-110357142D01*
X12785714Y-109785714D01*
X13071428Y-109500000D01*
X13357142Y-109357142D01*
X15928571Y-112357142D02*
X15928571Y-109357142D01*
X17071428Y-109357142D01*
X17357142Y-109500000D01*
X17500000Y-109642857D01*
X17642857Y-109928571D01*
X17642857Y-110357142D01*
X17500000Y-110642857D01*
X17357142Y-110785714D01*
X17071428Y-110928571D01*
X15928571Y-110928571D01*
D11*
X19780000Y-50000D02*
X19780000Y-5420000D01*
X19780000Y-50000D02*
X22330000Y-50000D01*
X111220000Y-50000D02*
X113770000Y-50000D01*
X113770000Y-50000D02*
X113770000Y-5420000D01*
X22320000Y-50000D02*
X27400000Y-50000D01*
X106140000Y-50000D02*
X111220000Y-50000D01*
X27400000Y-50000D02*
X106140000Y-50000D01*
X46500000Y-86000000D02*
X7500000Y-86000000D01*
X48500000Y-76000000D02*
X46500000Y-76000000D01*
X48500000Y-86000000D02*
X48500000Y-76000000D01*
X46500000Y-86000000D02*
X48500000Y-86000000D01*
X4500000Y-76000000D02*
X6500000Y-76000000D01*
X4500000Y-82500000D02*
X4500000Y-76000000D01*
X6500000Y-76000000D02*
X9500000Y-76000000D01*
X9500000Y-76000000D02*
X46500000Y-76000000D01*
X46500000Y-49000000D02*
X7500000Y-49000000D01*
X48500000Y-39000000D02*
X46500000Y-39000000D01*
X48500000Y-49000000D02*
X48500000Y-39000000D01*
X46500000Y-49000000D02*
X48500000Y-49000000D01*
X4500000Y-39000000D02*
X6500000Y-39000000D01*
X4500000Y-45500000D02*
X4500000Y-39000000D01*
X6500000Y-39000000D02*
X9500000Y-39000000D01*
X9500000Y-39000000D02*
X46500000Y-39000000D01*
D15*
X90238748Y-58735000D02*
X90761252Y-58735000D01*
X90238748Y-57265000D02*
X90761252Y-57265000D01*
X103608748Y-54380000D02*
X105031252Y-54380000D01*
X103608748Y-52560000D02*
X105031252Y-52560000D01*
X54238748Y-20235000D02*
X54761252Y-20235000D01*
X54238748Y-18765000D02*
X54761252Y-18765000D01*
X29261252Y-12765000D02*
X28738748Y-12765000D01*
X29261252Y-14235000D02*
X28738748Y-14235000D01*
X70761252Y-20265000D02*
X70238748Y-20265000D01*
X70761252Y-21735000D02*
X70238748Y-21735000D01*
X47261252Y-58265000D02*
X46738748Y-58265000D01*
X47261252Y-59735000D02*
X46738748Y-59735000D01*
X73765000Y-65738748D02*
X73765000Y-66261252D01*
X75235000Y-65738748D02*
X75235000Y-66261252D01*
X198150000Y-27630000D02*
X198150000Y-25500000D01*
X196000000Y-27630000D02*
X198150000Y-27630000D01*
X200710000Y-19040000D02*
X200710000Y-21750000D01*
X197850000Y-19040000D02*
X200710000Y-19040000D01*
X197850000Y-16170000D02*
X197850000Y-19040000D01*
X191650000Y-16170000D02*
X197850000Y-16170000D01*
X191650000Y-21750000D02*
X191650000Y-16170000D01*
X200710000Y-24460000D02*
X200710000Y-21750000D01*
X197850000Y-24460000D02*
X200710000Y-24460000D01*
X197850000Y-27330000D02*
X197850000Y-24460000D01*
X191650000Y-27330000D02*
X197850000Y-27330000D01*
X191650000Y-21750000D02*
X191650000Y-27330000D01*
X79330000Y-107500000D02*
X79330000Y-108830000D01*
X79330000Y-108830000D02*
X78000000Y-108830000D01*
X76730000Y-108830000D02*
X63970000Y-108830000D01*
X63970000Y-106170000D02*
X63970000Y-108830000D01*
X76730000Y-106170000D02*
X63970000Y-106170000D01*
X76730000Y-106170000D02*
X76730000Y-108830000D01*
X121500000Y-5170000D02*
X122830000Y-5170000D01*
X122830000Y-5170000D02*
X122830000Y-6500000D01*
X122830000Y-7770000D02*
X122830000Y-10370000D01*
X120170000Y-10370000D02*
X122830000Y-10370000D01*
X120170000Y-7770000D02*
X120170000Y-10370000D01*
X120170000Y-7770000D02*
X122830000Y-7770000D01*
X129670000Y-6500000D02*
X129670000Y-5170000D01*
X129670000Y-5170000D02*
X131000000Y-5170000D01*
X129670000Y-7770000D02*
X132270000Y-7770000D01*
X132270000Y-7770000D02*
X132270000Y-5170000D01*
X132270000Y-5170000D02*
X183130000Y-5170000D01*
X183130000Y-10370000D02*
X183130000Y-5170000D01*
X129670000Y-10370000D02*
X183130000Y-10370000D01*
X129670000Y-10370000D02*
X129670000Y-7770000D01*
X108265000Y-57272936D02*
X108265000Y-57727064D01*
X109735000Y-57272936D02*
X109735000Y-57727064D01*
X108265000Y-62272936D02*
X108265000Y-62727064D01*
X109735000Y-62272936D02*
X109735000Y-62727064D01*
X98765000Y-61272936D02*
X98765000Y-61727064D01*
X100235000Y-61272936D02*
X100235000Y-61727064D01*
X53230000Y-97400000D02*
X53230000Y-94600000D01*
X32740000Y-97400000D02*
X55940000Y-97400000D01*
X32740000Y-94600000D02*
X32740000Y-97400000D01*
X55940000Y-94600000D02*
X32740000Y-94600000D01*
X55940000Y-97400000D02*
X55940000Y-94600000D01*
X195600000Y-68230000D02*
X198400000Y-68230000D01*
X195600000Y-47740000D02*
X195600000Y-70940000D01*
X198400000Y-47740000D02*
X195600000Y-47740000D01*
X198400000Y-70940000D02*
X198400000Y-47740000D01*
X195600000Y-70940000D02*
X198400000Y-70940000D01*
X195600000Y-95230000D02*
X198400000Y-95230000D01*
X195600000Y-74740000D02*
X195600000Y-97940000D01*
X198400000Y-74740000D02*
X195600000Y-74740000D01*
X198400000Y-97940000D02*
X198400000Y-74740000D01*
X195600000Y-97940000D02*
X198400000Y-97940000D01*
X47140000Y-21725000D02*
X45325000Y-21725000D01*
X47140000Y-21490000D02*
X47140000Y-21725000D01*
X51000000Y-21490000D02*
X47140000Y-21490000D01*
X54860000Y-21490000D02*
X54860000Y-21725000D01*
X51000000Y-21490000D02*
X54860000Y-21490000D01*
X47140000Y-34510000D02*
X47140000Y-34275000D01*
X51000000Y-34510000D02*
X47140000Y-34510000D01*
X54860000Y-34510000D02*
X54860000Y-34275000D01*
X51000000Y-34510000D02*
X54860000Y-34510000D01*
X111560000Y-76000000D02*
X111560000Y-74200000D01*
X111560000Y-76000000D02*
X111560000Y-76800000D01*
X108440000Y-76000000D02*
X108440000Y-75200000D01*
X108440000Y-76000000D02*
X108440000Y-76800000D01*
X73160000Y-61000000D02*
X73160000Y-56550000D01*
X73160000Y-61000000D02*
X73160000Y-64050000D01*
X58840000Y-61000000D02*
X58840000Y-57950000D01*
X58840000Y-61000000D02*
X58840000Y-64050000D01*
X70761252Y-33765000D02*
X70238748Y-33765000D01*
X70761252Y-35235000D02*
X70238748Y-35235000D01*
X83261252Y-19265000D02*
X82738748Y-19265000D01*
X83261252Y-20735000D02*
X82738748Y-20735000D01*
X83261252Y-33765000D02*
X82738748Y-33765000D01*
X83261252Y-35235000D02*
X82738748Y-35235000D01*
X95261252Y-26265000D02*
X94738748Y-26265000D01*
X95261252Y-27735000D02*
X94738748Y-27735000D01*
X130238748Y-23235000D02*
X130761252Y-23235000D01*
X130238748Y-21765000D02*
X130761252Y-21765000D01*
X146261252Y-17765000D02*
X145738748Y-17765000D01*
X146261252Y-19235000D02*
X145738748Y-19235000D01*
X146261252Y-33265000D02*
X145738748Y-33265000D01*
X146261252Y-34735000D02*
X145738748Y-34735000D01*
X159261252Y-16765000D02*
X158738748Y-16765000D01*
X159261252Y-18235000D02*
X158738748Y-18235000D01*
X159261252Y-33265000D02*
X158738748Y-33265000D01*
X159261252Y-34735000D02*
X158738748Y-34735000D01*
X170261252Y-25265000D02*
X169738748Y-25265000D01*
X170261252Y-26735000D02*
X169738748Y-26735000D01*
X111738748Y-95735000D02*
X112261252Y-95735000D01*
X111738748Y-94265000D02*
X112261252Y-94265000D01*
X67738748Y-78235000D02*
X68261252Y-78235000D01*
X67738748Y-76765000D02*
X68261252Y-76765000D01*
X80738748Y-78235000D02*
X81261252Y-78235000D01*
X80738748Y-76765000D02*
X81261252Y-76765000D01*
X93738748Y-78235000D02*
X94261252Y-78235000D01*
X93738748Y-76765000D02*
X94261252Y-76765000D01*
D12*
X179901000Y-113699000D02*
X187000000Y-113699000D01*
X179901000Y-56041000D02*
X179901000Y-113699000D01*
X189375000Y-56041000D02*
X179901000Y-56041000D01*
X189375000Y-109000000D02*
X189375000Y-56041000D01*
X139901000Y-113699000D02*
X147000000Y-113699000D01*
X139901000Y-56041000D02*
X139901000Y-113699000D01*
X149375000Y-56041000D02*
X139901000Y-56041000D01*
X149375000Y-109000000D02*
X149375000Y-56041000D01*
X159901000Y-113699000D02*
X167000000Y-113699000D01*
X159901000Y-56041000D02*
X159901000Y-113699000D01*
X169375000Y-56041000D02*
X159901000Y-56041000D01*
X169375000Y-109000000D02*
X169375000Y-56041000D01*
X119901000Y-113699000D02*
X127000000Y-113699000D01*
X119901000Y-56041000D02*
X119901000Y-113699000D01*
X129375000Y-56041000D02*
X119901000Y-56041000D01*
X129375000Y-109000000D02*
X129375000Y-56041000D01*
D15*
X89740000Y-53420000D02*
X91200000Y-53420000D01*
X89740000Y-56580000D02*
X91900000Y-56580000D01*
X89740000Y-56580000D02*
X89740000Y-55650000D01*
X89740000Y-53420000D02*
X89740000Y-54350000D01*
X103000000Y-56440000D02*
X101200000Y-56440000D01*
X103000000Y-56440000D02*
X103800000Y-56440000D01*
X103000000Y-59560000D02*
X102200000Y-59560000D01*
X103000000Y-59560000D02*
X103800000Y-59560000D01*
X45000000Y-60500000D02*
X41000000Y-60500000D01*
X45000000Y-63500000D02*
X42000000Y-63500000D01*
X96000000Y-46440000D02*
X94200000Y-46440000D01*
X96000000Y-46440000D02*
X96800000Y-46440000D01*
X96000000Y-49560000D02*
X95200000Y-49560000D01*
X96000000Y-49560000D02*
X96800000Y-49560000D01*
X67000000Y-22565000D02*
X63550000Y-22565000D01*
X67000000Y-22565000D02*
X68950000Y-22565000D01*
X67000000Y-31435000D02*
X65050000Y-31435000D01*
X67000000Y-31435000D02*
X68950000Y-31435000D01*
X67000000Y-36065000D02*
X63550000Y-36065000D01*
X67000000Y-36065000D02*
X68950000Y-36065000D01*
X67000000Y-44935000D02*
X65050000Y-44935000D01*
X67000000Y-44935000D02*
X68950000Y-44935000D01*
X79500000Y-31560000D02*
X81450000Y-31560000D01*
X79500000Y-31560000D02*
X77550000Y-31560000D01*
X79500000Y-21440000D02*
X81450000Y-21440000D01*
X79500000Y-21440000D02*
X76000000Y-21440000D01*
X79500000Y-46060000D02*
X81450000Y-46060000D01*
X79500000Y-46060000D02*
X77550000Y-46060000D01*
X79500000Y-35940000D02*
X81450000Y-35940000D01*
X79500000Y-35940000D02*
X76000000Y-35940000D01*
X105500000Y-46440000D02*
X103700000Y-46440000D01*
X105500000Y-46440000D02*
X106300000Y-46440000D01*
X105500000Y-49560000D02*
X104700000Y-49560000D01*
X105500000Y-49560000D02*
X106300000Y-49560000D01*
X91500000Y-38560000D02*
X93450000Y-38560000D01*
X91500000Y-38560000D02*
X89550000Y-38560000D01*
X91500000Y-28440000D02*
X93450000Y-28440000D01*
X91500000Y-28440000D02*
X88000000Y-28440000D01*
X123140000Y-24225000D02*
X121325000Y-24225000D01*
X123140000Y-23990000D02*
X123140000Y-24225000D01*
X127000000Y-23990000D02*
X123140000Y-23990000D01*
X130860000Y-23990000D02*
X130860000Y-24225000D01*
X127000000Y-23990000D02*
X130860000Y-23990000D01*
X123140000Y-37010000D02*
X123140000Y-36775000D01*
X127000000Y-37010000D02*
X123140000Y-37010000D01*
X130860000Y-37010000D02*
X130860000Y-36775000D01*
X127000000Y-37010000D02*
X130860000Y-37010000D01*
X142500000Y-20065000D02*
X139050000Y-20065000D01*
X142500000Y-20065000D02*
X144450000Y-20065000D01*
X142500000Y-28935000D02*
X140550000Y-28935000D01*
X142500000Y-28935000D02*
X144450000Y-28935000D01*
X142500000Y-35565000D02*
X139050000Y-35565000D01*
X142500000Y-35565000D02*
X144450000Y-35565000D01*
X142500000Y-44435000D02*
X140550000Y-44435000D01*
X142500000Y-44435000D02*
X144450000Y-44435000D01*
X155500000Y-29060000D02*
X157450000Y-29060000D01*
X155500000Y-29060000D02*
X153550000Y-29060000D01*
X155500000Y-18940000D02*
X157450000Y-18940000D01*
X155500000Y-18940000D02*
X152000000Y-18940000D01*
X155500000Y-45560000D02*
X157450000Y-45560000D01*
X155500000Y-45560000D02*
X153550000Y-45560000D01*
X155500000Y-35440000D02*
X157450000Y-35440000D01*
X155500000Y-35440000D02*
X152000000Y-35440000D01*
X166500000Y-37560000D02*
X168450000Y-37560000D01*
X166500000Y-37560000D02*
X164550000Y-37560000D01*
X166500000Y-27440000D02*
X168450000Y-27440000D01*
X166500000Y-27440000D02*
X163000000Y-27440000D01*
X108385000Y-92000000D02*
X108385000Y-90200000D01*
X108385000Y-92000000D02*
X108385000Y-92800000D01*
X105265000Y-92000000D02*
X105265000Y-91200000D01*
X105265000Y-92000000D02*
X105265000Y-92800000D01*
X108385000Y-97785000D02*
X108385000Y-95985000D01*
X108385000Y-97785000D02*
X108385000Y-98585000D01*
X105265000Y-97785000D02*
X105265000Y-96985000D01*
X105265000Y-97785000D02*
X105265000Y-98585000D01*
X60855000Y-79520000D02*
X59040000Y-79520000D01*
X60855000Y-79285000D02*
X60855000Y-79520000D01*
X64715000Y-79285000D02*
X60855000Y-79285000D01*
X68575000Y-79285000D02*
X68575000Y-79520000D01*
X64715000Y-79285000D02*
X68575000Y-79285000D01*
X60855000Y-92305000D02*
X60855000Y-92070000D01*
X64715000Y-92305000D02*
X60855000Y-92305000D01*
X68575000Y-92305000D02*
X68575000Y-92070000D01*
X64715000Y-92305000D02*
X68575000Y-92305000D01*
X73765000Y-79520000D02*
X71950000Y-79520000D01*
X73765000Y-79285000D02*
X73765000Y-79520000D01*
X77625000Y-79285000D02*
X73765000Y-79285000D01*
X81485000Y-79285000D02*
X81485000Y-79520000D01*
X77625000Y-79285000D02*
X81485000Y-79285000D01*
X73765000Y-92305000D02*
X73765000Y-92070000D01*
X77625000Y-92305000D02*
X73765000Y-92305000D01*
X81485000Y-92305000D02*
X81485000Y-92070000D01*
X77625000Y-92305000D02*
X81485000Y-92305000D01*
X86675000Y-79520000D02*
X84860000Y-79520000D01*
X86675000Y-79285000D02*
X86675000Y-79520000D01*
X90535000Y-79285000D02*
X86675000Y-79285000D01*
X94395000Y-79285000D02*
X94395000Y-79520000D01*
X90535000Y-79285000D02*
X94395000Y-79285000D01*
X86675000Y-92305000D02*
X86675000Y-92070000D01*
X90535000Y-92305000D02*
X86675000Y-92305000D01*
X94395000Y-92305000D02*
X94395000Y-92070000D01*
X90535000Y-92305000D02*
X94395000Y-92305000D01*
X100360000Y-39640000D02*
X112510000Y-39640000D01*
X113260000Y-38890000D02*
X113260000Y-27490000D01*
X112510000Y-26740000D02*
X101110000Y-26740000D01*
X100360000Y-27490000D02*
X100360000Y-39640000D01*
X101110000Y-26740000D02*
G75*
G03*
X100360000Y-27490000I0J-750000D01*
G01*
X113260000Y-27490000D02*
G75*
G03*
X112510000Y-26740000I-750000J0D01*
G01*
X112510000Y-39640000D02*
G75*
G03*
X113260000Y-38890000I0J750000D01*
G01*
X12500000Y-64680000D02*
X12000000Y-63680000D01*
X11500000Y-64680000D02*
X12500000Y-64680000D01*
X12000000Y-63680000D02*
X11500000Y-64680000D01*
X19130000Y-61980000D02*
X19130000Y-63290000D01*
X19130000Y-61980000D02*
X19130000Y-61980000D01*
X26070000Y-61980000D02*
X19130000Y-61980000D01*
X26070000Y-55480000D02*
X26070000Y-61980000D01*
X8090000Y-55480000D02*
X26070000Y-55480000D01*
X8090000Y-61980000D02*
X8090000Y-55480000D01*
X15030000Y-61980000D02*
X8090000Y-61980000D01*
X15030000Y-63290000D02*
X15030000Y-61980000D01*
X27370000Y-63290000D02*
X6790000Y-63290000D01*
X27370000Y-54170000D02*
X27370000Y-63290000D01*
X6790000Y-54170000D02*
X27370000Y-54170000D01*
X6790000Y-63290000D02*
X6790000Y-54170000D01*
X12500000Y-101680000D02*
X12000000Y-100680000D01*
X11500000Y-101680000D02*
X12500000Y-101680000D01*
X12000000Y-100680000D02*
X11500000Y-101680000D01*
X19130000Y-98980000D02*
X19130000Y-100290000D01*
X19130000Y-98980000D02*
X19130000Y-98980000D01*
X26070000Y-98980000D02*
X19130000Y-98980000D01*
X26070000Y-92480000D02*
X26070000Y-98980000D01*
X8090000Y-92480000D02*
X26070000Y-92480000D01*
X8090000Y-98980000D02*
X8090000Y-92480000D01*
X15030000Y-98980000D02*
X8090000Y-98980000D01*
X15030000Y-100290000D02*
X15030000Y-98980000D01*
X27370000Y-100290000D02*
X6790000Y-100290000D01*
X27370000Y-91170000D02*
X27370000Y-100290000D01*
X6790000Y-91170000D02*
X27370000Y-91170000D01*
X6790000Y-100290000D02*
X6790000Y-91170000D01*
D11*
X111666666Y-9952380D02*
X111666666Y-10666666D01*
X111619047Y-10809523D01*
X111523809Y-10904761D01*
X111380952Y-10952380D01*
X111285714Y-10952380D01*
X112571428Y-9952380D02*
X112380952Y-9952380D01*
X112285714Y-10000000D01*
X112238095Y-10047619D01*
X112142857Y-10190476D01*
X112095238Y-10380952D01*
X112095238Y-10761904D01*
X112142857Y-10857142D01*
X112190476Y-10904761D01*
X112285714Y-10952380D01*
X112476190Y-10952380D01*
X112571428Y-10904761D01*
X112619047Y-10857142D01*
X112666666Y-10761904D01*
X112666666Y-10523809D01*
X112619047Y-10428571D01*
X112571428Y-10380952D01*
X112476190Y-10333333D01*
X112285714Y-10333333D01*
X112190476Y-10380952D01*
X112142857Y-10428571D01*
X112095238Y-10523809D01*
X45670476Y-73242380D02*
X45670476Y-73956666D01*
X45622857Y-74099523D01*
X45527619Y-74194761D01*
X45384761Y-74242380D01*
X45289523Y-74242380D01*
X46670476Y-74242380D02*
X46099047Y-74242380D01*
X46384761Y-74242380D02*
X46384761Y-73242380D01*
X46289523Y-73385238D01*
X46194285Y-73480476D01*
X46099047Y-73528095D01*
X47622857Y-74242380D02*
X47051428Y-74242380D01*
X47337142Y-74242380D02*
X47337142Y-73242380D01*
X47241904Y-73385238D01*
X47146666Y-73480476D01*
X47051428Y-73528095D01*
X46146666Y-36242380D02*
X46146666Y-36956666D01*
X46099047Y-37099523D01*
X46003809Y-37194761D01*
X45860952Y-37242380D01*
X45765714Y-37242380D01*
X46765714Y-36670952D02*
X46670476Y-36623333D01*
X46622857Y-36575714D01*
X46575238Y-36480476D01*
X46575238Y-36432857D01*
X46622857Y-36337619D01*
X46670476Y-36290000D01*
X46765714Y-36242380D01*
X46956190Y-36242380D01*
X47051428Y-36290000D01*
X47099047Y-36337619D01*
X47146666Y-36432857D01*
X47146666Y-36480476D01*
X47099047Y-36575714D01*
X47051428Y-36623333D01*
X46956190Y-36670952D01*
X46765714Y-36670952D01*
X46670476Y-36718571D01*
X46622857Y-36766190D01*
X46575238Y-36861428D01*
X46575238Y-37051904D01*
X46622857Y-37147142D01*
X46670476Y-37194761D01*
X46765714Y-37242380D01*
X46956190Y-37242380D01*
X47051428Y-37194761D01*
X47099047Y-37147142D01*
X47146666Y-37051904D01*
X47146666Y-36861428D01*
X47099047Y-36766190D01*
X47051428Y-36718571D01*
X46956190Y-36670952D01*
X90333333Y-60107142D02*
X90285714Y-60154761D01*
X90142857Y-60202380D01*
X90047619Y-60202380D01*
X89904761Y-60154761D01*
X89809523Y-60059523D01*
X89761904Y-59964285D01*
X89714285Y-59773809D01*
X89714285Y-59630952D01*
X89761904Y-59440476D01*
X89809523Y-59345238D01*
X89904761Y-59250000D01*
X90047619Y-59202380D01*
X90142857Y-59202380D01*
X90285714Y-59250000D01*
X90333333Y-59297619D01*
X91285714Y-60202380D02*
X90714285Y-60202380D01*
X91000000Y-60202380D02*
X91000000Y-59202380D01*
X90904761Y-59345238D01*
X90809523Y-59440476D01*
X90714285Y-59488095D01*
X104333333Y-51857142D02*
X104285714Y-51904761D01*
X104142857Y-51952380D01*
X104047619Y-51952380D01*
X103904761Y-51904761D01*
X103809523Y-51809523D01*
X103761904Y-51714285D01*
X103714285Y-51523809D01*
X103714285Y-51380952D01*
X103761904Y-51190476D01*
X103809523Y-51095238D01*
X103904761Y-51000000D01*
X104047619Y-50952380D01*
X104142857Y-50952380D01*
X104285714Y-51000000D01*
X104333333Y-51047619D01*
X105190476Y-51285714D02*
X105190476Y-51952380D01*
X104952380Y-50904761D02*
X104714285Y-51619047D01*
X105333333Y-51619047D01*
X54333333Y-18207142D02*
X54285714Y-18254761D01*
X54142857Y-18302380D01*
X54047619Y-18302380D01*
X53904761Y-18254761D01*
X53809523Y-18159523D01*
X53761904Y-18064285D01*
X53714285Y-17873809D01*
X53714285Y-17730952D01*
X53761904Y-17540476D01*
X53809523Y-17445238D01*
X53904761Y-17350000D01*
X54047619Y-17302380D01*
X54142857Y-17302380D01*
X54285714Y-17350000D01*
X54333333Y-17397619D01*
X55190476Y-17302380D02*
X55000000Y-17302380D01*
X54904761Y-17350000D01*
X54857142Y-17397619D01*
X54761904Y-17540476D01*
X54714285Y-17730952D01*
X54714285Y-18111904D01*
X54761904Y-18207142D01*
X54809523Y-18254761D01*
X54904761Y-18302380D01*
X55095238Y-18302380D01*
X55190476Y-18254761D01*
X55238095Y-18207142D01*
X55285714Y-18111904D01*
X55285714Y-17873809D01*
X55238095Y-17778571D01*
X55190476Y-17730952D01*
X55095238Y-17683333D01*
X54904761Y-17683333D01*
X54809523Y-17730952D01*
X54761904Y-17778571D01*
X54714285Y-17873809D01*
X28357142Y-15507142D02*
X28309523Y-15554761D01*
X28166666Y-15602380D01*
X28071428Y-15602380D01*
X27928571Y-15554761D01*
X27833333Y-15459523D01*
X27785714Y-15364285D01*
X27738095Y-15173809D01*
X27738095Y-15030952D01*
X27785714Y-14840476D01*
X27833333Y-14745238D01*
X27928571Y-14650000D01*
X28071428Y-14602380D01*
X28166666Y-14602380D01*
X28309523Y-14650000D01*
X28357142Y-14697619D01*
X29309523Y-15602380D02*
X28738095Y-15602380D01*
X29023809Y-15602380D02*
X29023809Y-14602380D01*
X28928571Y-14745238D01*
X28833333Y-14840476D01*
X28738095Y-14888095D01*
X29928571Y-14602380D02*
X30023809Y-14602380D01*
X30119047Y-14650000D01*
X30166666Y-14697619D01*
X30214285Y-14792857D01*
X30261904Y-14983333D01*
X30261904Y-15221428D01*
X30214285Y-15411904D01*
X30166666Y-15507142D01*
X30119047Y-15554761D01*
X30023809Y-15602380D01*
X29928571Y-15602380D01*
X29833333Y-15554761D01*
X29785714Y-15507142D01*
X29738095Y-15411904D01*
X29690476Y-15221428D01*
X29690476Y-14983333D01*
X29738095Y-14792857D01*
X29785714Y-14697619D01*
X29833333Y-14650000D01*
X29928571Y-14602380D01*
X69857142Y-19607142D02*
X69809523Y-19654761D01*
X69666666Y-19702380D01*
X69571428Y-19702380D01*
X69428571Y-19654761D01*
X69333333Y-19559523D01*
X69285714Y-19464285D01*
X69238095Y-19273809D01*
X69238095Y-19130952D01*
X69285714Y-18940476D01*
X69333333Y-18845238D01*
X69428571Y-18750000D01*
X69571428Y-18702380D01*
X69666666Y-18702380D01*
X69809523Y-18750000D01*
X69857142Y-18797619D01*
X70809523Y-19702380D02*
X70238095Y-19702380D01*
X70523809Y-19702380D02*
X70523809Y-18702380D01*
X70428571Y-18845238D01*
X70333333Y-18940476D01*
X70238095Y-18988095D01*
X71666666Y-18702380D02*
X71476190Y-18702380D01*
X71380952Y-18750000D01*
X71333333Y-18797619D01*
X71238095Y-18940476D01*
X71190476Y-19130952D01*
X71190476Y-19511904D01*
X71238095Y-19607142D01*
X71285714Y-19654761D01*
X71380952Y-19702380D01*
X71571428Y-19702380D01*
X71666666Y-19654761D01*
X71714285Y-19607142D01*
X71761904Y-19511904D01*
X71761904Y-19273809D01*
X71714285Y-19178571D01*
X71666666Y-19130952D01*
X71571428Y-19083333D01*
X71380952Y-19083333D01*
X71285714Y-19130952D01*
X71238095Y-19178571D01*
X71190476Y-19273809D01*
X46357142Y-57607142D02*
X46309523Y-57654761D01*
X46166666Y-57702380D01*
X46071428Y-57702380D01*
X45928571Y-57654761D01*
X45833333Y-57559523D01*
X45785714Y-57464285D01*
X45738095Y-57273809D01*
X45738095Y-57130952D01*
X45785714Y-56940476D01*
X45833333Y-56845238D01*
X45928571Y-56750000D01*
X46071428Y-56702380D01*
X46166666Y-56702380D01*
X46309523Y-56750000D01*
X46357142Y-56797619D01*
X46738095Y-56797619D02*
X46785714Y-56750000D01*
X46880952Y-56702380D01*
X47119047Y-56702380D01*
X47214285Y-56750000D01*
X47261904Y-56797619D01*
X47309523Y-56892857D01*
X47309523Y-56988095D01*
X47261904Y-57130952D01*
X46690476Y-57702380D01*
X47309523Y-57702380D01*
X47642857Y-56702380D02*
X48261904Y-56702380D01*
X47928571Y-57083333D01*
X48071428Y-57083333D01*
X48166666Y-57130952D01*
X48214285Y-57178571D01*
X48261904Y-57273809D01*
X48261904Y-57511904D01*
X48214285Y-57607142D01*
X48166666Y-57654761D01*
X48071428Y-57702380D01*
X47785714Y-57702380D01*
X47690476Y-57654761D01*
X47642857Y-57607142D01*
X76507142Y-66642857D02*
X76554761Y-66690476D01*
X76602380Y-66833333D01*
X76602380Y-66928571D01*
X76554761Y-67071428D01*
X76459523Y-67166666D01*
X76364285Y-67214285D01*
X76173809Y-67261904D01*
X76030952Y-67261904D01*
X75840476Y-67214285D01*
X75745238Y-67166666D01*
X75650000Y-67071428D01*
X75602380Y-66928571D01*
X75602380Y-66833333D01*
X75650000Y-66690476D01*
X75697619Y-66642857D01*
X75602380Y-66309523D02*
X75602380Y-65690476D01*
X75983333Y-66023809D01*
X75983333Y-65880952D01*
X76030952Y-65785714D01*
X76078571Y-65738095D01*
X76173809Y-65690476D01*
X76411904Y-65690476D01*
X76507142Y-65738095D01*
X76554761Y-65785714D01*
X76602380Y-65880952D01*
X76602380Y-66166666D01*
X76554761Y-66261904D01*
X76507142Y-66309523D01*
X75697619Y-65309523D02*
X75650000Y-65261904D01*
X75602380Y-65166666D01*
X75602380Y-64928571D01*
X75650000Y-64833333D01*
X75697619Y-64785714D01*
X75792857Y-64738095D01*
X75888095Y-64738095D01*
X76030952Y-64785714D01*
X76602380Y-65357142D01*
X76602380Y-64738095D01*
X199666666Y-25952380D02*
X199666666Y-26666666D01*
X199619047Y-26809523D01*
X199523809Y-26904761D01*
X199380952Y-26952380D01*
X199285714Y-26952380D01*
X200666666Y-26952380D02*
X200095238Y-26952380D01*
X200380952Y-26952380D02*
X200380952Y-25952380D01*
X200285714Y-26095238D01*
X200190476Y-26190476D01*
X200095238Y-26238095D01*
X80222380Y-107833333D02*
X80936666Y-107833333D01*
X81079523Y-107880952D01*
X81174761Y-107976190D01*
X81222380Y-108119047D01*
X81222380Y-108214285D01*
X80222380Y-107452380D02*
X80222380Y-106785714D01*
X81222380Y-107214285D01*
X121166666Y-3182380D02*
X121166666Y-3896666D01*
X121119047Y-4039523D01*
X121023809Y-4134761D01*
X120880952Y-4182380D01*
X120785714Y-4182380D01*
X121690476Y-4182380D02*
X121880952Y-4182380D01*
X121976190Y-4134761D01*
X122023809Y-4087142D01*
X122119047Y-3944285D01*
X122166666Y-3753809D01*
X122166666Y-3372857D01*
X122119047Y-3277619D01*
X122071428Y-3230000D01*
X121976190Y-3182380D01*
X121785714Y-3182380D01*
X121690476Y-3230000D01*
X121642857Y-3277619D01*
X121595238Y-3372857D01*
X121595238Y-3610952D01*
X121642857Y-3706190D01*
X121690476Y-3753809D01*
X121785714Y-3801428D01*
X121976190Y-3801428D01*
X122071428Y-3753809D01*
X122119047Y-3706190D01*
X122166666Y-3610952D01*
X127682380Y-8579523D02*
X128396666Y-8579523D01*
X128539523Y-8627142D01*
X128634761Y-8722380D01*
X128682380Y-8865238D01*
X128682380Y-8960476D01*
X128682380Y-7579523D02*
X128682380Y-8150952D01*
X128682380Y-7865238D02*
X127682380Y-7865238D01*
X127825238Y-7960476D01*
X127920476Y-8055714D01*
X127968095Y-8150952D01*
X127777619Y-7198571D02*
X127730000Y-7150952D01*
X127682380Y-7055714D01*
X127682380Y-6817619D01*
X127730000Y-6722380D01*
X127777619Y-6674761D01*
X127872857Y-6627142D01*
X127968095Y-6627142D01*
X128110952Y-6674761D01*
X128682380Y-7246190D01*
X128682380Y-6627142D01*
X111102380Y-57666666D02*
X110626190Y-58000000D01*
X111102380Y-58238095D02*
X110102380Y-58238095D01*
X110102380Y-57857142D01*
X110150000Y-57761904D01*
X110197619Y-57714285D01*
X110292857Y-57666666D01*
X110435714Y-57666666D01*
X110530952Y-57714285D01*
X110578571Y-57761904D01*
X110626190Y-57857142D01*
X110626190Y-58238095D01*
X111102380Y-56714285D02*
X111102380Y-57285714D01*
X111102380Y-57000000D02*
X110102380Y-57000000D01*
X110245238Y-57095238D01*
X110340476Y-57190476D01*
X110388095Y-57285714D01*
X111102380Y-62666666D02*
X110626190Y-63000000D01*
X111102380Y-63238095D02*
X110102380Y-63238095D01*
X110102380Y-62857142D01*
X110150000Y-62761904D01*
X110197619Y-62714285D01*
X110292857Y-62666666D01*
X110435714Y-62666666D01*
X110530952Y-62714285D01*
X110578571Y-62761904D01*
X110626190Y-62857142D01*
X110626190Y-63238095D01*
X110197619Y-62285714D02*
X110150000Y-62238095D01*
X110102380Y-62142857D01*
X110102380Y-61904761D01*
X110150000Y-61809523D01*
X110197619Y-61761904D01*
X110292857Y-61714285D01*
X110388095Y-61714285D01*
X110530952Y-61761904D01*
X111102380Y-62333333D01*
X111102380Y-61714285D01*
X101602380Y-61666666D02*
X101126190Y-62000000D01*
X101602380Y-62238095D02*
X100602380Y-62238095D01*
X100602380Y-61857142D01*
X100650000Y-61761904D01*
X100697619Y-61714285D01*
X100792857Y-61666666D01*
X100935714Y-61666666D01*
X101030952Y-61714285D01*
X101078571Y-61761904D01*
X101126190Y-61857142D01*
X101126190Y-62238095D01*
X100602380Y-61333333D02*
X100602380Y-60714285D01*
X100983333Y-61047619D01*
X100983333Y-60904761D01*
X101030952Y-60809523D01*
X101078571Y-60761904D01*
X101173809Y-60714285D01*
X101411904Y-60714285D01*
X101507142Y-60761904D01*
X101554761Y-60809523D01*
X101602380Y-60904761D01*
X101602380Y-61190476D01*
X101554761Y-61285714D01*
X101507142Y-61333333D01*
X42379523Y-98852380D02*
X42046190Y-98376190D01*
X41808095Y-98852380D02*
X41808095Y-97852380D01*
X42189047Y-97852380D01*
X42284285Y-97900000D01*
X42331904Y-97947619D01*
X42379523Y-98042857D01*
X42379523Y-98185714D01*
X42331904Y-98280952D01*
X42284285Y-98328571D01*
X42189047Y-98376190D01*
X41808095Y-98376190D01*
X42808095Y-98852380D02*
X42808095Y-97852380D01*
X43379523Y-98852380D01*
X43379523Y-97852380D01*
X44379523Y-98852380D02*
X43808095Y-98852380D01*
X44093809Y-98852380D02*
X44093809Y-97852380D01*
X43998571Y-97995238D01*
X43903333Y-98090476D01*
X43808095Y-98138095D01*
X195052380Y-58760476D02*
X194576190Y-59093809D01*
X195052380Y-59331904D02*
X194052380Y-59331904D01*
X194052380Y-58950952D01*
X194100000Y-58855714D01*
X194147619Y-58808095D01*
X194242857Y-58760476D01*
X194385714Y-58760476D01*
X194480952Y-58808095D01*
X194528571Y-58855714D01*
X194576190Y-58950952D01*
X194576190Y-59331904D01*
X195052380Y-58331904D02*
X194052380Y-58331904D01*
X195052380Y-57760476D01*
X194052380Y-57760476D01*
X194147619Y-57331904D02*
X194100000Y-57284285D01*
X194052380Y-57189047D01*
X194052380Y-56950952D01*
X194100000Y-56855714D01*
X194147619Y-56808095D01*
X194242857Y-56760476D01*
X194338095Y-56760476D01*
X194480952Y-56808095D01*
X195052380Y-57379523D01*
X195052380Y-56760476D01*
X195052380Y-85760476D02*
X194576190Y-86093809D01*
X195052380Y-86331904D02*
X194052380Y-86331904D01*
X194052380Y-85950952D01*
X194100000Y-85855714D01*
X194147619Y-85808095D01*
X194242857Y-85760476D01*
X194385714Y-85760476D01*
X194480952Y-85808095D01*
X194528571Y-85855714D01*
X194576190Y-85950952D01*
X194576190Y-86331904D01*
X195052380Y-85331904D02*
X194052380Y-85331904D01*
X195052380Y-84760476D01*
X194052380Y-84760476D01*
X194052380Y-84379523D02*
X194052380Y-83760476D01*
X194433333Y-84093809D01*
X194433333Y-83950952D01*
X194480952Y-83855714D01*
X194528571Y-83808095D01*
X194623809Y-83760476D01*
X194861904Y-83760476D01*
X194957142Y-83808095D01*
X195004761Y-83855714D01*
X195052380Y-83950952D01*
X195052380Y-84236666D01*
X195004761Y-84331904D01*
X194957142Y-84379523D01*
X50238095Y-20102380D02*
X50238095Y-20911904D01*
X50285714Y-21007142D01*
X50333333Y-21054761D01*
X50428571Y-21102380D01*
X50619047Y-21102380D01*
X50714285Y-21054761D01*
X50761904Y-21007142D01*
X50809523Y-20911904D01*
X50809523Y-20102380D01*
X51714285Y-20435714D02*
X51714285Y-21102380D01*
X51476190Y-20054761D02*
X51238095Y-20769047D01*
X51857142Y-20769047D01*
X112352380Y-77238095D02*
X113161904Y-77238095D01*
X113257142Y-77190476D01*
X113304761Y-77142857D01*
X113352380Y-77047619D01*
X113352380Y-76857142D01*
X113304761Y-76761904D01*
X113257142Y-76714285D01*
X113161904Y-76666666D01*
X112352380Y-76666666D01*
X113352380Y-75666666D02*
X113352380Y-76238095D01*
X113352380Y-75952380D02*
X112352380Y-75952380D01*
X112495238Y-76047619D01*
X112590476Y-76142857D01*
X112638095Y-76238095D01*
X112780952Y-75095238D02*
X112733333Y-75190476D01*
X112685714Y-75238095D01*
X112590476Y-75285714D01*
X112542857Y-75285714D01*
X112447619Y-75238095D01*
X112400000Y-75190476D01*
X112352380Y-75095238D01*
X112352380Y-74904761D01*
X112400000Y-74809523D01*
X112447619Y-74761904D01*
X112542857Y-74714285D01*
X112590476Y-74714285D01*
X112685714Y-74761904D01*
X112733333Y-74809523D01*
X112780952Y-74904761D01*
X112780952Y-75095238D01*
X112828571Y-75190476D01*
X112876190Y-75238095D01*
X112971428Y-75285714D01*
X113161904Y-75285714D01*
X113257142Y-75238095D01*
X113304761Y-75190476D01*
X113352380Y-75095238D01*
X113352380Y-74904761D01*
X113304761Y-74809523D01*
X113257142Y-74761904D01*
X113161904Y-74714285D01*
X112971428Y-74714285D01*
X112876190Y-74761904D01*
X112828571Y-74809523D01*
X112780952Y-74904761D01*
X73502380Y-62238095D02*
X74311904Y-62238095D01*
X74407142Y-62190476D01*
X74454761Y-62142857D01*
X74502380Y-62047619D01*
X74502380Y-61857142D01*
X74454761Y-61761904D01*
X74407142Y-61714285D01*
X74311904Y-61666666D01*
X73502380Y-61666666D01*
X73597619Y-61238095D02*
X73550000Y-61190476D01*
X73502380Y-61095238D01*
X73502380Y-60857142D01*
X73550000Y-60761904D01*
X73597619Y-60714285D01*
X73692857Y-60666666D01*
X73788095Y-60666666D01*
X73930952Y-60714285D01*
X74502380Y-61285714D01*
X74502380Y-60666666D01*
X73835714Y-59809523D02*
X74502380Y-59809523D01*
X73454761Y-60047619D02*
X74169047Y-60285714D01*
X74169047Y-59666666D01*
X69857142Y-33107142D02*
X69809523Y-33154761D01*
X69666666Y-33202380D01*
X69571428Y-33202380D01*
X69428571Y-33154761D01*
X69333333Y-33059523D01*
X69285714Y-32964285D01*
X69238095Y-32773809D01*
X69238095Y-32630952D01*
X69285714Y-32440476D01*
X69333333Y-32345238D01*
X69428571Y-32250000D01*
X69571428Y-32202380D01*
X69666666Y-32202380D01*
X69809523Y-32250000D01*
X69857142Y-32297619D01*
X70238095Y-32297619D02*
X70285714Y-32250000D01*
X70380952Y-32202380D01*
X70619047Y-32202380D01*
X70714285Y-32250000D01*
X70761904Y-32297619D01*
X70809523Y-32392857D01*
X70809523Y-32488095D01*
X70761904Y-32630952D01*
X70190476Y-33202380D01*
X70809523Y-33202380D01*
X71666666Y-32535714D02*
X71666666Y-33202380D01*
X71428571Y-32154761D02*
X71190476Y-32869047D01*
X71809523Y-32869047D01*
X82357142Y-18607142D02*
X82309523Y-18654761D01*
X82166666Y-18702380D01*
X82071428Y-18702380D01*
X81928571Y-18654761D01*
X81833333Y-18559523D01*
X81785714Y-18464285D01*
X81738095Y-18273809D01*
X81738095Y-18130952D01*
X81785714Y-17940476D01*
X81833333Y-17845238D01*
X81928571Y-17750000D01*
X82071428Y-17702380D01*
X82166666Y-17702380D01*
X82309523Y-17750000D01*
X82357142Y-17797619D01*
X82690476Y-17702380D02*
X83309523Y-17702380D01*
X82976190Y-18083333D01*
X83119047Y-18083333D01*
X83214285Y-18130952D01*
X83261904Y-18178571D01*
X83309523Y-18273809D01*
X83309523Y-18511904D01*
X83261904Y-18607142D01*
X83214285Y-18654761D01*
X83119047Y-18702380D01*
X82833333Y-18702380D01*
X82738095Y-18654761D01*
X82690476Y-18607142D01*
X84214285Y-17702380D02*
X83738095Y-17702380D01*
X83690476Y-18178571D01*
X83738095Y-18130952D01*
X83833333Y-18083333D01*
X84071428Y-18083333D01*
X84166666Y-18130952D01*
X84214285Y-18178571D01*
X84261904Y-18273809D01*
X84261904Y-18511904D01*
X84214285Y-18607142D01*
X84166666Y-18654761D01*
X84071428Y-18702380D01*
X83833333Y-18702380D01*
X83738095Y-18654761D01*
X83690476Y-18607142D01*
X82357142Y-33107142D02*
X82309523Y-33154761D01*
X82166666Y-33202380D01*
X82071428Y-33202380D01*
X81928571Y-33154761D01*
X81833333Y-33059523D01*
X81785714Y-32964285D01*
X81738095Y-32773809D01*
X81738095Y-32630952D01*
X81785714Y-32440476D01*
X81833333Y-32345238D01*
X81928571Y-32250000D01*
X82071428Y-32202380D01*
X82166666Y-32202380D01*
X82309523Y-32250000D01*
X82357142Y-32297619D01*
X82690476Y-32202380D02*
X83309523Y-32202380D01*
X82976190Y-32583333D01*
X83119047Y-32583333D01*
X83214285Y-32630952D01*
X83261904Y-32678571D01*
X83309523Y-32773809D01*
X83309523Y-33011904D01*
X83261904Y-33107142D01*
X83214285Y-33154761D01*
X83119047Y-33202380D01*
X82833333Y-33202380D01*
X82738095Y-33154761D01*
X82690476Y-33107142D01*
X84166666Y-32202380D02*
X83976190Y-32202380D01*
X83880952Y-32250000D01*
X83833333Y-32297619D01*
X83738095Y-32440476D01*
X83690476Y-32630952D01*
X83690476Y-33011904D01*
X83738095Y-33107142D01*
X83785714Y-33154761D01*
X83880952Y-33202380D01*
X84071428Y-33202380D01*
X84166666Y-33154761D01*
X84214285Y-33107142D01*
X84261904Y-33011904D01*
X84261904Y-32773809D01*
X84214285Y-32678571D01*
X84166666Y-32630952D01*
X84071428Y-32583333D01*
X83880952Y-32583333D01*
X83785714Y-32630952D01*
X83738095Y-32678571D01*
X83690476Y-32773809D01*
X94357142Y-25607142D02*
X94309523Y-25654761D01*
X94166666Y-25702380D01*
X94071428Y-25702380D01*
X93928571Y-25654761D01*
X93833333Y-25559523D01*
X93785714Y-25464285D01*
X93738095Y-25273809D01*
X93738095Y-25130952D01*
X93785714Y-24940476D01*
X93833333Y-24845238D01*
X93928571Y-24750000D01*
X94071428Y-24702380D01*
X94166666Y-24702380D01*
X94309523Y-24750000D01*
X94357142Y-24797619D01*
X94690476Y-24702380D02*
X95309523Y-24702380D01*
X94976190Y-25083333D01*
X95119047Y-25083333D01*
X95214285Y-25130952D01*
X95261904Y-25178571D01*
X95309523Y-25273809D01*
X95309523Y-25511904D01*
X95261904Y-25607142D01*
X95214285Y-25654761D01*
X95119047Y-25702380D01*
X94833333Y-25702380D01*
X94738095Y-25654761D01*
X94690476Y-25607142D01*
X95642857Y-24702380D02*
X96309523Y-24702380D01*
X95880952Y-25702380D01*
X129857142Y-21177142D02*
X129809523Y-21224761D01*
X129666666Y-21272380D01*
X129571428Y-21272380D01*
X129428571Y-21224761D01*
X129333333Y-21129523D01*
X129285714Y-21034285D01*
X129238095Y-20843809D01*
X129238095Y-20700952D01*
X129285714Y-20510476D01*
X129333333Y-20415238D01*
X129428571Y-20320000D01*
X129571428Y-20272380D01*
X129666666Y-20272380D01*
X129809523Y-20320000D01*
X129857142Y-20367619D01*
X130190476Y-20272380D02*
X130809523Y-20272380D01*
X130476190Y-20653333D01*
X130619047Y-20653333D01*
X130714285Y-20700952D01*
X130761904Y-20748571D01*
X130809523Y-20843809D01*
X130809523Y-21081904D01*
X130761904Y-21177142D01*
X130714285Y-21224761D01*
X130619047Y-21272380D01*
X130333333Y-21272380D01*
X130238095Y-21224761D01*
X130190476Y-21177142D01*
X131380952Y-20700952D02*
X131285714Y-20653333D01*
X131238095Y-20605714D01*
X131190476Y-20510476D01*
X131190476Y-20462857D01*
X131238095Y-20367619D01*
X131285714Y-20320000D01*
X131380952Y-20272380D01*
X131571428Y-20272380D01*
X131666666Y-20320000D01*
X131714285Y-20367619D01*
X131761904Y-20462857D01*
X131761904Y-20510476D01*
X131714285Y-20605714D01*
X131666666Y-20653333D01*
X131571428Y-20700952D01*
X131380952Y-20700952D01*
X131285714Y-20748571D01*
X131238095Y-20796190D01*
X131190476Y-20891428D01*
X131190476Y-21081904D01*
X131238095Y-21177142D01*
X131285714Y-21224761D01*
X131380952Y-21272380D01*
X131571428Y-21272380D01*
X131666666Y-21224761D01*
X131714285Y-21177142D01*
X131761904Y-21081904D01*
X131761904Y-20891428D01*
X131714285Y-20796190D01*
X131666666Y-20748571D01*
X131571428Y-20700952D01*
X145357142Y-17107142D02*
X145309523Y-17154761D01*
X145166666Y-17202380D01*
X145071428Y-17202380D01*
X144928571Y-17154761D01*
X144833333Y-17059523D01*
X144785714Y-16964285D01*
X144738095Y-16773809D01*
X144738095Y-16630952D01*
X144785714Y-16440476D01*
X144833333Y-16345238D01*
X144928571Y-16250000D01*
X145071428Y-16202380D01*
X145166666Y-16202380D01*
X145309523Y-16250000D01*
X145357142Y-16297619D01*
X145690476Y-16202380D02*
X146309523Y-16202380D01*
X145976190Y-16583333D01*
X146119047Y-16583333D01*
X146214285Y-16630952D01*
X146261904Y-16678571D01*
X146309523Y-16773809D01*
X146309523Y-17011904D01*
X146261904Y-17107142D01*
X146214285Y-17154761D01*
X146119047Y-17202380D01*
X145833333Y-17202380D01*
X145738095Y-17154761D01*
X145690476Y-17107142D01*
X146785714Y-17202380D02*
X146976190Y-17202380D01*
X147071428Y-17154761D01*
X147119047Y-17107142D01*
X147214285Y-16964285D01*
X147261904Y-16773809D01*
X147261904Y-16392857D01*
X147214285Y-16297619D01*
X147166666Y-16250000D01*
X147071428Y-16202380D01*
X146880952Y-16202380D01*
X146785714Y-16250000D01*
X146738095Y-16297619D01*
X146690476Y-16392857D01*
X146690476Y-16630952D01*
X146738095Y-16726190D01*
X146785714Y-16773809D01*
X146880952Y-16821428D01*
X147071428Y-16821428D01*
X147166666Y-16773809D01*
X147214285Y-16726190D01*
X147261904Y-16630952D01*
X145357142Y-32607142D02*
X145309523Y-32654761D01*
X145166666Y-32702380D01*
X145071428Y-32702380D01*
X144928571Y-32654761D01*
X144833333Y-32559523D01*
X144785714Y-32464285D01*
X144738095Y-32273809D01*
X144738095Y-32130952D01*
X144785714Y-31940476D01*
X144833333Y-31845238D01*
X144928571Y-31750000D01*
X145071428Y-31702380D01*
X145166666Y-31702380D01*
X145309523Y-31750000D01*
X145357142Y-31797619D01*
X146214285Y-32035714D02*
X146214285Y-32702380D01*
X145976190Y-31654761D02*
X145738095Y-32369047D01*
X146357142Y-32369047D01*
X146928571Y-31702380D02*
X147023809Y-31702380D01*
X147119047Y-31750000D01*
X147166666Y-31797619D01*
X147214285Y-31892857D01*
X147261904Y-32083333D01*
X147261904Y-32321428D01*
X147214285Y-32511904D01*
X147166666Y-32607142D01*
X147119047Y-32654761D01*
X147023809Y-32702380D01*
X146928571Y-32702380D01*
X146833333Y-32654761D01*
X146785714Y-32607142D01*
X146738095Y-32511904D01*
X146690476Y-32321428D01*
X146690476Y-32083333D01*
X146738095Y-31892857D01*
X146785714Y-31797619D01*
X146833333Y-31750000D01*
X146928571Y-31702380D01*
X158357142Y-16107142D02*
X158309523Y-16154761D01*
X158166666Y-16202380D01*
X158071428Y-16202380D01*
X157928571Y-16154761D01*
X157833333Y-16059523D01*
X157785714Y-15964285D01*
X157738095Y-15773809D01*
X157738095Y-15630952D01*
X157785714Y-15440476D01*
X157833333Y-15345238D01*
X157928571Y-15250000D01*
X158071428Y-15202380D01*
X158166666Y-15202380D01*
X158309523Y-15250000D01*
X158357142Y-15297619D01*
X159214285Y-15535714D02*
X159214285Y-16202380D01*
X158976190Y-15154761D02*
X158738095Y-15869047D01*
X159357142Y-15869047D01*
X160261904Y-16202380D02*
X159690476Y-16202380D01*
X159976190Y-16202380D02*
X159976190Y-15202380D01*
X159880952Y-15345238D01*
X159785714Y-15440476D01*
X159690476Y-15488095D01*
X158357142Y-32607142D02*
X158309523Y-32654761D01*
X158166666Y-32702380D01*
X158071428Y-32702380D01*
X157928571Y-32654761D01*
X157833333Y-32559523D01*
X157785714Y-32464285D01*
X157738095Y-32273809D01*
X157738095Y-32130952D01*
X157785714Y-31940476D01*
X157833333Y-31845238D01*
X157928571Y-31750000D01*
X158071428Y-31702380D01*
X158166666Y-31702380D01*
X158309523Y-31750000D01*
X158357142Y-31797619D01*
X159214285Y-32035714D02*
X159214285Y-32702380D01*
X158976190Y-31654761D02*
X158738095Y-32369047D01*
X159357142Y-32369047D01*
X159785714Y-32702380D02*
X159976190Y-32702380D01*
X160071428Y-32654761D01*
X160119047Y-32607142D01*
X160214285Y-32464285D01*
X160261904Y-32273809D01*
X160261904Y-31892857D01*
X160214285Y-31797619D01*
X160166666Y-31750000D01*
X160071428Y-31702380D01*
X159880952Y-31702380D01*
X159785714Y-31750000D01*
X159738095Y-31797619D01*
X159690476Y-31892857D01*
X159690476Y-32130952D01*
X159738095Y-32226190D01*
X159785714Y-32273809D01*
X159880952Y-32321428D01*
X160071428Y-32321428D01*
X160166666Y-32273809D01*
X160214285Y-32226190D01*
X160261904Y-32130952D01*
X169357142Y-24607142D02*
X169309523Y-24654761D01*
X169166666Y-24702380D01*
X169071428Y-24702380D01*
X168928571Y-24654761D01*
X168833333Y-24559523D01*
X168785714Y-24464285D01*
X168738095Y-24273809D01*
X168738095Y-24130952D01*
X168785714Y-23940476D01*
X168833333Y-23845238D01*
X168928571Y-23750000D01*
X169071428Y-23702380D01*
X169166666Y-23702380D01*
X169309523Y-23750000D01*
X169357142Y-23797619D01*
X170261904Y-23702380D02*
X169785714Y-23702380D01*
X169738095Y-24178571D01*
X169785714Y-24130952D01*
X169880952Y-24083333D01*
X170119047Y-24083333D01*
X170214285Y-24130952D01*
X170261904Y-24178571D01*
X170309523Y-24273809D01*
X170309523Y-24511904D01*
X170261904Y-24607142D01*
X170214285Y-24654761D01*
X170119047Y-24702380D01*
X169880952Y-24702380D01*
X169785714Y-24654761D01*
X169738095Y-24607142D01*
X170928571Y-23702380D02*
X171023809Y-23702380D01*
X171119047Y-23750000D01*
X171166666Y-23797619D01*
X171214285Y-23892857D01*
X171261904Y-24083333D01*
X171261904Y-24321428D01*
X171214285Y-24511904D01*
X171166666Y-24607142D01*
X171119047Y-24654761D01*
X171023809Y-24702380D01*
X170928571Y-24702380D01*
X170833333Y-24654761D01*
X170785714Y-24607142D01*
X170738095Y-24511904D01*
X170690476Y-24321428D01*
X170690476Y-24083333D01*
X170738095Y-23892857D01*
X170785714Y-23797619D01*
X170833333Y-23750000D01*
X170928571Y-23702380D01*
X111357142Y-93677142D02*
X111309523Y-93724761D01*
X111166666Y-93772380D01*
X111071428Y-93772380D01*
X110928571Y-93724761D01*
X110833333Y-93629523D01*
X110785714Y-93534285D01*
X110738095Y-93343809D01*
X110738095Y-93200952D01*
X110785714Y-93010476D01*
X110833333Y-92915238D01*
X110928571Y-92820000D01*
X111071428Y-92772380D01*
X111166666Y-92772380D01*
X111309523Y-92820000D01*
X111357142Y-92867619D01*
X112261904Y-92772380D02*
X111785714Y-92772380D01*
X111738095Y-93248571D01*
X111785714Y-93200952D01*
X111880952Y-93153333D01*
X112119047Y-93153333D01*
X112214285Y-93200952D01*
X112261904Y-93248571D01*
X112309523Y-93343809D01*
X112309523Y-93581904D01*
X112261904Y-93677142D01*
X112214285Y-93724761D01*
X112119047Y-93772380D01*
X111880952Y-93772380D01*
X111785714Y-93724761D01*
X111738095Y-93677142D01*
X113261904Y-93772380D02*
X112690476Y-93772380D01*
X112976190Y-93772380D02*
X112976190Y-92772380D01*
X112880952Y-92915238D01*
X112785714Y-93010476D01*
X112690476Y-93058095D01*
X67357142Y-76177142D02*
X67309523Y-76224761D01*
X67166666Y-76272380D01*
X67071428Y-76272380D01*
X66928571Y-76224761D01*
X66833333Y-76129523D01*
X66785714Y-76034285D01*
X66738095Y-75843809D01*
X66738095Y-75700952D01*
X66785714Y-75510476D01*
X66833333Y-75415238D01*
X66928571Y-75320000D01*
X67071428Y-75272380D01*
X67166666Y-75272380D01*
X67309523Y-75320000D01*
X67357142Y-75367619D01*
X68261904Y-75272380D02*
X67785714Y-75272380D01*
X67738095Y-75748571D01*
X67785714Y-75700952D01*
X67880952Y-75653333D01*
X68119047Y-75653333D01*
X68214285Y-75700952D01*
X68261904Y-75748571D01*
X68309523Y-75843809D01*
X68309523Y-76081904D01*
X68261904Y-76177142D01*
X68214285Y-76224761D01*
X68119047Y-76272380D01*
X67880952Y-76272380D01*
X67785714Y-76224761D01*
X67738095Y-76177142D01*
X68642857Y-75272380D02*
X69261904Y-75272380D01*
X68928571Y-75653333D01*
X69071428Y-75653333D01*
X69166666Y-75700952D01*
X69214285Y-75748571D01*
X69261904Y-75843809D01*
X69261904Y-76081904D01*
X69214285Y-76177142D01*
X69166666Y-76224761D01*
X69071428Y-76272380D01*
X68785714Y-76272380D01*
X68690476Y-76224761D01*
X68642857Y-76177142D01*
X80357142Y-76177142D02*
X80309523Y-76224761D01*
X80166666Y-76272380D01*
X80071428Y-76272380D01*
X79928571Y-76224761D01*
X79833333Y-76129523D01*
X79785714Y-76034285D01*
X79738095Y-75843809D01*
X79738095Y-75700952D01*
X79785714Y-75510476D01*
X79833333Y-75415238D01*
X79928571Y-75320000D01*
X80071428Y-75272380D01*
X80166666Y-75272380D01*
X80309523Y-75320000D01*
X80357142Y-75367619D01*
X81261904Y-75272380D02*
X80785714Y-75272380D01*
X80738095Y-75748571D01*
X80785714Y-75700952D01*
X80880952Y-75653333D01*
X81119047Y-75653333D01*
X81214285Y-75700952D01*
X81261904Y-75748571D01*
X81309523Y-75843809D01*
X81309523Y-76081904D01*
X81261904Y-76177142D01*
X81214285Y-76224761D01*
X81119047Y-76272380D01*
X80880952Y-76272380D01*
X80785714Y-76224761D01*
X80738095Y-76177142D01*
X82166666Y-75605714D02*
X82166666Y-76272380D01*
X81928571Y-75224761D02*
X81690476Y-75939047D01*
X82309523Y-75939047D01*
X93357142Y-76177142D02*
X93309523Y-76224761D01*
X93166666Y-76272380D01*
X93071428Y-76272380D01*
X92928571Y-76224761D01*
X92833333Y-76129523D01*
X92785714Y-76034285D01*
X92738095Y-75843809D01*
X92738095Y-75700952D01*
X92785714Y-75510476D01*
X92833333Y-75415238D01*
X92928571Y-75320000D01*
X93071428Y-75272380D01*
X93166666Y-75272380D01*
X93309523Y-75320000D01*
X93357142Y-75367619D01*
X94261904Y-75272380D02*
X93785714Y-75272380D01*
X93738095Y-75748571D01*
X93785714Y-75700952D01*
X93880952Y-75653333D01*
X94119047Y-75653333D01*
X94214285Y-75700952D01*
X94261904Y-75748571D01*
X94309523Y-75843809D01*
X94309523Y-76081904D01*
X94261904Y-76177142D01*
X94214285Y-76224761D01*
X94119047Y-76272380D01*
X93880952Y-76272380D01*
X93785714Y-76224761D01*
X93738095Y-76177142D01*
X95214285Y-75272380D02*
X94738095Y-75272380D01*
X94690476Y-75748571D01*
X94738095Y-75700952D01*
X94833333Y-75653333D01*
X95071428Y-75653333D01*
X95166666Y-75700952D01*
X95214285Y-75748571D01*
X95261904Y-75843809D01*
X95261904Y-76081904D01*
X95214285Y-76177142D01*
X95166666Y-76224761D01*
X95071428Y-76272380D01*
X94833333Y-76272380D01*
X94738095Y-76224761D01*
X94690476Y-76177142D01*
X4238095Y-1452380D02*
X4238095Y-452380D01*
X4238095Y-928571D02*
X4809523Y-928571D01*
X4809523Y-1452380D02*
X4809523Y-452380D01*
X5809523Y-1452380D02*
X5238095Y-1452380D01*
X5523809Y-1452380D02*
X5523809Y-452380D01*
X5428571Y-595238D01*
X5333333Y-690476D01*
X5238095Y-738095D01*
X197238095Y-1452380D02*
X197238095Y-452380D01*
X197238095Y-928571D02*
X197809523Y-928571D01*
X197809523Y-1452380D02*
X197809523Y-452380D01*
X198238095Y-547619D02*
X198285714Y-500000D01*
X198380952Y-452380D01*
X198619047Y-452380D01*
X198714285Y-500000D01*
X198761904Y-547619D01*
X198809523Y-642857D01*
X198809523Y-738095D01*
X198761904Y-880952D01*
X198190476Y-1452380D01*
X198809523Y-1452380D01*
X4238095Y-107452380D02*
X4238095Y-106452380D01*
X4238095Y-106928571D02*
X4809523Y-106928571D01*
X4809523Y-107452380D02*
X4809523Y-106452380D01*
X5190476Y-106452380D02*
X5809523Y-106452380D01*
X5476190Y-106833333D01*
X5619047Y-106833333D01*
X5714285Y-106880952D01*
X5761904Y-106928571D01*
X5809523Y-107023809D01*
X5809523Y-107261904D01*
X5761904Y-107357142D01*
X5714285Y-107404761D01*
X5619047Y-107452380D01*
X5333333Y-107452380D01*
X5238095Y-107404761D01*
X5190476Y-107357142D01*
X197238095Y-107452380D02*
X197238095Y-106452380D01*
X197238095Y-106928571D02*
X197809523Y-106928571D01*
X197809523Y-107452380D02*
X197809523Y-106452380D01*
X198714285Y-106785714D02*
X198714285Y-107452380D01*
X198476190Y-106404761D02*
X198238095Y-107119047D01*
X198857142Y-107119047D01*
D16*
X190114523Y-109423333D02*
X191021666Y-109423333D01*
X191203095Y-109483809D01*
X191324047Y-109604761D01*
X191384523Y-109786190D01*
X191384523Y-109907142D01*
X190235476Y-108879047D02*
X190175000Y-108818571D01*
X190114523Y-108697619D01*
X190114523Y-108395238D01*
X190175000Y-108274285D01*
X190235476Y-108213809D01*
X190356428Y-108153333D01*
X190477380Y-108153333D01*
X190658809Y-108213809D01*
X191384523Y-108939523D01*
X191384523Y-108153333D01*
X150114523Y-109423333D02*
X151021666Y-109423333D01*
X151203095Y-109483809D01*
X151324047Y-109604761D01*
X151384523Y-109786190D01*
X151384523Y-109907142D01*
X150114523Y-108939523D02*
X150114523Y-108153333D01*
X150598333Y-108576666D01*
X150598333Y-108395238D01*
X150658809Y-108274285D01*
X150719285Y-108213809D01*
X150840238Y-108153333D01*
X151142619Y-108153333D01*
X151263571Y-108213809D01*
X151324047Y-108274285D01*
X151384523Y-108395238D01*
X151384523Y-108758095D01*
X151324047Y-108879047D01*
X151263571Y-108939523D01*
X170114523Y-109423333D02*
X171021666Y-109423333D01*
X171203095Y-109483809D01*
X171324047Y-109604761D01*
X171384523Y-109786190D01*
X171384523Y-109907142D01*
X170537857Y-108274285D02*
X171384523Y-108274285D01*
X170054047Y-108576666D02*
X170961190Y-108879047D01*
X170961190Y-108092857D01*
X130114523Y-109423333D02*
X131021666Y-109423333D01*
X131203095Y-109483809D01*
X131324047Y-109604761D01*
X131384523Y-109786190D01*
X131384523Y-109907142D01*
X130114523Y-108213809D02*
X130114523Y-108818571D01*
X130719285Y-108879047D01*
X130658809Y-108818571D01*
X130598333Y-108697619D01*
X130598333Y-108395238D01*
X130658809Y-108274285D01*
X130719285Y-108213809D01*
X130840238Y-108153333D01*
X131142619Y-108153333D01*
X131263571Y-108213809D01*
X131324047Y-108274285D01*
X131384523Y-108395238D01*
X131384523Y-108697619D01*
X131324047Y-108818571D01*
X131263571Y-108879047D01*
D11*
X89738095Y-51952380D02*
X89738095Y-52761904D01*
X89785714Y-52857142D01*
X89833333Y-52904761D01*
X89928571Y-52952380D01*
X90119047Y-52952380D01*
X90214285Y-52904761D01*
X90261904Y-52857142D01*
X90309523Y-52761904D01*
X90309523Y-51952380D01*
X91309523Y-52952380D02*
X90738095Y-52952380D01*
X91023809Y-52952380D02*
X91023809Y-51952380D01*
X90928571Y-52095238D01*
X90833333Y-52190476D01*
X90738095Y-52238095D01*
X102238095Y-55052380D02*
X102238095Y-55861904D01*
X102285714Y-55957142D01*
X102333333Y-56004761D01*
X102428571Y-56052380D01*
X102619047Y-56052380D01*
X102714285Y-56004761D01*
X102761904Y-55957142D01*
X102809523Y-55861904D01*
X102809523Y-55052380D01*
X103238095Y-55147619D02*
X103285714Y-55100000D01*
X103380952Y-55052380D01*
X103619047Y-55052380D01*
X103714285Y-55100000D01*
X103761904Y-55147619D01*
X103809523Y-55242857D01*
X103809523Y-55338095D01*
X103761904Y-55480952D01*
X103190476Y-56052380D01*
X103809523Y-56052380D01*
X42261904Y-59052380D02*
X42261904Y-59861904D01*
X42309523Y-59957142D01*
X42357142Y-60004761D01*
X42452380Y-60052380D01*
X42642857Y-60052380D01*
X42738095Y-60004761D01*
X42785714Y-59957142D01*
X42833333Y-59861904D01*
X42833333Y-59052380D01*
X43833333Y-60052380D02*
X43261904Y-60052380D01*
X43547619Y-60052380D02*
X43547619Y-59052380D01*
X43452380Y-59195238D01*
X43357142Y-59290476D01*
X43261904Y-59338095D01*
X44452380Y-59052380D02*
X44547619Y-59052380D01*
X44642857Y-59100000D01*
X44690476Y-59147619D01*
X44738095Y-59242857D01*
X44785714Y-59433333D01*
X44785714Y-59671428D01*
X44738095Y-59861904D01*
X44690476Y-59957142D01*
X44642857Y-60004761D01*
X44547619Y-60052380D01*
X44452380Y-60052380D01*
X44357142Y-60004761D01*
X44309523Y-59957142D01*
X44261904Y-59861904D01*
X44214285Y-59671428D01*
X44214285Y-59433333D01*
X44261904Y-59242857D01*
X44309523Y-59147619D01*
X44357142Y-59100000D01*
X44452380Y-59052380D01*
X94761904Y-45052380D02*
X94761904Y-45861904D01*
X94809523Y-45957142D01*
X94857142Y-46004761D01*
X94952380Y-46052380D01*
X95142857Y-46052380D01*
X95238095Y-46004761D01*
X95285714Y-45957142D01*
X95333333Y-45861904D01*
X95333333Y-45052380D01*
X95761904Y-45147619D02*
X95809523Y-45100000D01*
X95904761Y-45052380D01*
X96142857Y-45052380D01*
X96238095Y-45100000D01*
X96285714Y-45147619D01*
X96333333Y-45242857D01*
X96333333Y-45338095D01*
X96285714Y-45480952D01*
X95714285Y-46052380D01*
X96333333Y-46052380D01*
X97238095Y-45052380D02*
X96761904Y-45052380D01*
X96714285Y-45528571D01*
X96761904Y-45480952D01*
X96857142Y-45433333D01*
X97095238Y-45433333D01*
X97190476Y-45480952D01*
X97238095Y-45528571D01*
X97285714Y-45623809D01*
X97285714Y-45861904D01*
X97238095Y-45957142D01*
X97190476Y-46004761D01*
X97095238Y-46052380D01*
X96857142Y-46052380D01*
X96761904Y-46004761D01*
X96714285Y-45957142D01*
X65761904Y-21172380D02*
X65761904Y-21981904D01*
X65809523Y-22077142D01*
X65857142Y-22124761D01*
X65952380Y-22172380D01*
X66142857Y-22172380D01*
X66238095Y-22124761D01*
X66285714Y-22077142D01*
X66333333Y-21981904D01*
X66333333Y-21172380D01*
X66761904Y-21267619D02*
X66809523Y-21220000D01*
X66904761Y-21172380D01*
X67142857Y-21172380D01*
X67238095Y-21220000D01*
X67285714Y-21267619D01*
X67333333Y-21362857D01*
X67333333Y-21458095D01*
X67285714Y-21600952D01*
X66714285Y-22172380D01*
X67333333Y-22172380D01*
X68190476Y-21172380D02*
X68000000Y-21172380D01*
X67904761Y-21220000D01*
X67857142Y-21267619D01*
X67761904Y-21410476D01*
X67714285Y-21600952D01*
X67714285Y-21981904D01*
X67761904Y-22077142D01*
X67809523Y-22124761D01*
X67904761Y-22172380D01*
X68095238Y-22172380D01*
X68190476Y-22124761D01*
X68238095Y-22077142D01*
X68285714Y-21981904D01*
X68285714Y-21743809D01*
X68238095Y-21648571D01*
X68190476Y-21600952D01*
X68095238Y-21553333D01*
X67904761Y-21553333D01*
X67809523Y-21600952D01*
X67761904Y-21648571D01*
X67714285Y-21743809D01*
X65761904Y-34672380D02*
X65761904Y-35481904D01*
X65809523Y-35577142D01*
X65857142Y-35624761D01*
X65952380Y-35672380D01*
X66142857Y-35672380D01*
X66238095Y-35624761D01*
X66285714Y-35577142D01*
X66333333Y-35481904D01*
X66333333Y-34672380D01*
X66761904Y-34767619D02*
X66809523Y-34720000D01*
X66904761Y-34672380D01*
X67142857Y-34672380D01*
X67238095Y-34720000D01*
X67285714Y-34767619D01*
X67333333Y-34862857D01*
X67333333Y-34958095D01*
X67285714Y-35100952D01*
X66714285Y-35672380D01*
X67333333Y-35672380D01*
X67666666Y-34672380D02*
X68333333Y-34672380D01*
X67904761Y-35672380D01*
X78261904Y-20052380D02*
X78261904Y-20861904D01*
X78309523Y-20957142D01*
X78357142Y-21004761D01*
X78452380Y-21052380D01*
X78642857Y-21052380D01*
X78738095Y-21004761D01*
X78785714Y-20957142D01*
X78833333Y-20861904D01*
X78833333Y-20052380D01*
X79261904Y-20147619D02*
X79309523Y-20100000D01*
X79404761Y-20052380D01*
X79642857Y-20052380D01*
X79738095Y-20100000D01*
X79785714Y-20147619D01*
X79833333Y-20242857D01*
X79833333Y-20338095D01*
X79785714Y-20480952D01*
X79214285Y-21052380D01*
X79833333Y-21052380D01*
X80404761Y-20480952D02*
X80309523Y-20433333D01*
X80261904Y-20385714D01*
X80214285Y-20290476D01*
X80214285Y-20242857D01*
X80261904Y-20147619D01*
X80309523Y-20100000D01*
X80404761Y-20052380D01*
X80595238Y-20052380D01*
X80690476Y-20100000D01*
X80738095Y-20147619D01*
X80785714Y-20242857D01*
X80785714Y-20290476D01*
X80738095Y-20385714D01*
X80690476Y-20433333D01*
X80595238Y-20480952D01*
X80404761Y-20480952D01*
X80309523Y-20528571D01*
X80261904Y-20576190D01*
X80214285Y-20671428D01*
X80214285Y-20861904D01*
X80261904Y-20957142D01*
X80309523Y-21004761D01*
X80404761Y-21052380D01*
X80595238Y-21052380D01*
X80690476Y-21004761D01*
X80738095Y-20957142D01*
X80785714Y-20861904D01*
X80785714Y-20671428D01*
X80738095Y-20576190D01*
X80690476Y-20528571D01*
X80595238Y-20480952D01*
X78261904Y-34552380D02*
X78261904Y-35361904D01*
X78309523Y-35457142D01*
X78357142Y-35504761D01*
X78452380Y-35552380D01*
X78642857Y-35552380D01*
X78738095Y-35504761D01*
X78785714Y-35457142D01*
X78833333Y-35361904D01*
X78833333Y-34552380D01*
X79261904Y-34647619D02*
X79309523Y-34600000D01*
X79404761Y-34552380D01*
X79642857Y-34552380D01*
X79738095Y-34600000D01*
X79785714Y-34647619D01*
X79833333Y-34742857D01*
X79833333Y-34838095D01*
X79785714Y-34980952D01*
X79214285Y-35552380D01*
X79833333Y-35552380D01*
X80309523Y-35552380D02*
X80500000Y-35552380D01*
X80595238Y-35504761D01*
X80642857Y-35457142D01*
X80738095Y-35314285D01*
X80785714Y-35123809D01*
X80785714Y-34742857D01*
X80738095Y-34647619D01*
X80690476Y-34600000D01*
X80595238Y-34552380D01*
X80404761Y-34552380D01*
X80309523Y-34600000D01*
X80261904Y-34647619D01*
X80214285Y-34742857D01*
X80214285Y-34980952D01*
X80261904Y-35076190D01*
X80309523Y-35123809D01*
X80404761Y-35171428D01*
X80595238Y-35171428D01*
X80690476Y-35123809D01*
X80738095Y-35076190D01*
X80785714Y-34980952D01*
X104261904Y-45052380D02*
X104261904Y-45861904D01*
X104309523Y-45957142D01*
X104357142Y-46004761D01*
X104452380Y-46052380D01*
X104642857Y-46052380D01*
X104738095Y-46004761D01*
X104785714Y-45957142D01*
X104833333Y-45861904D01*
X104833333Y-45052380D01*
X105214285Y-45052380D02*
X105833333Y-45052380D01*
X105500000Y-45433333D01*
X105642857Y-45433333D01*
X105738095Y-45480952D01*
X105785714Y-45528571D01*
X105833333Y-45623809D01*
X105833333Y-45861904D01*
X105785714Y-45957142D01*
X105738095Y-46004761D01*
X105642857Y-46052380D01*
X105357142Y-46052380D01*
X105261904Y-46004761D01*
X105214285Y-45957142D01*
X106452380Y-45052380D02*
X106547619Y-45052380D01*
X106642857Y-45100000D01*
X106690476Y-45147619D01*
X106738095Y-45242857D01*
X106785714Y-45433333D01*
X106785714Y-45671428D01*
X106738095Y-45861904D01*
X106690476Y-45957142D01*
X106642857Y-46004761D01*
X106547619Y-46052380D01*
X106452380Y-46052380D01*
X106357142Y-46004761D01*
X106309523Y-45957142D01*
X106261904Y-45861904D01*
X106214285Y-45671428D01*
X106214285Y-45433333D01*
X106261904Y-45242857D01*
X106309523Y-45147619D01*
X106357142Y-45100000D01*
X106452380Y-45052380D01*
X90261904Y-27052380D02*
X90261904Y-27861904D01*
X90309523Y-27957142D01*
X90357142Y-28004761D01*
X90452380Y-28052380D01*
X90642857Y-28052380D01*
X90738095Y-28004761D01*
X90785714Y-27957142D01*
X90833333Y-27861904D01*
X90833333Y-27052380D01*
X91214285Y-27052380D02*
X91833333Y-27052380D01*
X91500000Y-27433333D01*
X91642857Y-27433333D01*
X91738095Y-27480952D01*
X91785714Y-27528571D01*
X91833333Y-27623809D01*
X91833333Y-27861904D01*
X91785714Y-27957142D01*
X91738095Y-28004761D01*
X91642857Y-28052380D01*
X91357142Y-28052380D01*
X91261904Y-28004761D01*
X91214285Y-27957142D01*
X92785714Y-28052380D02*
X92214285Y-28052380D01*
X92500000Y-28052380D02*
X92500000Y-27052380D01*
X92404761Y-27195238D01*
X92309523Y-27290476D01*
X92214285Y-27338095D01*
X125761904Y-22602380D02*
X125761904Y-23411904D01*
X125809523Y-23507142D01*
X125857142Y-23554761D01*
X125952380Y-23602380D01*
X126142857Y-23602380D01*
X126238095Y-23554761D01*
X126285714Y-23507142D01*
X126333333Y-23411904D01*
X126333333Y-22602380D01*
X126714285Y-22602380D02*
X127333333Y-22602380D01*
X127000000Y-22983333D01*
X127142857Y-22983333D01*
X127238095Y-23030952D01*
X127285714Y-23078571D01*
X127333333Y-23173809D01*
X127333333Y-23411904D01*
X127285714Y-23507142D01*
X127238095Y-23554761D01*
X127142857Y-23602380D01*
X126857142Y-23602380D01*
X126761904Y-23554761D01*
X126714285Y-23507142D01*
X127714285Y-22697619D02*
X127761904Y-22650000D01*
X127857142Y-22602380D01*
X128095238Y-22602380D01*
X128190476Y-22650000D01*
X128238095Y-22697619D01*
X128285714Y-22792857D01*
X128285714Y-22888095D01*
X128238095Y-23030952D01*
X127666666Y-23602380D01*
X128285714Y-23602380D01*
X141261904Y-18672380D02*
X141261904Y-19481904D01*
X141309523Y-19577142D01*
X141357142Y-19624761D01*
X141452380Y-19672380D01*
X141642857Y-19672380D01*
X141738095Y-19624761D01*
X141785714Y-19577142D01*
X141833333Y-19481904D01*
X141833333Y-18672380D01*
X142214285Y-18672380D02*
X142833333Y-18672380D01*
X142500000Y-19053333D01*
X142642857Y-19053333D01*
X142738095Y-19100952D01*
X142785714Y-19148571D01*
X142833333Y-19243809D01*
X142833333Y-19481904D01*
X142785714Y-19577142D01*
X142738095Y-19624761D01*
X142642857Y-19672380D01*
X142357142Y-19672380D01*
X142261904Y-19624761D01*
X142214285Y-19577142D01*
X143166666Y-18672380D02*
X143785714Y-18672380D01*
X143452380Y-19053333D01*
X143595238Y-19053333D01*
X143690476Y-19100952D01*
X143738095Y-19148571D01*
X143785714Y-19243809D01*
X143785714Y-19481904D01*
X143738095Y-19577142D01*
X143690476Y-19624761D01*
X143595238Y-19672380D01*
X143309523Y-19672380D01*
X143214285Y-19624761D01*
X143166666Y-19577142D01*
X141261904Y-34172380D02*
X141261904Y-34981904D01*
X141309523Y-35077142D01*
X141357142Y-35124761D01*
X141452380Y-35172380D01*
X141642857Y-35172380D01*
X141738095Y-35124761D01*
X141785714Y-35077142D01*
X141833333Y-34981904D01*
X141833333Y-34172380D01*
X142214285Y-34172380D02*
X142833333Y-34172380D01*
X142500000Y-34553333D01*
X142642857Y-34553333D01*
X142738095Y-34600952D01*
X142785714Y-34648571D01*
X142833333Y-34743809D01*
X142833333Y-34981904D01*
X142785714Y-35077142D01*
X142738095Y-35124761D01*
X142642857Y-35172380D01*
X142357142Y-35172380D01*
X142261904Y-35124761D01*
X142214285Y-35077142D01*
X143690476Y-34505714D02*
X143690476Y-35172380D01*
X143452380Y-34124761D02*
X143214285Y-34839047D01*
X143833333Y-34839047D01*
X154261904Y-17552380D02*
X154261904Y-18361904D01*
X154309523Y-18457142D01*
X154357142Y-18504761D01*
X154452380Y-18552380D01*
X154642857Y-18552380D01*
X154738095Y-18504761D01*
X154785714Y-18457142D01*
X154833333Y-18361904D01*
X154833333Y-17552380D01*
X155214285Y-17552380D02*
X155833333Y-17552380D01*
X155500000Y-17933333D01*
X155642857Y-17933333D01*
X155738095Y-17980952D01*
X155785714Y-18028571D01*
X155833333Y-18123809D01*
X155833333Y-18361904D01*
X155785714Y-18457142D01*
X155738095Y-18504761D01*
X155642857Y-18552380D01*
X155357142Y-18552380D01*
X155261904Y-18504761D01*
X155214285Y-18457142D01*
X156738095Y-17552380D02*
X156261904Y-17552380D01*
X156214285Y-18028571D01*
X156261904Y-17980952D01*
X156357142Y-17933333D01*
X156595238Y-17933333D01*
X156690476Y-17980952D01*
X156738095Y-18028571D01*
X156785714Y-18123809D01*
X156785714Y-18361904D01*
X156738095Y-18457142D01*
X156690476Y-18504761D01*
X156595238Y-18552380D01*
X156357142Y-18552380D01*
X156261904Y-18504761D01*
X156214285Y-18457142D01*
X154261904Y-34052380D02*
X154261904Y-34861904D01*
X154309523Y-34957142D01*
X154357142Y-35004761D01*
X154452380Y-35052380D01*
X154642857Y-35052380D01*
X154738095Y-35004761D01*
X154785714Y-34957142D01*
X154833333Y-34861904D01*
X154833333Y-34052380D01*
X155214285Y-34052380D02*
X155833333Y-34052380D01*
X155500000Y-34433333D01*
X155642857Y-34433333D01*
X155738095Y-34480952D01*
X155785714Y-34528571D01*
X155833333Y-34623809D01*
X155833333Y-34861904D01*
X155785714Y-34957142D01*
X155738095Y-35004761D01*
X155642857Y-35052380D01*
X155357142Y-35052380D01*
X155261904Y-35004761D01*
X155214285Y-34957142D01*
X156690476Y-34052380D02*
X156500000Y-34052380D01*
X156404761Y-34100000D01*
X156357142Y-34147619D01*
X156261904Y-34290476D01*
X156214285Y-34480952D01*
X156214285Y-34861904D01*
X156261904Y-34957142D01*
X156309523Y-35004761D01*
X156404761Y-35052380D01*
X156595238Y-35052380D01*
X156690476Y-35004761D01*
X156738095Y-34957142D01*
X156785714Y-34861904D01*
X156785714Y-34623809D01*
X156738095Y-34528571D01*
X156690476Y-34480952D01*
X156595238Y-34433333D01*
X156404761Y-34433333D01*
X156309523Y-34480952D01*
X156261904Y-34528571D01*
X156214285Y-34623809D01*
X165261904Y-26052380D02*
X165261904Y-26861904D01*
X165309523Y-26957142D01*
X165357142Y-27004761D01*
X165452380Y-27052380D01*
X165642857Y-27052380D01*
X165738095Y-27004761D01*
X165785714Y-26957142D01*
X165833333Y-26861904D01*
X165833333Y-26052380D01*
X166214285Y-26052380D02*
X166833333Y-26052380D01*
X166500000Y-26433333D01*
X166642857Y-26433333D01*
X166738095Y-26480952D01*
X166785714Y-26528571D01*
X166833333Y-26623809D01*
X166833333Y-26861904D01*
X166785714Y-26957142D01*
X166738095Y-27004761D01*
X166642857Y-27052380D01*
X166357142Y-27052380D01*
X166261904Y-27004761D01*
X166214285Y-26957142D01*
X167166666Y-26052380D02*
X167833333Y-26052380D01*
X167404761Y-27052380D01*
X108677380Y-93238095D02*
X109486904Y-93238095D01*
X109582142Y-93190476D01*
X109629761Y-93142857D01*
X109677380Y-93047619D01*
X109677380Y-92857142D01*
X109629761Y-92761904D01*
X109582142Y-92714285D01*
X109486904Y-92666666D01*
X108677380Y-92666666D01*
X108677380Y-92285714D02*
X108677380Y-91666666D01*
X109058333Y-92000000D01*
X109058333Y-91857142D01*
X109105952Y-91761904D01*
X109153571Y-91714285D01*
X109248809Y-91666666D01*
X109486904Y-91666666D01*
X109582142Y-91714285D01*
X109629761Y-91761904D01*
X109677380Y-91857142D01*
X109677380Y-92142857D01*
X109629761Y-92238095D01*
X109582142Y-92285714D01*
X109105952Y-91095238D02*
X109058333Y-91190476D01*
X109010714Y-91238095D01*
X108915476Y-91285714D01*
X108867857Y-91285714D01*
X108772619Y-91238095D01*
X108725000Y-91190476D01*
X108677380Y-91095238D01*
X108677380Y-90904761D01*
X108725000Y-90809523D01*
X108772619Y-90761904D01*
X108867857Y-90714285D01*
X108915476Y-90714285D01*
X109010714Y-90761904D01*
X109058333Y-90809523D01*
X109105952Y-90904761D01*
X109105952Y-91095238D01*
X109153571Y-91190476D01*
X109201190Y-91238095D01*
X109296428Y-91285714D01*
X109486904Y-91285714D01*
X109582142Y-91238095D01*
X109629761Y-91190476D01*
X109677380Y-91095238D01*
X109677380Y-90904761D01*
X109629761Y-90809523D01*
X109582142Y-90761904D01*
X109486904Y-90714285D01*
X109296428Y-90714285D01*
X109201190Y-90761904D01*
X109153571Y-90809523D01*
X109105952Y-90904761D01*
X108677380Y-99023095D02*
X109486904Y-99023095D01*
X109582142Y-98975476D01*
X109629761Y-98927857D01*
X109677380Y-98832619D01*
X109677380Y-98642142D01*
X109629761Y-98546904D01*
X109582142Y-98499285D01*
X109486904Y-98451666D01*
X108677380Y-98451666D01*
X108677380Y-98070714D02*
X108677380Y-97451666D01*
X109058333Y-97785000D01*
X109058333Y-97642142D01*
X109105952Y-97546904D01*
X109153571Y-97499285D01*
X109248809Y-97451666D01*
X109486904Y-97451666D01*
X109582142Y-97499285D01*
X109629761Y-97546904D01*
X109677380Y-97642142D01*
X109677380Y-97927857D01*
X109629761Y-98023095D01*
X109582142Y-98070714D01*
X109677380Y-96975476D02*
X109677380Y-96785000D01*
X109629761Y-96689761D01*
X109582142Y-96642142D01*
X109439285Y-96546904D01*
X109248809Y-96499285D01*
X108867857Y-96499285D01*
X108772619Y-96546904D01*
X108725000Y-96594523D01*
X108677380Y-96689761D01*
X108677380Y-96880238D01*
X108725000Y-96975476D01*
X108772619Y-97023095D01*
X108867857Y-97070714D01*
X109105952Y-97070714D01*
X109201190Y-97023095D01*
X109248809Y-96975476D01*
X109296428Y-96880238D01*
X109296428Y-96689761D01*
X109248809Y-96594523D01*
X109201190Y-96546904D01*
X109105952Y-96499285D01*
X63476904Y-77897380D02*
X63476904Y-78706904D01*
X63524523Y-78802142D01*
X63572142Y-78849761D01*
X63667380Y-78897380D01*
X63857857Y-78897380D01*
X63953095Y-78849761D01*
X64000714Y-78802142D01*
X64048333Y-78706904D01*
X64048333Y-77897380D01*
X64953095Y-78230714D02*
X64953095Y-78897380D01*
X64715000Y-77849761D02*
X64476904Y-78564047D01*
X65095952Y-78564047D01*
X65429285Y-77992619D02*
X65476904Y-77945000D01*
X65572142Y-77897380D01*
X65810238Y-77897380D01*
X65905476Y-77945000D01*
X65953095Y-77992619D01*
X66000714Y-78087857D01*
X66000714Y-78183095D01*
X65953095Y-78325952D01*
X65381666Y-78897380D01*
X66000714Y-78897380D01*
X76386904Y-77897380D02*
X76386904Y-78706904D01*
X76434523Y-78802142D01*
X76482142Y-78849761D01*
X76577380Y-78897380D01*
X76767857Y-78897380D01*
X76863095Y-78849761D01*
X76910714Y-78802142D01*
X76958333Y-78706904D01*
X76958333Y-77897380D01*
X77863095Y-78230714D02*
X77863095Y-78897380D01*
X77625000Y-77849761D02*
X77386904Y-78564047D01*
X78005952Y-78564047D01*
X78291666Y-77897380D02*
X78910714Y-77897380D01*
X78577380Y-78278333D01*
X78720238Y-78278333D01*
X78815476Y-78325952D01*
X78863095Y-78373571D01*
X78910714Y-78468809D01*
X78910714Y-78706904D01*
X78863095Y-78802142D01*
X78815476Y-78849761D01*
X78720238Y-78897380D01*
X78434523Y-78897380D01*
X78339285Y-78849761D01*
X78291666Y-78802142D01*
X89296904Y-77897380D02*
X89296904Y-78706904D01*
X89344523Y-78802142D01*
X89392142Y-78849761D01*
X89487380Y-78897380D01*
X89677857Y-78897380D01*
X89773095Y-78849761D01*
X89820714Y-78802142D01*
X89868333Y-78706904D01*
X89868333Y-77897380D01*
X90773095Y-78230714D02*
X90773095Y-78897380D01*
X90535000Y-77849761D02*
X90296904Y-78564047D01*
X90915952Y-78564047D01*
X91725476Y-78230714D02*
X91725476Y-78897380D01*
X91487380Y-77849761D02*
X91249285Y-78564047D01*
X91868333Y-78564047D01*
X106000476Y-25192380D02*
X106667142Y-26192380D01*
X106667142Y-25192380D02*
X106000476Y-26192380D01*
X107571904Y-26192380D02*
X107000476Y-26192380D01*
X107286190Y-26192380D02*
X107286190Y-25192380D01*
X107190952Y-25335238D01*
X107095714Y-25430476D01*
X107000476Y-25478095D01*
X5352380Y-59539523D02*
X6066666Y-59539523D01*
X6209523Y-59587142D01*
X6304761Y-59682380D01*
X6352380Y-59825238D01*
X6352380Y-59920476D01*
X6352380Y-58539523D02*
X6352380Y-59110952D01*
X6352380Y-58825238D02*
X5352380Y-58825238D01*
X5495238Y-58920476D01*
X5590476Y-59015714D01*
X5638095Y-59110952D01*
X5352380Y-57920476D02*
X5352380Y-57825238D01*
X5400000Y-57730000D01*
X5447619Y-57682380D01*
X5542857Y-57634761D01*
X5733333Y-57587142D01*
X5971428Y-57587142D01*
X6161904Y-57634761D01*
X6257142Y-57682380D01*
X6304761Y-57730000D01*
X6352380Y-57825238D01*
X6352380Y-57920476D01*
X6304761Y-58015714D01*
X6257142Y-58063333D01*
X6161904Y-58110952D01*
X5971428Y-58158571D01*
X5733333Y-58158571D01*
X5542857Y-58110952D01*
X5447619Y-58063333D01*
X5400000Y-58015714D01*
X5352380Y-57920476D01*
X5352380Y-96539523D02*
X6066666Y-96539523D01*
X6209523Y-96587142D01*
X6304761Y-96682380D01*
X6352380Y-96825238D01*
X6352380Y-96920476D01*
X6352380Y-95539523D02*
X6352380Y-96110952D01*
X6352380Y-95825238D02*
X5352380Y-95825238D01*
X5495238Y-95920476D01*
X5590476Y-96015714D01*
X5638095Y-96110952D01*
X5352380Y-95206190D02*
X5352380Y-94587142D01*
X5733333Y-94920476D01*
X5733333Y-94777619D01*
X5780952Y-94682380D01*
X5828571Y-94634761D01*
X5923809Y-94587142D01*
X6161904Y-94587142D01*
X6257142Y-94634761D01*
X6304761Y-94682380D01*
X6352380Y-94777619D01*
X6352380Y-95063333D01*
X6304761Y-95158571D01*
X6257142Y-95206190D01*
M02*
