M48
; DRILL file {KiCad (5.1.2)-1} date 25/08/2019 23:12:05
; FORMAT={-:-/ absolute / metric / decimal}
; #@! TF.CreationDate,2019-08-25T23:12:05+02:00
; #@! TF.GenerationSoftware,Kicad,Pcbnew,(5.1.2)-1
; #@! TF.FileFunction,Plated,1,4,PTH
FMAT,2
METRIC
T1C0.200
T2C0.300
T3C0.800
T4C1.000
T5C1.100
T6C1.150
T7C1.168
T8C1.200
%
G90
G05
T1
X21.27Y-110.152
X21.653Y-44.606
X24.608Y-5.497
X30.485Y-42.637
X32.279Y-43.72
X34.749Y-86.659
X44.001Y-63.047
X46.502Y-45.104
X46.952Y-81.703
X47.631Y-73.002
X48.285Y-60.537
X48.338Y-79.566
X48.41Y-78.403
X48.662Y-59.773
X49.265Y-47.258
X49.677Y-76.492
X49.741Y-52.369
X49.834Y-79.378
X50.246Y-91.224
X50.609Y-54.19
X51.089Y-76.546
X51.643Y-54.697
X51.659Y-26.351
X51.677Y-81.646
X52.062Y-68.156
X52.109Y-43.514
X52.118Y-46.233
X52.182Y-69.864
X52.563Y-3.259
X52.578Y-36.524
X53.086Y-49.348
X53.588Y-30.064
X53.773Y-26.915
X54.032Y-69.36
X54.111Y-78.733
X54.605Y-48.182
X54.837Y-72.156
X54.998Y-76.603
X55.21Y-74.591
X55.229Y-69.623
X56.069Y-39.315
X56.28Y-27.458
X56.334Y-45.473
X56.337Y-49.398
X56.545Y-25.478
X56.887Y-43.5
X57.302Y-75.221
X57.454Y-85.344
X57.462Y-78.744
X58.033Y-75.221
X58.357Y-73.87
X58.642Y-78.013
X59.061Y-32.226
X59.087Y-11.637
X59.279Y-55.467
X59.395Y-48.406
X59.448Y-41.275
X59.682Y-59.818
X59.722Y-85.328
X59.745Y-23.7
X59.843Y-45.331
X60.052Y-3.632
X60.085Y-77.293
X60.758Y-87.903
X60.833Y-45.502
X60.86Y-48.741
X61.111Y-78.74
X61.493Y-74.326
X61.58Y-86.1
X61.589Y-39.055
X61.621Y-60.247
X61.798Y-87.873
X61.884Y-79.145
X61.927Y-78.154
X61.997Y-84.749
X62.404Y-80.398
X62.678Y-20.446
X62.731Y-60.542
X63.041Y-78.03
X63.151Y-75.32
X63.319Y-75.95
X63.341Y-79.934
X63.671Y-78.022
X64.304Y-87.902
X64.316Y-44.931
X64.331Y-80.179
X64.398Y-23.166
X64.675Y-39.69
X64.848Y-13.986
X65.171Y-27.658
X65.337Y-43.346
X65.35Y-46.02
X65.577Y-26.456
X65.922Y-77.565
X66.118Y-69.057
X66.267Y-65.275
X66.271Y-11.932
X66.281Y-54.345
X66.282Y-78.104
X66.356Y-55.49
X66.445Y-72.164
X66.475Y-63.022
X66.57Y-63.652
X66.621Y-41.976
X66.628Y-53.292
X66.769Y-28.325
X66.832Y-51.612
X66.853Y-84.08
X67.134Y-67.435
X67.252Y-44.232
X67.367Y-66.444
X67.413Y-60.413
X67.414Y-59.002
X67.438Y-55.446
X67.659Y-64.724
X68.014Y-65.927
X68.1Y-60.908
X68.417Y-59.91
X68.562Y-65.249
X68.616Y-74.177
X68.655Y-43.546
X68.743Y-47.957
X68.767Y-9.417
X68.781Y-51.945
X68.804Y-78.104
X68.914Y-24.227
X68.918Y-25.606
X69.237Y-21.687
X69.263Y-48.328
X69.265Y-63.241
X69.361Y-19.77
X69.427Y-68.196
X69.456Y-38.056
X69.471Y-36.881
X69.548Y-28.905
X69.586Y-73.02
X69.65Y-72.276
X69.808Y-64.172
X70.172Y-30.934
X70.408Y-44.009
X70.864Y-25.481
X71.158Y-24.869
X71.384Y-72.795
X71.67Y-74.353
X71.729Y-41.109
X71.731Y-75.511
X71.735Y-63.25
X71.772Y-61.69
X71.971Y-66.499
X72.05Y-32.868
X72.241Y-62.714
X72.259Y-12.634
X72.31Y-73.709
X72.334Y-68.233
X72.337Y-68.892
X72.339Y-70.891
X72.34Y-75.792
X72.342Y-75.156
X72.817Y-19.722
X73.787Y-33.758
X74.159Y-75.463
X74.249Y-65.324
X74.299Y-68.562
X74.415Y-41.645
X74.487Y-61.16
X74.495Y-20.86
X74.499Y-42.954
X74.55Y-46.409
X74.6Y-61.79
X74.661Y-30.12
X74.71Y-65.82
X74.837Y-74.558
X74.837Y-62.75
X75.215Y-52.901
X75.251Y-14.025
X75.281Y-17.769
X75.37Y-28.721
X75.507Y-27.896
X75.857Y-26.944
X76.127Y-75.898
X76.533Y-86.82
X76.538Y-28.201
X76.554Y-31.5
X76.567Y-23.849
X76.582Y-28.945
X76.592Y-25.061
X76.6Y-25.691
X76.608Y-29.782
X77.149Y-74.693
X77.71Y-15.319
X77.715Y-14.025
X77.786Y-61.52
X77.899Y-65.9
X78.026Y-65.27
X78.056Y-62.179
X78.065Y-18.293
X78.084Y-15.858
X78.657Y-65.187
X78.777Y-61.16
X78.998Y-64.55
X79.507Y-23.788
X79.571Y-44.736
X79.709Y-53.425
X79.719Y-18.436
X79.746Y-42.416
X79.753Y-72.426
X79.812Y-68.733
X79.821Y-70.868
X79.891Y-21.282
X79.974Y-51.41
X80.061Y-14.598
X80.134Y-41.913
X80.291Y-40.427
X80.481Y-15.884
X80.79Y-12.228
X80.872Y-49.762
X81.284Y-22.085
X81.354Y-15.542
X81.639Y-43.225
X81.656Y-67.994
X81.669Y-63.361
X81.682Y-67.25
X81.747Y-36.736
X81.766Y-39.905
X81.885Y-64.25
X81.965Y-39.073
X82.041Y-42.73
X82.178Y-34.227
X82.184Y-44.78
X82.201Y-35.225
X82.342Y-30.771
X82.697Y-41.194
X83.347Y-50.22
X83.97Y-46.174
X83.978Y-42.853
X84.515Y-66.245
X84.739Y-9.627
X85.555Y-13.038
X85.984Y-96.448
X86.075Y-62.674
X86.081Y-16.064
X86.099Y-58.055
X86.132Y-95.652
X86.14Y-26.251
X86.243Y-97.27
X86.268Y-18.214
X86.342Y-11.93
X86.686Y-64.59
X86.715Y-30.459
X86.838Y-54.542
X86.981Y-66.241
X87.095Y-35.917
X87.161Y-30.905
X87.347Y-63.85
X87.368Y-40.984
X87.536Y-52.695
X88.069Y-74.947
X88.09Y-96.917
X88.103Y-3.415
X88.547Y-21.714
X88.982Y-37.028
X89.257Y-50.021
X89.277Y-51.461
X89.825Y-43.546
X89.993Y-41.067
X89.998Y-34.825
X90.123Y-39.163
X90.242Y-12.555
X90.365Y-46.08
X90.564Y-37.165
X90.567Y-46.71
X90.751Y-28.113
X90.757Y-52.477
X90.778Y-41.669
X91.138Y-72.179
X91.454Y-43.524
X91.495Y-72.714
X91.524Y-63.23
X91.728Y-24.712
X91.861Y-71.718
X91.897Y-38.597
X92.02Y-62.133
X92.111Y-35.523
X92.114Y-13.959
X92.219Y-30.842
X92.245Y-25.83
X92.269Y-28.311
X92.518Y-61.593
X93.385Y-66.498
X93.553Y-68.548
X94.047Y-4.172
X94.429Y-11.563
X94.784Y-42.166
X95.37Y-46.606
X95.625Y-61.342
X95.782Y-45.125
X96.165Y-29.406
X96.231Y-67.719
X96.295Y-73.172
X96.32Y-69.646
X96.334Y-75.358
X96.375Y-96.897
X96.884Y-32.853
X96.957Y-39.376
X97.052Y-40.186
X97.112Y-46.833
X97.232Y-36.977
X97.262Y-35.354
X97.956Y-37.954
X98.161Y-73.729
X98.175Y-65.793
X98.199Y-67.25
X98.526Y-64.22
X98.527Y-72.25
X98.535Y-68.835
X98.683Y-41.507
X98.707Y-43.962
X98.755Y-63.59
X98.89Y-35.918
X98.996Y-64.703
X99.284Y-15.481
X99.518Y-33.909
X100.394Y-69.508
X100.881Y-40.723
X101.047Y-49.369
X101.159Y-47.161
X101.335Y-54.876
X101.758Y-79.719
X101.931Y-45.088
X102.042Y-49.695
X102.493Y-71.858
X102.569Y-26.925
X102.928Y-67.295
X102.964Y-69.25
X102.992Y-70.342
X103.191Y-56.9
X103.201Y-55.398
X103.241Y-64.203
X103.551Y-58.359
X103.586Y-62.842
X103.709Y-45.547
X103.749Y-22.483
X103.751Y-23.139
X103.934Y-19.761
X104.056Y-59.743
X104.311Y-47.23
X104.394Y-13.725
X104.526Y-52.659
X104.568Y-51.648
X105.033Y-53.99
X105.184Y-61.314
X105.53Y-94.961
X105.625Y-20.99
X105.656Y-68.25
X105.66Y-70.61
X105.664Y-75.14
X105.664Y-66.347
X105.665Y-65.153
X105.672Y-73.051
X105.83Y-46.08
X105.883Y-74.333
X105.895Y-45.28
X106.11Y-43.636
X106.741Y-43.531
X107.216Y-6.841
X107.282Y-65.292
X107.49Y-4.805
X107.785Y-66.145
X107.935Y-5.473
X108.617Y-21.435
X108.92Y-41.105
X108.937Y-14.755
X108.956Y-9.27
X109.032Y-27.89
X109.515Y-40.51
X109.619Y-85.398
X109.87Y-43.566
X109.882Y-26.445
X110.022Y-47.486
X110.587Y-43.583
X110.925Y-46.243
X110.925Y-85.922
X111.088Y-24.154
X111.436Y-38.588
X111.562Y-25.732
X112.584Y-29.982
X113.158Y-48.705
X113.566Y-22.307
X115.09Y-27.948
X115.175Y-20.762
X117.655Y-19.693
X118.1Y-58.438
X118.734Y-52.411
X118.746Y-49.576
X118.845Y-47.35
X119.049Y-44.979
X119.304Y-46.866
X119.311Y-56.345
X119.312Y-57.284
X119.42Y-58.941
X119.515Y-30.892
X120.098Y-52.094
X120.393Y-11.572
X120.465Y-48.163
X120.962Y-30.89
X120.972Y-50.306
X121.485Y-28.521
X121.559Y-44.912
X121.768Y-21.049
X122.055Y-30.908
X122.246Y-45.03
X123.736Y-37.345
X124.306Y-26.969
X124.834Y-27.475
X124.898Y-25.828
X125.094Y-25.172
X125.235Y-31.847
X125.834Y-24.27
X126.384Y-58.936
X128.389Y-5.26
X128.957Y-30.762
X129.03Y-8.271
X142.268Y-5.057
X144.785Y-38.677
X146.031Y-43.845
X146.494Y-32.221
X147.826Y-41.832
X147.875Y-29.577
X148.615Y-32.283
X148.729Y-43.271
X150.955Y-32.304
X153.341Y-32.304
X153.668Y-41.604
X155.267Y-12.658
X155.588Y-29.504
X156.935Y-31.368
X157.803Y-30.302
X160.039Y-12.787
X163.606Y-41.326
X164.681Y-42.306
X165.7Y-60.975
X166.825Y-29.402
X167.49Y-28.51
X167.911Y-32.281
X168.976Y-36.875
X168.983Y-43.767
X170.109Y-32.155
X170.635Y-41.6
X171.905Y-29.41
X171.905Y-38.705
X173.122Y-41.602
X173.413Y-29.419
X173.844Y-38.905
X175.68Y-37.259
X176.787Y-36.13
T2
X44.096Y-39.714
X46.764Y-82.792
X48.416Y-90.031
X48.594Y-63.366
X49.646Y-89.329
X51.342Y-67.484
X52.686Y-68.648
X57.65Y-81.508
X58.986Y-61.792
X60.912Y-21.795
X62.71Y-32.272
X64.28Y-46.035
X64.438Y-48.059
X64.829Y-24.764
X67.804Y-39.015
X69.01Y-69.963
X70.261Y-69.633
X74.252Y-70.545
X81.754Y-70.329
X82.024Y-66.333
X83.531Y-32.728
X84.286Y-74.564
X91.217Y-89.0
X92.934Y-65.27
X92.971Y-70.736
X99.273Y-30.713
X100.176Y-70.249
X101.501Y-92.364
X117.548Y-15.777
X121.534Y-15.031
X125.449Y-42.925
X127.89Y-43.201
X128.331Y-29.954
X141.27Y-31.053
T3
X197.0Y-49.18
X197.0Y-51.72
X197.0Y-54.26
X197.0Y-56.8
X197.0Y-59.34
X197.0Y-61.88
X197.0Y-64.42
X197.0Y-66.96
X197.0Y-69.5
X56.0Y-79.68
X56.0Y-82.22
X56.0Y-84.76
X56.0Y-87.3
X56.0Y-89.84
X56.0Y-92.38
X56.0Y-94.92
X56.0Y-97.46
X56.0Y-100.0
X197.0Y-76.18
X197.0Y-78.72
X197.0Y-81.26
X197.0Y-83.8
X197.0Y-86.34
X197.0Y-88.88
X197.0Y-91.42
X197.0Y-93.96
X197.0Y-96.5
T4
X131.0Y-6.5
X131.0Y-9.04
X133.54Y-6.5
X133.54Y-9.04
X136.08Y-6.5
X136.08Y-9.04
X138.62Y-6.5
X138.62Y-9.04
X141.16Y-6.5
X141.16Y-9.04
X143.7Y-6.5
X143.7Y-9.04
X146.24Y-6.5
X146.24Y-9.04
X148.78Y-6.5
X148.78Y-9.04
X151.32Y-6.5
X151.32Y-9.04
X153.86Y-6.5
X153.86Y-9.04
X156.4Y-6.5
X156.4Y-9.04
X158.94Y-6.5
X158.94Y-9.04
X161.48Y-6.5
X161.48Y-9.04
X164.02Y-6.5
X164.02Y-9.04
X166.56Y-6.5
X166.56Y-9.04
X169.1Y-6.5
X169.1Y-9.04
X171.64Y-6.5
X171.64Y-9.04
X174.18Y-6.5
X174.18Y-9.04
X176.72Y-6.5
X176.72Y-9.04
X179.26Y-6.5
X179.26Y-9.04
X181.8Y-6.5
X181.8Y-9.04
X12.0Y-94.46
X12.0Y-97.0
X14.54Y-94.46
X14.54Y-97.0
X17.08Y-94.46
X17.08Y-97.0
X19.62Y-94.46
X19.62Y-97.0
X22.16Y-94.46
X22.16Y-97.0
X12.0Y-57.46
X12.0Y-60.0
X14.54Y-57.46
X14.54Y-60.0
X17.08Y-57.46
X17.08Y-60.0
X19.62Y-57.46
X19.62Y-60.0
X22.16Y-57.46
X22.16Y-60.0
X65.3Y-109.0
X67.84Y-109.0
X70.38Y-109.0
X72.92Y-109.0
X75.46Y-109.0
X78.0Y-109.0
X121.5Y-6.5
X121.5Y-9.04
T5
X142.149Y-60.74
X142.149Y-63.28
X142.149Y-65.82
X142.149Y-68.36
X142.149Y-70.9
X142.149Y-73.44
X142.149Y-75.98
X142.149Y-78.52
X142.149Y-81.06
X142.149Y-83.6
X142.149Y-86.14
X142.149Y-88.68
X142.149Y-91.22
X142.149Y-93.76
X142.149Y-96.3
X142.149Y-98.84
X142.149Y-101.38
X142.149Y-103.92
X142.149Y-106.46
X142.149Y-109.0
X147.0Y-60.74
X147.0Y-63.28
X147.0Y-65.82
X147.0Y-68.36
X147.0Y-70.9
X147.0Y-73.44
X147.0Y-75.98
X147.0Y-78.52
X147.0Y-81.06
X147.0Y-83.6
X147.0Y-86.14
X147.0Y-88.68
X147.0Y-91.22
X147.0Y-93.76
X147.0Y-96.3
X147.0Y-98.84
X147.0Y-101.38
X147.0Y-103.92
X147.0Y-106.46
X147.0Y-109.0
X162.149Y-60.74
X162.149Y-63.28
X162.149Y-65.82
X162.149Y-68.36
X162.149Y-70.9
X162.149Y-73.44
X162.149Y-75.98
X162.149Y-78.52
X162.149Y-81.06
X162.149Y-83.6
X162.149Y-86.14
X162.149Y-88.68
X162.149Y-91.22
X162.149Y-93.76
X162.149Y-96.3
X162.149Y-98.84
X162.149Y-101.38
X162.149Y-103.92
X162.149Y-106.46
X162.149Y-109.0
X167.0Y-60.74
X167.0Y-63.28
X167.0Y-65.82
X167.0Y-68.36
X167.0Y-70.9
X167.0Y-73.44
X167.0Y-75.98
X167.0Y-78.52
X167.0Y-81.06
X167.0Y-83.6
X167.0Y-86.14
X167.0Y-88.68
X167.0Y-91.22
X167.0Y-93.76
X167.0Y-96.3
X167.0Y-98.84
X167.0Y-101.38
X167.0Y-103.92
X167.0Y-106.46
X167.0Y-109.0
X182.149Y-60.74
X182.149Y-63.28
X182.149Y-65.82
X182.149Y-68.36
X182.149Y-70.9
X182.149Y-73.44
X182.149Y-75.98
X182.149Y-78.52
X182.149Y-81.06
X182.149Y-83.6
X182.149Y-86.14
X182.149Y-88.68
X182.149Y-91.22
X182.149Y-93.76
X182.149Y-96.3
X182.149Y-98.84
X182.149Y-101.38
X182.149Y-103.92
X182.149Y-106.46
X182.149Y-109.0
X187.0Y-60.74
X187.0Y-63.28
X187.0Y-65.82
X187.0Y-68.36
X187.0Y-70.9
X187.0Y-73.44
X187.0Y-75.98
X187.0Y-78.52
X187.0Y-81.06
X187.0Y-83.6
X187.0Y-86.14
X187.0Y-88.68
X187.0Y-91.22
X187.0Y-93.76
X187.0Y-96.3
X187.0Y-98.84
X187.0Y-101.38
X187.0Y-103.92
X187.0Y-106.46
X187.0Y-109.0
X122.149Y-60.74
X122.149Y-63.28
X122.149Y-65.82
X122.149Y-68.36
X122.149Y-70.9
X122.149Y-73.44
X122.149Y-75.98
X122.149Y-78.52
X122.149Y-81.06
X122.149Y-83.6
X122.149Y-86.14
X122.149Y-88.68
X122.149Y-91.22
X122.149Y-93.76
X122.149Y-96.3
X122.149Y-98.84
X122.149Y-101.38
X122.149Y-103.92
X122.149Y-106.46
X122.149Y-109.0
X127.0Y-60.74
X127.0Y-63.28
X127.0Y-65.82
X127.0Y-68.36
X127.0Y-70.9
X127.0Y-73.44
X127.0Y-75.98
X127.0Y-78.52
X127.0Y-81.06
X127.0Y-83.6
X127.0Y-86.14
X127.0Y-88.68
X127.0Y-91.22
X127.0Y-93.76
X127.0Y-96.3
X127.0Y-98.84
X127.0Y-101.38
X127.0Y-103.92
X127.0Y-106.46
X127.0Y-109.0
T6
X27.4Y-5.46
X27.4Y-8.0
X27.4Y-10.54
X29.94Y-5.46
X29.94Y-8.0
X29.94Y-10.54
X32.48Y-5.46
X32.48Y-8.0
X32.48Y-10.54
X35.02Y-5.46
X35.02Y-8.0
X35.02Y-10.54
X37.56Y-5.46
X37.56Y-8.0
X37.56Y-10.54
X40.1Y-5.46
X40.1Y-8.0
X40.1Y-10.54
X42.64Y-5.46
X42.64Y-8.0
X42.64Y-10.54
X45.18Y-5.46
X45.18Y-8.0
X45.18Y-10.54
X47.72Y-5.46
X47.72Y-8.0
X47.72Y-10.54
X50.26Y-5.46
X50.26Y-8.0
X50.26Y-10.54
X52.8Y-5.46
X52.8Y-8.0
X52.8Y-10.54
X55.34Y-5.46
X55.34Y-8.0
X55.34Y-10.54
X57.88Y-5.46
X57.88Y-8.0
X57.88Y-10.54
X60.42Y-5.46
X60.42Y-8.0
X60.42Y-10.54
X62.96Y-5.46
X62.96Y-8.0
X62.96Y-10.54
X65.5Y-5.46
X65.5Y-8.0
X65.5Y-10.54
X68.04Y-5.46
X68.04Y-8.0
X68.04Y-10.54
X70.58Y-5.46
X70.58Y-8.0
X70.58Y-10.54
X73.12Y-5.46
X73.12Y-8.0
X73.12Y-10.54
X75.66Y-5.46
X75.66Y-8.0
X75.66Y-10.54
X78.2Y-5.46
X78.2Y-8.0
X78.2Y-10.54
X80.74Y-5.46
X80.74Y-8.0
X80.74Y-10.54
X83.28Y-5.46
X83.28Y-8.0
X83.28Y-10.54
X85.82Y-5.46
X85.82Y-8.0
X85.82Y-10.54
X88.36Y-5.46
X88.36Y-8.0
X88.36Y-10.54
X90.9Y-5.46
X90.9Y-8.0
X90.9Y-10.54
X93.44Y-5.46
X93.44Y-8.0
X93.44Y-10.54
X95.98Y-5.46
X95.98Y-8.0
X95.98Y-10.54
X98.52Y-5.46
X98.52Y-8.0
X98.52Y-10.54
X101.06Y-5.46
X101.06Y-8.0
X101.06Y-10.54
X103.6Y-5.46
X103.6Y-8.0
X103.6Y-10.54
X106.14Y-5.46
X106.14Y-8.0
X106.14Y-10.54
T7
X8.63Y-41.54
X8.64Y-46.4
X11.17Y-41.54
X11.17Y-46.4
X13.71Y-41.54
X13.71Y-46.4
X16.25Y-41.54
X16.25Y-46.4
X18.79Y-41.54
X18.79Y-46.4
X21.33Y-41.54
X21.33Y-46.4
X23.87Y-41.54
X23.87Y-46.4
X26.41Y-41.54
X26.41Y-46.4
X28.95Y-41.54
X28.95Y-46.4
X31.49Y-41.54
X31.49Y-46.4
X34.03Y-41.54
X34.03Y-46.4
X36.57Y-41.54
X36.57Y-46.4
X39.11Y-41.54
X39.11Y-46.4
X41.65Y-41.54
X41.65Y-46.4
X44.19Y-41.54
X44.19Y-46.4
X8.63Y-78.54
X8.64Y-83.4
X11.17Y-78.54
X11.17Y-83.4
X13.71Y-78.54
X13.71Y-83.4
X16.25Y-78.54
X16.25Y-83.4
X18.79Y-78.54
X18.79Y-83.4
X21.33Y-78.54
X21.33Y-83.4
X23.87Y-78.54
X23.87Y-83.4
X26.41Y-78.54
X26.41Y-83.4
X28.95Y-78.54
X28.95Y-83.4
X31.49Y-78.54
X31.49Y-83.4
X34.03Y-78.54
X34.03Y-83.4
X36.57Y-78.54
X36.57Y-83.4
X39.11Y-78.54
X39.11Y-83.4
X41.65Y-78.54
X41.65Y-83.4
X44.19Y-78.54
X44.19Y-83.4
T8
X193.5Y-18.0
X193.5Y-20.5
X193.5Y-23.0
X193.5Y-25.5
X196.0Y-18.0
X196.0Y-20.5
X196.0Y-23.0
X196.0Y-25.5
T0
M30
